<svg xmlns="http://www.w3.org/2000/svg" viewBox="0 0 512 512" id="adult-content"><defs><linearGradient id="a" x1="359.9" x2="359.9" y1="380.27" y2="294.47" gradientUnits="userSpaceOnUse"><stop offset="0" stop-color="#cacfdd"></stop><stop offset="1" stop-color="#eef0f1"></stop></linearGradient></defs><g><rect width="6" height="3" x="446.43" y="293.48" fill="#a9afc4"></rect><path fill="#a9afc4" d="M452.43 282h-6v-6.91h6zm0-18.42h-6v-6.9h6zM452.43 245.16h-6v-6.91h6zm0-18.41h-6v-6.91h6zm0-18.41h-6v-6.91h6z"></path><rect width="6" height="6" x="446.43" y="183.93" fill="#a9afc4"></rect><path fill="#a9afc4" d="M436.88,189.93h-5.74v-6h5.74Zm-15.29,0h-5.74v-6h5.74Z"></path><rect width="3" height="6" x="403.3" y="183.93" fill="#a9afc4"></rect><rect width="19.63" height="6" x="408.53" y="65.84" fill="#5e6175" transform="rotate(-45 418.347 68.845)"></rect><rect width="6" height="19.63" x="392.21" y="45.86" fill="#5e6175"></rect><rect width="19.63" height="6" x="422.22" y="87.78" fill="#5e6175"></rect><path fill="#5e6175" d="M235.77 416.32h0a11.65 11.65 0 1120.68 6A11.64 11.64 0 01235.77 416.32zm11.58-6.93a5.63 5.63 0 00-5.61 6.26h0a5.64 5.64 0 105.61-6.26zM287.48 442.68h0a9 9 0 1116 4.63A9 9 0 01287.48 442.67zm6-.67a3 3 0 102.66-3.32 3 3 0 00-2.66 3.32z"></path><path fill="#f5f5f5" d="M403.52,100.64V367.89a17.74,17.74,0,0,1-17.74,17.74h-332A17.75,17.75,0,0,1,36,367.89V100.64A17.75,17.75,0,0,1,53.75,82.9h332A17.74,17.74,0,0,1,403.52,100.64Z"></path><path fill="url(#a)" d="M403.52,289.82v78.07a17.75,17.75,0,0,1-17.75,17.74H316.28V322.1a32.33,32.33,0,0,1,32.3-32.28Z" style="mix-blend-mode:multiply"></path><path fill="#5e6175" d="M385.78,388.63h-332A20.77,20.77,0,0,1,33,367.89V100.64A20.77,20.77,0,0,1,53.75,79.9h332a20.76,20.76,0,0,1,20.74,20.74V367.89A20.76,20.76,0,0,1,385.78,388.63ZM53.75,85.9A14.76,14.76,0,0,0,39,100.64V367.89a14.76,14.76,0,0,0,14.75,14.74h332a14.75,14.75,0,0,0,14.74-14.74V100.64A14.75,14.75,0,0,0,385.78,85.9Z"></path><path fill="#5e6175" d="M403.52,100.64v21.77H36V100.64A17.75,17.75,0,0,1,53.75,82.9h332A17.74,17.74,0,0,1,403.52,100.64Z"></path><path fill="#5e6175" d="M406.52,125.41H33V100.64A20.77,20.77,0,0,1,53.75,79.9h332a20.76,20.76,0,0,1,20.74,20.74ZM39,119.41H400.52V100.64A14.75,14.75,0,0,0,385.78,85.9h-332A14.76,14.76,0,0,0,39,100.64Z"></path><circle cx="62.73" cy="102.66" r="7.68" fill="#f5f5f5"></circle><circle cx="91.82" cy="102.66" r="7.68" fill="#f5f5f5"></circle><rect width="144.95" height="124.53" x="331.05" y="304.58" fill="#f5f5f5" rx="17.53"></rect><path fill="#5e6175" d="M458.47,432.1H348.57a20.55,20.55,0,0,1-20.52-20.52V322.1a20.55,20.55,0,0,1,20.52-20.52h109.9A20.55,20.55,0,0,1,479,322.1v89.48A20.55,20.55,0,0,1,458.47,432.1ZM348.57,307.58a14.53,14.53,0,0,0-14.52,14.52v89.48a14.53,14.53,0,0,0,14.52,14.52h109.9A14.54,14.54,0,0,0,473,411.58V322.1a14.54,14.54,0,0,0-14.53-14.52Z"></path><polygon fill="#e1830e" points="359.26 400.83 359.26 347.3 350.81 347.3 350.81 341.31 358.42 334.39 371.71 334.39 371.71 400.83 359.26 400.83"></polygon><path fill="#e1830e" d="M404.87,400.86a21.78,21.78,0,0,1-14.44-38.1,17.89,17.89,0,1,1,28.88,0,21.78,21.78,0,0,1-14.44,38.1Zm0-30.75a9,9,0,1,0,8.95,8.95A9,9,0,0,0,404.87,370.11Zm0-23a5.07,5.07,0,1,0,5.06,5.07A5.07,5.07,0,0,0,404.87,347.14Z"></path><rect width="24.63" height="8.34" x="432.17" y="342.97" fill="#e1830e"></rect><rect width="8.34" height="24.63" x="440.32" y="334.83" fill="#e1830e"></rect><rect width="105.86" height="11.33" x="243.29" y="169.65" fill="#dee1ec"></rect><rect width="52.93" height="11.33" x="296.21" y="197.06" fill="#dee1ec"></rect><rect width="32.53" height="11.33" x="243.29" y="197.06" fill="#dee1ec"></rect><rect width="105.86" height="11.33" x="243.29" y="224.47" fill="#dee1ec"></rect><rect width="57.64" height="11.33" x="243.29" y="251.89" fill="#dee1ec"></rect><rect width="24.85" height="11.33" x="322.68" y="251.89" fill="#dee1ec"></rect><path fill="#a9afc4" d="M291.19,309.33H253.44a10.15,10.15,0,0,1,0-20.3h37.75a10.15,10.15,0,0,1,0,20.3Z"></path><path fill="#e08326" d="M137.92,174.57a63.14,63.14,0,1,0,63.14,63.13A63.21,63.21,0,0,0,137.92,174.57Zm0,108.43a45,45,0,0,1-24-6.9l62.4-62.4a45.28,45.28,0,0,1-38.4,69.3Zm0-90.6a45,45,0,0,1,24,6.91c0,.1-62.4,62.5-62.4,62.4a45.27,45.27,0,0,1,38.39-69.31Z"></path></g></svg>