<svg xmlns="http://www.w3.org/2000/svg" viewBox="0 0 512 512" id="ai-chip"><g><polygon fill="#e1830e" points="199.53 154.59 183.97 154.59 183.97 115.78 150.59 82.4 150.59 53.77 166.16 53.77 166.16 75.95 199.53 109.33 199.53 154.59"></polygon><polygon fill="#e1830e" points="240.93 154.59 256.5 154.59 256.5 119.1 284.66 90.94 284.66 63.17 269.09 63.17 269.09 84.49 240.93 112.65 240.93 154.59"></polygon><rect width="15.57" height="25.44" x="269.45" y="129.16" fill="#e1830e"></rect><rect width="15.57" height="38.72" x="212.42" y="115.88" fill="#e1830e"></rect><polygon fill="#e1830e" points="313.52 154.59 297.96 154.59 297.96 91.71 321.82 67.85 332.83 78.85 313.52 98.16 313.52 154.59"></polygon><polygon fill="#e1830e" points="344.17 154.59 328.61 154.59 328.61 112.65 357.67 83.59 357.67 53.77 373.23 53.77 373.23 90.04 344.17 119.1 344.17 154.59"></polygon><polygon fill="#e1830e" points="373.23 467.63 357.67 467.63 357.67 445.45 324.29 412.07 324.29 366.81 339.86 366.81 339.86 405.62 373.23 439 373.23 467.63"></polygon><polygon fill="#e1830e" points="311.05 458.23 295.49 458.23 295.49 436.91 267.32 408.75 267.32 366.81 282.89 366.81 282.89 402.3 311.05 430.46 311.05 458.23"></polygon><rect width="15.57" height="27.75" x="295.84" y="366.81" fill="#e1830e"></rect><rect width="15.57" height="91.42" x="238.81" y="366.81" fill="#e1830e"></rect><polygon fill="#e1830e" points="201.76 443.07 190.75 432.06 210.3 412.52 210.3 366.81 225.86 366.81 225.86 418.97 201.76 443.07"></polygon><polygon fill="#e1830e" points="166.16 467.63 150.59 467.63 150.59 431.36 179.65 402.3 179.65 366.81 195.22 366.81 195.22 408.75 166.16 437.81 166.16 467.63"></polygon><polygon fill="#e1830e" points="86.02 375.51 57.39 375.51 57.39 359.95 79.57 359.95 112.95 326.57 158.21 326.57 158.21 342.14 119.4 342.14 86.02 375.51"></polygon><polygon fill="#e1830e" points="94.56 313.33 66.79 313.33 66.79 297.77 88.11 297.77 116.27 269.61 158.21 269.61 158.21 285.17 122.72 285.17 94.56 313.33"></polygon><rect width="27.42" height="15.57" x="130.8" y="298.12" fill="#e1830e"></rect><rect width="38.72" height="15.57" x="119.5" y="241.09" fill="#e1830e"></rect><polygon fill="#e1830e" points="158.21 228.15 95.33 228.15 72.75 205.57 83.76 194.56 101.78 212.58 158.21 212.58 158.21 228.15"></polygon><polygon fill="#e1830e" points="158.21 197.5 116.27 197.5 87.21 168.44 57.39 168.44 57.39 152.87 93.66 152.87 122.72 181.93 158.21 181.93 158.21 197.5"></polygon><polygon fill="#e1830e" points="415.69 201.82 370.43 201.82 370.43 186.25 409.24 186.25 442.62 152.87 471.25 152.87 471.25 168.44 449.07 168.44 415.69 201.82"></polygon><polygon fill="#e1830e" points="412.37 258.78 370.43 258.78 370.43 243.21 405.92 243.21 434.08 215.05 461.85 215.05 461.85 230.62 440.53 230.62 412.37 258.78"></polygon><rect width="23.6" height="15.57" x="370.43" y="214.7" fill="#e1830e"></rect><rect width="38.72" height="15.57" x="370.43" y="271.73" fill="#e1830e"></rect><polygon fill="#e1830e" points="448.02 336.96 426.87 315.81 370.43 315.81 370.43 300.24 433.31 300.24 459.03 325.96 448.02 336.96"></polygon><polygon fill="#e1830e" points="471.25 375.52 434.98 375.52 405.92 346.46 370.43 346.46 370.43 330.89 412.37 330.89 441.43 359.95 471.25 359.95 471.25 375.52"></polygon><circle cx="57.39" cy="160.65" r="17.77" fill="#5e6175" transform="rotate(-22.05 57.403 160.645)"></circle><circle cx="365.45" cy="53.77" r="17.77" fill="#5e6175" transform="rotate(-22.05 365.452 53.781)"></circle><circle cx="454.61" cy="331.46" r="17.77" fill="#5e6175" transform="rotate(-22.05 454.607 331.45)"></circle><circle cx="246.59" cy="458.23" r="17.77" fill="#5e6175" transform="rotate(-22.05 246.59 458.23)"></circle><rect width="19.72" height="6" x="104.48" y="125.27" fill="#5e6175" transform="rotate(-45 114.34 128.269)"></rect><rect width="6" height="19.72" x="88.11" y="105.19" fill="#5e6175"></rect><rect width="19.71" height="6" x="118.23" y="147.3" fill="#5e6175"></rect><path fill="#a9afc4" d="M458.31,398h-6v-6h6Zm-16,0h-6v-6h6Zm-17-2.1a23.89,23.89,0,0,1-5.76-3.7l3.94-4.53a17.82,17.82,0,0,0,4.3,2.76Zm-13-10.88-4.25-4.24,4.24-4.25,4.25,4.25ZM401.14,374a17.72,17.72,0,0,0-4.34-2.7l2.39-5.5a23.8,23.8,0,0,1,5.82,3.61Zm-12.91-4.16h-6v-6h6Z"></path><rect width="212.22" height="212.22" x="158.21" y="154.59" fill="#a9afc4" rx="21.34"></rect><path fill="#5e6175" d="M349.09,369.81H179.56a24.37,24.37,0,0,1-24.35-24.34V175.93a24.37,24.37,0,0,1,24.35-24.34H349.09a24.37,24.37,0,0,1,24.34,24.34V345.47A24.37,24.37,0,0,1,349.09,369.81ZM179.56,157.59a18.37,18.37,0,0,0-18.35,18.34V345.47a18.37,18.37,0,0,0,18.35,18.34H349.09a18.36,18.36,0,0,0,18.34-18.34V175.93a18.36,18.36,0,0,0-18.34-18.34Z"></path><polygon fill="#f5f5f5" points="340.77 184.25 340.77 337.15 187.88 337.15 187.88 228.22 231.84 184.25 340.77 184.25"></polygon><path fill="#5e6175" d="M343.77,340.15H184.88V227l45.72-45.73H343.77Zm-152.89-6H337.77V187.25H233.08l-42.2,42.21Z"></path><path fill="#e1830e" d="M269.72,297.11l11.8,0-33-65.47-33.57,65.47h11.83l6.36-12.41h30.35Zm-31.19-22.89,9.9-19.32,9.74,19.32Z"></path><rect width="10.47" height="65.46" x="296.86" y="231.68" fill="#e1830e"></rect></g></svg>