<svg xmlns="http://www.w3.org/2000/svg" viewBox="0 0 512 512" id="ai-generate"><defs><linearGradient id="linear-gradient" x1="332.42" x2="437.69" y1="188.88" y2="188.88" gradientUnits="userSpaceOnUse"><stop offset="0" stop-color="#cacfdd"></stop><stop offset="1" stop-color="#eef0f1"></stop></linearGradient></defs><g style="isolation:isolate"><g id="AI_Generate"><path d="M433.26,228.7a54.18,54.18,0,0,1-53.6-92.93A194,194,0,0,0,300.6,90.11a54.2,54.2,0,0,1-107.31,0,191.7,191.7,0,0,0-79.09,45.63,54.16,54.16,0,0,1-53.6,92.89A192,192,0,0,0,60.66,320a54.18,54.18,0,0,1,53.59,92.94,194,194,0,0,0,79,45.66,54.19,54.19,0,0,1,107.31-.05,193,193,0,0,0,79.11-45.64A54.15,54.15,0,0,1,433.31,320,193.65,193.65,0,0,0,433.26,228.7ZM337,326.37a104,104,0,0,1-142.13,38.09c-49.09-28.28-66.32-93.19-38.13-142.1a104,104,0,0,1,142.14-38.09C347.8,212.44,365.21,277.55,337,326.37Z" fill="#dee1ec"></path><path d="M106.5,351.07a32.14,32.14,0,0,0-3.65-4.09l4.12-4.36a37.53,37.53,0,0,1,4.33,4.85Zm-46-7.93-.65-6a16.41,16.41,0,0,0,4.94-1.47L67,341.27A21.88,21.88,0,0,1,60.45,343.14Zm35-1.41a32.45,32.45,0,0,0-5.08-2.08l1.79-5.72a38.76,38.76,0,0,1,6,2.45Zm-46.41-1a18.88,18.88,0,0,1-5.38-4.6l4.69-3.75A13,13,0,0,0,52,335.53Zm26.87-2.16-.93-5.93a38.26,38.26,0,0,1,6.49-.44l-.09,6A31.76,31.76,0,0,0,75.87,338.57ZM39.3,325.81c-.48-2-.88-3.64-1.37-5.92l5.86-1.27c.47,2.16.86,3.79,1.34,5.77ZM36,309.93c-.34-2-.65-4-.93-6l5.94-.83c.28,1.94.58,3.91.91,5.84Zm-2.1-16.08c-.18-2-.34-4.05-.47-6.07l6-.38c.12,2,.28,3.94.46,5.89ZM33,277.65q0-3,0-6.08l6,.06c0,2,0,4,0,5.92Zm6.33-15.87-6-.35c.12-2,.27-4.06.44-6.07l6,.52C39.62,257.83,39.47,259.82,39.36,261.78Zm1.52-15.69-5.94-.81c.27-2,.57-4,.9-6l5.92,1C41.44,242.18,41.15,244.15,40.88,246.09Zm2.73-15.52-5.86-1.27c.42-2,.89-4,1.37-5.93l5.82,1.44C44.48,226.7,44,228.64,43.61,230.57Z" fill="#a9afc4"></path><path d="M433.26,228.7a54.18,54.18,0,0,1-53.6-92.93,193.87,193.87,0,0,0-79.05-45.66,54.2,54.2,0,0,1-107.31,0,191.56,191.56,0,0,0-79.1,45.63,54.16,54.16,0,0,1-53.6,92.89,192,192,0,0,0,0,91.28,54.19,54.19,0,0,1,53.6,92.94,193.91,193.91,0,0,0,79.05,45.66,54.19,54.19,0,0,1,107.31-.05,193.09,193.09,0,0,0,79.1-45.64A54.15,54.15,0,0,1,433.31,320,193.52,193.52,0,0,0,433.26,228.7ZM194.91,364.46c-49.08-28.28-66.32-93.19-38.13-142.1a104,104,0,0,1,142.13-38.09c48.89,28.17,66.3,93.28,38.14,142.1A104,104,0,0,1,194.91,364.46Z" fill="#dee1ec"></path><path d="M437.69,254.35c-51.4,17.58-105.27-20.84-105.27-75.35a79.45,79.45,0,0,1,27.23-59.89,192.9,192.9,0,0,1,20,16.66,54.18,54.18,0,0,0,53.6,92.93A193.65,193.65,0,0,1,437.69,254.35Z" style="mix-blend-mode:multiply" fill="url(#linear-gradient)"></path><path d="M433.26,228.7a54.18,54.18,0,0,1-53.6-92.93,193.87,193.87,0,0,0-79.05-45.66,54.2,54.2,0,0,1-107.31,0,191.56,191.56,0,0,0-79.1,45.63,54.16,54.16,0,0,1-53.6,92.89,192,192,0,0,0,0,91.28,54.19,54.19,0,0,1,53.6,92.94,193.91,193.91,0,0,0,79.05,45.66,54.19,54.19,0,0,1,107.31-.05,193.09,193.09,0,0,0,79.1-45.64A54.15,54.15,0,0,1,433.31,320,193.52,193.52,0,0,0,433.26,228.7ZM194.91,364.46c-49.08-28.28-66.32-93.19-38.13-142.1a104,104,0,0,1,142.13-38.09c48.89,28.17,66.3,93.28,38.14,142.1A104,104,0,0,1,194.91,364.46Z" fill="none" stroke="#5e6175" stroke-miterlimit="10" stroke-width="6px"></path><circle cx="412.01" cy="179.01" r="63.99" fill="#f5f5f5"></circle><path d="M412,246a67,67,0,1,1,67-67A67.07,67.07,0,0,1,412,246Zm0-128a61,61,0,1,0,61,61A61.07,61.07,0,0,0,412,118Z" fill="#5e6175"></path><circle cx="414.85" cy="152.78" r="12.53" fill="#e1830e"></circle><circle cx="380.42" cy="178.17" r="12.53" fill="#e1830e"></circle><circle cx="445.79" cy="175.63" r="12.53" fill="#e1830e"></circle><path d="M419.53 159.08v35.8l-16 16v19.37a51.47 51.47 0 0 1-9.35-2.78V207l16-16V159.08ZM450.47 178.17V206.3l-14 14v6.1a52.51 52.51 0 0 1-9.36 3.32V216.41l14-14V178.17ZM385.1 133.18V180h-9.35V140.86A53.48 53.48 0 0 1 385.1 133.18Z" fill="#e1830e"></path><path d="M429.59 398.71a12.51 12.51 0 1 1 11.85-16.56h0A12.53 12.53 0 0 1 429.59 398.71Zm-6.15-10.41a6.51 6.51 0 1 0 9-7.95A6.52 6.52 0 0 0 423.44 388.3ZM383.5 440.42a8.89 8.89 0 1 1 16.4 1.06A8.9 8.9 0 0 1 383.5 440.42Zm8.41-5.76a2.89 2.89 0 1 0 2.74 2A2.9 2.9 0 0 0 391.91 434.66Z" fill="#5e6175"></path><path d="M228.3 78c12.79 0 23.16 11 23.16 24.57a25.24 25.24 0 0 1 6.78-17.37A22.46 22.46 0 0 1 274.62 78c-12.79 0-23.16-11-23.16-24.57C251.46 67 241.09 78 228.3 78ZM82.5 188.85c6.43 0 11.63 5.52 11.63 12.34a12.69 12.69 0 0 1 3.39-8.7 11.27 11.27 0 0 1 8.25-3.64c-6.43 0-11.64-5.52-11.64-12.34C94.13 183.33 88.93 188.85 82.5 188.85ZM266.29 242.88A14.84 14.84 0 1 0 251.46 228 14.84 14.84 0 0 0 266.29 242.88ZM292.13 264.63 267.47 288l-45.39-45.39-56.86 56.87a85.51 85.51 0 0 0 162.9 1.65c.17-.5.34-1 .49-1.54Z" fill="#e1830e"></path></g></g></svg>