<svg xmlns="http://www.w3.org/2000/svg" viewBox="0 0 512 512" id="ai-vision"><defs><linearGradient id="a" x1="261.43" x2="261.43" y1="90.07" y2="260.45" gradientUnits="userSpaceOnUse"><stop offset="0" stop-color="#cacfdd"></stop><stop offset="1" stop-color="#eef0f1"></stop></linearGradient></defs><g style="isolation:isolate"><rect width="20.24" height="6" x="405.62" y="69.99" fill="#5e6175" transform="rotate(-45 415.736 72.996)"></rect><rect width="6" height="20.24" x="388.89" y="49.31" fill="#5e6175"></rect><rect width="20.24" height="6" x="419.73" y="92.61" fill="#5e6175"></rect><path fill="#a9afc4" d="M54,307.12,50.4,302.3l4.82-3.57,3.58,4.82Zm-9.53-12.85a33.2,33.2,0,0,1-3.56-5.44l5.36-2.7a28.65,28.65,0,0,0,3,4.57ZM38.1,278a26.55,26.55,0,0,1,.61-6.72l5.85,1.29a20.79,20.79,0,0,0-.46,5.2Zm10.11-13.33-4.85-3.52c1.15-1.59,2.38-3.23,3.66-4.88l4.74,3.68C50.52,261.53,49.33,263.12,48.21,264.65ZM58,252.28l-4.57-3.89c1.29-1.52,2.63-3.07,4-4.58l4.48,4C60.57,249.28,59.26,250.78,58,252.28Zm10.6-11.76-4.35-4.14q2.07-2.17,4.22-4.34l4.26,4.22Q70.62,238.39,68.59,240.52Zm11.22-11.18L75.69,225c4.06-3.83,2.64-2.36,4.17-4L84.27,225A51.37,51.37,0,0,1,79.81,229.34Z"></path><polygon fill="#e1830e" points="301.89 462.69 270.15 430.95 270.15 374.58 286.13 374.58 286.13 424.34 313.19 451.39 301.89 462.69"></polygon><rect width="15.98" height="44.28" x="367.85" y="348.11" fill="#e1830e"></rect><rect width="15.98" height="80.93" x="182.17" y="122.18" fill="#e1830e"></rect><polygon fill="#e1830e" points="161.84 212.27 116.64 167.07 116.64 138.74 90.75 112.85 102.05 101.55 132.62 132.12 132.62 160.45 173.14 200.97 161.84 212.27"></polygon><polygon fill="#e1830e" points="402.02 441.09 358.23 441.09 297.37 380.23 308.67 368.93 364.85 425.11 402.02 425.11 402.02 441.09"></polygon><polygon fill="#e1830e" points="244.42 457.04 228.44 457.04 228.44 429.36 206.23 407.15 206.23 370.25 222.21 370.25 222.21 400.53 244.42 422.74 244.42 457.04"></polygon><rect width="46.09" height="15.98" x="98.3" y="343.68" fill="#e1830e" transform="rotate(-45 121.349 351.676)"></rect><rect width="15.98" height="40.63" x="282.97" y="144.29" fill="#e1830e"></rect><rect width="50.46" height="15.98" x="358.95" y="183.55" fill="#e1830e" transform="rotate(-45 384.181 191.547)"></rect><polygon fill="#e1830e" points="411.01 253.92 399.71 242.62 440.61 201.71 440.61 147.59 456.59 147.59 456.59 208.33 411.01 253.92"></polygon><polygon fill="#e1830e" points="47.3 412.89 36 401.59 58.21 379.38 58.21 331.77 98.77 291.21 110.07 302.51 74.19 338.39 74.19 386 47.3 412.89"></polygon><polygon fill="#e1830e" points="139.66 432.86 128.36 421.56 158.62 391.3 158.62 335.13 174.6 335.13 174.6 397.91 139.66 432.86"></polygon><polygon fill="#e1830e" points="132.49 246.46 84.91 198.88 40.88 198.88 40.88 182.91 91.53 182.91 143.78 235.16 132.49 246.46"></polygon><polygon fill="#e1830e" points="476 368.38 435.94 368.38 384.25 316.7 395.55 305.4 442.56 352.4 476 352.4 476 368.38"></polygon><polygon fill="#e1830e" points="249.41 203.12 233.43 203.12 233.43 139.47 266.06 106.85 266.06 72.46 282.03 72.46 282.03 113.47 249.41 146.09 249.41 203.12"></polygon><polygon fill="#e1830e" points="351.79 191.23 335.81 191.23 335.81 143.07 380.59 98.29 391.89 109.59 351.79 149.69 351.79 191.23"></polygon><path fill="#f5f5f5" d="M261.43,168c-123.1,0-197.9,109.86-197.9,109.86s74.8,109.87,197.9,109.87h0c123.11,0,197.9-109.87,197.9-109.87S384.54,168,261.43,168Z"></path><path fill="url(#a)" d="M459.33,277.82a202.11,202.11,0,0,1-12.6,16c-26.14-30.48-91.78-93.88-185.3-93.88s-159.15,63.4-185.3,93.88a202.11,202.11,0,0,1-12.6-16S138.33,168,261.43,168,459.33,277.82,459.33,277.82Z" style="mix-blend-mode:multiply"></path><path fill="#5e6175" d="M114.43,335.09C91,316.23,71,294.16,59.9,277.82,71,261.56,91,239.47,114.43,220.55c91.94-74.07,202-74.13,294,0,23.4,18.86,43.41,40.94,54.53,57.27-11.06,16.26-31,38.35-54.53,57.27C316.33,409.3,206.23,409.06,114.43,335.09ZM67.21,277.82a294.36,294.36,0,0,0,51.13,52.72c89.65,72.13,196.45,72.2,286.18,0a294,294,0,0,0,51.13-52.72,294,294,0,0,0-51.13-52.71c-89.65-72.14-196.45-72.2-286.18,0A294.43,294.43,0,0,0,67.21,277.82Z"></path><circle cx="263.91" cy="277.82" r="79.9" fill="#e1830e"></circle><circle cx="218.52" cy="232.44" r="15.82" fill="#f5f5f5"></circle><path fill="#5e6175" d="M309.32,264.41v-7.93h-14a11.55,11.55,0,0,0-8.17-8.17v-14h-7.93V247.9h-9.61V234.33H261.7V247.9h-9.61V234.33h-7.93v14a11.55,11.55,0,0,0-8.17,8.17H222v7.93h13.57V274H222V282h13.57v9.61H222v7.93h14a11.55,11.55,0,0,0,8.17,8.17v14h7.93V308.07h9.61v13.57h7.93V308.07h9.61v13.57h7.93v-14a11.55,11.55,0,0,0,8.17-8.17h14v-7.93H295.75V282h13.57V274H295.75v-9.61Z"></path><rect width="39.77" height="38.35" x="245.78" y="258.81" fill="#f5f5f5"></rect><circle cx="134.01" cy="427.21" r="18.24" fill="#5e6175" transform="rotate(-22.05 134.017 427.213)"></circle><circle cx="386.24" cy="103.94" r="18.24" fill="#5e6175" transform="rotate(-22.05 386.232 103.939)"></circle><circle cx="402.02" cy="433.1" r="18.24" fill="#5e6175" transform="rotate(-22.05 402.011 433.105)"></circle><circle cx="190.16" cy="122.18" r="18.24" fill="#5e6175" transform="rotate(-22.05 190.17 122.184)"></circle></g></svg>