<svg xmlns="http://www.w3.org/2000/svg" xmlns:xlink="http://www.w3.org/1999/xlink" viewBox="0 0 512 512" id="air-delivery"><defs><linearGradient id="a" x1="246.02" x2="246.02" y1="424.26" y2="276.54" gradientUnits="userSpaceOnUse"><stop offset="0" stop-color="#cacfdd"></stop><stop offset="1" stop-color="#eef0f1"></stop></linearGradient><linearGradient xlink:href="#a" id="b" x1="246.02" x2="246.02" y1="424.26" y2="276.54"></linearGradient><linearGradient xlink:href="#a" id="c" x1="265.54" x2="308.84" y1="382.32" y2="382.32"></linearGradient></defs><g style="isolation:isolate"><path fill="#f5f5f5" d="M91.64,201.17a38.6,38.6,0,0,1,77.19,1,38.6,38.6,0,0,1,77.19,0,38.6,38.6,0,0,1,77.19,0,38.6,38.6,0,0,1,77.19-1,154.38,154.38,0,0,0-308.76,0Z"></path><path fill="#a9afc4" d="M91.64 201.17a38.6 38.6 0 0177.19 1V170.58c0-52.1 29-100 75.82-122.8A154.38 154.38 0 0091.64 201.17zM246 47.77V202.16a38.6 38.6 0 1177.19 0V170.58c0-52.08-29.15-99.94-75.88-122.8z"></path><path fill="#5e6175" d="M326.21,202.16h-6a35.6,35.6,0,0,0-71.19,0h-6a35.6,35.6,0,0,0-71.19,0h-6a35.6,35.6,0,0,0-71.19-.91l-6-.1a157.38,157.38,0,0,1,314.76,0l-6,.1a35.61,35.61,0,0,0-71.2.91Zm-41.6-41.59a41.67,41.67,0,0,1,38.6,26.08,41.71,41.71,0,0,1,72.21-9.16,151.43,151.43,0,0,0-298.79,0,41.7,41.7,0,0,1,72.2,9.16,41.6,41.6,0,0,1,77.19,0A41.66,41.66,0,0,1,284.61,160.57Z"></path><path fill="#5e6175" d="M326.21,202.16h-6a35.6,35.6,0,1,0-71.19,0h-6V44.75l5,0c49.84,24.38,78.17,74,78.17,125.79Zm-6-21.5V170.58c0-50-27.39-95.74-71.19-118.58V180.66A41.59,41.59,0,0,1,320.21,180.66Z"></path><path fill="#5e6175" d="M249 202.16h-6a35.6 35.6 0 10-71.19 0h-6V170.58c0-52.51 28.85-101.77 78.11-125.79l5.08 0zm-6-21.5V52c-43.77 22.75-71.19 68.47-71.19 118.62v10.08A41.59 41.59 0 01243 180.66zM100.36 98.34A11.25 11.25 0 0089.29 87.27 17.05 17.05 0 0172.24 70.21 11.24 11.24 0 0061.17 59.15v-6A17.12 17.12 0 0178.24 70.2 11.06 11.06 0 0089.3 81.27a17.13 17.13 0 0117.06 17.06zM387.56 102.27v-6a13 13 0 0012.82-12.83 18.81 18.81 0 0118.82-18.8A13 13 0 00432 51.81 18.81 18.81 0 01450.83 33v6A12.81 12.81 0 00438 51.82a19.07 19.07 0 01-18.77 18.82 12.81 12.81 0 00-12.87 12.81A18.9 18.9 0 01387.56 102.27z"></path><path fill="url(#a)" d="M183.2,299.5v117H308.85v-117Z"></path><path fill="url(#b)" d="M183.2,299.5v117H308.84v-117Z"></path><polygon fill="#e08326" points="229.32 299.5 229.32 330.57 234.89 326.63 240.47 330.57 246.04 326.63 251.6 330.57 257.17 326.63 262.73 330.57 262.73 299.5 229.32 299.5"></polygon><rect width="31.27" height="12.55" x="199.5" y="392.29" fill="#5e6175"></rect><path fill="#5e6175" d="M310.15,302.5H181.89L88.64,202.35V200h4.29l.91-.84L184.5,296.5h123c96.79-103.95,89.86-96.27,89.86-97h.45l.36-.38.41.38h4.78v2.84Z"></path><polygon fill="#5e6175" points="273.82 302.5 218.22 302.5 165.83 202.9 165.83 196.33 171.83 196.33 171.83 201.42 221.85 296.5 270.2 296.5 320.21 201.42 320.21 199.51 326.21 199.51 326.21 202.9 273.82 302.5"></polygon><rect width="6" height="97.34" x="243.02" y="202.16" fill="#5e6175"></rect><path fill="#5e6175" d="M432.29 212.79A11.21 11.21 0 11440.53 194 11.14 11.14 0 01432.29 212.79zm0-16.43a5.21 5.21 0 105.2 5.43A5.23 5.23 0 00432.29 196.36zM400.23 252.5a8.62 8.62 0 01-6.4-2.8 8.72 8.72 0 016.75-14.59 8.7 8.7 0 01-.35 17.39zm0-11.4a2.7 2.7 0 102.69 2.81A2.71 2.71 0 00400.23 241.1z"></path><rect width="16.48" height="6" x="159.34" y="431.89" fill="#5e6175" transform="rotate(-45 167.576 434.888)"></rect><rect width="6" height="16.48" x="184" y="437.7" fill="#5e6175"></rect><rect width="16.48" height="6" x="147.85" y="413.47" fill="#5e6175"></rect><path fill="url(#c)" d="M308.84,348.17v68.3h-43.3A75.64,75.64,0,0,1,308.84,348.17Z" style="mix-blend-mode:multiply"></path><path fill="#5e6175" d="M311.85,419.47H180.2v-123H311.85Zm-125.65-6H305.85v-111H186.2Z"></path><circle cx="341.08" cy="416.47" r="59.53" fill="#f5f5f5"></circle><path fill="#5e6175" d="M341.08,479a62.53,62.53,0,1,1,62.52-62.53A62.6,62.6,0,0,1,341.08,479Zm0-119a56.53,56.53,0,1,0,56.52,56.52A56.59,56.59,0,0,0,341.08,360Z"></path><path fill="#e1830e" d="M342.67,383.25a23.81,23.81,0,0,0-23.34,33.38c.68,1.7,20.72,32.83,21.75,34.43,11.32-17.59,21.94-34.43,21.74-34.43A23.83,23.83,0,0,0,342.67,383.25Zm-1.59,32.68a10.64,10.64,0,1,1,10.64-10.64A10.64,10.64,0,0,1,341.08,415.93Z"></path><path fill="#a9afc4" d="M117.94,266.12l-4-4.43,4.44-4,4,4.43ZM107.15,254.3l-4-4.43,4.43-4,4,4.43ZM96.37,242.48l-4-4.43L96.76,234l4,4.44ZM85.59,230.66l-4-4.43,4.43-4,4,4.44ZM74.81,218.84c-3.66-4-3.66-4-4.13-4.57l4.63-3.81c.4.48.36.41,3.93,4.33Zm-8.83-15a34.27,34.27,0,0,1-.2-6.53l6,.15a30,30,0,0,0,.13,5.46Zm6.35-16.17-6-.53c.18-2,.39-4.06.65-6.08l6,.75C72.71,183.73,72.5,185.7,72.33,187.65Zm2.14-15.55L68.58,171c.37-2,.79-4,1.25-6l5.84,1.33C75.24,168.23,74.84,170.17,74.47,172.1Zm3.69-15.26-5.75-1.71c.58-2,1.21-3.92,1.86-5.83L80,151.24C79.32,153.07,78.72,155,78.16,156.84Zm5.3-14.72L78,139.74c1.56-3.62,2.65-5.61,2.69-5.69l5.26,2.89S84.89,138.79,83.46,142.12Z"></path></g></svg>