<svg xmlns="http://www.w3.org/2000/svg" xmlns:xlink="http://www.w3.org/1999/xlink" viewBox="0 0 512 512" id="algorithm"><defs><linearGradient id="a" x1="234.21" x2="334.26" y1="352.34" y2="352.34" gradientUnits="userSpaceOnUse"><stop offset="0" stop-color="#cacfdd"></stop><stop offset="1" stop-color="#eef0f1"></stop></linearGradient><linearGradient xlink:href="#a" id="b" x1="58.35" x2="110.11" y1="82.48" y2="82.48"></linearGradient></defs><g style="isolation:isolate"><rect width="6" height="18.9" x="450.88" y="424.06" fill="#5e6175" transform="rotate(-45 453.9 433.519)"></rect><rect width="18.9" height="6" x="457.1" y="408.24" fill="#5e6175"></rect><rect width="6" height="18.9" x="429.75" y="437.25" fill="#5e6175"></rect><path fill="#a9afc4" d="M39,167.81H33v-5.54h6Zm0-15.54H33v-6h6Zm0-16H33v-6h6Zm0-16H33v-6h6Zm.09-15.78-6-.43a38.66,38.66,0,0,1,1-6.42L40,99.08A31.91,31.91,0,0,0,39.09,104.49Zm4.27-13.88-5.2-3a39.13,39.13,0,0,1,3.72-5.33l4.61,3.83A33.19,33.19,0,0,0,43.36,90.61Zm9.91-11.47L49,74.9l4.24-4.24,4.24,4.24ZM64.58,67.83l-4.24-4.24,4.24-4.25,4.25,4.25Z"></path><path fill="#5e6175" d="M404.31 206.73a11.22 11.22 0 01-8.33-3.66 11.32 11.32 0 118.33 3.66zm0-16.66a5.32 5.32 0 105.31 5.55A5.34 5.34 0 00404.31 190.07zM358.72 243.37A8.78 8.78 0 11374 237.78 8.8 8.8 0 01358.72 243.37zm6.46-8.73a2.78 2.78 0 102.77 2.89A2.78 2.78 0 00365.18 234.64z"></path><polygon fill="#f5f5f5" points="334.26 55.85 334.26 456.15 58.35 456.15 58.35 103.97 104.19 55.85 334.26 55.85"></polygon><path fill="url(#a)" d="M334.26,257.87V446.81a101.48,101.48,0,0,1-60.84-68.46l-33.56-16.86a10.24,10.24,0,0,1,0-18.31l33.56-16.85A101.48,101.48,0,0,1,334.26,257.87Z" style="mix-blend-mode:multiply"></path><polygon fill="url(#b)" points="110.11 55.85 110.11 109.11 58.35 109.11 58.35 103.97 104.19 55.85 110.11 55.85" style="mix-blend-mode:multiply"></polygon><path fill="#5e6175" d="M113.11,112.11H55.35v-9.34l47.56-49.92h10.2Zm-51.76-6h45.76V58.85h-1.63L61.35,105.17Z"></path><rect width="96.08" height="36.76" x="148.78" y="95.51" fill="#a9afc4"></rect><path fill="#5e6175" d="M247.86,135.27H145.78V92.51H247.86Zm-96.08-6h90.08V98.51H151.78Z"></path><polygon fill="#dee1ec" points="252.11 206.63 196.82 179.23 141.53 206.63 196.82 234.03 252.11 206.63"></polygon><path fill="#5e6175" d="M196.82,237.38l-62-30.75,62-30.74,62.05,30.74Zm-48.53-30.75,48.53,24.05,48.54-24.05-48.54-24Z"></path><polygon fill="#a9afc4" points="226.48 318.66 142.94 318.66 166.12 279.43 249.66 279.43 226.48 318.66"></polygon><path fill="#5e6175" d="M228.19,321.66h-90.5l26.72-45.23h90.5Zm-80-6h76.57l19.63-33.23H167.83Z"></path><circle cx="196.3" cy="391.39" r="30.13" fill="#e1830e"></circle><path fill="#5e6175" d="M196.3,424.52a33.13,33.13,0,1,1,33.13-33.13A33.16,33.16,0,0,1,196.3,424.52Zm0-60.26a27.13,27.13,0,1,0,27.13,27.13A27.16,27.16,0,0,0,196.3,364.26Z"></path><polygon fill="#5e6175" points="148.78 394.39 90.89 394.39 90.89 203.63 126.37 203.63 126.37 209.63 96.89 209.63 96.89 388.39 148.78 388.39 148.78 394.39"></polygon><rect width="6" height="22.7" x="193.82" y="245.87" fill="#5e6175"></rect><rect width="6" height="22.7" x="193.82" y="329.63" fill="#5e6175"></rect><polygon fill="#5e6175" points="293.68 209.63 267.74 209.63 267.74 203.63 287.68 203.63 287.68 116.89 259.85 116.89 259.85 110.89 293.68 110.89 293.68 209.63"></polygon><path fill="#5e6175" d="M337.25,459.15H55.35V102.77l47.56-49.92H337.25Zm-275.9-6h269.9V58.85H105.48L61.35,105.17Z"></path><path fill="#f5f5f5" d="M371.6,439A86.65,86.65,0,1,0,286.43,336.5l-31.55,15.84,31.55,15.83A86.65,86.65,0,0,0,371.6,439Z"></path><path fill="#5e6175" d="M371.6,442a89.59,89.59,0,0,1-87.84-71.8L248.2,352.34l35.56-17.86A89.64,89.64,0,1,1,371.6,442Zm-110-89.65,27.53,13.82.28,1.47a83.64,83.64,0,1,0,82.22-98.94c-38.72,0-74.53,26.69-82.5,69.82Z"></path><polygon fill="#e1830e" points="339.97 382.12 312.18 354.33 339.97 326.54 348.82 335.39 329.88 354.33 348.82 373.27 339.97 382.12"></polygon><polygon fill="#e1830e" points="402.24 382.12 393.39 373.27 412.32 354.33 393.39 335.39 402.24 326.54 430.03 354.33 402.24 382.12"></polygon><rect width="51.48" height="12.52" x="346.73" y="348.07" fill="#e1830e" transform="rotate(-65.19 372.489 354.332)"></rect></g></svg>