<svg xmlns="http://www.w3.org/2000/svg" viewBox="0 0 512 512" id="analysis"><defs><linearGradient id="a" x1="310.7" x2="310.7" y1="220.74" y2="477.69" gradientUnits="userSpaceOnUse"><stop offset="0" stop-color="#cacfdd"></stop><stop offset="1" stop-color="#eef0f1"></stop></linearGradient></defs><g style="isolation:isolate"><path fill="#5e6175" d="M379.19,104.47a14,14,0,0,0-14-14H73.63a14,14,0,0,0-14,14v31.87h319.6Z"></path><path fill="#5e6175" d="M382.19,139.34H56.59V104.47a17.06,17.06,0,0,1,17-17H365.15a17.05,17.05,0,0,1,17,17Zm-319.6-6h313.6V104.47a11,11,0,0,0-11-11H73.63a11.06,11.06,0,0,0-11,11Z"></path><path fill="#f5f5f5" d="M59.59,136.34v250a14,14,0,0,0,14,14H365.15a14,14,0,0,0,14-14v-250Z"></path><path fill="#f5f5f5" d="M379.19,136.34v250a14,14,0,0,1-14,14H73.64a14,14,0,0,1-14-14v-250Z"></path><path fill="url(#a)" d="M379.19,266.31V245.07a84.61,84.61,0,0,0-137,66.45c0,62.93,66.58,104.36,123.55,75l.67.67-.32,2.12,7.93,7.93a14.05,14.05,0,0,0,5.15-10.87v-8.23l-11.08-11.07c-30,21.36-67.13,16.49-90.23-6.61a69.19,69.19,0,1,1,101.31-94.13Z" style="mix-blend-mode:multiply"></path><circle cx="89.72" cy="114.46" r="8.27" fill="#f5f5f5"></circle><circle cx="125.45" cy="114.46" r="8.27" fill="#f5f5f5"></circle><polygon fill="#5e6175" points="301.73 359.35 99 359.35 99 167.4 105 167.4 105 353.35 301.73 353.35 301.73 359.35"></polygon><rect width="6" height="5.98" x="139.56" y="335.3" fill="#a9afc4"></rect><path fill="#a9afc4" d="M191.61 343.08h-6v-6h6zm0-16h-6v-6h6zm0-16h-6v-6h6zM231.23 343.08h-6v-6h6zm0-16h-6v-6h6zm0-16h-6v-6h6z"></path><path fill="#5e6175" d="M365.15,403.39H73.63a17.06,17.06,0,0,1-17-17v-253h325.6v253A17.05,17.05,0,0,1,365.15,403.39Zm-302.56-264v247a11.06,11.06,0,0,0,11,11H365.15a11,11,0,0,0,11-11v-247Z"></path><path fill="#f5f5f5" d="M353.31,247.56a69.22,69.22,0,0,0-75.42,112.89c23.26,23.26,60.39,27.85,90.22,6.6l14.82,14.82a20.12,20.12,0,0,0-.42,2l7.6,7.6,16.81-16.81-7.87-7.87c-.66.13-1.32.29-2,.48l-14.6-14.6,1-1.43v0C409.18,314.71,393.72,264.3,353.31,247.56ZM364.15,347a51.58,51.58,0,0,1-51.42,14c-7.46-2.12-13.61-6-19.66-10.67-22.23-19.35-23.55-54.45-2.68-75.32,19.87-19.87,53-19.87,72.86,0C384,295.87,382.31,328.88,364.15,347Z"></path><path fill="#f5f5f5" d="M353.31,247.56a69.22,69.22,0,0,0-75.42,112.89c23.26,23.26,60.39,27.85,90.22,6.6l14.82,14.82a20.12,20.12,0,0,0-.42,2l7.6,7.6,16.81-16.81-7.87-7.87c-.66.13-1.32.29-2,.48l-14.6-14.6,1-1.43v0C409.18,314.71,393.72,264.3,353.31,247.56ZM364.15,347a51.58,51.58,0,0,1-51.42,14c-7.46-2.12-13.61-6-19.66-10.67-22.23-19.35-23.55-54.45-2.68-75.32,19.87-19.87,53-19.87,72.86,0C384,295.87,382.31,328.88,364.15,347Z"></path><path fill="#5e6175" d="M390.11,395.73l-10.79-10.79c.22-1.49.24-1.66.33-2.11l-11.9-11.89c-30.86,20.58-68.48,15.13-92-8.37a72.22,72.22,0,0,1,78.69-117.78c41.05,17,57.93,67.75,32.89,106.08l0,0-1,1.44L398,364c.36-.08.45-.09,2.05-.39l11.11,11.1Zm-4.34-12.83,4.34,4.35,12.56-12.57-4.56-4.56-1.9.55L378.56,353l2.46-3.5a66.19,66.19,0,1,0-120.4-38c0,53.09,59.77,85.83,105.75,53.09l2.07-1.47L386.26,381C385.86,382.53,385.81,382.73,385.77,382.9ZM326.87,366c-14.28,0-24.84-4.85-35.64-13.25-10.32-8.54-18.11-23.27-18.66-39.45a54.42,54.42,0,0,1,107.14-15.12c4.53,18.25-.75,38.24-13.44,50.94A54.42,54.42,0,0,1,326.87,366ZM295,348.11c6.86,5.32,12.42,8.35,18.57,10.1A48.55,48.55,0,0,0,362,345c11.27-11.27,15.92-29,11.89-45.28h0a48.35,48.35,0,0,0-12.76-22.45c-18.6-18.6-50-18.6-68.62,0C272.9,296.83,274.13,329.89,295,348.11Z"></path><path fill="#dee1ec" d="M364.15,347a51.58,51.58,0,0,1-51.42,14c-7.46-2.12-13.61-6-19.66-10.67-22.23-19.35-23.55-54.45-2.68-75.32,19.87-19.87,53-19.87,72.86,0C384,295.87,382.31,328.88,364.15,347Z"></path><path fill="#5e6175" d="M326.87 366c-14.28 0-24.84-4.85-35.64-13.25-10.32-8.54-18.11-23.27-18.66-39.45a54.42 54.42 0 01107.14-15.12c4.53 18.25-.75 38.24-13.44 50.94A54.42 54.42 0 01326.87 366zM295 348.11c6.86 5.32 12.41 8.35 18.57 10.1A48.55 48.55 0 00362 345c17.19-17.2 18.65-48.21-.87-67.73-18.6-18.6-50-18.6-68.62 0C272.9 296.83 274.13 329.89 295 348.11zM417.08 372.29L470 425.2a20.5 20.5 0 01-29 29l-52.73-52.72a20.5 20.5 0 0128.8-29.18z"></path><path fill="#5e6175" d="M438.89,456.31l-52.73-52.72a23.49,23.49,0,0,1,0-33.23c9.36-9.36,24.46-8.92,33-.19l52.92,52.91a23.5,23.5,0,0,1-33.23,33.23Zm-52.1-76.48a17.5,17.5,0,0,0,3.62,19.52l52.72,52.72a17.5,17.5,0,1,0,24.75-24.74L415,374.42A17.52,17.52,0,0,0,386.79,379.83Z"></path><path fill="#a9afc4" d="M136.94,427.88h-6v-6h6Zm-16,0h-6v-6h6Zm-16,0h-6v-6h6Zm-16,0h-6v-6h6Zm-16.2-.1a42.85,42.85,0,0,1-6.38-.93L67.67,421a36.18,36.18,0,0,0,5.48.79Zm-16.47-4.57a41.8,41.8,0,0,1-5.49-3.36l3.5-4.87A36.92,36.92,0,0,0,59,417.87ZM42.92,412.55a43.75,43.75,0,0,1-3.74-5.24l5.12-3.12a37.76,37.76,0,0,0,3.23,4.51Zm-8.11-15a42.14,42.14,0,0,1-1.39-6.3l5.95-.84a35.36,35.36,0,0,0,1.18,5.4ZM39,380.81H33v-6h6Z"></path><path fill="#e1830e" d="M321,322.58a25.59,25.59,0,0,1,10.62-20.2,8.66,8.66,0,1,0-13.69-7.57H306.75a19.83,19.83,0,1,1,31.38,16.63,14.43,14.43,0,0,0-6,11.14Z"></path><rect width="11.22" height="11.22" x="320.85" y="333.1" fill="#e1830e"></rect><rect width="17.68" height="56.69" x="133.72" y="240.02" fill="#a9afc4"></rect><path fill="#5e6175" d="M154.4,299.71H130.72V237H154.4Zm-17.68-6H148.4V243H136.72Z"></path><rect width="6" height="24.99" x="139.56" y="215.03" fill="#5e6175"></rect><rect width="6" height="24.99" x="139.56" y="296.71" fill="#5e6175"></rect><rect width="17.68" height="56.69" x="179.78" y="203.29" fill="#e1830e"></rect><path fill="#5e6175" d="M200.45,263H176.78V200.29h23.67Zm-17.67-6h11.67V206.29H182.78Z"></path><rect width="6" height="24.99" x="185.61" y="178.3" fill="#5e6175"></rect><rect width="6" height="24.99" x="185.61" y="259.98" fill="#5e6175"></rect><rect width="17.68" height="56.69" x="219.39" y="203.29" fill="#dee1ec"></rect><path fill="#5e6175" d="M240.07,263H216.39V200.29h23.68Zm-17.68-6h11.68V206.29H222.39Z"></path><rect width="6" height="24.99" x="225.23" y="178.3" fill="#5e6175"></rect><rect width="6" height="24.99" x="225.23" y="259.98" fill="#5e6175"></rect><rect width="18.5" height="18.5" x="271.13" y="167.4" fill="#dee1ec"></rect><path fill="#5e6175" d="M292.63,188.9H268.12V164.4h24.51Zm-18.51-6h12.51V170.4H274.12Z"></path><rect width="18.5" height="18.5" x="271.13" y="203.07" fill="#dee1ec"></rect><path fill="#5e6175" d="M292.63,224.57H268.12v-24.5h24.51Zm-18.51-6h12.51v-12.5H274.12Z"></path><rect width="38.62" height="6" x="308.03" y="173.65" fill="#5e6175"></rect><rect width="38.62" height="6" x="308.03" y="209.32" fill="#5e6175"></rect><rect width="18.91" height="6" x="385.82" y="70.94" fill="#5e6175" transform="rotate(-44.99 395.304 73.938)"></rect><rect width="6" height="18.91" x="370" y="51.8" fill="#5e6175"></rect><rect width="18.92" height="6" x="399.01" y="92.08" fill="#5e6175"></rect><path fill="#5e6175" d="M421.89 344.26a11.33 11.33 0 1111.19-13.13A11.34 11.34 0 01421.89 344.26zm-4.32-14.44a5.33 5.33 0 109.59 2.26A5.33 5.33 0 00417.57 329.82zM453.85 372.73h0a8.79 8.79 0 1115.8 3.74A8.78 8.78 0 01453.85 372.73zm8.68-4.19a2.78 2.78 0 00-2.75 3.23h0a2.78 2.78 0 102.75-3.23z"></path></g></svg>