<svg xmlns="http://www.w3.org/2000/svg" viewBox="0 0 512 512" id="artboard"><defs><linearGradient id="linear-gradient" x1="304.58" x2="398.68" y1="133.03" y2="133.03" gradientUnits="userSpaceOnUse"><stop offset="0" stop-color="#cacfdd"></stop><stop offset="1" stop-color="#eef0f1"></stop></linearGradient></defs><g style="isolation:isolate"><g id="Artboard"><rect width="264.22" height="264.22" x="134.46" y="153.72" fill="#f5f5f5"></rect><rect width="264.22" height="264.22" x="134.46" y="153.73" fill="#f5f5f5"></rect><rect width="211.03" height="211.5" x="160.92" y="179.77" fill="#dee1ec"></rect><rect width="56.15" height="264.22" x="78.31" y="153.73" fill="#a9afc4"></rect><rect width="264.22" height="56.15" x="134.46" y="97.58" fill="#a9afc4"></rect><rect width="264.22" height="56.14" x="134.46" y="97.58" fill="#a9afc4"></rect><rect width="6" height="24.77" x="395.68" y="434.26" fill="#5e6175"></rect><rect width="6" height="24.77" x="131.46" y="52.98" fill="#5e6175"></rect><rect width="24.77" height="6" x="414.95" y="414.95" fill="#5e6175"></rect><rect width="24.77" height="6" x="36" y="150.73" fill="#5e6175"></rect><rect width="56.15" height="56.15" x="78.31" y="97.58" fill="#e1830e"></rect><path d="M137.46,421H75.31V150.73h62.15Zm-56.15-6h50.15V156.73H81.31Z" fill="#5e6175"></path><path d="M137.46,156.73H75.31V94.58h62.15Zm-56.15-6h50.15V100.58H81.31Z" fill="#5e6175"></path><rect width="16.29" height="6" x="118.17" y="180.35" fill="#5e6175"></rect><rect width="16.29" height="6" x="118.17" y="213.4" fill="#5e6175"></rect><rect width="16.29" height="6" x="118.17" y="246.46" fill="#5e6175"></rect><rect width="16.29" height="6" x="118.17" y="279.51" fill="#5e6175"></rect><rect width="16.29" height="6" x="118.17" y="312.57" fill="#5e6175"></rect><rect width="16.29" height="6" x="118.17" y="345.62" fill="#5e6175"></rect><rect width="16.29" height="6" x="118.17" y="378.68" fill="#5e6175"></rect><rect width="6" height="16.29" x="361.45" y="137.44" fill="#5e6175"></rect><rect width="6" height="16.29" x="328.39" y="137.44" fill="#5e6175"></rect><rect width="6" height="16.29" x="295.34" y="137.44" fill="#5e6175"></rect><rect width="6" height="16.29" x="262.28" y="137.44" fill="#5e6175"></rect><rect width="6" height="16.29" x="229.23" y="137.44" fill="#5e6175"></rect><rect width="6" height="16.29" x="196.17" y="137.44" fill="#5e6175"></rect><rect width="6" height="16.29" x="163.12" y="137.44" fill="#5e6175"></rect><polygon points="163.92 225.84 157.92 225.84 157.92 176.77 206.98 176.77 206.98 182.77 163.92 182.77 163.92 225.84" fill="#5e6175"></polygon><polygon points="374.95 225.84 368.95 225.84 368.95 182.77 325.88 182.77 325.88 176.77 374.95 176.77 374.95 225.84" fill="#5e6175"></polygon><polygon points="206.98 394.27 157.92 394.27 157.92 345.21 163.92 345.21 163.92 388.27 206.98 388.27 206.98 394.27" fill="#5e6175"></polygon><polygon points="374.95 394.27 325.88 394.27 325.88 388.27 368.95 388.27 368.95 345.21 374.95 345.21 374.95 394.27" fill="#5e6175"></polygon><path d="M401.68,421H131.46V150.73H401.68Zm-264.22-6H395.68V156.73H137.46Z" fill="#5e6175"></path><path d="M398.68,97.58v70.91H333a28.46,28.46,0,0,1-28.43-28.43V97.58Z" style="mix-blend-mode:multiply" fill="url(#linear-gradient)"></path><path d="M131.46,156.73V94.58H401.68v62.15Zm6-56.15v50.15H395.68V100.58Z" fill="#5e6175"></path><rect width="113.04" height="97.11" x="319.34" y="56.62" rx="13.67" fill="#f5f5f5"></rect><path d="M418.72,156.73H333a16.69,16.69,0,0,1-16.67-16.67V70.29A16.69,16.69,0,0,1,333,53.62h85.71a16.68,16.68,0,0,1,16.66,16.67v69.77A16.68,16.68,0,0,1,418.72,156.73ZM333,59.62a10.68,10.68,0,0,0-10.67,10.67v69.77A10.69,10.69,0,0,0,333,150.73h85.71a10.68,10.68,0,0,0,10.66-10.67V70.29a10.67,10.67,0,0,0-10.66-10.67Z" fill="#5e6175"></path><circle cx="392.01" cy="86.38" r="7.08" fill="#e1830e"></circle><path d="M422.24,113.17v26.89a3.53,3.53,0,0,1-3.52,3.53H333a3.53,3.53,0,0,1-3.53-3.53V112.91L359,83.43l33.86,33.86,16.76-16.77Z" fill="#e1830e"></path><path d="M168.89,441.55h-6v-6h6Zm-16,0h-6v-6h6Zm-16,0h-6v-6h6Zm-16,0h-6v-6h6Zm-16,0h-6v-6h6Zm-16,0h-6v-6h6ZM72.28,441a22.36,22.36,0,0,1-6.44-2.54l3.06-5.17a16.05,16.05,0,0,0,4.68,1.85ZM57.85,430.32a21.63,21.63,0,0,1-2.41-6.49l5.89-1.17a16,16,0,0,0,1.74,4.72ZM61,413.27H55v-6h6Zm0-16H55v-6h6Z" fill="#a9afc4"></path><path d="M466.81 147a12.18 12.18 0 1 1 11.54-16.12A12.18 12.18 0 0 1 466.81 147Zm-5.53-14.91a6.18 6.18 0 1 0 11.39.73h0A6.18 6.18 0 0 0 461.28 132.11ZM422.24 187.19a8.68 8.68 0 1 1 11 5.41A8.7 8.7 0 0 1 422.24 187.19Zm5.68-1.94a2.69 2.69 0 1 0 3.73-3.28A2.69 2.69 0 0 0 427.92 185.25Z" fill="#5e6175"></path></g></g></svg>