<svg xmlns="http://www.w3.org/2000/svg" xmlns:xlink="http://www.w3.org/1999/xlink" viewBox="0 0 512 512" id="attack"><defs><linearGradient id="a" x1="320.42" x2="344.14" y1="417.84" y2="417.84" gradientUnits="userSpaceOnUse"><stop offset="0" stop-color="#cacfdd"></stop><stop offset="1" stop-color="#eef0f1"></stop></linearGradient><linearGradient xlink:href="#a" id="b" x1="85.82" x2="152.8" y1="408.43" y2="408.43"></linearGradient><linearGradient xlink:href="#a" id="c" x1="113.77" x2="124.31" y1="399.94" y2="399.94"></linearGradient><linearGradient xlink:href="#a" id="d" x1="314.57" x2="352.63" y1="237.35" y2="237.35"></linearGradient></defs><g style="isolation:isolate"><path fill="#dee1ec" d="M265.45,311.66c0,22.14-13.7,30.58-13.7,47.72,0,14.56,4.34,24.91,10.66,37.55a28.86,28.86,0,0,1,53.51,1.79A28.86,28.86,0,0,1,344,429.84h-257c-6.54-23.23,13.07-45.89,37.19-42.52a23.9,23.9,0,0,1,42.59,8.9c7.35-10.74,10.18-24,10.18-36.84,0-17.35-13-26.26-13-48.52l-.44-.21a77.58,77.58,0,1,1-57.26-136.57,114.53,114.53,0,0,1,223.74,34.5,57.26,57.26,0,1,1-45.8,91.61A115.42,115.42,0,0,1,265.45,311.66Z"></path><path fill="url(#a)" d="M344,429.84H320.42l13.85-24A28.76,28.76,0,0,1,344,429.84Z" style="mix-blend-mode:multiply"></path><path fill="#f5f5f5" d="M431.8,151.89l-17.43,18.67v36.9a17.43,17.43,0,0,0,34.86,0V170.12Z"></path><rect width="34.86" height="12.28" x="414.37" y="196.3" fill="#e1830e"></rect><polygon fill="#5e6175" points="451.37 116.13 431.8 134.58 431.8 151.89 443.9 151.28 456.21 138.98 456.21 116.13 451.37 116.13"></polygon><polygon fill="#5e6175" points="407.39 116.13 407.39 138.98 419.69 151.28 431.8 151.89 431.8 134.58 412.23 116.13 407.39 116.13"></polygon><path fill="#5e6175" d="M428.8,155.05V133.28l21.38-20.15h9v27.09l-14,14Zm6-19.18v12.87l7.8-.4,10.61-10.6V119.13h-.65Z"></path><path fill="#5e6175" d="M434.8,155.05l-16.41-.83-14-14V113.13h9l21.38,20.15ZM421,148.34l7.8.4V135.87L411,119.13h-.64v18.61Z"></path><path fill="#5e6175" d="M431.8,227.89a20.45,20.45,0,0,1-20.43-20.43V169.37l20.4-21.85,20.46,21.4v38.54A20.45,20.45,0,0,1,431.8,227.89Zm-14.43-56.15v35.72a14.43,14.43,0,1,0,28.86,0V171.32l-14.41-15.06Z"></path><path fill="url(#b)" d="M151.66,429.84H87C81.31,408.27,97.27,387,119.31,387S157.31,408.25,151.66,429.84Z"></path><path fill="url(#c)" d="M122.94,412.87a30.56,30.56,0,0,1-9-25.4,33.77,33.77,0,0,1,10.27-.15l.07,0C118.83,395.73,118.6,405.17,122.94,412.87Z" style="mix-blend-mode:multiply"></path><circle cx="143.62" cy="401.29" r="23.73" fill="#f5f5f5"></circle><circle cx="113.47" cy="251.5" r="77.47" fill="#dee1ec"></circle><circle cx="330.34" cy="265.84" r="57.26" fill="#dee1ec"></circle><path fill="url(#d)" d="M352.63,213.21c-7.48,31.17-37.31,52.36-38.06,52.91a113.93,113.93,0,0,0,15.49-57.54A57,57,0,0,1,352.63,213.21Z" style="mix-blend-mode:multiply"></path><circle cx="215.54" cy="208.58" r="114.52" fill="#f5f5f5"></circle><path fill="#f5f5f5" d="M317.79,408.59a28.74,28.74,0,0,1-9.37,21.25H269.54a28.81,28.81,0,1,1,48.25-21.25Z"></path><rect width="402.51" height="6" x="42.39" y="426.85" fill="#5e6175"></rect><path fill="#5e6175" d="M178.7 414.43l-5.13-3.12c5.14-8.45 9.48-20.34 12.22-33.47a76.85 76.85 0 00-4.38-45.42l5.53-2.31a82.81 82.81 0 014.72 49C189.63 388.81 185.73 402.86 178.7 414.43zM162.59 313.47c-1.6-.55-39.25-14.27-58-66.21l5.64-2c17.77 49.12 54 62.46 54.38 62.59zM243.43 340.2l-5-3.3a54.1 54.1 0 008.41-33.56l-.34-2.53 2.44-.75c.08 0 9.39-3 18.5-12.62 12.08-12.75 18.41-31.46 18.31-54.1l6 0c.13 30.8-10.92 48.82-20.21 58.52A57 57 0 01253 304.93 60 60 0 01243.43 340.2z"></path><path fill="#a9afc4" d="M133.86,177.12l-5.6-2.16.75-1.89,5.55,2.28C134.32,175.94,134.09,176.52,133.86,177.12Zm4.86-10.49-5.26-2.88c1-1.8,2-3.6,3.15-5.33l5.06,3.22C140.64,163.26,139.65,164.94,138.72,166.63Zm8.58-12.84L142.62,150c1.29-1.61,2.65-3.19,4-4.7l4.42,4.06C149.78,150.8,148.51,152.28,147.3,153.79ZM158,142.64l-3.95-4.52c1.55-1.36,3.17-2.68,4.79-3.92l3.65,4.77C161,140.13,159.45,141.37,158,142.64Zm105.92-7c-1.6-1.07-3.26-2.1-4.93-3.05l3-5.21c1.79,1,3.56,2.12,5.27,3.26Zm-93.44-2.12-3.1-5.14c1.78-1.07,3.6-2.08,5.42-3l2.74,5.34C173.84,131.58,172.14,132.53,170.48,133.53Zm79.88-5.27c-1.76-.77-3.58-1.48-5.4-2.14l2-5.64c1.94.69,3.88,1.46,5.76,2.28Zm-66-1.5-2.14-5.6c1.92-.74,3.9-1.41,5.86-2l1.76,5.74C188,125.44,186.17,126.08,184.37,126.76Zm51.33-3.38c-1.87-.44-3.78-.82-5.68-1.14l1-5.92c2,.34,4.07.75,6.07,1.22Zm-36.46-.82-1.11-5.89c2-.38,4.08-.7,6.12-1l.72,6C203.05,121.91,201.13,122.21,199.24,122.56Zm21.17-1.38c-3.35-.18-3.8-.14-5.8-.13l-.06-6c2,0,3.77,0,6.19.14Z"></path><path fill="#5e6175" d="M319.6 417.19l-5.82-1.46a31.09 31.09 0 00-.68-16l5.64-2A36.68 36.68 0 01319.6 417.19zM165.17 417.09l-4.79-3.62a19 19 0 003.6-16.33l5.71-1.85A25 25 0 01165.17 417.09z"></path><rect width="6" height="62.74" x="431.45" y="36.73" fill="#5e6175"></rect><rect width="6" height="30.31" x="384.6" y="90.04" fill="#5e6175"></rect><rect width="6" height="78.28" x="473" y="74.05" fill="#5e6175"></rect><path fill="#5e6175" d="M346.81 432.84h-262l-.61-2.19c-6.9-24.66 13.18-48.85 38.76-46.5a26.91 26.91 0 0144.57 5.11c5.3-10.37 6.52-21.69 6.52-29.88 0-14.95-10.91-24-12.74-43.11a80.58 80.58 0 11-57.2-145 117.53 117.53 0 01229 34.35 60.26 60.26 0 11-49.33 98.67 118.74 118.74 0 01-15.28 9.22c-.73 21.47-13.65 30.26-13.65 45.84 0 12.26 3.25 21.41 7.84 31.11A31.86 31.86 0 01318 395.83 32 32 0 01347 430.09zm-257.4-6H341.13a26 26 0 00-25.27-25.12l-2.05-.05-.71-1.92a25.86 25.86 0 00-47.94-1.6L262.58 404c-7.62-15.24-13.82-26.82-13.82-44.59 0-8.72 3.3-15.46 6.49-22 5.32-10.84 7.2-16.19 7.2-27.63A114.75 114.75 0 00284.85 296l1.8 2.4a54.26 54.26 0 1043.41-86.82h-3v-3A111.64 111.64 0 00215.54 97.06c-46.6 0-90.92 28.93-107 79.82l-2 .18a74.59 74.59 0 1055 131.29l1.53-1.29 3.85 2c0 11.59 1.86 17.11 6.83 28 3.16 7 6.16 13.54 6.16 22.33 0 15-3.7 28.32-10.7 38.54l-3.9 5.7-1.5-6.74a20.9 20.9 0 00-37.25-7.78l-1.06 1.44-1.77-.24A30.82 30.82 0 0089.41 426.84zM465.05 293.78a9.73 9.73 0 119.29-6.83h0A9.75 9.75 0 01465.05 293.78zm0-13.46a3.73 3.73 0 103.55 4.84h0A3.73 3.73 0 00465.06 280.32zM421.51 331.88a13.39 13.39 0 01-6.2-25.25c10.63-5.57 22.51 4.6 19 15.85h0A13.42 13.42 0 01421.51 331.88zm0-20.78a7.38 7.38 0 107.05 9.59h0A7.39 7.39 0 00421.52 311.1z"></path><rect width="6" height="19.78" x="98.55" y="90.72" fill="#5e6175" transform="rotate(-45 101.544 100.61)"></rect><rect width="19.78" height="6" x="78.4" y="120.91" fill="#5e6175"></rect><rect width="6" height="19.78" x="120.65" y="76.93" fill="#5e6175"></rect><path fill="#f5f5f5" d="M407.24,358.72,459.33,449a15.63,15.63,0,0,1-13.54,23.45H341.6A15.63,15.63,0,0,1,328.06,449l52.1-90.24A15.64,15.64,0,0,1,407.24,358.72Z"></path><path fill="#5e6175" d="M445.79,475.41H341.6a18.63,18.63,0,0,1-16.14-28l52.1-90.24a18.63,18.63,0,0,1,32.27,0l52.1,90.24A18.63,18.63,0,0,1,445.79,475.41Zm-63-115.19-52.1,90.24a12.63,12.63,0,0,0,10.94,19H445.79a12.64,12.64,0,0,0,10.95-19l-52.1-90.24A12.63,12.63,0,0,0,382.76,360.22Z"></path><polygon fill="#e1830e" points="383.46 383.08 383.46 411.48 386.66 429.19 393.68 429.19 393.68 429.2 400.71 429.19 403.92 411.46 403.93 383.08 383.46 383.08"></polygon><rect width="15.37" height="15.37" x="386" y="441.83" fill="#e1830e"></rect></g></svg>