<svg xmlns="http://www.w3.org/2000/svg" xmlns:xlink="http://www.w3.org/1999/xlink" viewBox="0 0 512 512" id="autonomous-vehicle"><defs><linearGradient id="a" x1="357.74" x2="357.74" y1="386.33" y2="477.31" gradientUnits="userSpaceOnUse"><stop offset="0" stop-color="#cacfdd"></stop><stop offset="1" stop-color="#eef0f1"></stop></linearGradient><linearGradient xlink:href="#a" id="b" x1="161.04" x2="161.04" y1="386.33" y2="477.31"></linearGradient></defs><g style="isolation:isolate"><circle cx="59.69" cy="421.12" r="18.46" fill="#e1830e"></circle><path fill="#dee1ec" d="M432.34,400.93v23.64a14.76,14.76,0,0,1-14.76,14.76H125.89a14.76,14.76,0,0,1-14.77-14.76V400.93l9.55-38.63L115.9,342l19-75.24L126.31,262S142.7,250.06,172,250.06H282a21.55,21.55,0,0,1,16.66,7.87l55.5,67.36,53.47,15.38a19.35,19.35,0,0,1,14,18.6v15.87Z"></path><path fill="url(#a)" d="M411.1,439.33H304.38a53.36,53.36,0,0,1,106.72,0Z" style="mix-blend-mode:multiply"></path><path fill="url(#b)" d="M211,439.33H125.89a14.76,14.76,0,0,1-14.77-14.76V413.15A53.35,53.35,0,0,1,211,439.33Z" style="mix-blend-mode:multiply"></path><path fill="#f5f5f5" d="M394.41,359.11l13.55,16H421.6c0-21.37,0-14.47,0-16Z"></path><path fill="#a9afc4" d="M118.09 333.36a31.45 31.45 0 0030.52-23.89l8.26-33.39-9.7-9.31H134.94zM333.91 327.7v13.71H309.73l-6.28-8.05H185.27a18.83 18.83 0 01-18.36-23l7.41-32.71 14.41-12.05h94.86z"></path><polygon fill="#a9afc4" points="120.67 362.3 138.53 362.3 138.53 371.64 128.84 380.28 116.23 380.28 120.67 362.3"></polygon><path fill="#5e6175" d="M424.6 378.14h-18l-18.62-22h36.61C424.63 363.55 424.6 357.74 424.6 378.14zm-15.25-6h9.25v-10H400.88zM118.09 336.36h-3.85l18.37-72.59h15.76l11.83 11.35-8.68 35.07A34.37 34.37 0 01118.09 336.36zm19.19-66.59L122 330.09a28.37 28.37 0 0023.68-21.34l7.85-31.7L146 269.77zM336.91 344.42H308.27L302 336.36H185.27A21.82 21.82 0 01164 309.72l7.62-33.7 16-13.4H285l51.89 64zm-25.71-6h19.71v-9.66l-48.75-60.14H189.82L177 279.32l-7.18 31.73a15.81 15.81 0 0015.43 19.31H304.92zM130 383.28H112.4l5.92-24h23.21V373zm-9.92-6h7.64l7.83-7v-5H123z"></path><path fill="#5e6175" d="M417.59,442.33H125.88a17.78,17.78,0,0,1-17.76-17.76v-24l9.46-38.29L112.81,342l18.66-73.7-10.73-5.94,3.81-2.77c.7-.51,17.52-12.51,47.42-12.51H282a24.49,24.49,0,0,1,19,9l54.91,66.64,52.57,15.12a22.36,22.36,0,0,1,16.17,21.48v15.28l10.74,25.79v24.24A17.77,17.77,0,0,1,417.59,442.33Zm-303.47-41v23.27a11.77,11.77,0,0,0,11.76,11.76H417.59a11.76,11.76,0,0,0,11.75-11.76v-23L418.6,375.74V359.26a16.36,16.36,0,0,0-11.83-15.71l-54.36-15.64-56.09-68.08A18.55,18.55,0,0,0,282,253.06H172c-19.47,0-33.11,5.51-39.6,8.86l6,3.35L119,342l4.77,20.28Z"></path><circle cx="357.75" cy="439.33" r="36.67" fill="#5e6175"></circle><circle cx="157.6" cy="439.33" r="36.67" fill="#5e6175"></circle><path fill="#5e6175" d="M357.75 479a39.67 39.67 0 1139.66-39.67A39.71 39.71 0 01357.75 479zm0-73.34a33.67 33.67 0 1033.66 33.67A33.71 33.71 0 00357.75 405.66zM157.6 479a39.67 39.67 0 1139.67-39.67A39.71 39.71 0 01157.6 479zm0-73.34a33.67 33.67 0 1033.67 33.67A33.71 33.71 0 00157.6 405.66z"></path><circle cx="157.6" cy="439.33" r="13.62" fill="#f5f5f5"></circle><circle cx="357.75" cy="439.33" r="13.62" fill="#f5f5f5"></circle><path fill="#5e6175" d="M184.44,352.53h10a6.72,6.72,0,0,1,6.73,6.72v6.44H177.72v-6.44A6.72,6.72,0,0,1,184.44,352.53Z"></path><rect width="355.13" height="6" x="90.47" y="473" fill="#5e6175"></rect><path fill="#e1830e" d="M100.43,259H83.74a55.17,55.17,0,0,1,55.11-55.11v16.69A38.47,38.47,0,0,0,100.43,259Z"></path><path fill="#e1830e" d="M64.83 259H48.14a90.81 90.81 0 0190.71-90.71V185A74.11 74.11 0 0064.83 259zM415.72 259H399a38.47 38.47 0 00-38.43-38.42V203.88A55.17 55.17 0 01415.72 259z"></path><path fill="#e1830e" d="M451.32,259H434.63a74.11,74.11,0,0,0-74-74V168.28A90.81,90.81,0,0,1,451.32,259Z"></path><path fill="#a9afc4" d="M92.44,390.66,86.66,389l1.64-5.78,5.77,1.64Zm4.35-15.4L91,373.63c1-3.58,1.23-4.25,1.48-5.56l5.89,1.16C98.08,370.85,97.8,371.71,96.79,375.26Zm-4.2-16c-.22-1.23-.43-2-1.35-5.62l5.82-1.46c1,3.91,1.19,4.67,1.44,6.05Zm-3.54-15.84a30.72,30.72,0,0,1,.12-6.64l6,.77a23.66,23.66,0,0,0-.09,5.32Zm8.38-15.16-5.78-1.6,1.59-5.78L99,322.43Zm4.25-15.43L95.9,311.2l1.59-5.78,5.79,1.59Z"></path><path fill="#f5f5f5" d="M325.76,113.46a77.47,77.47,0,1,0-91.62,76.15l14.15,28.2,14.16-28.2A77.47,77.47,0,0,0,325.76,113.46Z"></path><path fill="#5e6175" d="M248.29 224.49l-16.17-32.22a80.46 80.46 0 1196.64-78.81h0a80.41 80.41 0 01-64.29 78.81zM248.3 39a74.42 74.42 0 00-74.47 74.46c0 34.13 23.37 66.27 62.32 73.47l12.14 24.19 12.15-24.19 1.47-.27A74.46 74.46 0 00248.3 39zM405 308.86a12.31 12.31 0 1120.64 9.57C417.67 325.78 404.57 319.84 405 308.86zm12.29-5.79A6.31 6.31 0 10421.6 314 6.3 6.3 0 00417.31 303.07zM464.32 362.59a9.47 9.47 0 01-9.47-9.85h0a9.38 9.38 0 013-6.57 9.46 9.46 0 116.43 16.42zm0-12.92a3.46 3.46 0 00-3.46 3.32h0a3.47 3.47 0 103.46-3.32z"></path><path fill="#e1830e" d="M288.5,100.36v-7.3H275.63a10.68,10.68,0,0,0-7.53-7.53V72.66h-7.3v12.5H252V72.66h-7.31v12.5h-8.85V72.66h-7.3V85.53A10.68,10.68,0,0,0,221,93.06H208.09v7.3h12.5v8.86h-12.5v7.3h12.5v8.86h-12.5v7.3H221a10.65,10.65,0,0,0,7.53,7.52v12.88h7.3v-12.5h8.85v12.5H252v-12.5h8.85v12.5h7.3V140.2a10.65,10.65,0,0,0,7.53-7.52H288.5v-7.3H276v-8.86h12.5v-7.3H276v-8.86Z"></path></g></svg>