<svg xmlns="http://www.w3.org/2000/svg" xmlns:xlink="http://www.w3.org/1999/xlink" viewBox="0 0 512 512" id="automation"><defs><linearGradient id="a" x1="359.42" x2="359.42" y1="469.13" y2="276.09" gradientUnits="userSpaceOnUse"><stop offset="0" stop-color="#cacfdd"></stop><stop offset="1" stop-color="#eef0f1"></stop></linearGradient><linearGradient xlink:href="#a" id="b" x1="61.84" x2="102.23" y1="83.67" y2="83.67"></linearGradient></defs><g style="isolation:isolate"><path fill="#5e6175" d="M467.06 240.7a12 12 0 11.93-23.87h0a12 12 0 01-.93 23.87zm0-17.9a5.95 5.95 0 105.93 6.41A6 6 0 00467.05 222.8zM416.34 278.31A9.22 9.22 0 11432.53 273 9.23 9.23 0 01416.34 278.31zm7-9.2a3.21 3.21 0 103.21 3.46A3.22 3.22 0 00423.34 269.11z"></path><path fill="#a9afc4" d="M39,139.11H33v-6h6Zm0-16H33v-6h6Zm0-16-6-.07a44.37,44.37,0,0,1,.56-6.41l5.92,1A39.57,39.57,0,0,0,39,107.14Zm3.06-14.41-5.52-2.36a42.35,42.35,0,0,1,3-5.71l5.1,3.15A37,37,0,0,0,42.06,92.73Zm8.35-12.17-4.24-4.24,4.24-4.24,4.24,4.24ZM61.72,69.25,57.48,65l4.24-4.25L66,65Z"></path><path fill="url(#a)" d="M282.61,306.09V459H436.22V306.09Z"></path><rect width="44.59" height="27.32" x="298.6" y="416.15" fill="#f5f5f5"></rect><path fill="#5e6175" d="M346.19,446.47H295.6V413.15h50.59Zm-44.59-6h38.59V419.15H301.6Z"></path><rect width="36.57" height="9.71" x="385.44" y="433.75" fill="#5e6175"></rect><path fill="#f5f5f5" d="M357.84,249.17A93.14,93.14,0,1,0,266.29,139l-33.91,17,33.9,17A93.16,93.16,0,0,0,357.84,249.17Z"></path><path fill="#5e6175" d="M357.84,252.17a96.09,96.09,0,0,1-94.22-77.1l-37.93-19L263.62,137a96.13,96.13,0,1,1,94.22,115.19ZM239.06,156,269,171c8.53,46.15,47,75.13,88.88,75.13a90.14,90.14,0,0,0,0-180.28c-41.67,0-80.31,28.73-88.89,75.12Z"></path><path fill="#e1830e" d="M331.6,156.49a10.82,10.82,0,0,1-9.36,10.66,38.54,38.54,0,0,0,9.13,15.73,11,11,0,0,1,14-2.66A10.74,10.74,0,0,1,350,193.57a38.56,38.56,0,0,0,18.31,0A10.72,10.72,0,0,1,373,180.27,10.93,10.93,0,0,1,387,183a38,38,0,0,0,9.18-15.71,10.76,10.76,0,0,1,0-21.33,38.51,38.51,0,0,0-9.12-15.73,10.94,10.94,0,0,1-14,2.65,10.72,10.72,0,0,1-4.63-13.35,39.75,39.75,0,0,0-18.31,0,10.73,10.73,0,0,1-4.67,13.34,10.93,10.93,0,0,1-14-2.71,38.28,38.28,0,0,0-9.18,15.71A10.8,10.8,0,0,1,331.6,156.49Zm29.49-14.19a14.46,14.46,0,0,1,10.68,7.08A14.29,14.29,0,0,1,366.44,169a14.55,14.55,0,0,1-19.78-5.29C340.69,153.41,349.2,140.81,361.09,142.3Z"></path><path fill="#e1830e" d="M359,219.53A63,63,0,0,1,298.89,175l8-2.44a54.59,54.59,0,1,0,.05-32.1l-8-2.47A63,63,0,1,1,359,219.53Z"></path><polygon fill="#e1830e" points="293.03 134.67 313.85 140.91 299.65 150.19 293.03 134.67"></polygon><polygon fill="#f5f5f5" points="194.98 62.89 194.98 232.42 61.84 232.42 61.84 100.44 97.62 62.89 194.98 62.89"></polygon><path fill="#5e6175" d="M198,235.42H58.84V99.24L96.33,59.89H198Zm-133.14-6H192V65.89H98.91L64.84,101.64Z"></path><polygon fill="url(#b)" points="102.23 62.89 102.23 104.46 61.84 104.46 61.84 100.44 97.62 62.89 102.23 62.89" style="mix-blend-mode:multiply"></polygon><path fill="#5e6175" d="M105.23,107.46H58.84V99.24L96.33,59.89h8.9Zm-40.22-6H99.23V65.89C98.72,65.89,101.53,63.13,65,101.46Z"></path><rect width="128.63" height="128.63" x="61.84" y="320.24" fill="#a9afc4" rx="22"></rect><path fill="#5e6175" d="M168.47,451.88H83.84a25,25,0,0,1-25-25V342.24a25,25,0,0,1,25-25h84.63a25,25,0,0,1,25,25v84.64A25,25,0,0,1,168.47,451.88ZM83.84,323.24a19,19,0,0,0-19,19v84.64a19,19,0,0,0,19,19h84.63a19,19,0,0,0,19-19V342.24a19,19,0,0,0-19-19Z"></path><polygon fill="#f5f5f5" points="172.5 338.22 172.5 430.9 79.82 430.9 79.82 364.87 106.47 338.22 172.5 338.22"></polygon><rect width="6" height="20.63" x="80.84" y="299.61" fill="#5e6175"></rect><rect width="6" height="20.63" x="102.33" y="299.61" fill="#5e6175"></rect><rect width="6" height="20.63" x="123.82" y="299.61" fill="#5e6175"></rect><rect width="6" height="20.63" x="145.32" y="299.61" fill="#5e6175"></rect><rect width="6" height="20.63" x="166.81" y="299.61" fill="#5e6175"></rect><rect width="6" height="20.63" x="80.84" y="448.88" fill="#5e6175"></rect><rect width="6" height="20.63" x="102.33" y="448.88" fill="#5e6175"></rect><rect width="6" height="20.63" x="123.82" y="448.88" fill="#5e6175"></rect><rect width="6" height="20.63" x="145.32" y="448.88" fill="#5e6175"></rect><rect width="6" height="20.63" x="166.81" y="448.88" fill="#5e6175"></rect><rect width="20.63" height="6" x="191.14" y="338.57" fill="#5e6175"></rect><rect width="20.63" height="6" x="191.14" y="360.07" fill="#5e6175"></rect><rect width="20.63" height="6" x="191.14" y="381.56" fill="#5e6175"></rect><rect width="20.63" height="6" x="191.14" y="403.05" fill="#5e6175"></rect><rect width="20.63" height="6" x="191.14" y="424.54" fill="#5e6175"></rect><rect width="20.63" height="6" x="41.88" y="338.57" fill="#5e6175"></rect><rect width="20.63" height="6" x="41.88" y="360.07" fill="#5e6175"></rect><rect width="20.63" height="6" x="41.88" y="381.56" fill="#5e6175"></rect><rect width="20.63" height="6" x="41.88" y="403.05" fill="#5e6175"></rect><rect width="20.63" height="6" x="41.88" y="424.54" fill="#5e6175"></rect><polygon fill="#e1830e" points="134.85 266.69 134.85 249.17 118.8 249.17 118.8 266.69 107.46 266.69 126.82 286.12 146.19 266.69 134.85 266.69"></polygon><polygon fill="#e1830e" points="247.78 376.54 230.26 376.54 230.26 392.58 247.78 392.58 247.78 403.93 267.21 384.56 247.78 365.19 247.78 376.54"></polygon><rect width="38.47" height="6" x="126.16" y="101.46" fill="#5e6175"></rect><rect width="72.25" height="6" x="92.38" y="132.68" fill="#5e6175"></rect><rect width="72.25" height="6" x="92.38" y="163.9" fill="#5e6175"></rect><rect width="72.25" height="6" x="92.38" y="195.12" fill="#5e6175"></rect><polygon fill="#e08326" points="337.58 306.09 337.58 346.7 344.86 341.54 352.16 346.7 359.44 341.54 366.7 346.7 373.98 341.54 381.25 346.7 381.25 306.09 337.58 306.09"></polygon><path fill="#5e6175" d="M439.22,462H279.61V303.09H439.22Zm-153.61-6H433.22V309.09H285.61Z"></path></g></svg>