<svg xmlns="http://www.w3.org/2000/svg" xmlns:xlink="http://www.w3.org/1999/xlink" viewBox="0 0 512 512" id="bad-weather"><defs><linearGradient id="a" x1="319.55" x2="435.27" y1="239.03" y2="239.03" gradientUnits="userSpaceOnUse"><stop offset="0" stop-color="#cacfdd"></stop><stop offset="1" stop-color="#eef0f1"></stop></linearGradient><linearGradient xlink:href="#a" id="b" x1="343.74" x2="381.37" y1="141.91" y2="141.91"></linearGradient><linearGradient xlink:href="#a" id="c" x1="92.32" x2="151.49" y1="178.77" y2="178.77"></linearGradient><linearGradient xlink:href="#a" id="d" x1="166.36" x2="238.22" y1="280.81" y2="280.81"></linearGradient></defs><g><path fill="#f5f5f5" d="M442.26,183.87c0,43.89-35.45,84.86-80.85,84.86h-236c-36.4,0-71-27.67-71-65.5,0-38.9,34.58-68.91,72.9-65.08,7.36-59.16,60.5-103.9,120-101.52,37.85,1.78,74.8,22.43,95.12,56.77.74,1.24,3.51,6.39,3.51,6.39s8.93-.77,11.2-.77C403,99,442.26,138,442.26,183.87Z"></path><path fill="url(#a)" d="M435.27,217.4c-12.48,29.19-40.48,51.33-73.86,51.33H319.55C334.37,219.76,389.45,195.58,435.27,217.4Z" style="mix-blend-mode:multiply"></path><polygon fill="#e1830e" points="176.59 268.73 137.15 361.88 200.71 361.88 149.32 475.46 291.64 321.8 214.4 321.8 238.22 268.73 176.59 268.73"></polygon><path fill="url(#b)" d="M347,184.79c17.87-43.77-3.23-81.49-3.23-81.49l2.2-3.51s8.92-.77,11.18-.77a81.45,81.45,0,0,1,24.11,3.67C383.91,158.67,347,184.79,347,184.79Z"></path><path fill="url(#c)" d="M151.49,219.82s-51.48-15-59.17-76A65.35,65.35,0,0,1,126.21,138l4.59,1.17S122.72,178.66,151.49,219.82Z" style="mix-blend-mode:multiply"></path><path fill="#5e6175" d="M361.41,271.73h-236a78.3,78.3,0,0,1-51.13-19.31c-31.6-27.89-29.3-73.28-.35-99.48a69.94,69.94,0,0,1,50.8-18A118.37,118.37,0,0,1,165.83,62c59-49.85,146-31.46,181.81,34.62,2.82-.23,7.76-.62,9.49-.62,46.4,0,88.13,39.29,88.13,87.85C445.26,229.41,408.48,271.73,361.41,271.73ZM120.78,140.83c-33.61,0-63.36,26.94-63.36,62.4,0,35.94,33,62.5,68,62.5h236c20.72,0,40.34-8.88,55.25-25,29.82-32.27,31.08-81.52-1.9-114.34C399.21,110.9,378.2,102,357.13,102c-2.15,0-10.85.75-12.9.93-4.17-7.73-6.67-12.47-12.6-20a115.31,115.31,0,0,0-84.47-43.32C189.37,37.27,137.47,80.8,130.3,138.52l-.37,2.91A79,79,0,0,0,120.78,140.83Z"></path><path fill="#a9afc4" d="M312.2 363.32L298.43 398a14.39 14.39 0 1026.85.26zM382.59 390.49l-13.78 34.63a14.4 14.4 0 1026.86.27zM57.6 292.19L43.83 326.82a14.4 14.4 0 1026.86.26zM106.71 380.59L92.93 415.22a14.4 14.4 0 1026.86.26z"></path><path fill="#5e6175" d="M311.8 420.66a17.4 17.4 0 01-16.16-23.82L312.28 355l15.81 42.16A17.4 17.4 0 01311.8 420.66zm.32-49l-10.9 27.41a11.22 11.22 0 001.16 10.61 11.39 11.39 0 0018.79.09 11.25 11.25 0 001.31-10.49zM382.19 447.84A17.41 17.41 0 01366 424l16.64-41.84 15.81 42.16A17.41 17.41 0 01382.19 447.84zm.31-49l-10.9 27.41a11.25 11.25 0 001.16 10.61 11.39 11.39 0 0018.8.09 11.25 11.25 0 001.3-10.49zM57.21 349.53A17.4 17.4 0 0141 325.71l16.65-41.84L73.5 326A17.41 17.41 0 0157.21 349.53zm.31-49l-10.9 27.41a11.22 11.22 0 001.16 10.61 11.38 11.38 0 0018.79.09 11.25 11.25 0 001.31-10.49zM106.31 437.93a17.4 17.4 0 01-16.16-23.82l16.64-41.84 15.81 42.16A17.41 17.41 0 01106.31 437.93zm.31-49l-10.9 27.41a11.22 11.22 0 001.16 10.61 11.39 11.39 0 0018.8.09 11.25 11.25 0 001.3-10.49z"></path><circle cx="399.52" cy="292.9" r="66.68" fill="#f5f5f5"></circle><path fill="#5e6175" d="M399.52,362.58A69.68,69.68,0,1,1,469.2,292.9,69.76,69.76,0,0,1,399.52,362.58Zm0-133.36A63.68,63.68,0,1,0,463.2,292.9,63.75,63.75,0,0,0,399.52,229.22Z"></path><path fill="#e1830e" d="M430.56 317.8l-7 7a34 34 0 00-48.08 0l-7-7A43.89 43.89 0 01430.56 317.8zM389.13 274.08l-7 7a12.14 12.14 0 00-17.18 0l-7-7A22 22 0 01389.13 274.08zM441 274.08l-7 7a12.14 12.14 0 00-17.18 0l-7-7A22 22 0 01441 274.08z"></path><path fill="#a9afc4" d="M471.78,226.87l-5.65-2c.66-1.83,1.28-3.7,1.84-5.55l5.74,1.74C473.12,223,472.47,224.94,471.78,226.87Zm4.49-15.76-5.86-1.26c.4-1.9.77-3.83,1.08-5.75l5.92,1C477.08,207.08,476.7,209.11,476.27,211.11Zm2.36-16.22-6-.47c.15-1.92.26-3.89.31-5.84l6,.17C478.89,190.8,478.78,192.86,478.63,194.89Zm-5.8-16.06c-.11-2-.26-3.91-.46-5.83l6-.62c.21,2,.38,4.08.49,6.13ZM471,163.36c-.37-1.92-.78-3.84-1.23-5.72l5.83-1.41c.48,2,.91,4,1.29,6ZM467,148.28c-.61-1.85-1.28-3.7-2-5.5l5.59-2.18c.73,1.89,1.44,3.83,2.09,5.78Zm-5.9-14.42c-.84-1.73-1.75-3.47-2.69-5.18l5.25-2.9c1,1.79,1.94,3.62,2.84,5.45Zm-7.76-13.49c-1.08-1.62-2.21-3.23-3.36-4.78l4.81-3.58c1.21,1.63,2.4,3.32,3.54,5ZM443.89,108c-1.29-1.46-2.62-2.91-4-4.3l4.3-4.18c1.42,1.46,2.82,3,4.18,4.52ZM432.84,97c-1.47-1.29-3-2.54-4.5-3.73l3.71-4.72c1.59,1.26,3.19,2.58,4.74,3.93Zm-12.4-9.44c-1.63-1.08-3.3-2.12-5-3.11l3.06-5.16c1.76,1,3.51,2.13,5.22,3.26Zm-13.55-7.72c-1.76-.85-3.56-1.66-5.34-2.42l2.34-5.52c1.87.79,3.76,1.65,5.61,2.54ZM392.42,74c-1.84-.6-3.73-1.17-5.6-1.68l1.58-5.79c2,.54,4,1.13,5.89,1.76Zm-15.1-3.85c-1.91-.35-3.86-.65-5.78-.91l.79-6c2,.27,4.06.59,6.08,1Zm-15.48-1.79c-1.94-.09-3.91-.14-5.85-.14v-6c2,0,4.11,0,6.15.15Z"></path><polygon fill="url(#d)" points="176.59 268.73 238.22 268.73 227.37 292.89 166.36 292.89 176.59 268.73" style="mix-blend-mode:multiply"></polygon><path fill="#5e6175" d="M42.77 119.89A9.77 9.77 0 1152.54 110 9.77 9.77 0 0142.77 119.89zm0-13.54a3.77 3.77 0 103.77 3.72A3.78 3.78 0 0042.77 106.35zM77.25 74.17A13.44 13.44 0 1190.89 87.42c-.06-4-.06-4 0 0A13.45 13.45 0 0177.25 74.17zm13.44-7.64A7.44 7.44 0 1096 79.16 7.44 7.44 0 0090.69 66.53z"></path></g></svg>