<svg xmlns="http://www.w3.org/2000/svg" xmlns:xlink="http://www.w3.org/1999/xlink" viewBox="0 0 512 512" id="bad-feedback"><defs><linearGradient id="b" x1="125.6" x2="411.11" y1="269.79" y2="269.79" gradientUnits="userSpaceOnUse"><stop offset="0" stop-color="#a9afc4"></stop><stop offset="1" stop-color="#d4d8e5"></stop></linearGradient><linearGradient id="a" x1="318.78" x2="411.11" y1="201.97" y2="201.97" gradientUnits="userSpaceOnUse"><stop offset="0" stop-color="#cacfdd"></stop><stop offset="1" stop-color="#eef0f1"></stop></linearGradient><linearGradient xlink:href="#a" id="c" x1="125.6" x2="345.88" y1="277.8" y2="277.8"></linearGradient></defs><g><path fill="url(#b)" d="M411.11,217.75v64.77a57.19,57.19,0,0,1-57.2,57.19V379l-46.78-39.33H182.8a57.19,57.19,0,0,1-57.2-57.19V217.75a57.2,57.2,0,0,1,57.2-57.2H353.91A57.2,57.2,0,0,1,411.11,217.75Z"></path><path fill="url(#a)" d="M411.11,217.75v25.46a87,87,0,0,1-92.33-82.66h35.13A57.2,57.2,0,0,1,411.11,217.75Z" style="mix-blend-mode:multiply"></path><path fill="url(#c)" d="M345.88,264.64v64.78a73.24,73.24,0,0,1-9,35.3l-29.74-25H182.8a57.18,57.18,0,0,1-57.2-57.18V217.75a56.92,56.92,0,0,1,6.7-26.88H272.12A73.85,73.85,0,0,1,345.88,264.64Z" style="mix-blend-mode:multiply"></path><path fill="#5e6175" d="M356.91,385.48,306,342.71H182.79a60.26,60.26,0,0,1-60.19-60.19V217.75a60.26,60.26,0,0,1,60.19-60.19H353.91a60.26,60.26,0,0,1,60.19,60.19v64.77a60.27,60.27,0,0,1-57.19,60.12ZM182.79,163.56a54.25,54.25,0,0,0-54.19,54.19v64.77a54.25,54.25,0,0,0,54.19,54.19H308.23l42.68,35.89V336.71h3a54.25,54.25,0,0,0,54.19-54.19V217.75a54.25,54.25,0,0,0-54.19-54.19Z"></path><path fill="#f5f5f5" d="M272.12,207.45H101a57.19,57.19,0,0,0-57.19,57.19v64.77A57.19,57.19,0,0,0,101,386.6h2.83v39.33l46.78-39.33H272.12a57.18,57.18,0,0,0,57.19-57.19V264.64A57.18,57.18,0,0,0,272.12,207.45Z"></path><path fill="#5e6175" d="M100.83,432.38V389.6a60.26,60.26,0,0,1-60-60.19V264.64A60.26,60.26,0,0,1,101,204.45H272.12a60.26,60.26,0,0,1,60.19,60.19v64.77a60.26,60.26,0,0,1-60.19,60.19H151.71ZM101,210.45a54.25,54.25,0,0,0-54.19,54.19v64.77A54.25,54.25,0,0,0,101,383.6h5.83v35.89l42.69-35.89h122.6a54.25,54.25,0,0,0,54.19-54.19V264.64a54.25,54.25,0,0,0-54.19-54.19Z"></path><path fill="#5e6175" d="M214.58,281.42A10.63,10.63,0,1,0,204,270.79,10.64,10.64,0,0,0,214.58,281.42Z"></path><circle cx="149.8" cy="270.79" r="10.63" fill="#5e6175"></circle><path fill="#5e6175" d="M239.64,328.22c-.92-.82-22.81-20.15-57-20.15s-56,19.33-57,20.15l-2.7,2.42,11.73,13.07,2.7-2.36a73.11,73.11,0,0,1,90.46,0l2.69,2.39,11.74-13.1Z"></path><path fill="#e1830e" d="M104.4,188.07,87.2,154A19.83,19.83,0,1,0,68.62,119c-12.75-10.09-31.78-1.3-32.12,15.14A19.68,19.68,0,0,0,40.15,146c-9.88,12.78-1.07,31.61,15.28,32a19.78,19.78,0,0,0,16.91-8.85Z"></path><circle cx="405.62" cy="156.44" r="70.38" fill="#f5f5f5"></circle><path fill="#5e6175" d="M405.62,229.82A73.38,73.38,0,1,1,479,156.44,73.46,73.46,0,0,1,405.62,229.82Zm0-140.75A67.38,67.38,0,1,0,473,156.44,67.44,67.44,0,0,0,405.62,89.07Z"></path><path fill="#dee1ec" d="M417.61,172.56H423V130.62l-10.22-5.44H383.08a11.65,11.65,0,0,0-11.35,9l-5.91,24.08a11.65,11.65,0,0,0,11.34,14.3h20.35l-1.77,13.5a14.16,14.16,0,0,0,7.56,14.35Z"></path><path fill="#5e6175" d="M404.56,204.52l-3.05-1.68a17.05,17.05,0,0,1-8.75-17.15l1.33-10.13H377.16a14.65,14.65,0,0,1-14.26-18l5.92-24.12a14.58,14.58,0,0,1,14.26-11.28h30.46L426,128.82v46.74h-6.57Zm-21.48-76.34a8.63,8.63,0,0,0-8.43,6.68L368.73,159a8.65,8.65,0,0,0,8.43,10.59h23.76l-2.2,16.89a11.06,11.06,0,0,0,3.47,9.55l13.59-26.44H420V132.42l-8-4.24Z"></path><rect width="28.67" height="56.33" x="419.9" y="122.07" fill="#e1830e"></rect><rect width="6" height="19.56" x="372.15" y="391.04" fill="#5e6175" transform="rotate(-45 375.141 400.811)"></rect><rect width="19.56" height="6" x="378.48" y="374.78" fill="#5e6175"></rect><rect width="6" height="19.56" x="350.29" y="404.68" fill="#5e6175"></rect><path fill="#5e6175" d="M284.4 108.07a9.65 9.65 0 118.82-5.68h0A9.67 9.67 0 01284.4 108.07zm0-13.31a3.66 3.66 0 103.33 5.16h0A3.66 3.66 0 00284.42 94.76zM237.58 140.33a13.27 13.27 0 1112.42-18A13.26 13.26 0 01237.58 140.33zm0-20.55A7.27 7.27 0 10244.21 130 7.28 7.28 0 00237.59 119.78z"></path><path fill="#a9afc4" d="M460.6 299.47h-6v-6h6zm0-16h-6v-6h6zm0-16h-6v-6h6zm0-16h-6v-6h6zm0-16h-6v-6h6zM444.24 299.42h-6v-6h6zm-16 0h-6v-6h6zM396.72 299.42h-6v-6h6zm-16 0h-6v-6h6zm-16 0h-6v-6h6z"></path></g></svg>