<svg xmlns="http://www.w3.org/2000/svg" xmlns:xlink="http://www.w3.org/1999/xlink" viewBox="0 0 512 512" id="bankrupt"><defs><linearGradient id="a" x1="137.52" x2="364.5" y1="239.92" y2="239.92" gradientUnits="userSpaceOnUse"><stop offset="0" stop-color="#cacfdd"></stop><stop offset="1" stop-color="#eef0f1"></stop></linearGradient><linearGradient xlink:href="#a" id="b" x1="104.8" x2="168.28" y1="260.86" y2="260.86"></linearGradient><linearGradient xlink:href="#a" id="c" x1="137.53" x2="136.5" y1="227.24" y2="320.78"></linearGradient><linearGradient xlink:href="#a" id="d" x1="365.9" x2="364.87" y1="229.75" y2="323.29"></linearGradient><linearGradient xlink:href="#a" id="e" x1="333.2" x2="396.68" y1="260.86" y2="260.86"></linearGradient></defs><g style="isolation:isolate"><polygon fill="#a9afc4" points="364.5 405.92 137.52 405.92 137.52 229.42 364.5 229.92 364.5 405.92"></polygon><polygon fill="url(#a)" points="364.5 229.92 364.5 250.42 137.52 250.42 137.52 229.42 364.5 229.92" style="mix-blend-mode:multiply"></polygon><rect width="384.71" height="25.45" x="58.38" y="204.51" fill="#f5f5f5"></rect><path fill="#5e6175" d="M446.09,233H55.38V201.51H446.09ZM61.38,227H440.09V207.51H61.38Z"></path><path fill="#dee1ec" d="M135.55,327.17V313H104.79V250.42h63.49v135H104.79v-27Z"></path><path fill="url(#b)" d="M168.28,250.42v20.87a30.47,30.47,0,0,1-6.7-5H111.51a30.49,30.49,0,0,1-6.71,5V250.42Z" style="mix-blend-mode:multiply"></path><path fill="#dee1ec" d="M182.89 230H90.19a14.61 14.61 0 1013.34 20.46h66A14.59 14.59 0 10182.89 230zM90.19 405.92h92.7a14.61 14.61 0 10-13.33-20.46h-66a14.59 14.59 0 10-13.34 20.46z"></path><polygon fill="#dee1ec" points="375.19 284.75 375.19 304.48 396.67 304.48 396.67 385.46 333.19 385.46 333.19 250.42 396.67 250.42 396.67 263.28 375.19 284.75"></polygon><path fill="url(#c)" d="M135.55,327.17V313H104.79V250.42h63.49v135H104.79v-27Z" style="mix-blend-mode:multiply"></path><polygon fill="url(#d)" points="375.19 284.75 375.19 304.48 396.67 304.48 396.67 385.46 333.19 385.46 333.19 250.42 396.67 250.42 396.67 263.28 375.19 284.75" style="mix-blend-mode:multiply"></polygon><path fill="url(#e)" d="M396.68,250.42v12.86l-4.78,4.77c-.66-.55-1.31-1.13-1.94-1.74H339.9a30.71,30.71,0,0,1-6.7,5V250.42Z" style="mix-blend-mode:multiply"></path><path fill="#dee1ec" d="M411.28 230h-92.7a14.61 14.61 0 1013.34 20.46h66A14.59 14.59 0 10411.28 230zM318.58 405.92h92.7A14.61 14.61 0 10398 385.46h-66a14.59 14.59 0 10-13.34 20.46z"></path><path fill="#5e6175" d="M182.89 262.17a17.59 17.59 0 01-15.16-8.75H105.35A17.59 17.59 0 1190.19 227h92.7a17.61 17.61 0 110 35.21zm-81.32-14.75h69.94l.79 1.79A11.59 11.59 0 10182.89 233H90.19a11.61 11.61 0 1010.59 16.25zM182.89 408.92H90.19a17.61 17.61 0 1115.16-26.46h62.38a17.59 17.59 0 1115.16 26.46zm-92.7-29.21a11.61 11.61 0 100 23.21h92.7a11.61 11.61 0 10-10.59-16.24l-.79 1.78H101.57l-.79-1.78A11.64 11.64 0 0090.19 379.71z"></path><path fill="#5e6175" d="M171.28 388.46H101.79V357.2l30.76-31.26V316H101.79V247.42h69.49zm-63.49-6h57.49v-129H107.79V310h24.76v-22.7h6v41.11l-30.76 31.26zM399.67 388.46H330.19v-141h69.48v17.1L378.2 286v15.48h21.47zm-63.48-6h57.48v-75H372.2v-24L393.67 262v-8.62H336.19z"></path><path fill="#5e6175" d="M411.28 262.17a17.6 17.6 0 01-15.16-8.75H333.75A17.59 17.59 0 11318.58 227h92.7a17.61 17.61 0 110 35.21zM330 247.42H399.9l.79 1.79A11.59 11.59 0 10411.28 233h-92.7a11.61 11.61 0 1010.6 16.25zM411.28 408.92h-92.7a17.61 17.61 0 1115.17-26.46h62.37a17.59 17.59 0 1115.16 26.46zm-92.7-29.21a11.61 11.61 0 000 23.21h92.7a11.61 11.61 0 10-10.59-16.24l-.79 1.78H330l-.79-1.78A11.65 11.65 0 00318.58 379.71z"></path><path fill="#f5f5f5" d="M422.08,173.44v31.07H79.39V173.44l41.39-31.13,14.09,15.42,17.84-13.41,13.9,17.43V133.86l-13-16.25L214.29,72A60.59,60.59,0,0,1,250.73,59.8H252a60.64,60.64,0,0,1,36.69,12.35Z"></path><path fill="#5e6175" d="M425.08,207.51H76.39V171.94l44.77-33.67,14.09,15.43,18-13.53,10.38,13V134.91l-14.25-17.85,63.13-47.48c23.45-17.64,55.86-16.67,78.05.18L425.08,172Zm-342.69-6H419.08V174.93L286.91,74.54c-16-12.14-37-14.6-54.44-8.76a57.2,57.2,0,0,0-16.38,8.6L157.9,118.15l11.71,14.66v37.52l-17.43-21.86-17.68,13.3-14.09-15.42-38,28.59Z"></path><path fill="#dee1ec" d="M394.38,178.58v6.75H107.09v-6.71l45.62-34.3,13.9,17.43V133.86L225.4,89.63a43.18,43.18,0,0,1,52,.13Z"></path><path fill="#5e6175" d="M397.38,188.33H104.09v-11.2l49.14-37,10.38,13V132.36l60-45.12a46.17,46.17,0,0,1,55.65.14L397.38,177.1Zm-287.29-6H391.38v-2.26L275.62,92.15A40.19,40.19,0,0,0,227.21,92l-57.6,43.33v35l-17.43-21.86-42.09,31.65Z"></path><rect width="350.31" height="23.14" x="75.58" y="405.92" fill="#f5f5f5"></rect><rect width="395.11" height="23.14" x="53.18" y="429.06" fill="#f5f5f5"></rect><path fill="#5e6175" d="M428.89,432.06H72.58V402.92H428.89Zm-350.31-6H422.89V408.92H78.58Z"></path><path fill="#5e6175" d="M451.29,455.2H50.18V426.06H451.29Zm-395.11-6H445.29V432.06H56.18Z"></path><path fill="#e1830e" d="M303,133.05a52.29,52.29,0,1,1-94.72-30.56l17.1-12.86a43.18,43.18,0,0,1,52,.13l14.35,10.91A52.06,52.06,0,0,1,303,133.05Z"></path><path fill="#5e6175" d="M250.73,188.33a55.29,55.29,0,0,1-44.86-87.59c.38-.53-1.64,1.06,17.73-13.5a46.17,46.17,0,0,1,55.65.14l14.66,11.14A54.71,54.71,0,0,1,306,133.05,55.35,55.35,0,0,1,250.73,188.33Zm-40.25-83.72a49.29,49.29,0,1,0,79.19-1.78L275.62,92.15A40.19,40.19,0,0,0,227.21,92Z"></path><rect width="67.34" height="15.89" x="217.07" y="125.92" fill="#f5f5f5" transform="rotate(-44.84 250.716 133.86)"></rect><rect width="15.89" height="67.34" x="242.79" y="100.19" fill="#f5f5f5" transform="rotate(-44.83 250.769 133.861)"></rect><polygon fill="#5e6175" points="358.24 347.81 353.99 343.56 372.2 325.36 372.2 304.48 378.2 304.48 378.2 327.84 358.24 347.81"></polygon><polygon fill="#5e6175" points="138.55 307.6 132.55 307.6 132.55 286.03 144.98 273.61 149.22 277.85 138.55 288.52 138.55 307.6"></polygon><path fill="#5e6175" d="M280.22,406.3H223.5V321.78a28.36,28.36,0,0,1,56.72,0Z"></path><rect width="19.5" height="6" x="433.16" y="152.27" fill="#5e6175" transform="rotate(-45 442.906 155.272)"></rect><rect width="6" height="19.5" x="416.93" y="132.45" fill="#5e6175"></rect><rect width="19.49" height="6" x="446.75" y="174.06" fill="#5e6175"></rect><path fill="#a9afc4" d="M39,226.79H33v-6h6Zm0-16H33v-6h6Zm1.47-14.41-5.39-2.64a20.56,20.56,0,0,1,4.07-5.65l4.23,4.25A14.94,14.94,0,0,0,40.47,196.38Zm10-11.11L46.22,181a14.84,14.84,0,0,0,3-4l5.35,2.71A20.9,20.9,0,0,1,50.46,185.27ZM56.88,169l-6-.6a20.34,20.34,0,0,1,1.87-6.74l5.42,2.57A14.36,14.36,0,0,0,56.88,169Zm7-11.25L60,153.1l4.62-3.83,3.83,4.61ZM76.18,147.5l-3.83-4.62L77,139.05l3.83,4.62Zm12.31-10.22-3.83-4.62,4.21-3.49,3.83,4.62Z"></path><path fill="#5e6175" d="M467.4 412.35A11.59 11.59 0 11479 399.81h0A11.58 11.58 0 01467.4 412.35zm-4.26-15.19a5.59 5.59 0 109.84 3.15h0A5.6 5.6 0 00463.14 397.16zM426 356.69a9 9 0 118.94-9.7h0A9 9 0 01426 356.69zm-2.25-10.87a3 3 0 105.21 1.67h0A3 3 0 00423.75 345.82z"></path></g></svg>