<svg xmlns="http://www.w3.org/2000/svg" xmlns:xlink="http://www.w3.org/1999/xlink" viewBox="0 0 512 512" id="barcode-scanner"><defs><linearGradient id="a" x1="210.93" x2="210.93" y1="281.92" y2="332.54" gradientUnits="userSpaceOnUse"><stop offset="0" stop-color="#cacfdd"></stop><stop offset="1" stop-color="#eef0f1"></stop></linearGradient><linearGradient xlink:href="#a" id="b" x1="146.88" x2="146.88" y1="285.64" y2="335.95"></linearGradient><linearGradient xlink:href="#a" id="c" x1="274.09" x2="371" y1="156.7" y2="156.7"></linearGradient><linearGradient xlink:href="#a" id="d" x1="82.19" x2="211.57" y1="310.14" y2="310.14"></linearGradient><linearGradient xlink:href="#a" id="e" x1="95.56" x2="198.2" y1="175.69" y2="175.69"></linearGradient></defs><g><path fill="#f5f5f5" d="M179.79,339.05v63.41a19.53,19.53,0,0,0,5.71,13.81l8.64,8.63a18.32,18.32,0,0,1,5.06,9.62l30-15.31a25.31,25.31,0,0,0-6.9-12.81l-6.59-6.59A19.54,19.54,0,0,1,210,386V334.47c0-19.87,18-42.18,31.79-56.36a7.8,7.8,0,0,1-6.58,1.71c-23.78,6.17-23.49,6-23.59,6.13C197.67,300.22,179.79,319.25,179.79,339.05Z"></path><path fill="#f5f5f5" d="M199.2,434.52a18.39,18.39,0,0,0-5.06-9.62l-8.64-8.63a19.53,19.53,0,0,1-5.71-13.81V339.05c0-20.38,17.57-38.49,31.78-53.1a31.12,31.12,0,0,1-20.08,7.5c-97,0-90,.05-91.93-.13A30.15,30.15,0,0,1,82.19,286c12.72,13.08,29,30.26,31.46,48.38.45,3.39.32-.88.32,68.13a19.55,19.55,0,0,1-5.71,13.8L98.48,426a14.45,14.45,0,0,0-4.2,9.46h103Z"></path><path fill="#f5f5f5" d="M179.79 339.05c0-.77 0-1.53.08-2.29C179.82 337.52 179.79 338.28 179.79 339.05zM204.06 293.82c-10.93 11.71-23 26.33-24.17 42.75C181.06 320.68 193.27 305.49 204.06 293.82z"></path><path fill="#a9afc4" d="M196.52,437.88a15.64,15.64,0,0,0-.27-2.81l5.9-1.1c0,.29.1.58.14.87h0a20.89,20.89,0,0,1,.23,2.93h0C202.52,437.93,203,437.88,196.52,437.88Z"></path><path fill="#a9afc4" d="M199.52,447.12a13.72,13.72,0,0,1-13.72,13.72h3.31a40.89,40.89,0,0,0,19.54-5l13.88-7.58a13.67,13.67,0,0,0,7.15-12c0-12.43.17-13.66-.52-17l-30,15.31C199.63,436.82,199.52,437.33,199.52,447.12Z"></path><path fill="#a9afc4" d="M94.24,447.12A13.71,13.71,0,0,0,108,460.84H185.8a13.73,13.73,0,0,0,13.72-13.72c0-9.87.1-10.33-.32-12.6l-1.91,1h-103C94.23,436.51,94.24,434.45,94.24,447.12Z"></path><path fill="#f5f5f5" d="M199.52,447.12a13.73,13.73,0,0,1-13.72,13.72A13.72,13.72,0,0,0,199.52,447.12Z"></path><path fill="url(#a)" d="M241.74,278.11c-11.51,11.84-25.91,29.31-30.39,46.28l-31.23,9.94C184,315,197.64,300.25,211.57,286,211.68,285.83,211.54,286,241.74,278.11Z"></path><path fill="url(#b)" d="M211.57,286c-12.73,13.08-28.95,30.26-31.45,48.38H113.65C111.14,316.21,94.91,299,82.19,286a30.57,30.57,0,0,0,20.08,7.5h89.22A31.15,31.15,0,0,0,211.57,286Z" style="mix-blend-mode:multiply"></path><rect width="178.83" height="111.41" x="274.09" y="75.86" fill="#dee1ec"></rect><path fill="#dee1ec" d="M371,164.07v23.2H274.09V126.13h59A38,38,0,0,1,371,164.07Z"></path><path fill="#5e6175" d="M479 111.43h-6V72.48a18.34 18.34 0 00-18.32-18.32H418v-6h36.73A24.35 24.35 0 01479 72.48zM454.68 215.56H418v-6h36.73A18.34 18.34 0 00473 191.24v-39h6v39A24.35 24.35 0 01454.68 215.56zM308.72 215.56H272a24.35 24.35 0 01-24.32-24.32v-39h6v39A18.34 18.34 0 00272 209.56h36.73zM253.67 111.43h-6V72.48A24.35 24.35 0 01272 48.16h36.73v6H272a18.34 18.34 0 00-18.32 18.32z"></path><rect width="14.95" height="65.33" x="299.15" y="99.44" fill="#e1830e"></rect><rect width="21.28" height="65.33" x="336.08" y="99.44" fill="#e1830e"></rect><rect width="19.48" height="39.23" x="377.23" y="99.44" fill="#e1830e"></rect><rect width="14.95" height="65.33" x="416.28" y="99.44" fill="#e1830e"></rect><path fill="url(#c)" d="M371,164.07v23.2H274.09V126.13h59A38,38,0,0,1,371,164.07Z" style="mix-blend-mode:multiply"></path><path fill="#f5f5f5" d="M354.1,164.07v68.6A21,21,0,0,1,338.34,253l-126.76,32.9a30.57,30.57,0,0,0,10.59-23.17V173.7A30.68,30.68,0,0,0,191.49,143H333A21,21,0,0,1,354.1,164.07Z"></path><path fill="#a9afc4" d="M354.1,164.07v68.6A21,21,0,0,1,338.34,253L315.54,259a21,21,0,0,0,15.68-20.35V164.07a21,21,0,0,0-21.06-21H333A21,21,0,0,1,354.1,164.07Z"></path><rect width="150.57" height="150.43" x="71.59" y="143.02" fill="#f5f5f5" rx="29.14"></rect><rect width="102.49" height="102.63" x="95.63" y="166.91" fill="#a9afc4" transform="rotate(90 146.88 218.23)"></rect><path fill="#5e6175" d="M199.93,292.06l9.68-8.39a27.62,27.62,0,0,0,9.56-20.9V173.7A27.71,27.71,0,0,0,191.49,146v-6H333a24.08,24.08,0,0,1,24.06,24v68.6a24.06,24.06,0,0,1-18,23.28Zm10.73-146a33.67,33.67,0,0,1,14.51,27.68v89.07A33.61,33.61,0,0,1,220,280.65l117.56-30.51a18.06,18.06,0,0,0,13.52-17.47v-68.6A18.08,18.08,0,0,0,333,146Z"></path><path fill="#5e6175" d="M316.3,261.87l-1.52-5.81a18.07,18.07,0,0,0,13.44-17.45V164.07a18.07,18.07,0,0,0-18.05-18v-6H333a24.08,24.08,0,0,1,24.06,24v68.6a24.06,24.06,0,0,1-18,23.28ZM326.05,146a24,24,0,0,1,8.17,18v74.54a24,24,0,0,1-4.14,13.48l7.5-2a18.06,18.06,0,0,0,13.52-17.47v-68.6A18.08,18.08,0,0,0,333,146Z"></path><circle cx="147.84" cy="216.62" r="25.6" fill="#5e6175"></circle><path fill="url(#d)" d="M211.57,286c-12.73,13.08-28.95,30.26-31.45,48.38H113.65C111.14,316.21,94.91,299,82.19,286a30.57,30.57,0,0,0,20.08,7.5h89.22A31.15,31.15,0,0,0,211.57,286Z" style="mix-blend-mode:multiply"></path><path fill="#5e6175" d="M193,296.44h-92.3a32.17,32.17,0,0,1-32.14-32.13V172.15A32.17,32.17,0,0,1,100.73,140H193a32.17,32.17,0,0,1,32.14,32.13v92.16A32.17,32.17,0,0,1,193,296.44ZM100.73,146a26.17,26.17,0,0,0-26.14,26.13v92.16a26.17,26.17,0,0,0,26.14,26.13H193a26.17,26.17,0,0,0,26.14-26.13V172.15A26.17,26.17,0,0,0,193,146Z"></path><rect width="102.63" height="17.41" x="95.56" y="166.99" fill="url(#e)" style="mix-blend-mode:multiply"></rect><path fill="#5e6175" d="M185.8,463.84H108a16.74,16.74,0,0,1-16.72-16.72V436.26a17.37,17.37,0,0,1,5.11-12.34l9.78-9.78A16.42,16.42,0,0,0,111,402.46V339.05c0-19.2-18.61-38.34-30.93-51l4.17-4.31A26.64,26.64,0,0,0,97.33,290c3.46.65-1.91.45,94.16.45a28.19,28.19,0,0,0,18.14-6.77l4.09,4.37c-12.32,12.67-30.93,31.81-30.93,51v63.41a16.41,16.41,0,0,0,4.83,11.69l8.64,8.63a21.22,21.22,0,0,1,6.26,15.1v9.24A16.74,16.74,0,0,1,185.8,463.84ZM95.53,295.75C106.33,308,117,323.12,117,339.05v63.41a22.4,22.4,0,0,1-6.59,15.93l-9.78,9.78a11.33,11.33,0,0,0-3.36,8.09v10.86A10.73,10.73,0,0,0,108,457.84H185.8a10.73,10.73,0,0,0,10.72-10.72v-9.24A15.23,15.23,0,0,0,192,427l-8.64-8.64a22.38,22.38,0,0,1-6.59-15.93V339.05c0-15.94,10.65-31.09,21.45-43.3a32.85,32.85,0,0,1-6.75.69C92.47,296.44,100.08,296.68,95.53,295.75Z"></path><path fill="#5e6175" d="M189.11,463.84H185.8v-6a10.73,10.73,0,0,0,10.72-10.72v-9.24A15.27,15.27,0,0,0,192,427l-8.64-8.63a22.38,22.38,0,0,1-6.59-15.93V339.05c0-21.18,18.81-41,31.79-54.33v-1.1l1.43-.37.29-.3c1.22,0-1.77.68,24.67-6.18,1.87.24,3.33.36,4.8-.92l4.13,4.35c-11.56,11.88-31,34.73-31,54.27V386a16.4,16.4,0,0,0,4.84,11.68l6.59,6.6a28.16,28.16,0,0,1,8.3,20v11.93A16.68,16.68,0,0,1,224,450.91l-13.88,7.58A44,44,0,0,1,189.11,463.84ZM212.84,289c-12.3,12.66-30.05,31.35-30.05,50.1v63.41a16.41,16.41,0,0,0,4.83,11.69l8.64,8.63a21.24,21.24,0,0,1,6.26,15.1v9.24a16.6,16.6,0,0,1-2.76,9.18c5.22-1.53,7.53-3.12,21.34-10.65a10.71,10.71,0,0,0,5.58-9.4V424.32a22.19,22.19,0,0,0-6.54-15.8l-6.59-6.6A22.33,22.33,0,0,1,207,386V334.47c0-17.4,12.7-36.23,25.62-50.88l-18,4.67v.68Z"></path><path fill="#a9afc4" d="M399.65,340.28h-6v-6h6Zm-16,0h-6v-6h6Zm-16,0h-6v-6h6Zm-16,0h-6v-6h6Zm-16,0h-6v-6h6Zm-16,0h-6v-6h6Zm-16,0h-6v-6h6Zm-16,0h-6v-6h6Zm-16,0h-6v-6h6Zm-16,0h-6v-6h6Zm-16,0h-5.4v-6h5.4Zm170.29-.2-.59-6a34.21,34.21,0,0,0,5.42-1l1.54,5.8A40.52,40.52,0,0,1,409.94,340.08Zm16.31-5.28-3-5.18a34.56,34.56,0,0,0,4.53-3.15l3.81,4.64A40.38,40.38,0,0,1,426.25,334.8Zm12.66-11.56L434,319.76a34.73,34.73,0,0,0,2.82-4.73l5.39,2.65A40.61,40.61,0,0,1,438.91,323.24Zm6.74-15.78-5.9-1.12a33.54,33.54,0,0,0,.6-5.48l6,.17A40.67,40.67,0,0,1,445.65,307.46Zm.72-16.52h-6v-6h6Zm0-16h-6v-6h6Zm0-16h-6v-6h6Zm0-16h-6v-6h6Z"></path><path fill="#5e6175" d="M45.35 158.3a12.37 12.37 0 117.93-21.89C62.12 143.74 57 158.3 45.35 158.3zM39 146.52A6.37 6.37 0 1049.45 141 6.36 6.36 0 0039 146.52zM88 112.6a9.51 9.51 0 116.09-16.83A9.52 9.52 0 0188 112.6zm-3.48-9.19a3.51 3.51 0 105.74-3A3.51 3.51 0 0084.56 103.41z"></path><rect width="6" height="19.06" x="372.96" y="256.33" fill="#5e6175" transform="rotate(-45 375.955 265.864)"></rect><rect width="19.06" height="6" x="379.21" y="240.41" fill="#5e6175"></rect><rect width="6" height="19.06" x="351.65" y="269.63" fill="#5e6175"></rect></g></svg>