<svg xmlns="http://www.w3.org/2000/svg" viewBox="0 0 512 512" id="bear-graph"><g><rect width="6" height="379.84" x="60.87" y="85.19" fill="#5e6175"></rect><rect width="422.34" height="6" x="36" y="432.55" fill="#5e6175"></rect><rect width="6" height="11.29" x="112.41" y="435.55" fill="#5e6175"></rect><rect width="6" height="11.29" x="162.59" y="435.55" fill="#5e6175"></rect><rect width="6" height="11.29" x="212.77" y="435.55" fill="#5e6175"></rect><rect width="6" height="11.29" x="262.96" y="435.55" fill="#5e6175"></rect><rect width="6" height="11.29" x="313.14" y="435.55" fill="#5e6175"></rect><rect width="6" height="11.29" x="363.32" y="435.55" fill="#5e6175"></rect><rect width="18.04" height="57.84" x="106.39" y="192.7" fill="#a9afc4"></rect><rect width="6" height="25.5" x="112.41" y="167.2" fill="#5e6175"></rect><rect width="6" height="25.5" x="112.41" y="250.54" fill="#5e6175"></rect><rect width="18.04" height="57.84" x="156.57" y="226.1" fill="#dee1ec"></rect><rect width="6" height="25.5" x="162.59" y="200.6" fill="#5e6175"></rect><rect width="6" height="25.5" x="162.59" y="283.94" fill="#5e6175"></rect><rect width="18.04" height="57.84" x="206.76" y="226.1" fill="#dee1ec"></rect><rect width="6" height="25.5" x="212.77" y="200.6" fill="#5e6175"></rect><rect width="6" height="25.5" x="212.77" y="283.94" fill="#5e6175"></rect><rect width="18.04" height="57.84" x="256.94" y="270.74" fill="#a9afc4"></rect><path fill="#5e6175" d="M127.43 253.54h-24V189.7h24zm-18-6h12V195.7h-12zM278 331.58h-24V267.74h24zm-18-6h12V273.74h-12z"></path><rect width="6" height="25.5" x="262.96" y="245.24" fill="#5e6175"></rect><rect width="6" height="25.5" x="262.96" y="328.58" fill="#5e6175"></rect><rect width="18.04" height="57.84" x="307.12" y="301.81" fill="#dee1ec"></rect><rect width="6" height="25.5" x="313.14" y="276.31" fill="#5e6175"></rect><rect width="6" height="25.5" x="313.14" y="359.64" fill="#5e6175"></rect><rect width="18.04" height="57.84" x="357.3" y="301.81" fill="#dee1ec"></rect><path fill="#5e6175" d="M177.61 286.94h-24V223.1h24zm-18-6h12V229.1h-12zM227.79 286.94h-24V223.1h24zm-18-6h12V229.1h-12zM328.16 362.64h-24V298.81h24zm-18-6h12V304.81h-12zM378.34 362.64h-24V298.81h24zm-18-6h12V304.81h-12z"></path><rect width="6" height="25.5" x="363.32" y="276.31" fill="#5e6175"></rect><rect width="6" height="25.5" x="363.32" y="359.64" fill="#5e6175"></rect><path fill="#a9afc4" d="M118.41 423.6h-6v-5.71h6zm0-15.71h-6v-6h6zm0-16h-6v-6h6zm0-16h-6v-6h6zm0-16h-6v-6h6zm0-16h-6v-6h6zm0-16h-6v-6h6zm0-16h-6v-6h6zm0-16h-6v-6h6zM168.59 423.44h-6v-6h6zm0-16h-6v-6h6zm0-16h-6v-6h6zm0-16h-6v-6h6zm0-16h-6v-6h6zm0-16h-6v-6h6zm0-16h-6v-6h6zM218.77 423.44h-6v-6h6zm0-16h-6v-6h6zm0-16h-6v-6h6zm0-16h-6v-6h6zm0-16h-6v-6h6zm0-16h-6v-6h6zm0-16h-6v-6h6zM269 422.6h-6V417h6zm0-15.6h-6v-6h6zm0-16h-6v-6h6zm0-16h-6v-6h6zM319.14 421.54h-6v-6h6zm0-16h-6v-6h6zM369.32 421.54h-6v-6h6zm0-16h-6v-6h6z"></path><rect width="6" height="11.29" x="411.73" y="435.55" fill="#5e6175"></rect><rect width="18.04" height="57.84" x="405.71" y="318.52" fill="#a9afc4"></rect><path fill="#5e6175" d="M426.75,379.35h-24V315.52h24Zm-18-6h12V321.52h-12Z"></path><rect width="6" height="25.5" x="411.73" y="293.02" fill="#5e6175"></rect><rect width="6" height="25.5" x="411.73" y="376.35" fill="#5e6175"></rect><rect width="6" height="6" x="411.73" y="416.25" fill="#a9afc4"></rect><polygon fill="#5e6175" points="281.97 128.29 281.97 176.99 233.28 176.99 248.58 161.7 205.48 118.6 148.66 118.6 96.84 66.79 116.65 46.97 162.06 92.38 214.96 92.38 266.43 143.85 281.97 128.29"></polygon><path fill="#f5f5f5" d="M343.25,231.6l-32.79,10.16L320.61,209a74.78,74.78,0,1,1,22.64,22.63Z"></path><path fill="#5e6175" d="M383.66,246.4a78.09,78.09,0,0,1-40.84-11.52l-36.91,11.43,11.43-36.91a77.77,77.77,0,1,1,66.32,37Zm-40-18.08,1.18.76a71.78,71.78,0,1,0-21.73-21.73l.75,1.17L315,237.21Z"></path><path fill="#e1830e" d="M431.14,159.15A18.75,18.75,0,0,0,425.23,143l-1.85-1.7.7-.74a12.34,12.34,0,1,0-18-16.88l-1.45,1.58a34.16,34.16,0,0,0-16.85-4.42h-5.54a34.16,34.16,0,0,0-16.85,4.42l-1.46-1.58a12.34,12.34,0,1,0-18,16.88l.69.74-1.84,1.7a18.75,18.75,0,0,0-5.91,16.13s-.49,23.56,0,28c.89,8.16,3.51,15.79,9.33,21.6l6.37,6.22,3.27-6.21,5.3,5.6c5.42,5.75,14,9,21.87,9s16.44-3.25,21.87-9l5.3-5.6,3.27,6.21,6.37-6.22c5.82-5.81,8.44-13.44,9.33-21.6C431.63,182.71,431.14,159.15,431.14,159.15Zm-75.47-22.36-4.61-4.61,3.8-3.81,4.62,4.61Zm10.64,20.87a8.12,8.12,0,0,1-8.11-8.11V148l2.68-1.83,13,6.24A8.14,8.14,0,0,1,366.31,157.66Zm45.49-8.11a8.11,8.11,0,0,1-15.7,2.87l13-6.24L411.8,148Zm2.53-12.76L410.52,133l4.62-4.61,3.8,3.81Z"></path><path fill="#f5f5f5" d="M409.43,185.66a11.67,11.67,0,0,0-2.52-12.39,28.73,28.73,0,0,0-42.13-.38l-.34.36a11.79,11.79,0,0,0-2.19,13.19c.44.9-1.52-3.05,5.33,10.64a12.9,12.9,0,0,0,11.52,7.11h13.13a12.88,12.88,0,0,0,11.52-7.11C409.48,185.65,409.18,186.29,409.43,185.66Z"></path><path fill="#e1830e" d="M392.14,183.34l2.66-3.67a5.92,5.92,0,0,0-4.79-9.39H380a5.92,5.92,0,0,0-4.79,9.39l2.66,3.67a8.83,8.83,0,0,0,4.19,3.13v5l-5.74,2.9,2.66,5.27,6-3,6.05,3,2.66-5.27L388,191.5v-5A8.83,8.83,0,0,0,392.14,183.34ZM390,176.18h0v0l-2.66,3.68a2.92,2.92,0,0,1-4.72,0L380,176.18Z"></path><path fill="#5e6175" d="M416 67a11.5 11.5 0 1111.46-12.46A11.52 11.52 0 01416 67zm0-17a5.5 5.5 0 00-5.49 6h0A5.5 5.5 0 10416 50zM470.09 115.11a8.9 8.9 0 118.88-9.64A8.91 8.91 0 01470.09 115.11zm-2.21-10.77A2.9 2.9 0 10473 106 2.9 2.9 0 00467.88 104.34z"></path><rect width="6" height="19.3" x="213" y="56.9" fill="#5e6175"></rect><rect width="6" height="19.3" x="187.78" y="63.83" fill="#5e6175" transform="rotate(-45 190.776 73.478)"></rect><rect width="19.3" height="6" x="231.12" y="69.28" fill="#5e6175" transform="rotate(-45 240.77 72.28)"></rect></g></svg>