<svg xmlns="http://www.w3.org/2000/svg" viewBox="0 0 512 512" id="best-seller"><defs><linearGradient id="a" x1="266.25" x2="391.75" y1="349.04" y2="349.04" gradientUnits="userSpaceOnUse"><stop offset="0" stop-color="#cacfdd"></stop><stop offset="1" stop-color="#eef0f1"></stop></linearGradient></defs><g><path fill="#e1830e" d="M44.81,353.68A21.29,21.29,0,0,1,66.1,375a21.3,21.3,0,0,1,21.29-21.29A21.29,21.29,0,0,1,66.1,332.4,21.29,21.29,0,0,1,44.81,353.68Z"></path><rect width="6" height="19.42" x="106.47" y="49.55" fill="#5e6175" transform="rotate(-45 109.465 59.258)"></rect><rect width="19.42" height="6" x="86.74" y="79.14" fill="#5e6175"></rect><rect width="6" height="19.42" x="128.17" y="36" fill="#5e6175"></rect><rect width="6" height="19.42" x="235.93" y="439.15" fill="#5e6175"></rect><rect width="6" height="19.42" x="261.31" y="432.18" fill="#5e6175" transform="rotate(-45 264.312 441.878)"></rect><rect width="19.42" height="6" x="204.29" y="440.09" fill="#5e6175" transform="rotate(-45.01 213.97 443.062)"></rect><polygon fill="#dee1ec" points="239.16 44.73 287.24 83.8 349.1 80.45 365.04 140.32 417.05 173.98 394.75 231.78 417.05 289.58 365.04 323.24 349.1 383.11 287.24 379.76 239.16 418.83 191.07 379.76 129.21 383.11 113.27 323.24 61.26 289.58 83.55 231.78 61.26 173.98 113.27 140.32 129.21 80.45 191.07 83.8 239.16 44.73"></polygon><path fill="#dee1ec" d="M394.75,231.78l22.3,57.81-52,33.65L349.1,383.11l-61.86-3.35-48.09,39.07-48.08-39.07-61.86,3.35-15.94-59.87-52-33.65,22.3-57.81L61.26,174l52-33.65,15.94-59.87,61.86,3.35,48.08-39.07L287.24,83.8l61.86-3.35L365,140.32l52,33.65Z"></path><circle cx="238.93" cy="231.78" r="127.49" fill="#f5f5f5"></circle><path fill="url(#a)" d="M391.75,306,365,323.24,349.1,383.11l-61.86-3.35-21,17.06C266.65,332,330.27,286,391.75,306Z" style="mix-blend-mode:multiply"></path><polygon fill="#e1830e" points="227.66 316.33 227.66 180.08 206.15 180.08 206.15 164.85 225.53 147.23 259.33 147.23 259.33 316.33 227.66 316.33"></polygon><path fill="#e1830e" d="M283.78 182.3a20.88 20.88 0 0120.88 20.88 20.88 20.88 0 0120.88-20.88 20.88 20.88 0 01-20.88-20.88A20.88 20.88 0 01283.78 182.3zM164.39 273.26a10.44 10.44 0 0110.44 10.44 10.45 10.45 0 0110.44-10.44 10.44 10.44 0 01-10.44-10.43A10.43 10.43 0 01164.39 273.26zM399.9 108.62a10.43 10.43 0 0110.44 10.43 10.44 10.44 0 0110.44-10.43 10.45 10.45 0 01-10.44-10.44A10.44 10.44 0 01399.9 108.62z"></path><path fill="#5e6175" d="M239.16,422.69l-49.08-39.87-63.14,3.41-16.27-61.1L57.59,290.78l22.75-59-22.75-59,53.08-34.35,16.27-61.1,63.14,3.41,49.08-39.87,49.07,39.87,63.14-3.41,16.27,61.1,53.09,34.35-22.76,59,22.76,59-53.09,34.35-16.27,61.1-63.14-3.41Zm-47.1-46L239.16,415l47.08-38.25L346.83,380l15.61-58.63,50.93-33-21.83-56.61,21.83-56.61-50.93-33L346.83,83.58l-60.59,3.27L239.16,48.6l-47.1,38.25-60.58-3.27-15.61,58.63-50.93,33,21.83,56.61L64.94,288.39l50.93,33L131.48,380Z"></path><circle cx="362.34" cy="397.44" r="78.56" fill="#f5f5f5"></circle><path fill="#5e6175" d="M362.34,479a81.56,81.56,0,1,1,81.56-81.56A81.66,81.66,0,0,1,362.34,479Zm0-157.12a75.56,75.56,0,1,0,75.56,75.56A75.65,75.65,0,0,0,362.34,321.88Z"></path><path fill="#e1830e" d="M375.5,381.85c0,45.62.09,45.12,0,45.12l-11.36,6.39a25.52,25.52,0,0,1-12.52,3.28H333.23a6.27,6.27,0,0,1,0-12.54h-3.34a6.32,6.32,0,0,1-6.37-6,6.21,6.21,0,0,1,6.21-6.42H327.1a6.32,6.32,0,0,1-6.37-6,6.22,6.22,0,0,1,6.22-6.42h2.41a7.12,7.12,0,0,1,0-14.24h16a1.89,1.89,0,0,0,1.76-2.6l-3.33-8.16c-4.91-11.78-1.26-18.38,5.4-23.78L356,365.23a26.65,26.65,0,0,0,11.33,12.12C375.59,381.91,375.4,381.85,375.5,381.85Z"></path><rect width="20.66" height="44.55" x="383.29" y="382.06" fill="#e1830e"></rect><path fill="#a9afc4" d="M445.59 352l-.43-6a20.16 20.16 0 005.11-1l1.93 5.68A27 27 0 01445.59 352zm16.21-7.1l-4.11-4.38a20.41 20.41 0 003.33-4l5.07 3.21A26.75 26.75 0 01461.8 344.91zm8.14-15.71l-5.94-.82a37.62 37.62 0 00.19-5.58h6A41 41 0 01469.94 329.2zm.25-16.4h-6v-6h6zm0-16h-6v-6h6zm0-16h-6v-6h6zm0-16h-6v-6h6zm-6.77-15.1a20.5 20.5 0 00-2.06-4.79l5.17-3a26.62 26.62 0 012.66 6.21zm-7.92-11.16a20.4 20.4 0 00-4.61-2.45l2.11-5.62a26.65 26.65 0 016 3.17zm-13.38-3.76h-6v-6h6zm-16 0h-6v-6h6zM110.14 251.4c-.14-.89-.26-1.78-.38-2.68l5.95-.77c.11.85.23 1.71.36 2.55zm-1.3-12.87c-.1-2-.16-4.09-.17-6.13l6 0c0 1.95.07 3.92.16 5.86zM115 222.61l-6-.44c.15-2 .34-4.09.59-6.1l6 .71C115.33 218.7 115.14 220.67 115 222.61zm2.11-15.46L111.22 206c.4-2 .86-4 1.35-6l5.82 1.45C117.92 203.32 117.49 205.24 117.11 207.15zm4-15.08l-5.69-1.91c.65-1.93 1.35-3.87 2.09-5.77l5.59 2.18C122.43 188.38 121.76 190.23 121.14 192.07zM127 177.63l-5.4-2.61c.89-1.84 1.83-3.68 2.8-5.46l5.27 2.87C128.78 174.13 127.88 175.88 127 177.63zM134.69 164l-5-3.26c1.11-1.71 2.27-3.41 3.46-5.07l4.88 3.5C136.86 160.79 135.75 162.42 134.69 164zM144 151.52l-4.59-3.87c1.31-1.56 2.68-3.1 4.07-4.6l4.4 4.08C146.55 148.56 145.25 150 144 151.52zm10.79-11.28l-4.07-4.41c1.5-1.37 3.05-2.74 4.61-4.05l3.86 4.59C157.7 137.63 156.22 138.93 154.79 140.24zm12.12-9.85l-3.49-4.88c1.66-1.18 3.37-2.34 5.09-3.45l3.25 5C170.12 128.16 168.49 129.26 166.91 130.39zM305 126.12c-1.65-1-3.35-2-5-3l2.94-5.23c1.77 1 3.55 2 5.28 3.13zm-124.83-4l-2.84-5.28c1.8-1 3.64-1.91 5.48-2.79l2.59 5.41C183.64 120.31 181.88 121.2 180.16 122.13zm111.1-3.43c-1.76-.82-3.57-1.6-5.38-2.33l2.26-5.56c1.9.77 3.79 1.59 5.63 2.44zm-96.9-3.1L192.2 110c1.89-.73 3.84-1.43 5.79-2.08l1.89 5.7C198 114.23 196.16 114.9 194.36 115.6zm82.35-2.54c-1.86-.58-3.75-1.13-5.63-1.63l1.54-5.8c2 .52 3.95 1.1 5.89 1.71zm-67.46-2.15l-1.43-5.83c2-.49 4-.93 6-1.33l1.16 5.89C213.06 110 211.14 110.44 209.25 110.91zm52.31-1.61c-1.92-.34-3.86-.65-5.78-.91l.79-5.94c2 .26 4.05.59 6.06 1zm-36.95-1.17l-.69-6c2-.23 4.08-.42 6.11-.56l.41 6C228.5 107.73 226.54 107.91 224.61 108.13zm21.45-.65c-1.95-.1-3.92-.17-5.86-.18l.05-6c2 0 4.1.08 6.13.19z"></path></g></svg>