<svg xmlns="http://www.w3.org/2000/svg" xmlns:xlink="http://www.w3.org/1999/xlink" viewBox="0 0 512 512" id="binder-clip"><defs><linearGradient id="a" x1="98.21" x2="331.23" y1="261.1" y2="261.1" gradientUnits="userSpaceOnUse"><stop offset="0" stop-color="#cacfdd"></stop><stop offset="1" stop-color="#eef0f1"></stop></linearGradient><linearGradient xlink:href="#a" id="b" x1="51.33" x2="119.97" y1="366.87" y2="366.87"></linearGradient><linearGradient xlink:href="#a" id="c" x1="178.87" x2="250.57" y1="366.87" y2="366.87"></linearGradient><linearGradient xlink:href="#a" id="d" x1="309.47" x2="378.11" y1="366.87" y2="366.87"></linearGradient><linearGradient xlink:href="#a" id="e" x1="330.8" x2="378.11" y1="354.83" y2="354.83"></linearGradient></defs><g style="isolation:isolate"><path fill="#a9afc4" d="M344.81,334.76H84.62V197.11a9.68,9.68,0,0,1,9.68-9.67H335.14a9.67,9.67,0,0,1,9.67,9.67Z"></path><rect width="19.43" height="6" x="285.05" y="96.15" fill="#5e6175" transform="rotate(-30.7 297.404 99.385)"></rect><rect width="19.43" height="6" x="266.01" y="77.94" fill="#5e6175" transform="rotate(-75.93 275.721 80.95)"></rect><rect width="6" height="19.43" x="299.63" y="113.79" fill="#5e6175" transform="rotate(-75.93 302.614 123.511)"></rect><polygon fill="#a9afc4" points="257.2 334.76 246.16 374.89 183.28 374.89 172.24 334.76 257.2 334.76"></polygon><path fill="#5e6175" d="M347.81,337.76H81.62V197.11A12.69,12.69,0,0,1,94.3,184.44H335.14a12.68,12.68,0,0,1,12.67,12.67Zm-260.19-6H341.81V197.11a6.67,6.67,0,0,0-6.67-6.67H94.3a6.68,6.68,0,0,0-6.68,6.67Z"></path><path fill="url(#a)" d="M306.37,331.42c-.41-1.1-45.63-119.75-45.89-120.42a31.74,31.74,0,0,1,0-23.57h-87.6a31.74,31.74,0,0,1,0,23.57l-45.9,120.42H98.21v3.34h81.41l37-97.18,37,97.18h77.54v-3.34Z" style="mix-blend-mode:multiply"></path><path fill="#f5f5f5" d="M315.72,366.32H282.33L228.06,223.94a66.42,66.42,0,0,1,14.56-71.6l11.7-11.78a15.67,15.67,0,0,0-11.12-26.71H190.11A15.67,15.67,0,0,0,179,140.56l11.7,11.78a66.44,66.44,0,0,1,14.56,71.6L151,366.32H113.72V346.93h23.91l49.6-130.14A47,47,0,0,0,176.94,166l-11.7-11.78a35.07,35.07,0,0,1,24.87-59.77H243.2a35.07,35.07,0,0,1,24.88,59.77L256.37,166A47,47,0,0,0,246.15,217l49.54,130h20Z"></path><path fill="#5e6175" d="M318.72,369.32H280.26L225.25,225a69.42,69.42,0,0,1,15.24-74.78l11.7-11.78c7.87-7.92,2.31-21.6-9-21.6H190.11a12.68,12.68,0,0,0-9,21.6l11.71,11.78A69.41,69.41,0,0,1,208,225.05l-55,144.27H110.72V343.93h24.84l48.87-128.21a44.05,44.05,0,0,0-9.62-47.6l-11.7-11.78a38.06,38.06,0,0,1,27-64.88H243.2a38.06,38.06,0,0,1,27,64.88l-11.7,11.78a44.06,44.06,0,0,0-9.56,47.73l48.82,128.08h21Zm-34.32-6h28.32V349.93h-19.1l-50.33-132a50.06,50.06,0,0,1,11-54L266,152.11A32.06,32.06,0,0,0,243.2,97.46H190.11a32.06,32.06,0,0,0-22.74,54.65l11.7,11.78a50.07,50.07,0,0,1,11,54l-50.33,132h-23v13.39h32.2l53.53-140.45a63.4,63.4,0,0,0-13.88-68.41l-11.7-11.78a18.67,18.67,0,0,1,13.24-31.83H243.2a18.67,18.67,0,0,1,13.25,31.83l-11.7,11.78a63.41,63.41,0,0,0-13.91,68.36Z"></path><polygon fill="#a9afc4" points="115.56 374.89 51.34 374.89 51.34 334.75 126.6 334.75 115.56 374.89"></polygon><polygon fill="url(#b)" points="51.33 358.86 119.97 358.86 115.56 374.89 51.33 374.89 51.33 358.86" style="mix-blend-mode:multiply"></polygon><polygon fill="url(#c)" points="178.87 358.86 250.57 358.86 246.16 374.89 183.28 374.89 178.87 358.86" style="mix-blend-mode:multiply"></polygon><path fill="#5e6175" d="M248.45 377.89H181L168.3 331.76h92.84zm-62.88-6h58.3l9.39-34.13H176.17zM117.85 377.9H48.33V331.75h82.21zm-63.52-6h59l9.38-34.15H54.33zM49.2 219.47a12.19 12.19 0 01-11.36-7.81h0a12.19 12.19 0 1111.36 7.81zm0-18.39a6.21 6.21 0 00-5.79 8.42h0a6.13 6.13 0 003.26 3.43 6.19 6.19 0 102.53-11.85zM82.18 155.42a8.32 8.32 0 1110.75 4.77A8.33 8.33 0 0182.18 155.42zm7.76-5.3a2.32 2.32 0 00-2.16 3.15h0A2.29 2.29 0 0089 154.55a2.31 2.31 0 10.94-4.43z"></path><path fill="#a9afc4" d="M365.16,283.7h-6v-6h6Zm0-16h-6v-6h6Zm0-16h-6v-6h6Zm0-16h-6v-6h6Zm0-16h-6v-6h6Zm0-16h-6v-6h6Zm-6.48-15.29a18.65,18.65,0,0,0-1.83-4.82l5.27-2.88a24.61,24.61,0,0,1,2.41,6.36Zm-7.52-11.2a19.19,19.19,0,0,0-4.58-2.38l2-5.65a25.26,25.26,0,0,1,6,3.12Zm-13.44-3.45h-6v-6h6Zm-16,0h-6v-6h6Z"></path><path fill="#e1830e" d="M339.75 129.15a25 25 0 0125 25 25 25 0 0125-25 25 25 0 01-25-25A25 25 0 01339.75 129.15zM36 271.79a12.34 12.34 0 0112.34 12.33 12.33 12.33 0 0112.34-12.33 12.34 12.34 0 01-12.34-12.34A12.35 12.35 0 0136 271.79z"></path><polygon fill="#a9afc4" points="313.87 374.89 378.1 374.89 378.1 334.75 302.84 334.75 313.87 374.89"></polygon><polygon fill="url(#d)" points="378.11 358.86 378.11 374.89 313.88 374.89 309.47 358.86 378.11 358.86" style="mix-blend-mode:multiply"></polygon><path fill="#5e6175" d="M381.1,377.9H311.59L298.9,331.75h82.2Zm-64.94-6H375.1V337.75H306.77Z"></path><path fill="url(#e)" d="M378.11,334.76V374.9H330.8a81.41,81.41,0,0,1,11.38-40.14Z" style="mix-blend-mode:multiply"></path><circle cx="410.41" cy="374.89" r="65.59" fill="#f5f5f5"></circle><path fill="#5e6175" d="M410.41,443.48A68.59,68.59,0,1,1,479,374.89,68.67,68.67,0,0,1,410.41,443.48Zm0-131.18A62.59,62.59,0,1,0,473,374.89,62.67,62.67,0,0,0,410.41,312.3Z"></path><polygon fill="#e1830e" points="437.71 342.16 437.71 412.11 400.99 412.11 384.92 396.45 384.92 342.16 437.71 342.16"></polygon><polygon fill="#f5f5f5" points="390.56 392.61 405.23 392.61 405.23 406.55 390.56 392.61"></polygon></g></svg>