<svg xmlns="http://www.w3.org/2000/svg" viewBox="0 0 512 512" id="bonds"><defs><linearGradient id="a" x1="265.4" x2="265.4" y1="304.14" y2="412.89" gradientUnits="userSpaceOnUse"><stop offset="0" stop-color="#cacfdd"></stop><stop offset="1" stop-color="#eef0f1"></stop></linearGradient></defs><g style="isolation:isolate"><path fill="#a9afc4" d="M455.82,108.75V369.87H68V108.75H180.55a37.23,37.23,0,0,0,30.72-16.07c24.41-35.55,76.83-35.54,101.24,0a37.2,37.2,0,0,0,30.72,16.07Z"></path><path fill="#dee1ec" d="M435.65,146.26V332.37a18.85,18.85,0,0,0-18.85,18.85H107a18.85,18.85,0,0,0-18.86-18.85V146.26A18.86,18.86,0,0,0,107,127.39H217.28a44.61,44.61,0,1,0,89.21,0H416.8A18.86,18.86,0,0,0,435.65,146.26Z"></path><path fill="#e1830e" d="M232.58,351.22V460l32.82-23.43L298.21,460V351.22Z"></path><path fill="url(#a)" d="M329,369.87H201.79a35.21,35.21,0,0,1,1.1-39,35.21,35.21,0,0,1,23.87-32.85A35.17,35.17,0,0,1,265.4,285.5,35.17,35.17,0,0,1,304,298.06a35.16,35.16,0,0,1,23.87,32.85A35.15,35.15,0,0,1,329,369.87Z" style="mix-blend-mode:multiply"></path><path fill="#5e6175" d="M458.82,372.87H65V105.75H180.55A34.22,34.22,0,0,0,208.8,91C234.39,53.72,289.4,53.73,315,91a34.22,34.22,0,0,0,28.25,14.76H458.82ZM71,366.87H452.82V111.75H343.23A40.17,40.17,0,0,1,310,94.38c-23.22-33.8-73.09-33.78-96.3,0a40.2,40.2,0,0,1-33.19,17.37H71Z"></path><path fill="#5e6175" d="M419.8,354.22H104v-3a15.87,15.87,0,0,0-15.85-15.85h-3V143.26h3A15.88,15.88,0,0,0,104,127.39v-3H220.28v3a41.61,41.61,0,1,0,83.21,0v-3H419.8v3a15.88,15.88,0,0,0,15.85,15.87h3V335.37h-3a15.87,15.87,0,0,0-15.85,15.85Zm-310-6H414a21.91,21.91,0,0,1,18.65-18.65V149.05A21.91,21.91,0,0,1,414,130.39H309.4a47.6,47.6,0,0,1-95,0H109.77a21.92,21.92,0,0,1-18.65,18.66V329.57A21.92,21.92,0,0,1,109.77,348.22Z"></path><rect width="241.09" height="21.51" x="141.34" y="193.76" fill="#f5f5f5"></rect><path fill="#5e6175" d="M385.43,218.27H138.34V190.76H385.43Zm-241.09-6H379.43V196.76H144.34Z"></path><rect width="241.09" height="6" x="141.34" y="236.31" fill="#5e6175"></rect><rect width="142.13" height="6" x="190.82" y="260.35" fill="#5e6175"></rect><circle cx="261.89" cy="127.39" r="44.61" fill="#f5f5f5"></circle><path fill="#5e6175" d="M261.89,175a47.61,47.61,0,1,1,47.61-47.61A47.67,47.67,0,0,1,261.89,175Zm0-89.22a41.61,41.61,0,1,0,41.61,41.61A41.66,41.66,0,0,0,261.89,85.78Z"></path><path fill="#e1830e" d="M262.24,153.61a15.57,15.57,0,0,1-15.54-15.55h9.74a5.8,5.8,0,1,0,5.8-5.8,15.54,15.54,0,1,1,15.54-15.54H268a5.8,5.8,0,1,0-5.8,5.8,15.55,15.55,0,0,1,0,31.09Z"></path><rect width="9.74" height="9.71" x="257.37" y="96.34" fill="#e1830e"></rect><rect width="9.74" height="9.71" x="257.37" y="148.74" fill="#e1830e"></rect><path fill="#f5f5f5" d="M265.4,301.43a20.52,20.52,0,0,1,29.27,9.51,20.53,20.53,0,0,1,18.09,24.89,20.53,20.53,0,0,1,0,30.78,20.53,20.53,0,0,1-18.09,24.9A20.53,20.53,0,0,1,265.4,401a20.53,20.53,0,0,1-29.27-9.51A20.53,20.53,0,0,1,218,366.61a20.53,20.53,0,0,1,0-30.78,20.52,20.52,0,0,1,18.09-24.89A20.51,20.51,0,0,1,265.4,301.43Z"></path><path fill="#5e6175" d="M234.12,394.27a23.54,23.54,0,0,1-19.33-26.61,23.53,23.53,0,0,1,0-32.88,23.52,23.52,0,0,1,19.32-26.6A23.54,23.54,0,0,1,265.4,298a23.52,23.52,0,0,1,31.27,10.16A23.53,23.53,0,0,1,316,334.78a23.54,23.54,0,0,1,0,32.88,23.54,23.54,0,0,1-19.33,26.61,23.53,23.53,0,0,1-31.27,10.16A23.55,23.55,0,0,1,234.12,394.27Zm4.76-82.14-.7,1.62-1.77.17A17.53,17.53,0,0,0,221,335.18l.38,1.73L220,338.08a17.54,17.54,0,0,0,0,26.28l1.33,1.17-.38,1.73a17.53,17.53,0,0,0,15.44,21.26l1.77.17.7,1.63a17.54,17.54,0,0,0,25,8.12l1.53-.91,1.52.91a17.54,17.54,0,0,0,25-8.12l.7-1.63,1.76-.17a17.54,17.54,0,0,0,15.45-21.26l-.39-1.73,1.33-1.17a17.53,17.53,0,0,0,0-26.28l-1.33-1.17.39-1.73a17.53,17.53,0,0,0-15.45-21.26l-1.76-.17-.7-1.62a17.54,17.54,0,0,0-25-8.12l-1.52.9-1.53-.9A17.53,17.53,0,0,0,238.88,312.13Z"></path><circle cx="265.4" cy="351.22" r="32.82" fill="#dee1ec"></circle><path fill="#a9afc4" d="M479,155.7h-6v-2.55h6Zm0-12.55h-6v-6h6Zm0-16h-6v-6h6Zm0-16h-6a29.17,29.17,0,0,0-.27-5.46l5.91-1A33.57,33.57,0,0,1,479,111.15Zm-9.63-13.29a18.56,18.56,0,0,0-3.62-3.68l3.66-4.75a24.36,24.36,0,0,1,4.77,4.85ZM458,90.69a25.68,25.68,0,0,0-5.41-.33v-6a30.47,30.47,0,0,1,6.54.44Zm-15.41-.33h-6v-6h6Z"></path><path fill="#5e6175" d="M43.92 373.71A10.92 10.92 0 1154.7 361.05 10.93 10.93 0 0143.92 373.71zm0-15.84a4.92 4.92 0 00-4.86 5.7h0a4.92 4.92 0 104.86-5.7zM77.37 405.23h0a8.5 8.5 0 1115.28 3.62A8.49 8.49 0 0177.37 405.23zm8.39-3.85a2.49 2.49 0 00-2.47 2.89h0a2.5 2.5 0 102.47-2.9z"></path><path fill="#e1830e" d="M163.06,68.85a16.86,16.86,0,0,1,16.86,16.86,16.85,16.85,0,0,1,16.85-16.86A16.84,16.84,0,0,1,179.92,52,16.85,16.85,0,0,1,163.06,68.85Z"></path></g></svg>