<svg xmlns="http://www.w3.org/2000/svg" xmlns:xlink="http://www.w3.org/1999/xlink" viewBox="0 0 512 512" id="box-pallete"><defs><linearGradient id="a" x1="92.92" x2="92.92" y1="327.61" y2="354.95" gradientUnits="userSpaceOnUse"><stop offset="0" stop-color="#cacfdd"></stop><stop offset="1" stop-color="#eef0f1"></stop></linearGradient><linearGradient xlink:href="#a" id="c" x1="261.05" x2="261.05" y1="327.61" y2="354.95"></linearGradient><linearGradient xlink:href="#a" id="d" x1="429.17" x2="429.17" y1="327.61" y2="354.95"></linearGradient><linearGradient xlink:href="#a" id="e" x1="92.92" x2="92.92" y1="392.95" y2="420.29"></linearGradient><linearGradient xlink:href="#a" id="f" x1="261.05" x2="261.05" y1="392.95" y2="420.29"></linearGradient><linearGradient xlink:href="#a" id="g" x1="429.17" x2="429.17" y1="392.95" y2="420.29"></linearGradient><linearGradient id="b" x1="161.1" x2="359.8" y1="211.05" y2="211.05" gradientUnits="userSpaceOnUse"><stop offset="0" stop-color="#a9afc4"></stop><stop offset="1" stop-color="#d4d8e5"></stop></linearGradient><linearGradient xlink:href="#b" id="h" x1="194.22" x2="194.22" y1="156.75" y2="257.6"></linearGradient><linearGradient xlink:href="#b" id="i" x1="260.45" x2="260.45" y1="156.75" y2="257.6"></linearGradient><linearGradient xlink:href="#b" id="j" x1="326.69" x2="326.69" y1="156.75" y2="257.6"></linearGradient></defs><g><rect width="363.92" height="18.82" x="79.09" y="420.24" fill="#dee1ec"></rect><rect width="363.92" height="18.82" x="79.09" y="373.71" fill="#dee1ec"></rect><rect width="363.92" height="18.82" x="79.09" y="354.89" fill="#dee1ec"></rect><rect width="363.92" height="18.82" x="79.09" y="308.37" fill="#dee1ec"></rect><path fill="#5e6175" d="M446 442.05H76.09V417.24H446zm-363.91-6H440V423.24H82.09zM446 395.53H76.09V370.71H446zm-363.91-6H440V376.71H82.09z"></path><path fill="#5e6175" d="M446 376.71H76.09V351.89H446zm-363.91-6H440V357.89H82.09zM446 330.19H76.09V305.37H446zm-363.91-6H440V311.37H82.09z"></path><rect width="27.66" height="27.7" x="79.09" y="327.19" fill="#dee1ec"></rect><rect width="27.66" height="27.7" x="247.21" y="327.19" fill="#dee1ec"></rect><rect width="27.66" height="27.7" x="415.34" y="327.19" fill="#dee1ec"></rect><rect width="27.66" height="27.7" x="79.09" y="327.19" fill="url(#a)" style="mix-blend-mode:multiply"></rect><rect width="27.66" height="27.7" x="247.21" y="327.19" fill="url(#c)" style="mix-blend-mode:multiply"></rect><rect width="27.66" height="27.7" x="415.34" y="327.19" fill="url(#d)" style="mix-blend-mode:multiply"></rect><rect width="27.66" height="27.7" x="79.09" y="392.53" fill="#dee1ec"></rect><rect width="27.66" height="27.7" x="247.21" y="392.53" fill="#dee1ec"></rect><rect width="27.66" height="27.7" x="415.34" y="392.53" fill="#dee1ec"></rect><rect width="27.66" height="27.7" x="79.09" y="392.53" fill="url(#e)" style="mix-blend-mode:multiply"></rect><rect width="27.66" height="27.7" x="247.21" y="392.53" fill="url(#f)" style="mix-blend-mode:multiply"></rect><rect width="27.66" height="27.7" x="415.34" y="392.53" fill="url(#g)" style="mix-blend-mode:multiply"></rect><path fill="#5e6175" d="M109.75 357.89H76.09v-33.7h33.66zm-27.66-6h21.66v-21.7H82.09zM277.88 357.89H244.21v-33.7h33.67zm-27.67-6h21.67v-21.7H250.21zM446 357.89H412.34v-33.7H446zm-27.66-6H440v-21.7H418.34zM109.75 423.24H76.09V389.53h33.66zm-27.66-6h21.66V395.53H82.09zM277.88 423.24H244.21V389.53h33.67zm-27.67-6h21.67V395.53H250.21zM446 423.24H412.34V389.53H446zm-27.66-6H440V395.53H418.34z"></path><rect width="198.7" height="104.41" x="161.1" y="158.84" fill="url(#b)"></rect><rect width="66.23" height="104.41" x="161.1" y="158.84" fill="url(#h)"></rect><rect width="66.23" height="104.41" x="227.34" y="158.84" fill="url(#i)"></rect><rect width="66.23" height="104.41" x="293.57" y="158.84" fill="url(#j)"></rect><path fill="#5e6175" d="M362.8,266.25H158.1V155.84H362.8Zm-198.7-6H356.8V161.84H164.1Z"></path><path fill="#5e6175" d="M230.34,266.25H158.1V155.84h72.24Zm-66.24-6h60.24V161.84H164.1Z"></path><path fill="#5e6175" d="M296.57,266.25H224.34V155.84h72.23Zm-66.23-6h60.23V161.84H230.34Z"></path><path fill="#5e6175" d="M362.8,266.25H290.57V155.84H362.8Zm-66.23-6H356.8V161.84H296.57Z"></path><path fill="#dee1ec" d="M370,158.84V113.72H152.15v45.12H274.88C157.89,266.2,161.1,263.15,161.1,263.25h-8.95v45.12H370V263.25H247.21L359.8,158.84Z"></path><path fill="#5e6175" d="M373,311.37H149.15V260.25h10.79l107.23-98.41h-118V110.72H373v51.12H361L254.86,260.25H373Zm-217.8-6H367V266.25H239.57L358.63,155.84H367V116.72H155.15v39.12H282.58L162.27,266.25h-7.12Z"></path><rect width="217.8" height="6" x="152.15" y="260.25" fill="#5e6175"></rect><rect width="217.8" height="6" x="152.15" y="155.84" fill="#5e6175"></rect><circle cx="194.22" cy="285.08" r="7.22" fill="#e08326"></circle><circle cx="326.69" cy="285.08" r="7.22" fill="#e08326"></circle><circle cx="194.22" cy="137.01" r="7.22" fill="#e08326"></circle><circle cx="326.69" cy="137.01" r="7.22" fill="#e08326"></circle><rect width="6" height="17.89" x="130.45" y="85.42" fill="#5e6175" transform="rotate(-45 133.447 94.364)"></rect><rect width="17.89" height="6" x="112.51" y="112.44" fill="#5e6175"></rect><rect width="6" height="17.89" x="150.44" y="72.95" fill="#5e6175"></rect><path fill="#5e6175" d="M424.93 285.93a12.05 12.05 0 1111.62-15.2A12.07 12.07 0 01424.93 285.93zm-5.26-15.08a6.05 6.05 0 1011.09 1.45A6.07 6.07 0 00419.67 270.85zM469.72 320.78a9.29 9.29 0 119-11.71A9.3 9.3 0 01469.72 320.78zm-2.86-10.93a3.29 3.29 0 106 .78A3.3 3.3 0 00466.86 309.85z"></path><rect width="427.42" height="6" x="36" y="436.05" fill="#5e6175"></rect><path fill="#a9afc4" d="M56,373.71H50v-6h6Zm0-16H50v-6h6Zm0-16H50v-6h6Zm0-16H50v-6h6Zm0-16H50v-6h6Zm.22-15.37-5.87-1.22a16.55,16.55,0,0,1,3-6.61l4.79,3.62A10.35,10.35,0,0,0,56.26,294.34Zm8.38-8.23-1.1-5.89a32.08,32.08,0,0,1,6.54-.29v6A29.74,29.74,0,0,0,64.64,286.11Zm53.44-.18h-6v-6h6Zm-16,0h-6v-6h6Zm-16,0h-6v-6h6ZM129.29,283l-3.41-4.94a10.6,10.6,0,0,0,3.15-3.41l5.19,3A16.86,16.86,0,0,1,129.29,283Zm7.16-16.51h-6v-6h6Zm0-16h-6v-6h6Zm0-16h-6v-6h6Zm0-16h-6v-6h6Zm0-16h-6v-6h6Zm0-16h-6v-6h6Z"></path></g></svg>