<svg xmlns="http://www.w3.org/2000/svg" xmlns:xlink="http://www.w3.org/1999/xlink" viewBox="0 0 512 512" id="branding"><defs><linearGradient id="linear-gradient" x1="328.43" x2="365.32" y1="220.3" y2="220.3" gradientUnits="userSpaceOnUse"><stop offset="0" stop-color="#cacfdd"></stop><stop offset="1" stop-color="#eef0f1"></stop></linearGradient><linearGradient xlink:href="#linear-gradient" id="linear-gradient-2" x1="98.68" x2="365.32" y1="376.83" y2="376.83"></linearGradient><linearGradient xlink:href="#linear-gradient" id="linear-gradient-3" x1="207.92" x2="469.92" y1="362.89" y2="362.89"></linearGradient></defs><g style="isolation:isolate"><g id="Branding"><rect width="266.64" height="375.87" x="98.68" y="77.73" fill="#f5f5f5"></rect><path d="M365.32,153.05v134.5a79.74,79.74,0,0,1,0-134.5Z" style="mix-blend-mode:multiply" fill="url(#linear-gradient)"></path><path d="M365.32,300.05V453.6H98.68V364.5h78.78a14.79,14.79,0,0,0,14.79-14.79V314.84A14.79,14.79,0,0,1,207,300.05Z" style="mix-blend-mode:multiply" fill="url(#linear-gradient-2)"></path><rect width="266.64" height="64.57" x="98.68" y="77.74" fill="#dee1ec"></rect><path d="M368.32,456.6H95.68V74.74H368.32Zm-266.64-6H362.32V80.74H101.68Z" fill="#5e6175"></path><rect width="261.99" height="137.87" x="207.92" y="315.72" fill="#f5f5f5"></rect><rect width="120.47" height="73.42" x="58.51" y="380.18" fill="#f5f5f5"></rect><rect width="24.31" height="24.31" x="127.15" y="97.87" rx="6.1" fill="#e1830e"></rect><rect width="168.47" height="6" x="175.63" y="99.27" fill="#5e6175"></rect><rect width="59.54" height="6" x="175.63" y="114.78" fill="#5e6175"></rect><rect width="120.47" height="47.69" x="58.51" y="393.14" fill="#dee1ec"></rect><rect width="24.31" height="24.31" x="80.36" y="404.2" rx="6.1" fill="#e1830e"></rect><rect width="39.47" height="6" x="119.89" y="406.81" fill="#5e6175"></rect><rect width="19.73" height="6" x="119.89" y="422.28" fill="#5e6175"></rect><path d="M182,456.6H55.51V377.18H182Zm-120.46-6H176V383.18H61.51Z" fill="#5e6175"></path><rect width="261.99" height="44.9" x="207.92" y="395.93" fill="#dee1ec"></rect><rect width="24.31" height="24.31" x="234.31" y="406.87" rx="6.1" fill="#e1830e"></rect><rect width="26.57" height="6" x="279.24" y="409.44" fill="#5e6175"></rect><rect width="68.43" height="6" x="279.24" y="424.24" fill="#5e6175"></rect><polygon points="207.92 315.72 207.92 340 338.92 410.06 469.92 340 469.92 315.72 207.92 315.72" style="mix-blend-mode:multiply" fill="url(#linear-gradient-3)"></polygon><path d="M207.92,315.72v10.15l131,70.06,131-70.06V315.72Z" fill="#f5f5f5"></path><path d="M338.92,399.33l-134-71.67V312.72h268v14.94Zm-128-75.26,128,68.46,128-68.46v-5.35h-256Z" fill="#5e6175"></path><path d="M472.92,456.6h-268V312.72h268Zm-262-6h256V318.72h-256Z" fill="#5e6175"></path><circle cx="408.22" cy="220.3" r="64.12" fill="#f5f5f5"></circle><path d="M408.22,287.42a67.12,67.12,0,1,1,67.11-67.12A67.2,67.2,0,0,1,408.22,287.42Zm0-128.24a61.12,61.12,0,1,0,61.11,61.12A61.19,61.19,0,0,0,408.22,159.18Z" fill="#5e6175"></path><polygon points="398.24 252.87 370.24 224.86 381.32 213.78 398.24 230.7 437.62 191.32 448.7 202.4 398.24 252.87" fill="#e1830e"></polygon><path d="M345.22 58.45a11.71 11.71 0 1 1 8.38-3.52A11.73 11.73 0 0 1 345.22 58.45Zm0-17.41a5.71 5.71 0 1 0 4.09 9.69A5.72 5.72 0 0 0 345.22 41ZM395.16 95.23a8.9 8.9 0 1 1 8.9-9A8.9 8.9 0 0 1 395.16 95.23Zm-2.89-8.88a2.9 2.9 0 1 0 4.93-2.09A2.9 2.9 0 0 0 392.27 86.35Z" fill="#5e6175"></path><path d="M246.33,477h-6v-6h6Zm-16,0h-6v-6h6Zm-16,0h-6v-6h6Zm-16,0h-6v-6h6Zm-16,0h-6v-6h6Zm-16,0h-6v-6h6Zm-16,0h-6v-6h6Zm-16,0h-6v-6h6Zm-16,0h-6v-6h6Zm-16,0h-6v-6h6Zm-16,0h-6v-6h6Zm-16,0h-6v-6h6Zm-16.56-.52a26,26,0,0,1-6.4-2.22l2.69-5.36a19.71,19.71,0,0,0,4.91,1.7Zm-15.11-9.27a25.86,25.86,0,0,1-3.49-5.79l5.5-2.41a20,20,0,0,0,2.68,4.45ZM39,450.44H33v-6h6Zm0-16H33v-6h6Zm0-16H33v-6h6Z" fill="#a9afc4"></path><path d="M41.85 339.25a16.66 16.66 0 0 1 16.66 16.66 16.65 16.65 0 0 1 16.65-16.66 16.65 16.65 0 0 1-16.65-16.66A16.66 16.66 0 0 1 41.85 339.25ZM421.41 117.78a27.29 27.29 0 0 1 27.29 27.29A27.3 27.3 0 0 1 476 117.78a27.3 27.3 0 0 1-27.3-27.3A27.29 27.29 0 0 1 421.41 117.78Z" fill="#e1830e"></path></g></g></svg>