<svg xmlns="http://www.w3.org/2000/svg" xmlns:xlink="http://www.w3.org/1999/xlink" viewBox="0 0 512 512" id="broker"><defs><linearGradient id="a" x1="290.47" x2="343.57" y1="329.74" y2="329.74" gradientUnits="userSpaceOnUse"><stop offset="0" stop-color="#cacfdd"></stop><stop offset="1" stop-color="#eef0f1"></stop></linearGradient><linearGradient xlink:href="#a" id="b" x1="193.14" x2="193.14" y1="260.92" y2="306.89"></linearGradient><linearGradient xlink:href="#a" id="c" x1="192.79" x2="192.79" y1="261.82" y2="333.31"></linearGradient><linearGradient xlink:href="#a" id="d" x1="128.87" x2="162.92" y1="144.08" y2="144.08"></linearGradient></defs><g style="isolation:isolate"><path fill="#f5f5f5" d="M304.57,307.7l-69-29H150.92l-69,29a62.17,62.17,0,0,0-39.49,57.86V466.25H344.07V365.56A62.16,62.16,0,0,0,304.57,307.7Z"></path><path fill="#f5f5f5" d="M344.07,365.56V466.24H42.4V365.56A62.18,62.18,0,0,1,81.9,307.7l69-29h84.63l69,29A62.16,62.16,0,0,1,344.07,365.56Z"></path><path fill="#f5f5f5" d="M344.07,365.56V466.24H42.4V365.56A62.18,62.18,0,0,1,81.9,307.7l69-29h84.63l69,29A62.18,62.18,0,0,1,344.07,365.56Z"></path><path fill="#f5f5f5" d="M344.07,365.57V466.25H42.4V365.57A62.18,62.18,0,0,1,81.9,307.7l69-28.95h84.64l69,28.95A62.18,62.18,0,0,1,344.07,365.57Z"></path><path fill="#f5f5f5" d="M344.07,365.56V466.24H42.4V365.56A62.15,62.15,0,0,1,81.9,307.7c64.58-27.09,51-21.38,69-29h84.64c33.23,13.94,33.77,14.19,69,29A62.18,62.18,0,0,1,344.07,365.56Z"></path><path fill="url(#a)" d="M343.57,357.7h-53.1V301.79l14.1,5.91A62.18,62.18,0,0,1,343.57,357.7Z" style="mix-blend-mode:multiply"></path><polygon fill="#dee1ec" points="155.25 278.74 192.59 306.54 231.04 278.74 155.25 278.74"></polygon><polygon fill="url(#b)" points="155.25 278.74 192.59 306.54 231.04 278.74 155.25 278.74" style="mix-blend-mode:multiply"></polygon><path fill="#5e6175" d="M45.41,466.25h-6V365.56a65.55,65.55,0,0,1,41.4-60.65l69.5-29.17h42.28v6H151.52L83.06,310.47a59.54,59.54,0,0,0-37.65,55.09Z"></path><polygon fill="#f5f5f5" points="150.92 278.74 155.25 278.74 192.59 306.54 156.7 329.75 136.03 285 150.92 278.74"></polygon><polygon fill="#f5f5f5" points="234.27 278.74 231.04 278.74 192.59 306.54 228.49 329.75 249.44 284.5 234.27 278.74"></polygon><rect width="6" height="87.79" x="82.83" y="378.46" fill="#5e6175"></rect><rect width="6" height="87.2" x="297.85" y="379.05" fill="#5e6175"></rect><path fill="#5e6175" d="M220.88,324.83,192.7,306.54l-28.39,18.29L178.45,344l-14.14,122.3h56.57L206.73,344Z"></path><path fill="url(#c)" d="M248.24,284.06a80.13,80.13,0,0,1-110.9.39l13.58-5.7h84.64Z" style="mix-blend-mode:multiply"></path><path fill="#5e6175" d="M347.07,466.25h-6V365.56a59.55,59.55,0,0,0-37.59-55.07L235,281.74H151.52L83.06,310.47a59.55,59.55,0,0,0-37.65,55.09V466.25h-6V365.56a65.56,65.56,0,0,1,41.4-60.65l69.51-29.17h85.84l69.58,29.19a65.56,65.56,0,0,1,41.33,60.63Z"></path><path fill="#5e6175" d="M155.42,334.15,132,283.44l18.31-7.7h5.93l41.61,31Zm-15.37-47.59L158,325.36l29.37-19-33.09-24.63h-2.73Z"></path><path fill="#5e6175" d="M229.76,334.15l-42.48-27.47,42.79-30.94h4.75l18.69,7.1ZM197.9,306.4l29.32,19,18.14-39.19-11.64-4.43H232Z"></path><path fill="#f5f5f5" d="M192.6,285.65a64.49,64.49,0,0,1-64.49-64.49V188.8a64.49,64.49,0,1,1,129,0v32.36A64.49,64.49,0,0,1,192.6,285.65Z"></path><path fill="#5e6175" d="M192.6,288.65a67.57,67.57,0,0,1-67.49-67.49V188.8a67.49,67.49,0,1,1,135,0v32.36A67.57,67.57,0,0,1,192.6,288.65Zm0-161.34a61.56,61.56,0,0,0-61.49,61.49v32.36a61.49,61.49,0,0,0,123,0V188.8A61.57,61.57,0,0,0,192.6,127.31Z"></path><path fill="#dee1ec" d="M192.61,113.64c-35.23-1.76-67.25,27.14-67.25,65v18.81a2.53,2.53,0,0,0,2.71,2.52c17-1.47,16.89-16.74,16.89-16.74,0-18.65,17.74-20.14,17.74-20.14h11.4a13,13,0,0,1,9.26,3.85,13,13,0,0,0,18.5,0,13,13,0,0,1,9.25-3.85h11.41s17.74,1.49,17.74,20.14c0,0-.13,15.27,16.89,16.74a2.53,2.53,0,0,0,2.71-2.52V178.64C259.86,140.81,227.87,111.88,192.61,113.64Z"></path><path fill="#dee1ec" d="M259.86,178.64v18.81a2.51,2.51,0,0,1-2.71,2.51c-17-1.46-16.89-16.73-16.89-16.73,0-18.64-17.74-20.14-17.74-20.14H211.11a13.1,13.1,0,0,0-9.25,3.84,13,13,0,0,1-18.5,0,13.11,13.11,0,0,0-9.25-3.84H162.7S145,164.59,145,183.23c0,0,.12,15.27-16.89,16.73a2.51,2.51,0,0,1-2.71-2.51V178.64a65,65,0,0,1,67.17-65h.16A65,65,0,0,1,259.86,178.64Z"></path><path fill="url(#d)" d="M149.41,163.85l-20.54-6.36a65.29,65.29,0,0,1,26.39-33.65c-.22.5-.46,1-.71,1.51l7.89,25.47A10.42,10.42,0,0,1,149.41,163.85Z" style="mix-blend-mode:multiply"></path><path fill="#5e6175" d="M122.36,197.45V178.64a67.9,67.9,0,0,1,70.25-68,67.9,67.9,0,0,1,70.25,68v18.81a5.53,5.53,0,0,1-6,5.51c-19.55-1.69-19.63-19.57-19.63-19.75,0-15.15-13.41-17-14.88-17.12H211.11a10.12,10.12,0,0,0-7.12,3,16,16,0,0,1-22.76,0,10.12,10.12,0,0,0-7.13-3H162.86a19.92,19.92,0,0,0-7.64,2.75c-4.82,3-7.26,7.86-7.26,14.39,0,.16-.08,18-19.63,19.73A5.53,5.53,0,0,1,122.36,197.45Zm88.75-37.36h11.66c7.09.6,20.49,6.2,20.49,23.13,0,1.28.42,12.26,13.6,13.7V178.64a61.91,61.91,0,0,0-64.05-62c-.08-2.07-.18-5.55-.05,0a1.5,1.5,0,0,1-.3,0,61.92,61.92,0,0,0-64.1,62v18.29c13.18-1.44,13.6-12.42,13.6-13.69,0-16.94,13.4-22.54,20.49-23.14.39,0,.39,0,11.65,0a16.15,16.15,0,0,1,11.39,4.73,10,10,0,0,0,14.24,0A16.14,16.14,0,0,1,211.11,160.09Z"></path><path fill="#f5f5f5" d="M271.06 202.43v9.07a13.62 13.62 0 01-4 9.68l-4.37 4.39A13.83 13.83 0 01257 229c.17-2.63.12-1.82.12-28.9h.32a2.56 2.56 0 002.56-2.56V189A13.69 13.69 0 01271.06 202.43zM128.24 229a13.55 13.55 0 01-5.63-3.38l-4.37-4.39a13.64 13.64 0 01-4-9.68v-9.07a13.72 13.72 0 0111.14-13.49v8.49a2.54 2.54 0 002.75 2.54C128.11 227.08 128.07 226.41 128.24 229z"></path><path fill="#5e6175" d="M253.68 233.09c.54-8.1.4-2.45.4-36H257V185.33l3.56.68a16.71 16.71 0 0113.54 16.42v9.07a16.68 16.68 0 01-4.89 11.81C262 230.46 262.73 230.4 253.68 233.09zm6.4-30.69v21.5c.38-.34 0 0 4.86-4.83a10.72 10.72 0 003.12-7.57v-9.07a10.75 10.75 0 00-5.1-9.15v4.25A5.58 5.58 0 01260.08 202.4zM131.52 233.08c-9-2.74-8.24-2.58-15.41-9.78a16.72 16.72 0 01-4.89-11.8v-9.07A16.72 16.72 0 01124.81 186l3.55-.67v11.62l2.72-.24C131.26 218.64 130.77 222 131.52 233.08zm-9.16-39.83a10.76 10.76 0 00-5.14 9.18v9.07a10.68 10.68 0 003.13 7.55c4.11 4.13 4.44 4.47 4.76 4.76V202.23a5.59 5.59 0 01-2.75-4.8z"></path><rect width="169.74" height="225.94" x="306.26" y="115.98" fill="#f5f5f5"></rect><path fill="#5e6175" d="M479,344.92H303.26V113H479Zm-169.74-6H473V119H309.26Z"></path><rect width="21.84" height="46.41" x="339.71" y="173.2" fill="#dee1ec"></rect><path fill="#5e6175" d="M364.55,222.61H336.71V170.2h27.84Zm-21.84-6h15.84V176.2H342.71Z"></path><rect width="21.84" height="71.58" x="381.94" y="148.03" fill="#e1830e"></rect><path fill="#5e6175" d="M406.78,222.61H378.94V145h27.84Zm-21.84-6h15.84V151H384.94Z"></path><rect width="21.84" height="23.2" x="424.17" y="196.4" fill="#a9afc4"></rect><path fill="#5e6175" d="M449,222.61H421.17V193.4H449Zm-21.84-6H443V199.4H427.17Z"></path><rect width="126.89" height="6" x="329.38" y="216.61" fill="#5e6175"></rect><rect width="19.13" height="19.13" x="331.45" y="250.6" fill="#dee1ec"></rect><rect width="19.13" height="19.13" x="331.45" y="292.64" fill="#dee1ec"></rect><path fill="#5e6175" d="M353.58 272.74H328.45V247.6h25.13zm-19.13-6h13.13V253.6H334.45zM353.58 314.77H328.45V289.64h25.13zm-19.13-6h13.13V295.64H334.45z"></path><rect width="13.74" height="6" x="371.01" y="247.6" fill="#5e6175"></rect><rect width="56.83" height="6" x="396.91" y="247.6" fill="#5e6175"></rect><rect width="13.74" height="6" x="371.01" y="266.74" fill="#5e6175"></rect><rect width="56.83" height="6" x="396.91" y="266.74" fill="#5e6175"></rect><rect width="13.74" height="6" x="371.01" y="289.64" fill="#5e6175"></rect><rect width="56.83" height="6" x="396.91" y="289.64" fill="#5e6175"></rect><rect width="13.74" height="6" x="371.01" y="308.77" fill="#5e6175"></rect><rect width="56.83" height="6" x="396.91" y="308.77" fill="#5e6175"></rect><path fill="#f5f5f5" d="M137.48,123.58l6.86,22.17-22.17-6.87a50.54,50.54,0,1,1,15.31-15.3Z"></path><path fill="#5e6175" d="M148.89,150.3l-26.3-8.15A53.54,53.54,0,1,1,140.75,124ZM94.9,48.75a47.56,47.56,0,1,0,25.65,87.61l1.17-.76,18.07,5.6-5.59-18.07L135,122a47.82,47.82,0,0,0-6.42-59.28A47.26,47.26,0,0,0,94.9,48.75Z"></path><path fill="#e1830e" d="M89.14,107.54a24,24,0,0,1,10-19,8.13,8.13,0,1,0-12.86-7.11H75.77a18.62,18.62,0,1,1,29.47,15.62,13.49,13.49,0,0,0-5.61,10.46Z"></path><rect width="10.53" height="10.53" x="89.01" y="117.41" fill="#e1830e"></rect><path fill="#5e6175" d="M210.92 75.67h0a11.53 11.53 0 1120.29 6.49A11.52 11.52 0 01210.92 75.67zm11.49-6.49a5.53 5.53 0 00-5.52 6h0a5.53 5.53 0 105.52-6zM267.84 126.38h0a8.93 8.93 0 1115.71 5A8.93 8.93 0 01267.84 126.38zm6-.5a2.92 2.92 0 102.67-3.16 2.93 2.93 0 00-2.67 3.16z"></path><rect width="6" height="19.37" x="422.09" y="369.8" fill="#5e6175"></rect><rect width="6" height="19.37" x="447.41" y="362.84" fill="#5e6175" transform="rotate(-45 450.414 372.522)"></rect><rect width="19.37" height="6" x="390.55" y="370.73" fill="#5e6175" transform="rotate(-45 400.233 373.728)"></rect><path fill="#a9afc4" d="M38.81,317.59l-5.62-2.11a31.5,31.5,0,0,1,3.19-5.86l5,3.31A26.19,26.19,0,0,0,38.81,317.59Zm8.53-12L43,301.44c1.43-1.47,3-2.91,4.59-4.29l3.89,4.57C50,303,48.64,304.29,47.34,305.63Zm11.89-9.52L56.07,291c1.74-1.08,3.58-2.11,5.45-3.07l2.72,5.35C62.52,294.17,60.83,295.12,59.23,296.11Zm14-6.8-2.34-5.53,5.52-2.34L78.7,287Zm14.73-6.24-2.34-5.53,5.53-2.33,2.34,5.52Zm14.74-6.24-2.34-5.52,5.52-2.34,2.34,5.52Z"></path></g></svg>