<svg xmlns="http://www.w3.org/2000/svg" xmlns:xlink="http://www.w3.org/1999/xlink" viewBox="0 0 512 512" id="broken-package"><defs><linearGradient id="a" x1="252.84" x2="252.84" y1="420.3" y2="82.92" gradientUnits="userSpaceOnUse"><stop offset="0" stop-color="#cacfdd"></stop><stop offset="1" stop-color="#eef0f1"></stop></linearGradient><linearGradient xlink:href="#a" id="c" x1="168.83" x2="419.14" y1="201.28" y2="201.28"></linearGradient><linearGradient xlink:href="#a" id="d" x1="345.97" x2="419.14" y1="162.63" y2="162.63"></linearGradient><linearGradient xlink:href="#a" id="e" x1="86.01" x2="167.4" y1="375.17" y2="375.17"></linearGradient><linearGradient id="b" x1="409.15" x2="457.5" y1="119.12" y2="119.12" gradientUnits="userSpaceOnUse"><stop offset="0" stop-color="#a9afc4"></stop><stop offset="1" stop-color="#d4d8e5"></stop></linearGradient><linearGradient xlink:href="#b" id="f" x1="381.16" x2="450.69" y1="128.49" y2="128.49"></linearGradient><linearGradient xlink:href="#b" id="g" x1="419.01" x2="419.01" y1="76.49" y2="116.61"></linearGradient></defs><g><path fill="url(#a)" d="M419.67,394.34v22.28H86V342.43a26.64,26.64,0,0,1,7.81-18.84L109.41,308a26.65,26.65,0,0,1,0-37.68l14.93-14.93-26.6-26.6A26.67,26.67,0,0,1,89.94,210V102.36h93.87a88.32,88.32,0,0,1,41.65,10.45l42.12,22.55,50.62-17.77H419.14V337.16a22.81,22.81,0,0,1-6.67,16.12l-12.21,12.21L413,378.24A22.78,22.78,0,0,1,419.67,394.34Z"></path><path fill="url(#c)" d="M419.14,117.59V300.23H400.2a30.35,30.35,0,0,1-21.46-8.89l-28.65-28.65a30.35,30.35,0,0,0-21.46-8.89H299a30.33,30.33,0,0,1-21.45-8.89l-4.61-4.6a30.33,30.33,0,0,0-21.45-8.89H216.63a30.34,30.34,0,0,1-21.45-8.88l-17.46-17.46a30.35,30.35,0,0,1-8.89-21.46V102.36c15.72,0,24.09-.54,37.07,2.82a87.53,87.53,0,0,1,19.56,7.63l42.12,22.55,50.62-17.77Z" style="mix-blend-mode:multiply"></path><path fill="url(#d)" d="M419.14,150.54v56.11l-3.21,1-5-1.57C372.08,193.91,346,160.86,346,123.87v-6.28h51.27v6.28c0,11.22,7.16,22,18.69,28.75C417,152,418.11,151.28,419.14,150.54Z" style="mix-blend-mode:multiply"></path><path fill="url(#e)" d="M167,416.61H86V342.43a26.46,26.46,0,0,1,1.41-8.54C133.64,330.72,171.87,370.59,167,416.61Z" style="mix-blend-mode:multiply"></path><path fill="#e08326" d="M299.78,124.05v65.63l-15.62-11.09-15.65,11.09L252.9,178.59l-15.65,11.09-15.69-11.09L205.9,189.68v-84.5a87.53,87.53,0,0,1,19.56,7.63l42.12,22.55Z"></path><path fill="#5e6175" d="M422.67,419.62H83V342.43a29.48,29.48,0,0,1,8.69-21l13.58-13.58a29.65,29.65,0,0,1,2-39.7l12.81-12.8L95.62,230.91a29.44,29.44,0,0,1-8.68-21V99.36h96.87a91.41,91.41,0,0,1,43.06,10.8l41,21.93,49.86-17.5H422.14V337.16a26,26,0,0,1-7.55,18.24L404.5,365.49l10.61,10.63a25.61,25.61,0,0,1,7.56,18.22ZM89,413.62H416.67V394.34a19.64,19.64,0,0,0-5.8-14L396,365.49l14.34-14.33a20,20,0,0,0,5.79-14V120.59H318.71l-51.39,18L224,115.45a85.36,85.36,0,0,0-40.23-10.09H92.94V210a23.51,23.51,0,0,0,6.92,16.72l28.72,28.72-17.05,17.05a23.64,23.64,0,0,0,0,33.44l2.11,2.12L95.94,325.71A23.5,23.5,0,0,0,89,342.43Z"></path><polygon fill="#5e6175" points="111.53 310.12 107.29 305.88 127.17 286.01 147.85 286.01 152.11 281.74 156.35 285.99 150.33 292.01 129.65 292.01 111.53 310.12"></polygon><polygon fill="#5e6175" points="325.49 378.4 305.96 378.4 305.96 372.4 323 372.4 344.72 350.69 389.69 350.69 402.38 363.37 398.13 367.61 387.21 356.69 347.2 356.69 325.49 378.4"></polygon><circle cx="92.27" cy="408.85" r="59.03" fill="#f5f5f5"></circle><path fill="#5e6175" d="M92.27,470.88a62,62,0,1,1,62-62A62.1,62.1,0,0,1,92.27,470.88Zm0-118.06a56,56,0,1,0,56,56A56.09,56.09,0,0,0,92.27,352.82Z"></path><path fill="#e1830e" d="M66.55 424.27A16.55 16.55 0 1098.16 416C97.51 414.56 83 392.09 83 392.09c-4.23 6.56-11.1 17.23-15.14 24A16.41 16.41 0 0066.55 424.27zM104.87 402.56A8.27 8.27 0 00113 390.93c-.32-.73-7.56-12-7.56-12-.38.59-7.7 12-7.56 12A8.29 8.29 0 00104.87 402.56z"></path><path fill="url(#b)" d="M450.69,107.58v16.29a45.91,45.91,0,0,1-9.8,27.9l-9.44-9.43V108.75l-22.3-22.29h17.33Z"></path><path fill="#f5f5f5" d="M469.79,110.05v13.82a65.18,65.18,0,0,1-15.3,41.52l-13.6-13.62a45.91,45.91,0,0,0,9.8-27.9V107.58l2.81,2.47Z"></path><path fill="#5e6175" d="M454.7,169.85l-26.25-26.27V110L401.91,83.46h25.7l27,23.59h18.16v16.82c0,15.7-5.53,30.72-16,43.42Zm-20.25-28.76,19.77,19.78a61.45,61.45,0,0,0,12.57-37V113.05H452.38l-27-23.59h-9l18.05,18.05Z"></path><path fill="url(#f)" d="M431.45,108.76l-22.3-22.3H387.33l-6.17,2v35.44c0,19.84,13.74,38,34.77,46.66a60,60,0,0,0,25-18.75l-9.44-9.44Z"></path><path fill="#f5f5f5" d="M415.93,170.53c-21-8.67-34.77-26.82-34.77-46.66V88.43l6.17-2H362.06v37.41c0,30,21.49,56.78,53.69,66.88.21.07.13.07.35,0a80.65,80.65,0,0,0,38.4-25.36l-13.61-13.61A60,60,0,0,1,415.93,170.53Z"></path><polygon fill="#f5f5f5" points="415.92 57.26 362.06 74.44 362.06 86.43 387.33 86.43 415.92 77.31 450.69 88.39 450.69 107.58 453.51 110.04 469.79 110.04 469.79 74.44 415.92 57.26"></polygon><path fill="url(#g)" d="M415.92,77.31l-28.59,9.12h39.1l24.26,21.15V88.39Z"></path><path fill="#f5f5f5" d="M440.89,151.77a46.55,46.55,0,0,1-3,3.61C438.94,154.22,439.94,153,440.89,151.77Z"></path><polygon fill="#5e6175" points="448.71 109.84 425.31 89.43 387.33 89.43 387.33 83.43 427.56 83.43 452.66 105.32 448.71 109.84"></polygon><polygon fill="#5e6175" points="472.79 113.04 452.38 113.04 448.71 109.84 452.66 105.32 454.63 107.04 466.79 107.04 466.79 76.63 415.92 60.41 365.06 76.63 365.06 86.43 359.06 86.43 359.06 72.25 415.92 54.11 472.79 72.25 472.79 113.04"></polygon><path fill="#5e6175" d="M415.92 194c-36.85-11.53-56.86-40.78-56.86-70.08V72.25l5.7-1.82 14.4 13h31.23l24.06 24.05v33.58l24.1 24.1-1.73 2.11C446 180.43 432.07 188.9 415.92 194zM365.06 78.8v45.07c0 28.39 20.41 53.94 50.86 63.79a77.84 77.84 0 0034.5-22.11l-22-22V110L407.91 89.46H376.85zM88.55 73.25a11.14 11.14 0 1119.78-5.67A11.16 11.16 0 0188.55 73.25zm8.71-12.07a5.14 5.14 0 105.11 5.72A5.15 5.15 0 0097.26 61.18zM55.74 111.15a8.65 8.65 0 1115.36-4.4A8.66 8.66 0 0155.74 111.15zm6.77-8a2.65 2.65 0 102.63 2.95A2.66 2.66 0 0062.51 103.12z"></path><rect width="6" height="16.34" x="434.41" y="424.73" fill="#5e6175" transform="rotate(-45 437.424 432.903)"></rect><rect width="16.34" height="6" x="440.2" y="410.64" fill="#5e6175"></rect><rect width="6" height="16.34" x="416.14" y="436.13" fill="#5e6175"></rect><path fill="#a9afc4" d="M147.46,472.51l-4-4.48c1.43-1.28,2.84-2.62,4.17-4L152,468.2C150.52,469.68,149,471.13,147.46,472.51Zm11.23-12.19-4.8-3.6c1.16-1.54,2.26-3.14,3.27-4.74l5.07,3.2C161.13,456.92,159.94,458.65,158.69,460.32Zm8.47-13.57-4.81-3.58a23.37,23.37,0,0,1,4.84-4.84l3.58,4.81A17.65,17.65,0,0,0,167.16,446.75Zm11.38-6.8-.82-5.94a43.08,43.08,0,0,1,6.4-.21v6A41,41,0,0,0,178.54,440Zm69.58-.15h-6v-6h6Zm-16,0h-6v-6h6Zm-16,0h-6v-6h6Zm-16,0h-6v-6h6Z"></path><path fill="#5e6175" d="M354.7 58.18a11.14 11.14 0 00-11-11 17 17 0 01-16.95-16.95h6a11 11 0 0011 11 17 17 0 0116.95 17zM300.57 79.4a11.13 11.13 0 00-15.49 0l-4.23-4.25a17 17 0 0124 0 11 11 0 0015.49 0 17 17 0 0124 0L340 79.41a11.14 11.14 0 00-15.5 0A16.94 16.94 0 01300.57 79.4z"></path></g></svg>