<svg xmlns="http://www.w3.org/2000/svg" xmlns:xlink="http://www.w3.org/1999/xlink" viewBox="0 0 512 512" id="calculator"><defs><linearGradient id="a" x1="134.49" x2="324.06" y1="100.84" y2="100.84" gradientUnits="userSpaceOnUse"><stop offset="0" stop-color="#cacfdd"></stop><stop offset="1" stop-color="#eef0f1"></stop></linearGradient><linearGradient xlink:href="#a" id="b" x1="287.18" x2="364.46" y1="375.05" y2="375.05"></linearGradient></defs><g style="isolation:isolate"><rect width="270.37" height="358.3" x="94.09" y="55.24" fill="#f5f5f5" rx="33.41"></rect><rect width="189.57" height="67.31" x="134.49" y="90.61" fill="#a9afc4" rx="9.48"></rect><path fill="#a9afc4" d="M324.06,100.09v48.35a9.48,9.48,0,0,1-9.49,9.47H144a9.48,9.48,0,0,1-9.48-9.47V100.09A9.48,9.48,0,0,1,144,90.61h170.6A9.48,9.48,0,0,1,324.06,100.09Z"></path><rect width="50.06" height="50.06" x="134.49" y="187.02" fill="#5e6175" rx="10.28"></rect><rect width="50.06" height="50.06" x="204.24" y="187.02" fill="#5e6175" rx="10.28"></rect><rect width="50.06" height="50.06" x="274" y="187.02" fill="#5e6175" rx="10.28"></rect><rect width="50.06" height="50.06" x="134.49" y="256.75" fill="#5e6175" rx="10.28"></rect><rect width="50.06" height="50.06" x="204.24" y="256.75" fill="#5e6175" rx="10.28"></rect><rect width="50.06" height="50.06" x="134.49" y="326.48" fill="#5e6175" rx="10.28"></rect><rect width="50.06" height="50.06" x="204.24" y="326.48" fill="#5e6175" rx="10.28"></rect><rect width="50.06" height="119.79" x="273.99" y="256.75" fill="#e1830e" rx="10.28"></rect><path fill="url(#a)" d="M324.06,100.09v11H134.49v-11A9.48,9.48,0,0,1,144,90.61h170.6A9.48,9.48,0,0,1,324.06,100.09Z" style="mix-blend-mode:multiply"></path><path fill="url(#b)" d="M364.46,336.56v43.57a33.4,33.4,0,0,1-33.41,33.4H287.18A77.43,77.43,0,0,1,364.46,336.56Z" style="mix-blend-mode:multiply"></path><path fill="#5e6175" d="M331.05,416.54H127.49a36.44,36.44,0,0,1-36.4-36.41V88.64a36.44,36.44,0,0,1,36.4-36.4H331.05a36.44,36.44,0,0,1,36.41,36.4V380.13A36.45,36.45,0,0,1,331.05,416.54ZM127.49,58.24a30.44,30.44,0,0,0-30.4,30.4V380.13a30.44,30.44,0,0,0,30.4,30.41H331.05a30.44,30.44,0,0,0,30.41-30.41V88.64a30.44,30.44,0,0,0-30.41-30.4Z"></path><circle cx="364.53" cy="413.92" r="62.08" fill="#f5f5f5"></circle><path fill="#5e6175" d="M364.53,479a65.08,65.08,0,1,1,65.08-65.08A65.15,65.15,0,0,1,364.53,479Zm0-124.16a59.08,59.08,0,1,0,59.08,59.08A59.15,59.15,0,0,0,364.53,354.84Z"></path><rect width="52.68" height="14.33" x="337.71" y="391.54" fill="#e1830e"></rect><rect width="52.68" height="14.33" x="337.71" y="421.98" fill="#e1830e"></rect><path fill="#5e6175" d="M439.9 369.8A13.36 13.36 0 01427.68 351a13.22 13.22 0 017.4-7 13.35 13.35 0 114.82 25.81zm-6.74-16.34a7.35 7.35 0 1013.57.36A7.37 7.37 0 00433.16 353.46zM395 333a9.68 9.68 0 119-13.15A9.69 9.69 0 01395 333zm0-13.36a3.68 3.68 0 101.34 7.11h0a3.68 3.68 0 00-1.34-7.11z"></path><rect width="17.46" height="6" x="73.95" y="418.52" fill="#5e6175" transform="rotate(-45 82.677 421.514)"></rect><rect width="6" height="17.46" x="100.25" y="424.49" fill="#5e6175"></rect><rect width="17.46" height="6" x="61.78" y="399.01" fill="#5e6175"></rect><path fill="#a9afc4" d="M76.61,109.17h-6v-6h6Zm0-16h-6c0-3.13,0-4.38.06-6.15l6,.3C76.59,88.82,76.61,89.39,76.61,93.17ZM78,78l-5.84-1.39A58.71,58.71,0,0,1,74,70.52l5.65,2A48.89,48.89,0,0,0,78,78Zm5.63-14L78.45,61A56,56,0,0,1,82,55.72l4.79,3.6A52.79,52.79,0,0,0,83.62,64ZM93.1,52.34l-4-4.43a58.52,58.52,0,0,1,4.89-4l3.54,4.85A50,50,0,0,0,93.1,52.34Zm12.48-8.42L103,38.5a59.54,59.54,0,0,1,5.86-2.4l2,5.67A51.74,51.74,0,0,0,105.58,43.92ZM120,39.54l-.87-5.93a55,55,0,0,1,6.3-.57l.21,6A52.75,52.75,0,0,0,120,39.54ZM189.5,39h-6V33h6Zm-16,0h-6V33h6Zm-16,0h-6V33h6Zm-16,0h-6V33h6Z"></path><rect width="27.31" height="6" x="145.87" y="278.78" fill="#a9afc4"></rect><rect width="27.31" height="6" x="215.62" y="278.78" fill="#a9afc4"></rect><rect width="6" height="27.31" x="156.52" y="268.12" fill="#a9afc4"></rect><rect width="27.31" height="6" x="215.62" y="348.51" fill="#a9afc4"></rect><rect width="6" height="27.31" x="156.52" y="337.85" fill="#a9afc4" transform="rotate(-45 159.518 351.505)"></rect><rect width="27.31" height="6" x="145.87" y="348.51" fill="#a9afc4" transform="rotate(-45 159.518 351.505)"></rect><circle cx="229.27" cy="341.17" r="3.32" fill="#a9afc4"></circle><circle cx="229.27" cy="361.84" r="3.32" fill="#a9afc4"></circle></g></svg>