<svg xmlns="http://www.w3.org/2000/svg" xmlns:xlink="http://www.w3.org/1999/xlink" viewBox="0 0 512 512" id="calendar"><defs><linearGradient id="a" x1="332.94" x2="413.17" y1="363.82" y2="363.82" gradientUnits="userSpaceOnUse"><stop offset="0" stop-color="#cacfdd"></stop><stop offset="1" stop-color="#eef0f1"></stop></linearGradient><linearGradient xlink:href="#a" id="b" x1="133.11" x2="133.11" y1="97.31" y2="157.02"></linearGradient><linearGradient xlink:href="#a" id="c" x1="204.89" x2="204.89" y1="97.31" y2="157.02"></linearGradient><linearGradient xlink:href="#a" id="d" x1="276.67" x2="276.67" y1="97.31" y2="157.02"></linearGradient><linearGradient xlink:href="#a" id="e" x1="348.45" x2="348.45" y1="97.31" y2="157.02"></linearGradient></defs><g style="isolation:isolate"><path fill="#f5f5f5" d="M393.2,412.8H92.82a20,20,0,0,1-20-20V157.87H413.18v235A20,20,0,0,1,393.2,412.8Z"></path><path fill="#5e6175" d="M393.2,415.8H92.82a23,23,0,0,1-23-23V154.87H416.18v238A23,23,0,0,1,393.2,415.8ZM75.84,160.87v232a17,17,0,0,0,17,17H393.2a17,17,0,0,0,17-17V160.87Z"></path><path fill="url(#a)" d="M413.17,314.85v79.2a18.75,18.75,0,0,1-18.75,18.76H335.33c-12.41-49.49,25.25-98,76.58-98C412.34,314.83,412.76,314.83,413.17,314.85Z" style="mix-blend-mode:multiply"></path><path fill="#a9afc4" d="M413.17,122.11v35.76H72.85V122.11A18.74,18.74,0,0,1,91.6,103.36H394.42A18.74,18.74,0,0,1,413.17,122.11Z"></path><path fill="url(#b)" d="M158.38,103.36V120a25.28,25.28,0,0,1-50.55,0v-16.6Z" style="mix-blend-mode:multiply"></path><path fill="url(#c)" d="M230.16,103.36V120a25.28,25.28,0,0,1-50.55,0v-16.6Z" style="mix-blend-mode:multiply"></path><path fill="url(#d)" d="M301.94,103.36V120a25.27,25.27,0,1,1-50.54,0v-16.6Z" style="mix-blend-mode:multiply"></path><path fill="url(#e)" d="M373.73,103.36V120a25.28,25.28,0,0,1-50.56,0v-16.6Z" style="mix-blend-mode:multiply"></path><path fill="#5e6175" d="M416.18,160.87H69.84V123.33a23,23,0,0,1,23-23H393.2a23,23,0,0,1,23,23Zm-340.34-6H410.18V123.33a17,17,0,0,0-17-17H92.82a17,17,0,0,0-17,17Z"></path><path fill="#f5f5f5" d="M133.11 130.4A10.44 10.44 0 01122.66 120V88a10.45 10.45 0 1120.89 0v32A10.44 10.44 0 01133.11 130.4zM204.89 130.4A10.45 10.45 0 01194.44 120V88a10.45 10.45 0 1120.89 0v32A10.43 10.43 0 01204.89 130.4zM276.67 130.4A10.44 10.44 0 01266.23 120V88a10.44 10.44 0 1120.88 0v32A10.43 10.43 0 01276.67 130.4zM348.45 130.4A10.44 10.44 0 01338 120V88a10.44 10.44 0 1120.88 0v32A10.43 10.43 0 01348.45 130.4z"></path><path fill="#5e6175" d="M133.11 133.4A13.46 13.46 0 01119.66 120V88a13.45 13.45 0 1126.89 0v32A13.46 13.46 0 01133.11 133.4zm0-52.87A7.46 7.46 0 00125.66 88v32a7.45 7.45 0 0014.89 0V88A7.45 7.45 0 00133.11 80.53zM204.89 133.4A13.46 13.46 0 01191.45 120V88a13.44 13.44 0 1126.88 0v32A13.46 13.46 0 01204.89 133.4zm0-52.87A7.45 7.45 0 00197.45 88v32a7.44 7.44 0 0014.88 0V88A7.45 7.45 0 00204.89 80.53zM276.67 133.4A13.46 13.46 0 01263.23 120V88a13.44 13.44 0 1126.88 0v32A13.46 13.46 0 01276.67 133.4zm0-52.87A7.45 7.45 0 00269.23 88v32a7.44 7.44 0 1014.88 0V88A7.45 7.45 0 00276.67 80.53zM348.45 133.4A13.46 13.46 0 01335 120V88a13.44 13.44 0 1126.88 0v32A13.46 13.46 0 01348.45 133.4zm0-52.87A7.45 7.45 0 00341 88v32a7.44 7.44 0 1014.88 0V88A7.45 7.45 0 00348.45 80.53z"></path><circle cx="411.91" cy="393.75" r="64.09" fill="#f5f5f5"></circle><path fill="#5e6175" d="M411.91,460.84A67.09,67.09,0,1,1,479,393.75,67.17,67.17,0,0,1,411.91,460.84Zm0-128.18A61.09,61.09,0,1,0,473,393.75,61.17,61.17,0,0,0,411.91,332.66Z"></path><rect width="6" height="19.07" x="55.32" y="80.59" fill="#5e6175" transform="rotate(-45 58.312 90.127)"></rect><rect width="19.07" height="6" x="36" y="109.59" fill="#5e6175"></rect><rect width="6" height="19.07" x="76.63" y="67.29" fill="#5e6175"></rect><path fill="#5e6175" d="M397.85 73.1a11 11 0 01-4.43-21h0a11 11 0 114.43 21zm-2-15.52a5 5 0 106.63 6.36 5 5 0 00-6.63-6.36zM454.44 127.67a8.53 8.53 0 117.79-12A8.54 8.54 0 01454.44 127.67zm-1-10.85h0a2.53 2.53 0 103.38 3.24A2.53 2.53 0 00453.4 116.82z"></path><path fill="#e1830e" d="M439.85,395.15c9.14-11.35,1.08-28.43-13.62-28.43a17.45,17.45,0,0,0-14.31,7.47c-11.69-14.63-31.81-5.85-31.81,10a19.59,19.59,0,0,0,4,11.17l27.77,33.31Z"></path><path fill="#e08326" d="M211.34,186.59v-8.75H172.86V234.2h8.75V210.4h29.73v-8.75H181.61V186.59Z"></path><polygon fill="#e08326" points="262.18 186.59 262.18 177.84 223.7 177.84 223.7 234.2 262.18 234.2 262.18 225.45 232.44 225.45 232.44 210.4 253.4 210.39 253.4 201.65 232.44 201.65 232.44 186.59 262.18 186.59"></polygon><path fill="#e08326" d="M283,201.65V186.59h13.45a7.53,7.53,0,1,1,0,15.06Zm13.45-23.81h-22.2V234.2H283V210.4h13.45a16.28,16.28,0,1,0,0-32.56Z"></path><path fill="#e08326" d="M304.6,225.45H283v-15H304.6a7.53,7.53,0,1,1,0,15Zm0-23.8H274.27V234.2H304.6a16.28,16.28,0,1,0,0-32.55Z"></path><polygon fill="#e1830e" points="186.17 389.8 186.17 292.23 176.5 303.31 159.59 289.03 185 260.75 207.59 260.75 207.59 389.8 186.17 389.8"></polygon><path fill="#e1830e" d="M286.85,389.8V338.08H227.42V317.52c16.39-15.61,4.53-4.18,58.84-56.77h22V389.8Zm0-72.28V289.33l-29.41,28.19Z"></path><path fill="#a9afc4" d="M151.47,439.94h-6v-6h6Zm-16,0h-6v-6h6Zm-16,0h-6v-6h6Zm-16,0h-6v-6h6Zm-16.39-.48a48.76,48.76,0,0,1-6.25-1.28l1.57-5.79a44.7,44.7,0,0,0,5.5,1.13Zm-16.14-5.13A50.36,50.36,0,0,1,65.48,431l3.41-4.93A45,45,0,0,0,73.7,429Zm-13.5-10.2a50.33,50.33,0,0,1-4.08-4.91l4.85-3.53A44.93,44.93,0,0,0,61.8,420ZM48.05,410a51,51,0,0,1-2.21-6l5.75-1.72a43.28,43.28,0,0,0,1.95,5.27ZM43.9,393.61c-.18-2.32-.15-3.81-.15-6.23h6c0,2.34,0,3.69.13,5.76Zm5.85-16.23h-6v-6h6Z"></path></g></svg>