<svg xmlns="http://www.w3.org/2000/svg" xmlns:xlink="http://www.w3.org/1999/xlink" viewBox="0 0 512 512" id="calendar"><defs><linearGradient id="a" x1="265.06" x2="265.06" y1="440.46" y2="189.5" gradientUnits="userSpaceOnUse"><stop offset="0" stop-color="#cacfdd"></stop><stop offset="1" stop-color="#eef0f1"></stop></linearGradient><linearGradient xlink:href="#a" id="b" x1="219.34" x2="219.34" y1="121.89" y2="184.76"></linearGradient><linearGradient xlink:href="#a" id="c" x1="292.94" x2="292.94" y1="121.89" y2="184.76"></linearGradient><linearGradient xlink:href="#a" id="d" x1="366.54" x2="366.54" y1="121.89" y2="184.76"></linearGradient></defs><g style="isolation:isolate"><polygon fill="#dee1ec" points="120.71 126.39 91.78 430.01 438.34 430.01 406.82 126.39 120.71 126.39"></polygon><polygon fill="url(#a)" points="120.71 126.39 91.78 430.01 438.34 430.01 406.82 126.39 120.71 126.39" style="mix-blend-mode:multiply"></polygon><path fill="#5e6175" d="M441.67,433H149.53L117.38,123.39H409.53Zm-286.73-6H435l-30.9-297.62H124Z"></path><path fill="#5e6175" d="M120.71,126.39,152.23,430H438.34L406.82,126.39Z"></path><path fill="#5e6175" d="M441.67,433H88.48L118,123.39H409.53ZM95.08,427H435l-30.9-297.62H123.44Z"></path><rect width="405.59" height="6" x="36" y="427.01" fill="#5e6175"></rect><polygon fill="#a9afc4" points="432.51 200.78 146.4 200.78 138.68 126.39 424.79 126.39 432.51 200.78"></polygon><path fill="url(#b)" d="M248,126.39c0,33.54-17.34,57.88-41.24,57.88a16,16,0,0,1-16-16V126.39Z" style="mix-blend-mode:multiply"></path><path fill="url(#c)" d="M321.56,126.39c0,33.54-17.34,57.88-41.24,57.88a16,16,0,0,1-16-16V126.39Z" style="mix-blend-mode:multiply"></path><path fill="url(#d)" d="M395.16,126.39c0,33.54-17.35,57.88-41.24,57.88a16,16,0,0,1-16-16V126.39Z" style="mix-blend-mode:multiply"></path><polygon fill="#f5f5f5" points="454.25 410.21 168.15 410.21 146.4 200.78 432.51 200.78 454.25 410.21"></polygon><path fill="#5e6175" d="M457.58,413.21H165.44L143.07,197.78H435.22Zm-286.73-6H450.93L429.81,203.78H149.73Z"></path><polygon fill="#a9afc4" points="259.88 389.64 259.03 381.52 206.72 381.52 207.57 389.64 259.88 389.64"></polygon><rect width="18.33" height="6" x="436.37" y="102.19" fill="#5e6175" transform="rotate(-45 445.533 105.194)"></rect><rect width="6" height="18.33" x="420.94" y="83.74" fill="#5e6175"></rect><rect width="18.33" height="6" x="449.15" y="122.67" fill="#5e6175"></rect><path fill="#5e6175" d="M83.73 157.69a13.36 13.36 0 1112.5-18.08A13.35 13.35 0 0183.73 157.69zm-6.88-10.76a7.36 7.36 0 109.92-9.3A7.35 7.35 0 0076.85 146.93zM112.05 92.78a10.19 10.19 0 1113.13 5.93A10.2 10.2 0 01112.05 92.78zm5.61-2.11a4.19 4.19 0 105.65-5.3A4.19 4.19 0 00117.66 90.67z"></path><path fill="#a9afc4" d="M463.28,431.89l-1.86-5.71a16.57,16.57,0,0,0,4.52-2.28l3.49,4.88A22.83,22.83,0,0,1,463.28,431.89Zm13.48-11.82-5.41-2.6a16.46,16.46,0,0,0,1.48-4.84l5.94.85A22.67,22.67,0,0,1,476.76,420.07Zm-4.52-16.63-.65-6,6-.65.65,6Zm-1.73-15.91-.65-6,6-.65.65,6Zm-1.74-15.91-.65-6,6-.65.65,6ZM467,355.72l-.65-6,6-.65.65,6Zm-1.73-15.91-.65-6,6-.65.65,6Zm-1.74-15.9-.65-6,6-.65.65,6ZM461.83,308l-.66-6,6-.65.65,6Z"></path><path fill="#5e6175" d="M435.84,203.78H143.7l-8.35-80.39H427.49Zm-286.73-6H429.18l-7.1-68.39H142Z"></path><path fill="#dee1ec" d="M206.72 168.27v-17.2c1.87-.29 8-8.55 8-24.68s-6.17-24.39-8-24.68c-1.85.29-8 8.54-8 24.68H181.48c0-23.88 10.85-41.88 25.24-41.88s25.24 18 25.24 41.88S221.11 168.27 206.72 168.27zM280.32 168.27v-17.2c1.86-.29 8-8.55 8-24.68s-6.18-24.39-8.05-24.68c-1.85.29-8 8.54-8 24.68h-17.2c0-23.88 10.85-41.88 25.24-41.88s25.24 18 25.24 41.88S294.71 168.27 280.32 168.27zM353.92 168.27v-17.2c1.86-.29 8-8.55 8-24.68s-6.18-24.39-8.06-24.68c-1.84.29-8 8.54-8 24.68h-17.2c0-23.88 10.85-41.88 25.24-41.88s25.24 18 25.24 41.88S368.31 168.27 353.92 168.27z"></path><path fill="#5e6175" d="M206.72 171.27h-3V148.5l2.09-.33c1.28-1.17 5.95-8 5.95-21.78 0-11.47-3.22-18.09-5-20.68-1.82 2.6-5 9.23-5 20.68v3H178.48v-3c0-25.59 12.14-44.88 28.24-44.88S235 100.8 235 126.39 222.82 171.27 206.72 171.27zm3-18.59v12.25c11-2.48 19.24-18.52 19.24-38.54 0-21.8-9.77-38.88-22.24-38.88-11.89 0-21.32 15.53-22.17 35.88h11.21c.7-14.44 6.36-24 10.49-24.64a1.57 1.57 0 01.91 0c4.43.67 10.6 11.52 10.6 27.64C217.76 139.57 213.64 149.22 209.72 152.68zM280.32 171.27h-3V148.49l2.09-.32c1.27-1.17 5.95-8 5.95-21.78 0-11.47-3.22-18.09-5-20.68-1.83 2.6-5 9.23-5 20.68v3h-23.2v-3c0-25.59 12.14-44.88 28.24-44.88s28.24 19.29 28.24 44.88S296.42 171.27 280.32 171.27zm3-18.59v12.25c11-2.48 19.24-18.52 19.24-38.54 0-21.8-9.77-38.88-22.24-38.88-11.89 0-21.33 15.53-22.18 35.88h11.22c.7-14.44 6.36-24 10.49-24.64a1.57 1.57 0 01.91 0c4.43.67 10.6 11.52 10.6 27.64C291.36 139.57 287.24 149.22 283.32 152.68zM353.92 171.27h-3V148.49l2.09-.32c1.27-1.17 5.95-8 5.95-21.78 0-11.47-3.22-18.09-5-20.68-1.82 2.6-5 9.23-5 20.68v3h-23.2v-3c0-25.59 12.14-44.88 28.24-44.88s28.24 19.29 28.24 44.88S370 171.27 353.92 171.27zm3-18.59v12.25c11-2.48 19.24-18.52 19.24-38.54 0-21.8-9.77-38.88-22.24-38.88-11.9 0-21.33 15.53-22.18 35.88H343c.7-14.44 6.36-24 10.49-24.64a1.6 1.6 0 01.92 0c4.42.67 10.6 11.52 10.6 27.64C365 139.57 360.84 149.22 356.92 152.68z"></path><polygon fill="#a9afc4" points="237.72 264.71 202.39 264.71 198.14 229.38 233.47 229.38 237.72 264.71"></polygon><polygon fill="#e1830e" points="290.09 264.71 254.77 264.71 250.52 229.38 285.84 229.38 290.09 264.71"></polygon><polygon fill="#e1830e" points="342.47 264.71 307.14 264.71 302.89 229.38 338.22 229.38 342.47 264.71"></polygon><polygon fill="#e1830e" points="394.84 264.71 359.52 264.71 355.27 229.38 390.6 229.38 394.84 264.71"></polygon><polygon fill="#a9afc4" points="243.83 315.54 208.5 315.54 204.25 280.21 239.58 280.21 243.83 315.54"></polygon><polygon fill="#e1830e" points="296.2 315.54 260.88 315.54 256.63 280.21 291.96 280.21 296.2 315.54"></polygon><polygon fill="#e1830e" points="348.58 315.54 313.25 315.54 309.01 280.21 344.33 280.21 348.58 315.54"></polygon><polygon fill="#e1830e" points="400.96 315.54 365.63 315.54 361.38 280.21 396.71 280.21 400.96 315.54"></polygon><polygon fill="#a9afc4" points="249.94 366.36 214.62 366.36 210.37 331.04 245.69 331.04 249.94 366.36"></polygon><polygon fill="#e1830e" points="302.32 366.36 266.99 366.36 262.74 331.04 298.07 331.04 302.32 366.36"></polygon><polygon fill="#e1830e" points="354.69 366.36 319.37 366.36 315.12 331.04 350.44 331.04 354.69 366.36"></polygon></g></svg>