<svg xmlns="http://www.w3.org/2000/svg" xmlns:xlink="http://www.w3.org/1999/xlink" viewBox="0 0 512 512" id="camera"><defs><linearGradient id="a" x1="230.13" x2="230.13" y1="557.46" y2="186.04" gradientUnits="userSpaceOnUse"><stop offset="0" stop-color="#cacfdd"></stop><stop offset="1" stop-color="#eef0f1"></stop></linearGradient><linearGradient id="b" x1="263.53" x2="566.5" y1="244.25" y2="244.25" gradientTransform="matrix(-1 0 0 1 465.72 0)" gradientUnits="userSpaceOnUse"><stop offset="0" stop-color="#a9afc4"></stop><stop offset="1" stop-color="#d4d8e5"></stop></linearGradient><linearGradient xlink:href="#a" id="c" x1="284.76" x2="388.36" y1="251" y2="251" gradientTransform="matrix(-1 0 0 1 465.72 0)"></linearGradient><linearGradient xlink:href="#a" id="d" x1="303.26" x2="382.91" y1="315.92" y2="315.92"></linearGradient><linearGradient xlink:href="#a" id="e" x1="77.36" x2="99.83" y1="251.91" y2="251.91"></linearGradient></defs><g style="isolation:isolate"><path fill="url(#a)" d="M77.36,169.73V334.1a17.05,17.05,0,0,0,17,17H365.86a17.06,17.06,0,0,0,17.05-17V169.73a17.06,17.06,0,0,0-17.05-17H348.69a17.52,17.52,0,0,1-14.17-7.21l-8.43-11.54a29.64,29.64,0,0,0-24-12.19H211.62a29.67,29.67,0,0,0-24,12.19l-8.42,11.54a17.54,17.54,0,0,1-14.17,7.21H94.41A17.05,17.05,0,0,0,77.36,169.73Z"></path><rect width="305.55" height="144.15" x="77.36" y="172.17" fill="url(#b)"></rect><circle cx="257.49" cy="244.25" r="68.35" fill="#f5f5f5"></circle><path fill="#5e6175" d="M257.49,315.6a71.35,71.35,0,1,1,71.35-71.35A71.43,71.43,0,0,1,257.49,315.6Zm0-136.7a65.35,65.35,0,1,0,65.35,65.35A65.42,65.42,0,0,0,257.49,178.9Z"></path><circle cx="257.49" cy="244.25" r="46.47" fill="#e1830e"></circle><circle cx="257.49" cy="244.25" r="19.3" fill="#5e6175"></circle><circle cx="272.03" cy="229.71" r="10.45" fill="#f5f5f5"></circle><path fill="#5e6175" d="M223.43,138.33h68.11A12,12,0,0,1,301,143L305.7,149a2.26,2.26,0,0,1-1.79,3.65H211.06a2.26,2.26,0,0,1-1.79-3.65L214,143A12,12,0,0,1,223.43,138.33Z"></path><path fill="url(#c)" d="M77.36,169.73V334.1a17.05,17.05,0,0,0,17,17h58.16A39.24,39.24,0,0,0,159.38,329V247.26c0-11,2.5-20.15,7.42-27.18A78.6,78.6,0,0,0,181,174.81a39.28,39.28,0,0,0-8.13-23.95,17.54,17.54,0,0,1-7.77,1.82H94.41A17.05,17.05,0,0,0,77.36,169.73Z" style="mix-blend-mode:multiply"></path><path fill="#a9afc4" d="M77.36,169.73V334.1a17.05,17.05,0,0,0,17,17H120A22.13,22.13,0,0,0,142.08,329V247.26c0-17.57,5.23-29.51,10.54-37.1a61.58,61.58,0,0,0,11-35.35,22.13,22.13,0,0,0-22.13-22.13H94.41A17.05,17.05,0,0,0,77.36,169.73Z"></path><path fill="#a9afc4" d="M163.66,174.81a61.58,61.58,0,0,1-11,35.35c-5.31,7.59-10.54,19.53-10.54,37.1V329A22.13,22.13,0,0,1,120,351.15H94.41a17.05,17.05,0,0,1-17-17V169.73a17.05,17.05,0,0,1,17-17h47.12A22.13,22.13,0,0,1,163.66,174.81Z"></path><rect width="20.37" height="20.37" x="335.52" y="296.17" fill="#f5f5f5" transform="rotate(180 345.705 306.355)"></rect><path fill="url(#d)" d="M382.91,280.69V334.1a17,17,0,0,1-17.05,17h-62.6V310.88a30.21,30.21,0,0,1,30.18-30.19Z" style="mix-blend-mode:multiply"></path><path fill="#5e6175" d="M106.62,135.39h38.94a0,0,0,0,1,0,0v7.36a9.93,9.93,0,0,1-9.93,9.93H116.55a9.93,9.93,0,0,1-9.93-9.93v-7.36A0,0,0,0,1,106.62,135.39Z" transform="rotate(180 126.09 144.04)"></path><path fill="#5e6175" d="M365.86,354.15H94.41a20.07,20.07,0,0,1-20-20V169.73a20.07,20.07,0,0,1,20-20h70.64a14.59,14.59,0,0,0,11.76-6l8.42-11.55a32.77,32.77,0,0,1,26.39-13.42h90.51a32.77,32.77,0,0,1,26.39,13.42l8.42,11.55a14.59,14.59,0,0,0,11.75,6h17.17a20.08,20.08,0,0,1,20.05,20V334.1A20.08,20.08,0,0,1,365.86,354.15ZM94.41,155.68a14.06,14.06,0,0,0-14,14V334.1a14.07,14.07,0,0,0,14,14H365.86a14.08,14.08,0,0,0,14.05-14V169.73a14.07,14.07,0,0,0-14.05-14H348.69a20.59,20.59,0,0,1-16.6-8.44l-8.42-11.55a26.76,26.76,0,0,0-21.54-11H211.62a26.76,26.76,0,0,0-21.54,11l-8.42,11.55a20.61,20.61,0,0,1-16.61,8.44Z"></path><rect width="130.49" height="112.1" x="317.66" y="295.1" fill="#f5f5f5" rx="15.78"></rect><path fill="#5e6175" d="M432.37,410.2H333.44a18.8,18.8,0,0,1-18.78-18.78V310.87a18.79,18.79,0,0,1,18.78-18.77h98.93a18.79,18.79,0,0,1,18.78,18.77v80.55A18.8,18.8,0,0,1,432.37,410.2ZM333.44,298.1a12.79,12.79,0,0,0-12.78,12.77v80.55a12.8,12.8,0,0,0,12.78,12.78h98.93a12.8,12.8,0,0,0,12.78-12.78V310.87a12.79,12.79,0,0,0-12.78-12.77Z"></path><circle cx="401.54" cy="329.45" r="8.17" fill="#e1830e"></circle><path fill="#e1830e" d="M436.44,360.38v31a4.08,4.08,0,0,1-4.07,4.08H333.44a4.08,4.08,0,0,1-4.08-4.08V360.07l34-34,39.09,39.08,19.35-19.35Z"></path><rect width="16.73" height="6" x="447.61" y="274.85" fill="#5e6175" transform="rotate(-45 455.97 277.851)"></rect><rect width="6" height="16.73" x="433.26" y="258.27" fill="#5e6175"></rect><rect width="16.73" height="6" x="459.27" y="293.54" fill="#5e6175"></rect><path fill="#5e6175" d="M78.48 121.78a11.9 11.9 0 1120.63-7.62h0A11.92 11.92 0 0178.48 121.78zm8.74-14a5.9 5.9 0 105.9 6.13A5.91 5.91 0 0087.22 107.8zM42.18 161.21a9.18 9.18 0 119.18-8.82A9.13 9.13 0 0142.18 161.21zm0-12.36a3.18 3.18 0 103.18 3.3A3.18 3.18 0 0042.18 148.85z"></path><path fill="#a9afc4" d="M295,410.2h-6v-6h6Zm-16,0h-6v-6h6Zm-16,0h-6v-6h6Zm-16,0h-6v-6h6Zm-16,0h-6v-6h6Zm-16,0h-6v-6h6Zm-16,0h-6v-6h6Zm-16,0h-6v-6h6Zm-16,0h-6v-6h6Zm-16,0h-6v-6h6Zm-16.26-.11a28.6,28.6,0,0,1-6.55-1.37l1.9-5.68a23.29,23.29,0,0,0,5.17,1.07Zm-16.19-6.87a28.9,28.9,0,0,1-4.51-4.93l4.87-3.51a22.45,22.45,0,0,0,3.57,3.91Zm-9.11-15a28.36,28.36,0,0,1-.76-6.57l6-.06a22.7,22.7,0,0,0,.6,5.26Zm5.24-16.63h-6v-6h6Z"></path><path fill="#e1830e" d="M390.27,129.73a20.1,20.1,0,0,1,20.09,20.09,20.09,20.09,0,0,1,20.08-20.09,20.08,20.08,0,0,1-20.08-20.08A20.09,20.09,0,0,1,390.27,129.73Z"></path><path fill="url(#e)" d="M99.83,152.68V351.15H94.41a17.05,17.05,0,0,1-17-17V169.73a17.05,17.05,0,0,1,17-17Z" style="mix-blend-mode:multiply"></path><path fill="#5e6175" d="M120,354.15H94.41a20.07,20.07,0,0,1-20-20V169.73a20.07,20.07,0,0,1,20-20h47.12a25.16,25.16,0,0,1,25.13,25.13,64.29,64.29,0,0,1-11.58,37.07c-4.56,6.52-10,18-10,35.38V329A25.16,25.16,0,0,1,120,354.15ZM94.41,155.68a14.06,14.06,0,0,0-14,14V334.1a14.07,14.07,0,0,0,14,14H120A19.16,19.16,0,0,0,139.08,329V247.26c0-19,6-31.59,11.08-38.82a58.29,58.29,0,0,0,10.5-33.63,19.15,19.15,0,0,0-19.13-19.13Z"></path></g></svg>