<svg xmlns="http://www.w3.org/2000/svg" xmlns:xlink="http://www.w3.org/1999/xlink" viewBox="0 0 512 512" id="cargo-container"><defs><linearGradient id="a" x1="128.22" x2="128.22" y1="373.37" y2="219.19" gradientUnits="userSpaceOnUse"><stop offset="0" stop-color="#a9afc4"></stop><stop offset="1" stop-color="#d4d8e5"></stop></linearGradient><linearGradient xlink:href="#a" id="b" x1="187.66" x2="187.66" y1="373.37" y2="219.19"></linearGradient><linearGradient xlink:href="#a" id="c" x1="247.1" x2="247.1" y1="373.37" y2="219.19"></linearGradient><linearGradient xlink:href="#a" id="d" x1="306.53" x2="306.53" y1="373.37" y2="219.19"></linearGradient><linearGradient xlink:href="#a" id="e" x1="365.97" x2="365.97" y1="373.37" y2="219.19"></linearGradient><linearGradient id="f" x1="342.14" x2="416.7" y1="344.14" y2="344.14" gradientUnits="userSpaceOnUse"><stop offset="0" stop-color="#cacfdd"></stop><stop offset="1" stop-color="#eef0f1"></stop></linearGradient></defs><g><rect width="6" height="34.47" x="219.28" y="51.16" fill="#5e6175" transform="rotate(-29.66 222.286 68.393)"></rect><rect width="34.47" height="6" x="250.08" y="65.4" fill="#5e6175" transform="rotate(-60.34 267.323 68.4)"></rect><rect width="335.09" height="135.65" x="81.61" y="248.33" fill="#dee1ec"></rect><rect width="335.09" height="135.65" x="81.61" y="248.33" fill="#dee1ec"></rect><rect width="335.09" height="19.75" x="81.61" y="228.58" fill="#dee1ec"></rect><path fill="#5e6175" d="M419.7,251.33H78.61V225.58H419.7Zm-335.09-6H413.7V231.58H84.61Z"></path><rect width="25.79" height="82.62" x="115.33" y="273.56" fill="url(#a)"></rect><rect width="25.79" height="82.62" x="174.77" y="273.56" fill="url(#b)"></rect><rect width="25.79" height="82.62" x="234.2" y="273.56" fill="url(#c)"></rect><rect width="25.79" height="82.62" x="293.64" y="273.56" fill="url(#d)"></rect><rect width="25.79" height="82.62" x="353.07" y="273.56" fill="url(#e)"></rect><path fill="#5e6175" d="M135.92 228.58H108v-14a14 14 0 1127.9 0zM392.81 228.58h-27.9v-14a13.95 13.95 0 0127.9 0z"></path><path fill="#e08326" d="M264.2,81.19v8.28a10.43,10.43,0,0,1-3.06,7.38l-5.93,5.92a10.41,10.41,0,0,1-7.37,3h-6.09a10.41,10.41,0,0,1-7.38-3.06l-5.91-5.92a10.42,10.42,0,0,1-3.05-7.37V81.19a7.37,7.37,0,0,1,7.37-7.37h24A7.38,7.38,0,0,1,264.2,81.19Z"></path><path fill="#5e6175" d="M244.8,156.91a18,18,0,0,1-18-18h6a12,12,0,1,0,12-12h-3V105.83h6v15.38a18,18,0,0,1-3,35.7Z"></path><path fill="#5e6175" d="M377.36,217.23l-115-66.39a33.38,33.38,0,0,0-34.6.67l-104.2,65.66-3.2-5.08,104.2-65.66a39.38,39.38,0,0,1,40.8-.79l115,66.39Z"></path><rect width="16.92" height="6" x="425.62" y="206.67" fill="#5e6175" transform="rotate(-44.99 434.117 209.675)"></rect><rect width="6" height="16.92" x="411.15" y="189.87" fill="#5e6175"></rect><rect width="16.92" height="6" x="437.42" y="225.58" fill="#5e6175"></rect><path fill="#5e6175" d="M44.58 393.84a11.57 11.57 0 1110.35-6.45A11.58 11.58 0 0144.58 393.84zM42.78 377a5.56 5.56 0 106.77 7.74A5.55 5.55 0 0042.78 377zM89.09 424.06a9 9 0 01-8-12.91 8.87 8.87 0 015.15-4.51 8.95 8.95 0 112.89 17.42zm-1-11.74a2.95 2.95 0 103.59 4.1 2.94 2.94 0 00-3.59-4.1z"></path><path fill="url(#f)" d="M416.7,304.3V384H342.34C339.25,341.65,373.08,304.3,416.7,304.3Z" style="mix-blend-mode:multiply"></path><path fill="#5e6175" d="M419.7,387H78.61V245.33H419.7ZM84.61,381H413.7V251.33H84.61Z"></path><circle cx="416.7" cy="378.84" r="59.3" fill="#f5f5f5"></circle><path fill="#a9afc4" d="M407.08,461.42c-2.05-.23-4.12-.55-6.15-.94l1.13-5.89c1.88.36,3.8.65,5.71.87Zm-16.19-3.53c-2-.64-3.92-1.37-5.84-2.15l2.29-5.55c1.77.73,3.59,1.4,5.41,2Zm-15.16-6.69c-1.79-1-3.57-2.12-5.29-3.28l3.35-5c1.59,1.07,3.24,2.09,4.91,3Zm-13.52-9.58c-1.56-1.35-3.09-2.78-4.54-4.25l4.26-4.22c1.35,1.36,2.77,2.69,4.22,4Zm-11.37-12.05c-1.26-1.63-2.47-3.34-3.61-5.06l5-3.3c1.06,1.6,2.18,3.18,3.35,4.7Zm-8.76-14.06c-.92-1.86-1.77-3.77-2.54-5.68l5.57-2.24c.71,1.77,1.5,3.55,2.35,5.27Z"></path><path fill="#5e6175" d="M416.7,441.14a62.3,62.3,0,1,1,62.3-62.3A62.37,62.37,0,0,1,416.7,441.14Zm0-118.6a56.3,56.3,0,1,0,56.3,56.3A56.37,56.37,0,0,0,416.7,322.54Z"></path><path fill="#e08326" d="M426,349.37v14.54l-3.09-1.85-3.11,1.85-3.09-1.85-3.11,1.85-3.11-1.85-3.1,1.85V349.37H387.32v54.71h58.77V349.37ZM408.71,397H394.08v-5.87h14.63Z"></path></g></svg>