<svg xmlns="http://www.w3.org/2000/svg" xmlns:xlink="http://www.w3.org/1999/xlink" viewBox="0 0 512 512" id="cart"><defs><linearGradient id="a" x1="232.67" x2="232.67" y1="199.39" y2="125.02" gradientUnits="userSpaceOnUse"><stop offset="0" stop-color="#a9afc4"></stop><stop offset="1" stop-color="#d4d8e5"></stop></linearGradient><linearGradient xlink:href="#a" id="b" x1="232.66" x2="232.66" y1="199.38" y2="125.01"></linearGradient><linearGradient id="c" x1="267.41" x2="296.69" y1="160.06" y2="160.06" gradientUnits="userSpaceOnUse"><stop offset="0" stop-color="#cacfdd"></stop><stop offset="1" stop-color="#eef0f1"></stop></linearGradient></defs><g style="isolation:isolate"><rect width="20.42" height="6" x="396.2" y="79.15" fill="#5e6175" transform="rotate(-45 406.416 82.147)"></rect><rect width="6" height="20.42" x="379.35" y="58.25" fill="#5e6175"></rect><rect width="20.42" height="6" x="410.44" y="101.97" fill="#5e6175"></rect><path fill="#5e6175" d="M48.93 254.37a12 12 0 1111.93-13.32A12 12 0 0148.93 254.37zm-4.67-15.73a6 6 0 1010.64 3.08A6 6 0 0044.26 238.64zM100 279.34a9.25 9.25 0 119.2-10.27A9.26 9.26 0 01100 279.34zm-2.53-11.27a3.24 3.24 0 105.76 1.67A3.25 3.25 0 0097.45 268.07z"></path><circle cx="375.98" cy="431.93" r="21.82" fill="#5e6175" transform="rotate(-45 375.97 431.928)"></circle><path fill="#f5f5f5" d="M131.7,184.12l42.52,177.72L395.9,344a12.94,12.94,0,0,0,11.78-11.07l19.3-134a13,13,0,0,0-12.83-14.81Z"></path><rect width="128.05" height="48.1" x="168.64" y="136.02" fill="url(#a)"></rect><rect width="128.05" height="48.1" x="168.64" y="136.01" fill="url(#b)"></rect><polygon fill="#e1830e" points="216.58 136.02 216.58 161.23 224.34 158.43 232.11 161.23 239.87 158.63 247.63 161.23 247.63 136.02 216.58 136.02"></polygon><path fill="#a9afc4" d="M222.43 226.93v96a7.53 7.53 0 01-15 .88l-11.29-95.36a13.19 13.19 0 1126.29-1.55zM304.28 227.71L299 317.19a7.55 7.55 0 01-15.06.06l-6-89.44a13.17 13.17 0 1126.28-.1zM386 228.53l-10.1 82.89A7.52 7.52 0 01369 318l-1.14.09a7.52 7.52 0 01-8.13-7.5V226.93a13.16 13.16 0 1126.23 1.6z"></path><path fill="#5e6175" d="M299.69,187.12h-134V133H299.69Zm-128-6H293.69V139h-122Z"></path><polygon fill="url(#c)" points="296.69 136.01 296.69 184.12 267.41 184.12 272.33 136.01 296.69 136.01" style="mix-blend-mode:multiply"></polygon><polygon fill="#e1830e" points="388.24 100.44 292.7 100.44 284.15 184.12 397.83 184.12 388.24 100.44"></polygon><path fill="#5e6175" d="M365.48 116.39h-6V97.46a18.5 18.5 0 10-37 0v18.93h-6V97.46a24.5 24.5 0 1149 0zM171.9 365l-44-183.92H414.15A16 16 0 01430 199.36l-19.3 134A15.86 15.86 0 01396.14 347zM135.5 187.12l41 171.52L395.66 341a9.91 9.91 0 009.06-8.5L424 198.5a10 10 0 00-9.86-11.38z"></path><path fill="#dee1ec" d="M202.4,410.11a30,30,0,0,1-29.2-23l-58-240A14.56,14.56,0,0,0,101,136H68.28a18.61,18.61,0,0,0,.24-13.92H101a28.45,28.45,0,0,1,27.72,21.81l58,240a16.09,16.09,0,0,0,15.67,12.33H403.57a7,7,0,0,1,0,13.92Z"></path><path fill="#5e6175" d="M403.57,413.11H202.4a33,33,0,0,1-32.12-25.28l-58-240A11.56,11.56,0,0,0,101,139H63.74l1.78-4.18a15.61,15.61,0,0,0,.2-11.67l-1.56-4.07H101a31.43,31.43,0,0,1,30.63,24.1l58,240a13.09,13.09,0,0,0,12.75,10H403.57a10,10,0,0,1,0,19.92ZM72.33,133H101a17.54,17.54,0,0,1,17.1,13.45l58,240a27,27,0,0,0,26.28,20.69H403.57a4,4,0,0,0,0-7.92H202.4a19.07,19.07,0,0,1-18.58-14.63l-58-240A25.44,25.44,0,0,0,101,125.07H72.44A21.74,21.74,0,0,1,72.33,133Z"></path><circle cx="224.35" cy="431.93" r="21.82" fill="#5e6175" transform="rotate(-45 224.351 431.93)"></circle><circle cx="54.54" cy="128.72" r="18.54" fill="#e1830e"></circle><circle cx="224.35" cy="431.93" r="8.57" fill="#f5f5f5"></circle><circle cx="375.98" cy="431.93" r="8.57" fill="#f5f5f5"></circle><path fill="#a9afc4" d="M440.69,375.71v-6a46.36,46.36,0,0,0,5.66-.18l.66,6A52.26,52.26,0,0,1,440.69,375.71Zm-10,0h-6v-6h6Zm-16,0h-6v-6h6Zm-16,0h-6v-6h6Zm-16,0h-6v-6h6Zm-16,0h-6v-6h6Zm-16,0h-6v-6h6Zm-16,0h-6v-6h6Zm-16,0h-6v-6h6Zm-16,0h-6v-6h6Zm154.82-3-2.42-5.49a29.88,29.88,0,0,0,4.76-2.64l3.38,5A36.31,36.31,0,0,1,457.51,372.68Zm13.68-10.56-4.69-3.73a31,31,0,0,0,3-4.55l5.29,2.82A36,36,0,0,1,471.19,362.12Zm7.19-15.71-5.89-1.11a30.71,30.71,0,0,0,.51-5.42l6,0A36.35,36.35,0,0,1,478.38,346.41Zm.62-16.52h-6v-6h6Zm0-16h-6v-6h6Zm0-16h-6v-6h6Zm0-16h-6v-6h6Zm0-16h-6v-6h6Zm0-16h-6v-6h6Zm0-16h-6v-6h6Zm0-16h-6v-6h6Zm0-16h-6v-6h6Zm0-16h-6v-6l6-.08ZM471.54,171a29.4,29.4,0,0,0-2.14-5l5.27-2.86a35.45,35.45,0,0,1,2.58,6Zm-7.61-12.23a30.34,30.34,0,0,0-4.23-3.43l3.34-5a35.81,35.81,0,0,1,5.08,4.11Zm-12.42-7.27a29.35,29.35,0,0,0-5.34-1.06l.62-6a36.84,36.84,0,0,1,6.42,1.27Zm-15-1.22h-6v-6h6Z"></path></g></svg>