<svg xmlns="http://www.w3.org/2000/svg" xmlns:xlink="http://www.w3.org/1999/xlink" viewBox="0 0 512 512" id="cashback"><defs><linearGradient id="a" x1="90.41" x2="221.74" y1="392.29" y2="392.29" gradientUnits="userSpaceOnUse"><stop offset="0" stop-color="#cacfdd"></stop><stop offset="1" stop-color="#eef0f1"></stop></linearGradient><linearGradient xlink:href="#a" id="b" x1="300.27" x2="367.76" y1="193.91" y2="193.91"></linearGradient></defs><g style="isolation:isolate"><path fill="#f5f5f5" d="M437.83,250.57c0,120.67-109.48,212.5-228.58,191.09C118.5,425.36,49.53,345.79,49.53,250.57,49.53,142,139.36,53.1,250,56.52V36l36.35,38.11L250,112.2V92.11H233.66C150.76,97.3,84.91,166.39,84.91,250.57c0,79.95,59.49,146.53,136.83,157.26,95.72,13.33,180.71-61.37,180.71-157.26Z"></path><path fill="url(#a)" d="M221.74,407.83a69.18,69.18,0,0,1-12.49,33.83A194.35,194.35,0,0,1,90.41,369.61a70.23,70.23,0,0,1,24.2-26.68A158.87,158.87,0,0,0,221.74,407.83Z" style="mix-blend-mode:multiply"></path><rect width="243.07" height="156.02" x="124.69" y="167.91" fill="#dee1ec" rx="19.83"></rect><path fill="url(#b)" d="M367.76,187.73v32.18a78.35,78.35,0,0,1-67.49-52h47.67A19.82,19.82,0,0,1,367.76,187.73Z" style="mix-blend-mode:multiply"></path><path fill="#5e6175" d="M347.35,326.92H145.1a23.43,23.43,0,0,1-23.41-23.41V188.31A23.44,23.44,0,0,1,145.1,164.9H347.35a23.44,23.44,0,0,1,23.41,23.41v115.2A23.43,23.43,0,0,1,347.35,326.92ZM145.1,170.9a17.43,17.43,0,0,0-17.41,17.41v115.2a17.43,17.43,0,0,0,17.41,17.41H347.35a17.43,17.43,0,0,0,17.41-17.41V188.31a17.43,17.43,0,0,0-17.41-17.41Z"></path><circle cx="170.5" cy="207.69" r="15.72" fill="#e1830e"></circle><rect width="48.42" height="12.3" x="154.79" y="282.77" fill="#5e6175"></rect><rect width="48.42" height="12.3" x="223.14" y="282.77" fill="#5e6175"></rect><rect width="48.42" height="12.3" x="291.5" y="282.77" fill="#5e6175"></rect><path fill="#5e6175" d="M243.69,447.72C135,447.72,46.53,359.28,46.53,250.57,46.53,141,136.49,51.73,247,53.45V28.51l43.49,45.6L247,119.69V95.11H233.75C152,100.28,87.91,168.55,87.91,250.57c0,85.89,69.88,155.77,155.78,155.77s155.76-69.88,155.76-155.77h6c0,89.2-72.56,161.77-161.76,161.77S81.91,339.77,81.91,250.57c0-85.22,66.57-156.13,151.56-161.45H253v15.6l29.2-30.6L253,43.49V59.61c-14.32-.44-27.53-.07-44,3-89.17,16.39-156.5,94.78-156.5,188,0,105.4,85.75,191.15,191.16,191.15S434.83,356,434.83,250.57h6C440.83,359.28,352.39,447.72,243.69,447.72Z"></path><circle cx="374.02" cy="142" r="62.62" fill="#f5f5f5"></circle><path fill="#a9afc4" d="M397.75,230.34l-1.55-5.79c1.86-.5,3.72-1.07,5.54-1.7l1.95,5.68C401.74,229.2,399.74,229.81,397.75,230.34Zm15.51-5.71-2.58-5.42c1.74-.83,3.47-1.73,5.15-2.67l2.94,5.23C417,222.78,415.12,223.74,413.26,224.63Zm14.22-8.42L424,211.34c1.56-1.13,3.1-2.32,4.58-3.55l3.83,4.62C430.8,213.72,429.15,215,427.48,216.21ZM440,205.38l-4.33-4.16c1.34-1.39,2.64-2.84,3.88-4.31l4.59,3.86C442.77,202.34,441.38,203.9,440,205.38Zm10.33-12.89-5-3.31c1.06-1.61,2.09-3.27,3-4.94l5.21,3C452.51,189,451.42,190.77,450.28,192.49ZM458.13,178l-5.52-2.36c.76-1.78,1.47-3.59,2.1-5.4l5.66,2C459.7,174.12,458.94,176.07,458.13,178Zm5.09-15.71-5.85-1.33c.42-1.87.79-3.78,1.08-5.69l5.93.93C464.06,158.2,463.67,160.25,463.22,162.26Zm2.17-16.38-6-.25c.09-2.06.1-3.95.05-5.79l6-.15C465.49,141.77,465.47,143.85,465.39,145.88Zm-6.72-15.67c-.27-1.91-.6-3.83-1-5.7l5.87-1.23c.42,2,.78,4.07,1.06,6.11Zm-168-7.12-5.85-1.32c.45-2,1-4,1.57-6l5.75,1.72C291.58,119.33,291.08,121.22,290.66,123.09Zm164.52-7.91c-.61-1.83-1.28-3.66-2-5.44l5.56-2.27c.78,1.91,1.5,3.87,2.14,5.83Zm-159.76-6.76-5.52-2.36c.81-1.89,1.69-3.78,2.63-5.62l5.34,2.74C297,104.89,296.17,106.65,295.42,108.42ZM449,101c-.92-1.69-1.92-3.37-3-5l5.06-3.23c1.11,1.73,2.17,3.53,3.16,5.34ZM302.74,94.84l-5-3.31c1.14-1.71,2.35-3.41,3.6-5l4.76,3.65C304.93,91.66,303.8,93.24,302.74,94.84ZM440.41,88.2c-1.21-1.49-2.49-3-3.8-4.37L441,79.74c1.41,1.51,2.78,3.09,4.07,4.68Zm-128-5.4-4.32-4.16c1.42-1.48,2.92-2.94,4.44-4.32l4,4.44C315.12,80.05,313.73,81.41,312.39,82.8Zm117.26-5.66c-1.46-1.26-3-2.48-4.52-3.63l3.59-4.8c1.65,1.23,3.28,2.53,4.84,3.87Zm-105.6-4.47-3.52-4.86c1.67-1.2,3.4-2.37,5.15-3.46l3.18,5.09C327.22,70.46,325.6,71.55,324.05,72.67Zm93-4.49c-1.67-1-3.38-1.9-5.1-2.75l2.67-5.38c1.84.92,3.68,1.91,5.45,3ZM337.33,64.8l-2.58-5.41c1.85-.89,3.77-1.72,5.69-2.48l2.2,5.58C340.85,63.2,339.06,64,337.33,64.8Zm65.79-3.17c-1.81-.65-3.66-1.25-5.51-1.78l1.65-5.77c2,.57,4,1.21,5.9,1.91Zm-51.31-2.17-1.55-5.79c2-.54,4-1,6-1.41l1.15,5.89C355.57,58.52,353.67,59,351.81,59.46Zm36.39-1.74c-1.9-.32-3.83-.57-5.75-.76l.59-6c2,.2,4.12.47,6.14.81ZM367,56.83l-.48-6c2.05-.17,4.13-.26,6.19-.29l.08,6C370.88,56.58,368.93,56.68,367,56.83Z"></path><path fill="#5e6175" d="M374,207.63A65.63,65.63,0,1,1,439.64,142,65.7,65.7,0,0,1,374,207.63Zm0-125.25A59.63,59.63,0,1,0,433.64,142,59.7,59.7,0,0,0,374,82.38Z"></path><circle cx="356.82" cy="119.04" r="7.79" fill="#e1830e" transform="rotate(-45 356.827 119.037)"></circle><circle cx="392.47" cy="163.1" r="7.79" fill="#e1830e" transform="rotate(-45 392.47 163.104)"></circle><path fill="#e1830e" d="M400.26,119a7.78,7.78,0,0,0-14.16-4.46c-.1-.07-.18.2-34.84,43.07h0a7.77,7.77,0,1,0,11.65,10.24c.1.09-1.07,1.37,35.93-44.39A8,8,0,0,0,400.26,119Z"></path><rect width="70.56" height="6" x="269.35" y="218.17" fill="#5e6175"></rect><rect width="39.13" height="6" x="269.35" y="201.63" fill="#5e6175"></rect><path fill="#5e6175" d="M99.13 61.08a12.66 12.66 0 1122.7-5.66A12.68 12.68 0 0199.13 61.08zm10.18-14.19a6.66 6.66 0 106.58 7.64A6.67 6.67 0 00109.31 46.89zM67.15 100.78a9.73 9.73 0 111.44-19.36h0a9.73 9.73 0 01-1.44 19.36zm0-13.46a3.73 3.73 0 103.69 4.28A3.74 3.74 0 0067.15 87.32z"></path><circle cx="152.36" cy="401.48" r="53.68" fill="#e1830e"></circle><path fill="#f5f5f5" d="M152.36,430.78a17.6,17.6,0,0,1-17.57-17.58h11a6.56,6.56,0,1,0,6.56-6.56,17.57,17.57,0,1,1,17.57-17.57h-11a6.56,6.56,0,1,0-6.56,6.56,17.58,17.58,0,0,1,0,35.15Z"></path><rect width="11.01" height="10.98" x="146.85" y="425.27" fill="#f5f5f5"></rect><rect width="11.01" height="10.98" x="146.85" y="366.02" fill="#f5f5f5"></rect><rect width="17.78" height="6" x="85.01" y="452.19" fill="#5e6175" transform="rotate(-44.99 93.93 455.215)"></rect><rect width="6" height="17.78" x="111.86" y="458.22" fill="#5e6175"></rect><rect width="17.78" height="6" x="72.61" y="432.31" fill="#5e6175"></rect><path fill="#5e6175" d="M397.38,419.48a10.46,10.46,0,1,1,18.75-4.68A10.47,10.47,0,0,1,397.38,419.48Zm4.83-3.57a4.46,4.46,0,1,0,4.24-7.06h0A4.46,4.46,0,0,0,402.21,415.91Z"></path></g></svg>