<svg xmlns="http://www.w3.org/2000/svg" xmlns:xlink="http://www.w3.org/1999/xlink" viewBox="0 0 512 512" id="cash-register"><defs><linearGradient id="b" x1="286.43" x2="330.08" y1="98.19" y2="98.19" gradientUnits="userSpaceOnUse"><stop offset="0" stop-color="#cacfdd"></stop><stop offset="1" stop-color="#eef0f1"></stop></linearGradient><linearGradient id="a" x1="91.77" x2="389.39" y1="417.24" y2="417.24" gradientUnits="userSpaceOnUse"><stop offset="0" stop-color="#a9afc4"></stop><stop offset="1" stop-color="#d4d8e5"></stop></linearGradient><linearGradient xlink:href="#a" id="c" x1="240.58" x2="240.58" y1="383.88" y2="455.36"></linearGradient><linearGradient xlink:href="#b" id="d" x1="309.27" x2="309.27" y1="163.75" y2="127.19"></linearGradient><linearGradient xlink:href="#b" id="e" x1="323.44" x2="407.84" y1="375.41" y2="375.41"></linearGradient></defs><g><rect width="43.65" height="20.22" x="286.43" y="93.14" fill="#a9afc4"></rect><rect width="43.65" height="10.11" x="286.43" y="93.14" fill="url(#b)" style="mix-blend-mode:multiply"></rect><path fill="#dee1ec" d="M407.84,329.5v67.07A10.85,10.85,0,0,1,397,407.42H85.13a10.84,10.84,0,0,1-10.84-10.85V329.5a10.85,10.85,0,0,1,10.84-10.86H397A10.85,10.85,0,0,1,407.84,329.5Z"></path><path fill="url(#a)" d="M389.39,407.42v10a9.63,9.63,0,0,1-9.64,9.64H101.41a9.63,9.63,0,0,1-9.64-9.64v-10Z"></path><rect width="333.56" height="88.78" x="74.28" y="318.65" fill="#f5f5f5" rx="10.53"></rect><path fill="#a9afc4" d="M91.77,318.65V200.23a16.58,16.58,0,0,1,16.58-16.58H228.1v135Z"></path><path fill="#dee1ec" d="M244.68,113.36H372.82a16.58,16.58,0,0,1,16.58,16.58V318.65H228.1V129.94A16.58,16.58,0,0,1,244.68,113.36Z"></path><path fill="#5e6175" d="M231.1,321.65H88.77V200.23a19.6,19.6,0,0,1,19.58-19.58H231.1Zm-136.33-6H225.1v-129H108.35a13.6,13.6,0,0,0-13.58,13.58Z"></path><path fill="#5e6175" d="M392.4,321.65H225.1V129.94a19.6,19.6,0,0,1,19.58-19.58H372.82a19.6,19.6,0,0,1,19.58,19.58Zm-161.3-6H386.4V129.94a13.59,13.59,0,0,0-13.58-13.58H244.68a13.59,13.59,0,0,0-13.58,13.58Z"></path><rect width="88" height="23.81" x="197.06" y="352.79" fill="#5e6175" rx="11.54"></rect><polygon fill="#f5f5f5" points="194.06 216.47 124.09 216.47 124.09 140.3 135.76 145.98 147.42 140.3 159.08 145.98 170.74 140.3 182.4 145.98 194.06 140.3 194.06 216.47"></polygon><rect width="92.21" height="6" x="112.93" y="213.47" fill="#5e6175"></rect><rect width="69.97" height="14.39" x="124.09" y="239.71" fill="#dee1ec"></rect><rect width="34.99" height="14.39" x="124.09" y="272.09" fill="#dee1ec"></rect><rect width="102.03" height="35.96" x="258.26" y="140.11" fill="#a9afc4" rx="5.72"></rect><rect width="102.03" height="35.96" x="258.25" y="140.11" fill="#a9afc4" rx="5.9"></rect><path fill="#5e6175" d="M333.08,116.36H283.43V90.14h49.65Zm-43.65-6h37.65V96.14H289.43Z"></path><rect width="116.41" height="57.14" x="250.4" y="36" fill="#f5f5f5" rx="11.65"></rect><path fill="#5e6175" d="M355.15,96.14h-93.1A14.66,14.66,0,0,1,247.4,81.49V47.65A14.66,14.66,0,0,1,262.05,33h93.1A14.66,14.66,0,0,1,369.8,47.65V81.49A14.66,14.66,0,0,1,355.15,96.14ZM262.05,39a8.66,8.66,0,0,0-8.65,8.65V81.49a8.66,8.66,0,0,0,8.65,8.65h93.1a8.66,8.66,0,0,0,8.65-8.65V47.65A8.66,8.66,0,0,0,355.15,39Z"></path><rect width="85.29" height="27.89" x="266.24" y="50.79" fill="#a9afc4"></rect><rect width="23.17" height="23.17" x="258.26" y="195.79" fill="#5e6175" rx="5.72"></rect><rect width="23.17" height="23.17" x="297.68" y="195.79" fill="#5e6175" rx="5.72"></rect><rect width="23.17" height="23.17" x="337.11" y="195.79" fill="#5e6175" rx="5.72"></rect><rect width="23.17" height="23.17" x="258.26" y="235.34" fill="#5e6175" rx="5.72"></rect><rect width="23.17" height="23.17" x="297.68" y="235.34" fill="#5e6175" rx="5.72"></rect><rect width="23.17" height="23.17" x="337.11" y="235.34" fill="#5e6175" rx="5.72"></rect><rect width="23.17" height="23.17" x="258.26" y="274.9" fill="#5e6175" rx="5.72"></rect><rect width="23.17" height="23.17" x="297.68" y="274.9" fill="#5e6175" rx="5.72"></rect><rect width="23.17" height="23.17" x="337.11" y="274.9" fill="#5e6175" rx="5.72"></rect><path fill="url(#c)" d="M91.77,407.42H389.4a0,0,0,0,1,0,0v10.28a9.35,9.35,0,0,1-9.35,9.35H101.12a9.35,9.35,0,0,1-9.35-9.35V407.42a0,0,0,0,1,0,0Z"></path><path fill="#5e6175" d="M397.32,410.42H84.81A13.54,13.54,0,0,1,71.28,396.9V329.17a13.54,13.54,0,0,1,13.53-13.52H397.32a13.53,13.53,0,0,1,13.52,13.52V396.9A13.53,13.53,0,0,1,397.32,410.42ZM84.81,321.65a7.53,7.53,0,0,0-7.53,7.52V396.9a7.53,7.53,0,0,0,7.53,7.52H397.32a7.52,7.52,0,0,0,7.52-7.52V329.17a7.52,7.52,0,0,0-7.52-7.52Z"></path><path fill="#5e6175" d="M380.05,430.05H101.12a12.36,12.36,0,0,1-12.35-12.34V404.42H392.4v13.29A12.36,12.36,0,0,1,380.05,430.05ZM94.77,410.42v7.29a6.34,6.34,0,0,0,6.35,6.34H380.05a6.35,6.35,0,0,0,6.35-6.34v-7.29Z"></path><path fill="url(#d)" d="M360.28,146v7.74h-102V146a5.9,5.9,0,0,1,5.9-5.9h90.23A5.9,5.9,0,0,1,360.28,146Z" style="mix-blend-mode:multiply"></path><path fill="url(#e)" d="M407.84,329.5v67.07A10.85,10.85,0,0,1,397,407.42h-7.59v10a9.63,9.63,0,0,1-9.64,9.64H325.61c-12-52.26,27.3-102.27,80.6-103.28A10.85,10.85,0,0,1,407.84,329.5Z" style="mix-blend-mode:multiply"></path><circle cx="407.84" cy="408.12" r="67.88" fill="#f5f5f5"></circle><path fill="#5e6175" d="M407.84,479a70.88,70.88,0,1,1,70.88-70.88A70.95,70.95,0,0,1,407.84,479Zm0-135.75a64.88,64.88,0,1,0,64.88,64.87A64.94,64.94,0,0,0,407.84,343.25Z"></path><path fill="#e1830e" d="M407.84,447.15a23.41,23.41,0,0,1-23.39-23.39h14.66a8.74,8.74,0,1,0,8.73-8.74,23.39,23.39,0,1,1,23.4-23.39H416.58a8.74,8.74,0,1,0-8.74,8.74,23.39,23.39,0,1,1,0,46.78Z"></path><rect width="14.66" height="14.62" x="400.51" y="439.82" fill="#e1830e"></rect><rect width="14.66" height="14.62" x="400.51" y="360.95" fill="#e1830e"></rect><rect width="16.31" height="6" x="400.27" y="97.04" fill="#5e6175" transform="rotate(-45 408.426 100.035)"></rect><rect width="6" height="16.31" x="386.21" y="80.95" fill="#5e6175"></rect><rect width="16.31" height="6" x="411.64" y="115.26" fill="#5e6175"></rect><path fill="#5e6175" d="M45.3 423.47a12 12 0 1111.85-14A12 12 0 0145.3 423.47zm0-18.05a6 6 0 104.91 9.51A6 6 0 0045.3 405.42zM89.51 458.55a9.27 9.27 0 119.14-10.81A9.28 9.28 0 0189.51 458.55zM89 446.07h0a3.26 3.26 0 103.21 5.11A3.26 3.26 0 0089 446.07z"></path><path fill="#a9afc4" d="M457.76,340.25h-6v-4.86h6Zm0-14.86h-6v-6h6Zm0-16h-6v-6h6Zm0-16h-6v-6h6Zm0-16h-6v-6h6Zm0-16h-6v-6h6Zm0-16h-6v-6h6Zm0-16h-6v-6h6Zm0-16h-6v-6h6Zm0-16h-6v-6h6Zm0-16h-6a30.16,30.16,0,0,0-.25-5.49l5.92-1A34.42,34.42,0,0,1,457.76,181.39Zm-9.59-13.26a17.79,17.79,0,0,0-3.65-3.6l3.56-4.83a23.62,23.62,0,0,1,4.87,4.81Zm-11.46-6.84a34.16,34.16,0,0,0-5.54-.2v-6a38.65,38.65,0,0,1,6.44.27Zm-15.54-.2h-6v-6h6Z"></path></g></svg>