<svg xmlns="http://www.w3.org/2000/svg" xmlns:xlink="http://www.w3.org/1999/xlink" viewBox="0 0 512 512" id="cash-on-delivery"><defs><linearGradient id="a" x1="233.45" x2="287.84" y1="144.54" y2="144.54" gradientUnits="userSpaceOnUse"><stop offset="0" stop-color="#cacfdd"></stop><stop offset="1" stop-color="#eef0f1"></stop></linearGradient><linearGradient xlink:href="#a" id="c" x1="246.66" x2="246.66" y1="126.3" y2="307.61"></linearGradient><linearGradient xlink:href="#a" id="d" x1="169.95" x2="260.66" y1="172.72" y2="172.72"></linearGradient><linearGradient id="b" x1="281.83" x2="306.74" y1="148.83" y2="148.83" gradientUnits="userSpaceOnUse"><stop offset="0" stop-color="#a9afc4"></stop><stop offset="1" stop-color="#d4d8e5"></stop></linearGradient><linearGradient xlink:href="#b" id="e" x1="414.7" x2="510.26" y1="91.86" y2="91.86" gradientTransform="rotate(90 395.975 118.535)"></linearGradient><linearGradient xlink:href="#b" id="f" x1="638.57" x2="734.13" y1="422.95" y2="422.95" gradientTransform="rotate(-90 347.81 681.42)"></linearGradient><linearGradient xlink:href="#b" id="g" x1="271.22" x2="342.26" y1="222.01" y2="222.01"></linearGradient><linearGradient xlink:href="#b" id="h" x1="271.22" x2="342.26" y1="222.01" y2="222.01"></linearGradient><linearGradient xlink:href="#a" id="i" x1="306.74" x2="376.56" y1="222.01" y2="222.01"></linearGradient></defs><g><path fill="#dee1ec" d="M243.61,186.55l-63.48-22.61a23,23,0,0,1-9.66-6.57l-37.66-41.78L36,126V49.28H211.37a27.59,27.59,0,0,1,18.56,7.18l45.52,41.4a34.51,34.51,0,0,1,11.28,24.32l1.1,31a15,15,0,0,1-29.77,3.3l-5-26.58a13.9,13.9,0,0,0-5-8.29l-25.31-20.34a7.13,7.13,0,0,0-10.33,1.49L204.67,114a10.51,10.51,0,0,0-1.11,10l3.64,8.92a10.51,10.51,0,0,0,5.77,5.77l16.66,6.76a24.59,24.59,0,0,1,15.27,24.71Z"></path><path fill="url(#a)" d="M286.6,120.38H246.66l1.48,1.19a13.89,13.89,0,0,1,5,8.29l5,26.57a15,15,0,0,0,29.77-3.28C286.6,118.41,286.77,122.3,286.6,120.38Z" style="mix-blend-mode:multiply"></path><path fill="#5e6175" d="M246.3,190.69l-67.18-23.92a26.21,26.21,0,0,1-10.91-7.43l-36.6-40.6L36.32,129l-.64-6L134,112.45l38.68,42.91a20.22,20.22,0,0,0,8.44,5.76l59.79,21.29,1-12.55a21.51,21.51,0,0,0-13.41-21.7l-16.65-6.76a13.56,13.56,0,0,1-7.43-7.42l-3.64-8.91a13.47,13.47,0,0,1,1.42-12.81L210,101a10.15,10.15,0,0,1,14.67-2.12L250,119.23a16.91,16.91,0,0,1,6,10.08l5,26.58a12,12,0,0,0,23.83-2.64l-1.1-31a31.67,31.67,0,0,0-10.3-22.2l-45.52-41.4a24.52,24.52,0,0,0-16.54-6.4H36v-6H211.37a30.5,30.5,0,0,1,20.57,8l45.53,41.4a37.77,37.77,0,0,1,12.26,26.43l1.1,31a18,18,0,0,1-35.72,4l-5-26.58a10.92,10.92,0,0,0-3.89-6.5l-25.31-20.34a4.14,4.14,0,0,0-6,.86l-7.82,11.25a7.48,7.48,0,0,0-.79,7.12l3.63,8.92a7.58,7.58,0,0,0,4.13,4.12l16.66,6.76a27.5,27.5,0,0,1,17.14,27.72Z"></path><path fill="url(#c)" d="M326,185.53c-19.4-25.27-19.4-25.14-19.3-25.14H186.57l-19.3,25.14a78.42,78.42,0,0,0-16.22,47.76v50.34H342.26V233.29A78.42,78.42,0,0,0,326,185.53Z"></path><path fill="url(#d)" d="M260.53,171.31l-2.89,36.87c-89.56-31.89-83.35-29.65-84.59-30.18l13.52-17.61h-5a11.57,11.57,0,1,1,0-23.13h64.71A40.09,40.09,0,0,1,260.53,171.31Z" style="mix-blend-mode:multiply"></path><rect width="75.56" height="22.62" x="220.67" y="388.13" fill="#e08326" transform="rotate(180 258.445 399.44)"></rect><rect width="75.56" height="22.62" x="195.81" y="320.27" fill="#e08326" transform="rotate(180 233.59 331.575)"></rect><rect width="75.56" height="22.62" x="220.67" y="365.51" fill="#e08326" transform="rotate(180 258.445 376.82)"></rect><rect width="75.56" height="22.62" x="220.67" y="342.89" fill="#e08326" transform="rotate(180 258.445 354.2)"></rect><path fill="#5e6175" d="M299.23 413.75H217.67V385.13h81.56zm-75.56-6h69.56V391.13H223.67zM274.37 345.89H192.81V317.27h81.56zm-75.56-6h69.56V323.27H198.81z"></path><path fill="#5e6175" d="M299.23,391.13H217.67V362.51h81.56Zm-75.56-6h69.56V368.51H223.67Z"></path><path fill="#5e6175" d="M299.23,368.51H217.67V339.89h81.56Zm-75.56-6h69.56V345.89H223.67Z"></path><path fill="#dee1ec" d="M269.11,410.83a17.84,17.84,0,0,1,0-35.68h22.82a51.81,51.81,0,0,0,23.79-5.79,51.81,51.81,0,0,1,49.53,1.07c11.59,6.63,7.78,4.39,16.89,9.9h84.93v74.43L374.91,437.4l-73.32,23.05a57.31,57.31,0,0,1-34.24-.73L173.2,427.38a19.69,19.69,0,0,1,12.15-37.46L248.67,410a17.72,17.72,0,0,0,5.31.81Z"></path><path fill="#5e6175" d="M266.39,462.56l-94.17-32.35a22.69,22.69,0,0,1,14-43.16l63.33,20.11a15.18,15.18,0,0,0,4.91.67,20.83,20.83,0,0,1,14.62-35.68h22.83a49.1,49.1,0,0,0,22.41-5.45,54.59,54.59,0,0,1,52.39,1.12c11.59,6.64,7.95,4.5,16.23,9.51h84.1v6H381.3c-10-6.05-6-3.71-17.54-10.3a48.64,48.64,0,0,0-46.66-1,55.1,55.1,0,0,1-25.16,6.12H269.11a14.84,14.84,0,0,0,0,29.68h41.62v6H254a20.73,20.73,0,0,1-6.2-.95l-63.33-20.1c-14.1-4.4-26.27,10.25-20,23.22a16.56,16.56,0,0,0,9.69,8.53l94.16,32.35a54,54,0,0,0,32.44.69l74-23.26,92.91,17.51-1.11,5.89-91.43-17.23-72.6,22.83A60,60,0,0,1,266.39,462.56Z"></path><path fill="#f5f5f5" d="M293.4,160.39H181.52a11.57,11.57,0,1,1,0-23.13H293.4a11.57,11.57,0,0,0,0,23.13Z"></path><path fill="url(#b)" d="M293.4,160.39a11.57,11.57,0,1,1,0-23.13h1.78a11.57,11.57,0,0,1,11.56,11.57v11.56Z"></path><path fill="#5e6175" d="M309.74,163.39H181.51a14.57,14.57,0,1,1,0-29.13H295.18a14.58,14.58,0,0,1,14.56,14.57Zm-6-6v-8.56a8.58,8.58,0,0,0-8.56-8.57H181.51a8.57,8.57,0,1,0,0,17.13Z"></path><polygon fill="url(#e)" points="476 185.04 428.22 137.26 428.22 165.06 369.31 165.06 369.31 205.02 428.22 205.02 428.22 232.82 476 185.04"></polygon><polygon fill="url(#f)" points="36 342.89 83.78 390.67 83.78 362.86 142.69 362.86 142.69 322.91 83.78 322.91 83.78 295.11 36 342.89"></polygon><path fill="#5e6175" d="M425.22 240.06V208H366.31v-46h58.91V130l55 55zm-52.91-38h58.91v23.56L471.76 185 431.22 144.5v23.56H372.31zM86.78 397.91l-55-55 55-55v32h58.91v45.95H86.78zm-46.54-55l40.54 40.53V359.86h58.91V325.91H80.78V302.35z"></path><path fill="url(#g)" d="M287.44,185.53a78.42,78.42,0,0,0-16.22,47.76v50.34h35.52V160.39Z"></path><path fill="url(#h)" d="M342.26,233.29A78.42,78.42,0,0,0,326,185.53l-19.3-25.14V283.63h35.52Z"></path><path fill="url(#i)" d="M342.26,233.29A78.42,78.42,0,0,0,326,185.53l-19.3-25.14V283.63h35.52Z" style="mix-blend-mode:multiply"></path><path fill="#5e6175" d="M345.26,286.63H148.05V233.29a81.88,81.88,0,0,1,16.84-49.59l20.2-26.31H308.22l20.2,26.31a81.86,81.86,0,0,1,16.84,49.59Zm-191.21-6H339.26V233.29a75.86,75.86,0,0,0-15.6-45.94l-18.4-24H188.05l-18.4,24a75.86,75.86,0,0,0-15.6,45.94Z"></path><path fill="#dee1ec" d="M212.49,102.72,204.67,114a10.51,10.51,0,0,0-1.11,10l3.64,8.92a10.51,10.51,0,0,0,5.77,5.77l16.66,6.76a24.59,24.59,0,0,1,15.27,24.71l-1.29,16.46-63.48-22.61a23,23,0,0,1-9.66-6.57l-37.66-41.78Z"></path><path fill="#5e6175" d="M246.3,190.69l-67.18-23.92a26.21,26.21,0,0,1-10.91-7.43L130.59,117.6l4.45-4,37.66,41.78a20.22,20.22,0,0,0,8.44,5.76l59.79,21.29,1-12.55a21.51,21.51,0,0,0-13.41-21.7l-16.65-6.76a13.56,13.56,0,0,1-7.43-7.42l-3.64-8.91a13.47,13.47,0,0,1,1.42-12.81L210,101l4.92,3.42-7.82,11.25a7.48,7.48,0,0,0-.79,7.12l3.63,8.92a7.58,7.58,0,0,0,4.13,4.12l16.66,6.76a27.5,27.5,0,0,1,17.14,27.72Z"></path><rect width="15.65" height="6" x="320.08" y="117.8" fill="#5e6175" transform="rotate(-45 327.902 120.788)"></rect><rect width="6" height="15.65" x="306.47" y="102.48" fill="#5e6175"></rect><rect width="15.65" height="6" x="330.99" y="135.28" fill="#5e6175"></rect><path fill="#5e6175" d="M341.92 332.62a11 11 0 119.38-16.57A11 11 0 01341.92 332.62zm-2.57-15.22h0a5 5 0 107.35 5.48A5 5 0 00339.35 317.4zM388.75 351.35a8.52 8.52 0 117.3-12.89A8.52 8.52 0 01388.75 351.35zm0-11.05A2.53 2.53 0 10390 345 2.52 2.52 0 00388.72 340.3z"></path><path fill="#a9afc4" d="M132.87,280.33h-6v-6h6Zm0-16h-6v-6h6Zm0-16h-6v-6h6Zm0-16h-6c0-2,0-3.64.16-6.19l6,.38C132.87,229,132.87,230.64,132.87,232.33ZM134.21,217l-5.9-1.11c.38-2,.84-4.07,1.37-6.07l5.8,1.54C135,213.18,134.56,215.08,134.21,217Zm4.3-14.77L133,200c.77-1.92,1.62-3.83,2.53-5.68l5.39,2.64C140,198.64,139.23,200.42,138.51,202.2Zm7.13-13.64-5-3.28,3.27-5,5,3.28Z"></path></g></svg>