<svg xmlns="http://www.w3.org/2000/svg" xmlns:xlink="http://www.w3.org/1999/xlink" viewBox="0 0 512 512" id="color-palette"><defs><linearGradient id="linear-gradient" x1="173.18" x2="412.08" y1="362.8" y2="362.8" gradientUnits="userSpaceOnUse"><stop offset="0" stop-color="#cacfdd"></stop><stop offset="1" stop-color="#eef0f1"></stop></linearGradient><linearGradient xlink:href="#linear-gradient" id="linear-gradient-2" x1="347.19" x2="412.03" y1="373.48" y2="373.48"></linearGradient></defs><g style="isolation:isolate"><g id="Color_Palette"><path d="M412.08,362.8a63.27,63.27,0,0,1-63.27,63.26H61V299.53H348.81A63.26,63.26,0,0,1,412.08,362.8Z" fill="#dee1ec"></path><rect width="70.16" height="70.16" x="88.43" y="327.14" fill="#a9afc4"></rect><rect width="70.16" height="70.16" x="158.59" y="327.14" fill="#e1830e"></rect><rect width="70.16" height="70.16" x="228.76" y="327.14" fill="#f5f5f5"></rect><path d="M352.73,381.73a19.51,19.51,0,1,1,19.51-19.51A19.54,19.54,0,0,1,352.73,381.73Zm0-33a13.51,13.51,0,1,0,13.51,13.51A13.52,13.52,0,0,0,352.73,348.71Z" fill="#5e6175"></path><path d="M412.08,362.8a63.27,63.27,0,0,1-63.27,63.26H300.73c-6.09-4.63,2.43,3.45-127.55-126.53H348.81A63.26,63.26,0,0,1,412.08,362.8Z" style="mix-blend-mode:multiply" fill="url(#linear-gradient)"></path><path d="M348.81,429.06H58V296.53H348.81a66.27,66.27,0,1,1,0,132.53ZM64,423.06H348.81a60.27,60.27,0,1,0,0-120.53H64Z" fill="#5e6175"></path><path d="M393.55,407.53a63.26,63.26,0,0,1-89.46,0L100.56,204,190,114.54,393.55,318.06A63.28,63.28,0,0,1,393.55,407.53Z" fill="#f5f5f5"></path><path d="M348.82,429A66.06,66.06,0,0,1,302,409.65L96.32,204,190,110.3,395.67,315.94A66.24,66.24,0,0,1,348.82,429Zm-244-225L306.21,405.41a60.34,60.34,0,0,0,85.22,0h0a60.23,60.23,0,0,0,0-85.22L190,118.78Z" fill="#5e6175"></path><rect width="70.16" height="70.16" x="154.83" y="167.99" transform="rotate(-45 189.916 203.074)" fill="#a9afc4"></rect><rect width="70.16" height="70.16" x="204.44" y="217.61" transform="rotate(-45 239.526 252.685)" fill="#dee1ec"></rect><rect width="70.16" height="70.16" x="254.05" y="267.22" transform="rotate(-45 289.135 302.296)" fill="#e1830e"></rect><circle cx="351.99" cy="365.16" r="16.51" fill="#5e6175"></circle><path d="M412,365.16a63.07,63.07,0,0,1-2.87,16.65H355.53a8.33,8.33,0,1,1,0-16.65Z" style="mix-blend-mode:multiply" fill="url(#linear-gradient-2)"></path><path d="M467.67,373.49H355.52a8.33,8.33,0,0,1,0-16.66H467.67a8.33,8.33,0,0,1,0,16.66Z" fill="#f5f5f5"></path><path d="M467.67,376.49H355.52a11.33,11.33,0,0,1,0-22.66H467.67a11.33,11.33,0,0,1,0,22.66ZM355.52,359.83a5.33,5.33,0,0,0,0,10.66H467.67a5.33,5.33,0,0,0,0-10.66Z" fill="#5e6175"></path><rect width="18.93" height="6" x="407.58" y="290.84" transform="rotate(-45 417.044 293.845)" fill="#5e6175"></rect><rect width="6" height="18.93" x="391.75" y="271.68" fill="#5e6175"></rect><rect width="18.93" height="6" x="420.79" y="312" fill="#5e6175"></rect><path d="M45.66 234.76a12.64 12.64 0 1 1 11.26-18.34h0A12.66 12.66 0 0 1 45.66 234.76Zm0-19.28a6.64 6.64 0 1 0 5.94 3.64A6.64 6.64 0 0 0 45.63 215.48ZM101.39 271.7A9.7 9.7 0 1 1 110 257.62h0A9.72 9.72 0 0 1 101.39 271.7Zm-3.53-10.86a3.7 3.7 0 1 0 6.82-.52A3.71 3.71 0 0 0 97.86 260.84Z" fill="#5e6175"></path><circle cx="410.36" cy="156.67" r="65.45" fill="#f5f5f5"></circle><path d="M410.36,225.12a68.45,68.45,0,1,1,68.45-68.45A68.53,68.53,0,0,1,410.36,225.12Zm0-130.9a62.45,62.45,0,1,0,62.45,62.45A62.51,62.51,0,0,0,410.36,94.22Z" fill="#5e6175"></path><path d="M324,216.46a13.11,13.11,0,0,1-7.21-2.61l3.61-4.8a7,7,0,0,0,3.91,1.42Zm11.24-5.21-4.74-3.68a7.05,7.05,0,0,0,1.47-3.89l6,.41A13.13,13.13,0,0,1,335.23,211.25Zm-25.9-4.67-4.25-4.25,4.25-4.24,4.24,4.24Zm20-11.05c-.76-1.89-1.47-3.85-2.12-5.81l5.7-1.89c.61,1.85,1.28,3.69,2,5.47ZM298,195.26,293.77,191l4.24-4.24,4.24,4.24ZM286.7,184l-4.24-4.24,4.24-4.25,4.24,4.25Zm37.78-4.17c-.45-2-.83-4.05-1.15-6.08l5.93-.92c.29,1.9.66,3.82,1.08,5.71Zm-2.2-16.34c-.1-2.12-.12-4.23-.08-6.21l6,.13c0,1.91,0,3.86.08,5.8Zm6.67-15.7-5.95-.81c.28-2.05.64-4.11,1.06-6.12l5.87,1.23C329.54,143.92,329.21,145.83,329,147.74Zm3.5-15-5.69-1.9c.65-1.94,1.38-3.9,2.16-5.81l5.55,2.28C333.74,129.09,333.06,130.91,332.45,132.73Zm6.19-14.16-5.27-2.87c1-1.79,2-3.58,3.13-5.33l5.08,3.19C340.54,115.21,339.55,116.89,338.64,118.57Zm8.49-13-4.76-3.65c1.24-1.61,2.54-3.22,3.88-4.78l4.56,3.9C349.54,102.55,348.3,104.07,347.13,105.59ZM357.43,94l-4.13-4.35c1.7-1.61,2.94-2.65,4.61-4.08l3.9,4.56C360.19,91.5,359,92.47,357.43,94Z" fill="#a9afc4"></path><path d="M428.84,152.07l-14-14,13.34-13.33a9.88,9.88,0,1,1,14,14Z" fill="#e1830e"></path><rect width="8.43" height="36.14" x="414.66" y="130" transform="rotate(-45 418.875 148.076)" fill="#e1830e"></rect><path d="M389.15,187.42a10.62,10.62,0,0,0-6.55,3.06l-1,1-6-6,.82-.84a10.67,10.67,0,0,0,3-6.5,10.67,10.67,0,0,1,3.1-6.89l22.15-22.14,13.09,13.09-22.15,22.15A10.69,10.69,0,0,1,389.15,187.42Z" fill="#e1830e"></path></g></g></svg>