<svg xmlns="http://www.w3.org/2000/svg" xmlns:xlink="http://www.w3.org/1999/xlink" viewBox="0 0 512 512" id="compass"><defs><linearGradient id="a" x1="199.76" x2="270.9" y1="283.95" y2="283.95" gradientTransform="rotate(-90 199.045 295.675)" gradientUnits="userSpaceOnUse"><stop offset="0" stop-color="#cacfdd"></stop><stop offset="1" stop-color="#eef0f1"></stop></linearGradient><linearGradient xlink:href="#a" id="b" x1="151.01" x2="222.15" y1="332.7" y2="332.7"></linearGradient><linearGradient xlink:href="#a" id="c" x1="265.17" x2="352.09" y1="373.79" y2="373.79"></linearGradient></defs><g style="isolation:isolate"><path fill="#5e6175" d="M225.38,153.52H197.62V110.27a13.88,13.88,0,1,1,27.76,0Zm-21.76-6h15.76V110.27a7.88,7.88,0,1,0-15.76,0Z"></path><path fill="#5e6175" d="M222.38,150.51H200.62V110.27a10.88,10.88,0,1,1,21.76,0Z"></path><circle cx="211.69" cy="283.76" r="146.99" fill="#dee1ec"></circle><path fill="#dee1ec" d="M358.69,283.76a147,147,0,1,1-147-147A147,147,0,0,1,358.69,283.76Z"></path><circle cx="211.69" cy="283.76" r="118.82" fill="#f5f5f5"></circle><circle cx="211.69" cy="283.76" r="118.82" fill="#f5f5f5"></circle><path fill="#a9afc4" d="M39,274.72l-6-.31c.1-1.8.22-3.63.37-5.44l6,.49C39.2,271.21,39.09,273,39,274.72Zm1.42-15-5.94-.83c.28-2,.6-4,1-6l5.91,1C41,255.79,40.7,257.75,40.42,259.69Zm2.88-15.45-5.84-1.37c.46-2,1-4,1.48-5.9l5.8,1.56C44.23,240.41,43.75,242.33,43.3,244.24Zm4.27-15.11-5.7-1.9c.64-1.91,1.32-3.85,2-5.74l5.62,2.09C48.84,225.41,48.18,227.28,47.57,229.13Zm5.63-14.66-5.5-2.41c.82-1.85,1.67-3.72,2.54-5.54l5.41,2.59C54.81,210.87,54,212.67,53.2,214.47Zm6.95-14.09-5.26-2.9c1-1.76,2-3.54,3-5.29l5.15,3.08C62.08,197,61.09,198.67,60.15,200.38Zm8.2-13.4-5-3.36c1.14-1.68,2.32-3.36,3.5-5l4.86,3.53C70.59,183.73,69.45,185.36,68.35,187Zm9.39-12.61-4.65-3.8c1.28-1.56,2.61-3.13,3.94-4.65l4.52,4C80.26,171.34,79,172.85,77.74,174.37Zm10.49-11.71-4.29-4.2c1.42-1.45,2.88-2.89,4.35-4.28l4.14,4.34C91,159.87,89.6,161.26,88.23,162.66Zm11.5-10.72-3.88-4.57c1.54-1.31,3.13-2.61,4.71-3.87l3.73,4.7C102.76,149.42,101.22,150.68,99.73,151.94Zm12.43-9.63-3.46-4.9c1.65-1.17,3.35-2.32,5-3.43l3.29,5C115.4,140.07,113.76,141.19,112.16,142.31Zm13.25-8.47-3-5.19c1.76-1,3.55-2,5.34-3l2.82,5.29C128.84,131.9,127.11,132.86,125.41,133.84Z"></path><path fill="#5e6175" d="M433.32,242.78a45.73,45.73,0,0,1-45.68-45.68,75.14,75.14,0,0,0-75.05-75H222.38v-6h90.21a81.14,81.14,0,0,1,81.05,81.05,39.68,39.68,0,1,0,79.36,0,120.17,120.17,0,0,0-120-120H174.13a19.39,19.39,0,0,0,0,38.77H200.5v6H174.13a25.39,25.39,0,0,1,0-50.77H353a126.18,126.18,0,0,1,126,126A45.73,45.73,0,0,1,433.32,242.78Z"></path><path fill="#e1830e" d="M220.44 165.27l-8.94 20.18-8.91-20.15A118.23 118.23 0 01220.44 165.27zM221.59 402.17a117.89 117.89 0 01-20.16 0l10.07-22.78zM330.12 293.34l-21.66-9.58 21.66-9.58A117.86 117.86 0 01330.12 293.34zM114.55 283.76l-21.3 9.41a118.25 118.25 0 010-18.82z"></path><path fill="url(#a)" d="M154.57,223.81l-2.82,2.83c15.2,26.34,23.78,43.34,44.4,64L200.5,295l22.39-22.39-4.36-4.36C197.93,247.61,181.07,239.1,154.57,223.81Z" style="mix-blend-mode:multiply"></path><path fill="url(#a)" d="M154.57,223.81l-2.82,2.83c15.2,26.34,23.78,43.34,44.4,64L200.5,295l22.39-22.39-4.36-4.36C197.93,247.61,181.07,239.1,154.57,223.81Z" style="mix-blend-mode:multiply"></path><path fill="url(#b)" d="M268.82,343.71l2.82-2.82c-14.87-25.78-23.77-43.34-44.4-64l-4.35-4.35L200.5,295l4.35,4.35C225.48,319.93,243,328.81,268.82,343.71Z" style="mix-blend-mode:multiply"></path><path fill="#5e6175" d="M200.5,299.2c-5.31-5.31-8.16-8.11-11.31-11.48-17.76-19-26-35.18-41.19-61.58l6.08-6.08,25.42,14.68a194.77,194.77,0,0,1,41.15,31.35l6.48,6.48Zm-44.42-71c15.83,27.42,22.22,40.37,44.42,62.56l18.15-18.14C196.54,250.45,183.56,244,156.08,228.15Z"></path><path fill="#5e6175" d="M269.31,347.46c-26.62-15.36-44.07-24.24-64.1-43.59-1.83-1.77-2.77-2.73-9-8.91l26.63-26.64,6.47,6.48a197.28,197.28,0,0,1,31.46,41.33l14.57,25.25ZM204.74,295c22.1,22.09,35.41,28.74,62.56,44.41C251.6,312.16,245,299,222.89,276.81Z"></path><path fill="url(#b)" d="M268.82,343.71l2.82-2.82c-14.87-25.78-23.77-43.34-44.4-64l-4.35-4.35L200.5,295l4.35,4.35C225.48,319.93,243,328.81,268.82,343.71Z" style="mix-blend-mode:multiply"></path><path fill="#5e6175" d="M269.31,347.46c-26.62-15.36-44.07-24.24-64.1-43.59-1.83-1.77-2.77-2.73-9-8.91l26.63-26.64,6.47,6.48a197.28,197.28,0,0,1,31.46,41.33l14.57,25.25ZM204.74,295c22.1,22.09,35.41,28.74,62.56,44.41C251.6,312.16,245,299,222.89,276.81Z"></path><circle cx="211.69" cy="283.76" r="15.83" fill="#e1830e" transform="rotate(-6.26 211.738 283.771)"></circle><circle cx="211.69" cy="283.76" r="7.55" fill="#e1830e" transform="rotate(-6.26 211.738 283.771)"></circle><path fill="#e1830e" d="M211.69,302.58a18.82,18.82,0,1,1,18.83-18.82A18.76,18.76,0,0,1,211.69,302.58Zm-9.07-27.89a12.83,12.83,0,1,0,21.9,9.07C224.52,272.33,210.64,266.68,202.62,274.69Z"></path><path fill="url(#c)" d="M352.09,327.45a147.41,147.41,0,0,1-86,92.92C258.33,367.91,301.87,323.55,352.09,327.45Z" style="mix-blend-mode:multiply"></path><path fill="#5e6175" d="M211.69,433.75c-82.7,0-150-67.28-150-150s67.29-150,150-150,150,67.29,150,150S294.4,433.75,211.69,433.75Zm0-294c-79.39,0-144,64.59-144,144s64.6,144,144,144,144-64.59,144-144S291.09,139.77,211.69,139.77Z"></path><circle cx="346.37" cy="408.43" r="64.45" fill="#f5f5f5"></circle><path fill="#5e6175" d="M346.37,475.88a67.45,67.45,0,1,1,67.45-67.45A67.53,67.53,0,0,1,346.37,475.88Zm0-128.9a61.45,61.45,0,1,0,61.45,61.45A61.52,61.52,0,0,0,346.37,347Z"></path><path fill="#e1830e" d="M347.26,369.62h-1.78L313.7,431.44v2.82L346.37,416,379,434.26v-2.82Z"></path><rect width="6" height="19.13" x="138.01" y="52.47" fill="#5e6175" transform="rotate(-45 141.002 62.025)"></rect><rect width="19.13" height="6" x="118.62" y="81.57" fill="#5e6175"></rect><rect width="6" height="19.13" x="159.39" y="39.12" fill="#5e6175"></rect><path fill="#5e6175" d="M460.19 373.65A13.8 13.8 0 11474 359.23 13.83 13.83 0 01460.19 373.65zm0-21.61A7.8 7.8 0 10466 365.11 7.77 7.77 0 00460.2 352zM408.78 327.15a10.5 10.5 0 1110.49-11A10.52 10.52 0 01408.78 327.15zm0-15a4.5 4.5 0 103.32 7.54A4.48 4.48 0 00408.78 312.15z"></path></g></svg>