<svg xmlns="http://www.w3.org/2000/svg" xmlns:xlink="http://www.w3.org/1999/xlink" viewBox="0 0 512 512" id="computer-vision"><defs><linearGradient id="a" x1="248.27" x2="248.27" y1="376.64" y2="465.83" gradientUnits="userSpaceOnUse"><stop offset="0" stop-color="#cacfdd"></stop><stop offset="1" stop-color="#eef0f1"></stop></linearGradient><linearGradient xlink:href="#a" id="b" x1="101.61" x2="389.32" y1="185.82" y2="185.82"></linearGradient><linearGradient xlink:href="#a" id="c" x1="245.47" x2="245.47" y1="-20.34" y2="107.99"></linearGradient></defs><g style="isolation:isolate"><path fill="#a9afc4" d="M438.69,163.79V393.92a11.78,11.78,0,0,1-11.54,12c-118.95,0-367.38.15-357.82.13a11.77,11.77,0,0,1-11.79-11.77V164.16c0-6.42,5.11-12.18,11.53-12.18H426.9A11.93,11.93,0,0,1,438.69,163.79Z"></path><path fill="#dee1ec" d="M438.68,163.8V357.5H57.54V164.26c0-6.48,5.16-12.27,11.64-12.27H426.87A11.94,11.94,0,0,1,438.68,163.8Z"></path><rect width="340.92" height="184.79" x="78.27" y="172.7" fill="#f5f5f5"></rect><polygon fill="#a9afc4" points="292.12 405.95 204.42 405.95 204.47 454.32 292.12 454.32 292.12 405.95"></polygon><path fill="#a9afc4" d="M301.85,473.49l-107.07.11a9.58,9.58,0,0,1-9.6-9.57,9.69,9.69,0,0,1,9.58-9.71H301.83a9.59,9.59,0,0,1,0,19.17Z"></path><path fill="#5e6175" d="M194.77,476.6a12.64,12.64,0,0,1,0-25.28H301.83a12.59,12.59,0,0,1,0,25.17Zm107.07-19.28H194.76a6.67,6.67,0,0,0-4.64,11.36,6.52,6.52,0,0,0,4.65,1.92l107.07-.11a6.59,6.59,0,0,0,0-13.17Z"></path><polygon fill="url(#a)" points="204.42 405.95 292.12 405.95 292.12 430.91 204.44 430.91 204.42 405.95" style="mix-blend-mode:multiply"></polygon><rect width="253.8" height="6" x="123.97" y="470.55" fill="#5e6175"></rect><path fill="#5e6175" d="M295.12 457.32H201.47L201.41 403h93.71zm-87.66-6h81.66V409h-81.7zM422.19 360.5H75.27V169.7H422.19zm-340.92-6H416.19V175.7H81.27z"></path><rect width="117.6" height="20.21" x="112.39" y="261.01" fill="#5e6175"></rect><rect width="117.6" height="20.21" x="112.39" y="227.22" fill="#a9afc4"></rect><rect width="22.1" height="6" x="112.39" y="297.57" fill="#5e6175"></rect><rect width="76.51" height="6" x="153.48" y="297.57" fill="#5e6175"></rect><rect width="22.1" height="6" x="112.39" y="320.37" fill="#5e6175"></rect><rect width="76.51" height="6" x="153.48" y="320.37" fill="#5e6175"></rect><rect width="124.72" height="100.38" x="260.47" y="227.22" fill="#dee1ec"></rect><rect width="16.39" height="6" x="279.24" y="244.69" fill="#5e6175"></rect><rect width="56.72" height="6" x="309.7" y="244.69" fill="#5e6175"></rect><rect width="16.39" height="6" x="279.24" y="266.57" fill="#5e6175"></rect><rect width="56.72" height="6" x="309.7" y="266.57" fill="#5e6175"></rect><rect width="87.16" height="23.13" x="279.26" y="286.71" fill="#a9afc4"></rect><path fill="url(#b)" d="M389.32,152c-37.67,39.89-88.1,67.66-143.85,67.66S139.29,191.88,101.61,152Z" style="mix-blend-mode:multiply"></path><path fill="#5e6175" d="M69.32,409.08a14.77,14.77,0,0,1-14.78-14.77V164.15c0-8.08,6.29-15.16,14.54-15.17H426.89a14.79,14.79,0,0,1,14.8,14.78V393.92a14.78,14.78,0,0,1-14.54,15ZM69.08,155c-4.88,0-8.54,4.37-8.54,9.17V394.31a8.78,8.78,0,0,0,8.79,8.77L427.15,403a8.79,8.79,0,0,0,8.54-9V163.77A8.79,8.79,0,0,0,426.9,155Z"></path><path fill="#f5f5f5" d="M245.47,38.33c-92.73,0-149.07,82.75-149.07,82.75s56.34,82.75,149.07,82.75h0c92.72,0,149.06-82.75,149.06-82.75S338.19,38.33,245.47,38.33Z"></path><path fill="url(#c)" d="M394.53,121.08s-3.26,4.78-9.49,12c-19.7-23-69.14-70.71-139.57-70.71S125.59,110.17,105.9,133.13a151.63,151.63,0,0,1-9.49-12s56.33-82.75,149.06-82.75S394.53,121.08,394.53,121.08Z" style="mix-blend-mode:multiply"></path><path fill="#5e6175" d="M134.28,164.79c-15-12.11-31.11-28.45-41.5-43.71,10.42-15.31,26.52-31.64,41.5-43.72,71-57.23,154.39-54.77,222.37,0,15,12.08,31.09,28.41,41.51,43.72-10.44,15.34-26.57,31.67-41.51,43.71C285.61,222,202.26,219.56,134.28,164.79ZM100.1,121.08a221.85,221.85,0,0,0,38.09,39.15c67.37,54.19,147.46,54.06,214.7-.12a221.13,221.13,0,0,0,37.95-39,222,222,0,0,0-38.1-39.16c-23-18.52-60.32-40.59-107.27-40.59h0c-46.95,0-84.25,22.07-107.28,40.59A221.42,221.42,0,0,0,100.1,121.08Z"></path><circle cx="247.33" cy="121.08" r="60.18" fill="#e1830e"></circle><circle cx="213.15" cy="86.89" r="11.91" fill="#f5f5f5"></circle><path fill="#5e6175" d="M281.54,111v-6H271a8.74,8.74,0,0,0-6.15-6.16V88.32h-6V98.54h-7.24V88.32h-6V98.54h-7.24V88.32h-6V98.84A8.75,8.75,0,0,0,226.3,105H215.77v6H226v7.24H215.77v6H226v7.25H215.77v6H226.3a8.74,8.74,0,0,0,6.16,6.15v10.53h6V143.86h7.24v10.22h6V143.86h7.24v10.22h6V143.55A8.72,8.72,0,0,0,271,137.4h10.53v-6H271.32v-7.25h10.22v-6H271.32V111Z"></path><rect width="29.96" height="28.89" x="233.68" y="106.75" fill="#f5f5f5"></rect><path fill="#5e6175" d="M457.58 406.9a11.83 11.83 0 1121.26-5A11.85 11.85 0 01457.58 406.9zm9.6-12.74a5.83 5.83 0 105.74 6.76A5.84 5.84 0 00467.18 394.16zM420.65 448.36a9.13 9.13 0 111.47-18.14h0a9.13 9.13 0 01-1.47 18.14zm0-12.26a3.13 3.13 0 103.08 3.63A3.14 3.14 0 00420.65 436.1z"></path><rect width="6" height="20.04" x="87.53" y="62.98" fill="#5e6175" transform="rotate(-45 90.525 72.993)"></rect><rect width="20.04" height="6" x="67.07" y="93.61" fill="#5e6175"></rect><rect width="6" height="20.04" x="109.92" y="49" fill="#5e6175"></rect><path fill="#a9afc4" d="M66.78,429.88l.47-6c1.48.12,3.85.1,5.76.1v6C70.2,430,68.7,430,66.78,429.88Zm53.81.12H115v-6h5.58ZM105,430H99v-6h6Zm-16,0H83v-6h6Zm-32.8-2.57a35.73,35.73,0,0,1-5.83-2.93l3.16-5.1a30.41,30.41,0,0,0,4.87,2.45Zm-14.1-9.94a36.65,36.65,0,0,1-3.85-5.27l5.13-3.1a31,31,0,0,0,3.23,4.41Zm-8-15.29a37.7,37.7,0,0,1-1-6.44l6-.4a30.54,30.54,0,0,0,.84,5.39ZM39,385.56H33v-6h6Z"></path></g></svg>