<svg xmlns="http://www.w3.org/2000/svg" xmlns:xlink="http://www.w3.org/1999/xlink" viewBox="0 0 512 512" id="conveyor"><defs><linearGradient id="a" x1="392.56" x2="392.56" y1="418.68" y2="449.57" gradientUnits="userSpaceOnUse"><stop offset="0" stop-color="#cacfdd"></stop><stop offset="1" stop-color="#eef0f1"></stop></linearGradient><linearGradient xlink:href="#a" id="b" x1="344.99" x2="344.99" y1="317.15" y2="204.54"></linearGradient><linearGradient xlink:href="#a" id="c" x1="208.71" x2="208.71" y1="239.26" y2="127.23"></linearGradient></defs><g style="isolation:isolate"><polyline fill="#dee1ec" points="376.71 476 376.71 412.54 408.41 412.54 408.41 476"></polyline><rect width="31.7" height="19.35" x="376.71" y="412.54" fill="url(#a)" style="mix-blend-mode:multiply"></rect><polyline fill="#f5f5f5" points="123.38 382.47 428.73 382.47 428.73 412.54 123.38 412.54"></polyline><polygon fill="#5e6175" points="431.73 415.54 123.38 415.54 123.38 409.54 425.73 409.54 425.73 385.47 123.38 385.47 123.38 379.47 431.73 379.47 431.73 415.54"></polygon><polygon fill="#5e6175" points="411.41 476 405.41 476 405.41 415.54 379.71 415.54 379.71 476 373.71 476 373.71 409.54 411.41 409.54 411.41 476"></polygon><path fill="#e08326" d="M123.38,311.21H395.8a32.93,32.93,0,0,1,32.93,32.93v5.4a32.93,32.93,0,0,1-32.93,32.93H123.38a0,0,0,0,1,0,0V311.21A0,0,0,0,1,123.38,311.21Z"></path><path fill="#dee1ec" d="M123.38,325.25H393.1a21.59,21.59,0,0,1,0,43.18H123.38"></path><path fill="#5e6175" d="M393.1,385.47H123.38v-6H393.1a32.63,32.63,0,0,0,0-65.26H123.38v-6H393.1a38.63,38.63,0,0,1,0,77.26Z"></path><circle cx="239.58" cy="346.84" r="10.88" fill="#5e6175"></circle><circle cx="171.94" cy="346.84" r="10.88" fill="#5e6175"></circle><circle cx="302.86" cy="346.84" r="10.88" fill="#5e6175"></circle><circle cx="366.13" cy="346.84" r="10.88" fill="#5e6175"></circle><rect width="306.32" height="18.57" x="123.38" y="36" fill="#f5f5f5"></rect><rect width="306.32" height="6" x="123.38" y="33" fill="#5e6175"></rect><rect width="306.32" height="6" x="123.38" y="51.57" fill="#5e6175"></rect><path fill="url(#b)" d="M297.1,222v89.17h95.78V222Z"></path><polygon fill="#e08326" points="332.26 222.04 332.26 245.73 336.5 242.72 340.76 245.73 345 242.72 349.24 245.73 353.49 242.72 357.73 245.73 357.73 222.04 332.26 222.04"></polygon><path fill="url(#c)" d="M161.06,144.64v88.71h95.29V144.64Z"></path><path fill="#5e6175" d="M395.88,314.21H294.1V219H395.88Zm-95.78-6h89.78V225H300.1Z"></path><polygon fill="#e08326" points="196.04 144.64 196.04 168.21 200.26 165.22 204.5 168.21 208.72 165.22 212.94 168.21 217.16 165.22 221.38 168.21 221.38 144.64 196.04 144.64"></polygon><path fill="#5e6175" d="M259.35,236.35H158.06V141.64H259.35Zm-95.29-6h89.29V147.64H164.06Z"></path><rect width="17.5" height="6" x="226.44" y="215.28" fill="#5e6175"></rect><rect width="17.59" height="6" x="362.02" y="293.14" fill="#5e6175"></rect><rect width="18.2" height="6" x="398.8" y="201.31" fill="#5e6175" transform="rotate(-45 407.9 204.313)"></rect><rect width="6" height="18.2" x="383.46" y="183" fill="#5e6175"></rect><rect width="18.2" height="6" x="411.5" y="221.65" fill="#5e6175"></rect><path fill="#f5f5f5" d="M263.28,100.58H154.12a18,18,0,0,0-18,18V149a22.56,22.56,0,0,0,22.56,22.56H161v-46.3h95.31v46.3h2.36A22.56,22.56,0,0,0,281.27,149V118.58A18,18,0,0,0,263.28,100.58Z"></path><path fill="#5e6175" d="M258.71,174.54h-5.36V128.23H164v46.31h-5.35A25.59,25.59,0,0,1,133.13,149V118.58a21,21,0,0,1,21-21H263.28a21,21,0,0,1,21,21V149A25.6,25.6,0,0,1,258.71,174.54ZM158,122.23H259.35v46.29A19.59,19.59,0,0,0,278.27,149V118.58a15,15,0,0,0-15-15H154.12a15,15,0,0,0-15,15V149A19.58,19.58,0,0,0,158,168.52Z"></path><path fill="#e08326" d="M240.75,62.54v30.6a11.29,11.29,0,0,1-3.31,8L231,107.53a11.28,11.28,0,0,1-8,3.3H194.82a11.29,11.29,0,0,1-8-3.31l-6.4-6.4a11.31,11.31,0,0,1-3.29-8V62.54a8,8,0,0,1,8-8h47.66A8,8,0,0,1,240.75,62.54Z"></path><path fill="#5e6175" d="M223.05,113.83H194.82a14.17,14.17,0,0,1-10.1-4.19l-6.4-6.4a14.21,14.21,0,0,1-4.17-10.1V62.54a11,11,0,0,1,11-11h47.66a11,11,0,0,1,11,11v30.6a14.19,14.19,0,0,1-4.18,10.1l-6.42,6.41A14.17,14.17,0,0,1,223.05,113.83ZM185.12,57.57a5,5,0,0,0-5,5v30.6A8.26,8.26,0,0,0,182.57,99l6.39,6.4a8.23,8.23,0,0,0,5.86,2.43h28.23a8.26,8.26,0,0,0,5.86-2.42L235.32,99a8.23,8.23,0,0,0,2.43-5.86V62.54a5,5,0,0,0-5-5Z"></path><circle cx="210.04" cy="109.91" r="15.32" fill="#5e6175"></circle><path fill="#e1830e" d="M82.3 440.54a20.55 20.55 0 0120.54 20.55 20.54 20.54 0 0120.54-20.55A20.54 20.54 0 01102.84 420 20.54 20.54 0 0182.3 440.54zM319 109.91a13.24 13.24 0 0113.24 13.24 13.22 13.22 0 0113.23-13.24 13.23 13.23 0 01-13.23-13.24A13.24 13.24 0 01319 109.91z"></path><path fill="#a9afc4" d="M268.42,293.31h-6v-6h6Zm-7.63-14.64a22.29,22.29,0,0,0-2.54-4.61l4.88-3.5a28.87,28.87,0,0,1,3.23,5.86Zm-8.93-10.61a22.39,22.39,0,0,0-4.78-2.24l1.89-5.7A28.41,28.41,0,0,1,255,263Zm-13.7-3.37h-6v-6h6Zm-16,0h-6v-6h6Zm-16,0h-6v-6h6Zm-16,0h-6v-6h6Zm-16,0h-6v-6h6Zm-16,0a35.47,35.47,0,0,1-6.46-.36l1-5.93a29.89,29.89,0,0,0,5.5.29Zm-16.87-4.25a28.34,28.34,0,0,1-5.22-4.18l4.26-4.22a22.59,22.59,0,0,0,4.13,3.3ZM130,247a28,28,0,0,1-1.77-6.47l5.93-.88a22.37,22.37,0,0,0,1.39,5.08Zm3.91-16.89h-6v-6h6Zm0-16h-6v-6h6Zm0-16h-6v-6h6Z"></path></g></svg>