<svg xmlns="http://www.w3.org/2000/svg" xmlns:xlink="http://www.w3.org/1999/xlink" viewBox="0 0 512 512" id="copywriting"><defs><linearGradient id="linear-gradient" x1="237.54" x2="237.54" y1="111.85" y2="351.09" gradientUnits="userSpaceOnUse"><stop offset="0" stop-color="#cacfdd"></stop><stop offset="1" stop-color="#eef0f1"></stop></linearGradient><linearGradient xlink:href="#linear-gradient" id="linear-gradient-2" x1="241.04" x2="241.04" y1="351.27" y2="375.48"></linearGradient><linearGradient xlink:href="#linear-gradient" id="linear-gradient-3" x1="334.12" x2="443.33" y1="334.79" y2="334.79"></linearGradient></defs><g style="isolation:isolate"><g id="Copywriting"><path d="M412.31,135.84V338.33a13.88,13.88,0,0,1-13.87,13.88H83.64a13.88,13.88,0,0,1-13.87-13.88V135.84A13.88,13.88,0,0,1,83.64,122h314.8A13.88,13.88,0,0,1,412.31,135.84Z" fill="#a9afc4"></path><rect width="308.28" height="196.82" x="86.9" y="138.44" fill="#f5f5f5"></rect><rect width="239.96" height="213.29" x="117.56" y="121.97" style="mix-blend-mode:multiply" fill="url(#linear-gradient)"></rect><path d="M429.14,380.56H52.94a14.19,14.19,0,0,1-14.19-14.19V352.21H443.33v14.16A14.19,14.19,0,0,1,429.14,380.56Z" fill="#a9afc4"></path><path d="M264.81,364.08H217.27a5.65,5.65,0,0,1-5.64-5.64v-6.23h58.82v6.23A5.64,5.64,0,0,1,264.81,364.08Z" style="mix-blend-mode:multiply" fill="url(#linear-gradient-2)"></path><path d="M443.33,352.21v14.16a14.19,14.19,0,0,1-14.19,14.19H335.21C327.22,333,364,289.3,412.31,289v49.31a13.89,13.89,0,0,1-13.88,13.88Z" style="mix-blend-mode:multiply" fill="url(#linear-gradient-3)"></path><path d="M429.14,383.56H52.94a17.21,17.21,0,0,1-17.19-17.19V349.21H446.33v17.16A17.21,17.21,0,0,1,429.14,383.56ZM41.75,355.21v11.16a11.2,11.2,0,0,0,11.19,11.19h376.2a11.2,11.2,0,0,0,11.19-11.19V355.21Z" fill="#5e6175"></path><path d="M398.44,355.21H83.65a16.9,16.9,0,0,1-16.88-16.88V135.84A16.89,16.89,0,0,1,83.65,119H398.44a16.89,16.89,0,0,1,16.87,16.87V338.33A16.89,16.89,0,0,1,398.44,355.21ZM83.65,125a10.89,10.89,0,0,0-10.88,10.87V338.33a10.89,10.89,0,0,0,10.88,10.88H398.44a10.89,10.89,0,0,0,10.87-10.88V135.84A10.89,10.89,0,0,0,398.44,125Z" fill="#5e6175"></path><circle cx="412.8" cy="367.67" r="63.2" fill="#f5f5f5"></circle><path d="M412.8,433.87a66.21,66.21,0,1,1,66.2-66.2A66.27,66.27,0,0,1,412.8,433.87Zm0-126.41A60.21,60.21,0,1,0,473,367.67,60.27,60.27,0,0,0,412.8,307.46Z" fill="#5e6175"></path><polygon points="384.52 375.46 412.7 347.29 431.77 366.36 403.59 394.54 382.24 396.82 384.52 375.46" fill="#e1830e"></polygon><path d="M419.59,340.39l2.68-2.67a13.48,13.48,0,0,1,19.07,19.07l-2.68,2.68Z" fill="#e1830e"></path><rect width="209.06" height="258.68" x="133.01" y="76.58" fill="#f5f5f5"></rect><polygon points="345.07 335.26 339.07 335.26 339.07 79.58 136.01 79.58 136.01 335.26 130.01 335.26 130.01 73.58 345.07 73.58 345.07 335.26" fill="#5e6175"></polygon><rect width="118.46" height="11.34" x="178.82" y="172.53" fill="#a9afc4"></rect><rect width="32.81" height="11.34" x="178.82" y="204.15" fill="#a9afc4"></rect><rect width="42.47" height="11.34" x="227.98" y="204.15" fill="#a9afc4"></rect><rect width="118.46" height="11.34" x="178.82" y="235.77" fill="#a9afc4"></rect><rect width="91.63" height="11.34" x="178.82" y="267.38" fill="#a9afc4"></rect><rect width="118.46" height="11.34" x="178.82" y="299" fill="#a9afc4"></rect><rect width="118.46" height="33.2" x="178.82" y="114.52" fill="#dee1ec"></rect><rect width="18.05" height="6" x="418.21" y="106.35" transform="rotate(-45.01 427.211 109.356)" fill="#5e6175"></rect><rect width="6" height="18.05" x="402.97" y="88.22" fill="#5e6175"></rect><rect width="18.05" height="6" x="430.8" y="126.53" fill="#5e6175"></rect><path d="M357.9,436.7c-1.68-1.24-3.32-2.55-4.86-3.88l3.92-4.55c1.43,1.24,3,2.45,4.51,3.61Zm-12.27-11.17c-1.4-1.57-2.72-3.21-3.95-4.86l4.82-3.57c1.12,1.51,2.34,3,3.62,4.45Zm-9.57-12.7a22.27,22.27,0,0,0-4-3.4l3.29-5a27.91,27.91,0,0,1,5.13,4.32Zm-12.16-6.7a25.65,25.65,0,0,0-5.4-.42v-6a30.52,30.52,0,0,1,6.54.53Zm-15.4-.42h-6v-6h6Zm-16,0h-6v-6h6Zm-16,0h-6v-6h6Z" fill="#a9afc4"></path><path d="M86 105.2A13.24 13.24 0 1 1 98.65 87.94 13.24 13.24 0 0 1 86 105.2Zm0-20.48a7.24 7.24 0 1 0 6.89 5A7.25 7.25 0 0 0 86 84.72ZM42 146.46a9 9 0 1 1 8.57-11.72A9 9 0 0 1 42 146.46Zm0-12a3 3 0 1 0 2.84 2.08A3 3 0 0 0 42 134.49Z" fill="#5e6175"></path></g></g></svg>