<svg xmlns="http://www.w3.org/2000/svg" xmlns:xlink="http://www.w3.org/1999/xlink" viewBox="0 0 512 512" id="correction-fluid"><defs><linearGradient id="a" x1="87.43" x2="178.07" y1="387.67" y2="387.67" gradientUnits="userSpaceOnUse"><stop offset="0" stop-color="#cacfdd"></stop><stop offset="1" stop-color="#eef0f1"></stop></linearGradient><linearGradient xlink:href="#a" id="b" x1="391.44" x2="391.44" y1="336.56" y2="448.83"></linearGradient></defs><g style="isolation:isolate"><rect width="342.73" height="134.28" x="89.13" y="192.25" fill="#f5f5f5" rx="14.23" transform="rotate(-45 260.493 259.39)"></rect><path fill="#5e6175" d="M174.62,420.1,99.79,345.27a17.24,17.24,0,0,1,0-24.36c.1,0-5.61,5.61,222.23-222.23a17.24,17.24,0,0,1,24.36,0l74.83,74.83a17.22,17.22,0,0,1,0,24.36L199,420.1A17.22,17.22,0,0,1,174.62,420.1Zm-70.59-95A11.24,11.24,0,0,0,104,341l74.83,74.83a11.26,11.26,0,0,0,15.88,0L417,193.63a11.24,11.24,0,0,0,0-15.88l-74.83-74.83a11.25,11.25,0,0,0-15.88,0Z"></path><path fill="#f5f5f5" d="M136.92,432.94l-4.42-.65a43,43,0,0,0-31.25,7.6A15.68,15.68,0,0,1,79.39,418a44.52,44.52,0,0,0,8.12-31.2L87,382.65a48.32,48.32,0,0,1,14.24-40.15l76.79,76.8A48.31,48.31,0,0,1,136.92,432.94Z"></path><rect width="440" height="6" x="36" y="455.16" fill="#5e6175"></rect><path fill="#f5f5f5" d="M419.07,175.61l-74-74,8.26-8.26a13.33,13.33,0,0,1,18.84,0l55.19,55.19a13.33,13.33,0,0,1,0,18.84Z"></path><rect width="275.49" height="134.3" x="122.68" y="192.32" fill="#dee1ec" transform="rotate(-45 260.417 259.472)"></rect><path fill="#5e6175" d="M210.5 408.59l-99.2-99.2 199-199 99.21 99.2zm-90.71-99.2l90.71 90.72L401.06 209.55l-90.72-90.72zM419.07 179.85L340.8 101.58 351.18 91.2a16.34 16.34 0 0123.08 0l55.19 55.19a16.31 16.31 0 010 23.08zm-69.79-78.27l69.79 69.78 6.14-6.14a10.31 10.31 0 000-14.59L370 95.44a10.34 10.34 0 00-14.6 0z"></path><rect width="29.34" height="6" x="56.51" y="444.79" fill="#5e6175" transform="rotate(-45.01 71.162 447.763)"></rect><path fill="url(#a)" d="M178.07,419.3a48.24,48.24,0,0,1-26.56,13.54L87.43,368.76c1.84-10.56,6.66-18.93,13.83-26.26Z" style="mix-blend-mode:multiply"></path><path fill="#5e6175" d="M92.1,445.85c-14.92,0-24.21-17.05-15.14-29.62a41.48,41.48,0,0,0,7.57-29.1L84.05,383a51,51,0,0,1,14.68-42.21l2.53-2.53,81.05,81-2.13,2.12a51.53,51.53,0,0,1-43.69,14.49l-4.43-.65A39.81,39.81,0,0,0,103,442.33,18.64,18.64,0,0,1,92.1,445.85Zm9.21-99.06A45,45,0,0,0,90,382.3l.48,4.14a47.41,47.41,0,0,1-8.66,33.3A12.68,12.68,0,0,0,99.5,437.46a45.75,45.75,0,0,1,33.43-8.14l4.42.65a45.54,45.54,0,0,0,36.4-10.74Z"></path><path fill="#a9afc4" d="M378.6,271.39l-4.25-4.24,3.69-3.69,4.24,4.24Zm10.75-10.76-4.24-4.24,4.24-4.24,4.24,4.24Zm11.32-11.31-4.25-4.24,4.25-4.25,4.24,4.25ZM412,238l-4.24-4.25,4.24-4.24,4.24,4.24Zm11.31-11.32-4.24-4.24,4.24-4.24,4.25,4.24Zm11.37-11.51-4.49-4a48.4,48.4,0,0,0,3.51-4.43l4.91,3.44A55.33,55.33,0,0,1,434.66,215.18ZM443.79,201l-5.47-2.44a50.37,50.37,0,0,0,2-5.29L446,195.1A54.18,54.18,0,0,1,443.79,201Zm4.46-16.25-6-.68a50.82,50.82,0,0,0,.32-5.65h6A55.7,55.7,0,0,1,448.25,184.77Z"></path><path fill="#f5f5f5" d="M458 458.19V356.38a14.23 14.23 0 00-14.22-14.23H338a14.23 14.23 0 00-14.23 14.23V458.19zM443.77 342.15H339.09V330.47a13.32 13.32 0 0113.32-13.32h78a13.32 13.32 0 0113.32 13.32z"></path><path fill="#5e6175" d="M446.77,345.15H336.09V330.47a16.34,16.34,0,0,1,16.32-16.32h78a16.34,16.34,0,0,1,16.32,16.32Zm-104.68-6h98.68v-8.68a10.33,10.33,0,0,0-10.32-10.32h-78a10.33,10.33,0,0,0-10.32,10.32Z"></path><path fill="url(#b)" d="M432.14,418.5a30,30,0,0,1-30,30H380.71a30,30,0,0,1-30-30c0-76.75-.28-71.92.71-76.35h80C432.44,346.71,432.14,343.34,432.14,418.5Z" style="mix-blend-mode:multiply"></path><path fill="#5e6175" d="M461,461.19H320.75V356.38A17.25,17.25,0,0,1,338,339.15H443.81A17.25,17.25,0,0,1,461,356.38Zm-134.28-6H455V356.38a11.24,11.24,0,0,0-11.22-11.23H338a11.25,11.25,0,0,0-11.23,11.23Z"></path><rect width="50.12" height="98.51" x="366.37" y="334.33" fill="#dee1ec" rx="14.33"></rect><path fill="#5e6175" d="M402.16 435.84H380.71a17.36 17.36 0 01-17.34-17.34V348.67a17.36 17.36 0 0117.34-17.34h21.45a17.36 17.36 0 0117.33 17.34V418.5A17.36 17.36 0 01402.16 435.84zm-21.45-98.51a11.36 11.36 0 00-11.34 11.34V418.5a11.36 11.36 0 0011.34 11.34h21.45a11.35 11.35 0 0011.33-11.34V348.67a11.35 11.35 0 00-11.33-11.34zM194.55 326a17.44 17.44 0 010-24.68L302.29 193.6A17.45 17.45 0 01327 218.28L219.23 326A17.44 17.44 0 01194.55 326zM381.4 76.13a12.65 12.65 0 1110.78-6A12.68 12.68 0 01381.4 76.13zm0-19.32A6.67 6.67 0 10387.08 67h0A6.67 6.67 0 00381.42 56.81zM319.06 76.54A9.7 9.7 0 11327.33 72 9.7 9.7 0 01319.06 76.54zm0-13.41a3.71 3.71 0 103.16 5.66h0A3.71 3.71 0 00319.07 63.13z"></path><path fill="#e1830e" d="M68.17 298.06A12.85 12.85 0 0181 310.92a12.85 12.85 0 0112.86-12.86A12.85 12.85 0 0181 285.21 12.85 12.85 0 0168.17 298.06zM193.69 125.64A26.26 26.26 0 01220 151.9a26.26 26.26 0 0126.25-26.26A26.25 26.25 0 01220 99.39 26.26 26.26 0 01193.69 125.64z"></path></g></svg>