<svg xmlns="http://www.w3.org/2000/svg" viewBox="0 0 512 512" id="cutter"><defs><linearGradient id="a" x1="127.47" x2="309.44" y1="278.89" y2="278.89" gradientUnits="userSpaceOnUse"><stop offset="0" stop-color="#cacfdd"></stop><stop offset="1" stop-color="#eef0f1"></stop></linearGradient></defs><g style="isolation:isolate"><path fill="#f5f5f5" d="M476,96,336,236.05l-69.83-69.82,79.3-79.3a21,21,0,0,0,35.4-10.59Z"></path><path fill="#5e6175" d="M336,240.3l-74.07-74.07,83.54-83.54,2.12,2.12a18,18,0,0,0,30.35-9.08l.6-2.94,103.56,21.4Zm-65.58-74.07L336,231.81l134-134-87-18A24,24,0,0,1,345.55,91Z"></path><rect width="6" height="118.18" x="372.13" y="67.95" fill="#5e6175" transform="rotate(-78.33 375.111 127.052)"></rect><path fill="#dee1ec" d="M87.34,428.58,104,445.26a86.06,86.06,0,0,0,144.4-81.52l-3-12L359.7,237.48l-21-80.51-80.51-21L87.33,306.87A86.07,86.07,0,0,0,87.34,428.58Z"></path><path fill="#5e6175" d="M164.87,473.43a88.74,88.74,0,0,1-63-26.05L85.21,430.7a89.17,89.17,0,0,1,0-125.95l172.1-172.09,83.87,21.85L363,238.39,248.77,352.66,251.33,363C265.07,418.56,223.29,473.43,164.87,473.43Zm-58.73-30.29a82.5,82.5,0,0,0,58.73,24.33c54.3,0,93.48-51.08,80.63-103l-3.37-13.65L356.36,236.57l-20.1-77.14-77.14-20.1L89.46,309a83.15,83.15,0,0,0,0,117.47C89.56,426.46,88.28,425.29,106.14,443.14Z"></path><path fill="#dee1ec" d="M309.44,218.84,164.83,363.47a21.88,21.88,0,0,1-31-31L278.5,187.9Z"></path><path fill="url(#a)" d="M309.44,218.84,164.83,363.47a21.88,21.88,0,0,1-31-31L278.5,187.9Z" style="mix-blend-mode:multiply"></path><path fill="#5e6175" d="M268.25,282.81l-8.81,8.81a37.36,37.36,0,0,1-52.84-52.84l8.81-8.81a37.36,37.36,0,0,1,52.84,52.84Z"></path><circle cx="182.4" cy="415.83" r="19.76" fill="#e1830e"></circle><path fill="#5e6175" d="M378.88 304.55a15 15 0 1114.79-18A15 15 0 01378.88 304.55zm-8.83-13.26A9 9 0 10383.94 282 9 9 0 00370.05 291.29zM431.65 245.05a10 10 0 115.56-18.24C445.26 232.17 441.65 245.05 431.65 245.05zm-3.86-9.18a4 4 0 106.09-4.07A4 4 0 00427.79 235.87z"></path><path fill="#e1830e" d="M148.24 177.22a16.39 16.39 0 0116.39 16.39A16.39 16.39 0 01181 177.22a16.39 16.39 0 01-16.39-16.39A16.39 16.39 0 01148.24 177.22zM237.43 72.38a30.85 30.85 0 0130.84 30.85 30.85 30.85 0 0130.85-30.85 30.85 30.85 0 01-30.85-30.85A30.85 30.85 0 01237.43 72.38z"></path><path fill="#a9afc4" d="M70.14,451l-4.25-4.25,4.26-4.23,4.23,4.24ZM59,439.15c-1.3-1.58-2.58-3.21-3.8-4.85L60,430.73c1.15,1.56,2.36,3.1,3.6,4.6Zm-9.52-13.38c-1.06-1.75-2.09-3.55-3.06-5.35l5.29-2.84c.92,1.71,1.89,3.42,2.9,5.07ZM42,411.15c-.8-1.88-1.56-3.81-2.25-5.74l5.64-2c.66,1.83,1.38,3.65,2.13,5.43ZM36.71,395.6c-.52-2-1-4-1.4-6l5.88-1.2c.39,1.9.83,3.81,1.32,5.69Zm-3-16.14c-.23-2-.4-4.1-.52-6.14l6-.34c.11,1.93.28,3.89.49,5.81Zm5.35-16.21-6-.19c.06-2.05.19-4.11.36-6.15l6,.51C39.23,359.35,39.12,361.31,39.06,363.25Zm1.61-15.47-5.91-1c.36-2,.77-4,1.24-6l5.84,1.36C41.4,344,41,345.87,40.67,347.78Zm3.81-15.08-5.7-1.88c.65-1.95,1.35-3.9,2.1-5.8l5.58,2.2C45.76,329,45.09,330.86,44.48,332.7Zm6-14.36-5.37-2.69C46,313.82,47,312,48,310.22l5.21,3C52.22,314.88,51.3,316.61,50.43,318.34Zm8-13.35-4.92-3.44c1.18-1.67,2.41-3.34,3.67-4.95l4.72,3.7C60.67,301.83,59.5,303.4,58.39,305Zm9.81-12.07-4.37-4.11c1.5-1.6,2.58-2.66,4.27-4.35l4.24,4.25C70.67,290.37,69.68,291.34,68.2,292.92Zm11.21-11.28-4.24-4.25,4.24-4.24,4.24,4.24Zm11.31-11.32-4.24-4.24,4.24-4.24L95,266.08ZM102,259l-4.25-4.24,4.25-4.25,4.24,4.25Zm11.31-11.31-4.24-4.25,4.24-4.24,4.24,4.24Z"></path><rect width="245.26" height="6" x="165.13" y="467.2" fill="#5e6175"></rect></g></svg>