<svg xmlns="http://www.w3.org/2000/svg" xmlns:xlink="http://www.w3.org/1999/xlink" viewBox="0 0 512 512" id="data-analysis"><defs><linearGradient id="a" x1="240.06" x2="240.06" y1="337.74" y2="423.56" gradientUnits="userSpaceOnUse"><stop offset="0" stop-color="#cacfdd"></stop><stop offset="1" stop-color="#eef0f1"></stop></linearGradient><linearGradient xlink:href="#a" id="b" x1="336.37" x2="423.29" y1="326.14" y2="326.14"></linearGradient></defs><g style="isolation:isolate"><path fill="#a9afc4" d="M423.29,132.93V354.36a11.33,11.33,0,0,1-11.1,11.57c-71.74,0,3.05,0-344.31.14a11.33,11.33,0,0,1-11.34-11.33c0-231.3,0-221.63,0-222,.24-5.86,4.94-11.21,11.19-11.21,364.8,0,344.47-.07,345.89.13A11.5,11.5,0,0,1,423.29,132.93Z"></path><path fill="#dee1ec" d="M423.29,132.93V319.31H56.54c0-194.89,0-186.23,0-186.54.3-6,5.18-11.21,11.19-11.21,364.8,0,344.47-.07,345.89.13A11.53,11.53,0,0,1,423.29,132.93Z"></path><rect width="328.04" height="177.81" x="76.48" y="141.5" fill="#f5f5f5"></rect><path fill="#e1830e" d="M217.45,214.13H169.58L162.49,207H122.9l-11.29,11.29v71.5H241.72V238.4C232.89,229.58,237.5,234.19,217.45,214.13Z"></path><polygon fill="#a9afc4" points="282.25 365.94 197.86 365.94 197.91 412.48 282.25 412.48 282.25 365.94"></polygon><path fill="#a9afc4" d="M291.61,430.93l-103,.11a9.28,9.28,0,0,1,0-18.56h103a9.23,9.23,0,0,1,0,18.45Z"></path><path fill="#5e6175" d="M188.58,434a12.28,12.28,0,0,1,0-24.56h103a12.23,12.23,0,0,1,0,24.45Zm0-18.56a6.28,6.28,0,0,0,0,12.56l103-.11a6.23,6.23,0,1,0,0-12.45Z"></path><polygon fill="url(#a)" points="197.86 365.94 282.25 365.94 282.25 389.96 197.89 389.96 197.86 365.94" style="mix-blend-mode:multiply"></polygon><rect width="244.22" height="6" x="120.46" y="427.98" fill="#5e6175"></rect><path fill="#5e6175" d="M285.25,415.48H194.91l0-52.54h90.39Zm-84.34-6h78.34V368.94H200.87Z"></path><path fill="#a9afc4" d="M35.54,154.55v-6h6v6Zm0-16v-6h6v6Zm7.07-15-5.74-1.73a31.6,31.6,0,0,1,2.55-6.1l5.26,2.89A26.08,26.08,0,0,0,42.6,123.53Zm7.65-11.9-4-4.5a31.74,31.74,0,0,1,5.39-3.83l2.95,5.22A25.85,25.85,0,0,0,50.25,111.63ZM63,105.57l-1-5.92a34.57,34.57,0,0,1,6.46-.43v6A29.14,29.14,0,0,0,63,105.57Zm15.49-.36v-6h6v6Zm16,0v-6h6v6Zm16,0v-6h6v6Zm16,0v-6h6v6Z"></path><rect width="20.22" height="6" x="428.63" y="101.54" fill="#5e6175" transform="rotate(-45.05 438.77 104.537)"></rect><rect width="6" height="20.22" x="411.91" y="80.9" fill="#5e6175" transform="translate(-.09 .42)"></rect><rect width="20.22" height="6" x="442.76" y="124.12" fill="#5e6175"></rect><path fill="#5e6175" d="M407.53,322.31h-334V138.5h334Zm-328-6h322V144.5h-322Z"></path><polygon fill="#dee1ec" points="222.71 269.01 205.38 251.68 187.35 251.68 181.04 257.99 141.47 257.99 111.61 287.85 111.61 289.83 241.72 289.83 241.72 269.01 222.71 269.01"></polygon><path fill="#a9afc4" d="M257.26,245.66h-5.58v-6h5.58Zm-15.58,0h-6v-6h6Zm-16,0h-6v-6h6Zm-16,0h-6v-6h6Zm-16,0h-6v-6h6Zm-16,0h-6v-6h6Zm-16,0h-6v-6h6Zm-16,0h-6v-6h6Zm-16,0h-6v-6h6Z"></path><polygon fill="#5e6175" points="255.35 292.83 108.61 292.83 108.61 180.87 114.61 180.87 114.61 286.83 255.35 286.83 255.35 292.83"></polygon><path fill="#a9afc4" d="M257.26,201.61h-5.58v-6h5.58Zm-15.58,0h-6v-6h6Zm-16,0h-6v-6h6Zm-16,0h-6v-6h6Zm-16,0h-6v-6h6Zm-16,0h-6v-6h6Zm-16,0h-6v-6h6Zm-16,0h-6v-6h6Zm-16,0h-6v-6h6Z"></path><rect width="64.7" height="14.86" x="306.2" y="169.45" fill="#dee1ec"></rect><rect width="64.7" height="14.86" x="306.2" y="203.5" fill="#e1830e"></rect><circle cx="284.1" cy="176.88" r="7.43" fill="#606060"></circle><circle cx="284.1" cy="210.93" r="7.43" fill="#606060"></circle><rect width="91.8" height="50.05" x="279.1" y="242.66" fill="#a9afc4"></rect><path fill="#5e6175" d="M67.87,369.07a14.36,14.36,0,0,1-14.33-14.33V133.27c0-7.87,6.12-14.7,14.09-14.71H412a14.37,14.37,0,0,1,14.34,14.34V354.37a14.36,14.36,0,0,1-14.1,14.57Zm-.23-244.51c-4.58,0-8.11,4.09-8.1,8.71V354.74a8.34,8.34,0,0,0,8.33,8.33l344.31-.13a8.36,8.36,0,0,0,8.11-8.57V132.9a8.36,8.36,0,0,0-8.34-8.34Z"></path><path fill="url(#b)" d="M423.29,287v67.39a11.33,11.33,0,0,1-11.1,11.57H336.45a77.08,77.08,0,0,1,86.84-79Z" style="mix-blend-mode:multiply"></path><circle cx="413.48" cy="363.44" r="60" fill="#f5f5f5"></circle><path fill="#5e6175" d="M413.48,426.44a63,63,0,1,1,63-63A63.07,63.07,0,0,1,413.48,426.44Zm0-120a57,57,0,1,0,57,57A57.06,57.06,0,0,0,413.48,306.44Z"></path><path fill="#e1830e" d="M453.69,350.94v-7.31H440.82a10.69,10.69,0,0,0-7.53-7.52V323.24H426v12.49h-8.86V323.24h-7.3v12.49H401V323.24h-7.31v12.87a10.66,10.66,0,0,0-7.52,7.52H373.28v7.31h12.49v8.85H373.28v7.3h12.49V376H373.28v7.3h12.87a10.67,10.67,0,0,0,7.52,7.53v12.87H401v-12.5h8.85v12.5h7.3v-12.5H426v12.5h7.3V390.78a10.7,10.7,0,0,0,7.53-7.53h12.87V376h-12.5v-8.86h12.5v-7.3h-12.5v-8.85Z"></path></g></svg>