<svg xmlns="http://www.w3.org/2000/svg" xmlns:xlink="http://www.w3.org/1999/xlink" viewBox="0 0 512 512" id="data-mining"><defs><linearGradient id="a" x1="58.06" x2="82.81" y1="387.38" y2="387.38" gradientUnits="userSpaceOnUse"><stop offset="0" stop-color="#cacfdd"></stop><stop offset="1" stop-color="#eef0f1"></stop></linearGradient><linearGradient xlink:href="#a" id="b" x1="198.26" x2="223.01" y1="387.38" y2="387.38"></linearGradient><linearGradient xlink:href="#a" id="c" x1="338.46" x2="363.21" y1="387.38" y2="387.38"></linearGradient><linearGradient xlink:href="#a" id="d" x1="122.39" x2="152.23" y1="135.8" y2="135.8"></linearGradient><linearGradient xlink:href="#a" id="e" x1="120.17" x2="152.23" y1="170.58" y2="170.58"></linearGradient><linearGradient xlink:href="#a" id="f" x1="125.12" x2="152.23" y1="208.94" y2="208.94"></linearGradient><linearGradient xlink:href="#a" id="g" x1="349.07" x2="375.87" y1="131.52" y2="131.52"></linearGradient><linearGradient xlink:href="#a" id="h" x1="349.07" x2="376.48" y1="200.36" y2="200.36"></linearGradient><linearGradient xlink:href="#a" id="i" x1="349.07" x2="378.97" y1="167.38" y2="167.38"></linearGradient></defs><g style="isolation:isolate"><rect width="19.34" height="6" x="343.78" y="61.44" fill="#5e6175" transform="rotate(-45.01 353.429 64.45)"></rect><rect width="6" height="19.34" x="327.67" y="41.81" fill="#5e6175"></rect><rect width="19.34" height="6" x="357.27" y="83.05" fill="#5e6175"></rect><path fill="#a9afc4" d="M39,456.09H33v-6h6Zm0-16H33v-6h6Zm0-16H33v-6h6Zm0-16H33v-6h6Zm.47-15.29-5.85-1.34a24.59,24.59,0,0,1,2.43-6.37L41.3,388A18.44,18.44,0,0,0,39.47,392.8Zm7.74-11.75L43,376.81l4.24-4.25,4.25,4.25Z"></path><path fill="#5e6175" d="M430.06 345.33a11.52 11.52 0 118.47-3.72A11.42 11.42 0 01430.06 345.33zm-.23-17a5.52 5.52 0 104.29 9.25 5.51 5.51 0 00-4.29-9.25zM470.09 385.7a8.91 8.91 0 116.56-2.87A8.93 8.93 0 01470.09 385.7zM470 373.88a2.91 2.91 0 102.26 4.88 2.9 2.9 0 00-2.26-4.88z"></path><polygon fill="#f5f5f5" points="158.93 374.64 158.93 466.2 58.06 466.2 58.06 397.65 79.98 374.64 158.93 374.64"></polygon><polygon fill="url(#a)" points="82.81 374.64 82.81 400.12 58.06 400.12 58.06 397.65 79.98 374.64 82.81 374.64" style="mix-blend-mode:multiply"></polygon><polygon fill="#f5f5f5" points="299.13 374.64 299.13 466.2 198.26 466.2 198.26 397.65 220.18 374.64 299.13 374.64"></polygon><polygon fill="url(#b)" points="223.01 374.64 223.01 400.12 198.26 400.12 198.26 397.65 220.18 374.64 223.01 374.64" style="mix-blend-mode:multiply"></polygon><polygon fill="#f5f5f5" points="439.32 374.64 439.32 466.2 338.46 466.2 338.46 397.65 360.38 374.64 439.32 374.64"></polygon><path fill="#5e6175" d="M161.93 469.2H55.06V396.45L78.7 371.64h83.23zm-100.87-6h94.87V377.64H81.27L61.06 398.85zM302.13 469.2H195.26V396.45l23.64-24.81h83.23zm-100.87-6h94.87V377.64H221.47l-20.21 21.21zM442.33 469.2H335.46V396.45l23.64-24.81h83.23zm-100.87-6h94.87V377.64H361.67l-20.21 21.21z"></path><polygon fill="url(#c)" points="363.21 374.64 363.21 400.12 338.46 400.12 338.46 397.65 360.38 374.64 363.21 374.64" style="mix-blend-mode:multiply"></polygon><path fill="#5e6175" d="M85.81 403.12H55.06v-6.67L78.7 371.64h7.11zm-23.09-6H79.81V379.18zM226 403.12H195.26v-6.67l23.64-24.81H226zm-23.09-6H220V379.18zM366.21 403.12H335.46v-6.67l23.64-24.81h7.11zm-23.09-6h17.09V379.18z"></path><polygon fill="#5e6175" points="392.33 359.47 386.33 359.47 386.33 331.91 111.93 331.91 111.93 359.47 105.93 359.47 105.93 325.91 392.33 325.91 392.33 359.47"></polygon><rect width="6" height="61.08" x="246.13" y="298.39" fill="#5e6175"></rect><path fill="#e1830e" d="M152.23,199.1v15.26h-17l-36,36H58.06V235.12H92.89l36-36Z"></path><rect width="92.36" height="15.27" x="349.07" y="159.74" fill="#e1830e"></rect><polygon fill="#e1830e" points="420.85 110.79 392.49 139.15 349.07 139.15 349.07 123.89 386.17 123.89 410.06 100 420.85 110.79"></polygon><polygon fill="#e1830e" points="447.92 219.88 447.92 235.15 411.8 235.15 384.64 207.99 349.07 207.99 349.07 192.72 390.97 192.72 418.13 219.88 447.92 219.88"></polygon><polygon fill="#e1830e" points="152.23 162.94 152.23 178.21 112.09 178.21 90.76 199.54 79.97 188.73 105.77 162.94 152.23 162.94"></polygon><rect width="92.78" height="15.27" x="59.46" y="128.17" fill="#e1830e"></rect><circle cx="439.33" cy="167.38" r="17.43" fill="#5e6175" transform="rotate(-22.05 439.321 167.37)"></circle><circle cx="58.06" cy="242.75" r="17.43" fill="#5e6175" transform="rotate(-22.05 58.052 242.76)"></circle><circle cx="85.37" cy="194.14" r="17.43" fill="#5e6175" transform="rotate(-22.05 85.371 194.143)"></circle><circle cx="59.45" cy="135.81" r="17.43" fill="#5e6175" transform="rotate(-22.05 59.443 135.817)"></circle><circle cx="415.45" cy="103.78" r="17.43" fill="#5e6175" transform="rotate(-22.05 415.459 103.773)"></circle><circle cx="450.9" cy="227.52" r="17.43" fill="#5e6175" transform="rotate(-22.05 450.911 227.511)"></circle><path fill="url(#d)" d="M126.24,128.17h26v15.27H122.39A126.79,126.79,0,0,1,126.24,128.17Z" style="mix-blend-mode:multiply"></path><path fill="url(#e)" d="M120.24,162.94h32v15.27H120.62A129.45,129.45,0,0,1,120.24,162.94Z" style="mix-blend-mode:multiply"></path><path fill="url(#f)" d="M128.92,199.1h23.31v15.26h-17l-4.42,4.42a128,128,0,0,1-5.7-15.88Z" style="mix-blend-mode:multiply"></path><path fill="url(#g)" d="M375.87,139.15h-26.8V123.89h22.38A129.27,129.27,0,0,1,375.87,139.15Z" style="mix-blend-mode:multiply"></path><path fill="url(#h)" d="M349.07,192.72h27.41a129.26,129.26,0,0,1-4,15.27H349.07Z" style="mix-blend-mode:multiply"></path><path fill="url(#i)" d="M378.74,175H349.07V159.74h29.67A127.53,127.53,0,0,1,378.74,175Z" style="mix-blend-mode:multiply"></path><path fill="#a9afc4" d="M249.57,53.25A114.13,114.13,0,1,0,363.7,167.38,114.14,114.14,0,0,0,249.57,53.25Zm0,208.87a94.75,94.75,0,1,1,94.74-94.74A94.74,94.74,0,0,1,249.57,262.12Z"></path><path fill="#5e6175" d="M249.57,284.51A117.13,117.13,0,1,1,366.7,167.38,117.27,117.27,0,0,1,249.57,284.51Zm0-228.26A111.13,111.13,0,1,0,360.7,167.38,111.26,111.26,0,0,0,249.57,56.25Zm0,208.87a97.75,97.75,0,1,1,97.74-97.74A97.85,97.85,0,0,1,249.57,265.12Zm0-189.49a91.75,91.75,0,1,0,91.74,91.75A91.86,91.86,0,0,0,249.57,75.63Z"></path><path fill="#e1830e" d="M211.45 117.2l-13 13-6.14-6.14a8.34 8.34 0 010-11.8l1.18-1.19a8.34 8.34 0 0111.8 0zM305.35 222.9l-1.19 1.19a8.34 8.34 0 01-11.8 0L221.24 153l13-13 71.12 71.11A8.36 8.36 0 01305.35 222.9z"></path><path fill="#dee1ec" d="M271.64,109.46a68.32,68.32,0,0,0-53.09,10.81l-5.09-5.09-17,17,5.08,5.08a68.34,68.34,0,0,0-10.8,53.1l1.11,5.32,6-6,.37-3a68.45,68.45,0,0,1,16.35-36.36l4.64,4.64,17-17-4.64-4.64A68.27,68.27,0,0,1,268,117l3-.38,6-6Z"></path><rect width="24.08" height="32.22" x="204.3" y="118.98" fill="#dee1ec" transform="rotate(-45 216.336 135.09)"></rect><path fill="#5e6175" d="M190,201.75,187.78,191a71.61,71.61,0,0,1,9.88-53.33l-5.46-5.46,21.26-21.27,5.47,5.46a71.6,71.6,0,0,1,53.33-9.87L283,108.78l-10.66,10.67-4,.5a65,65,0,0,0-32.29,13.58l4.43,4.44-21.27,21.26-4.43-4.43a65,65,0,0,0-13.58,32.29l-.51,4Zm10.64-69.54,4.74,4.74L204,139a65.56,65.56,0,0,0-10.35,50.66l1.38-1.38.25-2a71.06,71.06,0,0,1,17.07-38l2.11-2.42,4.78,4.79L232,138l-4.79-4.79,2.42-2.11A71,71,0,0,1,267.59,114l2-.25,1.37-1.37a65.58,65.58,0,0,0-50.66,10.35l-2.06,1.43-4.74-4.73Z"></path><path fill="#5e6175" d="M219.22,159.23l-27-27,21.26-21.27,27,27Zm-18.54-27,18.54,18.54L232,138l-18.55-18.54Z"></path><rect width="34.24" height="6" x="103.73" y="397.12" fill="#5e6175"></rect><rect width="58.56" height="6" x="79.41" y="417.42" fill="#5e6175"></rect><rect width="58.56" height="6" x="79.41" y="437.73" fill="#5e6175"></rect><rect width="34.24" height="6" x="243.66" y="397.12" fill="#5e6175"></rect><rect width="58.56" height="6" x="219.33" y="417.42" fill="#5e6175"></rect><rect width="58.56" height="6" x="219.33" y="437.73" fill="#5e6175"></rect><rect width="34.24" height="6" x="383.58" y="397.12" fill="#5e6175"></rect><rect width="58.56" height="6" x="359.25" y="417.42" fill="#5e6175"></rect><rect width="58.56" height="6" x="359.25" y="437.73" fill="#5e6175"></rect></g></svg>