<svg xmlns="http://www.w3.org/2000/svg" xmlns:xlink="http://www.w3.org/1999/xlink" viewBox="0 0 512 512" id="dead-device"><defs><linearGradient id="b" x1="345.7" x2="427.62" y1="161.77" y2="161.77" gradientUnits="userSpaceOnUse"><stop offset="0" stop-color="#cacfdd"></stop><stop offset="1" stop-color="#eef0f1"></stop></linearGradient><linearGradient id="a" x1="1350.83" x2="1378.29" y1="-1725.43" y2="-1725.43" gradientTransform="rotate(180 876.975 -691.245)" gradientUnits="userSpaceOnUse"><stop offset="0" stop-color="#a9afc4"></stop><stop offset="1" stop-color="#d4d8e5"></stop></linearGradient><linearGradient xlink:href="#a" id="c" x1="112.92" x2="139.11" y1="130.51" y2="130.51"></linearGradient></defs><g><rect width="354.72" height="238.43" x="72.9" y="117.42" fill="#dee1ec" rx="14.37"></rect><path fill="#dee1ec" d="M427.62,131.78V341.47a14.37,14.37,0,0,1-14.37,14.37h-326A14.37,14.37,0,0,1,72.9,341.47V131.78a14.36,14.36,0,0,1,14.36-14.36h326A14.36,14.36,0,0,1,427.62,131.78Z"></path><rect width="319.24" height="203.82" x="90.64" y="134.48" fill="#f5f5f5"></rect><path fill="url(#b)" d="M427.62,131.78v73.71c-50.32,6.58-91.33-39-80-88.07h65.66A14.36,14.36,0,0,1,427.62,131.78Z" style="mix-blend-mode:multiply"></path><polygon fill="url(#a)" points="403.13 355.84 375.66 355.88 375.68 330 403.13 355.84" style="mix-blend-mode:multiply"></polygon><polygon fill="url(#c)" points="112.92 117.42 139.11 117.42 139.11 143.6 112.92 117.42" style="mix-blend-mode:multiply"></polygon><path fill="#dee1ec" d="M445.05,385.2H55.47a14.69,14.69,0,0,1-14.69-14.69V355.84h419v14.67A14.69,14.69,0,0,1,445.05,385.2Z"></path><path fill="#a9afc4" d="M274.88,368.13H225.64a5.83,5.83,0,0,1-5.83-5.83v-6.46h60.9v6.46A5.83,5.83,0,0,1,274.88,368.13Z"></path><path fill="#5e6175" d="M413.25,358.84h-326A17.38,17.38,0,0,1,69.9,341.48V131.78a17.38,17.38,0,0,1,17.37-17.36h326a17.38,17.38,0,0,1,17.37,17.36v209.7A17.38,17.38,0,0,1,413.25,358.84Zm-326-238.42A11.38,11.38,0,0,0,75.9,131.78v209.7a11.38,11.38,0,0,0,11.37,11.36h326a11.38,11.38,0,0,0,11.37-11.36V131.78a11.38,11.38,0,0,0-11.37-11.36Z"></path><path fill="#5e6175" d="M445.05,388.2H55.47a17.72,17.72,0,0,1-17.69-17.69V352.84h425v17.67A17.71,17.71,0,0,1,445.05,388.2ZM43.78,358.84v11.67A11.7,11.7,0,0,0,55.47,382.2H445.05a11.7,11.7,0,0,0,11.69-11.69V358.84Z"></path><rect width="45.84" height="15.52" x="186.17" y="206.04" fill="#5e6175" transform="rotate(-45 209.09 213.802)"></rect><rect width="15.52" height="45.84" x="201.33" y="190.88" fill="#5e6175" transform="rotate(-45 209.09 213.802)"></rect><rect width="75.45" height="15.52" x="209.09" y="271.46" fill="#5e6175"></rect><rect width="45.84" height="15.52" x="261.62" y="206.04" fill="#5e6175" transform="rotate(-45 284.539 213.8)"></rect><rect width="15.52" height="45.84" x="276.78" y="190.88" fill="#5e6175" transform="rotate(-45 284.539 213.8)"></rect><circle cx="418.13" cy="133.71" r="57.87" fill="#f5f5f5"></circle><circle cx="418.13" cy="133.71" r="57.87" fill="#f5f5f5"></circle><path fill="#5e6175" d="M403.12,358.84H372.68V300.17H355.89l-11.36-11.36,4.24-4.24,9.6,9.6h20.31V328.7l26.5,25-2.06,2.18Zm-24.44-6h16.88L378.68,337Z"></path><path fill="#e1830e" d="M428.66,147.89l2.16,27.93a47.77,47.77,0,0,1-24.14.31l2.18-28.25a26.92,26.92,0,0,1-1.52-49.4v21.83l11.44,7.63,11.43-7.63V98.49a26.91,26.91,0,0,1-1.55,49.4Z"></path><path fill="#5e6175" d="M418.13 194.58A60.87 60.87 0 11479 133.71 60.94 60.94 0 01418.13 194.58zm0-115.73A54.87 54.87 0 10473 133.71 54.93 54.93 0 00418.13 78.85zM157.93 194.23L141.4 177.69V150.13l-35.72-35.71h36.43v27.94l5.29 5.29v27.56L162.17 190zm-37.77-73.81l16 15.94V120.42z"></path><path fill="#a9afc4" d="M416.15 240.68h-6v-6h6zm-16 0h-6v-6h6zm-16 0h-6v-6h6zm-16 0h-6v-6h6zm-16 0h-6v-6h6zm-16 0h-6v-6h6zM460.75 240.41h-6v-6h6zm-16 0h-6v-6h6zM476.84 240.5h-6v-6h6zm0-16h-6v-6h6zm0-16h-6v-6h6zm0-16h-6v-6h6z"></path><path fill="#5e6175" d="M337.79 420.86A11.86 11.86 0 11349.65 409 11.87 11.87 0 01337.79 420.86zm0-17.71a5.86 5.86 0 105.86 5.85A5.86 5.86 0 00337.79 403.15zM400.68 439.15a9.74 9.74 0 119.74-9.73A9.74 9.74 0 01400.68 439.15zm0-13.47a3.74 3.74 0 103.74 3.74A3.74 3.74 0 00400.68 425.68z"></path><rect width="6" height="19.42" x="55.73" y="90.64" fill="#5e6175" transform="rotate(-45 58.728 100.354)"></rect><rect width="19.42" height="6" x="36" y="120.23" fill="#5e6175"></rect><rect width="6" height="19.42" x="77.43" y="77.09" fill="#5e6175"></rect></g></svg>