<svg xmlns="http://www.w3.org/2000/svg" xmlns:xlink="http://www.w3.org/1999/xlink" viewBox="0 0 512 512" id="decision-making"><defs><linearGradient id="a" x1="211.87" x2="304.19" y1="154.4" y2="154.4" gradientUnits="userSpaceOnUse"><stop offset="0" stop-color="#cacfdd"></stop><stop offset="1" stop-color="#eef0f1"></stop></linearGradient><linearGradient xlink:href="#a" id="b" x1="258.04" x2="258.04" y1="385.23" y2="421.35"></linearGradient></defs><g style="isolation:isolate"><polygon fill="#a9afc4" points="296.47 412.85 219.61 412.85 239.97 154.39 276.11 154.39 296.47 412.85"></polygon><path fill="#a9afc4" d="M276.11,154.39H240v-45.3a18.07,18.07,0,0,1,36.14,0Z"></path><path fill="#dee1ec" d="M475.76,97.69a8.88,8.88,0,0,1-10.1,6.7c-36.28-6-78.8,2.89-114.92,26.38A146.23,146.23,0,0,1,308.2,149.6l-49.29,13-4.16-15.84,41.52-10.91a146.35,146.35,0,0,0,43.17-19.24c37-24.29,86.44-38.13,129.36-29.65A8.9,8.9,0,0,1,475.76,97.69Z"></path><path fill="#dee1ec" d="M38.15,212.09a9,9,0,0,0,12.42,1.21c28.19-22.48,69.24-36,112.75-33.28a146.27,146.27,0,0,0,46.3-4.52l49.29-12.95-4.16-15.84-41.52,10.91a146.35,146.35,0,0,1-47.06,4.47c-43.68-2.94-94,9.18-127,37.28A9,9,0,0,0,38.15,212.09Z"></path><path fill="url(#a)" d="M276.39,158l3,37.55a46.29,46.29,0,0,1-42.61,0l2.17-27.71-22.91,6A45.88,45.88,0,0,1,211.87,158c1.14-.28.32-.08,28.1-7.38V111.75a46.44,46.44,0,0,1,36.14,0v29.34c21.24-5.57,21.76-5.69,23.88-6.32a46,46,0,0,1,4.2,15.87C304.19,150.75,304.4,150.6,276.39,158Z" style="mix-blend-mode:multiply"></path><path fill="#e1830e" d="M364.22,452.09H151.86V441.75a28.9,28.9,0,0,1,28.9-28.9H335.32a28.9,28.9,0,0,1,28.9,28.9Z"></path><polygon fill="url(#b)" points="296.47 412.85 219.61 412.85 220.97 395.47 295.11 395.47 296.47 412.85" style="mix-blend-mode:multiply"></polygon><path fill="#5e6175" d="M367.22,455.09H148.86V441.75a31.94,31.94,0,0,1,31.9-31.9H335.32a31.94,31.94,0,0,1,31.9,31.9Zm-212.36-6H361.22v-7.34a25.93,25.93,0,0,0-25.9-25.9H180.76a25.93,25.93,0,0,0-25.9,25.9Z"></path><path fill="#5e6175" d="M299.72,415.85H216.37L237.2,151.39h41.68C279.24,156,299.4,411.84,299.72,415.85Zm-76.86-6h70.37L273.34,157.39H242.75Z"></path><path fill="#5e6175" d="M279.11,157.39H237v-48.3a21.07,21.07,0,0,1,42.14,0Zm-36.14-6h30.14v-42.3a15.07,15.07,0,0,0-30.14,0Z"></path><rect width="6" height="17.41" x="255.04" y="73.62" fill="#5e6175"></rect><polygon fill="#5e6175" points="401.81 227.71 359.7 125.18 347.33 104.6 352.47 101.51 365.16 122.69 401.75 211.76 446.5 100.32 447.15 76.64 453.15 76.8 452.47 101.56 401.81 227.71"></polygon><path fill="#5e6175" d="M256.77,166.21l-5.68-21.64L295.5,132.9a143.33,143.33,0,0,0,42.3-18.84C375,89.59,425.29,75.26,469.39,84a11.89,11.89,0,0,1,9.29,14.41h0a11.92,11.92,0,0,1-13.51,9c-35.49-5.82-77.3,2.85-112.79,25.94A149.15,149.15,0,0,1,309,152.5Zm1.64-17.36,2.64,10,46.39-12.18a143,143,0,0,0,41.66-18.44c37.14-24.16,80.57-32.81,117-26.83a5.88,5.88,0,0,0,2.08-11.58c-42.45-8.38-91.14,5.58-127.13,29.22A149.29,149.29,0,0,1,297,138.71Z"></path><path fill="#5e6175" d="M45,218.26a12,12,0,0,1-7.74-21.18c33.88-28.84,85.1-41,129.12-38a143.45,143.45,0,0,0,46.1-4.38l44.42-11.67,5.68,21.64L210.38,178.4A148.82,148.82,0,0,1,163.13,183C120.4,180.33,80,193.64,52.44,215.64A11.87,11.87,0,0,1,45,218.26Zm-4.56-8.12a6,6,0,0,0,8.27.81c28.86-23,70.69-36.7,114.81-33.93a143.05,143.05,0,0,0,45.35-4.42l46.39-12.19-2.64-10L214,160.52a148.83,148.83,0,0,1-48,4.56c-42.48-2.86-92.17,8.77-124.83,36.57a6,6,0,0,0-.71,8.49Z"></path><polygon fill="#5e6175" points="101.76 309.41 59.97 203.91 47.61 183.35 52.75 180.26 65.46 201.47 101.75 293.1 146.78 179.08 147.43 155.39 153.43 155.55 152.75 180.3 101.76 309.41"></polygon><rect width="291.01" height="6" x="111.57" y="449.09" fill="#5e6175"></rect><circle cx="258.04" cy="154.39" r="30.92" fill="#e1830e"></circle><path fill="#5e6175" d="M258,188.31A33.92,33.92,0,1,1,292,154.39,34,34,0,0,1,258,188.31Zm0-61.84A27.92,27.92,0,1,0,286,154.39,28,28,0,0,0,258,126.47Z"></path><ellipse cx="106.48" cy="301.25" fill="#f5f5f5" rx="56.11" ry="56.15" transform="rotate(-49.8 106.486 301.25)"></ellipse><path fill="#a9afc4" d="M117.15,381.06l-.79-5.94c1.89-.26,3.8-.59,5.67-1l1.26,5.87C121.27,380.43,119.2,380.79,117.15,381.06Zm16.14-3.9-2-5.65c1.81-.64,3.61-1.37,5.36-2.14l2.44,5.47C137.19,375.69,135.24,376.47,133.29,377.16Zm15-7.15-3.13-5.12c1.63-1,3.25-2.07,4.8-3.2l3.51,4.87C151.77,367.77,150,368.93,148.26,370ZM161.45,360l-4.11-4.37c1.4-1.31,2.76-2.69,4.06-4.11l4.42,4.06C164.42,357.05,163,358.54,161.45,360Zm10.88-12.5L167.42,344c1.11-1.57,2.16-3.2,3.14-4.84l5.16,3.07C174.66,344,173.52,345.75,172.33,347.45ZM180.44,333l-5.5-2.39c.76-1.76,1.46-3.57,2.08-5.37l5.67,1.95C182,329.13,181.27,331.08,180.44,333Zm5-15.83L179.54,316c.38-1.88.69-3.79.92-5.69l6,.73C186.16,313.07,185.83,315.13,185.42,317.16Z"></path><ellipse cx="406.03" cy="219.74" fill="#f5f5f5" rx="56.11" ry="56.15" transform="rotate(-49.8 406.04 219.743)"></ellipse><path fill="#5e6175" d="M106.4 360.38A59.13 59.13 0 11165.61 302 59.09 59.09 0 01106.4 360.38zm.15-112.26a53.2 53.2 0 00-53.2 52.47h0a53.13 53.13 0 1053.2-52.47zM406 278.87a59.13 59.13 0 1159.2-58.41A59.1 59.1 0 01406 278.87zm.14-112.26a53.2 53.2 0 00-53.2 52.47h0a53.13 53.13 0 1053.2-52.47z"></path><polygon fill="#e1830e" points="95.73 330.66 73.72 308.65 81.64 300.74 95.73 314.82 131.32 279.23 139.24 287.14 95.73 330.66"></polygon><polygon fill="#e1830e" points="431.75 201.93 423.83 194.02 406.03 211.82 388.24 194.02 380.31 201.94 398.11 219.74 380.31 237.53 388.24 245.45 406.03 227.65 423.83 245.45 431.75 237.54 413.95 219.74 431.75 201.93"></polygon><rect width="6" height="20.63" x="404.82" y="295.12" fill="#5e6175"></rect><rect width="6" height="20.63" x="431.79" y="287.72" fill="#5e6175" transform="rotate(-45 434.798 298.03)"></rect><rect width="20.63" height="6" x="371.03" y="296.31" fill="#5e6175" transform="rotate(-45 381.348 299.31)"></rect><path fill="#5e6175" d="M208 94.8a12.09 12.09 0 11.94-24.14h0A12.09 12.09 0 01208 94.8zm0-18.18a6.09 6.09 0 106.07 6.56A6.11 6.11 0 00208 76.62zM153.77 136.26a9.31 9.31 0 11.72-18.59h0a9.31 9.31 0 01-.72 18.59zm0-12.62a3.31 3.31 0 103.3 3.57A3.32 3.32 0 00153.76 123.64z"></path><circle cx="56.47" cy="142.77" r="11.63" fill="#e1830e"></circle></g></svg>