<svg xmlns="http://www.w3.org/2000/svg" xmlns:xlink="http://www.w3.org/1999/xlink" viewBox="0 0 512 512" id="delivery-truck"><defs><linearGradient id="a" x1="126.64" x2="126.64" y1="388.33" y2="162.05" gradientUnits="userSpaceOnUse"><stop offset="0" stop-color="#a9afc4"></stop><stop offset="1" stop-color="#d4d8e5"></stop></linearGradient><linearGradient xlink:href="#a" id="b" x1="200.36" x2="200.36" y1="388.33" y2="162.05"></linearGradient><linearGradient xlink:href="#a" id="c" x1="274.08" x2="274.08" y1="388.33" y2="162.05"></linearGradient><linearGradient id="d" x1="110.32" x2="290.41" y1="235.96" y2="235.96" gradientUnits="userSpaceOnUse"><stop offset="0" stop-color="#cacfdd"></stop><stop offset="1" stop-color="#eef0f1"></stop></linearGradient></defs><g><path fill="#5e6175" d="M412.53 217.27a11.84 11.84 0 1119.86 9.2A11.84 11.84 0 01412.53 217.27zm11.83-5.35a5.83 5.83 0 00-5.83 5.6h0a5.84 5.84 0 105.83-5.6zM460.72 251.93a9.14 9.14 0 1115.33 7.1A9.14 9.14 0 01460.72 251.93zm9.13-2.76a3.13 3.13 0 00-3.13 3h0a3.14 3.14 0 103.13-3z"></path><rect width="6" height="17.76" x="53.78" y="183.69" fill="#5e6175" transform="rotate(-45 56.781 192.56)"></rect><rect width="17.76" height="6" x="36" y="210.49" fill="#5e6175"></rect><rect width="6" height="17.76" x="73.63" y="171.31" fill="#5e6175"></rect><path fill="#a9afc4" d="M298.86,158.26h-6v-6h6Zm0-16h-6v-6h6Zm0-16h-6v-6h6Zm0-16h-6v-6h6Zm-6.79-15.32a36,36,0,0,0-1.54-5.32l5.62-2.1a42.94,42.94,0,0,1,1.79,6.19Zm-5.82-13.49a36.92,36.92,0,0,0-3.5-4.3L287.12,73a43.25,43.25,0,0,1,4.06,5ZM275.63,71.28a37.57,37.57,0,0,0-4.89-2.61l2.42-5.49a43.11,43.11,0,0,1,5.69,3ZM261.9,66.05a37.62,37.62,0,0,0-5.52-.49l.08-6a42.78,42.78,0,0,1,6.41.57Zm-15.48-.49h-6v-6h6Zm-16,0h-6v-6h6Z"></path><rect width="217.13" height="19.96" x="172.58" y="393.87" fill="#a9afc4"></rect><rect width="73.16" height="35.24" x="389.71" y="393.87" fill="#f5f5f5"></rect><rect width="48.29" height="35.24" x="71.33" y="393.87" fill="#f5f5f5"></rect><path fill="#5e6175" d="M392.71,416.83H169.58v-26H392.71Zm-217.13-6H386.71v-14H175.58Z"></path><path fill="#5e6175" d="M465.87 432.11H386.71V390.87h79.16zm-73.16-6h67.16V396.87H392.71zM122.62 432.11H68.33V390.87h54.29zm-48.29-6h42.29V396.87H74.33z"></path><polygon fill="#f5f5f5" points="330.88 240.3 372.67 240.3 396.39 254.44 429 254.44 453.92 334.36 453.92 393.87 330.88 393.87 330.88 240.3"></polygon><path fill="#5e6175" d="M456.92,396.87h-129V237.3H373.5l23.71,14.14h34l25.72,82.47Zm-123-6h117V334.82l-24.13-77.38H395.56L371.84,243.3h-38Z"></path><path fill="#5e6175" d="M456.92,396.87H436.1v-33l20.82-16.71Zm-14.82-6h8.82V359.72l-8.82,7.07Z"></path><polygon fill="#a9afc4" points="450.16 322.31 434.03 270.57 385.85 270.57 385.85 322.31 450.16 322.31"></polygon><rect width="19.86" height="51.74" x="349.1" y="270.57" fill="#a9afc4"></rect><path fill="#5e6175" d="M454.23 325.31H382.85V267.57h53.38zm-65.38-6h57.23l-14.26-45.74h-43zM372 325.31H346.1V267.57H372zm-19.87-6H366V273.57H352.1z"></path><path fill="#a9afc4" d="M408,351.68H391.8a6.09,6.09,0,0,1,0-12.17H408a6.09,6.09,0,0,1,0,12.17Z"></path><circle cx="119.62" cy="421.66" r="27.78" fill="#5e6175"></circle><circle cx="119.62" cy="421.66" r="10.21" fill="#f5f5f5"></circle><rect width="259.55" height="186.28" x="71.33" y="207.6" fill="#dee1ec"></rect><rect width="259.55" height="186.28" x="71.33" y="207.6" fill="#dee1ec"></rect><rect width="22.02" height="121.25" x="115.63" y="241.84" fill="url(#a)"></rect><rect width="22.02" height="121.25" x="189.35" y="241.84" fill="url(#b)"></rect><rect width="22.02" height="121.25" x="263.07" y="241.84" fill="url(#c)"></rect><circle cx="172.58" cy="421.66" r="27.78" fill="#5e6175"></circle><circle cx="172.58" cy="421.66" r="10.21" fill="#f5f5f5"></circle><circle cx="389.71" cy="421.66" r="27.78" fill="#5e6175"></circle><circle cx="389.71" cy="421.66" r="10.21" fill="#f5f5f5"></circle><path fill="url(#d)" d="M290.41,207.6a34.34,34.34,0,0,1-33.74,28.76l-20.86,28-20.84-28H144.16a34.33,34.33,0,0,1-33.84-28.76Z" style="mix-blend-mode:multiply"></path><path fill="#5e6175" d="M333.88,396.87H68.33V204.6H333.88Zm-259.55-6H327.88V210.6H74.33Z"></path><path fill="#f5f5f5" d="M256.57,83.67H144.16a17.92,17.92,0,0,0-17.92,17.92V202.07A17.92,17.92,0,0,0,144.16,220h79l12.64,17,12.63-17h8.12a17.92,17.92,0,0,0,17.92-17.92V101.59A17.92,17.92,0,0,0,256.57,83.67Z"></path><path fill="#5e6175" d="M235.82,242l-14.14-19H144.16a20.94,20.94,0,0,1-20.92-20.92V101.59a20.94,20.94,0,0,1,20.92-20.92H256.57a20.94,20.94,0,0,1,20.92,20.92V202.07A21,21,0,0,1,256.57,223H250ZM144.16,86.67a14.93,14.93,0,0,0-14.92,14.92V202.07A14.93,14.93,0,0,0,144.16,217h80.53l11.13,14.94L247,217h9.62a14.93,14.93,0,0,0,14.92-14.92V101.59a14.93,14.93,0,0,0-14.92-14.92Z"></path><path fill="#e08326" d="M214.11,111.72v20.69l-4.41-2.63-4.42,2.63-4.4-2.63-4.42,2.63L192,129.78l-4.42,2.63V111.72H159v77.89H242.7V111.72Zm-24.62,67.86H168.67v-8.35h20.82Z"></path><rect width="376.46" height="6" x="49.83" y="446.44" fill="#5e6175"></rect></g></svg>