<svg xmlns="http://www.w3.org/2000/svg" xmlns:xlink="http://www.w3.org/1999/xlink" viewBox="0 0 512 512" id="delivery"><defs><linearGradient id="a" x1="267.84" x2="267.84" y1="429.66" y2="86.55" gradientUnits="userSpaceOnUse"><stop offset="0" stop-color="#cacfdd"></stop><stop offset="1" stop-color="#eef0f1"></stop></linearGradient><linearGradient xlink:href="#a" id="b" x1="335.85" x2="413.76" y1="174.33" y2="174.33"></linearGradient><linearGradient xlink:href="#a" id="c" x1="121.92" x2="344.72" y1="340.1" y2="340.1"></linearGradient></defs><g style="isolation:isolate"><path fill="url(#a)" d="M121.92,139.88V411.57H413.76V139.88Z"></path><path fill="url(#b)" d="M413.76,139.88v68.91a78.61,78.61,0,0,1-77.91-68.91Z" style="mix-blend-mode:multiply"></path><path fill="url(#c)" d="M341.09,411.57c-.1.08,5.6,0-209.12,0l-10-6.46V268.59l105.85,98.59,58.09-50.71,14.9,16.75a39.83,39.83,0,0,1-1.69,54.7l-7.43,7.39h44A9,9,0,0,1,341.09,411.57Z" style="mix-blend-mode:multiply"></path><polygon fill="#e08326" points="229.04 139.88 229.04 212.06 241.98 202.89 254.94 212.06 267.88 202.89 280.79 212.06 293.73 202.89 306.64 212.06 306.64 139.88 229.04 139.88"></polygon><rect width="72.64" height="29.15" x="314.04" y="355.4" fill="#5e6175"></rect><path fill="#5e6175" d="M416.76,414.57H118.92V136.88H416.76Zm-291.84-6H410.76V142.88H124.92Z"></path><path fill="#f5f5f5" d="M272.52,391.39l15.08-15a23.55,23.55,0,0,0,1-32.35l-4.19-4.71-57,49.77L36,210.8V330.47l163.13,105A55.76,55.76,0,0,0,228.71,444h23.63a55.81,55.81,0,0,0,33.54-11.2L314,411.57H280.85a11.81,11.81,0,0,1-8.33-20.18Z"></path><path fill="#5e6175" d="M252.34 447H228.71A58.76 58.76 0 01197.53 438L34.38 333l3.24-5.05 163.13 105a52.74 52.74 0 0028 8h23.63a53.12 53.12 0 0031.74-10.6l21-15.78H280.85c-13.16 0-19.81-16-10.44-25.31l15.08-15a20.55 20.55 0 00.88-28.23l-2.22-2.49-56.8 49.58L34 213 38 208.61 227.48 385l57.21-49.94 6.16 6.93a26.55 26.55 0 01-1.13 36.47l-15.08 15a8.82 8.82 0 006.21 15.06H323l-35.34 26.57A59.1 59.1 0 01252.34 447zM133.59 114.09a12 12 0 01-12-11.5c-.44-10.69 12.32-16.47 20.1-9.31a11.9 11.9 0 013.86 8.33h0A12 12 0 01133.59 114.09zm0-18a6 6 0 106 5.73h0A6 6 0 00133.62 96.12zM87.36 146.45a9.24 9.24 0 116.27-16A9.23 9.23 0 0187.36 146.45zm0-12.48a3.24 3.24 0 103.23 3.11h0A3.24 3.24 0 0087.38 134z"></path><path fill="#a9afc4" d="M404.59,438.18v-6a27.78,27.78,0,0,0,5.41-.49l1.11,5.9A34.45,34.45,0,0,1,404.59,438.18Zm-10,0h-6v-6h6Zm-16,0h-6v-6h6Zm-16,0h-6v-6h6Zm-16,0h-6v-6h6Zm-16,0h-6v-6h6Zm90.79-4.3-2.92-5.24a28.92,28.92,0,0,0,4.45-3.08l3.87,4.58A34.43,34.43,0,0,1,421.38,433.88Zm12.51-12-5.11-3.14a28.36,28.36,0,0,0,2.37-4.86l5.62,2.1A33.54,33.54,0,0,1,433.89,421.87Zm5-16.61-6-.21c0-.77,0-1.1,0-5.9h6C438.91,403.77,438.92,404.38,438.89,405.26Zm0-16.11h-6v-6h6Zm0-16h-6v-6h6Zm0-16h-6v-6h6Zm0-16h-6v-6h6Zm0-16h-6v-6h6Zm0-16h-6v-6h6Z"></path><circle cx="413.76" cy="130.29" r="62.24" fill="#f5f5f5"></circle><path fill="#5e6175" d="M413.76,195.53A65.24,65.24,0,1,1,479,130.29,65.32,65.32,0,0,1,413.76,195.53Zm0-124.48A59.24,59.24,0,1,0,473,130.29,59.3,59.3,0,0,0,413.76,71.05Z"></path><path fill="#e1830e" d="M415.43,95.55A24.89,24.89,0,0,0,391,130.45c.72,1.78,21.69,34.38,22.74,36,12-18.63,22.93-36,22.74-36A24.92,24.92,0,0,0,415.43,95.55Zm-1.67,34.17a11.12,11.12,0,1,1,11.12-11.12A11.12,11.12,0,0,1,413.76,129.72Z"></path></g></svg>