<svg xmlns="http://www.w3.org/2000/svg" xmlns:xlink="http://www.w3.org/1999/xlink" viewBox="0 0 512 512" id="delivery-failed"><defs><linearGradient id="a" x1="250.97" x2="250.97" y1="408.12" y2="56.81" gradientUnits="userSpaceOnUse"><stop offset="0" stop-color="#cacfdd"></stop><stop offset="1" stop-color="#eef0f1"></stop></linearGradient><linearGradient xlink:href="#a" id="b" x1="326.83" x2="400.39" y1="150.72" y2="150.72"></linearGradient><linearGradient xlink:href="#a" id="c" x1="101.55" x2="186.97" y1="345.75" y2="345.75"></linearGradient></defs><g><path fill="url(#a)" d="M101.55,111.41V389.6H400.39V111.41Z"></path><path fill="url(#b)" d="M400.39,111.41V190A73.63,73.63,0,0,1,327,111.41Z" style="mix-blend-mode:multiply"></path><polygon fill="url(#c)" points="172.57 387.3 173.54 389.6 101.55 389.6 101.55 316.65 136.31 301.9 151.33 337.28 186.97 351.67 172.57 387.3" style="mix-blend-mode:multiply"></polygon><polygon fill="#e08326" points="211.24 111.41 211.24 185.31 224.49 175.92 237.77 185.31 251.02 175.92 264.24 185.31 277.48 175.92 290.7 185.31 290.7 111.41 211.24 111.41"></polygon><rect width="71.15" height="17.68" x="305.26" y="351.04" fill="#5e6175"></rect><path fill="#5e6175" d="M403.39,392.6H98.56V108.41H403.39Zm-298.83-6H397.39V114.41H104.56Z"></path><circle cx="400.39" cy="116.47" r="57.95" fill="#f5f5f5"></circle><path fill="#5e6175" d="M400.39,177.42a60.95,60.95,0,1,1,60.95-60.95A61,61,0,0,1,400.39,177.42Zm0-115.9a55,55,0,1,0,54.95,55A55,55,0,0,0,400.39,61.52Z"></path><rect width="74.75" height="18.69" x="363.02" y="107.13" fill="#e08326" transform="rotate(-45 400.385 116.475)"></rect><rect width="18.69" height="74.75" x="391.04" y="79.1" fill="#e08326" transform="rotate(-45 400.385 116.475)"></rect><polygon fill="#f5f5f5" points="73.93 322.84 101.08 333.81 128.04 322.37 139.49 349.32 166.64 360.3 155.67 387.45 167.11 414.41 140.15 425.85 129.18 453.01 102.03 442.04 75.07 453.48 63.63 426.52 36.47 415.55 47.44 388.39 36 361.44 62.96 349.99 73.93 322.84"></polygon><path fill="#5e6175" d="M73.48,457.41,61.35,428.84,32.57,417.21,44.2,388.42,32.07,359.85l28.57-12.13,11.63-28.79,28.79,11.63,28.57-12.13L141.76,347l28.79,11.63-11.63,28.78L171.05,416l-28.58,12.13-11.63,28.78-28.78-11.63Zm-33.1-43.52L65.9,424.2l10.76,25.34L102,438.79l25.53,10.31,10.31-25.52,25.34-10.76-10.76-25.34L162.74,362l-25.53-10.31L126.45,326.3l-25.34,10.76L75.59,326.74,65.28,352.27,39.93,363l10.76,25.35Z"></path><path fill="#e1830e" d="M90.05,400.83H79.65a22.24,22.24,0,0,1,9.23-18,6.91,6.91,0,1,0-10.94-5.62H67.54A17.31,17.31,0,1,1,95,391.27,11.8,11.8,0,0,0,90.05,400.83Z"></path><rect width="10.44" height="10.44" x="79.54" y="408.88" fill="#e1830e"></rect><polygon fill="#e1830e" points="115.71 359.91 115.71 381.44 117.98 399.4 122.97 399.4 122.97 399.4 127.98 399.4 130.26 381.43 130.26 359.88 115.71 359.91"></polygon><rect width="10.93" height="10.93" x="117.52" y="408.39" fill="#e1830e"></rect><path fill="#5e6175" d="M321 288.72c-.1 0 .22-.24-15.74 16.44h7.85v33.43h15.76V305.16h7.87zM360 288.72c-.1 0 .22-.24-15.74 16.44h7.85v33.43h15.76V305.16h7.87z"></path><rect width="6" height="17.76" x="80.81" y="85.28" fill="#5e6175" transform="rotate(-45 83.81 94.155)"></rect><rect width="17.76" height="6" x="63.03" y="112.08" fill="#5e6175"></rect><rect width="6" height="17.76" x="100.66" y="72.89" fill="#5e6175"></rect><path fill="#5e6175" d="M437.61 399.06a11.17 11.17 0 113.2-21.88h0a11.07 11.07 0 016.63 5.39A11.18 11.18 0 01437.61 399.06zm0-16.35a5.17 5.17 0 104.95 6.65A5.19 5.19 0 00437.62 382.71zM396.31 429.46a8.68 8.68 0 112.48-17h0a8.68 8.68 0 01-2.49 17zM393.75 420a2.68 2.68 0 104.92-.51A2.69 2.69 0 00393.75 420z"></path><path fill="#a9afc4" d="M424.47,273.62h-6v-6h6Zm0-16h-6v-6h6Zm0-16h-6v-6h6Zm0-16h-6v-6h6Zm0-16h-6a31.5,31.5,0,0,1,.42-6.51l5.9,1.07A27,27,0,0,0,424.47,209.62Zm3.65-13.41-4.92-3.44a25.85,25.85,0,0,1,4.58-5l3.85,4.6A20.26,20.26,0,0,0,428.12,196.21Zm11.63-8.65-3-5.22c1.69-1,3.36-2,5-3l3.29,5C443.33,185.45,441.55,186.54,439.75,187.56Zm13.59-9.42-3.87-4.59c1.48-1.24,2.91-2.55,4.27-3.88l4.2,4.28C456.48,175.39,454.93,176.8,453.34,178.14Zm11.51-12-4.76-3.66c1.17-1.51,2.27-3.09,3.29-4.69l5.06,3.22C467.33,162.78,466.12,164.5,464.85,166.16Zm8.51-14.35-5.49-2.41c.76-1.73,1.45-3.52,2.05-5.33l5.69,1.89C475,148,474.19,149.92,473.36,151.81Zm4.8-16-5.91-1c.33-1.86.58-3.77.76-5.69l6,.54C478.79,131.75,478.52,133.83,478.16,135.85Z"></path></g></svg>