<svg xmlns="http://www.w3.org/2000/svg" xmlns:xlink="http://www.w3.org/1999/xlink" viewBox="0 0 512 512" id="design-equipment"><defs><linearGradient id="linear-gradient" x1="222.78" x2="429.97" y1="286.85" y2="286.85" gradientUnits="userSpaceOnUse"><stop offset="0" stop-color="#cacfdd"></stop><stop offset="1" stop-color="#eef0f1"></stop></linearGradient><linearGradient xlink:href="#linear-gradient" id="linear-gradient-2" x1="222.78" x2="305.31" y1="126.45" y2="126.45"></linearGradient><linearGradient xlink:href="#linear-gradient" id="linear-gradient-3" x1="330.85" x2="432.49" y1="79.76" y2="79.76"></linearGradient><linearGradient xlink:href="#linear-gradient" id="linear-gradient-4" x1="260.5" x2="413.87" y1="332.4" y2="332.4"></linearGradient></defs><g style="isolation:isolate"><g id="Design_equipment"><polygon points="432.49 69.78 432.49 332.49 222.78 332.49 222.78 36 356.33 36 432.49 69.78" fill="#f5f5f5"></polygon><path d="M425.77,292.93c-5.36,6.76,3-1.91-38.51,39.56H222.78V241.22H338.24a34.09,34.09,0,0,1,32.38,23.59l10.4-9.55c11.4-10.47,27.11-8.51,38.19.54l2.58,2.58Q435.83,275,425.77,292.93Z" style="mix-blend-mode:multiply" fill="url(#linear-gradient)"></path><path d="M305.26,180.78l-40.64-.65a45.55,45.55,0,0,1-31.46-13.31l-10.38-10.38V72.12l68.14,68.12a17.85,17.85,0,0,1,4.34,7L304.4,174A16.86,16.86,0,0,1,305.26,180.78Z" style="mix-blend-mode:multiply" fill="url(#linear-gradient-2)"></path><path d="M432.49,69.77V90.25A18.59,18.59,0,0,0,425.92,92c-2.43,1.24-4,2.88-4.37,7.18l-1.33,15.73a9.36,9.36,0,0,1-16.4,5.34L330.85,36h25.48Z" style="mix-blend-mode:multiply" fill="url(#linear-gradient-3)"></path><path d="M435.49,335.49H219.79V33H357l78.52,34.83Zm-209.7-6h203.7V71.73L355.7,39H225.79Z" fill="#5e6175"></path><path d="M432.49,69.78v4.44s-24.91.06-26.9,23.62L352,36h4.29Z" fill="#f5f5f5"></path><path d="M408,105.18,345.48,33H357l78.52,34.83v9.38h-3c-.9,0-22.19.39-23.92,20.87ZM360.42,41.1l43.36,50.07c4-13.55,16.37-18.62,25.11-19.71Z" fill="#5e6175"></path><path d="M272.16,144.13c8.08,8.08,7.72,7.6,7.93,8.22,7.32,21.45,5.4,15.82,9.15,26.83a1.22,1.22,0,0,1-1.17,1.6c-.3,0,.39.21-8.85-3-20.1-6.88-18.71-6.31-19.18-6.78l-7.4-7.4Z" fill="#dee1ec"></path><path d="M272.16,144.13c8.08,8.08,7.72,7.6,7.93,8.22,7.32,21.45,5.4,15.82,9.15,26.83a1.22,1.22,0,0,1-1.17,1.6c-.3,0,.39.21-8.85-3-20.1-6.88-18.71-6.31-19.18-6.78l-7.4-7.4Z" fill="#dee1ec"></path><path d="M279.61,151.57c.48.49-.31-1.55,9.63,27.61a1.23,1.23,0,0,1-1.17,1.61c-.29,0,1.75.67-27.26-9.27-.59-.19-.12.16-8.16-7.88l19.51-19.51Z" fill="#dee1ec"></path><path d="M288.07,183.79c-1,0,1,.56-28.23-9.43a4.85,4.85,0,0,1-2-1.26l-9.46-9.46,23.75-23.75,9.58,9.56a5,5,0,0,1,1.21,2l9.14,26.81A4.24,4.24,0,0,1,288.07,183.79Zm-1.67-3.65h0ZM262,168.76l23.22,8-7.91-23.18-5.16-5.16-15.27,15.27Zm.13.13,0,0Zm-.43-.23.06,0Zm15.78-15Zm-.24-.38h0Z" fill="#5e6175"></path><path d="M285.16,167.22c1.5,4.38.58,1.68,4.08,12a1.23,1.23,0,0,1-1.17,1.61c-.25,0,.82.35-12.34-4.16A12.63,12.63,0,0,1,285.16,167.22Z" fill="#5e6175"></path><rect width="27.59" height="17.54" x="164.31" y="60.83" transform="rotate(-45 178.116 69.592)" fill="#5e6175"></rect><path d="M174.85,46.83l6.82,6.81L162.16,73.15l-6.82-6.81c-4.32-4.33-4.29-12.64,0-16.93l2.58-2.58A12,12,0,0,1,174.85,46.83Z" fill="#e1830e"></path><path d="M194.07,66l83,83a6.89,6.89,0,0,0-9.75,9.75,6.9,6.9,0,0,0-9.76,9.77l-83-83Z" fill="#a9afc4"></path><path d="M174.56,89.79,157.91,73.15,181.67,49.4,198.31,66ZM166.4,73.15l8.16,8.16L189.83,66l-8.16-8.16Z" fill="#5e6175"></path><path d="m162.16 77.39-8.94-8.93c-5.44-5.44-5.44-15.73 0-21.17l2.58-2.59a15 15 0 0 1 21.17 0h0l8.94 8.94ZM160.05 49l-2.59 2.58c-3.14 3.14-3.14 9.54 0 12.69l4.7 4.69 15.26-15.27L172.73 49A9 9 0 0 0 160.05 49ZM255.4 170.65 170.31 85.56 194.07 61.8c86.34 86.35 85 85.09 85.08 85.09l-4.24 4.24a3.9 3.9 0 1 0-5.51 5.51l-4.24 4.25a3.9 3.9 0 1 0-5.52 5.51ZM178.79 85.56 253.21 160a9.88 9.88 0 0 1 9-6.22 9.89 9.89 0 0 1 6.21-9.05l-74.4-74.41Z" fill="#5e6175"></path><rect width="254.05" height="185.86" x="102.19" y="257.24" rx="17.98" fill="#a9afc4"></rect><path d="M338.26,446.1H120.17a21,21,0,0,1-21-21V275.22a21,21,0,0,1,21-21H338.26a21,21,0,0,1,21,21V425.13A21,21,0,0,1,338.26,446.1ZM120.17,260.24a15,15,0,0,0-15,15V425.13a15,15,0,0,0,15,15H338.26a15,15,0,0,0,15-15V275.22a15,15,0,0,0-15-15Z" fill="#5e6175"></path><rect width="232.02" height="163.84" x="113.21" y="268.1" rx="6.98" fill="#f5f5f5"></rect><rect width="6" height="27.65" x="123.49" y="338.61" fill="#5e6175"></rect><path d="M413.87,305.86l-90,90a17.92,17.92,0,0,1-12.67,5.25H260.55a17.29,17.29,0,0,1,.91-6.88l7.55-22c1.09-4,3.2-9,6-11.74l96.71-96.72Z" style="mix-blend-mode:multiply" fill="url(#linear-gradient-4)"></path><rect width="111.08" height="6" x="165.78" y="398.08" fill="#5e6175"></rect><rect width="103.56" height="6" x="287.68" y="177.79" fill="#5e6175"></rect><circle cx="108.99" cy="144.87" r="53.16" fill="#f5f5f5"></circle><path d="M109,201a56.17,56.17,0,1,1,56.17-56.16A56.23,56.23,0,0,1,109,201ZM109,94.7a50.17,50.17,0,1,0,50.17,50.17A50.22,50.22,0,0,0,109,94.7Z" fill="#5e6175"></path><path d="M112,244.45h-6v-6h6Zm-6.41-15.28a15.66,15.66,0,0,0-1.9-4.64l5.11-3.14a21.76,21.76,0,0,1,2.64,6.41Zm-8-10.29a17.57,17.57,0,0,0-4.94-1.61L94,211.42a22.16,22.16,0,0,1,6.4,2.14Zm-14.92-4.6c-1.93-.73-3.87-1.56-5.74-2.46l2.59-5.41c1.72.83,3.5,1.59,5.28,2.26Zm-14.79-7.6c-1.73-1.16-3.43-2.39-5.05-3.68l3.73-4.7c1.49,1.19,3.06,2.32,4.65,3.38ZM55.19,196c-1.43-1.5-2.81-3.09-4.11-4.71l4.68-3.75c1.2,1.49,2.47,2.94,3.78,4.33Zm-10-13.26c-1.06-1.79-2.06-3.64-3-5.51l5.4-2.62c.83,1.72,1.74,3.42,2.72,5.06Zm-6.84-15.18c-.63-2-1.19-4-1.65-6l5.85-1.34c.43,1.86.94,3.72,1.52,5.54Zm-3.25-16.31c-.18-2.07-.27-4.17-.27-6.25h6c0,1.91.09,3.84.25,5.74Zm6.38-15.8-5.95-.83c.29-2.06.67-4.13,1.12-6.15l5.86,1.33C42.05,131.62,41.7,133.52,41.44,135.42Zm3.79-14.81-5.61-2.13c.74-1.94,1.57-3.87,2.47-5.74l5.41,2.6C46.67,117.06,45.91,118.83,45.23,120.61Zm7-13.58-5-3.33c1.15-1.73,2.39-3.42,3.68-5l4.69,3.74C54.44,103.88,53.29,105.45,52.23,107ZM62.1,95.34,58,91c1.51-1.43,3.09-2.81,4.71-4.11l3.75,4.69C64.94,92.76,63.48,94,62.1,95.34Zm12.2-9.21-3-5.16c1.78-1.06,3.64-2.06,5.51-3l2.61,5.4C77.65,84.24,76,85.16,74.3,86.13Zm14-6.26-1.82-5.72c2-.63,4-1.18,6-1.64l1.33,5.85C91.94,78.78,90.08,79.29,88.26,79.87Zm15-3-.5-6c2.06-.17,4.16-.26,6.24-.26v6C107.08,76.66,105.15,76.74,103.25,76.9Z" fill="#a9afc4"></path><path d="M137.11,138A8.17,8.17,0,0,1,129,124a29.34,29.34,0,0,0-11.93-6.89,8.18,8.18,0,0,1-16.19,0A28.85,28.85,0,0,0,89,124a8.17,8.17,0,0,1-8.09,14,29,29,0,0,0,0,13.77,8.17,8.17,0,0,1,8.08,14,29.18,29.18,0,0,0,11.93,6.89,8.18,8.18,0,0,1,16.19,0A29.2,29.2,0,0,0,129,165.77a8.17,8.17,0,0,1,8.08-14A29.14,29.14,0,0,0,137.11,138Zm-33.53,16.27a10.94,10.94,0,0,1-4-14.79,10.83,10.83,0,0,1,14.8-4,11,11,0,0,1,4,14.79A10.83,10.83,0,0,1,103.58,154.25Z" fill="#e1830e"></path><path d="M465.28 351.9a11.91 11.91 0 1 1 3.49-.52A11.91 11.91 0 0 1 465.28 351.9Zm-5.65-10.19a5.92 5.92 0 1 0 8.44-6.95A5.92 5.92 0 0 0 459.63 341.71ZM411.35 387.17a9.2 9.2 0 1 1 11.49 6.11A9.22 9.22 0 0 1 411.35 387.17Zm5.74-1.75a3.2 3.2 0 1 0 4.57-3.76A3.2 3.2 0 0 0 417.09 385.42Z" fill="#5e6175"></path><rect width="16.76" height="6" x="79.93" y="453.38" transform="rotate(-45 88.313 456.39)" fill="#5e6175"></rect><rect width="6" height="16.76" x="105.06" y="459.24" fill="#5e6175"></rect><rect width="16.76" height="6" x="68.24" y="434.65" fill="#5e6175"></rect><path d="M313.16,383.94c-8.08,8.09-7.6,7.72-8.22,7.93L278.12,401a1.22,1.22,0,0,1-1.61-1.17c0-.29-.21.39,3-8.85,6.88-20.1,6.31-18.71,6.78-19.18l7.4-7.39Z" fill="#dee1ec"></path><path d="M313.16,383.94c-8.08,8.09-7.6,7.72-8.22,7.93L278.12,401a1.22,1.22,0,0,1-1.61-1.17c0-.29-.21.39,3-8.85,6.88-20.1,6.31-18.71,6.78-19.18l7.4-7.39Z" fill="#dee1ec"></path><path d="M305.72,391.39c-.48.48,1.55-.3-27.61,9.63a1.23,1.23,0,0,1-1.61-1.17c0-.29-.67,1.76,9.27-27.26.18-.58.35-.63,3-3.28l19.51,19.5Z" fill="#f5f5f5"></path><path d="M277.74,404.08a4.23,4.23,0,0,1-4.24-4.23c0-1-.65,1.23,9.43-28.23a4.71,4.71,0,0,1,1.27-2l9.45-9.45,23.75,23.75-9.56,9.58a5,5,0,0,1-2,1.2C276.61,404.7,278.72,404.08,277.74,404.08Zm1.69-3.71,0,.07A.64.64,0,0,0,279.43,400.37Zm-2.28-2.19h0Zm11.38-24.39L280.58,397l23.18-7.91,5.16-5.16-15.27-15.27ZM304,389h0ZM288.4,373.92l0,0Zm.23-.42,0,.05Z" fill="#5e6175"></path><rect width="17.54" height="27.59" x="378.93" y="276.1" transform="rotate(-45 387.697 289.89)" fill="#a9afc4"></rect><path d="M410.46,286.64l-6.81,6.81-19.51-19.51,6.81-6.82c4.33-4.32,12.64-4.29,16.93,0l2.58,2.59A12,12,0,0,1,410.46,286.64Z" fill="#f5f5f5"></path><rect width="117.32" height="27.6" x="281.35" y="323.78" transform="rotate(-45 340.011 337.583)" fill="#f5f5f5"></rect><path d="M391.25,310.09l-23.76-23.75,16.65-16.65,23.75,23.76ZM376,286.34l15.27,15.27,8.16-8.16-15.27-15.27Z" fill="#5e6175"></path><path d="M403.65 297.69 379.9 273.94l8.93-8.94c5.48-5.47 15.69-5.48 21.17 0l2.59 2.59a15 15 0 0 1 0 21.17h0Zm-15.27-23.75 15.27 15.27 4.69-4.7a9 9 0 0 0 0-12.68l-2.58-2.59c-3.13-3.13-9.54-3.14-12.68 0ZM308.28 393.06 284.52 369.3l87.21-87.21 23.76 23.76ZM293 369.3l15.27 15.27L387 305.85l-15.27-15.27Z" fill="#5e6175"></path></g></g></svg>