<svg xmlns="http://www.w3.org/2000/svg" xmlns:xlink="http://www.w3.org/1999/xlink" viewBox="0 0 512 512" id="discount-voucher"><defs><linearGradient id="a" x1="332.77" x2="454.71" y1="184.79" y2="184.79" gradientUnits="userSpaceOnUse"><stop offset="0" stop-color="#cacfdd"></stop><stop offset="1" stop-color="#eef0f1"></stop></linearGradient><linearGradient xlink:href="#a" id="b" x1="252.97" x2="559.36" y1="213.47" y2="213.47"></linearGradient></defs><g><path fill="#f5f5f5" d="M53.13,170.76V327.31H424.05V170.76Z"></path><rect width="219.77" height="156.55" x="204.28" y="170.76" fill="#dee1ec"></rect><path fill="#5e6175" d="M256.14 99.35h0a11.74 11.74 0 1121 5.44A11.74 11.74 0 01256.14 99.35zM267.77 92a5.74 5.74 0 00-5.69 6.54h0A5.75 5.75 0 10267.77 92zM310.22 133.21h0a9.07 9.07 0 1116.23 4.2A9.06 9.06 0 01310.22 133.21zm9-4.33a3.06 3.06 0 00-3 3.49h0a3.07 3.07 0 103-3.49z"></path><rect width="20.12" height="6" x="50.03" y="374.37" fill="#5e6175" transform="rotate(-45 60.091 377.37)"></rect><rect width="6" height="20.12" x="80.79" y="380.8" fill="#5e6175"></rect><rect width="20.12" height="6" x="36" y="351.89" fill="#5e6175"></rect><rect width="6" height="6" x="201.28" y="181.28" fill="#a9afc4"></rect><path fill="#e1830e" d="M303 400.92a29.78 29.78 0 0129.79 29.79 29.79 29.79 0 0129.8-29.79 29.8 29.8 0 01-29.8-29.8A29.79 29.79 0 01303 400.92zM127.54 132a16.77 16.77 0 0116.77 16.77A16.76 16.76 0 01161.08 132a16.77 16.77 0 01-16.77-16.78A16.77 16.77 0 01127.54 132z"></path><path fill="url(#a)" d="M424.06,170.76H332.77A81,81,0,0,0,348,198.83h76.05Z" style="mix-blend-mode:multiply"></path><path fill="#5e6175" d="M427.05,330.31H50.13V167.76H427.05Zm-370.92-6H421.05V173.76H56.13Z"></path><path fill="#f5f5f5" d="M83.79,198.82V355.37H454.71V198.82Z"></path><rect width="219.77" height="156.55" x="234.94" y="198.82" fill="#dee1ec"></rect><path fill="#a9afc4" d="M237.94,345.49h-6v-5h6Zm0-15h-6v-6h6Zm0-16h-6v-6h6Zm0-16h-6v-6h6Zm0-16h-6v-6h6Zm0-16h-6v-6h6Zm0-16h-6v-6h6Zm0-16h-6v-6h6Zm0-16h-6v-6h6Z"></path><circle cx="182.86" cy="304.33" r="10.44" fill="#e1830e" transform="rotate(-45 182.86 304.337)"></circle><path fill="#e1830e" d="M182.86,234.79a10.43,10.43,0,0,0-8.54,4.46c-.1-.07.77-1-46.72,57.77h0a10.42,10.42,0,1,0,15.63,13.73c.1.09-1.81,2.3,48.2-59.54h0A10.44,10.44,0,0,0,182.86,234.79Z"></path><path fill="#a9afc4" d="M270.15,288.26l30.63,30.64H421V235.3H300.78l-30.64,30.65ZM293,270.56a9.24,9.24,0,1,1,0,13.07A9.26,9.26,0,0,1,293,270.56Z"></path><path fill="url(#b)" d="M348,198.83a81.12,81.12,0,0,0,106.7,16.1v-16.1Z" style="mix-blend-mode:multiply"></path><path fill="#5e6175" d="M457.71,358.37H80.79V195.82H457.71Zm-370.92-6H451.71V201.82H86.79Z"></path><circle cx="410.41" cy="146.88" r="65.59" fill="#f5f5f5"></circle><path fill="#5e6175" d="M410.41,215.46A68.59,68.59,0,1,1,479,146.88,68.66,68.66,0,0,1,410.41,215.46Zm0-131.17A62.59,62.59,0,1,0,473,146.88,62.66,62.66,0,0,0,410.41,84.29Z"></path><path fill="#e1830e" d="M395.77,122.64v17.94a50.06,50.06,0,0,0,11.86-32.36v-4.41l4.34,5.13a38.8,38.8,0,0,1,9.2,25.08L430.53,123a38,38,0,0,1,9,24.53v1.66a29.11,29.11,0,0,1-29.11,29.11c-17.21,0-29.1-13.47-29.1-28.55C381.31,138.38,386.33,133.78,395.77,122.64Z"></path><circle cx="135.05" cy="245.23" r="10.44" fill="#e1830e" transform="rotate(-45 135.048 245.231)"></circle></g></svg>