<svg xmlns="http://www.w3.org/2000/svg" viewBox="0 0 512 512" id="diversification"><rect width="6" height="233.02" x="187.65" y="80.46" fill="#5e6175" transform="rotate(-45 190.648 196.971)"></rect><rect width="205.35" height="6" x="260.6" y="171.96" fill="#5e6175" transform="rotate(-45 363.274 174.967)"></rect><rect width="189.01" height="6" x="81.76" y="358.97" fill="#5e6175" transform="rotate(-45 176.271 361.966)"></rect><rect width="6" height="160.25" x="364.35" y="293.55" fill="#5e6175" transform="rotate(-45 367.349 373.67)"></rect><circle cx="424" cy="430.33" r="21.37" fill="#dee1ec"></circle><path fill="#a9afc4" d="M425.88,479l-.23-6a43.09,43.09,0,0,0,5.57-.58l1,5.92A50,50,0,0,1,425.88,479Zm16.57-3.58-2.27-5.55a44,44,0,0,0,5-2.46l3,5.2A48.38,48.38,0,0,1,442.45,475.38Zm14.33-9.07-4-4.44a42.29,42.29,0,0,0,3.89-4l4.59,3.87A49.33,49.33,0,0,1,456.78,466.31Zm10.36-13.43-5.32-2.78a42.42,42.42,0,0,0,2.27-5.12l5.63,2.06A46.68,46.68,0,0,1,467.14,452.88Zm5.11-16.18-5.94-.78a43.37,43.37,0,0,0,.36-5.59h6A48.33,48.33,0,0,1,472.25,436.7Z"></path><circle cx="435.88" cy="102.36" r="35.27" fill="#a9afc4"></circle><circle cx="109.44" cy="428.79" r="35.27" fill="#a9afc4"></circle><path fill="#5e6175" d="M424 454.7a24.38 24.38 0 1124.38-24.37A24.39 24.39 0 01424 454.7zM424 412a18.38 18.38 0 1018.38 18.38A18.4 18.4 0 00424 412zM435.88 140.63a38.27 38.27 0 1138.26-38.27A38.32 38.32 0 01435.88 140.63zm0-70.53a32.27 32.27 0 1032.26 32.26A32.3 32.3 0 00435.88 70.1zM109.44 467.06a38.27 38.27 0 1138.27-38.27A38.31 38.31 0 01109.44 467.06zm0-70.53a32.27 32.27 0 1032.27 32.26A32.29 32.29 0 00109.44 396.53z"></path><circle cx="108.26" cy="114.58" r="49.94" fill="#dee1ec"></circle><path fill="#5e6175" d="M108.26,167.53a52.95,52.95,0,1,1,52.94-52.95A53,53,0,0,1,108.26,167.53Zm0-99.89a46.95,46.95,0,1,0,46.94,46.94A47,47,0,0,0,108.26,67.64Z"></path><circle cx="274.37" cy="278.01" r="83.81" fill="#f5f5f5"></circle><path fill="#e1830e" d="M274.38,174.42A103.59,103.59,0,1,0,378,278,103.59,103.59,0,0,0,274.38,174.42Zm0,187.41A83.82,83.82,0,1,1,358.19,278,83.82,83.82,0,0,1,274.38,361.83Z"></path><path fill="#5e6175" d="M274.38,384.6A106.59,106.59,0,1,1,381,278,106.72,106.72,0,0,1,274.38,384.6Zm0-207.18A100.59,100.59,0,1,0,375,278,100.71,100.71,0,0,0,274.38,177.42Zm0,187.41A86.82,86.82,0,1,1,361.19,278,86.92,86.92,0,0,1,274.38,364.83Zm0-167.63A80.82,80.82,0,1,0,355.19,278,80.91,80.91,0,0,0,274.38,197.2Z"></path><path fill="#e1830e" d="M274.37,326.63a28.85,28.85,0,0,1-28.82-28.82h18.06A10.77,10.77,0,1,0,274.37,287a28.83,28.83,0,1,1,28.83-28.82H285.14A10.77,10.77,0,1,0,274.37,269a28.83,28.83,0,1,1,0,57.65Z"></path><rect width="18.06" height="18.02" x="265.34" y="220.41" fill="#e1830e"></rect><rect width="18.06" height="18.02" x="265.34" y="317.6" fill="#e1830e"></rect><polygon fill="#e1830e" points="263.31 152.98 263.31 115.83 250.88 115.83 273.37 87.06 295.86 115.83 283.01 115.83 283.01 152.98 263.31 152.98"></polygon><polygon fill="#e1830e" points="283.08 400.91 283.09 438.06 295.52 438.06 273.03 466.82 250.54 438.06 263.39 438.06 263.39 400.91 283.08 400.91"></polygon><polygon fill="#e1830e" points="397.16 267.06 434.32 267.06 434.31 254.62 463.08 277.11 434.32 299.6 434.32 286.76 397.16 286.76 397.16 267.06"></polygon><polygon fill="#e1830e" points="149.24 286.83 112.08 286.83 112.09 299.26 83.32 276.78 112.08 254.29 112.08 267.13 149.24 267.13 149.24 286.83"></polygon><rect width="6" height="20.37" x="61.7" y="370.57" fill="#5e6175" transform="rotate(-45 64.709 380.767)"></rect><rect width="20.37" height="6" x="40.86" y="401.76" fill="#5e6175"></rect><rect width="6" height="20.37" x="84.47" y="356.36" fill="#5e6175"></rect><path fill="#5e6175" d="M142.54 46h0a12 12 0 1121.07 6.74A12 12 0 01142.54 46zm11.93-7a6 6 0 00-5.95 6.46h0A6 6 0 10154.47 39zM201.89 100.73a9.23 9.23 0 119.2-10A9.25 9.25 0 01201.89 100.73zm0-12.46a3.22 3.22 0 00-3.22 3.49h0a3.23 3.23 0 103.22-3.5z"></path></svg>