<svg xmlns="http://www.w3.org/2000/svg" xmlns:xlink="http://www.w3.org/1999/xlink" viewBox="0 0 512 512" id="dividend"><defs><linearGradient id="a" x1="87.41" x2="237.72" y1="305.51" y2="305.51" gradientUnits="userSpaceOnUse"><stop offset="0" stop-color="#cacfdd"></stop><stop offset="1" stop-color="#eef0f1"></stop></linearGradient><linearGradient xlink:href="#a" id="b" x1="3071.39" x2="3085.12" y1="182.72" y2="182.72" gradientTransform="matrix(-1 0 0 1 3320.44 0)"></linearGradient><linearGradient xlink:href="#a" id="c" x1="3107.11" x2="3120.83" y1="182.72" y2="182.72" gradientTransform="matrix(-1 0 0 1 3320.44 0)"></linearGradient><linearGradient xlink:href="#a" id="d" x1="3089.61" x2="3103.34" y1="156.05" y2="156.05" gradientTransform="matrix(-1 0 0 1 3320.44 0)"></linearGradient><linearGradient xlink:href="#a" id="e" x1="3125.33" x2="3139.05" y1="156.05" y2="156.05" gradientTransform="matrix(-1 0 0 1 3320.44 0)"></linearGradient><linearGradient xlink:href="#a" id="f" x1="3089.61" x2="3103.34" y1="129.37" y2="129.37" gradientTransform="matrix(-1 0 0 1 3320.44 0)"></linearGradient><linearGradient xlink:href="#a" id="g" x1="3125.33" x2="3139.05" y1="129.37" y2="129.37" gradientTransform="matrix(-1 0 0 1 3320.44 0)"></linearGradient><linearGradient xlink:href="#a" id="h" x1="2996.25" x2="3009.97" y1="182.72" y2="182.72" gradientTransform="translate(-2663.86)"></linearGradient><linearGradient xlink:href="#a" id="i" x1="3031.96" x2="3045.69" y1="182.72" y2="182.72" gradientTransform="translate(-2663.86)"></linearGradient><linearGradient xlink:href="#a" id="j" x1="2978.12" x2="2991.84" y1="156.05" y2="156.05" gradientTransform="translate(-2663.86)"></linearGradient><linearGradient xlink:href="#a" id="k" x1="3013.83" x2="3027.56" y1="156.05" y2="156.05" gradientTransform="translate(-2663.86)"></linearGradient><linearGradient xlink:href="#a" id="l" x1="2978.12" x2="2991.84" y1="129.37" y2="129.37" gradientTransform="translate(-2663.86)"></linearGradient><linearGradient xlink:href="#a" id="m" x1="3013.83" x2="3027.56" y1="129.37" y2="129.37" gradientTransform="translate(-2663.86)"></linearGradient><linearGradient xlink:href="#a" id="n" x1="3071.39" x2="3085.12" y1="102.69" y2="102.69" gradientTransform="matrix(-1 0 0 1 3320.44 0)"></linearGradient><linearGradient xlink:href="#a" id="o" x1="3107.11" x2="3120.83" y1="102.69" y2="102.69" gradientTransform="matrix(-1 0 0 1 3320.44 0)"></linearGradient><linearGradient xlink:href="#a" id="p" x1="3071.39" x2="3085.12" y1="49.34" y2="49.34" gradientTransform="matrix(-1 0 0 1 3320.44 0)"></linearGradient><linearGradient xlink:href="#a" id="q" x1="3107.11" x2="3120.83" y1="49.34" y2="49.34" gradientTransform="matrix(-1 0 0 1 3320.44 0)"></linearGradient><linearGradient xlink:href="#a" id="r" x1="3089.61" x2="3103.34" y1="76.02" y2="76.02" gradientTransform="matrix(-1 0 0 1 3320.44 0)"></linearGradient><linearGradient xlink:href="#a" id="s" x1="3125.33" x2="3139.05" y1="76.02" y2="76.02" gradientTransform="matrix(-1 0 0 1 3320.44 0)"></linearGradient></defs><g style="isolation:isolate"><path fill="#f5f5f5" d="M397,366.88A181.33,181.33,0,1,0,268.74,420V238.66Z"></path><path fill="url(#a)" d="M131.74,208.56a105.19,105.19,0,0,0-43.13,9.19,182.51,182.51,0,0,0,5.17,68.7,47.24,47.24,0,1,1,41.73,75.2,181.47,181.47,0,0,0,55.38,40.81,106,106,0,0,0-59.15-193.9Z" style="mix-blend-mode:multiply"></path><path fill="#e1830e" d="M419.07,422.89,290.86,294.68V476A180.75,180.75,0,0,0,419.07,422.89Z"></path><path fill="#5e6175" d="M271.74,423h-3C167.11,423,84.42,340.3,84.42,238.66S167.11,54.34,268.74,54.34,453.07,137,453.07,238.66a183.12,183.12,0,0,1-54,130.34L397,371.12,271.74,245.9Zm-3-362.64c-98.32,0-178.32,80-178.32,178.32,0,97.33,78.37,176.69,175.32,178.3V231.42l131.2,131.2a177.12,177.12,0,0,0,50.13-124C447.07,140.33,367.07,60.34,268.74,60.34Z"></path><path fill="#5e6175" d="M290.86,479h-3V287.43L423.32,422.89,421.2,425A183.12,183.12,0,0,1,290.86,479Zm3-177.08V473a177,177,0,0,0,121-50.11Z"></path><rect width="94.04" height="26.68" x="177.58" y="169.39" fill="#e1830e" rx="5.67"></rect><rect width="13.73" height="26.68" x="235.32" y="169.39" fill="url(#b)" style="mix-blend-mode:multiply"></rect><rect width="13.73" height="26.68" x="199.61" y="169.39" fill="url(#c)" style="mix-blend-mode:multiply"></rect><path fill="#5e6175" d="M266,199.06h-82.7a8.68,8.68,0,0,1-8.67-8.67V175.06a8.68,8.68,0,0,1,8.67-8.67H266a8.68,8.68,0,0,1,8.67,8.67v15.33A8.68,8.68,0,0,1,266,199.06Zm-82.7-26.67a2.67,2.67,0,0,0-2.67,2.67v15.33a2.68,2.68,0,0,0,2.67,2.67H266a2.68,2.68,0,0,0,2.67-2.67V175.06a2.67,2.67,0,0,0-2.67-2.67Z"></path><rect width="94.04" height="26.68" x="159.36" y="142.71" fill="#e1830e" rx="5.67"></rect><rect width="13.73" height="26.68" x="217.1" y="142.71" fill="url(#d)" style="mix-blend-mode:multiply"></rect><rect width="13.73" height="26.68" x="181.39" y="142.71" fill="url(#e)" style="mix-blend-mode:multiply"></rect><path fill="#5e6175" d="M247.73,172.39H165a8.68,8.68,0,0,1-8.67-8.68V148.38a8.68,8.68,0,0,1,8.67-8.67h82.7a8.68,8.68,0,0,1,8.67,8.67v15.33A8.68,8.68,0,0,1,247.73,172.39ZM165,145.71a2.68,2.68,0,0,0-2.67,2.67v15.33a2.68,2.68,0,0,0,2.67,2.68h82.7a2.68,2.68,0,0,0,2.67-2.68V148.38a2.68,2.68,0,0,0-2.67-2.67Z"></path><rect width="94.04" height="26.68" x="159.36" y="116.03" fill="#e1830e" rx="5.67"></rect><rect width="13.73" height="26.68" x="217.1" y="116.03" fill="url(#f)" style="mix-blend-mode:multiply"></rect><rect width="13.73" height="26.68" x="181.39" y="116.03" fill="url(#g)" style="mix-blend-mode:multiply"></rect><path fill="#5e6175" d="M247.73,145.71H165a8.68,8.68,0,0,1-8.67-8.67V121.7A8.68,8.68,0,0,1,165,113h82.7a8.68,8.68,0,0,1,8.67,8.67V137A8.68,8.68,0,0,1,247.73,145.71ZM165,119a2.68,2.68,0,0,0-2.67,2.67V137a2.68,2.68,0,0,0,2.67,2.67h82.7A2.68,2.68,0,0,0,250.4,137V121.7a2.68,2.68,0,0,0-2.67-2.67Z"></path><rect width="94.04" height="26.68" x="309.82" y="169.39" fill="#e1830e" rx="5.67"></rect><rect width="13.73" height="26.68" x="332.39" y="169.39" fill="url(#h)" style="mix-blend-mode:multiply"></rect><rect width="13.73" height="26.68" x="368.1" y="169.39" fill="url(#i)" style="mix-blend-mode:multiply"></rect><path fill="#5e6175" d="M398.19,199.06h-82.7a8.68,8.68,0,0,1-8.67-8.67V175.06a8.68,8.68,0,0,1,8.67-8.67h82.7a8.68,8.68,0,0,1,8.67,8.67v15.33A8.68,8.68,0,0,1,398.19,199.06Zm-82.7-26.67a2.67,2.67,0,0,0-2.67,2.67v15.33a2.68,2.68,0,0,0,2.67,2.67h82.7a2.68,2.68,0,0,0,2.67-2.67V175.06a2.67,2.67,0,0,0-2.67-2.67Z"></path><rect width="94.04" height="26.68" x="291.69" y="142.71" fill="#e1830e" rx="5.67"></rect><rect width="13.73" height="26.68" x="314.26" y="142.71" fill="url(#j)" style="mix-blend-mode:multiply"></rect><rect width="13.73" height="26.68" x="349.97" y="142.71" fill="url(#k)" style="mix-blend-mode:multiply"></rect><path fill="#5e6175" d="M380.06,172.39h-82.7a8.68,8.68,0,0,1-8.67-8.68V148.38a8.68,8.68,0,0,1,8.67-8.67h82.7a8.68,8.68,0,0,1,8.67,8.67v15.33A8.68,8.68,0,0,1,380.06,172.39Zm-82.7-26.68a2.68,2.68,0,0,0-2.67,2.67v15.33a2.68,2.68,0,0,0,2.67,2.68h82.7a2.68,2.68,0,0,0,2.67-2.68V148.38a2.68,2.68,0,0,0-2.67-2.67Z"></path><rect width="94.04" height="26.68" x="291.69" y="116.03" fill="#e1830e" rx="5.67"></rect><rect width="13.73" height="26.68" x="314.26" y="116.03" fill="url(#l)" style="mix-blend-mode:multiply"></rect><rect width="13.73" height="26.68" x="349.97" y="116.03" fill="url(#m)" style="mix-blend-mode:multiply"></rect><path fill="#5e6175" d="M380.06,145.71h-82.7a8.68,8.68,0,0,1-8.67-8.67V121.7a8.68,8.68,0,0,1,8.67-8.67h82.7a8.68,8.68,0,0,1,8.67,8.67V137A8.68,8.68,0,0,1,380.06,145.71ZM297.36,119a2.68,2.68,0,0,0-2.67,2.67V137a2.68,2.68,0,0,0,2.67,2.67h82.7a2.68,2.68,0,0,0,2.67-2.67V121.7a2.68,2.68,0,0,0-2.67-2.67Z"></path><rect width="94.04" height="26.68" x="177.58" y="89.35" fill="#e1830e" rx="5.67"></rect><rect width="13.73" height="26.68" x="235.32" y="89.35" fill="url(#n)" style="mix-blend-mode:multiply"></rect><rect width="13.73" height="26.68" x="199.61" y="89.35" fill="url(#o)" style="mix-blend-mode:multiply"></rect><path fill="#5e6175" d="M266,119h-82.7a8.68,8.68,0,0,1-8.67-8.67V95a8.69,8.69,0,0,1,8.67-8.68H266A8.69,8.69,0,0,1,274.62,95v15.33A8.68,8.68,0,0,1,266,119Zm-82.7-26.68A2.68,2.68,0,0,0,180.58,95v15.33a2.68,2.68,0,0,0,2.67,2.67H266a2.68,2.68,0,0,0,2.67-2.67V95A2.68,2.68,0,0,0,266,92.35Z"></path><rect width="94.04" height="26.68" x="177.58" y="36" fill="#e1830e" rx="5.67"></rect><rect width="13.73" height="26.68" x="235.32" y="36" fill="url(#p)" style="mix-blend-mode:multiply"></rect><rect width="13.73" height="26.68" x="199.61" y="36" fill="url(#q)" style="mix-blend-mode:multiply"></rect><path fill="#5e6175" d="M266,65.68h-82.7A8.68,8.68,0,0,1,174.58,57V41.67A8.68,8.68,0,0,1,183.25,33H266a8.68,8.68,0,0,1,8.67,8.67V57A8.68,8.68,0,0,1,266,65.68ZM183.25,39a2.68,2.68,0,0,0-2.67,2.67V57a2.68,2.68,0,0,0,2.67,2.68H266A2.68,2.68,0,0,0,268.62,57V41.67A2.68,2.68,0,0,0,266,39Z"></path><rect width="94.04" height="26.68" x="159.36" y="62.68" fill="#e1830e" rx="5.67"></rect><rect width="13.73" height="26.68" x="217.1" y="62.68" fill="url(#r)" style="mix-blend-mode:multiply"></rect><rect width="13.73" height="26.68" x="181.39" y="62.68" fill="url(#s)" style="mix-blend-mode:multiply"></rect><path fill="#5e6175" d="M247.73,92.35H165a8.68,8.68,0,0,1-8.67-8.67V68.35A8.68,8.68,0,0,1,165,59.68h82.7a8.68,8.68,0,0,1,8.67,8.67V83.68A8.68,8.68,0,0,1,247.73,92.35ZM165,65.68a2.68,2.68,0,0,0-2.67,2.67V83.68A2.67,2.67,0,0,0,165,86.35h82.7a2.67,2.67,0,0,0,2.67-2.67V68.35a2.68,2.68,0,0,0-2.67-2.67Z"></path><circle cx="319.22" cy="397.81" r="8.08" fill="#f5f5f5"></circle><circle cx="356.97" cy="433.4" r="8.08" fill="#f5f5f5"></circle><rect width="66.73" height="12.36" x="304.21" y="410.6" fill="#f5f5f5" rx="5.76" transform="rotate(-44.99 337.632 416.811)"></rect><circle cx="131.74" cy="314.55" r="63.48" fill="#f5f5f5"></circle><path fill="#e1830e" d="M131.74,224.77a89.79,89.79,0,1,0,89.78,89.78A89.78,89.78,0,0,0,131.74,224.77Zm0,153.24a63.46,63.46,0,1,1,63.46-63.46A63.45,63.45,0,0,1,131.74,378Z"></path><path fill="#5e6175" d="M131.74,407.34a92.79,92.79,0,1,1,92.78-92.79A92.89,92.89,0,0,1,131.74,407.34Zm0-179.57a86.79,86.79,0,1,0,86.78,86.78A86.88,86.88,0,0,0,131.74,227.77Zm0,153.24a66.46,66.46,0,1,1,66.46-66.46A66.53,66.53,0,0,1,131.74,381Zm0-126.91a60.46,60.46,0,1,0,60.46,60.45A60.52,60.52,0,0,0,131.74,254.1Z"></path><path fill="#e1830e" d="M131.73,351.53a21.94,21.94,0,0,1-21.92-21.92h13.74a8.19,8.19,0,1,0,8.18-8.19,21.92,21.92,0,1,1,21.92-21.92H139.92a8.19,8.19,0,1,0-8.19,8.19,21.92,21.92,0,1,1,0,43.84Z"></path><rect width="13.74" height="13.7" x="124.86" y="270.75" fill="#e1830e"></rect><rect width="13.74" height="13.7" x="124.86" y="344.66" fill="#e1830e"></rect><path fill="#a9afc4" d="M466.82,169.33c-.68-1.84-1.4-3.7-2.13-5.53l5.57-2.23c.75,1.87,1.48,3.78,2.18,5.66Zm-6-14.62c-.81-1.79-1.64-3.6-2.49-5.37l5.41-2.6c.87,1.82,1.73,3.67,2.55,5.51Zm-6.94-14.18c-.93-1.75-1.89-3.5-2.85-5.2l5.22-3c1,1.74,2,3.54,2.92,5.33ZM446,126.84c-1-1.65-2.1-3.33-3.19-5l5-3.3c1.12,1.7,2.22,3.42,3.27,5.11Zm-8.8-13.11c-1.15-1.59-2.34-3.2-3.53-4.76l4.78-3.63c1.22,1.6,2.44,3.24,3.62,4.88Zm-9.67-12.48c-1.25-1.5-2.54-3-3.85-4.51l4.52-3.95c1.34,1.53,2.67,3.08,3.94,4.62ZM417,89.45c-1.35-1.42-2.75-2.84-4.15-4.24L417.12,81c1.43,1.43,2.86,2.9,4.25,4.35Zm-11.29-11c-1.45-1.33-2.94-2.65-4.43-4l3.93-4.53c1.53,1.33,3.06,2.69,4.55,4Zm-12-10.25c-1.56-1.23-3.14-2.45-4.69-3.62l3.6-4.8c1.6,1.2,3.22,2.45,4.81,3.72ZM381,58.8c-1.65-1.12-3.31-2.21-4.95-3.25l3.22-5.07c1.69,1.07,3.4,2.2,5.1,3.35Zm-13.4-8.28c-3.24-1.8-5.13-2.66-5.14-2.67L365,42.39c.08,0,2.09,1,5.56,2.88Z"></path><path fill="#5e6175" d="M116.29 78.13a11.76 11.76 0 01-1-23.48h0a11.76 11.76 0 111 23.48zm-.45-17.5a5.76 5.76 0 106.21 5.26 5.77 5.77 0 00-6.21-5.26zM59.86 134.6a9.08 9.08 0 01-.74-18.13h0a9.08 9.08 0 11.74 18.13zm0-12.16a3.08 3.08 0 103.06 2.82A3.08 3.08 0 0059.88 122.44z"></path><path fill="#e1830e" d="M430.8,367.39a19.26,19.26,0,0,1,19.27,19.26,19.25,19.25,0,0,1,19.26-19.26,19.26,19.26,0,0,1-19.26-19.26A19.27,19.27,0,0,1,430.8,367.39Z"></path></g></svg>