<svg xmlns="http://www.w3.org/2000/svg" viewBox="0 0 512 512" width="512" height="512"><path d="M0 0 C3.0625 2 3.0625 2 5 4 C4.499654 7.702558 3.993103 9.690466 1 12 C-3.920028 12.925632 -7.896384 12.706314 -12.125 10 C-12.74375 9.34 -13.3625 8.68 -14 8 C-13.75 5.125 -13.75 5.125 -13 2 C-8.971672 -0.667767 -4.668508 -0.714398 0 0 Z " fill="#111111" transform="translate(85,26)"/><path d="M0 0 C3.0625 2 3.0625 2 5 4 C4.499654 7.702558 3.993103 9.690466 1 12 C-3.920028 12.925632 -7.896384 12.706314 -12.125 10 C-12.74375 9.34 -13.3625 8.68 -14 8 C-13.75 5.125 -13.75 5.125 -13 2 C-8.971672 -0.667767 -4.668508 -0.714398 0 0 Z " fill="#111111" transform="translate(125,26)"/><path d="M0 0 C3.0625 2 3.0625 2 5 4 C4.499654 7.702558 3.993103 9.690466 1 12 C-3.920028 12.925632 -7.896384 12.706314 -12.125 10 C-12.74375 9.34 -13.3625 8.68 -14 8 C-13.75 5.125 -13.75 5.125 -13 2 C-8.971672 -0.667767 -4.668508 -0.714398 0 0 Z " fill="#111111" transform="translate(165,26)"/><path d="M0 0 C3.0625 2 3.0625 2 5 4 C4.499654 7.702558 3.993103 9.690466 1 12 C-3.920028 12.925632 -7.896384 12.706314 -12.125 10 C-12.74375 9.34 -13.3625 8.68 -14 8 C-13.75 5.125 -13.75 5.125 -13 2 C-8.971672 -0.667767 -4.668508 -0.714398 0 0 Z " fill="#111111" transform="translate(205,26)"/><path d="M0 0 C3.0625 2 3.0625 2 5 4 C4.499654 7.702558 3.993103 9.690466 1 12 C-3.920028 12.925632 -7.896384 12.706314 -12.125 10 C-12.74375 9.34 -13.3625 8.68 -14 8 C-13.75 5.125 -13.75 5.125 -13 2 C-8.971672 -0.667767 -4.668508 -0.714398 0 0 Z " fill="#111111" transform="translate(245,26)"/><path d="M0 0 C3.025651 1.706777 3.49109 3.105583 4.4375 6.375 C0.651911 11.242186 -2.266711 14.91359 -8.6875 15.8125 C-11.5625 15.375 -11.5625 15.375 -13.5625 13.75 C-14.5625 11.375 -14.5625 11.375 -14.1875 8.4375 C-11.560858 3.48729 -5.921059 -1.444161 0 0 Z " fill="#111111" transform="translate(46.5625,27.625)"/><path d="M0 0 C2.675781 1.96875 2.675781 1.96875 5.3125 4.5 C6.195508 5.335313 7.078516 6.170625 7.988281 7.03125 C8.320215 7.356094 8.320215 7.356094 10 9 C9.34 10.98 8.68 12.96 8 15 C5.349898 15.772946 3.704233 16.222821 1 16 C-2.362139 14.122905 -5.279311 11.720689 -8 9 C-8.458753 3.724346 -8.458753 3.724346 -6.8125 1.125 C-4.297557 -0.435999 -2.935993 -0.379654 0 0 Z " fill="#111111" transform="translate(279,28)"/><path d="M0 0 C2.669351 1.026673 3.714009 1.678461 5.4375 3.9375 C6.174084 7.997279 6.160211 11.875751 5.4375 15.9375 C3.577802 18.249994 2.242432 18.768778 -0.5625 19.9375 C-5.4375 17.1875 -5.4375 17.1875 -6.5625 14.9375 C-7.482425 5.436637 -7.482425 5.436637 -4.875 1.1875 C-2.5625 -0.0625 -2.5625 -0.0625 0 0 Z " fill="#111111" transform="translate(32.5625,62.0625)"/><path d="M0 0 C1.640625 1.207031 1.640625 1.207031 3 3 C3.363281 5.558594 3.363281 5.558594 3.3125 8.4375 C3.308633 9.384961 3.304766 10.332422 3.300781 11.308594 C2.993784 14.055625 2.543921 15.717908 1 18 C-1.875 19 -1.875 19 -5 19 C-7.375 17.75 -7.375 17.75 -9 15 C-9.63804 9.736168 -9.94718 4.598437 -7 0 C-4.266349 -1.366826 -2.893336 -0.84683 0 0 Z " fill="#111111" transform="translate(291,64)"/><path d="M0 0 C2.669351 1.026673 3.714009 1.678461 5.4375 3.9375 C6.174084 7.997279 6.160211 11.875751 5.4375 15.9375 C3.577802 18.249994 2.242432 18.768778 -0.5625 19.9375 C-5.4375 17.1875 -5.4375 17.1875 -6.5625 14.9375 C-7.482425 5.436637 -7.482425 5.436637 -4.875 1.1875 C-2.5625 -0.0625 -2.5625 -0.0625 0 0 Z " fill="#111111" transform="translate(32.5625,102.0625)"/><path d="M0 0 C1.640625 1.207031 1.640625 1.207031 3 3 C3.363281 5.558594 3.363281 5.558594 3.3125 8.4375 C3.308633 9.384961 3.304766 10.332422 3.300781 11.308594 C2.993784 14.055625 2.543921 15.717908 1 18 C-1.875 19 -1.875 19 -5 19 C-7.375 17.75 -7.375 17.75 -9 15 C-9.63804 9.736168 -9.94718 4.598437 -7 0 C-4.266349 -1.366826 -2.893336 -0.84683 0 0 Z " fill="#111111" transform="translate(291,104)"/><path d="M0 0 C2.669351 1.026673 3.714009 1.678461 5.4375 3.9375 C6.174084 7.997279 6.160211 11.875751 5.4375 15.9375 C3.577802 18.249994 2.242432 18.768778 -0.5625 19.9375 C-5.4375 17.1875 -5.4375 17.1875 -6.5625 14.9375 C-7.482425 5.436637 -7.482425 5.436637 -4.875 1.1875 C-2.5625 -0.0625 -2.5625 -0.0625 0 0 Z " fill="#111111" transform="translate(32.5625,142.0625)"/><path d="M0 0 C2.915173 1.074011 4.778102 1.778102 7 4 C7.125 7.625 7.125 7.625 7 11 C8.30577 10.991118 9.61154 10.982235 10.956879 10.973083 C23.285845 10.89186 35.614756 10.831968 47.94393 10.792751 C54.281907 10.771911 60.619667 10.743659 66.95752 10.698242 C73.078346 10.654657 79.198965 10.630836 85.319935 10.620491 C87.650634 10.613122 89.981322 10.598733 92.311932 10.57708 C95.586294 10.547878 98.859805 10.544051 102.134277 10.545898 C102.61189 10.538708 102.61189 10.538708 105.0289 10.502319 C113.11132 10.551392 119.572844 12.736783 126.3125 17.1875 C132.591151 23.758181 135.127467 30.431193 135.120255 39.403381 C135.120942 40.062435 135.120942 40.062435 135.12442 43.397644 C135.120881 44.856568 135.117246 46.315491 135.113525 47.774414 C135.113243 49.31193 135.113402 50.849447 135.113968 52.386963 C135.114255 56.560158 135.108372 60.733325 135.101394 64.906514 C135.095146 69.268058 135.094555 73.629602 135.093369 77.99115 C135.09026 86.250027 135.082052 94.50889 135.072019 102.767761 C135.060845 112.170333 135.055344 121.572906 135.050324 130.975483 C135.039869 150.316996 135.022278 169.658497 135 189 C135.816128 189.125069 136.632255 189.250139 137.473114 189.378998 C138.54788 189.549607 139.622646 189.720217 140.72998 189.895996 C141.793608 190.062315 142.857236 190.228635 143.953094 190.399994 C148.054874 191.207729 151.460443 192.66264 155.125 194.625 C155.462614 194.799869 155.462614 194.799869 157.171143 195.684814 C165.085664 199.915788 171.907685 205.413714 178 212 C178.529805 212.547852 179.059609 213.095703 179.605469 213.660156 C193.063107 228.12786 199.620984 247.777278 199.273438 267.324219 C198.372797 288.810293 188.141882 308.845404 172.816406 323.585938 C156.750031 337.357116 137.417823 344.294247 116.259766 343.199707 C94.675272 341.292175 75.181039 330.59491 60.8125 314.558594 C52.391267 304.366988 44.754237 292.700537 45 279 C44.209468 279.002765 43.418935 279.005531 42.604447 279.00838 C23.348933 279.074698 4.093442 279.124309 -15.162162 279.155437 C-24.474116 279.17089 -33.785995 279.191952 -43.0979 279.226318 C-51.216299 279.256266 -59.334643 279.275586 -67.453095 279.282265 C-71.74982 279.286169 -76.046387 279.295311 -80.343061 279.31719 C-84.392035 279.33764 -88.440787 279.343817 -92.489807 279.339323 C-93.971204 279.340144 -95.452609 279.34606 -96.933962 279.357616 C-107.744862 279.43778 -116.563097 278.700498 -125.207031 271.816406 C-129.925691 267.036064 -133.062174 260.593108 -133.205322 253.866455 C-133.225262 253.024375 -133.245203 252.182295 -133.265747 251.314697 C-133.282465 250.392292 -133.299182 249.469888 -133.316406 248.519531 C-133.337233 247.542583 -133.358059 246.565635 -133.379517 245.559082 C-133.446241 242.310306 -133.504874 239.061449 -133.5625 235.8125 C-133.583679 234.702728 -133.604858 233.592956 -133.626678 232.449554 C-134.138924 205.301044 -134.102485 178.15211 -134 151 C-134.88043 151.046406 -135.760859 151.092813 -136.667969 151.140625 C-137.829414 151.176719 -138.990859 151.212813 -140.1875 151.25 C-141.336055 151.296406 -142.484609 151.342813 -143.667969 151.390625 C-147.657103 150.922966 -149.210913 149.834977 -152 147 C-152.33 146.01 -152.66 145.02 -153 144 C-151.361248 141.478844 -150.603872 140.410873 -148 139 C-144.60791 138.755859 -144.60791 138.755859 -140.789062 138.84375 C-140.154602 138.855029 -140.154602 138.855029 -136.943848 138.912109 C-135.972378 138.941113 -135.000908 138.970117 -134 139 C-134.004441 137.781927 -134.008882 136.563853 -134.013458 135.308868 C-134.054082 123.803969 -134.084022 112.299085 -134.103624 100.79413 C-134.114041 94.879976 -134.128162 88.965879 -134.150879 83.051758 C-134.172682 77.33943 -134.184584 71.627158 -134.189754 65.914791 C-134.193437 63.740417 -134.200627 61.566047 -134.21146 59.391697 C-134.226075 56.335447 -134.227974 53.279424 -134.227051 50.223145 C-134.234241 49.333374 -134.241432 48.443604 -134.24884 47.526871 C-134.212702 36.396759 -132.155039 25.155039 -124 17 C-118.745562 13.627606 -113.927791 10.8723 -107.577103 10.879745 C-106.672664 10.878371 -105.768226 10.876996 -104.83638 10.87558 C-103.846637 10.879175 -102.856894 10.88277 -101.837158 10.886475 C-100.793088 10.886329 -99.749018 10.886183 -98.673309 10.886032 C-95.215779 10.88673 -91.758302 10.894516 -88.300781 10.902344 C-85.906103 10.904208 -83.511424 10.905632 -81.116745 10.906631 C-74.808776 10.910453 -68.500831 10.92028 -62.192871 10.931335 C-55.758141 10.941558 -49.323408 10.946131 -42.888672 10.951172 C-30.259105 10.961902 -17.629554 10.978782 -5 11 C-5.051562 10.069297 -5.103125 9.138594 -5.15625 8.179688 C-5 5 -5 5 -2.5 2.125 C-1.675 1.42375 -0.85 0.7225 0 0 Z M-119.199679 26.681671 C-121.649054 29.835807 -121.492941 31.850571 -121.481018 35.820984 C-121.484436 36.506355 -121.487853 37.191726 -121.491375 37.897866 C-121.497962 40.19373 -121.475966 42.488423 -121.454102 44.78418 C-121.452973 46.430069 -121.453607 48.07596 -121.455872 49.721848 C-121.45702 54.190652 -121.433485 58.659029 -121.405576 63.127734 C-121.380589 67.797557 -121.378222 72.467389 -121.373474 77.137268 C-121.361036 85.980597 -121.328204 94.823728 -121.288076 103.66697 C-121.243383 113.734557 -121.221378 123.802155 -121.201294 133.869817 C-121.159472 154.579988 -121.089105 175.289982 -121 196 C-118.623825 196.112823 -118.623825 196.112823 -116 196 C-114.018799 194.194824 -114.018799 194.194824 -112.144531 191.679688 C-111.455688 190.761553 -110.766846 189.843418 -110.057129 188.897461 C-106.839256 184.365095 -103.72862 179.777677 -100.6875 175.125 C-99.296618 173.018841 -97.904642 170.913403 -96.511719 168.808594 C-95.783882 167.707573 -95.056045 166.606553 -94.306152 165.472168 C-90.651485 159.958883 -86.944651 154.480775 -83.232574 149.006042 C-82.424261 147.813455 -81.616757 146.620317 -80.81015 145.426575 C-62.743097 118.689403 -62.743097 118.689403 -55 117 C-47.271944 116.196769 -40.740823 117.020558 -34 121 C-27.374949 127.049781 -22.573461 134.783145 -17.704376 142.245819 C-15.972067 144.900848 -14.224124 147.545453 -12.477097 150.190811 C-11.592932 151.529918 -10.709557 152.869547 -9.826981 154.209702 C-5.796973 160.325681 -1.695259 166.39039 2.4375 172.4375 C3.033127 173.311082 3.628755 174.184663 4.242432 175.084717 C5.330107 176.675798 6.424399 178.262387 7.526855 179.843262 C8.489641 181.252816 9.417876 182.686768 10.305176 184.14502 C11.535156 186.097656 11.535156 186.097656 14 189 C16.922119 189.432617 16.922119 189.432617 20 189 C21.962402 187.364014 21.962402 187.364014 23.710938 184.980469 C24.0498 184.523093 24.0498 184.523093 25.764648 182.208496 C30.121375 175.955099 34.403948 169.658278 38.625 163.3125 C40.445337 160.575918 42.27164 157.84346 44.101562 155.113281 C44.504848 154.502694 44.908133 153.892106 45.323639 153.263016 C51.211807 144.481613 56.314053 138.617568 66.875 136.0625 C73.680833 135.542054 79.872542 137.715642 85.125 142 C93.498912 150.074844 99.480495 160.624821 105.812988 170.299316 C107.516058 172.885065 109.246291 175.448346 111 178 C111.599253 178.874951 112.198506 179.749902 112.815918 180.651367 C113.411626 181.4754 114.007334 182.299434 114.621094 183.148438 C114.885634 183.519285 114.885634 183.519285 116.224365 185.395996 C118.562907 187.508497 119.942155 187.128316 123 187 C123.200775 167.302704 123.384062 147.605318 123.546588 127.907668 C123.62246 118.761508 123.704032 109.615465 123.799072 100.469482 C123.881904 92.496939 123.953992 84.524383 124.013233 76.551629 C124.044968 72.330925 124.082046 68.110422 124.131994 63.889891 C124.178867 59.914877 124.21134 55.940002 124.232922 51.964773 C124.24334 50.508301 124.258952 49.051855 124.280241 47.595501 C124.481933 33.413124 124.481933 33.413124 121 28 C117.199821 24.187731 114.923615 22.446721 109.334996 22.286252 C108.982328 22.288538 108.982328 22.288538 107.197617 22.30011 C106.437979 22.285501 105.678342 22.270892 104.895685 22.25584 C102.380598 22.213636 99.866731 22.206679 97.351318 22.200195 C95.55796 22.177987 93.764626 22.153783 91.97132 22.127705 C87.252445 22.065906 82.533913 22.035293 77.814699 22.014208 C75.094173 22.000475 72.373821 21.979551 69.65337 21.955429 C57.864762 21.851009 46.07664 21.81117 34.287603 21.799811 C31.327083 21.796823 28.366567 21.79271 25.40605 21.788307 C16.087384 21.774784 6.768726 21.76503 -2.549949 21.761105 C-13.216078 21.756582 -23.882082 21.738778 -34.548173 21.710105 C-42.881114 21.688492 -51.214018 21.678402 -59.546986 21.677064 C-64.491436 21.676021 -69.435766 21.670212 -74.380186 21.652245 C-79.000956 21.635759 -83.621513 21.633611 -88.242302 21.642384 C-89.930134 21.643152 -91.617977 21.638835 -93.30578 21.628925 C-112.452111 21.523105 -112.452111 21.523105 -119.199679 26.681671 Z M-63.25 134.75 C-66.845351 139.562239 -69.953898 144.658142 -73.092285 149.773438 C-76.322157 155.007512 -79.779968 160.01982 -83.39209 164.995361 C-85.987424 168.572728 -88.49785 172.188197 -90.9375 175.875 C-97.491516 185.778554 -104.050174 195.632231 -111.4375 204.9375 C-120.652011 216.660702 -122.352497 227.970075 -122.3125 242.625 C-122.328613 243.813516 -122.344727 245.002031 -122.361328 246.226562 C-122.367737 257.710881 -122.367737 257.710881 -119 263 C-114.687381 266.4365 -111.843469 267.498691 -106.35611 267.481018 C-105.713949 267.484436 -105.071788 267.487853 -104.410168 267.491375 C-102.272493 267.497929 -100.136093 267.476021 -97.998535 267.454102 C-96.460724 267.452973 -94.922911 267.453608 -93.385101 267.455872 C-89.22011 267.457018 -85.055582 267.433528 -80.890698 267.405576 C-76.534527 267.380542 -72.178345 267.378219 -67.822113 267.373474 C-59.577374 267.36105 -51.332847 267.328236 -43.088201 267.288076 C-33.700121 267.243341 -24.31203 267.221367 -14.923869 267.201294 C4.384208 267.159503 23.692087 267.089162 43 267 C44.728825 258.632838 45.748492 250.886251 41 243.375 C39.674162 241.57778 38.340009 239.786679 37 238 C31.152146 230.092382 25.56133 222.027196 20.0625 213.875 C19.226614 212.638934 18.390509 211.403016 17.554199 210.167236 C16.274316 208.275911 14.994584 206.384486 13.715576 204.492569 C9.697619 198.549212 5.662466 192.617619 1.625 186.6875 C-3.07894 179.777922 -7.77187 172.861188 -12.449219 165.933594 C-13.859486 163.846356 -15.26986 161.759191 -16.680237 159.672028 C-17.585865 158.33086 -18.490799 156.989222 -19.394958 155.647064 C-24.272393 148.406947 -29.207823 141.23425 -34.385742 134.203369 C-35.685258 132.429605 -36.943292 130.625489 -38.1875 128.8125 C-47.290117 122.946369 -57.03098 127.25565 -63.25 134.75 Z M55 154 C52.431147 157.782931 50.06258 161.681264 47.710938 165.601562 C44.966973 170.133047 41.957058 174.443755 38.875 178.75 C38.370977 179.459226 37.866953 180.168452 37.347656 180.89917 C35.468476 183.54284 33.58764 186.185148 31.69043 188.815918 C30.530538 190.430461 29.389631 192.058593 28.25 193.6875 C27.615781 194.578242 26.981562 195.468984 26.328125 196.386719 C24.704906 199.580641 24.704423 201.443963 25 205 C26.189941 207.481934 26.189941 207.481934 27.851562 209.898438 C28.153848 210.344453 28.153848 210.344453 29.683594 212.601562 C30.324258 213.516797 30.964922 214.432031 31.625 215.375 C32.242461 216.2825 32.859922 217.19 33.496094 218.125 C34.721337 219.915145 35.959757 221.69635 37.211914 223.467773 C38.372392 225.111203 39.511291 226.770164 40.624023 228.446289 C41.12708 229.178154 41.630137 229.91002 42.148438 230.664062 C42.580757 231.310688 43.013076 231.957314 43.458496 232.623535 C45 234 45 234 47.567383 234.325439 C50 234 50 234 51.773438 232.128906 C52.301953 231.281992 52.830469 230.435078 53.375 229.5625 C55.698441 225.988754 58.052094 222.539601 60.6875 219.1875 C60.957559 218.843965 60.957559 218.843965 62.324219 217.105469 C62.877227 216.410664 63.430234 215.715859 64 215 C64.61875 214.177578 65.2375 213.355156 65.875 212.507812 C75.345729 201.33096 90.773449 194.569074 104 189 C104.756561 183.7079 102.208544 180.610871 99.363281 176.433594 C98.886827 175.717686 98.410372 175.001778 97.919479 174.264175 C96.910276 172.753536 95.895386 171.246682 94.875244 169.743408 C93.321795 167.451215 91.789635 165.145869 90.259766 162.837891 C89.274678 161.368959 88.288389 159.900832 87.300781 158.433594 C87.073073 158.090842 87.073073 158.090842 85.920731 156.356308 C82.654214 151.57436 79.692725 147.52439 73.730469 146.363281 C65.097315 146.239543 60.262517 146.947365 55 154 Z M71 220 C70.697715 220.291973 70.697715 220.291973 69.167969 221.769531 C58.004244 233.404548 54.409503 250.256225 54.5 265.8125 C54.504995 266.948164 54.50999 268.083828 54.515137 269.253906 C54.89301 287.51691 62.328789 301.066626 75 314 C75.603281 314.639375 76.206563 315.27875 76.828125 315.9375 C88.144445 326.958612 105.292989 331.597759 120.6875 331.5 C121.731882 331.495005 122.776265 331.49001 123.852295 331.484863 C142.074574 331.078022 157.115674 323.818026 170 311 C170.319043 310.698359 170.319043 310.698359 171.933594 309.171875 C183.197191 297.632332 187.589596 280.343695 187.4375 264.6875 C187.429927 263.590991 187.422354 262.494482 187.414551 261.364746 C187.053155 243.54557 180.391906 228.867786 168 216 C160.728976 209.523459 153.211659 205.098909 144 202 C143.126016 201.681602 142.252031 201.363203 141.351562 201.035156 C115.644139 193.04302 89.285135 201.266837 71 220 Z " fill="#111111" transform="translate(287,143)"/><path d="M0 0 C2.669351 1.026673 3.714009 1.678461 5.4375 3.9375 C6.174084 7.997279 6.160211 11.875751 5.4375 15.9375 C3.577802 18.249994 2.242432 18.768778 -0.5625 19.9375 C-5.4375 17.1875 -5.4375 17.1875 -6.5625 14.9375 C-7.482425 5.436637 -7.482425 5.436637 -4.875 1.1875 C-2.5625 -0.0625 -2.5625 -0.0625 0 0 Z " fill="#111111" transform="translate(32.5625,182.0625)"/><path d="M0 0 C2.669351 1.026673 3.714009 1.678461 5.4375 3.9375 C6.174084 7.997279 6.160211 11.875751 5.4375 15.9375 C3.577802 18.249994 2.242432 18.768778 -0.5625 19.9375 C-5.4375 17.1875 -5.4375 17.1875 -6.5625 14.9375 C-7.482425 5.436637 -7.482425 5.436637 -4.875 1.1875 C-2.5625 -0.0625 -2.5625 -0.0625 0 0 Z " fill="#111111" transform="translate(32.5625,222.0625)"/><path d="M0 0 C3.068134 1.258721 4.552493 2.24499 6.4375 5 C6.5625 8.5 6.5625 8.5 5.4375 12 C2.375 14.4375 2.375 14.4375 -0.5625 16 C-6.997283 12.347826 -6.997283 12.347826 -8.5625 10 C-8.5625 6.064998 -7.995494 4.469077 -5.3125 1.5625 C-2.5625 0 -2.5625 0 0 0 Z " fill="#111111" transform="translate(308.5625,231)"/><path d="M0 0 C3.96 0 7.92 0 12 0 C13.39935 2.7987 13.252654 4.904988 13 8 C11.146572 10.559495 10.062436 10.979188 7 12 C4.152682 10.402724 2.397 9.063392 1.234375 5.949219 C0.74563 3.983766 0.36522 1.992107 0 0 Z " fill="#111111" transform="translate(26,270)"/><path d="M0 0 C2.613281 0.351562 2.613281 0.351562 5.363281 2.039062 C6.613281 4.351562 6.613281 4.351562 6.613281 6.914062 C5.398265 9.875665 4.324463 10.694729 1.613281 12.351562 C-2.996269 13.171531 -7.072128 13.177003 -11.074219 10.664062 C-12.386719 8.351562 -12.386719 8.351562 -12.324219 5.789062 C-9.931428 -0.432193 -6.082775 -0.177246 0 0 Z " fill="#111111" transform="translate(67.38671875,281.6484375)"/><path d="M0 0 C2.613281 0.351562 2.613281 0.351562 5.363281 2.039062 C6.613281 4.351562 6.613281 4.351562 6.613281 6.914062 C5.398265 9.875665 4.324463 10.694729 1.613281 12.351562 C-2.996269 13.171531 -7.072128 13.177003 -11.074219 10.664062 C-12.386719 8.351562 -12.386719 8.351562 -12.324219 5.789062 C-9.931428 -0.432193 -6.082775 -0.177246 0 0 Z " fill="#111111" transform="translate(107.38671875,281.6484375)"/><path d="M0 0 C2.10872 1.847284 3.976468 3.647445 5.875 5.6875 C6.930307 6.785765 7.987586 7.882138 9.046875 8.976562 C9.552832 9.501533 10.058789 10.026504 10.580078 10.567383 C12.340979 12.344028 14.198627 13.967981 16.125 15.5625 C19 18 19 18 21 21 C24.04298 21.652067 26.063521 21.512451 28.820312 20.003906 C34.833631 15.70694 39.868013 10.282682 45 5 C46.664291 3.330961 48.330452 1.663781 50 0 C50.33 -0.33 50.66 -0.66 51 -1 C53.375 -1.3125 53.375 -1.3125 56 -1 C57.875 0.6875 57.875 0.6875 59 3 C58.753528 7.880149 56.461691 9.937248 53 13.1875 C48.071525 17.85695 48.071525 17.85695 47 20 C46.34 20 45.68 20 45 20 C44.79375 20.556875 44.5875 21.11375 44.375 21.6875 C43 24 43 24 39.875 26.375 C37 29 37 29 36.25 31.8125 C38.319994 40.609974 46.76846 46.946222 53 53 C54.669039 54.664291 56.336219 56.330452 58 58 C58.33 58.33 58.66 58.66 59 59 C59.3125 61.375 59.3125 61.375 59 64 C57.3125 65.875 57.3125 65.875 55 67 C50.229321 66.728303 48.204259 64.634499 45 61.25 C44.175 60.388906 43.35 59.527812 42.5 58.640625 C41.675 57.769219 40.85 56.897812 40 56 C39.132461 55.135039 38.264922 54.270078 37.371094 53.378906 C36.016067 52.019415 34.680523 50.638135 33.410156 49.199219 C31.055532 46.557944 29.608295 45.158686 26.125 44.25 C18.329811 46.120845 12.217428 53.223098 7 59 C6.67 59.66 6.34 60.32 6 61 C5.34 61 4.68 61 4 61 C3.67 61.99 3.34 62.98 3 64 C1.25 65.75 1.25 65.75 -1 67 C-3.868168 66.860089 -5.491453 66.339031 -7.875 64.75 C-9 63 -9 63 -8.914062 60.785156 C-7.657385 56.95605 -5.243048 54.526363 -2.5 51.6875 C-1.964072 51.11572 -1.428145 50.54394 -0.875977 49.954834 C2.964482 45.911615 7.017301 42.268694 11.453125 38.878906 C13 37 13 37 13.382812 34.011719 C12.288734 25.404227 2.885033 18.717156 -3 13 C-4.669039 11.335709 -6.336219 9.669548 -8 8 C-8.33 7.67 -8.66 7.34 -9 7 C-9.3125 4.625 -9.3125 4.625 -9 2 C-6.027994 -1.302229 -4.090752 -1.390973 0 0 Z " fill="#111111" transform="translate(383,375)"/></svg>