<svg xmlns="http://www.w3.org/2000/svg" viewBox="0 0 512 512" width="512" height="512"><path d="M0 0 C0.474375 0.515625 0.94875 1.03125 1.4375 1.5625 C3 3 3 3 5.875 3.4375 C9 3 9 3 11.5625 0.9375 C14 -1 14 -1 16.6875 -1 C19 0 19 0 20.3125 2.0625 C20.425937 2.382188 20.425937 2.382188 21 4 C20.34 4.86625 19.68 5.7325 19 6.625 C16.792662 10.349882 16.310305 11.775619 17 16 C18.167225 18.490416 19.510544 20.672725 21 23 C20.01 24.65 19.02 26.3 18 28 C12.25 27.25 12.25 27.25 10 25 C6.409895 24.601099 4.553026 24.662789 1.4375 26.5625 C-1 28 -1 28 -3.625 27.875 C-6.125431 26.953789 -7.318641 26.035329 -9 24 C-7.25 18.25 -7.25 18.25 -5 16 C-4.47019 12.026424 -4.681185 10.458296 -7 7.125 C-7.66 6.42375 -8.32 5.7225 -9 5 C-7.028156 -0.492993 -5.796181 -1.696443 0 0 Z " fill="#111111" transform="translate(353,76)"/><path d="M0 0 C1.801745 1.564257 3.518993 3.137011 5.160156 4.867188 C4.847656 7.242187 4.847656 7.242187 4.160156 9.867188 C1.160156 11.867188 1.160156 11.867188 -1.164062 11.722656 C-4.426997 10.67947 -6.811408 9.094311 -9.652344 7.179688 C-31.868486 -7.117288 -60.26422 -10.101617 -85.839844 -5.132812 C-102.245736 -1.41234 -116.91713 6.159796 -129.839844 16.867188 C-130.700938 17.552969 -131.562031 18.23875 -132.449219 18.945312 C-150.492469 34.074746 -160.843862 58.182591 -163.558594 81.257812 C-165.696566 108.695121 -160.013559 136.883825 -141.949219 158.402344 C-125.183613 177.520066 -102.115137 190.201495 -76.839844 193.867188 C-74.564482 194.000658 -72.286345 194.090374 -70.007812 194.148438 C-69.326613 194.16653 -68.645414 194.184622 -67.943573 194.203262 C-65.638255 194.262643 -63.332839 194.31515 -61.027344 194.367188 C-59.373616 194.407453 -57.719889 194.447736 -56.066162 194.488037 C-28.328493 195.139884 -0.582156 195.474245 27.160156 195.867188 C25.835093 191.621953 24.797732 189.017727 21.535156 185.957031 C21.181953 185.617041 21.181953 185.617041 19.394531 183.896484 C18.657187 183.206191 17.919844 182.515898 17.160156 181.804688 C15.69492 180.425265 14.236315 179.038756 12.785156 177.644531 C12.461602 177.341561 12.461602 177.341561 10.824219 175.80835 C8.948424 173.620198 8.086837 171.579659 7.160156 168.867188 C7.921992 167.97 8.683828 167.072812 9.46875 166.148438 C30.779195 140.59323 39.445288 113.162562 37.160156 79.867188 C35.372955 64.33576 29.382485 49.93125 21.285156 36.671875 C20.160156 33.867187 20.160156 33.867187 20.828125 31.070312 C22.160156 28.867188 22.160156 28.867188 24.472656 27.742188 C27.160156 27.867188 27.160156 27.867188 29.597656 29.742188 C42.60393 44.583202 49.446292 65.314579 49.160156 84.867188 C50.016577 84.841003 50.872998 84.814819 51.755371 84.787842 C54.97959 84.701848 58.203218 84.639568 61.428223 84.592529 C62.815139 84.567619 64.201927 84.533677 65.588379 84.48999 C77.246733 84.132243 84.927624 85.759372 93.636719 93.785156 C95.032665 95.195453 96.415543 96.618803 97.785156 98.054688 C98.14416 98.416592 98.14416 98.416592 99.960938 100.248047 C105.160156 105.571057 105.160156 105.571057 105.160156 107.867188 C110.857171 106.901592 115.31595 105.376456 120.472656 102.742188 C128.344919 98.98518 135.365245 98.677552 143.785156 100.804688 C151.402416 103.704519 157.369261 110.485912 162.160156 116.867188 C162.468403 117.731101 162.77665 118.595015 163.094238 119.485107 C165.160156 121.867188 165.160156 121.867188 167.3069 122.329346 C170.250838 122.512768 173.159779 122.532494 176.109375 122.503906 C177.195959 122.514284 178.282543 122.524662 179.402054 122.535355 C182.88424 122.565116 186.365366 122.561655 189.847656 122.554688 C193.311796 122.563599 196.77565 122.579662 200.2397 122.606155 C202.395566 122.620986 204.551543 122.624924 206.707443 122.616379 C220.963035 122.670066 220.963035 122.670066 225.160156 126.867188 C225.004138 129.909536 224.669925 131.380471 222.443665 133.506058 C219.655609 135.167933 217.980582 135.230415 214.749023 135.207764 C214.208614 135.20765 214.208614 135.20765 211.473816 135.207077 C210.313277 135.191593 209.152738 135.176109 207.957031 135.160156 C206.764105 135.155911 205.571178 135.151667 204.342102 135.147293 C200.531224 135.130498 196.720874 135.092843 192.910156 135.054688 C190.326831 135.039642 187.743497 135.025953 185.160156 135.013672 C178.826643 134.980591 172.493437 134.930383 166.160156 134.867188 C166.013203 136.132483 165.86625 137.397778 165.714844 138.701416 C164.581449 148.460167 158.701498 155.878115 151.160156 161.867188 C143.416301 166.352429 135.218056 168.373057 126.410156 166.183594 C116.449949 162.849691 108.167661 156.960342 102.9375 147.703125 C99.534641 140.604689 98.758801 134.652492 100.160156 126.867188 C101.01226 119.967518 100.215466 115.56682 95.992188 109.96875 C89.157378 102.128393 81.631716 97.10408 71.160156 95.867188 C67.533877 95.754296 63.912715 95.772737 60.285156 95.804688 C59.310625 95.809199 58.336094 95.813711 57.332031 95.818359 C54.941342 95.830078 52.550782 95.846485 50.160156 95.867188 C50.145977 96.657383 50.131797 97.447578 50.117188 98.261719 C49.115123 121.959193 39.679993 146.08054 24.628906 164.402344 C22.776317 167.511343 22.614389 169.305339 23.160156 172.867188 C24.699219 174.738281 24.699219 174.738281 26.785156 176.304688 C31.515331 180.093868 36.203177 183.996249 38.160156 189.867188 C38.502469 195.173041 38.691562 198.605146 35.160156 202.867188 C30.950306 205.889644 27.240402 206.9943 22.110535 206.987442 C21.314106 206.988817 20.517676 206.990191 19.697113 206.991608 C18.832525 206.988012 17.967936 206.984417 17.077148 206.980713 C16.618439 206.980786 16.618439 206.980786 14.297089 206.981155 C11.267045 206.980459 8.237064 206.97268 5.207031 206.964844 C3.105245 206.962979 1.003459 206.961555 -1.098328 206.960556 C-6.628674 206.956739 -12.158995 206.946916 -17.689331 206.935852 C-24.325658 206.923822 -30.961993 206.919232 -37.598328 206.913399 C-47.678851 206.903703 -57.759317 206.884541 -67.839844 206.867188 C-67.839844 226.997187 -67.839844 247.127187 -67.839844 267.867188 C-58.224727 267.80918 -48.609609 267.751172 -38.703125 267.691406 C-32.619134 267.665865 -26.535182 267.641589 -20.451172 267.623047 C-10.789986 267.593367 -1.129017 267.558457 8.531982 267.48999 C15.567756 267.440152 22.603353 267.407896 29.639298 267.396745 C33.364838 267.390227 37.089874 267.37491 40.815252 267.338537 C44.974312 267.298259 49.132494 267.297238 53.291748 267.299561 C54.526771 267.281584 55.761793 267.263608 57.034241 267.245087 C66.321899 267.301362 66.321899 267.301362 69.464432 270.402664 C70.024021 271.215957 70.58361 272.02925 71.160156 272.867188 C70.535156 275.242188 70.535156 275.242188 69.160156 277.867188 C63.998296 280.255278 59.007956 280.157565 53.441193 280.14566 C52.468264 280.151453 51.495336 280.157245 50.492925 280.163213 C47.236298 280.180204 43.979812 280.183089 40.723145 280.186035 C38.38731 280.195334 36.051479 280.205503 33.715652 280.216476 C27.375308 280.243796 21.034986 280.258932 14.694598 280.271904 C8.739524 280.285944 2.784492 280.309079 -3.170553 280.332175 C-14.963618 280.377616 -26.756693 280.414242 -38.549805 280.445312 C-50.003924 280.475509 -61.458019 280.509865 -72.912109 280.549805 C-73.26528 280.551035 -73.26528 280.551035 -75.052538 280.557264 C-78.59614 280.569639 -82.139741 280.582095 -85.683342 280.594592 C-115.068806 280.698119 -144.454306 280.787189 -173.839844 280.867188 C-173.994672 288.54302 -173.994672 288.54302 -171.25 292.300781 C-170.699731 293.062456 -170.149463 293.824131 -169.58252 294.608887 C-166.881022 298.109707 -164.125708 301.547179 -161.277344 304.929688 C-160.03727 306.418863 -158.797699 307.908456 -157.558594 309.398438 C-156.937266 310.143516 -156.315937 310.888594 -155.675781 311.65625 C-152.849885 315.059351 -150.062156 318.492948 -147.277344 321.929688 C-146.748425 322.581631 -146.219507 323.233574 -145.674561 323.905273 C-144.604935 325.223789 -143.535518 326.542474 -142.466309 327.861328 C-139.676114 331.302373 -136.883124 334.741147 -134.089844 338.179688 C-133.543201 338.852659 -132.996558 339.52563 -132.43335 340.218994 C-129.409066 343.94073 -126.378706 347.657335 -123.339844 351.367188 C-118.050337 357.824633 -112.790817 364.306373 -107.529297 370.786621 C-105.338228 373.484929 -103.146388 376.18261 -100.954346 378.880127 C-99.879744 380.202702 -98.805361 381.525455 -97.731201 382.848389 C-94.940016 386.285544 -92.144969 389.719453 -89.34375 393.148438 C-89.055645 393.501641 -89.055645 393.501641 -87.597656 395.289062 C-86.509088 396.623437 -85.419344 397.956855 -84.328125 399.289062 C-81.660611 402.56158 -79.034984 405.8643 -76.460938 409.210938 C-76.209852 409.536748 -76.209852 409.536748 -74.939209 411.185547 C-73.839844 412.867188 -73.839844 412.867188 -73.839844 414.867188 C49.580156 414.867188 173.000156 414.867188 300.160156 414.867188 C297.910582 408.118466 297.910582 408.118466 295.21875 404.949219 C294.639719 404.25804 294.060688 403.56686 293.464111 402.854736 C292.848181 402.13697 292.232251 401.419204 291.597656 400.679688 C290.318935 399.158918 289.040289 397.638085 287.761719 396.117188 C287.140713 395.385 286.519707 394.652812 285.879883 393.898438 C280.431216 387.462761 275.160906 380.888208 269.972656 374.242188 C264.029876 366.633058 257.882322 359.197419 251.726074 351.760742 C244.374958 342.871553 237.120375 333.90265 229.849609 324.947754 C227.658613 322.249535 225.466835 319.551951 223.274902 316.854492 C222.19956 315.531044 221.124364 314.207476 220.049316 312.883789 C217.268852 309.460516 214.485992 306.039233 211.699219 302.621094 C206.511259 296.253852 201.329503 289.890073 196.332031 283.371094 C195.160156 281.867187 195.160156 281.867187 194.160156 280.867188 C191.806094 280.747538 189.480027 280.691771 187.124512 280.677734 C186.387682 280.669441 185.650851 280.661148 184.891693 280.652603 C183.283692 280.635153 181.675665 280.62 180.067623 280.606827 C177.509381 280.58579 174.951265 280.558755 172.393097 280.530151 C166.940499 280.470332 161.48784 280.418438 156.035156 280.367188 C149.761575 280.307634 143.488053 280.244741 137.214573 280.175308 C134.718497 280.149131 132.222414 280.12806 129.726288 280.1073 C125.203128 280.064331 120.682087 279.979782 116.160156 279.867188 C115.437589 279.851991 114.715022 279.836794 113.970558 279.821136 C111.897011 279.769346 109.826605 279.689412 107.754395 279.599609 C107.164935 279.577675 107.164935 279.577675 104.181915 279.466675 C100.610061 278.758054 99.345419 277.734056 97.160156 274.867188 C97.160156 272.169203 97.836908 271.205298 99.685852 269.271347 C103.270467 267.23709 106.736098 267.440959 110.749023 267.463135 C111.181801 267.459703 111.181801 267.459703 113.371918 267.442337 C116.233789 267.424035 119.095114 267.427913 121.957031 267.433594 C123.949973 267.429032 125.942914 267.423727 127.935852 267.417709 C132.115503 267.40877 136.294962 267.411209 140.474609 267.421143 C145.818898 267.432609 151.162524 267.41246 156.506725 267.383225 C160.624696 267.364833 164.74251 267.365162 168.860512 267.370863 C170.829999 267.371016 172.799496 267.364992 174.768944 267.352571 C177.530948 267.337612 180.291743 267.348376 183.053711 267.365479 C183.860231 267.355811 184.666751 267.346143 185.497711 267.336182 C192.119448 267.421585 197.068814 269.490965 202.304688 273.515625 C207.304164 278.690727 211.714206 284.268945 216.105469 289.957031 C219.368894 294.167384 222.758776 298.26804 226.160156 302.367188 C230.464711 307.561253 234.706873 312.791613 238.847656 318.117188 C242.786648 323.181606 246.862946 328.10088 251.035889 332.973633 C254.348679 336.860232 257.526852 340.834916 260.660156 344.867188 C264.731201 350.105434 268.933566 355.204997 273.241699 360.249512 C276.647444 364.242243 279.94837 368.304902 283.207031 372.417969 C286.024984 375.951682 288.912819 379.427068 291.792969 382.910156 C293.509556 385.054474 295.158759 387.202404 296.777344 389.417969 C297.216431 390.012468 297.655518 390.606968 298.10791 391.219482 C298.957855 392.376485 299.796675 393.541766 300.622559 394.716064 C303.47623 398.582654 304.103305 398.855817 309.160156 399.867188 C309.160156 312.417188 309.160156 224.967188 309.160156 134.867188 C292.000156 134.867188 274.840156 134.867188 257.160156 134.867188 C255.180156 133.217187 253.200156 131.567187 251.160156 129.867188 C252.910156 124.992188 252.910156 124.992188 255.160156 123.867188 C256.586981 123.739579 258.019196 123.669608 259.451172 123.630127 C260.339698 123.603726 261.228225 123.577326 262.143677 123.550125 C263.108177 123.527139 264.072678 123.504152 265.066406 123.480469 C265.563642 123.467707 265.563642 123.467707 268.079956 123.403122 C270.191588 123.351029 272.303287 123.301613 274.415039 123.254639 C277.619552 123.180625 280.823295 123.089739 284.027344 122.998047 C286.082007 122.949475 288.136694 122.901918 290.191406 122.855469 C290.66556 122.840939 290.66556 122.840939 293.065063 122.76741 C302.012314 122.601496 309.967338 122.973782 316.785156 129.234375 C319.193001 132.09369 320.160156 134.104958 320.160156 137.867188 C321.150156 137.867188 322.140156 137.867188 323.160156 137.867188 C323.160156 231.587188 323.160156 325.307187 323.160156 421.867188 C322.170156 421.867188 321.180156 421.867188 320.160156 421.867188 C319.953906 422.485937 319.747656 423.104688 319.535156 423.742188 C317.493884 426.896882 315.837729 426.987016 312.160156 427.867188 C308.032628 428.155923 303.915175 428.132485 299.779007 428.114426 C299.148754 428.115633 299.148754 428.115633 295.959289 428.121742 C292.465053 428.128149 288.970933 428.122092 285.476705 428.113978 C281.702484 428.107391 277.928276 428.112353 274.154053 428.11586 C266.74489 428.120908 259.335773 428.115246 251.926616 428.10601 C243.236209 428.095574 234.545811 428.095698 225.855398 428.096182 C210.269068 428.096684 194.682758 428.087518 179.096436 428.072998 C164.123124 428.059057 149.149831 428.051821 134.176514 428.05249 C133.26312 428.05253 132.349727 428.05257 131.408655 428.052611 C130.952606 428.052631 130.952606 428.052631 128.64472 428.052734 C111.46025 428.053435 94.275787 428.047449 77.09132 428.03858 C71.943196 428.036042 66.795074 428.034643 61.646951 428.034253 C41.127701 428.032574 20.609 427.996951 0.089976 427.897735 C-4.634798 427.875438 -9.35955 427.859603 -14.084362 427.84784 C-22.02886 427.827979 -29.972909 427.791097 -37.917144 427.721902 C-41.624875 427.689904 -45.332218 427.665549 -49.040096 427.662304 C-53.085888 427.658306 -57.130336 427.615227 -61.175858 427.568314 C-62.363332 427.572775 -63.550807 427.577236 -64.774266 427.581833 C-71.830169 427.459116 -75.584215 426.673289 -80.839844 421.867188 C-83.105469 419.464844 -83.105469 419.464844 -85.089844 416.929688 C-85.850391 415.969336 -86.610938 415.008984 -87.394531 414.019531 C-88.201484 412.979258 -89.008437 411.938984 -89.839844 410.867188 C-91.62915 408.573672 -93.421863 406.282831 -95.214844 403.992188 C-95.676006 403.401233 -96.137168 402.810278 -96.612305 402.201416 C-99.766536 398.177636 -103.015324 394.251022 -106.339844 390.367188 C-110.052116 386.029532 -113.647029 381.623747 -117.152344 377.117188 C-123.045128 369.542429 -129.154582 362.15284 -135.273926 354.760742 C-138.815126 350.478618 -142.327891 346.1733 -145.839844 341.867188 C-146.322759 341.276152 -146.805674 340.685117 -147.303223 340.076172 C-153.527526 332.456138 -159.696564 324.803724 -165.730225 317.031738 C-169.574364 312.119275 -173.623799 307.397213 -177.781494 302.747559 C-185.839844 293.578519 -185.839844 293.578519 -185.839844 287.867188 C-186.829844 287.867188 -187.819844 287.867188 -188.839844 287.867188 C-188.839844 285.887187 -188.839844 283.907188 -188.839844 281.867188 C-187.849844 281.867188 -186.859844 281.867188 -185.839844 281.867188 C-185.752187 281.118242 -185.664531 280.369297 -185.574219 279.597656 C-184.699874 276.34677 -183.644968 275.316963 -181.089844 273.179688 C-180.414375 272.59832 -179.738906 272.016953 -179.042969 271.417969 C-173.726881 267.675971 -169.019473 267.587077 -162.735107 267.640137 C-161.827295 267.639845 -160.919483 267.639553 -159.984161 267.639252 C-156.991947 267.640642 -153.999983 267.656189 -151.007812 267.671875 C-148.929877 267.675606 -146.85194 267.678453 -144.774002 267.68045 C-139.311036 267.688078 -133.848177 267.707719 -128.385254 267.729858 C-122.808283 267.750335 -117.231295 267.759456 -111.654297 267.769531 C-100.716099 267.790966 -89.77798 267.825092 -78.839844 267.867188 C-78.854827 267.378137 -78.854827 267.378137 -78.930649 264.903244 C-79.043731 261.193995 -79.154061 257.484668 -79.263657 253.775314 C-79.311008 252.18494 -79.359058 250.594587 -79.407883 249.004257 C-79.848656 234.620714 -79.958594 220.257849 -79.839844 205.867188 C-80.893008 205.648047 -81.946172 205.428906 -83.03125 205.203125 C-112.285716 198.878666 -139.642702 182.640107 -156.7854 157.486084 C-173.958208 130.673982 -180.656752 99.982172 -173.839844 68.867188 C-169.146383 49.86008 -160.117618 33.158971 -146.839844 18.867188 C-146.027734 17.91457 -145.215625 16.961953 -144.378906 15.980469 C-126.795575 -4.41961 -102.947224 -14.535718 -76.839844 -19.132812 C-76.096055 -19.264297 -75.352266 -19.395781 -74.585938 -19.53125 C-49.560894 -23.272368 -20.168489 -15.147173 0 0 Z M115.910156 117.242188 C115.670391 117.524492 115.670391 117.524492 114.457031 118.953125 C109.820089 125.796804 110.273005 133.960644 111.160156 141.867188 C113.521631 147.925592 117.4959 151.846251 123.160156 154.867188 C129.621089 157.020832 138.302037 157.180387 144.597656 154.367188 C149.421367 151.445932 154.313521 146.945415 155.835938 141.410156 C156.790497 133.923191 156.765188 126.67389 153.160156 119.867188 C150.142204 116.047364 146.807053 112.539755 142.160156 110.867188 C139.32396 110.648363 136.618772 110.542516 133.785156 110.554688 C133.413906 110.546631 133.413906 110.546631 131.535156 110.505859 C125.058982 110.500138 120.157316 112.084922 115.910156 117.242188 Z " fill="#111111" transform="translate(188.83984375,52.1328125)"/><path d="M0 0 C4.213758 3.22027 8.072531 6.827478 11.921875 10.46875 C12.499375 11.005 13.076875 11.54125 13.671875 12.09375 C14.801616 13.172139 15.871291 14.313108 16.921875 15.46875 C16.921875 16.12875 16.921875 16.78875 16.921875 17.46875 C22.648062 16.252819 25.259188 14.656568 29.296875 10.21875 C35.339433 3.800631 41.887458 -2.481879 51.109375 -2.90625 C57.325022 -2.815437 61.324915 -0.059111 65.683594 4.183594 C69.545892 8.457372 71.639584 11.975175 72.296875 17.78125 C71.218023 28.389963 62.972155 35.931414 55.296875 42.65625 C52.921875 45.46875 52.921875 45.46875 52.734375 49.03125 C54.145697 53.116656 55.672695 54.643376 58.921875 57.46875 C65.261732 63.330947 71.356458 69.701497 72.234375 78.65625 C71.746687 84.606046 69.414821 88.644038 65.671875 93.21875 C61.279137 96.812808 57.176323 99.093009 51.546875 100.03125 C39.979114 98.236253 32.306671 89.953163 24.921875 81.46875 C24.921875 80.80875 24.921875 80.14875 24.921875 79.46875 C18.850102 80.600775 16.067996 81.684764 11.921875 86.46875 C5.864887 93.020491 -0.521612 98.997859 -9.765625 99.78125 C-14.56962 99.684289 -18.221068 98.329666 -22.078125 95.46875 C-26.804318 90.46024 -29.774467 85.555935 -30.453125 78.65625 C-30.116634 69.181373 -23.296071 62.942076 -17.078125 56.46875 C-16.541875 55.892539 -16.005625 55.316328 -15.453125 54.722656 C-14.375715 53.590735 -13.234436 52.519942 -12.078125 51.46875 C-11.418125 51.46875 -10.758125 51.46875 -10.078125 51.46875 C-11.297101 44.914669 -14.092751 41.931324 -18.953125 37.53125 C-24.621007 32.371725 -29.175696 27.4854 -30.574219 19.710938 C-30.420995 13.520697 -29.761767 9.270875 -25.308594 4.621094 C-18.107528 -2.084296 -9.027159 -5.797258 0 0 Z M-17.698975 10.151611 C-20.439395 14.755848 -20.333128 19.354211 -19.078125 24.46875 C-15.946785 28.897683 -12.071425 32.356579 -8.015625 35.90625 C-6.424315 37.331422 -4.842982 38.764827 -3.276993 40.217789 C-1.864952 41.523292 -0.425156 42.798584 1.015869 44.072021 C2.921875 46.46875 2.921875 46.46875 2.993896 48.974121 C1.644184 52.114946 -0.057842 53.885175 -2.515625 56.261719 C-3.410234 57.138926 -4.304844 58.016133 -5.226562 58.919922 C-6.167578 59.82291 -7.108594 60.725898 -8.078125 61.65625 C-9.934238 63.460239 -11.788503 65.266132 -13.640625 67.074219 C-14.05377 67.472015 -14.05377 67.472015 -16.144531 69.485107 C-19.16306 72.581768 -19.282714 74.606808 -19.390625 78.84375 C-19.332736 82.241399 -19.262234 84.108901 -17.703125 87.15625 C-13.547533 89.234046 -9.626654 89.056858 -5.078125 88.46875 C2.377328 85.628577 8.279354 77.215747 13.28125 71.230469 C15.037109 69.345011 16.755244 67.86406 18.921875 66.46875 C22.267871 66.7197 25.113016 67.628463 27.921875 69.46875 C28.229478 70.087983 28.53708 70.707217 28.854004 71.345215 C29.955253 73.535124 31.098694 74.903559 32.820312 76.632812 C33.382344 77.197422 33.944375 77.762031 34.523438 78.34375 C34.816055 78.6325 34.816055 78.6325 36.296875 80.09375 C36.874375 80.678984 37.451875 81.264219 38.046875 81.867188 C38.611484 82.429219 39.176094 82.99125 39.757812 83.570312 C40.268765 84.079009 40.779717 84.587705 41.306152 85.111816 C45.480593 88.61764 49.27222 88.921911 54.570312 88.765625 C56.921875 88.46875 56.921875 88.46875 59.546875 87.09375 C61.676669 83.02778 61.825336 78.946195 60.921875 74.46875 C57.394024 67.810162 51.491251 63.263677 45.945312 58.302734 C45.202812 57.624043 44.460312 56.945352 43.695312 56.246094 C43.019038 55.640154 42.342764 55.034214 41.645996 54.409912 C39.70503 52.224608 38.851034 50.221496 37.921875 47.46875 C42.795687 41.403969 48.325027 36.199739 54.121582 31.03833 C54.711812 30.5049 55.302041 29.97147 55.910156 29.421875 C56.175905 29.185493 56.175905 29.185493 57.520752 27.989258 C60.496939 24.75948 61.214632 21.785798 61.234375 17.46875 C61.242754 17.045938 61.242754 17.045938 61.285156 14.90625 C60.833366 11.87488 60.153828 10.572485 57.921875 8.46875 C53.256791 7.342219 48.168803 7.296624 43.847656 9.550781 C41.696114 11.394294 39.836174 13.376836 37.921875 15.46875 C36.151055 17.297716 34.365958 19.11144 32.57373 20.919434 C31.319961 22.18801 30.076467 23.466837 28.844238 24.756348 C28.555408 25.053074 28.555408 25.053074 27.09375 26.554688 C26.579092 27.091421 26.064434 27.628154 25.53418 28.181152 C23.659725 29.678105 22.28833 30.148544 19.921875 30.46875 C12.56299 26.773847 6.245351 19.398391 1.109375 13.09375 C-1.4019 10.08022 -2.94348 8.604277 -6.890625 8.132812 C-7.416562 8.126367 -7.416562 8.126367 -10.078125 8.09375 C-11.13 8.065391 -12.181875 8.037031 -13.265625 8.007812 C-16.078125 8.46875 -16.078125 8.46875 -17.698975 10.151611 Z " fill="#111111" transform="translate(105.078125,97.53125)"/><path d="M0 0 C6.613772 7.075198 10.0622 14.228784 9.972656 23.886719 C9.33919 30.525093 6.556603 37.262165 1.6875 41.875 C-7.05939 47.754293 -13.673739 49.951247 -24.3125 48.875 C-32.155586 46.256724 -38.708048 40.174424 -42.6875 33 C-46.167224 25.102541 -45.667595 18.788966 -42.667969 10.742188 C-38.981312 2.943899 -33.154177 -1.747716 -25.3125 -5.125 C-16.166761 -7.806833 -7.801819 -5.00494 0 0 Z M-32.8125 11.9375 C-35.610609 17.707823 -35.16885 24.305949 -33.1875 30.25 C-29.836125 34.941925 -27.126248 37.544724 -21.472656 38.574219 C-20.107109 38.604868 -18.740373 38.600101 -17.375 38.5625 C-17.021434 38.55823 -17.021434 38.55823 -15.232178 38.536621 C-9.995073 38.299978 -6.915173 37.205305 -3.378906 33.382812 C0.380524 28.067281 -0.660843 20.090336 -1.3125 13.875 C-3.189918 9.77366 -5.844191 7.813086 -9.5625 5.4375 C-18.762589 3.555664 -26.657583 4.397727 -32.8125 11.9375 Z " fill="#111111" transform="translate(437.3125,108.125)"/><path d="M0 0 C0.804375 0.845625 1.60875 1.69125 2.4375 2.5625 C5 5 5 5 7.75 5.6875 C11.901938 4.809205 14.448539 2.813181 17.753906 0.214844 C20 -1 20 -1 22.695312 -0.8125 C25 0 25 0 26.3125 2.0625 C26.425938 2.382187 26.425938 2.382187 27 4 C23.297872 9.744681 23.297872 9.744681 21.25 11.5 C20 13 20 13 19.4375 15.75 C20.145651 19.841537 21.884845 21.313832 24.65625 24.261719 C26 26 26 26 26.5 29.3125 C26 32 26 32 24 34 C21.75 34.5 21.75 34.5 19 34 C17.550781 32.65625 17.550781 32.65625 16.0625 31 C13.958831 28.75751 13.249695 28.066585 10.1875 27.25 C6.113646 28.208554 3.510019 30.219397 0.246094 32.785156 C-2 34 -2 34 -4.695312 33.8125 C-7 33 -7 33 -8.3125 30.9375 C-8.425937 30.617813 -8.425937 30.617813 -9 29 C-5.297872 23.255319 -5.297872 23.255319 -3.25 21.5 C-2 20 -2 20 -1.4375 17.25 C-2.05319 13.692681 -2.652647 13.056418 -5.0625 10.5625 C-7.79452 7.676201 -8 7.385161 -8 3.125 C-7.67 2.09375 -7.34 1.0625 -7 0 C-4.196644 -1.401678 -2.965064 -0.96537 0 0 Z " fill="#111111" transform="translate(37,261)"/><path d="M0 0 C0.981138 -0.006717 1.962275 -0.013434 2.973145 -0.020355 C6.214244 -0.03934 9.455137 -0.04326 12.696289 -0.04541 C14.954448 -0.051839 17.212607 -0.058567 19.470764 -0.065582 C24.205138 -0.077557 28.93944 -0.081263 33.673828 -0.080078 C39.727528 -0.079875 45.780758 -0.107158 51.834347 -0.141623 C56.499635 -0.16391 61.164811 -0.167915 65.830147 -0.166859 C68.061176 -0.169213 70.292209 -0.178024 72.523186 -0.193523 C75.651204 -0.213217 78.778214 -0.207331 81.90625 -0.195312 C82.819813 -0.206552 83.733375 -0.217791 84.674622 -0.22937 C91.403102 -0.163994 97.773219 1.150785 102.887035 5.820017 C104.344322 7.427567 105.623075 9.098526 106.899414 10.853027 C107.389258 11.495625 107.879102 12.138223 108.383789 12.800293 C110.012703 14.949725 111.611775 17.119609 113.211914 19.290527 C114.456948 20.946273 115.703074 22.601197 116.950195 24.255371 C131.211914 43.305857 131.211914 43.305857 131.211914 48.415527 C129.853224 52.321761 127.986298 55.403335 124.211914 57.290527 C122.864203 57.397703 121.511517 57.44564 120.159653 57.462204 C119.735659 57.468544 119.735659 57.468544 117.589996 57.500626 C117.123774 57.505074 117.123774 57.505074 114.764404 57.527588 C114.274054 57.534144 114.274054 57.534144 111.792587 57.567322 C108.535268 57.609255 105.277924 57.643693 102.020508 57.677246 C99.75806 57.7029 97.495614 57.728684 95.23317 57.754593 C90.480916 57.807641 85.72864 57.856546 80.976318 57.903076 C74.899029 57.963268 68.822002 58.037522 62.744918 58.115451 C58.066843 58.173201 53.388704 58.221429 48.710497 58.267038 C46.471072 58.290383 44.23168 58.317118 41.992338 58.347357 C38.849963 58.388748 35.707729 58.41679 32.565186 58.44165 C32.106048 58.449136 32.106048 58.449136 29.782532 58.487015 C20.406806 58.532608 13.401126 57.49144 6.512695 50.864746 C2.971026 46.902165 -0.021046 42.612293 -3.022461 38.239746 C-6.640372 32.995912 -10.577559 27.995595 -14.498047 22.976318 C-15.026885 22.293679 -15.555723 21.61104 -16.100586 20.907715 C-16.571094 20.305562 -17.041602 19.703408 -17.526367 19.083008 C-19.65658 16.056688 -20.805451 14.106703 -20.725586 10.353027 C-19.351961 5.865852 -16.826382 3.401104 -12.727966 1.16806 C-8.478147 -0.10048 -4.413037 -0.00434 0 0 Z M55.125977 10.509277 C53.329947 10.531774 51.533916 10.554193 49.737885 10.576538 C45.059276 10.634952 40.38068 10.694404 35.702087 10.754089 C30.908496 10.815052 26.114892 10.87501 21.321289 10.935059 C11.951485 11.052577 2.581695 11.171195 -6.788086 11.290527 C-6.158796 16.550834 -5.37996 19.524182 -2.100586 23.728027 C-1.740293 24.198535 -1.740293 24.198535 0.083008 26.57959 C0.785547 27.474199 1.488086 28.368809 2.211914 29.290527 C3.299003 30.725189 4.382795 32.162361 5.461914 33.603027 C5.937578 34.23209 6.413242 34.861152 6.90332 35.509277 C8.122575 37.16892 9.264576 38.884558 10.399414 40.603027 C12.803558 44.167793 14.110178 45.923282 18.211914 47.290527 C20.240458 47.384756 22.272003 47.418464 24.302734 47.419922 C24.933297 47.421498 24.933297 47.421498 28.124329 47.429474 C29.512899 47.427679 30.901469 47.425626 32.290039 47.42334 C33.736064 47.424015 35.182088 47.424987 36.628113 47.426239 C39.681448 47.427718 42.734754 47.425565 45.788086 47.420898 C49.600822 47.415341 53.413486 47.418477 57.226219 47.424351 C77.241116 47.450271 97.212194 47.078911 117.211914 46.290527 C117.449513 41.314609 115.900053 38.786103 112.961914 34.915527 C112.518074 34.317725 112.074233 33.719922 111.616943 33.104004 C110.661377 31.826383 109.699143 30.553728 108.730957 29.285645 C107.1747 27.24165 105.649122 25.17671 104.12207 23.11084 C103.091626 21.752468 102.05912 20.395656 101.024414 19.040527 C100.550361 18.396802 100.076309 17.753076 99.587891 17.089844 C96.965816 13.736006 94.764012 11.393554 90.409622 10.493835 C87.646623 10.238233 84.929352 10.228566 82.154053 10.240723 C80.904795 10.24602 79.655537 10.251317 78.368423 10.256775 C70.620626 10.314898 62.87333 10.409481 55.125977 10.509277 Z " fill="#111111" transform="translate(296.7880859375,387.70947265625)"/><path d="M0 0 C0.746367 -0.016113 1.492734 -0.032227 2.261719 -0.048828 C6.830036 -0.052871 9.796484 0.362125 13.5 3.3125 C13.83 3.8075 13.83 3.8075 15.5 6.3125 C12.875 11.1875 12.875 11.1875 9.5 12.3125 C6.566873 12.56155 3.630134 12.543682 0.6875 12.5625 C-0.107207 12.583125 -0.901914 12.60375 -1.720703 12.625 C-6.7038 12.657973 -10.231791 12.180308 -14.5 9.3125 C-15.5 6.3125 -15.5 6.3125 -14.875 4.25 C-11.444375 -0.584063 -5.358965 -0.023139 0 0 Z " fill="#111111" transform="translate(229.5,408.6875)"/><path d="M0 0 C0.979889 -0.00287 1.959778 -0.00574 2.96936 -0.008698 C5.037034 -0.010735 7.104727 -0.005226 9.172363 0.007324 C12.332796 0.023382 15.49195 0.007465 18.652344 -0.011719 C20.664065 -0.009736 22.675786 -0.005892 24.6875 0 C25.630328 -0.006073 26.573157 -0.012145 27.544556 -0.018402 C32.39711 0.033483 35.98595 0.090207 39.84375 3.398438 C40.65625 6.085938 40.65625 6.085938 40.84375 8.398438 C37.84317 11.002886 36.008454 11.775253 32.046875 11.786621 C31.099092 11.796078 30.151309 11.805534 29.174805 11.815277 C28.158057 11.809204 27.141309 11.803132 26.09375 11.796875 C25.043486 11.799745 23.993223 11.802615 22.911133 11.805573 C20.692052 11.807613 18.472953 11.802086 16.253906 11.789551 C12.856362 11.773497 9.460007 11.789402 6.0625 11.808594 C3.906247 11.806611 1.749995 11.802768 -0.40625 11.796875 C-0.914624 11.799911 -0.914624 11.799911 -3.487305 11.815277 C-4.435088 11.805821 -5.382871 11.796364 -6.359375 11.786621 C-6.775259 11.785428 -6.775259 11.785428 -8.879883 11.779388 C-11.701048 11.307265 -13.086042 10.345338 -15.15625 8.398438 C-15.71875 5.898438 -15.71875 5.898438 -15.15625 3.398438 C-10.607422 -0.506402 -5.676411 -0.036561 0 0 Z " fill="#111111" transform="translate(220.15625,433.6015625)"/></svg>