<svg xmlns="http://www.w3.org/2000/svg" viewBox="0 0 512 512" width="512" height="512"><path d="M0 0 C0.33 0.99 0.66 1.98 1 3 C2.9375 3.5625 2.9375 3.5625 5 4 C5.66 4.66 6.32 5.32 7 6 C9.9375 6.3125 9.9375 6.3125 13 6 C14.75 4.5 14.75 4.5 16 3 C16.66 3 17.32 3 18 3 C18 2.01 18 1.02 18 0 C18.99 0 19.98 0 21 0 C24.051261 5.248169 24.051261 5.248169 23.8125 8.75 C23 11 23 11 21 13 C20.467795 17.789844 21.53779 19.998909 24 24 C24.5 26.625 24.5 26.625 24 29 C21.5 30.8125 21.5 30.8125 19 32 C18.154375 31.319375 17.30875 30.63875 16.4375 29.9375 C12.282526 27.595606 10.536215 27.801755 6 29 C5.01 29.66 4.02 30.32 3 31 C-0.0625 31.25 -0.0625 31.25 -3 31 C-3.66 30.34 -4.32 29.68 -5 29 C-4.784298 25.692566 -4.457062 23.603322 -2.4375 20.9375 C-1 19 -1 19 -0.5625 16.5625 C-1 14 -1 14 -3.0625 11.5 C-5 9 -5 9 -4.75 6.1875 C-4.5025 5.465625 -4.255 4.74375 -4 4 C-2.68 3.67 -1.36 3.34 0 3 C0 2.01 0 1.02 0 0 Z " fill="#111111" transform="translate(221,0)"/><path d="M0 0 C0.825 0.53625 1.65 1.0725 2.5 1.625 C7.730963 6.594415 12.05631 13.664881 12.3125 21 C12.23444 27.824646 9.794115 34.009808 6.3125 39.8125 C0.388102 45.41666 -6.198465 49.858499 -14.5625 50.0625 C-23.856918 49.649415 -30.018231 46.391634 -36.375 39.6875 C-41.280917 33.774991 -43.646752 28.175605 -43.351562 20.433594 C-42.303878 13.181289 -39.907066 6.564551 -34 2 C-22.72099 -5.817362 -11.687679 -9.031388 0 0 Z M-31 13 C-32.8207 18.4621 -33.228495 25.607318 -31.246094 31.082031 C-28.655973 35.094179 -25.464306 37.511898 -21 39 C-14.165455 39.74051 -8.6325 39.114061 -3 35 C0.881573 31.215466 1.326666 27.855681 1.5625 22.625 C1.380263 16.719175 0.243813 12.254981 -4 8 C-7.497496 5.6107 -10.779148 5.700814 -14.9375 5.6875 C-16.142773 5.670742 -17.348047 5.653984 -18.589844 5.636719 C-24.075966 6.221151 -27.431127 8.921288 -31 13 Z " fill="#111111" transform="translate(337,20)"/><path d="M0 0 C7.021376 4.331595 12.167022 11.525168 14.355469 19.453125 C15.579027 27.553922 13.263729 34.991381 8.730469 41.703125 C3.498651 48.23639 -4.688819 51.881312 -12.894531 52.828125 C-21.652116 51.952367 -28.845963 48.050607 -34.644531 41.453125 C-39.62343 34.121016 -41.739875 27.3305 -40.644531 18.453125 C-37.980864 10.076266 -32.876803 4.688493 -25.515625 0.136719 C-17.237563 -4.113378 -8.411258 -3.79777 0 0 Z M-27.757812 14.636719 C-31.308477 19.936985 -30.524934 26.362578 -29.644531 32.453125 C-27.460145 36.899408 -24.236523 39.646168 -19.644531 41.453125 C-13.245366 42.139386 -7.02675 42.355234 -1.644531 38.453125 C3.435766 32.823607 3.693884 29.116386 3.644531 21.664062 C3.252517 17.309522 2.282882 15.631459 -0.644531 12.453125 C-0.902344 12.154063 -0.902344 12.154063 -2.207031 10.640625 C-9.863099 4.316047 -21.814873 8.496047 -27.757812 14.636719 Z " fill="#111111" transform="translate(148.64453125,22.546875)"/><path d="M0 0 C0.474375 0.515625 0.94875 1.03125 1.4375 1.5625 C3 3 3 3 5.875 3.4375 C9 3 9 3 11.5625 0.9375 C14 -1 14 -1 16.6875 -1 C19 0 19 0 20.3125 2.0625 C20.425937 2.382188 20.425937 2.382188 21 4 C20.34 4.86625 19.68 5.7325 19 6.625 C16.792662 10.349882 16.310305 11.775619 17 16 C18.167225 18.490416 19.510544 20.672725 21 23 C20.01 24.65 19.02 26.3 18 28 C12.25 27.25 12.25 27.25 10 25 C6.409895 24.601099 4.553026 24.662789 1.4375 26.5625 C-1 28 -1 28 -3.625 27.875 C-6.125431 26.953789 -7.318641 26.035329 -9 24 C-7.25 18.25 -7.25 18.25 -5 16 C-4.47019 12.026424 -4.681185 10.458296 -7 7.125 C-7.66 6.42375 -8.32 5.7225 -9 5 C-7.028156 -0.492993 -5.796181 -1.696443 0 0 Z " fill="#111111" transform="translate(392,57)"/><path d="M0 0 C7.923523 5.727979 13.283146 11.62527 15.597656 21.199219 C15.729825 21.741713 15.729825 21.741713 16.398682 24.487061 C16.597117 25.316331 16.795552 26.145601 17 27 C17.792914 26.988897 18.585829 26.977794 19.402771 26.966354 C26.877271 26.866146 34.351446 26.790033 41.826443 26.740939 C45.669417 26.714851 49.511837 26.679469 53.354492 26.622803 C57.063331 26.568453 60.771636 26.538574 64.480843 26.525614 C65.895494 26.516379 67.310117 26.498345 68.724541 26.47135 C70.70637 26.435032 72.688737 26.432957 74.670898 26.432373 C75.798969 26.42127 76.92704 26.410167 78.089294 26.398727 C81 27 81 27 83.395569 29.535477 C83.925031 30.348769 84.454493 31.162062 85 32 C83.630165 35.161158 83.010936 35.992709 80 38 C77.171585 38.240509 77.171585 38.240509 73.692627 38.227051 C73.042066 38.226975 73.042066 38.226975 69.749832 38.226593 C68.329314 38.21638 66.908797 38.205948 65.488281 38.195312 C64.035255 38.191582 62.582226 38.188735 61.129196 38.186737 C57.306885 38.179105 53.484726 38.15946 49.662476 38.137329 C45.761333 38.116862 41.860165 38.107733 37.958984 38.097656 C30.30592 38.076214 22.652981 38.042083 15 38 C14.710283 39.26167 14.420566 40.52334 14.12207 41.823242 C12.460698 49.058251 6.589708 53.895862 1 58.4375 C-7.227011 62.722402 -15.456481 64.713318 -24.640625 62.308594 C-34.742883 58.605466 -41.820154 52.473863 -47 43 C-47.365396 41.340068 -47.70339 39.673592 -48 38 C-48.748704 38.030293 -49.497407 38.060586 -50.268799 38.091797 C-65.186023 38.68579 -80.07032 39.165477 -95 39 C-93.723144 44.302067 -91.311432 47.024962 -87.25 50.4375 C-86.162664 51.390156 -85.078004 52.345874 -83.996094 53.304688 C-83.477729 53.763271 -82.959365 54.221855 -82.425293 54.694336 C-79.162847 57.682956 -75.987977 61.024045 -74 65 C-73.914409 67.17825 -73.892866 69.359153 -73.902344 71.539062 C-73.905566 72.841016 -73.908789 74.142969 -73.912109 75.484375 C-73.920465 76.864584 -73.92893 78.244792 -73.9375 79.625 C-73.942515 81.013019 -73.947078 82.40104 -73.951172 83.789062 C-73.96299 87.192751 -73.979466 90.596354 -74 94 C-73.495493 93.989526 -73.495493 93.989526 -70.942383 93.936523 C-67.192853 93.864032 -63.443385 93.818168 -59.693359 93.780273 C-58.071509 93.760179 -56.44973 93.732897 -54.828125 93.698242 C-52.49461 93.649627 -50.162054 93.627011 -47.828125 93.609375 C-47.105062 93.58873 -46.381998 93.568085 -45.637024 93.546814 C-42.0531 93.545223 -40.33522 93.727379 -37.510742 96.024414 C-37.012197 96.676357 -36.513652 97.328301 -36 98 C-37.3125 100.9375 -37.3125 100.9375 -39 104 C-42.486788 105.162263 -45.600041 105.132401 -49.225342 105.113525 C-49.957298 105.113671 -50.689254 105.113817 -51.44339 105.113968 C-53.86203 105.113271 -56.280592 105.105491 -58.699219 105.097656 C-60.376449 105.095791 -62.05368 105.094368 -63.730911 105.093369 C-68.145004 105.089551 -72.559064 105.079727 -76.973145 105.068665 C-81.477535 105.058435 -85.98193 105.053868 -90.486328 105.048828 C-99.324233 105.038104 -108.162114 105.021036 -117 105 C-116.894647 136.821662 -116.784791 168.643305 -116.668883 200.464931 C-116.655118 204.245094 -116.64139 208.025257 -116.627686 211.80542 C-116.626321 212.181608 -116.626321 212.181608 -116.619418 214.085349 C-116.57567 226.174032 -116.534926 238.262723 -116.495347 250.35142 C-116.454488 262.810007 -116.410275 275.26858 -116.363121 287.727145 C-116.336814 294.701947 -116.311952 301.676747 -116.290926 308.651567 C-116.241915 324.695187 -116.16866 340.738326 -116.02793 356.781435 C-116.009559 358.898475 -115.992237 361.015524 -115.976053 363.132581 C-115.932162 368.787963 -115.869404 374.442343 -115.770401 380.097043 C-115.744184 381.729911 -115.724143 383.362893 -115.711135 384.99592 C-115.623279 395.08641 -114.563077 403.146374 -109.25 411.875 C-103.249624 417.542022 -96.256725 419.147767 -88.222427 419.158218 C-87.821707 419.160687 -87.821707 419.160687 -85.793818 419.173182 C-83.096353 419.188589 -80.398911 419.196928 -77.701416 419.205322 C-75.768792 419.214903 -73.836169 419.224913 -71.903549 419.235321 C-66.627153 419.262469 -61.350747 419.283453 -56.074319 419.303323 C-50.496954 419.325299 -44.919614 419.35267 -39.34227 419.379379 C-29.913821 419.423761 -20.485361 419.464465 -11.056885 419.502686 C-1.495998 419.541454 8.064872 419.582886 17.625732 419.627686 C18.787295 419.633125 19.948858 419.638564 21.14562 419.644168 C23.482436 419.655122 25.819253 419.666079 28.15607 419.677039 C49.497449 419.776824 70.838844 419.863723 92.180334 419.936197 C102.367204 419.970988 112.554003 420.010256 122.740796 420.063002 C129.217609 420.096179 135.694413 420.119881 142.171282 420.138777 C144.65888 420.147655 147.146469 420.159937 149.634031 420.176027 C152.938442 420.196947 156.242652 420.205499 159.547119 420.210693 C160.463988 420.219623 161.380857 420.228553 162.32551 420.237753 C173.034472 420.222322 182.402743 418.708102 191 412 C197.073908 404.863158 197.297669 397.165051 197.302979 388.222168 C197.311418 387.159381 197.319857 386.096595 197.328552 385.001602 C197.354277 381.498459 197.366464 377.995401 197.378906 374.492188 C197.395095 372.044681 197.412276 369.597181 197.430405 367.149689 C197.476058 360.707062 197.510865 354.264425 197.542603 347.821716 C197.594478 337.532087 197.660094 327.242553 197.730818 316.953037 C197.753465 313.37437 197.769861 309.795714 197.785538 306.21701 C197.947675 275.660952 197.947675 275.660952 202 271 C205.701229 271.500166 207.691849 272.00672 210 275 C210.380317 277.206915 210.380317 277.206915 210.38768 279.828949 C210.392632 280.326467 210.392632 280.326467 210.417694 282.844208 C210.413192 283.935087 210.408691 285.025966 210.404053 286.149902 C210.407484 286.724895 210.407484 286.724895 210.42485 289.634705 C210.443209 293.451907 210.439265 297.268701 210.433594 301.085938 C210.437001 303.069794 210.440416 305.053651 210.444947 307.037506 C210.459009 313.285628 210.457423 319.533614 210.446045 325.781738 C210.434615 332.199954 210.448549 338.617748 210.475441 345.035908 C210.49772 350.56227 210.504207 356.088502 210.498365 361.614906 C210.495017 364.907953 210.499008 368.200674 210.514616 371.493694 C210.529621 375.18149 210.518775 378.868384 210.501709 382.556152 C210.511377 383.626789 210.521045 384.697426 210.531006 385.800507 C210.404742 398.938152 206.199577 411.002356 197.34375 420.839844 C190.765483 426.937153 182.921497 430.504361 174 431 C174 431.99 174 432.98 174 434 C85.89 434 -2.22 434 -93 434 C-93 433.01 -93 432.02 -93 431 C-93.94875 430.938125 -94.8975 430.87625 -95.875 430.8125 C-105.808409 429.330499 -114.453304 422.737227 -120.566406 415.023438 C-126.040996 406.819723 -128.11776 397.56463 -128.134221 387.789538 C-128.138679 386.556987 -128.143137 385.324436 -128.14773 384.054535 C-128.14764 382.694941 -128.147451 381.335347 -128.147171 379.975754 C-128.150473 378.525059 -128.154199 377.074365 -128.158312 375.623672 C-128.168307 371.641249 -128.172045 367.65884 -128.174702 363.676405 C-128.178612 359.379768 -128.18819 355.083144 -128.196915 350.786514 C-128.216654 340.414396 -128.226741 330.042278 -128.235642 319.670146 C-128.240028 314.784469 -128.245394 309.898793 -128.250631 305.013117 C-128.267639 288.771486 -128.282134 272.529857 -128.28938 256.288218 C-128.29129 252.075853 -128.29321 247.863488 -128.295166 243.651123 C-128.29565 242.60418 -128.296133 241.557238 -128.296632 240.47857 C-128.304936 223.510366 -128.330282 206.542232 -128.362747 189.574058 C-128.395811 172.150162 -128.413828 154.726302 -128.417024 137.302375 C-128.41919 127.520587 -128.427941 117.738901 -128.453485 107.957144 C-128.475184 99.628951 -128.483247 91.300885 -128.473519 82.972667 C-128.468972 78.724426 -128.470882 74.476449 -128.49028 70.228245 C-128.507898 66.336423 -128.506926 62.445058 -128.491383 58.553232 C-128.489005 57.148141 -128.493341 55.743018 -128.505212 54.337974 C-128.571599 45.958374 -128.485275 37.875459 -122.517286 31.388302 C-117.971151 27.3932 -114.470282 26.875295 -108.60083 26.886475 C-107.956656 26.886329 -107.312483 26.886183 -106.648788 26.886032 C-104.522335 26.886728 -102.395969 26.894506 -100.269531 26.902344 C-98.794083 26.904209 -97.318634 26.905632 -95.843185 26.906631 C-91.961744 26.910448 -88.08034 26.92027 -84.198914 26.931335 C-80.237432 26.941569 -76.275944 26.946133 -72.314453 26.951172 C-64.542952 26.961893 -56.771481 26.978959 -49 27 C-48.852161 25.728582 -48.704321 24.457163 -48.552002 23.147217 C-47.580359 14.791084 -42.873107 8.193464 -36.4375 2.9375 C-24.88807 -5.370361 -12.696161 -6.191236 0 0 Z M-34.6875 13.75 C-39.685841 20.338723 -39.544166 27.022317 -39 35 C-37.810683 41.47032 -34.206157 46.068821 -29 50 C-22.47903 53.36711 -13.486501 53.14915 -6.453125 51.347656 C-1.543691 49.130799 2.02011 45.444058 5 41 C7.211534 34.365399 7.277996 24.994454 5.128906 18.277344 C1.94238 12.855025 -3.042133 8.985956 -9 7 C-18.655386 6.121096 -27.604512 6.404679 -34.6875 13.75 Z M-117 40 C-117 54.85 -117 69.7 -117 85 C-110.35861 84.05123 -108.960571 83.740836 -104.125 79.875 C-103.613242 79.472168 -103.613242 79.472168 -101.023438 77.433594 C-100.025703 76.630508 -99.027969 75.827422 -98 75 C-96.251903 73.643378 -94.502132 72.288907 -92.75 70.9375 C-91.499139 69.959433 -90.248774 68.980729 -89 68 C-88.855678 61.3612 -91.908203 58.307855 -96.375 53.640625 C-97.24125 52.769219 -98.1075 51.897812 -99 51 C-99.9075 50.066719 -100.815 49.133437 -101.75 48.171875 C-108.604635 41.197683 -108.604635 41.197683 -111 40 C-112.98 40 -114.96 40 -117 40 Z M-102 89 C-102.285156 91.800781 -102.285156 91.800781 -102 94 C-99.3541 94.026847 -96.708469 94.046764 -94.0625 94.0625 C-93.307754 94.070879 -92.553008 94.079258 -91.775391 94.087891 C-89.850057 94.096524 -87.924644 94.052243 -86 94 C-85 93 -85 93 -84.902344 90.058594 C-84.913945 88.863633 -84.925547 87.668672 -84.9375 86.4375 C-84.946523 85.239961 -84.955547 84.042422 -84.964844 82.808594 C-84.976445 81.881758 -84.988047 80.954922 -85 80 C-92.583807 78.516212 -97.441467 83.230749 -102 89 Z " fill="#111111" transform="translate(215,78)"/><path d="M0 0 C1.152377 -0.003152 2.304753 -0.006304 3.49205 -0.009552 C4.726453 -0.007528 5.960857 -0.005504 7.232666 -0.003418 C8.520364 -0.004375 9.808062 -0.005331 11.134781 -0.006317 C13.860699 -0.007788 16.586585 -0.005661 19.3125 -0.000977 C22.761324 0.004669 26.210068 0.001471 29.658889 -0.004549 C32.995987 -0.009096 36.333066 -0.005881 39.670166 -0.003418 C40.886351 -0.005442 42.102536 -0.007466 43.355576 -0.009552 C49.630886 0.007201 55.889541 0.149845 62.154785 0.49707 C63.362843 0.562581 64.570901 0.628091 65.815567 0.695587 C71.889777 1.510504 75.378891 4.373563 79.486572 8.691895 C82.428819 13.2818 82.193692 17.775429 82.182785 23.100342 C82.185051 23.909481 82.187316 24.718619 82.18965 25.552278 C82.195987 28.2668 82.195161 30.981272 82.194336 33.695801 C82.197328 35.640615 82.20073 37.58543 82.204514 39.530243 C82.213356 44.815233 82.215692 50.100207 82.216329 55.385204 C82.217278 59.794002 82.220956 64.202796 82.224501 68.611592 C82.232646 79.009781 82.235086 89.407961 82.234375 99.806152 C82.233774 110.542081 82.244334 121.277959 82.260119 132.013875 C82.27318 141.224985 82.27856 150.436078 82.27792 159.647197 C82.277664 165.151463 82.280536 170.655685 82.291098 176.159943 C82.300755 181.334207 82.300874 186.508384 82.293581 191.682652 C82.292532 193.583794 82.294915 195.484941 82.300941 197.386074 C82.308624 199.976969 82.304041 202.567559 82.29631 205.158447 C82.301454 205.914475 82.306598 206.670503 82.311897 207.449441 C82.287575 211.126179 82.257712 214.087535 80.049072 217.129395 C77.674072 218.066895 77.674072 218.066895 75.049072 218.129395 C72.915073 216.978541 72.915073 216.978541 71.049072 215.129395 C70.556881 212.636289 70.556881 212.636289 70.568054 209.605545 C70.562556 208.457096 70.557057 207.308647 70.551392 206.125397 C70.558582 205.494939 70.558582 205.494939 70.594971 202.304443 C70.596099 200.964117 70.595466 199.623788 70.593201 198.283463 C70.592052 194.643044 70.615592 191.003152 70.643497 187.362856 C70.668477 183.559207 70.67085 179.755546 70.675598 175.951828 C70.688038 168.748204 70.720872 161.544822 70.760996 154.341304 C70.805683 146.1407 70.827693 137.940083 70.847778 129.739387 C70.889604 112.869249 70.959975 95.999348 71.049072 79.129395 C70.013549 79.13216 68.978026 79.134925 67.911123 79.137774 C42.72322 79.204351 17.535329 79.253661 -7.652643 79.284831 C-19.833321 79.300305 -32.01394 79.321404 -44.19458 79.355713 C-54.8103 79.3856 -65.425979 79.404966 -76.04174 79.41166 C-81.663537 79.415573 -87.285213 79.424781 -92.906971 79.446585 C-98.197756 79.466938 -103.48837 79.473231 -108.77919 79.468718 C-110.721423 79.469543 -112.663662 79.475516 -114.605862 79.487011 C-117.257683 79.501937 -119.908863 79.498348 -122.560699 79.490158 C-123.329194 79.498897 -124.097688 79.507635 -124.889471 79.516638 C-129.631929 79.477053 -132.958455 78.725649 -136.950928 76.129395 C-137.825928 73.441895 -137.825928 73.441895 -137.950928 71.129395 C-131.960508 65.830177 -123.96169 66.995147 -116.42749 67.031738 C-115.326178 67.033153 -114.224865 67.034568 -113.090179 67.036026 C-109.585401 67.041607 -106.080687 67.054156 -102.575928 67.066895 C-100.194418 67.071912 -97.812908 67.076474 -95.431396 67.080566 C-89.604552 67.09157 -83.777744 67.108289 -77.950928 67.129395 C-77.76627 66.242439 -77.581611 65.355483 -77.391357 64.44165 C-77.137734 63.275129 -76.884111 62.108608 -76.622803 60.906738 C-76.37627 59.751658 -76.129736 58.596577 -75.875732 57.406494 C-74.546387 52.695879 -72.31557 49.605134 -68.950928 46.129395 C-68.42499 45.564785 -67.899053 45.000176 -67.357178 44.418457 C-62.367932 39.59395 -56.577502 37.389935 -49.661865 37.000488 C-41.24174 37.491414 -34.230104 41.379705 -28.513428 47.441895 C-22.731242 54.497329 -21.950928 58.893776 -21.950928 68.129395 C-5.450928 68.129395 11.049072 68.129395 28.049072 68.129395 C27.361572 55.004395 27.361572 55.004395 27.120605 50.898438 C27.096556 50.357756 27.096556 50.357756 26.974854 47.621582 C26.917249 46.521851 26.859644 45.422119 26.800293 44.289062 C27.196459 39.257483 29.244014 35.423818 33.01001 32.094238 C33.287158 31.844482 33.287158 31.844482 34.689697 30.580566 C35.262041 30.081055 35.834385 29.581543 36.424072 29.066895 C38.63758 27.093436 40.844976 25.113354 43.049072 23.129395 C43.990088 22.285059 44.931104 21.440723 45.900635 20.570801 C48.238449 17.914194 48.518806 16.532942 49.049072 13.129395 C48.720807 13.131615 48.720807 13.131615 47.059586 13.142853 C40.197135 13.187263 33.334726 13.217334 26.472168 13.239258 C23.914534 13.249286 21.356911 13.262912 18.799316 13.280273 C15.113008 13.304662 11.426853 13.31591 7.740479 13.324707 C7.173112 13.329868 7.173112 13.329868 4.301895 13.355988 C-11.262322 13.358164 -11.262322 13.358164 -15.698227 9.680939 C-16.950928 8.129395 -16.950928 8.129395 -16.888428 6.129395 C-15.648952 3.48518 -14.491197 2.571169 -11.950928 1.129395 C-7.928515 0.296731 -4.101269 0.003239 0 0 Z M61.486572 16.816895 C60.823994 17.443379 60.161416 18.069863 59.47876 18.715332 C59.077861 19.113652 59.077861 19.113652 57.049072 21.129395 C55.926781 22.225855 54.804376 23.322201 53.681885 24.418457 C43.324584 34.61408 43.324584 34.61408 42.549072 38.879395 C43.291636 43.70606 46.326539 45.381095 50.049072 48.129395 C51.158964 48.982502 52.266887 49.838174 53.373291 50.695801 C55.692598 52.492343 58.019397 54.278247 60.35376 56.055176 C63.049072 58.129395 63.049072 58.129395 64.049072 59.129395 C66.359072 59.129395 68.669072 59.129395 71.049072 59.129395 C71.049072 44.279395 71.049072 29.429395 71.049072 14.129395 C64.291203 14.129395 64.291203 14.129395 61.486572 16.816895 Z M-64.450928 54.754395 C-65.950928 58.129395 -65.950928 58.129395 -65.950928 68.129395 C-55.390928 68.129395 -44.830928 68.129395 -33.950928 68.129395 C-32.418779 65.065097 -32.721542 62.51283 -32.950928 59.129395 C-34.812386 55.014592 -37.610528 52.135755 -40.950928 49.129395 C-49.814602 46.174837 -58.042858 48.025922 -64.450928 54.754395 Z M39.049072 54.129395 C39.022213 56.275161 39.002741 58.421021 38.986572 60.566895 C38.974971 61.761855 38.963369 62.956816 38.951416 64.187988 C39.049072 67.129395 39.049072 67.129395 40.049072 68.129395 C42.745621 68.202591 45.415987 68.22182 48.111572 68.191895 C48.870186 68.187383 49.628799 68.182871 50.4104 68.178223 C52.289991 68.166401 54.169541 68.148465 56.049072 68.129395 C56.29126 65.859863 56.29126 65.859863 56.049072 63.129395 C54.369385 61.180176 54.369385 61.180176 52.174072 59.441895 C51.454775 58.860527 50.735479 58.27916 49.994385 57.680176 C49.352432 57.168418 48.710479 56.65666 48.049072 56.129395 C47.389072 55.469395 46.729072 54.809395 46.049072 54.129395 C42.424072 54.004395 42.424072 54.004395 39.049072 54.129395 Z " fill="#111111" transform="translate(342.950927734375,103.87060546875)"/><path d="M0 0 C5.749815 3.324281 9.987318 8.938516 12.074219 15.199219 C12.828405 22.363984 10.886077 27.14202 7.074219 33.199219 C4.634096 36.066363 2.842218 37.832194 -0.542587 39.449783 C-2.925781 41.199219 -2.925781 41.199219 -3.55397 43.919968 C-3.554451 44.469866 -3.554451 44.469866 -3.556885 47.252686 C-3.569418 48.502165 -3.581951 49.751644 -3.594864 51.038986 C-3.582579 52.408814 -3.569156 53.778631 -3.554688 55.148438 C-3.555517 56.563138 -3.55798 57.977838 -3.561996 59.392532 C-3.564859 62.367857 -3.550131 65.342431 -3.522705 68.317627 C-3.489024 72.084093 -3.494498 75.849183 -3.513368 79.61571 C-3.52409 82.545974 -3.514858 85.475933 -3.499983 88.406168 C-3.494883 89.791269 -3.49518 91.176403 -3.501528 92.561499 C-3.53914 105.727572 -1.452751 118.925625 4.886719 130.636719 C5.235813 131.299377 5.584907 131.962036 5.94458 132.644775 C14.50805 148.513355 27.063244 156.541465 43.976562 162.164062 C63.220506 167.538497 83.232174 164.564125 100.714844 155.308594 C115.297719 146.151905 125.538125 132.059578 129.678955 115.325928 C131.367802 107.724876 131.602648 100.230248 131.648438 92.484375 C131.663204 91.015171 131.678083 89.545969 131.693069 88.076767 C131.719808 85.025336 131.733551 81.974144 131.73999 78.922607 C131.750946 75.022508 131.813016 71.124943 131.886706 67.225595 C131.935122 64.203134 131.947518 61.181291 131.950052 58.158476 C131.957253 56.720314 131.977613 55.282152 132.011755 53.844378 C132.257687 42.652508 132.257687 42.652508 129.334381 39.062714 C127.314449 37.556906 125.277738 36.409073 123.074219 35.199219 C118.56087 30.794741 115.796413 26.42528 115.574219 20.074219 C115.704183 13.59331 118.002895 9.156392 122.074219 4.199219 C126.394081 0.082303 131.302641 -2.632869 137.355469 -2.902344 C145.449061 -2.577601 150.823553 0.948553 156.449219 6.574219 C160.06607 12.416825 161.695033 17.206517 160.582031 24.097656 C158.946833 30.86486 155.067799 35.180293 149.386719 39.011719 C147.074219 40.199219 147.074219 40.199219 145.074219 40.199219 C145.068353 40.94265 145.062486 41.686082 145.056442 42.452042 C144.998063 49.526039 144.925737 56.599733 144.838504 63.673425 C144.794149 67.308383 144.754821 70.943238 144.727783 74.578369 C144.701396 78.099391 144.660758 81.620009 144.611032 85.140776 C144.58671 87.109386 144.576412 89.078154 144.566574 91.04689 C144.213574 113.163225 137.210774 133.093341 123.074219 150.199219 C122.452891 151.020352 121.831563 151.841484 121.191406 152.6875 C109.388807 166.689476 89.462266 174.260492 71.824219 176.949219 C49.523972 178.435902 28.85435 171.636511 11.949219 156.886719 C10.30784 155.341433 8.682571 153.77885 7.074219 152.199219 C6.300781 151.450273 5.527344 150.701328 4.730469 149.929688 C-12.154946 132.494919 -16.135089 108.953669 -16.304688 85.46875 C-16.313185 84.849625 -16.313185 84.849625 -16.356186 81.716476 C-16.408723 77.81494 -16.449388 73.913413 -16.488281 70.011719 C-16.531348 66.070795 -16.5789 62.129948 -16.631088 58.189133 C-16.662955 55.74967 -16.689873 53.310136 -16.711319 50.87056 C-16.724809 49.774791 -16.738299 48.679023 -16.752197 47.550049 C-16.761709 46.586339 -16.771221 45.622628 -16.781021 44.629715 C-16.925781 42.199219 -16.925781 42.199219 -17.925781 39.199219 C-18.627031 38.931094 -19.328281 38.662969 -20.050781 38.386719 C-25.370515 36.189438 -29.597833 32.736727 -31.925781 27.386719 C-33.777409 21.348803 -32.810415 15.715432 -30.300781 10.011719 C-23.946157 -1.504604 -11.80297 -5.711115 0 0 Z M-20.925781 13.199219 C-22.659261 16.666179 -22.402775 20.408708 -21.925781 24.199219 C-18.998952 29.662633 -18.998952 29.662633 -15.925781 31.199219 C-10.439061 31.766531 -5.604058 32.102906 -0.675781 29.449219 C2.009066 24.463074 2.053781 19.732214 1.074219 14.199219 C-1.141413 11.225608 -2.664977 9.829621 -5.925781 8.199219 C-12.724208 7.247439 -16.198127 8.235182 -20.925781 13.199219 Z M128.074219 12.199219 C125.966093 16.415471 126.573992 21.617875 127.074219 26.199219 C128.824219 29.449219 128.824219 29.449219 132.074219 31.199219 C137.636838 32.036685 142.343263 32.217428 147.261719 29.324219 C150.489796 25.539577 150.40531 22.590325 150.363281 17.75 C149.94603 14.068039 148.519192 11.923618 146.074219 9.199219 C139.51415 7.012529 132.968626 6.831159 128.074219 12.199219 Z " fill="#111111" transform="translate(191.92578125,210.80078125)"/></svg>