<svg xmlns="http://www.w3.org/2000/svg" viewBox="0 0 512 512" width="512" height="512"><path d="M0 0 C11.88 0 23.76 0 36 0 C36 0.99 36 1.98 36 3 C37.252969 2.957461 38.505938 2.914922 39.796875 2.871094 C45.446391 2.878812 50.74084 3.881837 56.25 5.0625 C56.772795 5.173802 56.772795 5.173802 59.418457 5.737061 C93.926032 13.387153 123.731543 29.60058 150 53 C150.620845 53.552363 151.241689 54.104727 151.881348 54.673828 C159.985873 61.936456 167.415236 69.296001 174 78 C174.734766 78.930703 175.469531 79.861406 176.226562 80.820312 C197.525328 108.267175 216.939672 148.439356 215 184 C215.99 184 216.98 184 218 184 C218 193.57 218 203.14 218 213 C217.01 213 216.02 213 215 213 C215.009426 213.297854 215.009426 213.297854 215.057129 214.805176 C215.172382 221.329002 214.526366 227.46017 213.375 233.875 C213.196787 234.871687 213.018574 235.868374 212.834961 236.895264 C209.41807 255.114347 203.321776 272.002057 194.710938 288.398438 C194.525876 288.754058 194.525876 288.754058 193.589355 290.553711 C192.888643 291.886039 192.172636 293.210493 191.437988 294.524414 C188.567802 299.935112 188.176489 304.349511 189.523438 310.320312 C192.045368 315.664953 195.362813 317.777672 200.46875 320.585938 C207.879705 324.726008 212.120799 329.959467 215 338 C215 339.32 215 340.64 215 342 C215.99 342 216.98 342 218 342 C218 344.97 218 347.94 218 351 C217.01 351 216.02 351 215 351 C214.95875 351.99 214.9175 352.98 214.875 354 C213.725793 361.71832 207.110105 367.102167 201.734375 372.238281 C193.254417 377.701797 183.632355 377.429714 173.894766 377.41069 C171.365573 377.406156 168.837059 377.420369 166.307938 377.439087 C160.934469 377.475634 155.561074 377.489532 150.1875 377.5 C143.96291 377.512152 137.738656 377.534038 131.514215 377.580002 C129.045565 377.593397 126.57736 377.589434 124.108688 377.584595 C111.093874 377.629505 99.857859 379.754349 88 385.3125 C44.033223 404.864784 -6.158936 402.694479 -50.792969 386.089844 C-56.703479 383.782386 -62.454566 381.152519 -68.1875 378.4375 C-69.131577 377.990679 -70.075654 377.543857 -71.04834 377.083496 C-76.374125 374.488348 -81.281469 371.628154 -86.112305 368.19458 C-88 367 -88 367 -91.0625 366.25 C-102.566568 369.187209 -112.605182 383.312382 -120 392 C-124.707151 397.486979 -129.45645 402.36152 -135 407 C-135.33 407.66 -135.66 408.32 -136 409 C-136.66 409 -137.32 409 -138 409 C-138.245486 409.572183 -138.490972 410.144365 -138.743896 410.733887 C-140.212688 413.383706 -141.93136 415.140993 -144.097656 417.257812 C-144.898809 418.048008 -145.699961 418.838203 -146.525391 419.652344 C-147.362637 420.46832 -148.199883 421.284297 -149.0625 422.125 C-150.722226 423.750387 -152.379887 425.377886 -154.035156 427.007812 C-154.771292 427.725981 -155.507427 428.44415 -156.265869 429.184082 C-158 431 -158 431 -159 433 C-159.66 433 -160.32 433 -161 433 C-161.245486 433.572183 -161.490972 434.144365 -161.743896 434.733887 C-163.212688 437.383706 -164.93136 439.140993 -167.097656 441.257812 C-167.898809 442.048008 -168.699961 442.838203 -169.525391 443.652344 C-170.362637 444.46832 -171.199883 445.284297 -172.0625 446.125 C-173.722226 447.750387 -175.379887 449.377886 -177.035156 451.007812 C-177.771292 451.725981 -178.507427 452.44415 -179.265869 453.184082 C-181 455 -181 455 -182 457 C-182.66 457 -183.32 457 -184 457 C-184.127174 457.290522 -184.127174 457.290522 -184.770752 458.760742 C-186.132735 461.241796 -187.643144 462.855181 -189.667969 464.828125 C-190.396934 465.546133 -191.125898 466.264141 -191.876953 467.003906 C-192.639434 467.745117 -193.401914 468.486328 -194.1875 469.25 C-199.710593 474.643758 -205.001222 480.114992 -210 486 C-218.265997 495.669657 -227.439824 505.219512 -240 509 C-241.32 509 -242.64 509 -244 509 C-244 509.99 -244 510.98 -244 512 C-247.96 512 -251.92 512 -256 512 C-256 511.01 -256 510.02 -256 509 C-257.093125 508.95875 -258.18625 508.9175 -259.3125 508.875 C-269.319195 507.566704 -277.987058 500.806671 -284 493 C-291.609588 480.900022 -291.609588 480.900022 -291 474 C-291.99 474 -292.98 474 -294 474 C-294 470.37 -294 466.74 -294 463 C-293.01 463 -292.02 463 -291 463 C-290.938125 462.05125 -290.87625 461.1025 -290.8125 460.125 C-288.3182 444.103917 -273.08108 431.619305 -261.59375 421.416016 C-259.044595 419.151141 -256.519436 416.860342 -254 414.5625 C-253.757173 414.341466 -253.757173 414.341466 -252.52832 413.2229 C-248.120212 409.177292 -243.894686 404.958195 -239.714844 400.677979 C-236.943284 397.85942 -234.104979 395.189978 -231.109375 392.609375 C-226.862782 388.937904 -222.929135 385.005876 -219 381 C-214.480247 376.39197 -209.890678 371.989822 -205 367.777344 C-201.510287 364.676134 -198.267834 361.331659 -195 358 C-190.480247 353.39197 -185.890678 348.989822 -181 344.777344 C-177.510287 341.676134 -174.267834 338.331659 -171 335 C-165.31968 329.208736 -159.563769 323.532507 -153.138428 318.559082 C-150.894348 316.667059 -149.105195 315.067658 -148.807129 312.04248 C-149.479568 305.735713 -151.664543 301.363936 -154.9375 296 C-180.07891 252.399817 -187.146379 200.488375 -174.442871 151.867676 C-173.619822 148.878252 -172.745664 145.908248 -171.832031 142.945312 C-170.992504 139.973466 -170.48477 137.04705 -170 134 C-170.500327 134.004441 -170.500327 134.004441 -173.032288 134.026917 C-182.505682 134.108333 -191.979005 134.168123 -201.452671 134.207249 C-206.322112 134.22804 -211.191269 134.256203 -216.060547 134.301758 C-220.767909 134.345518 -225.474999 134.3692 -230.182549 134.379509 C-231.970134 134.386847 -233.757706 134.401174 -235.545174 134.42292 C-248.67413 134.576159 -260.509597 133.949914 -271.027344 125.054688 C-277.195201 118.630345 -280.493858 111.061418 -281.375 102.25 C-280.984625 91.607148 -275.514477 84.078483 -268 77 C-264.140454 73.561801 -260.753402 71.918326 -255.8125 70.4375 C-252.535168 69.21159 -251.317274 68.61007 -249.683594 65.46875 C-249.045271 63.396205 -248.449396 61.310237 -247.890625 59.214844 C-244.404996 46.632946 -234.837345 36.439397 -224 29.5 C-209.329585 21.465637 -194.792094 20.24623 -178.875 24.742188 C-170.359423 27.371018 -163.826735 31.471562 -157.949219 38.167969 C-153.517286 42.333453 -148.613485 43.430464 -142.75 44.375 C-134.875967 45.771098 -128.618837 48.587442 -122 53 C-118.696357 53.637545 -117.154109 53.868054 -114 53 C-111.379911 51.070125 -109.147256 48.903167 -106.816406 46.632812 C-81.219578 22.704571 -37.833167 2.945219 -2.785156 2.875 C-1.866055 2.91625 -0.946953 2.9575 0 3 C0 2.01 0 1.02 0 0 Z M-105 64 C-105.589424 64.502896 -106.178848 65.005791 -106.786133 65.523926 C-115.330348 72.868655 -122.432346 80.852986 -129 90 C-129.429097 90.596836 -129.858193 91.193672 -130.300293 91.808594 C-158.54171 131.588249 -170.509903 183.076039 -162.875 231.4375 C-162.346594 234.319153 -161.703769 237.156468 -161 240 C-160.801323 240.823872 -160.602646 241.647744 -160.397949 242.496582 C-151.214238 279.582265 -130.462089 317.110211 -100 341 C-99.507578 341.38833 -99.015156 341.77666 -98.507812 342.176758 C-67.152185 366.668741 -29.484579 382.113135 10.621094 382.167969 C11.487671 382.171297 12.354248 382.174626 13.247086 382.178055 C15.057866 382.183072 16.868656 382.185465 18.679443 382.185303 C21.455066 382.187514 24.230306 382.205791 27.005859 382.224609 C28.773436 382.227539 30.541015 382.229527 32.308594 382.230469 C32.722642 382.234062 32.722642 382.234062 34.817978 382.252243 C38.730195 382.236577 40.670487 382.219676 44 380 C44.496094 377.574219 44.496094 377.574219 44 375 C41.910156 373.332031 41.910156 373.332031 39.0625 371.8125 C33.575211 368.605091 29.891677 364.927005 25.875 360.039062 C23.082242 357.001938 20.411377 356.869582 16.484375 356.640625 C-28.75183 353.612595 -70.671687 336.582665 -101 302 C-105.361565 296.582288 -109.249941 290.852579 -113 285 C-113.383818 284.402197 -113.767637 283.804395 -114.163086 283.188477 C-135.148301 249.897 -143.843115 207.05741 -135.398438 168.496094 C-126.797807 133.110091 -126.797807 133.110091 -117.992188 125.195312 C-116 124 -116 124 -113.375 124.1875 C-111 125 -111 125 -109 127 C-109.253188 133.392986 -111.202823 138.386209 -113.75 144.1875 C-126.038344 173.420911 -128.157188 208.316134 -120 239 C-119.796328 239.776499 -119.592656 240.552998 -119.382812 241.353027 C-113.689591 262.179851 -102.685283 279.945587 -88.101562 295.707031 C-86.243152 297.734703 -84.497723 299.815266 -82.75 301.9375 C-74.372569 311.492404 -64.040117 318.843264 -53 325 C-51.946836 325.594258 -50.893672 326.188516 -49.808594 326.800781 C-27.264724 338.80466 -4.24623 342.672237 21 342 C21.496289 340.914609 21.992578 339.829219 22.503906 338.710938 C27.786249 327.459758 32.344602 320.991899 44 316 C44.64582 315.780859 45.291641 315.561719 45.957031 315.335938 C49.481671 314.104169 50.832376 313.297999 52.6875 310 C53.152935 308.676159 53.587145 307.341169 54 306 C58.169584 292.972544 65.42979 281.257405 77.519531 274.195312 C90.98409 267.706879 105.351286 264.965776 120 269 C123.328738 270.203539 126.601496 271.53288 129.837402 272.967041 C136.337601 275.799183 136.337601 275.799183 140 275 C148.412537 265.242911 152.465808 250.628695 155.75 238.375 C155.849338 238.005643 155.849338 238.005643 156.352051 236.136475 C159.420577 224.084557 160.377228 212.197551 160.3125 199.8125 C160.310677 199.087332 160.308854 198.362164 160.306976 197.615021 C160.165197 164.07511 149.332909 132.362416 127 107 C126.269102 106.14793 125.538203 105.295859 124.785156 104.417969 C104.63476 81.363649 77.683762 66.793664 48 60 C47.19345 59.806399 46.386899 59.612798 45.555908 59.41333 C36.912713 57.567362 28.229874 57.646257 19.4375 57.6875 C19.036904 57.688411 19.036904 57.688411 17.009644 57.693024 C5.427975 57.737488 -5.734647 58.071949 -17 61 C-17.662256 61.171606 -18.324512 61.343213 -19.006836 61.52002 C-27.551394 63.799791 -35.603093 66.884092 -43.510254 70.852539 C-48.05612 73.016785 -51.142883 73.356871 -56 72 C-58 69 -58 69 -57.869141 66.503418 C-56.275826 61.914133 -52.102091 60.220692 -48 58 C-44.563005 56.420948 -41.071583 55.115829 -37.5 53.875 C-36.539487 53.535171 -35.578975 53.195342 -34.589355 52.845215 C4.715534 39.251975 47.533658 40.831487 85.12793 59.083496 C85.745713 59.385942 86.363496 59.688389 87 60 C87.620361 60.296001 88.240723 60.592002 88.879883 60.896973 C103.531404 67.948446 116.264032 77.797485 128 89 C128.323555 89.291973 128.323555 89.291973 129.960938 90.769531 C141.413959 101.497974 149.886302 115.135619 157 129 C157.318076 129.61166 157.636152 130.22332 157.963867 130.853516 C174.680384 163.378233 178.865316 201.565723 170 237 C169.892847 237.42958 169.892847 237.42958 169.350586 239.603516 C166.025979 252.485761 161.74233 266.216842 153.757812 277.039062 C151.639493 280.607253 151.673578 282.919727 152 287 C154.87246 287.84307 157.747446 288.674655 160.625 289.5 C161.029121 289.619238 161.029121 289.619238 163.074219 290.222656 C172.494784 292.903305 172.494784 292.903305 176 292 C180.864178 286.720832 183.746206 279.797909 186.5 273.25 C186.882368 272.344595 187.264736 271.439189 187.658691 270.506348 C190.239938 264.225205 192.469281 257.892361 194.375 251.375 C194.60123 250.614775 194.827461 249.854551 195.060547 249.071289 C199.36426 233.45256 200.524977 217.75264 200.375 201.625 C200.370347 200.728578 200.365695 199.832156 200.360901 198.908569 C200.281053 185.770782 200.007693 172.84808 197 160 C196.806641 159.162754 196.613281 158.325508 196.414062 157.462891 C188.881592 126.100846 173.353737 97.245034 151 74 C150.508384 73.477285 150.016768 72.95457 149.510254 72.416016 C119.082383 40.158243 75.759397 20.459323 31.375 18.089844 C30.818125 18.07502 30.818125 18.07502 28 18 C27.281992 17.979536 26.563984 17.959072 25.824219 17.937988 C-22.898293 16.731887 -68.031583 32.111139 -105 64 Z M-227.75 51.75 C-233.877685 59.131075 -235.529957 67.618559 -237.09375 76.898438 C-238.134166 80.459173 -238.994175 81.846421 -242 84 C-244.988281 84.6875 -244.988281 84.6875 -248.3125 85 C-253.928027 85.73109 -257.525003 86.497828 -262 90 C-265.852333 95.095022 -265.676156 100.868911 -265 107 C-263.45477 111.249382 -261.454324 114.085414 -258 117 C-254.010492 118.329836 -250.189109 118.130747 -246.030518 118.113525 C-245.571881 118.113598 -245.571881 118.113598 -243.2509 118.113968 C-240.21542 118.113271 -237.180001 118.105487 -234.144531 118.097656 C-232.041316 118.095791 -229.9381 118.094368 -227.834885 118.093369 C-222.296303 118.089548 -216.757748 118.079722 -211.219177 118.068665 C-205.568648 118.05844 -199.918114 118.053869 -194.267578 118.048828 C-183.178374 118.0381 -172.089189 118.021029 -161 118 C-160.723254 117.498912 -160.446509 116.997824 -160.161377 116.481552 C-158.879738 114.16275 -157.596129 111.845045 -156.3125 109.527344 C-155.877441 108.739525 -155.442383 107.951707 -154.994141 107.140015 C-143.393457 86.210449 -143.393457 86.210449 -135.375 78 C-130.318571 72.696332 -130.318571 72.696332 -130 68.5625 C-131 65 -131 65 -133.75 62.5625 C-139.468125 59.813401 -144.807482 59.757571 -151.068359 59.746094 C-154.90813 59.609345 -156.756541 59.200923 -159.75 56.730469 C-160.4925 55.829414 -161.235 54.928359 -162 54 C-169.905644 45.274961 -178.819298 38.494572 -190.941406 37.761719 C-206.228463 37.393875 -216.981339 40.43378 -227.75 51.75 Z M73.5625 294.4375 C72.673833 295.599407 71.817525 296.786983 71 298 C70.623594 298.558164 70.247187 299.116328 69.859375 299.691406 C66.661168 305.216667 65.830552 311.297453 64.808594 317.511719 C64.007311 320.968461 63.162912 323.202152 61 326 C57.538628 327.133898 54.266114 327.790407 50.6875 328.382812 C45.063402 329.427831 42.027586 330.87418 38 335 C35.081642 339.677368 35.496827 344.66637 36 350 C37.54523 354.249382 39.545676 357.085414 43 360 C46.643693 361.214564 50.013118 361.176287 53.808838 361.205322 C54.607681 361.215216 55.406523 361.22511 56.229573 361.235304 C58.893904 361.267039 61.558251 361.291781 64.222656 361.316406 C66.101902 361.337127 67.981144 361.358216 69.860382 361.379654 C74.889564 361.435562 79.918789 361.48499 84.948055 361.532631 C88.052023 361.5624 91.155971 361.593766 94.259918 361.625671 C118.235213 361.87144 142.210823 362.096421 166.1875 362.125 C167.194268 362.127588 168.201036 362.130176 169.238312 362.132843 C172.006569 362.138577 174.774711 362.137226 177.542969 362.132812 C177.928887 362.133802 177.928887 362.133802 179.881866 362.138809 C191.265178 362.089235 191.265178 362.089235 195.214844 359.609375 C199.108416 355.406789 200.532707 352.213235 200.8125 346.4375 C200.490404 341.377658 199.794944 337.933405 196.121094 334.347656 C192.589414 332.103771 188.747211 331.103093 184.707031 330.117188 C181.250547 328.690702 180.545671 327.356177 179 324 C178.335141 322.201739 177.710266 320.388218 177.125 318.5625 C175.016176 312.604873 172.695199 308.954019 167.5 305.1875 C162.847668 302.977643 158.651874 302.945163 153.5625 303.125 C144.952206 303.125 144.952206 303.125 141 300 C138.988752 297.54229 137.063554 295.026158 135.128906 292.507812 C129.650727 286.054618 122.298643 282.358577 114 281 C98.587125 279.789829 84.376161 282.564209 73.5625 294.4375 Z M-145.875 330.5625 C-146.922494 331.66985 -147.971974 332.775325 -149.023438 333.878906 C-149.276577 334.147756 -149.276577 334.147756 -150.557617 335.508301 C-152.441831 337.456937 -154.441313 339.238165 -156.5 341 C-156.809375 341.26748 -156.809375 341.26748 -158.375 342.621094 C-159.740363 343.779683 -161.118715 344.92294 -162.5 346.0625 C-164 348 -164 348 -164.6875 350.8125 C-163.800219 354.926259 -162.015968 356.388727 -158.972656 359.171875 C-157.108698 360.899266 -155.505804 362.679479 -153.875 364.625 C-150.490555 368.508286 -147.002157 372.282327 -143.4375 376 C-142.895288 376.588618 -142.353076 377.177236 -141.794434 377.783691 C-139.091354 380.558875 -137.710432 381.873913 -133.808594 382.566406 C-130.657081 381.930844 -129.699132 381.332754 -127.625 378.9375 C-125.243254 376.320714 -122.862166 373.992955 -120.125 371.75 C-107.583197 360.855845 -107.583197 360.855845 -106.527344 353.875 C-107.094694 350.42401 -107.821208 349.648379 -110.5625 347.5625 C-113.418206 345.280957 -116.079397 343.000331 -118.625 340.375 C-120.710124 338.247322 -122.741321 336.39484 -125.0625 334.5 C-127.990505 332.008081 -130.0861 329.463152 -132.3125 326.355469 C-134 325 -134 325 -136.820312 324.453125 C-141.106603 325.190325 -143.080687 327.459748 -145.875 330.5625 Z M-182.625 365.75 C-183.297891 366.384219 -183.970781 367.018438 -184.664062 367.671875 C-185.049492 368.056016 -185.049492 368.056016 -187 370 C-187.231226 370.23042 -187.231226 370.23042 -188.401367 371.396484 C-190.467892 373.458965 -192.53049 375.525133 -194.583252 377.601318 C-197.244313 380.284963 -199.920769 382.874374 -202.8125 385.3125 C-207.610866 389.386584 -211.966742 393.91648 -216.370361 398.407471 C-219.474778 401.554531 -222.618555 404.583133 -225.96875 407.46875 C-230.192388 411.110665 -234.096582 415.020343 -238 419 C-241.857795 422.933142 -245.712266 426.807097 -249.886719 430.40625 C-254.72188 434.576001 -259.272518 439.01318 -263.8125 443.5 C-264.23499 443.907988 -264.23499 443.907988 -266.373047 445.972656 C-272.636435 452.171371 -276.308472 456.66604 -276.468018 465.848389 C-276.462982 466.18278 -276.462982 466.18278 -276.4375 467.875 C-276.430652 468.575364 -276.423804 469.275728 -276.416748 469.997314 C-276.189125 477.358836 -274.282271 482.147161 -269.75 487.8125 C-262.493535 493.584688 -256.140178 494.862041 -246.917969 494.449219 C-235.685391 493.161336 -228.212646 485.720126 -221.214844 477.46875 C-217.721159 473.574555 -213.975929 469.93404 -210.238037 466.275391 C-207.218829 463.299865 -204.329607 460.275105 -201.5625 457.0625 C-197.28756 452.110058 -192.628577 447.578221 -187.960938 443 C-184.040132 439.12461 -180.343249 435.145039 -176.746094 430.96875 C-173.813701 427.662428 -170.653995 424.593008 -167.5 421.5 C-163.028005 417.071084 -158.599694 412.664347 -154.5625 407.828125 C-153.36015 406.421376 -152.097892 405.065674 -150.8125 403.734375 C-150.07 402.955781 -149.3275 402.177188 -148.5625 401.375 C-147.883164 400.681484 -147.203828 399.987969 -146.503906 399.273438 C-144.455923 396.177525 -144.479677 394.678155 -145 391 C-146.659811 388.45194 -148.747799 386.411007 -150.914062 384.289062 C-151.217692 383.982563 -151.217692 383.982563 -152.754242 382.431488 C-154.039892 381.141762 -155.333124 379.859554 -156.633301 378.584473 C-158.618491 376.631404 -160.569654 374.648411 -162.519531 372.660156 C-163.774122 371.40953 -165.030574 370.160766 -166.289062 368.914062 C-166.870561 368.320419 -167.452059 367.726776 -168.051178 367.115143 C-170.908351 364.354443 -172.261456 363.098247 -176.299805 362.561035 C-179.334172 363.054326 -180.428166 363.643446 -182.625 365.75 Z " fill="#111111" transform="translate(294,0)"/><path d="M0 0 C3.693024 1.335775 5.004939 2.661193 6.9375 6.0625 C7.028271 9.693346 5.958992 11.034253 3.75 13.9375 C0.9375 16.0625 0.9375 16.0625 -2.125 16.1875 C-5.813238 14.774983 -7.146967 13.51046 -9.0625 10.0625 C-9.143547 6.091181 -8.531358 4.584942 -5.875 1.625 C-3.0625 0.0625 -3.0625 0.0625 0 0 Z " fill="#111111" transform="translate(207.0625,85.9375)"/><path d="M0 0 C3.722064 1.346278 5.019474 2.610053 6.9375 6.0625 C7.018547 10.033819 6.406358 11.540058 3.75 14.5 C0.9375 16.0625 0.9375 16.0625 -2.125 16.125 C-5.847064 14.778722 -7.144474 13.514947 -9.0625 10.0625 C-9.143547 6.091181 -8.531358 4.584942 -5.875 1.625 C-3.0625 0.0625 -3.0625 0.0625 0 0 Z " fill="#111111" transform="translate(263.0625,191.9375)"/><path d="M0 0 C3.722064 1.346278 5.019474 2.610053 6.9375 6.0625 C7.018547 10.033819 6.406358 11.540058 3.75 14.5 C0.9375 16.0625 0.9375 16.0625 -2.125 16.125 C-5.847064 14.778722 -7.144474 13.514947 -9.0625 10.0625 C-9.143547 6.091181 -8.531358 4.584942 -5.875 1.625 C-3.0625 0.0625 -3.0625 0.0625 0 0 Z " fill="#111111" transform="translate(313.0625,191.9375)"/><path d="M0 0 C3.722064 1.346278 5.019474 2.610053 6.9375 6.0625 C7.018547 10.033819 6.406358 11.540058 3.75 14.5 C0.9375 16.0625 0.9375 16.0625 -2.125 16.125 C-5.847064 14.778722 -7.144474 13.514947 -9.0625 10.0625 C-9.143547 6.091181 -8.531358 4.584942 -5.875 1.625 C-3.0625 0.0625 -3.0625 0.0625 0 0 Z " fill="#111111" transform="translate(363.0625,191.9375)"/></svg>