<svg xmlns="http://www.w3.org/2000/svg" viewBox="0 0 512 512" width="512" height="512"><path d="M0 0 C20.63321 -0.819863 40.936308 7.760185 56.109375 21.40625 C71.556418 35.913606 81.604364 55.585699 82.32959 76.929443 C82.439006 86.946381 81.22538 95.667216 77.859375 105.15625 C77.50875 106.188789 77.158125 107.221328 76.796875 108.285156 C70.661189 124.625681 58.014339 139.466613 42.859375 148.15625 C42.199375 148.15625 41.539375 148.15625 40.859375 148.15625 C40.859375 149.80625 40.859375 151.45625 40.859375 153.15625 C41.1275 153.223926 41.1275 153.223926 42.484375 153.566406 C59.059394 158.119084 74.738823 166.243237 87.921875 177.28125 C90.61115 179.412373 91.877735 180.160923 95.296875 181.03125 C99.707883 179.947845 102.365267 177.89027 105.960938 175.179688 C109.278579 172.863598 112.681989 171.02082 116.296875 169.21875 C117.471211 168.632227 118.645547 168.045703 119.855469 167.441406 C122.859375 166.15625 122.859375 166.15625 125.859375 166.15625 C125.859375 162.990398 125.550815 160.864933 123.292969 158.550781 C121.900727 157.403748 120.507413 156.258016 119.113281 155.113281 C107.899434 145.376474 101.963983 131.387278 100.644531 116.777344 C100.041261 101.743856 106.083718 87.800208 115.671875 76.46875 C127.011674 64.480962 141.795719 57.255061 158.359375 56.78125 C173.694384 57.219915 187.87624 63.443193 198.859375 74.15625 C209.17728 85.941078 216.506486 100.182103 215.769531 116.25 C214.378152 132.978396 206.519215 146.396966 194.859375 158.15625 C194.364375 158.48625 194.364375 158.48625 191.859375 160.15625 C191.171875 163.28125 191.171875 163.28125 190.859375 166.15625 C191.488438 166.341875 191.488438 166.341875 194.671875 167.28125 C204.171136 170.472524 212.255546 175.716137 219.859375 182.15625 C220.672773 182.835586 221.486172 183.514922 222.324219 184.214844 C240.031878 199.521464 251.336528 220.238806 255.859375 243.15625 C255.921667 245.488752 255.939993 247.82431 255.859375 250.15625 C256.849375 250.15625 257.839375 250.15625 258.859375 250.15625 C258.859375 253.12625 258.859375 256.09625 258.859375 259.15625 C257.869375 259.15625 256.879375 259.15625 255.859375 259.15625 C255.611875 259.795625 255.364375 260.435 255.109375 261.09375 C253.859375 263.15625 253.859375 263.15625 252.046875 264.21875 C249.859375 264.15625 249.859375 264.15625 247.289062 262.175781 C244.277514 258.433134 244.0313 255.398152 243.796875 250.78125 C242.19803 231.753066 235.920553 214.352133 222.859375 200.15625 C222.11043 199.315781 221.361484 198.475312 220.589844 197.609375 C205.019129 181.007321 183.299545 173.132723 160.940918 172.177979 C142.813844 171.748663 123.339144 175.758963 108.582031 186.871094 C106.859375 188.15625 106.859375 188.15625 104.859375 188.15625 C105.669255 193.362619 107.569953 196.267394 110.984375 200.28125 C116.006939 206.187785 120.076431 212.399797 123.859375 219.15625 C124.028967 219.458455 124.028967 219.458455 124.887207 220.987793 C135.22878 239.740707 143.073761 263.482105 141.859375 285.15625 C140.705115 287.467923 139.684581 289.331044 137.859375 291.15625 C135.484375 291.46875 135.484375 291.46875 132.859375 291.15625 C130.149648 288.290523 129.436849 286.061348 129.085938 282.183594 C129.036188 281.697375 129.036188 281.697375 128.784424 279.236816 C128.685408 278.199604 128.586392 277.162393 128.484375 276.09375 C124.791945 243.146294 111.085404 213.255677 85.632812 191.335938 C57.086287 168.900781 22.770968 158.950092 -13.453125 162.84375 C-38.598001 165.953949 -60.807048 175.834899 -80.140625 192.15625 C-80.941133 192.809805 -81.741641 193.463359 -82.566406 194.136719 C-107.82772 215.61085 -120.156013 246.756112 -123.203125 279.09375 C-123.258232 279.845112 -123.31334 280.596475 -123.370117 281.370605 C-123.717217 285.45419 -124.105509 288.26213 -127.140625 291.15625 C-129.965076 291.650529 -131.430009 291.587695 -133.890625 290.09375 C-139.133215 281.967735 -135.004229 267.232497 -133.207031 258.273438 C-128.209293 235.520042 -118.040621 215.155121 -102.925781 197.507812 C-100.578273 194.415471 -99.732204 191.959256 -99.140625 188.15625 C-99.879258 187.882969 -100.617891 187.609688 -101.378906 187.328125 C-103.968839 186.229144 -106.007892 184.97843 -108.328125 183.40625 C-126.983093 171.937108 -152.966026 169.891897 -174.150635 174.182129 C-195.241623 179.543917 -214.551209 193.276886 -226.065186 211.684082 C-233.749536 224.622645 -237.797123 238.729547 -238.515625 253.78125 C-238.743876 257.544851 -239.00136 259.696917 -241.703125 262.40625 C-242.105312 262.695 -242.105312 262.695 -244.140625 264.15625 C-246.578125 263.34375 -246.578125 263.34375 -249.140625 262.15625 C-249.305625 261.66125 -249.305625 261.66125 -250.140625 259.15625 C-251.130625 259.15625 -252.120625 259.15625 -253.140625 259.15625 C-253.140625 256.18625 -253.140625 253.21625 -253.140625 250.15625 C-252.150625 250.15625 -251.160625 250.15625 -250.140625 250.15625 C-250.17543 249.148203 -250.210234 248.140156 -250.246094 247.101562 C-249.654966 224.989021 -236.279864 202.690694 -220.754395 187.660156 C-211.218526 178.773477 -198.449168 168.017937 -185.140625 166.15625 C-185.935969 161.284769 -186.968917 158.97889 -190.828125 155.84375 C-201.874842 146.858287 -208.192276 132.576222 -209.953125 118.65625 C-210.945013 103.320139 -205.155212 88.038029 -195.453125 76.21875 C-184.174795 64.698112 -169.447989 57.173155 -153.203125 56.84375 C-136.770843 56.807306 -122.51921 63.691167 -110.941406 75.101562 C-100.53763 86.010171 -94.658848 101.061167 -94.863281 116.121094 C-96.442211 133.400364 -103.925141 146.209238 -116.140625 158.15625 C-117.130625 158.81625 -118.120625 159.47625 -119.140625 160.15625 C-119.828125 163.28125 -119.828125 163.28125 -120.140625 166.15625 C-119.815781 166.194277 -119.815781 166.194277 -118.171875 166.386719 C-113.970524 167.453299 -110.440452 169.417893 -106.640625 171.46875 C-105.894258 171.85998 -105.147891 172.251211 -104.378906 172.654297 C-101.112015 174.397603 -98.335815 175.983695 -95.546875 178.449219 C-92.200807 180.822971 -90.159456 180.720842 -86.140625 180.15625 C-83.359375 178.503906 -83.359375 178.503906 -80.640625 176.21875 C-79.594248 175.38248 -78.54326 174.551955 -77.488281 173.726562 C-76.94188 173.298916 -76.395479 172.87127 -75.83252 172.430664 C-64.524265 163.912758 -49.275712 155.199877 -35.140625 153.15625 C-35.140625 151.50625 -35.140625 149.85625 -35.140625 148.15625 C-35.866367 147.901016 -36.592109 147.645781 -37.339844 147.382812 C-53.068381 140.494722 -64.643002 123.367447 -71.140625 108.15625 C-78.271136 87.945567 -78.523101 67.513691 -69.404297 47.90918 C-58.996094 26.701715 -42.922008 11.672642 -20.414062 3.863281 C-13.55709 1.829682 -7.113927 0.519265 0 0 Z M-49.007812 34.617188 C-63.571635 51.955072 -65.666075 71.347338 -64.140625 93.15625 C-61.840946 108.71359 -52.776447 123.275194 -40.695312 133.15625 C-23.721429 145.500893 -4.609132 149.723764 16.114258 146.842773 C32.949308 143.730478 47.700931 134.587925 58.011719 120.953125 C66.487863 108.122429 70.397639 95.610917 70.234375 80.21875 C70.240176 79.673799 70.240176 79.673799 70.269531 76.916016 C70.211008 60.500156 64.678997 46.478598 53.859375 34.15625 C53.276719 33.479492 52.694062 32.802734 52.09375 32.105469 C42.229056 21.432533 26.790547 13.267405 12.054688 12.214844 C11.692461 12.205176 11.692461 12.205176 9.859375 12.15625 C8.763672 12.105977 7.667969 12.055703 6.539062 12.003906 C-15.358994 11.441841 -33.82053 18.776689 -49.007812 34.617188 Z M-187.953125 83.90625 C-196.116374 93.879276 -199.089636 106.483002 -198.140625 119.15625 C-196.51564 132.338943 -190.580862 143.000164 -180.425781 151.550781 C-168.445778 159.967501 -155.271676 160.331685 -141.140625 159.15625 C-130.489083 157.266772 -121.669833 150.897681 -115.328125 142.34375 C-107.387696 130.258086 -105.149052 116.705895 -107.824219 102.535156 C-109.802248 95.566911 -112.585694 89.786189 -117.140625 84.15625 C-117.618867 83.542656 -118.097109 82.929062 -118.589844 82.296875 C-124.906638 75.104958 -135.569329 69.673241 -145.114258 69.021484 C-162.187677 68.235647 -175.733992 71.055093 -187.953125 83.90625 Z M127.859375 79.15625 C127.55709 79.406973 127.55709 79.406973 126.027344 80.675781 C118.097257 87.776578 113.41834 98.591666 112.523438 109.101562 C112.239098 122.249909 114.380609 133.676413 122.859375 144.15625 C123.337617 144.769844 123.815859 145.383438 124.308594 146.015625 C130.244735 152.774154 140.986347 158.6051 150.06665 159.333252 C171.285178 159.877206 171.285178 159.877206 179.859375 155.15625 C180.641836 154.732148 181.424297 154.308047 182.230469 153.871094 C192.735779 147.511218 199.206808 138.294412 202.605469 126.585938 C206.052257 111.420069 202.695972 98.286548 194.859375 85.15625 C188.677938 76.841782 178.794605 71.58106 168.859375 69.15625 C165.409485 68.740186 162.019112 68.678638 158.546875 68.71875 C157.626243 68.726323 156.70561 68.733896 155.75708 68.741699 C144.741307 69.007467 136.122065 71.753883 127.859375 79.15625 Z " fill="#111111" transform="translate(253.140625,109.84375)"/></svg>