<svg xmlns="http://www.w3.org/2000/svg" viewBox="0 0 512 512" width="512" height="512"><path d="M0 0 C0.809531 0.663867 1.619062 1.327734 2.453125 2.011719 C23.634952 20.029594 37.318439 47.611939 41 75 C43.410664 109.611437 28.263024 142.117971 16.236801 173.814911 C15.347917 176.157712 14.461399 178.501398 13.575195 180.845215 C12.6162 183.381161 11.646664 185.911815 10.666992 188.439941 C10.299932 189.404644 9.932871 190.369346 9.554688 191.363281 C9.401208 191.759869 9.401208 191.759869 8.624512 193.766846 C7.926392 196.263209 7.886581 198.420139 8 201 C8.76667 201.362388 9.53334 201.724775 10.323242 202.098145 C13.184917 203.460496 16.038921 204.837509 18.888672 206.224609 C20.119557 206.820032 21.353264 207.409661 22.589844 207.993164 C24.374639 208.836624 26.148409 209.703285 27.921875 210.570312 C28.990186 211.083521 30.058496 211.596729 31.15918 212.125488 C34.639697 214.422103 36.21052 216.225263 38 220 C38.00272 226.835755 35.442938 232.789032 32.976562 239.089844 C32.56372 240.165602 32.150878 241.24136 31.725525 242.349716 C30.3673 245.882367 28.996276 249.409897 27.625 252.9375 C26.668029 255.418496 25.711753 257.899749 24.756348 260.381348 C22.554639 266.095328 20.343768 271.805709 18.128267 277.514355 C16.160488 282.584817 14.198061 287.657334 12.236908 292.730362 C9.13017 300.766493 6.016387 308.799815 2.891022 316.82872 C-0.382284 325.238113 -3.638876 333.653349 -6.860565 342.082672 C-8.573191 346.562331 -10.292136 351.039554 -12.011414 355.516663 C-12.824148 357.638312 -13.633863 359.761121 -14.440247 361.885193 C-29.237499 400.851526 -29.237499 400.851526 -50.550781 410.628906 C-61.175567 415.231746 -71.593176 418.915924 -83 415 C-88.401111 412.537364 -93.632195 409.780253 -98.875 407 C-100.366538 406.218877 -101.858566 405.438691 -103.351074 404.659424 C-106.950439 402.777257 -110.543718 400.883851 -114.134521 398.985413 C-116.612883 397.676253 -119.095269 396.37483 -121.578125 395.074219 C-124.559109 393.511039 -127.536733 391.941751 -130.511719 390.367188 C-133.757702 388.651154 -137.011375 386.95062 -140.269531 385.257812 C-149.415779 380.505695 -158.540458 375.72152 -167.611816 370.827637 C-181.938247 363.099746 -196.382701 355.621288 -210.884766 348.228516 C-219.719553 343.722641 -228.522995 339.164315 -237.292175 334.531921 C-241.7909 332.156939 -246.300575 329.808033 -250.832031 327.496094 C-286.675783 309.200242 -286.675783 309.200242 -291 296 C-292.722592 281.973182 -284.21336 266.089384 -279.375 253.1875 C-278.243081 250.150614 -277.113085 247.113016 -275.983063 244.075424 C-275.197862 241.965297 -274.412026 239.855406 -273.62558 237.745743 C-269.167367 225.783183 -264.771008 213.798025 -260.375 201.8125 C-259.275918 198.817557 -258.176647 195.822685 -257.076813 192.828018 C-256.382758 190.936364 -255.689997 189.044233 -254.998627 187.151596 C-253.338083 182.611095 -251.655214 178.081507 -249.922852 173.567871 C-249.594755 172.704255 -249.266658 171.840638 -248.928619 170.950851 C-248.314724 169.337774 -247.69319 167.727573 -247.062347 166.121048 C-245.489703 161.966483 -244.444099 158.517444 -245 154 C-247.125 152.09375 -247.125 152.09375 -250 150.5 C-254.383369 147.970267 -258.283291 145.327092 -262.148438 142.066406 C-264.533782 140.692569 -266.29376 140.809354 -269 141 C-269.23332 141.510469 -269.466641 142.020938 -269.707031 142.546875 C-277.580125 158.237422 -290.415816 167.433953 -306.738281 173.054688 C-322.903004 177.739553 -340.332332 173.698381 -355 166 C-358.249342 163.908891 -361.130317 161.583236 -364 159 C-364.761836 158.319375 -365.523672 157.63875 -366.308594 156.9375 C-379.52222 144.459202 -386.677603 127.80853 -387.3125 109.6875 C-386.964935 94.438103 -381.914893 80.49682 -372 69 C-371.539805 68.396719 -371.079609 67.793437 -370.605469 67.171875 C-361.667096 55.734879 -348.079215 49.354742 -334 47 C-315.867598 45.249738 -300.519266 49.480439 -286.320312 61.007812 C-271.440664 73.783268 -263.835609 87.605505 -261 107 C-260.780929 111.454437 -260.949623 115.171849 -262 119.5 C-263.241867 124.68189 -263.944534 129.418274 -262.0625 134.5625 C-255.876022 141.873793 -248.354672 146.249976 -239 148 C-238.956816 147.69127 -238.956816 147.69127 -238.738281 146.128906 C-237.016102 135.74843 -232.464846 127.473117 -224 121 C-217.250126 117.297136 -210.127367 117.011324 -202.5625 116.3125 C-201.258613 116.182949 -199.954727 116.053398 -198.611328 115.919922 C-195.408399 115.603149 -192.204828 115.296843 -189 115 C-188.767203 114.355368 -188.534407 113.710736 -188.294556 113.04657 C-186.063593 106.870785 -183.829269 100.696226 -181.591469 94.522915 C-180.442034 91.351681 -179.294129 88.179914 -178.148438 85.007324 C-153.021463 15.439769 -153.021463 15.439769 -125 -6 C-124.598457 -6.309375 -124.598457 -6.309375 -122.566406 -7.875 C-84.018202 -36.232299 -35.452044 -30.296437 0 0 Z M-138.56543 11.751953 C-152.008862 27.954595 -158.780549 47.508349 -166 67 C-166.329456 67.888466 -166.658912 68.776932 -166.998352 69.692322 C-170.436758 78.965587 -173.870223 88.240665 -177.286865 97.521973 C-177.649006 98.505391 -178.011147 99.48881 -178.384262 100.502029 C-179.069123 102.36254 -179.753371 104.223276 -180.436905 106.084274 C-181.655028 109.393717 -182.874943 112.691982 -184.20166 115.959717 C-185.092833 118.23725 -185.332038 120.059782 -185.375 122.5 C-185.403359 123.232188 -185.431719 123.964375 -185.460938 124.71875 C-184.794571 128.016702 -183.330516 129.599801 -181 132 C-178.125 133.765625 -178.125 133.765625 -175 135.25 C-174.484375 135.500078 -174.484375 135.500078 -171.875 136.765625 C-167.277334 138.739623 -163.767605 139.117039 -158.75 139.0625 C-157.672344 139.053477 -156.594687 139.044453 -155.484375 139.035156 C-155.074453 139.029355 -155.074453 139.029355 -153 139 C-149.030421 131.55191 -145.979681 123.947099 -143.128906 116.011719 C-142.448933 114.146441 -141.768954 112.281165 -141.088614 110.41602 C-139.908242 107.174991 -138.735672 103.931141 -137.5625 100.6875 C-136.163805 96.821229 -134.763464 92.955595 -133.354721 89.092972 C-132.482377 86.699508 -131.614888 84.304267 -130.753311 81.906906 C-124.820577 65.630779 -118.018081 51.580725 -106 39 C-105.195625 38.0925 -104.39125 37.185 -103.5625 36.25 C-92.220963 26.291577 -77.406412 21.408544 -62.464844 21.6875 C-47.254899 23.05931 -31.633474 30.746923 -21.724609 42.514648 C-12.509174 54.422152 -5.127765 68.775168 -4 84 C-3.936836 84.747656 -3.873672 85.495313 -3.808594 86.265625 C-3.541902 92.012406 -4.343715 97.316551 -5.679688 102.890625 C-5.856898 103.633699 -6.034109 104.376773 -6.21669 105.142365 C-8.130279 112.902885 -10.707414 120.370628 -13.4375 127.875 C-13.957542 129.325879 -14.476977 130.776975 -14.99585 132.228271 C-19.465406 144.687088 -24.072268 157.097323 -28.722412 169.489746 C-37.228461 192.173904 -37.228461 192.173904 -36 197 C-26.209559 206.306962 -16.15813 209.219077 -3 209 C0.930397 199.799748 4.511277 190.486832 8 181.113281 C8.563768 179.601728 9.127571 178.090187 9.691406 176.578659 C10.866325 173.426864 12.039214 170.274322 13.210938 167.121338 C14.694479 163.130468 16.185526 159.142449 17.678467 155.155087 C18.844204 152.037685 20.004568 148.918302 21.163574 145.798391 C21.710149 144.329656 22.258574 142.861608 22.809082 141.394342 C34.764279 109.504266 41.633816 76.248377 26.983398 43.906738 C20.996027 31.443928 13.580975 20.938838 4 11 C2.825805 9.610494 1.65847 8.215144 0.5 6.8125 C-12.491027 -7.987022 -33.457973 -18.833146 -53.135742 -20.221191 C-85.88748 -21.348742 -115.955078 -13.552458 -138.56543 11.751953 Z M-107 43 C-119.238143 57.814595 -125.350327 76.495167 -132.072998 94.226318 C-133.44356 97.828427 -134.837773 101.420832 -136.232422 105.013672 C-137.113447 107.327567 -137.993055 109.642002 -138.871094 111.957031 C-139.28661 113.017673 -139.702126 114.078315 -140.130234 115.171097 C-142.548306 121.647488 -143.568623 127.089429 -143 134 C-132.87302 139.178492 -122.656209 144.029644 -112.234741 148.584991 C-98.038126 154.794799 -83.953189 161.214757 -69.957031 167.863525 C-66.31267 169.592896 -62.660364 171.304766 -59 173 C-58.302859 173.323454 -57.605718 173.646908 -56.887451 173.980164 C-54.726802 174.97598 -52.559925 175.956787 -50.390625 176.933594 C-49.726335 177.240718 -49.062045 177.547842 -48.377625 177.864273 C-44.822517 179.445101 -41.899424 180.664305 -38 180 C-35.37115 177.846382 -34.305244 175.750829 -33.149902 172.589844 C-32.818528 171.695335 -32.487153 170.800826 -32.145737 169.879211 C-31.796003 168.908447 -31.446269 167.937682 -31.085938 166.9375 C-30.714491 165.925969 -30.343045 164.914437 -29.960342 163.872253 C-28.756332 160.584672 -27.565132 157.292629 -26.375 154 C-25.557619 151.755444 -24.739992 149.510978 -23.922119 147.266602 C-1.709128 86.133541 -1.709128 86.133541 -12 64 C-12.446016 63.02418 -12.892031 62.048359 -13.351562 61.042969 C-16.385261 54.984046 -20.18522 50.184629 -24.851562 45.289062 C-27 43 -27 43 -28.988281 40.433594 C-35.835358 32.150625 -46.546749 27.612874 -57 26 C-75.960761 24.991861 -93.093091 29.093091 -107 43 Z M-362 65 C-363.03125 65.70125 -364.0625 66.4025 -365.125 67.125 C-374.093968 74.870927 -380.279781 89.420969 -381.156982 101.087891 C-381.978378 117.991073 -380.300056 134.521332 -369 148 C-365.488846 151.174225 -361.924911 153.174209 -357.625 155.125 C-356.544766 155.622578 -355.464531 156.120156 -354.351562 156.632812 C-340.794975 162.162889 -323.716557 163.003455 -310.027344 157.46875 C-294.834075 150.770739 -285.575743 140.096191 -279 125 C-273.762613 108.452641 -275.355872 90.431928 -282.570312 74.679688 C-288.284777 63.96897 -296.82784 57.260343 -308.407715 53.593262 C-313.439761 52.441644 -318.483829 52.470397 -323.625 52.5 C-324.774199 52.50572 -325.923398 52.51144 -327.107422 52.517334 C-340.787954 52.803792 -351.253958 56.346287 -362 65 Z M-230.125 137.1875 C-233.970455 142.955683 -235.611717 148.55008 -235.513184 155.505615 C-234.561237 160.132657 -231.156021 162.122212 -227.4375 164.6875 C-226.016464 165.7289 -224.598473 166.774469 -223.183594 167.824219 C-222.833774 168.08046 -222.833774 168.08046 -221.063477 169.377197 C-218.34966 171.511454 -215.972109 173.887158 -213.588623 176.379395 C-211.922798 178.078757 -210.178143 179.635546 -208.375 181.1875 C-198.642915 189.618202 -189.479965 198.295655 -181 208 C-180.410898 208.662578 -179.821797 209.325156 -179.214844 210.007812 C-177.459704 211.991162 -175.728224 213.993144 -174 216 C-173.580732 216.482271 -173.161465 216.964541 -172.729492 217.461426 C-163.253399 228.375202 -163.253399 228.375202 -159.8125 233.875 C-150.698181 247.877446 -132.539591 253.798528 -118.036621 260.691162 C-110.688282 264.184146 -103.360348 267.715096 -96.0625 271.3125 C-95.074353 271.79179 -94.086206 272.271079 -93.068115 272.764893 C-79.258516 279.612226 -79.258516 279.612226 -75 286 C-73.947908 295.994875 -78.78266 303.856037 -83.4375 312.375 C-83.808669 313.065293 -84.179839 313.755586 -84.562256 314.466797 C-87.348328 319.421432 -90.182014 322.951447 -95.6875 325 C-103.912883 325 -112.238763 319.526684 -119.4375 315.875 C-119.91691 315.633502 -119.91691 315.633502 -122.343018 314.411377 C-129.899106 310.591177 -137.396868 306.665826 -144.878906 302.703125 C-150.777535 299.582305 -156.700429 296.508717 -162.625 293.4375 C-163.743665 292.856858 -164.862329 292.276216 -166.014893 291.677979 C-171.802792 288.677668 -177.597089 285.690862 -183.40506 282.729568 C-186.344111 281.230787 -189.281257 279.72829 -192.218445 278.225861 C-193.630881 277.504852 -195.044299 276.785763 -196.458801 276.068817 C-203.479846 272.509881 -210.449933 268.876189 -217.226562 264.867188 C-218.245728 264.267612 -219.264893 263.668037 -220.314941 263.050293 C-223.417034 260.681555 -225.118907 258.407773 -227 255 C-227.264444 247.372457 -223.4731 241.293592 -220 234.6875 C-218.894383 232.546321 -217.790149 230.404427 -216.6875 228.261719 C-216.196367 227.322878 -215.705234 226.384038 -215.199219 225.416748 C-214 223 -214 223 -213 220 C-207.937259 217.468629 -203.373154 217.777726 -198 219 C-194.618281 220.43328 -191.482849 222.214189 -188.3125 224.0625 C-178.397793 229.807544 -178.397793 229.807544 -173 229 C-172 228 -172 228 -171.683594 225.707031 C-172.105089 222.100901 -173.408771 221.110855 -176.0625 218.6875 C-178.967821 215.940323 -181.77388 213.225305 -184.375 210.1875 C-191.678369 201.719585 -199.297227 193.608081 -207.1875 185.6875 C-207.84033 185.030078 -208.493159 184.372656 -209.165771 183.695312 C-213.051427 179.821884 -217.056132 176.150267 -221.212158 172.569092 C-223.395636 170.652772 -225.432364 168.602302 -227.5 166.5625 C-230.550761 163.808856 -232.405103 162.492668 -236.5625 162.5 C-237.129687 162.5825 -237.129687 162.5825 -240 163 C-243.584692 171.391566 -246.85457 179.860947 -249.957031 188.441406 C-250.422123 189.72055 -250.887514 190.999584 -251.35318 192.278519 C-252.588308 195.672596 -253.820345 199.067786 -255.051403 202.463341 C-257.361549 208.834887 -259.675385 215.20509 -261.992188 221.574219 C-262.247902 222.277501 -262.503617 222.980782 -262.76708 223.705376 C-266.13458 232.961111 -269.561385 242.191246 -273.070312 251.394531 C-273.449654 252.393781 -273.828996 253.393031 -274.219833 254.422562 C-275.955419 258.993741 -277.703687 263.559108 -279.477783 268.115479 C-280.088737 269.719955 -280.699049 271.324676 -281.308594 272.929688 C-281.447072 273.27674 -281.447072 273.27674 -282.147858 275.033035 C-284.010646 280.005547 -284.839497 284.703234 -284 290 C-281.189983 295.53205 -275.550613 297.644784 -270.207031 300.28125 C-269.236564 300.77197 -268.266096 301.26269 -267.26622 301.76828 C-264.120268 303.356282 -260.966484 304.928021 -257.8125 306.5 C-255.651366 307.588061 -253.490884 308.677419 -251.331055 309.768066 C-247.10587 311.900875 -242.878377 314.028985 -238.648926 316.15332 C-231.986298 319.504597 -225.359149 322.919516 -218.75 326.375 C-217.788601 326.876526 -216.827202 327.378052 -215.83667 327.894775 C-209.340974 331.287947 -202.857198 334.703789 -196.375977 338.124512 C-189.434715 341.7833 -182.468014 345.392478 -175.5 349 C-166.984627 353.408798 -158.480365 357.836752 -150 362.3125 C-142.872139 366.073061 -135.725981 369.798181 -128.578857 373.521973 C-121.470782 377.227354 -114.374011 380.953702 -107.289062 384.703125 C-105.877592 385.448422 -104.464172 386.190042 -103.048584 386.92749 C-101.655995 387.656562 -100.270235 388.398798 -98.890869 389.152588 C-93.117931 392.223184 -88.532585 392.842252 -82 392 C-77.199337 390.059306 -74.214696 386.582129 -72.011475 381.898651 C-70.940028 379.269907 -69.930256 376.624319 -68.9375 373.964844 C-68.553878 372.959813 -68.170256 371.954782 -67.775009 370.919296 C-66.508276 367.595156 -65.254255 364.266366 -64 360.9375 C-63.108454 358.591598 -62.215941 356.246063 -61.32251 353.900879 C-59.465392 349.024013 -57.612462 344.145586 -55.762207 339.266113 C-51.936522 329.188344 -48.05209 319.133331 -44.171539 309.076599 C-41.69914 302.662192 -39.238552 296.243244 -36.77626 289.824951 C-34.169266 283.033351 -31.548717 276.247128 -28.920578 269.463684 C-27.137363 264.855034 -25.363038 260.242994 -23.590607 255.630188 C-22.747626 253.441993 -21.900925 251.255227 -21.050262 249.070007 C-19.873842 246.046484 -18.710863 243.018104 -17.550781 239.988281 C-17.203893 239.106275 -16.857004 238.22427 -16.499603 237.315536 C-14.413552 231.815852 -13.421346 226.872584 -13 221 C-20.546377 216.078302 -28.499456 212.376837 -36.734741 208.797424 C-40.730426 207.060118 -44.715861 205.299494 -48.703125 203.542969 C-49.122443 203.358613 -49.122443 203.358613 -51.244446 202.425659 C-60.778194 198.229243 -70.264166 193.928344 -79.75 189.625 C-83.304505 188.01392 -86.859268 186.40341 -90.414062 184.792969 C-91.294361 184.394084 -92.17466 183.9952 -93.081635 183.584229 C-106.536651 177.489339 -120.011102 171.437559 -133.483414 165.381027 C-139.497163 162.677078 -145.508697 159.968236 -151.519531 157.257812 C-181.243233 143.857397 -181.243233 143.857397 -195.8125 137.4375 C-196.319384 137.213888 -196.319384 137.213888 -198.884521 136.082275 C-199.795325 135.682585 -200.706128 135.282896 -201.644531 134.871094 C-202.421594 134.530056 -203.198657 134.189019 -203.999268 133.837646 C-208.111515 132.115972 -211.429278 131.806394 -215.875 131.75 C-217.089297 131.724219 -218.303594 131.698438 -219.554688 131.671875 C-224.332735 132.126927 -226.831802 133.797443 -230.125 137.1875 Z M-214 229 C-214.369478 229.61585 -214.738955 230.231699 -215.119629 230.866211 C-216.257554 232.838085 -217.29136 234.840471 -218.3125 236.875 C-218.671504 237.544023 -219.030508 238.213047 -219.400391 238.902344 C-221.88651 243.817758 -222.799084 247.492642 -222 253 C-217.988366 256.95747 -212.997925 259.185874 -207.992188 261.632812 C-207.11209 262.069553 -206.231993 262.506293 -205.325226 262.956268 C-202.511281 264.351585 -199.69342 265.738749 -196.875 267.125 C-193.20411 268.936843 -189.535017 270.752281 -185.867188 272.570312 C-184.95651 273.021469 -184.045833 273.472626 -183.107559 273.937454 C-175.48989 277.725554 -167.959209 281.665994 -160.443359 285.651367 C-156.287578 287.854093 -152.111954 290.015848 -147.925781 292.160156 C-147.294322 292.483887 -146.662863 292.807618 -146.012268 293.141159 C-144.751031 293.787642 -143.489739 294.43402 -142.228394 295.080292 C-132.515727 300.059619 -122.817829 305.042736 -113.376221 310.525635 C-108.870047 313.139386 -105.330793 314.240359 -100.125 314.5 C-99.096328 314.572187 -98.067656 314.644375 -97.007812 314.71875 C-93.304879 313.833893 -92.165089 312.236742 -90.169922 309.07666 C-88.204055 305.587165 -86.386531 302.064464 -84.6875 298.4375 C-84.328496 297.708535 -83.969492 296.97957 -83.599609 296.228516 C-83.26123 295.512441 -82.922852 294.796367 -82.574219 294.058594 C-82.270886 293.422361 -81.967554 292.786128 -81.655029 292.130615 C-80.763245 289.229908 -80.624614 287.015815 -81 284 C-82.731689 282.22998 -82.731689 282.22998 -85.300781 280.742188 C-86.307056 280.156631 -87.31333 279.571074 -88.350098 278.967773 C-89.563966 278.306745 -90.780842 277.651222 -92 277 C-92.693334 276.627985 -93.386669 276.255969 -94.101013 275.872681 C-98.908079 273.314937 -103.755257 270.843715 -108.625732 268.40918 C-111.199317 267.119076 -113.76266 265.809984 -116.326172 264.5 C-117.981182 263.668098 -119.636762 262.837328 -121.292969 262.007812 C-122.048374 261.619331 -122.80378 261.23085 -123.582077 260.830597 C-128.464393 258.420531 -132.562111 257.392619 -138 257 C-137.632035 263.705977 -135.813719 267.68957 -132.0625 273.1875 C-126.524175 281.514572 -126.524175 281.514572 -125 286 C-129.718249 284.544939 -131.236516 280.552734 -133.4375 276.5 C-137.186105 269.884731 -141.202014 263.56085 -145.625 257.375 C-146.138611 256.642168 -146.652222 255.909336 -147.181396 255.154297 C-153.007632 247.119634 -159.870965 241.598893 -168.707031 237.160156 C-169.513073 236.748336 -170.319115 236.336516 -171.149582 235.912216 C-172.841471 235.05338 -174.536539 234.200779 -176.234619 233.354248 C-178.808326 232.064592 -181.361705 230.739684 -183.916016 229.412109 C-199.353374 221.549708 -199.353374 221.549708 -206.910156 222.313721 C-210.538975 223.505381 -212.251371 225.800308 -214 229 Z M8 223.75 C7.282717 223.792297 6.565435 223.834595 5.826416 223.878174 C3.436548 224.216212 2.004218 224.639333 0 226 C-2.331424 229.743661 -3.577029 233.843585 -5 238 C-5.784716 240.042775 -6.593991 242.07473 -7.405472 244.10701 C-8.98278 248.061539 -10.518338 252.032438 -12.0625 256 C-12.402923 256.873592 -12.743347 257.747183 -13.094086 258.647247 C-24.268317 287.326672 -35.339666 316.047244 -46.25 344.828125 C-46.677621 345.955778 -47.105243 347.08343 -47.545822 348.245255 C-49.583003 353.619 -51.61708 358.993886 -53.645752 364.37085 C-54.384671 366.324153 -55.12384 368.277363 -55.863281 370.230469 C-56.213529 371.159112 -56.563776 372.087756 -56.924637 373.04454 C-58.568448 377.371525 -60.259375 381.663165 -62.095215 385.912598 C-62.424102 386.678648 -62.752989 387.444699 -63.091843 388.233963 C-63.699139 389.633444 -64.318591 391.027755 -64.95369 392.414841 C-67.043472 397.221484 -67.354166 400.860223 -67 406 C-66 407 -66 407 -62.5625 407.25 C-52.745441 407.075008 -43.7083 402.837102 -36.285156 396.546875 C-27.945474 387.786891 -23.888327 374.602742 -20.004822 363.365875 C-18.641031 359.430047 -17.239283 355.507806 -15.835938 351.585938 C-15.534025 350.74209 -15.232112 349.898242 -14.921051 349.028824 C-11.090154 338.386236 -6.982438 327.850723 -2.875 317.3125 C-2.478563 316.294634 -2.082126 315.276768 -1.673676 314.228058 C0.369087 308.984845 2.414891 303.742825 4.462402 298.501465 C8.38451 288.458183 12.285023 278.406516 16.184265 268.35434 C17.407512 265.202272 18.632573 262.050914 19.85791 258.899658 C20.612366 256.956567 21.366764 255.013453 22.121094 253.070312 C22.288402 252.640604 22.288402 252.640604 23.135086 250.466019 C24.098857 247.980623 25.050702 245.490956 26 243 C26.369971 242.046799 26.739942 241.093597 27.121124 240.111511 C27.485999 239.149005 27.850875 238.186498 28.226807 237.194824 C28.560155 236.324939 28.893504 235.455053 29.236954 234.558807 C30.418871 230.595353 30.26933 227.107277 30 223 C22.641483 222.65447 15.314558 222.895113 8 223.75 Z " fill="#111111" transform="translate(429,61)"/><path d="M0 0 C0 1.32 0 2.64 0 4 C-1.048008 4.554297 -2.096016 5.108594 -3.175781 5.679688 C-4.554732 6.411375 -5.933635 7.143151 -7.3125 7.875 C-8.002793 8.239805 -8.693086 8.604609 -9.404297 8.980469 C-10.071387 9.334961 -10.738477 9.689453 -11.425781 10.054688 C-12.038489 10.37937 -12.651196 10.704053 -13.282471 11.038574 C-14.902586 11.945471 -16.455154 12.970103 -18 14 C-18.484375 16.816406 -18.484375 16.816406 -18 20 C-15.953125 22.527344 -15.953125 22.527344 -13.25 24.9375 C-9.19303 28.764287 -6.165156 31.844866 -4 37 C-4.25 39.4375 -4.25 39.4375 -5 41 C-6.32 41 -7.64 41 -9 41 C-11.21875 38.550781 -11.21875 38.550781 -13.5 35.3125 C-14.252813 34.256758 -15.005625 33.201016 -15.78125 32.113281 C-16.513438 31.085898 -17.245625 30.058516 -18 29 C-21.618919 24.082844 -21.618919 24.082844 -24.875 23.375 C-30.291583 24.458317 -32.850487 27.29538 -35.828125 31.710938 C-37.039367 33.649943 -38.226971 35.603981 -39.386719 37.574219 C-41 40 -41 40 -44 42 C-44.66 41.34 -45.32 40.68 -46 40 C-45.734562 35.510973 -43.631847 32.569215 -41.125 28.9375 C-40.426328 27.915273 -39.727656 26.893047 -39.007812 25.839844 C-37 23 -37 23 -35.242188 20.941406 C-33.677082 18.495313 -33.7626 16.848805 -34 14 C-35.120195 13.624883 -36.240391 13.249766 -37.394531 12.863281 C-38.867509 12.34727 -40.340148 11.830292 -41.8125 11.3125 C-42.550488 11.068223 -43.288477 10.823945 -44.048828 10.572266 C-47.762202 9.24486 -49.600714 8.537292 -52.011719 5.292969 C-52.337852 4.536289 -52.663984 3.779609 -53 3 C-51.268799 1.88916 -51.268799 1.88916 -49 1 C-46.912842 1.599121 -46.912842 1.599121 -44.699219 2.773438 C-43.886465 3.185937 -43.073711 3.598437 -42.236328 4.023438 C-41.395215 4.469453 -40.554102 4.915469 -39.6875 5.375 C-29.144789 10.945352 -29.144789 10.945352 -23 10 C-20.445312 8.609375 -20.445312 8.609375 -18.125 6.75 C-6.274024 -2.138232 -6.274024 -2.138232 0 0 Z " fill="#111111" transform="translate(123,147)"/></svg>