<svg xmlns="http://www.w3.org/2000/svg" viewBox="0 0 512 512" width="512" height="512"><path d="M0 0 C0.859805 -0.003841 1.71961 -0.007682 2.60547 -0.01164 C3.550494 -0.010773 4.495518 -0.009907 5.469179 -0.009014 C5.970974 -0.0105 5.970974 -0.0105 8.510359 -0.018018 C11.888985 -0.026722 15.267575 -0.028214 18.646212 -0.029705 C21.062157 -0.034332 23.478101 -0.039356 25.894045 -0.04475 C32.468373 -0.057887 39.042693 -0.064358 45.617031 -0.068761 C49.721243 -0.071523 53.825452 -0.07576 57.929663 -0.080265 C69.290952 -0.092457 80.652239 -0.102757 92.013535 -0.10614 C92.740704 -0.10636 93.467873 -0.106579 94.217078 -0.106805 C94.581535 -0.106915 94.581535 -0.106915 96.425913 -0.107467 C97.902992 -0.10791 99.38007 -0.108357 100.857149 -0.108807 C101.589832 -0.109028 102.322515 -0.109249 103.077401 -0.109478 C114.95287 -0.113427 126.828278 -0.130884 138.703723 -0.154166 C150.893288 -0.177871 163.082823 -0.190342 175.272411 -0.191508 C182.117574 -0.192425 188.962657 -0.198189 195.807798 -0.216328 C202.244409 -0.233324 208.680908 -0.234988 215.117537 -0.226189 C217.482677 -0.225416 219.847826 -0.229795 222.212946 -0.239647 C225.436398 -0.252289 228.659306 -0.246532 231.882753 -0.236065 C232.353035 -0.240093 232.353035 -0.240093 234.732943 -0.260478 C239.557344 -0.223725 242.91707 -0.073381 246.80295 3.131428 C248.519831 6.56519 248.04804 10.512571 248.119356 14.29549 C248.140137 15.202698 248.160918 16.109906 248.182329 17.044605 C248.247821 19.948468 248.306708 22.852422 248.36545 25.756428 C248.408635 27.722583 248.45225 29.688729 248.496309 31.654865 C248.603502 36.480291 248.704771 41.30581 248.80295 46.131428 C250.054307 46.140773 251.305665 46.150119 252.594942 46.159748 C257.239509 46.199633 261.883413 46.265387 266.527559 46.338947 C268.537238 46.367166 270.547028 46.388376 272.556856 46.402424 C275.446758 46.423841 278.335323 46.470485 281.224825 46.522053 C282.122878 46.523281 283.020932 46.52451 283.946199 46.525776 C284.786769 46.545495 285.627338 46.565213 286.49338 46.585529 C287.230623 46.594412 287.967866 46.603294 288.727449 46.612446 C291.821759 47.386182 292.943462 48.550211 294.80295 51.131428 C295.177348 53.810646 295.310825 56.072255 295.257051 58.745686 C295.257636 59.507048 295.25822 60.268411 295.258821 61.052845 C295.25604 63.563882 295.224944 66.073724 295.193575 68.584553 C295.186113 70.327609 295.18042 72.070673 295.176424 73.81374 C295.161165 78.397371 295.121881 82.980493 295.077608 87.563923 C295.036661 92.242605 295.018414 96.921369 294.998262 101.600178 C294.955387 110.777484 294.887132 119.954414 294.80295 129.131428 C295.165338 129.123573 295.165338 129.123573 296.999239 129.08382 C300.350393 129.020646 303.701422 128.982179 307.05295 128.943928 C308.192481 128.918791 309.332012 128.893654 310.506075 128.867756 C323.116741 128.760279 333.892115 131.032251 343.80295 139.131428 C352.307533 147.650305 356.897245 157.718565 356.950121 169.770344 C356.953699 170.332342 356.953699 170.332342 356.971804 173.176395 C356.974493 174.400345 356.977181 175.624295 356.979952 176.885334 C356.986523 178.181914 356.993094 179.478495 356.999865 180.814365 C357.020843 185.10754 357.031265 189.400715 357.041231 193.693928 C357.045282 195.177347 357.049399 196.660766 357.053581 198.144184 C357.072623 205.118996 357.086854 212.093797 357.095193 219.06863 C357.104947 227.091427 357.13122 235.113946 357.171694 243.136645 C357.201977 249.355159 357.216674 255.573594 357.219974 261.79218 C357.222312 265.497683 357.231102 269.20289 357.256435 272.908314 C357.284316 277.053171 357.279848 281.19742 357.272921 285.342365 C357.279326 285.946243 357.279326 285.946243 357.311739 289.002232 C357.2277 302.878583 353.539878 313.189234 343.888887 323.096272 C336.39088 330.161127 328.228077 333.26359 318.014864 333.244953 C317.678074 333.245026 317.678074 333.245026 315.973711 333.245396 C313.755299 333.244701 311.536972 333.23693 309.318575 333.229084 C307.777295 333.227218 306.236015 333.225795 304.694735 333.224796 C300.643977 333.220984 296.593256 333.211164 292.542513 333.200092 C288.406674 333.189851 284.270829 333.185293 280.134981 333.180256 C272.024288 333.169541 263.913623 333.152479 255.80295 333.131428 C256.923912 343.243553 258.045516 353.355607 259.167876 363.467577 C259.689355 368.166041 260.210636 372.864527 260.731417 377.563068 C261.23494 382.105745 261.738944 386.648369 262.243376 391.190945 C262.441847 392.978504 262.640204 394.766076 262.838446 396.553661 C263.794154 405.168229 264.755553 413.781802 265.765352 422.390217 C265.907486 423.602268 266.049621 424.814319 266.196062 426.063099 C266.452906 428.239758 266.712301 430.416118 266.974901 432.592091 C267.085977 433.53078 267.197053 434.469469 267.311495 435.436604 C267.359419 435.834083 267.359419 435.834083 267.601946 437.84557 C268.200653 444.654184 268.200653 444.654184 265.92795 447.381428 C262.783472 449.970997 261.100367 450.256809 257.10146 450.260062 C256.103693 450.263287 255.105927 450.266511 254.077925 450.269833 C252.973668 450.268285 251.869411 450.266736 250.731691 450.265141 C249.564909 450.267406 248.398126 450.269672 247.195987 450.272006 C243.947367 450.277258 240.698782 450.277988 237.45016 450.276811 C233.950423 450.276608 230.450694 450.282121 226.95096 450.286869 C220.090465 450.295188 213.229979 450.297924 206.36948 450.298481 C200.794617 450.298956 195.219757 450.301008 189.644896 450.304182 C173.85044 450.312992 158.055991 450.317601 142.261533 450.316852 C141.409434 450.316812 140.557335 450.316772 139.679415 450.31673 C139.252847 450.31671 139.252847 450.31671 137.094155 450.316607 C123.265073 450.3162 109.436018 450.32577 95.606943 450.339869 C81.418423 450.35422 67.229916 450.36114 53.041388 450.360275 C45.071172 450.359943 37.100984 450.362709 29.130774 450.373453 C22.344959 450.382542 15.559186 450.384747 8.773369 450.377944 C5.309624 450.37467 1.84596 450.374652 -1.617777 450.383297 C-5.369198 450.390963 -9.120408 450.386408 -12.871824 450.378666 C-13.421722 450.381238 -13.421722 450.381238 -16.204538 450.394252 C-17.20752 450.389654 -18.210502 450.385055 -19.243877 450.380317 C-19.676976 450.380425 -19.676976 450.380425 -21.868717 450.380975 C-24.45455 450.103829 -26.016813 449.538875 -28.19705 448.131428 C-30.581285 444.555075 -30.34779 443.554058 -29.978544 439.369221 C-29.868259 438.109464 -29.757974 436.849708 -29.644346 435.551777 C-28.742659 426.467665 -27.7244 417.396887 -26.693144 408.32674 C-26.447702 406.149593 -26.202513 403.972418 -25.957563 401.795216 C-25.317285 396.110207 -24.673617 390.425588 -24.029203 384.741047 C-23.370184 378.922189 -22.714425 373.102965 -22.058378 367.283772 C-20.774431 355.899298 -19.486895 344.515234 -18.19705 333.131428 C-19.037061 333.14031 -19.877071 333.149193 -20.742537 333.158344 C-28.700487 333.23885 -36.658299 333.299574 -44.616565 333.338676 C-48.706967 333.359456 -52.797029 333.387595 -56.887236 333.433186 C-60.842471 333.47699 -64.797382 333.500637 -68.752842 333.510937 C-70.25378 333.518267 -71.754703 333.532578 -73.255501 333.554348 C-85.98869 333.731522 -96.565689 331.987382 -106.19705 323.131428 C-114.468159 314.962013 -119.196359 305.878005 -119.457747 294.155888 C-119.472634 291.743723 -119.476527 289.331475 -119.471708 286.91927 C-119.476061 285.584723 -119.481246 284.250179 -119.487196 282.915638 C-119.500538 279.305964 -119.50117 275.696394 -119.498633 272.0867 C-119.497559 269.065124 -119.502455 266.043569 -119.507238 263.021997 C-119.518317 255.887966 -119.51878 248.753988 -119.512724 241.619953 C-119.506689 234.280322 -119.518987 226.940883 -119.540294 219.601285 C-119.557957 213.282556 -119.563904 206.963888 -119.560656 200.645135 C-119.55885 196.878908 -119.56141 193.112818 -119.575371 189.346613 C-119.588021 185.801458 -119.585937 182.2566 -119.57296 178.711449 C-119.569498 176.804981 -119.580719 174.898504 -119.592527 172.992069 C-119.514082 160.059707 -116.202782 149.148914 -106.868925 139.799397 C-97.942846 132.234685 -88.587433 128.97603 -76.923613 129.033772 C-75.769902 129.036994 -74.616191 129.040217 -73.427519 129.043537 C-72.237714 129.051916 -71.047909 129.060295 -69.82205 129.068928 C-69.215546 129.071184 -69.215546 129.071184 -66.146269 129.0826 C-63.163145 129.094344 -60.180123 129.110769 -57.19705 129.131428 C-57.205933 128.16312 -57.214815 127.194813 -57.223967 126.197163 C-57.305032 117.074465 -57.365006 107.951841 -57.404299 98.828865 C-57.425179 94.138551 -57.453504 89.448528 -57.498808 84.758381 C-57.542251 80.232603 -57.566184 75.707104 -57.576559 71.181133 C-57.583953 69.453921 -57.598393 67.726724 -57.61997 65.99963 C-57.648984 63.581311 -57.653007 61.16415 -57.651152 58.745686 C-57.658342 58.388197 -57.658342 58.388197 -57.694731 56.57909 C-57.667114 53.255274 -57.401832 51.415693 -55.438017 48.689655 C-52.984026 46.983304 -51.837911 46.621077 -48.88748 46.585529 C-48.467195 46.57567 -48.467195 46.57567 -46.3403 46.525776 C-45.891273 46.525162 -45.891273 46.525162 -43.618925 46.522053 C-43.155638 46.513785 -43.155638 46.513785 -40.811125 46.471943 C-37.856366 46.423421 -34.902122 46.402083 -31.94705 46.381428 C-29.941816 46.353272 -27.936606 46.323345 -25.931425 46.291584 C-21.020009 46.21766 -16.10888 46.168112 -11.19705 46.131428 C-11.182468 44.910363 -11.167885 43.689299 -11.152861 42.431232 C-11.094864 37.898546 -11.017632 33.366356 -10.934599 28.834064 C-10.901356 26.872883 -10.873322 24.911607 -10.850615 22.950275 C-10.817057 20.130037 -10.764741 17.310674 -10.708769 14.490803 C-10.702379 13.614623 -10.695989 12.738443 -10.689405 11.835712 C-10.543351 5.781142 -10.543351 5.781142 -8.852568 2.608967 C-6.113253 0.164146 -3.510674 0.005886 0 0 Z M1.80295 12.131428 C1.80295 50.741428 1.80295 89.351428 1.80295 129.131428 C79.02295 129.131428 156.24295 129.131428 235.80295 129.131428 C235.80295 90.521428 235.80295 51.911428 235.80295 12.131428 C158.58295 12.131428 81.36295 12.131428 1.80295 12.131428 Z M-45.19705 59.131428 C-45.19705 82.231428 -45.19705 105.331428 -45.19705 129.131428 C-33.64705 129.131428 -22.09705 129.131428 -10.19705 129.131428 C-10.19705 106.031428 -10.19705 82.931428 -10.19705 59.131428 C-21.74705 59.131428 -33.29705 59.131428 -45.19705 59.131428 Z M247.80295 59.131428 C247.80295 82.231428 247.80295 105.331428 247.80295 129.131428 C259.35295 129.131428 270.90295 129.131428 282.80295 129.131428 C282.80295 106.031428 282.80295 82.931428 282.80295 59.131428 C271.25295 59.131428 259.70295 59.131428 247.80295 59.131428 Z M-102.19705 150.131428 C-106.09148 155.600201 -107.318299 160.293583 -107.337492 166.911518 C-107.343202 168.091851 -107.348912 169.272184 -107.354795 170.488285 C-107.355913 171.77979 -107.357031 173.071294 -107.358183 174.401936 C-107.362813 175.778692 -107.367838 177.155447 -107.373228 178.5322 C-107.386333 182.269984 -107.392793 186.00775 -107.397239 189.745553 C-107.400173 192.082735 -107.404278 194.419912 -107.408743 196.757092 C-107.422414 204.075221 -107.432082 211.393338 -107.435945 218.711479 C-107.440423 227.148585 -107.457962 235.585529 -107.486945 244.022586 C-107.508591 250.550979 -107.518651 257.079326 -107.519986 263.607754 C-107.521032 267.503641 -107.526898 271.399375 -107.544806 275.295223 C-107.561335 278.962608 -107.563418 282.629727 -107.554667 286.297136 C-107.553534 288.275596 -107.567214 290.254047 -107.581419 292.232456 C-107.541776 300.714649 -106.911006 308.241952 -100.780302 314.758381 C-91.321915 322.960997 -80.331515 321.717524 -68.57205 321.443928 C-66.690569 321.418809 -64.809056 321.396002 -62.927519 321.375568 C-58.349887 321.320867 -53.773831 321.234795 -49.19705 321.131428 C-49.191184 320.012783 -49.185318 318.894139 -49.179274 317.741596 C-49.122092 307.205941 -49.049354 296.670492 -48.961335 286.135048 C-48.916583 280.718492 -48.877338 275.302012 -48.850615 269.885334 C-48.82463 264.659171 -48.784261 259.4333 -48.733864 254.207317 C-48.717163 252.212242 -48.705669 250.217116 -48.699436 248.221981 C-48.689831 245.430091 -48.661814 242.638954 -48.629423 239.847248 C-48.630858 239.020063 -48.632293 238.192877 -48.633772 237.340626 C-48.579579 234.043717 -48.439091 231.579948 -46.857527 228.649189 C-43.803342 225.857507 -40.750745 226.005038 -36.81308 226 C-36.250808 225.998079 -36.250808 225.998079 -33.405374 225.98836 C-32.164637 225.989227 -30.923901 225.990093 -29.645567 225.990986 C-28.331628 225.988015 -27.017688 225.985044 -25.663933 225.981982 C-22.009053 225.973903 -18.354193 225.972122 -14.699306 225.971385 C-10.76057 225.969536 -6.821845 225.96199 -2.883116 225.95525 C5.732469 225.94166 14.348048 225.935641 22.963642 225.931239 C28.340927 225.928478 33.718211 225.924241 39.095495 225.919735 C53.977343 225.907542 68.85919 225.897242 83.741043 225.89386 C84.693751 225.89364 85.646458 225.893421 86.628036 225.893195 C87.105542 225.893085 87.105542 225.893085 89.522011 225.892533 C91.457291 225.89209 93.392572 225.891643 95.327852 225.891193 C96.287822 225.890972 97.247792 225.890751 98.236852 225.890522 C113.798234 225.886573 129.35957 225.869114 144.920934 225.845834 C160.88926 225.822137 176.857563 225.809659 192.825907 225.808492 C201.794933 225.807574 210.763899 225.801799 219.732908 225.783672 C227.368846 225.768294 235.004705 225.763137 242.640655 225.77141 C246.537969 225.775325 250.435121 225.774349 254.332415 225.760353 C258.554227 225.745331 262.775674 225.753457 266.997499 225.763935 C268.233774 225.755879 269.470049 225.747822 270.743787 225.739522 C271.873545 225.746112 273.003304 225.752701 274.167297 225.759491 C275.141932 225.758894 276.116567 225.758297 277.120736 225.757682 C280.339432 226.206182 282.216352 227.183814 284.80295 229.131428 C286.085529 232.979166 285.980164 236.630285 286.008272 240.641926 C286.018172 241.510432 286.028071 242.378938 286.038271 243.273762 C286.069879 246.146862 286.094641 249.019979 286.119356 251.893147 C286.139926 253.884265 286.160923 255.87538 286.182329 257.866489 C286.237544 263.109104 286.286956 268.351758 286.335176 273.59444 C286.385396 278.943394 286.44108 284.29229 286.496309 289.641193 C286.603884 300.137889 286.70533 310.634635 286.80295 321.131428 C292.316377 321.255949 297.828968 321.346198 303.343477 321.406086 C305.215367 321.431077 307.087161 321.465081 308.958712 321.508625 C329.615328 321.976842 329.615328 321.976842 336.80295 316.131428 C342.394059 310.222561 345.047132 304.347454 345.063646 296.110828 C345.070731 294.927746 345.077816 293.744664 345.085115 292.52573 C345.083877 291.883573 345.083877 291.883573 345.077608 288.633869 C345.081959 287.256817 345.087144 285.879766 345.093096 284.50272 C345.106456 280.773291 345.107068 277.043963 345.104532 273.314515 C345.103461 270.195872 345.108352 267.077251 345.113138 263.958613 C345.124223 256.597908 345.124676 249.237254 345.118624 241.876545 C345.112586 234.295482 345.124893 226.714604 345.146194 219.133572 C345.163836 212.613623 345.169807 206.093733 345.166556 199.57376 C345.164747 195.684623 345.167341 191.795618 345.181271 187.906502 C345.193887 184.247281 345.191869 180.588349 345.17886 176.929132 C345.175384 174.955475 345.186644 172.981808 345.198427 171.008183 C345.143832 161.755842 343.973121 154.674115 337.545137 147.67049 C331.203159 142.067936 324.044261 141.008291 315.825346 141 C315.478537 140.998974 315.478537 140.998974 313.723474 140.99378 C311.393971 140.988115 309.064527 140.989566 306.735018 140.990986 C305.050073 140.988402 303.365128 140.985389 301.680185 140.981982 C297.04561 140.973913 292.411051 140.972123 287.77647 140.971385 C282.779744 140.969534 277.783025 140.961987 272.786303 140.95525 C261.858658 140.941666 250.931017 140.935642 240.003366 140.931239 C233.181099 140.928477 226.358835 140.92424 219.53657 140.919735 C200.65027 140.907543 181.763972 140.897243 162.877668 140.89386 C161.668855 140.89364 160.460042 140.893421 159.214598 140.893195 C158.608741 140.893085 158.608741 140.893085 155.542737 140.892533 C153.08732 140.89209 150.631902 140.891643 148.176485 140.891193 C146.958512 140.890972 145.740539 140.890751 144.485657 140.890522 C124.7465 140.886574 105.007379 140.869117 85.268236 140.845834 C65.00578 140.822126 44.743343 140.809658 24.480873 140.808492 C13.102837 140.807575 1.724849 140.801815 -9.653173 140.783672 C-19.340983 140.768279 -29.028729 140.763146 -38.716548 140.77141 C-43.659396 140.77532 -48.602117 140.774375 -53.544949 140.760353 C-58.071429 140.74763 -62.597686 140.748798 -67.124166 140.760944 C-68.760104 140.762904 -70.396057 140.759809 -72.031972 140.751099 C-83.753195 140.692653 -93.930175 140.898295 -102.19705 150.131428 Z M-37.19705 238.131428 C-37.292128 240.717818 -37.322614 243.277413 -37.310575 245.864094 C-37.310722 246.673786 -37.310868 247.483479 -37.311018 248.317707 C-37.310319 251.006943 -37.302525 253.69611 -37.294706 256.385334 C-37.292842 258.244785 -37.291418 260.104236 -37.290419 261.963688 C-37.286593 266.867719 -37.276762 271.77172 -37.265715 276.675739 C-37.255502 281.675939 -37.250921 286.676143 -37.245878 291.67635 C-37.23514 301.494724 -37.217542 311.313069 -37.19705 321.131428 C-30.26705 321.131428 -23.33705 321.131428 -16.19705 321.131428 C-15.01559 314.45749 -13.99725 307.799204 -13.232206 301.065022 C-13.152234 300.372442 -13.072262 299.679863 -12.989866 298.966297 C-12.659893 296.101782 -12.331619 293.237291 -12.02249 290.370441 C-11.791689 288.246271 -11.54461 286.124517 -11.294706 284.002522 C-11.155568 282.753984 -11.01643 281.505446 -10.873075 280.219074 C-10.183439 277.069261 -9.75443 275.9932 -7.19705 274.131428 C-4.905791 272.985798 -3.635784 273.005184 -1.08902 273.002793 C-0.223622 272.999569 0.641775 272.996344 1.533397 272.993022 C2.011597 272.993797 2.011597 272.993797 4.431581 272.997715 C4.937385 272.996582 4.937385 272.996582 7.497059 272.99085 C10.908767 272.984487 14.320436 272.985341 17.732149 272.986164 C20.169273 272.983174 22.606397 272.979772 25.04352 272.975986 C30.989606 272.968048 36.935675 272.964931 42.881765 272.964374 C47.713874 272.963899 52.54598 272.961847 57.378088 272.958673 C71.069718 272.949864 84.76134 272.945255 98.452972 272.946004 C99.191565 272.946044 99.930159 272.946084 100.691133 272.946125 C101.06088 272.946145 101.06088 272.946145 102.932019 272.946249 C114.918143 272.946655 126.904236 272.937086 138.890351 272.922987 C151.189491 272.908633 163.488615 272.901716 175.787764 272.90258 C182.696046 272.902913 189.604296 272.90015 196.512571 272.889402 C203.008247 272.879362 209.503865 272.879622 215.999548 272.886919 C218.38768 272.887969 220.775817 272.885581 223.163942 272.879559 C226.416162 272.871887 229.668137 272.876451 232.920351 272.88419 C233.872291 272.879046 234.82423 272.873902 235.805016 272.868603 C236.675629 272.873202 237.546242 272.877801 238.443237 272.882539 C239.193999 272.882321 239.944762 272.882104 240.718274 272.88188 C243.170877 273.175471 244.736927 273.779409 246.80295 275.131428 C248.681085 280.063321 249.299033 285.110664 249.838106 290.330647 C249.921689 291.088117 250.005271 291.845587 250.091387 292.626011 C250.355113 295.023069 250.610802 297.420889 250.86545 299.818928 C251.12483 302.227528 251.385974 304.635909 251.650225 307.04398 C251.813611 308.536147 251.974038 310.028641 252.13109 311.521488 C252.490227 314.831164 252.992795 317.890809 253.80295 321.131428 C260.73295 321.131428 267.66295 321.131428 274.80295 321.131428 C274.80295 293.411428 274.80295 265.691428 274.80295 237.131428 C235.200409 237.109402 195.597874 237.09093 155.995329 237.080362 C151.325002 237.079112 146.654674 237.077817 141.984346 237.076496 C141.519437 237.076365 141.519437 237.076365 139.166713 237.075701 C124.090681 237.071344 109.014651 237.063456 93.938621 237.054275 C78.481177 237.044939 63.023734 237.039372 47.566287 237.037339 C38.020248 237.035964 28.47422 237.031612 18.928184 237.023511 C12.391337 237.018245 5.854495 237.016623 -0.682354 237.017926 C-4.459607 237.01857 -8.236842 237.01755 -12.014091 237.012222 C-16.099418 237.006501 -20.184704 237.008427 -24.270033 237.011173 C-25.477205 237.00826 -26.684377 237.005348 -27.92813 237.002346 C-28.470794 237.003342 -28.470794 237.003342 -31.217 237.00838 C-32.161364 237.008 -33.105729 237.00762 -34.07871 237.007229 C-36.19705 237.131428 -36.19705 237.131428 -37.19705 238.131428 Z M-0.19705 284.131428 C-3.645618 308.271401 -3.645618 308.271401 -4.822783 318.755451 C-4.891277 319.354478 -4.891277 319.354478 -5.237898 322.385914 C-5.679254 326.25386 -6.116156 330.122291 -6.552519 333.990803 C-6.783363 336.027676 -7.014561 338.064509 -7.245777 340.10134 C-7.968325 346.467167 -8.687606 352.833357 -9.404814 359.199787 C-10.141203 365.735884 -10.88363 372.271276 -11.628867 378.80637 C-12.273734 384.463379 -12.914695 390.120823 -13.5526 395.778622 C-13.931467 399.138489 -14.311797 402.498172 -14.696003 405.857433 C-15.121966 409.591146 -15.541528 413.325525 -15.959501 417.060139 C-16.085698 418.154281 -16.211896 419.248423 -16.341917 420.375721 C-16.45538 421.4011 -16.568842 422.426478 -16.685743 423.482929 C-16.785088 424.361777 -16.884432 425.240624 -16.986787 426.146103 C-17.267519 430.131952 -17.19705 434.135705 -17.19705 438.131428 C72.56295 438.131428 162.32295 438.131428 254.80295 438.131428 C254.80295 432.742316 254.799333 427.974414 254.202257 422.723148 C254.069076 421.530161 253.935895 420.337174 253.798677 419.108036 C253.650637 417.828224 253.502596 416.548411 253.350069 415.229816 C253.193634 413.845882 253.037635 412.461898 252.882036 411.077869 C252.460973 407.344247 252.033657 403.611365 251.605016 399.878607 C251.156405 395.96377 250.713124 392.04833 250.269121 388.132969 C249.523514 381.565082 248.773992 374.997652 248.021944 368.4305 C247.152764 360.840234 246.289025 353.249365 245.428346 345.658131 C244.599082 338.344507 243.766744 331.031237 242.932739 323.718153 C242.578228 320.609495 242.224657 317.500733 241.871815 314.391886 C241.456566 310.734905 241.038582 307.078248 240.618481 303.421822 C240.39146 301.440476 240.167068 299.45883 239.942751 297.477177 C239.80675 296.298289 239.670749 295.119401 239.530626 293.904789 C239.472092 293.392586 239.472092 293.392586 239.175876 290.800529 C238.80295 288.131428 238.80295 288.131428 237.80295 284.131428 C159.26295 284.131428 80.72295 284.131428 -0.19705 284.131428 Z " fill="#111111" transform="translate(137.1970500946045,30.868572235107422)"/><path d="M0 0 C0.850781 -0.029004 1.701562 -0.058008 2.578125 -0.087891 C6.741137 -0.130039 9.028286 -0.047216 12.664062 2.144531 C14.625 4.3125 14.625 4.3125 15.625 7.3125 C13.383047 10.37279 12.012916 12.047118 8.214355 12.773438 C5.316279 12.913426 2.462647 12.895631 -0.4375 12.8125 C-0.934111 12.813789 -0.934111 12.813789 -3.447266 12.820312 C-11.799826 12.70782 -11.799826 12.70782 -15.375 9.3125 C-15.8125 6.8125 -15.8125 6.8125 -15.375 4.3125 C-11.581399 -0.745635 -5.722274 0.06444 0 0 Z " fill="#111111" transform="translate(81.375,207.6875)"/><path d="M0 0 C0.841758 -0.011602 1.683516 -0.023203 2.550781 -0.035156 C7.338549 -0.012537 10.62813 0.246836 14.5 3.375 C15.5625 5.25 15.5625 5.25 15.5 7.375 C14.214844 9.972656 14.214844 9.972656 11.5 12.375 C7.660005 13.1183 3.898792 13.026437 0 12.9375 C-1.04543 12.948457 -2.090859 12.959414 -3.167969 12.970703 C-10.852593 12.896907 -10.852593 12.896907 -13.826172 10.499756 C-15.5 8.375 -15.5 8.375 -15.5625 5.8125 C-12.72747 -0.691393 -6.10095 -0.084087 0 0 Z " fill="#111111" transform="translate(139.5,207.625)"/><path d="M0 0 C1.209911 -0.009905 2.419822 -0.019809 3.666397 -0.030014 C5.004045 -0.025776 6.341691 -0.021218 7.679337 -0.016373 C9.090521 -0.022076 10.5017 -0.02904 11.912872 -0.03717 C15.743494 -0.055121 19.573887 -0.05393 23.404538 -0.048228 C26.602902 -0.045139 29.801221 -0.051226 32.999579 -0.057267 C40.545212 -0.071317 48.090733 -0.069747 55.636368 -0.058365 C63.419728 -0.046884 71.202743 -0.060958 78.986058 -0.087761 C85.669838 -0.109916 92.35351 -0.116556 99.037324 -0.110685 C103.028709 -0.107314 107.019874 -0.109742 111.011229 -0.126936 C114.764882 -0.1424 118.518025 -0.138457 122.271658 -0.119631 C123.648297 -0.115943 125.024973 -0.119058 126.401577 -0.129517 C128.282572 -0.142714 130.163698 -0.128778 132.044678 -0.113525 C133.096779 -0.113316 134.14888 -0.113107 135.232863 -0.112891 C138.773337 0.508307 140.482993 1.973397 143.085831 4.38768 C142.769238 7.316164 142.548028 8.934714 140.408591 11.031419 C137.475486 12.744061 135.5606 12.76753 132.171661 12.77536 C130.96175 12.785265 129.751839 12.795169 128.505264 12.805374 C127.167617 12.801136 125.82997 12.796578 124.492325 12.791733 C123.081141 12.797436 121.669961 12.8044 120.258789 12.812531 C116.428167 12.830482 112.597775 12.82929 108.767123 12.823588 C105.56876 12.820499 102.37044 12.826586 99.172083 12.832627 C91.626449 12.846677 84.080929 12.845107 76.535294 12.833725 C68.751933 12.822244 60.968918 12.836318 53.185603 12.863121 C46.501823 12.885276 39.818151 12.891916 33.134337 12.886045 C29.142952 12.882674 25.151787 12.885103 21.160433 12.902296 C17.406779 12.91776 13.653637 12.913817 9.900003 12.894991 C8.523365 12.891303 7.146688 12.894419 5.770084 12.904877 C3.88909 12.918074 2.007963 12.904139 0.126984 12.888885 C-0.925118 12.888676 -1.977219 12.888467 -3.061202 12.888251 C-6.601676 12.267053 -8.311331 10.801963 -10.914169 8.38768 C-10.597577 5.459197 -10.376367 3.840646 -8.23693 1.743941 C-5.303824 0.031299 -3.388938 0.00783 0 0 Z " fill="#111111" transform="translate(189.91416931152344,340.61231994628906)"/><path d="M0 0 C0.661276 -0.004531 1.322553 -0.009062 2.003868 -0.013731 C4.224049 -0.026411 6.443986 -0.024752 8.6642 -0.023102 C10.254194 -0.029085 11.844186 -0.03589 13.434174 -0.043457 C17.756456 -0.061147 22.07866 -0.065814 26.400975 -0.067089 C30.006968 -0.068986 33.612943 -0.076342 37.218929 -0.083433 C45.724784 -0.099725 54.230597 -0.104601 62.736465 -0.10318 C71.516703 -0.101978 80.296694 -0.12309 89.076869 -0.154667 C96.610699 -0.180799 104.144449 -0.191549 111.678325 -0.190269 C116.179985 -0.189759 120.681427 -0.195491 125.183043 -0.216625 C129.415973 -0.235955 133.648476 -0.236168 137.881422 -0.221592 C139.435869 -0.219496 140.990341 -0.22425 142.544743 -0.236313 C144.665344 -0.251706 146.784461 -0.242499 148.905029 -0.227051 C150.092089 -0.22814 151.279149 -0.22923 152.502181 -0.230352 C156.139464 0.370399 157.358854 1.317817 159.516006 4.267426 C159.453506 7.392426 159.453506 7.392426 158.516006 10.267426 C154.918371 12.665849 153.309938 12.522768 149.032013 12.534851 C148.370736 12.539382 147.70946 12.543913 147.028145 12.548582 C144.807964 12.561262 142.588027 12.559603 140.367813 12.557953 C138.777819 12.563936 137.187827 12.570741 135.597839 12.578308 C131.275557 12.595998 126.953353 12.600665 122.631038 12.60194 C119.025045 12.603837 115.41907 12.611193 111.813084 12.618284 C103.307229 12.634576 94.801416 12.639452 86.295547 12.638031 C77.51531 12.636829 68.735319 12.657941 59.955144 12.689518 C52.421314 12.71565 44.887564 12.7264 37.353688 12.72512 C32.852028 12.72461 28.350586 12.730342 23.84897 12.751476 C19.61604 12.770806 15.383537 12.771019 11.150591 12.756443 C9.596144 12.754347 8.041671 12.759101 6.48727 12.771164 C4.366669 12.786557 2.247552 12.77735 0.126984 12.761902 C-1.060076 12.762991 -2.247137 12.764081 -3.470168 12.765203 C-7.107451 12.164452 -8.326841 11.217034 -10.483994 8.267426 C-10.421494 5.142426 -10.421494 5.142426 -9.483994 2.267426 C-5.886358 -0.130998 -4.277925 0.012083 0 0 Z " fill="#111111" transform="translate(181.48399353027344,385.7325744628906)"/><path d="M0 0 C0.362954 -0.002618 0.362954 -0.002618 2.199721 -0.015869 C4.638665 -0.030903 7.0774 -0.031575 9.516388 -0.032242 C11.262394 -0.039861 13.008396 -0.048288 14.754395 -0.057465 C19.502342 -0.07944 24.250224 -0.088213 28.998216 -0.093291 C31.963369 -0.096931 34.928504 -0.103169 37.89365 -0.110292 C48.2347 -0.134797 58.575701 -0.147841 68.916779 -0.151382 C78.561584 -0.155019 88.206072 -0.184919 97.85078 -0.226787 C106.12687 -0.261456 114.402854 -0.27693 122.679016 -0.277628 C127.623972 -0.278422 132.568604 -0.287215 137.513485 -0.315626 C142.164241 -0.341749 146.814403 -0.344044 151.465199 -0.327971 C153.172425 -0.326151 154.879685 -0.332888 156.586838 -0.348789 C158.917485 -0.369175 161.246041 -0.358745 163.57666 -0.340576 C164.880788 -0.342587 166.184916 -0.344599 167.528563 -0.346671 C171.73994 0.425317 173.226837 2.032207 175.915314 5.274155 C174.665546 8.927321 174.244326 10.054813 170.915314 12.274155 C167.780245 12.534217 167.780245 12.534217 163.830627 12.548309 C163.467674 12.550928 163.467674 12.550928 161.630907 12.564178 C159.191962 12.579212 156.753227 12.579884 154.31424 12.580551 C152.568234 12.58817 150.822231 12.596597 149.076233 12.605774 C144.328286 12.627749 139.580403 12.636522 134.832411 12.6416 C131.867259 12.64524 128.902123 12.651478 125.936977 12.658602 C115.595927 12.683106 105.254927 12.69615 94.913849 12.699692 C85.269043 12.703328 75.624556 12.733229 65.979847 12.775096 C57.703757 12.809766 49.427773 12.82524 41.151611 12.825938 C36.206655 12.826732 31.262023 12.835524 26.317142 12.863935 C21.666387 12.890059 17.016224 12.892354 12.365429 12.87628 C10.658203 12.874461 8.950943 12.881197 7.24379 12.897099 C4.913142 12.917484 2.584587 12.907054 0.253967 12.888885 C-1.050161 12.890897 -2.354288 12.892908 -3.697935 12.89498 C-7.909313 12.122992 -9.39621 10.516102 -12.084686 7.274155 C-9.771251 0.511805 -6.841668 0.024411 0 0 Z " fill="#111111" transform="translate(174.08468627929688,430.72584533691406)"/></svg>