<svg xmlns="http://www.w3.org/2000/svg" viewBox="0 0 512 512" width="512" height="512"><path d="M0 0 C12.21 0 24.42 0 37 0 C37 0.99 37 1.98 37 3 C38.106016 2.956172 39.212031 2.912344 40.351562 2.867188 C45.536798 2.874019 50.346821 3.937224 55.375 5.125 C56.338896 5.350183 57.302793 5.575366 58.295898 5.807373 C93.144415 14.186298 122.664 30.624474 148 56 C148.371895 56.348691 148.371895 56.348691 150.253906 58.113281 C179.74767 86.209709 199.038824 129.691428 200.203125 170.355469 C200.481133 191.032545 197.763246 210.176037 192 230 C191.595097 231.430634 191.191414 232.861615 190.789062 234.292969 C189.875059 237.533274 188.943707 240.7682 188 244 C188.654844 244.074766 189.309687 244.149531 189.984375 244.226562 C202.201578 245.986668 212.360513 251.138411 220 261 C221.642474 263.919954 222.842946 266.864563 224 270 C224.839844 272.183594 224.839844 272.183594 226 274 C227.882812 274.765625 227.882812 274.765625 230.125 275.25 C236.844137 277.270062 240.995049 281.681632 244.574219 287.605469 C248.523033 295.265489 250.700442 302.78212 248.351562 311.371094 C244.679387 320.425987 237.777901 327.700061 229 332 C223.271903 333.678459 218.146148 334.302275 212.197266 334.318848 C211.35729 334.328893 210.517315 334.338939 209.651886 334.349289 C206.903347 334.379931 204.154905 334.397103 201.40625 334.414062 C199.489534 334.432789 197.572827 334.452364 195.656128 334.472748 C190.632251 334.523914 185.608347 334.563622 180.584351 334.600891 C175.449397 334.641029 170.314552 334.692076 165.179688 334.742188 C155.119869 334.838763 145.059988 334.923226 135 335 C134.663489 335.616877 134.326978 336.233754 133.98027 336.869324 C133.757738 337.27422 133.757738 337.27422 132.631592 339.323242 C132.191956 340.125744 131.75232 340.928246 131.299362 341.755066 C129.712356 344.496969 127.876289 346.849345 125.8125 349.25 C122.520961 353.15972 119.343122 357.118661 116.25 361.1875 C110.343238 368.934724 104.172784 376.464288 98 384 C97.217539 384.956484 96.435078 385.912969 95.628906 386.898438 C94.926367 387.756953 94.223828 388.615469 93.5 389.5 C92.807773 390.350781 92.115547 391.201563 91.402344 392.078125 C89.495751 394.397037 87.568922 396.693637 85.628906 398.984375 C84.439979 400.406145 83.251176 401.82802 82.0625 403.25 C81.494023 403.911934 80.925547 404.573867 80.339844 405.255859 C76.889388 409.410574 75.09263 412.694901 74 418 C74.93457 418.025781 75.869141 418.051562 76.832031 418.078125 C103.748318 419.240359 133.866868 426.662159 152.875 446.9375 C156.900062 451.775046 158.661585 456.292683 159.4375 462.5 C158.384799 470.921605 153.202821 477.450606 147 483 C120.421502 502.299876 82.427448 510.517402 50 509 C50 509.99 50 510.98 50 512 C29.54 512 9.08 512 -12 512 C-12 511.01 -12 510.02 -12 509 C-12.743789 509.034805 -13.487578 509.069609 -14.253906 509.105469 C-39.656913 509.735295 -66.260993 504.382557 -89 493 C-89.988711 492.541094 -90.977422 492.082187 -91.996094 491.609375 C-102.133752 486.605254 -111.952141 478.794292 -116 468 C-117.637703 463.086892 -117.642431 458.85345 -115.5 454.125 C-105.458127 436.126072 -85.400728 429.185638 -66.635742 423.76416 C-61.128473 422.237974 -55.582084 420.910023 -50 419.6875 C-49.235264 419.515894 -48.470527 419.344287 -47.682617 419.16748 C-42.367941 418.059004 -37.428212 417.854601 -32 418 C-33.406952 412.389455 -36.154552 408.930915 -39.8125 404.625 C-40.989812 403.208523 -42.166888 401.791851 -43.34375 400.375 C-43.94832 399.653125 -44.552891 398.93125 -45.175781 398.1875 C-48.088815 394.694355 -50.949464 391.159139 -53.8125 387.625 C-54.901036 386.285152 -55.989578 384.945308 -57.078125 383.605469 C-60.048022 379.944303 -63.001466 376.270424 -65.9375 372.582031 C-67.492461 370.635385 -69.055281 368.696397 -70.625 366.761719 C-116.691354 309.843345 -162.644624 241.445947 -158 165 C-157.151676 157.241884 -155.6106 149.629392 -154 142 C-153.55333 139.745017 -153.114859 137.488584 -152.677979 135.231689 C-152.135899 132.484184 -151.568163 129.742216 -151 127 C-151.826128 127.01571 -152.652256 127.031421 -153.503418 127.047607 C-156.615861 127.099227 -159.728084 127.136586 -162.84082 127.164795 C-164.831529 127.187015 -166.82204 127.225166 -168.8125 127.263672 C-179.998997 127.348418 -189.312518 126.202456 -197.777344 118.351562 C-203.661695 112.255723 -207.033311 104.958329 -207.5 96.4375 C-207.007769 87.529706 -202.40946 79.065104 -196 73 C-193.862485 71.700779 -191.692872 70.453436 -189.5 69.25 C-183.01582 65.547934 -180.667854 61.68838 -177.519531 55.054688 C-173.31105 46.59445 -165.713096 42.1201 -157 39 C-154.100316 38.392661 -151.183228 37.973012 -148.25 37.5625 C-140.916324 36.522519 -136.876676 34.564868 -132 29 C-122.592404 19.727119 -109.573924 15.171361 -96.4375 14.625 C-87.859082 14.970019 -79.608016 17.938144 -71.765625 21.230469 C-64.012323 23.387814 -59.117414 21.545849 -52.3125 17.9375 C-36.540874 10.038392 -17.87786 2.619143 0 3 C0 2.01 0 1.02 0 0 Z M-95 64 C-95.68707 64.613594 -96.374141 65.227187 -97.082031 65.859375 C-123.359485 90.721416 -140.491651 130.856563 -142.177002 166.771973 C-142.462239 184.888503 -142.573149 202.329238 -138 220 C-137.801646 220.802603 -137.603291 221.605205 -137.398926 222.432129 C-123.838343 276.145844 -88.262624 321.891625 -53.836182 364.036865 C-50.79105 367.771018 -47.789286 371.532553 -44.836182 375.339844 C-39.021564 382.836271 -32.881441 390.002523 -26.627441 397.134277 C-23.977067 400.172705 -21.365562 403.244116 -18.75 406.3125 C-15.325918 410.323742 -11.86272 414.286565 -8.3125 418.1875 C-5.301855 421.500831 -2.434348 424.889419 0.375 428.375 C5.900435 435.206269 11.785425 441.785425 18 448 C22.1758 447.910731 24.429125 447.435794 27.773438 444.882812 C28.631953 443.972734 29.490469 443.062656 30.375 442.125 C30.843413 441.633948 31.311826 441.142896 31.794434 440.636963 C35.689449 436.494299 39.286167 432.115188 42.832031 427.671875 C44.91943 425.099297 47.082918 422.637238 49.3125 420.1875 C54.487396 414.500505 59.46841 408.656375 64.456055 402.805664 C65.957063 401.050216 67.465328 399.301335 68.976562 397.554688 C83.957409 380.220415 98.099016 362.206139 112 344 C112.587813 343.342578 113.175625 342.685156 113.78125 342.007812 C115.43149 339.289148 115.08285 337.126508 115 334 C114.098704 333.960361 113.197407 333.920723 112.268799 333.879883 C108.859036 333.721767 105.450713 333.548361 102.042236 333.365234 C100.579315 333.28963 99.116083 333.219772 97.652588 333.15625 C86.06907 332.647608 74.068201 332.043023 65 324 C63.234375 321.894531 63.234375 321.894531 61.75 319.8125 C59.019868 316.019868 59.019868 316.019868 58 315 C50.188758 314.520851 42.774219 315.073478 35.101562 316.480469 C4.274721 321.644159 -29.782899 312.034501 -55.148438 294.136719 C-86.761091 271.125218 -107.915313 238.397812 -114.539062 199.601562 C-117.84115 173.800507 -116.343448 144.534848 -102 122 C-98.767462 119.844975 -97.748491 119.531439 -94 120 C-92.125 121 -92.125 121 -91 123 C-91.464284 129.674082 -93.330776 135.356204 -95.652344 141.585938 C-100.244143 154.553731 -101.559932 167.656596 -101.4375 181.3125 C-101.434791 182.027899 -101.432082 182.743299 -101.429291 183.480377 C-101.363226 195.029774 -100.411179 205.919975 -97 217 C-96.637773 218.228477 -96.275547 219.456953 -95.902344 220.722656 C-86.757965 248.713755 -65.523104 275.617834 -39.421875 289.503906 C-14.865093 301.932049 19.642156 309.709994 47.027344 302.664062 C50.458689 301.508956 52.368748 300.57006 55 298 C56.360386 295.062606 57.502627 292.077938 58.648438 289.050781 C61.557855 282.483569 66.940236 276.602693 73.691406 273.9375 C75.607822 273.311732 77.52449 272.686733 79.441406 272.0625 C82.080909 270.966401 83.313823 270.279175 85 268 C85.992188 265.398437 85.992188 265.398437 86.875 262.375 C91.330475 248.491271 100.030187 237.072799 113 230 C118.52931 227.664837 124.140188 225.62315 130.011719 224.34375 C136.279971 222.952839 136.279971 222.952839 138.171875 220.449219 C139.111125 217.981292 139.549464 215.604235 140 213 C140.273281 211.820508 140.546562 210.641016 140.828125 209.425781 C147.879188 176.779043 142.496008 142.382946 125 114 C106.196629 85.829509 78.961546 67.767069 46 60 C20.774719 54.970579 -6.130967 58.323786 -29.828125 68.175781 C-32.905236 69.343534 -35.745058 69.127645 -39 69 C-40.171875 63.140625 -40.171875 63.140625 -40 61 C-32.081762 50.527491 -9.469511 47.00602 2.894531 45.246094 C31.053321 41.738741 58.732302 47.083899 84 60 C84.64292 60.327583 85.28584 60.655166 85.948242 60.992676 C94.436213 65.399132 101.839904 70.665276 109 77 C109.488555 77.416367 109.488555 77.416367 111.960938 79.523438 C136.491058 100.794726 154.141408 134.498908 157 167 C158.01103 182.491494 156.575876 197.255736 153.875 212.507812 C153.136574 216.760972 152.804706 220.691324 153 225 C155.348903 226.157825 157.703201 227.301212 160.0625 228.4375 C160.719277 228.762988 161.376055 229.088477 162.052734 229.423828 C166.423438 231.512293 170.171994 232.554241 175 233 C189.119571 190.497942 186.770304 144.375664 166.737305 104.207275 C160.642025 92.454195 153.11515 81.916964 144.085938 72.238281 C142.135556 70.145456 140.283686 67.997015 138.4375 65.8125 C134.926066 61.805146 131.125335 58.365223 127 55 C126.075742 54.238164 125.151484 53.476328 124.199219 52.691406 C58.778682 -0.064065 -34.366705 9.489823 -95 64 Z M-128 44 C-129.620696 46.079384 -131.161062 48.181342 -132.640625 50.363281 C-134 52 -134 52 -137 53 C-140.526075 53.195692 -144.045923 53.344401 -147.576172 53.429688 C-154.591542 53.725331 -159.908871 56.042848 -165 61 C-167.566869 65.033651 -169.105447 69.243334 -170.4375 73.8125 C-171.384392 76.733336 -171.774419 77.800958 -174.125 79.875 C-175.779475 80.522403 -177.449305 81.137242 -179.148438 81.65625 C-188.221868 84.429524 -188.221868 84.429524 -191 89 C-191.886859 94.573565 -192.417103 100.316549 -189.714844 105.433594 C-185.247296 110.713422 -181.29123 111.356386 -174.546875 111.941406 C-147.35974 114.01687 -147.35974 114.01687 -139.869141 108.833496 C-135.104327 103.247197 -132.494825 96.743366 -130.068848 89.875488 C-128.699575 86.191775 -126.952376 83.390743 -124.6875 80.1875 C-124.081641 79.30707 -123.475781 78.426641 -122.851562 77.519531 C-119.420916 72.851246 -115.772553 68.39483 -112 64 C-111.291016 63.167266 -110.582031 62.334531 -109.851562 61.476562 C-103.621229 54.346542 -96.782647 47.526388 -89.31543 41.681396 C-87.827803 40.514334 -86.408388 39.261551 -85 38 C-84.625 34.6875 -84.625 34.6875 -85 32 C-99.875012 27.593895 -117.482895 32.864242 -128 44 Z M106.25 251.75 C100.461913 258.711526 98.640448 266.396683 97.589844 275.238281 C96.924625 278.352913 95.836948 280.411781 94 283 C91.2966 284.3517 88.749204 284.446159 85.75 284.8125 C80.354555 285.610502 77.101704 286.437994 73 290 C72.401875 290.515625 71.80375 291.03125 71.1875 291.5625 C68.211554 295.164961 68.66816 299.785926 68.726562 304.207031 C69.153206 308.564894 70.256706 310.553297 73 314 C79.48526 319.018339 85.829827 318.567209 93.794678 318.517578 C95.191587 318.523005 96.58849 318.53013 97.985382 318.538818 C101.764454 318.556995 105.543086 318.550008 109.322165 318.537302 C113.286245 318.527143 117.250289 318.536576 121.214371 318.542847 C127.871254 318.550115 134.527959 318.540557 141.184814 318.521484 C148.86765 318.499726 156.550061 318.506762 164.232886 318.52879 C170.842051 318.546977 177.451089 318.549486 184.060272 318.539035 C188.001952 318.532817 191.943432 318.531918 195.885099 318.545181 C199.592862 318.556787 203.300081 318.548629 207.007786 318.525604 C209.00766 318.517843 211.007581 318.529633 213.007431 318.542114 C220.119431 318.475494 224.998292 317.94392 231 314 C234.090818 308.964027 233.936993 302.695735 233 297 C230.810947 292.579661 227.969338 289.824028 223.414062 287.917969 C220.75 287.125 220.75 287.125 218.234375 286.570312 C216 286 216 286 213 284 C211.972656 281.390625 211.972656 281.390625 211.0625 278.25 C208.794806 271.068968 206.394511 266.366983 200 262 C196.260368 260.085746 193.046152 259.816987 188.870605 259.775146 C177.649743 259.649494 177.649743 259.649494 173.875 256.4375 C172.382812 254.808594 172.382812 254.808594 171 253 C165.113879 245.635027 158.497584 239.996028 149 238 C131.770615 236.558418 118.488552 238.889149 106.25 251.75 Z M-101 457 C-102.358514 460.332319 -101.960315 461.3388 -101 465 C-97.632042 472.858569 -89.313693 476.67189 -81.792969 479.824219 C-52.253618 491.524502 -20.942103 494.155703 10.535156 494.167969 C12.505081 494.171193 14.475006 494.174558 16.444931 494.178055 C20.557287 494.184008 24.669622 494.185899 28.781982 494.185303 C33.989989 494.185201 39.197857 494.198833 44.405831 494.216075 C48.471945 494.227326 52.538027 494.229218 56.604155 494.228693 C58.521026 494.229854 60.437898 494.234169 62.354753 494.242025 C89.498251 494.342851 112.698885 493.399224 134 475 C134.889453 474.314219 135.778906 473.628438 136.695312 472.921875 C142.585488 468.231892 142.585488 468.231892 143.695312 464.933594 C143.88818 461.545553 142.974626 458.942332 141.625 455.875 C137.920957 451.818191 133.861589 449.495789 129 447 C128.035781 446.505 127.071563 446.01 126.078125 445.5 C109.777321 437.866453 90.840886 434.002184 73 432 C72.218345 431.90332 71.436689 431.806641 70.631348 431.707031 C57.341625 430.229503 57.341625 430.229503 52.117188 434.179688 C49.808706 437.004643 47.901005 439.889641 46 443 C44.909445 444.341257 43.786343 445.657045 42.625 446.9375 C42.073281 447.561406 41.521562 448.185313 40.953125 448.828125 C38.438154 451.624773 35.911343 454.410226 33.375 457.1875 C32.919478 457.686931 32.463955 458.186362 31.994629 458.700928 C30.672054 460.142233 29.336128 461.57125 28 463 C27.13375 463.937148 26.2675 464.874297 25.375 465.839844 C23 468 23 468 19.625 468.375 C15.111649 466.663039 13.795842 464.643436 11.070312 460.78125 C8.654815 457.536279 5.97412 454.674854 3.1875 451.75 C-1.932185 446.359047 -6.318408 440.690534 -10.550781 434.582031 C-14.401305 430.522707 -18.231594 430.145478 -23.65625 429.699219 C-48.298225 429.624091 -83.393692 438.208969 -101 457 Z " fill="#111111" transform="translate(235,0)"/><path d="M0 0 C3.722064 1.346278 5.019474 2.610053 6.9375 6.0625 C7.019327 10.072017 6.413076 11.547293 3.6875 14.5 C0.9375 16.0625 0.9375 16.0625 -1.5625 16.125 C-4.998788 14.664577 -6.81246 13.040494 -9.0625 10.0625 C-9.225494 6.069143 -8.540477 4.595103 -5.875 1.625 C-3.0625 0.0625 -3.0625 0.0625 0 0 Z " fill="#111111" transform="translate(165.0625,80.9375)"/><path d="M0 0 C3.722064 1.346278 5.019474 2.610053 6.9375 6.0625 C7.018547 10.033819 6.406358 11.540058 3.75 14.5 C0.9375 16.0625 0.9375 16.0625 -2.125 16.125 C-5.847064 14.778722 -7.144474 13.514947 -9.0625 10.0625 C-9.143547 6.091181 -8.531358 4.584942 -5.875 1.625 C-3.0625 0.0625 -3.0625 0.0625 0 0 Z " fill="#111111" transform="translate(207.0625,172.9375)"/><path d="M0 0 C3.722064 1.346278 5.019474 2.610053 6.9375 6.0625 C7.018547 10.033819 6.406358 11.540058 3.75 14.5 C0.9375 16.0625 0.9375 16.0625 -2.125 16.125 C-5.847064 14.778722 -7.144474 13.514947 -9.0625 10.0625 C-9.143547 6.091181 -8.531358 4.584942 -5.875 1.625 C-3.0625 0.0625 -3.0625 0.0625 0 0 Z " fill="#111111" transform="translate(257.0625,172.9375)"/><path d="M0 0 C3.722064 1.346278 5.019474 2.610053 6.9375 6.0625 C7.018547 10.033819 6.406358 11.540058 3.75 14.5 C0.9375 16.0625 0.9375 16.0625 -2.125 16.125 C-5.847064 14.778722 -7.144474 13.514947 -9.0625 10.0625 C-9.143547 6.091181 -8.531358 4.584942 -5.875 1.625 C-3.0625 0.0625 -3.0625 0.0625 0 0 Z " fill="#111111" transform="translate(307.0625,172.9375)"/></svg>