<svg xmlns="http://www.w3.org/2000/svg" viewBox="0 0 512 512" width="512" height="512"><path d="M0 0 C0.66 0.99 1.32 1.98 2 3 C-2.971947 6.885842 -7.213172 7.856446 -13.375 8.8125 C-35.166472 12.712593 -55.016744 24.573771 -69.757812 41.078125 C-71.232434 43.359615 -71.622426 45.329358 -72 48 C-70.700625 48.0825 -69.40125 48.165 -68.0625 48.25 C-58.160209 49.398542 -50.637577 54.406669 -44.332031 62.011719 C-42.300681 65.043852 -42.061533 67.36958 -42 71 C-44.935553 78.338882 -51.029011 84.093925 -58.125 87.5 C-65.204671 88.731247 -70.110191 88.081128 -76 84 C-82.4318 78.56173 -85.005521 72.052245 -87 64 C-87 63.34 -87 62.68 -87 62 C-93.307621 63.49391 -97.923328 67.15858 -103 71 C-103.988711 71.734766 -104.977422 72.469531 -105.996094 73.226562 C-118.46116 82.976308 -128.387357 97.086628 -131 113 C-129.80375 113.146953 -128.6075 113.293906 -127.375 113.445312 C-117.935587 114.631311 -108.51438 115.899874 -99.113281 117.359375 C-62.446753 123.046579 -25.804996 127.13193 11.219727 129.656738 C12.294633 129.732627 13.36954 129.808515 14.47702 129.886703 C16.489351 130.028305 18.502145 130.163542 20.515411 130.291153 C25.31843 130.632606 29.480943 131.183829 34 133 C35.331208 137.476987 34.570765 140.237464 33.070312 144.605469 C32.849027 145.260741 32.627741 145.916012 32.39975 146.591141 C31.652763 148.793943 30.888786 150.990472 30.125 153.1875 C29.585451 154.768492 29.047072 156.349885 28.509766 157.931641 C27.328483 161.402505 26.139953 164.870777 24.946289 168.337402 C22.894531 174.299288 20.863774 180.268224 18.835938 186.238281 C18.117922 188.351808 17.399905 190.465333 16.681885 192.578857 C16.322971 193.635435 15.964058 194.692014 15.594269 195.780609 C14.494995 199.014726 13.394101 202.248288 12.292725 205.481689 C8.298568 217.21036 4.324251 228.945064 0.411163 240.70105 C-0.304452 242.850822 -1.021431 245.000135 -1.738525 247.149414 C-3.985771 253.89314 -6.213352 260.642636 -8.406387 267.404205 C-9.48398 270.722326 -10.569526 274.037819 -11.655853 277.353088 C-12.168831 278.926129 -12.677935 280.500438 -13.18277 282.076111 C-16.554602 292.598368 -19.64734 301.53209 -28.1875 309 C-28.66832 309.422168 -28.66832 309.422168 -31.101562 311.558594 C-34.520673 314.438572 -38.003251 317.226251 -41.511719 319.996094 C-52.860896 329.136012 -52.860896 329.136012 -56.0625 334.375 C-60.058709 339.789218 -67.973589 340.257122 -74.269531 341.28125 C-77.114353 341.709028 -79.962422 342.108916 -82.8125 342.5 C-83.577307 342.606056 -84.342114 342.712111 -85.130096 342.821381 C-139.102595 350.242782 -206.983052 357.060756 -259 337 C-260.003964 336.00398 -261.004538 335.004518 -262 334 C-268.480594 333.87293 -272.389065 336.840135 -277 341 C-281.153166 345.579131 -282.149348 348.755455 -282.1875 354.875 C-282.20168 355.903672 -282.215859 356.932344 -282.230469 357.992188 C-281.988144 361.154737 -281.528049 363.223887 -280 366 C-269.952077 373.887518 -254.74692 373.324923 -242.625 374.0625 C-241.445508 374.140488 -240.266016 374.218477 -239.050781 374.298828 C-235.76999 374.508425 -232.489258 374.70039 -229.206665 374.878571 C-227.718429 374.960466 -226.230389 375.045976 -224.742554 375.134857 C-205.731066 376.253079 -186.701015 376.187451 -167.664062 376.185303 C-163.916617 376.185222 -160.169295 376.192079 -156.421875 376.205811 C-126.88531 376.312305 -97.508924 375.438771 -68.053223 373.200119 C-58.124527 372.549357 -58.124527 372.549357 -54 373 C-52 375 -52 375 -52 376.875 C-53.155013 379.329404 -54.471014 380.79711 -56.769531 382.25 C-61.907702 383.977721 -67.653286 383.263674 -73 383 C-72.939683 385.87714 -72.852544 388.749309 -72.75 391.625 C-72.73582 392.433242 -72.721641 393.241484 -72.707031 394.074219 C-72.452515 400.335325 -70.844017 404.155983 -66.3125 408.6875 C-63.546411 411.453589 -63.777125 415.003431 -63.6875 418.6875 C-63.778661 425.566022 -65.155763 429.815482 -69.730469 434.9375 C-75.430832 440.398925 -81.039954 442.937142 -88.9375 443.0625 C-95.588422 441.825429 -101.939971 437.889419 -106 432.5 C-109.851292 426.253558 -110.768462 420.247186 -110 413 C-108.36303 408.662029 -105.899167 405.575639 -103 402 C-101.844293 398.532879 -101.671647 395.458504 -101.4375 391.8125 C-101.353711 390.540195 -101.269922 389.267891 -101.183594 387.957031 C-101.123008 386.981211 -101.062422 386.005391 -101 385 C-101.96293 385.132773 -102.925859 385.265547 -103.917969 385.402344 C-134.672729 389.373848 -166.061896 388.125031 -197 388 C-196.866937 389.763504 -196.726122 391.526425 -196.582031 393.289062 C-196.504446 394.270845 -196.42686 395.252627 -196.346924 396.26416 C-195.618956 402.004912 -192.537754 405.63677 -189 410 C-186.835604 416.493189 -187.185368 423.078751 -190 429.3125 C-193.767429 435.99836 -199.675088 440.21769 -206.933594 442.589844 C-212.501325 443.69497 -217.301944 442.685358 -222.1875 439.875 C-229.054128 435.08751 -233.497346 429.351291 -235 421 C-235.267816 415.085741 -233.167212 409.925561 -230 405 C-229.485664 404.597812 -228.971328 404.195625 -228.441406 403.78125 C-226.098012 400.885348 -226.154274 397.402694 -225.8125 393.8125 C-225.771572 393.437705 -225.771572 393.437705 -225.564453 391.541016 C-225.364592 389.695241 -225.180735 387.847746 -225 386 C-226.260703 386.023203 -227.521406 386.046406 -228.820312 386.070312 C-271.952852 386.619772 -271.952852 386.619772 -285 376 C-290.037916 370.925665 -293.233503 366.29948 -293.5 358.9375 C-293.272104 349.517796 -288.561001 342.271671 -282.25 335.5625 C-276.69672 330.353155 -270.803072 326 -263 326 C-268.694559 300.34464 -274.408746 274.693684 -280.13623 249.045654 C-281.045905 244.971871 -281.955064 240.897974 -282.86377 236.823975 C-284.210265 230.787375 -285.557961 224.751043 -286.90625 218.714844 C-287.123852 217.740201 -287.341453 216.765558 -287.565649 215.761381 C-289.804259 205.738525 -292.055342 195.718944 -294.360596 185.711182 C-294.545865 184.905938 -294.731134 184.100694 -294.922018 183.271049 C-295.775897 179.562269 -296.633329 175.854381 -297.497803 172.148056 C-299.312699 164.321741 -300.874973 156.488647 -302.1875 148.5625 C-304.449502 135.539617 -308.444487 123.665682 -319.28125 115.222656 C-321.790372 113.621869 -324.31702 112.28721 -327 111 C-327.850781 110.572031 -328.701563 110.144063 -329.578125 109.703125 C-339.478489 105.320997 -350.168146 103.931853 -360.769531 102.113281 C-375.036532 99.633179 -375.036532 99.633179 -379 96 C-377.65912 90.301259 -373.674151 88.00071 -369 85 C-363.828519 82.150621 -358.550002 79.53783 -353.25 76.9375 C-351.727087 76.183604 -350.204303 75.42945 -348.681641 74.675049 C-336.018389 68.421341 -323.243345 62.428682 -310.396484 56.561523 C-306.843413 54.92801 -303.303372 53.26788 -299.765625 51.601562 C-298.588066 51.049602 -297.410508 50.497642 -296.197266 49.928955 C-293.969618 48.88439 -291.744188 47.835074 -289.521484 46.780029 C-286.701151 45.464403 -283.8674 44.209144 -281 43 C-280.329687 42.706094 -279.659375 42.412188 -278.96875 42.109375 C-272.345319 39.785608 -265.944176 42.410769 -259.5 44.375 C-258.255652 44.744236 -257.011304 45.113472 -255.729248 45.493896 C-234.844725 51.904105 -217.293975 61.905946 -206.5 81.625 C-206.161541 82.234082 -205.823081 82.843164 -205.474365 83.470703 C-203.131668 87.987505 -202.40278 91.93168 -202 97 C-201.008711 97.184336 -200.017422 97.368672 -198.996094 97.558594 C-184.704045 100.291428 -170.5499 103.597491 -156.384521 106.913818 C-155.548509 107.10893 -154.712497 107.304042 -153.851151 107.505066 C-152.271952 107.873869 -150.693139 108.24433 -149.114792 108.61676 C-145.091914 109.556294 -141.086594 110.372937 -137 111 C-136.853047 110.345156 -136.706094 109.690313 -136.554688 109.015625 C-133.724683 97.500435 -128.680567 87.990685 -121 79 C-120.405742 78.261367 -119.811484 77.522734 -119.199219 76.761719 C-111.066719 67.012822 -99.030941 57.189546 -86.625 53.6875 C-82.692582 51.856892 -82.549889 51.727141 -81.125 48 C-80.98127 47.605547 -80.98127 47.605547 -80.253906 45.609375 C-77.682726 40.258756 -73.123864 36.19376 -69 32 C-68.5875 31.578477 -68.5875 31.578477 -66.5 29.445312 C-53.84413 17.06629 -19.5184 -6.948411 0 0 Z M-300.549591 57.542725 C-303.722923 59.098222 -306.902102 60.641638 -310.082031 62.183594 C-310.408172 62.341761 -310.408172 62.341761 -312.05864 63.142181 C-320.144155 67.052253 -328.298682 70.812505 -336.460449 74.560303 C-343.713865 77.900391 -350.879271 81.385563 -358 85 C-358.1875 87.875 -358.1875 87.875 -358 91 C-355.230317 92.846456 -354.089799 93.339746 -350.972656 93.894531 C-350.186167 94.042612 -349.399678 94.190693 -348.589355 94.343262 C-347.755493 94.49811 -346.921631 94.652959 -346.0625 94.8125 C-334.433436 97.130418 -324.547608 100.834677 -315 108 C-314.385117 108.438281 -313.770234 108.876563 -313.136719 109.328125 C-304.240881 116.192319 -299.873848 126.769069 -296 137 C-295.679023 137.836602 -295.358047 138.673203 -295.027344 139.535156 C-294.33847 141.35186 -293.666798 143.175078 -293 145 C-287.768983 144.488212 -283.95287 143.260905 -279.308594 140.824219 C-278.999448 140.663718 -278.999448 140.663718 -277.434982 139.851486 C-275.430256 138.807083 -273.433859 137.747796 -271.4375 136.6875 C-270.037947 135.953272 -268.638041 135.219717 -267.237793 134.486816 C-263.149466 132.341446 -259.072584 130.175083 -255 128 C-253.94603 127.437163 -252.892061 126.874326 -251.806152 126.294434 C-245.50803 122.915557 -239.24664 119.472982 -233 116 C-231.896724 115.387534 -230.793447 114.775068 -229.656738 114.144043 C-226.164653 112.204374 -222.675636 110.259263 -219.1875 108.3125 C-218.088091 107.69939 -216.988682 107.086279 -215.855957 106.45459 C-214.845171 105.888208 -213.834385 105.321826 -212.792969 104.738281 C-211.890867 104.233372 -210.988765 103.728462 -210.059326 103.208252 C-208 102 -208 102 -207 101 C-206.029322 90.55929 -212.251808 80.062662 -218.25 71.960938 C-220.396241 69.494251 -222.60718 67.226474 -225 65 C-225.589102 64.430234 -226.178203 63.860469 -226.785156 63.273438 C-233.088788 57.870324 -241.249957 55.580467 -249 53 C-249.719941 52.752983 -250.439883 52.505967 -251.181641 52.251465 C-270.684655 45.626562 -282.327273 48.606693 -300.549591 57.542725 Z M-79 56 C-81.140283 62.420848 -80.43042 68.928084 -78.144531 75.210938 C-76.430864 77.88964 -74.694786 79.300552 -72 81 C-68.40625 81.496094 -68.40625 81.496094 -64.5 81.4375 C-63.210938 81.436211 -61.921875 81.434922 -60.59375 81.433594 C-55.926363 80.870463 -53.449654 79.513515 -50.226562 76.148438 C-47.862689 72.007894 -48.071761 67.581522 -49 63 C-52.200286 58.337514 -56.656832 56.431787 -62 55 C-65.542969 54.769531 -65.542969 54.769531 -69.1875 54.8125 C-70.39793 54.818945 -71.608359 54.825391 -72.855469 54.832031 C-76 55 -76 55 -79 56 Z M-208.881836 109.088379 C-212.739326 112.569724 -217.458772 114.490424 -222.125 116.6875 C-224.267239 117.72715 -226.40783 118.770201 -228.546875 119.816406 C-229.623887 120.342505 -230.700898 120.868604 -231.810547 121.410645 C-239.460955 125.222965 -246.91558 129.40836 -254.388184 133.555176 C-257.009266 135.005126 -259.638255 136.439738 -262.269531 137.871094 C-263.908992 138.767977 -265.548322 139.665101 -267.1875 140.5625 C-267.936284 140.968071 -268.685068 141.373643 -269.456543 141.791504 C-270.145063 142.170972 -270.833584 142.550439 -271.542969 142.941406 C-271.842152 143.104835 -271.842152 143.104835 -273.356201 143.931885 C-275.254986 145.165686 -276.619984 146.190156 -278 148 C-278.051312 149.665877 -278.055817 151.334268 -278 153 C-267.607353 155.853201 -257.18147 158.404312 -246.664062 160.75 C-245.131123 161.093374 -243.598195 161.4368 -242.065277 161.780273 C-238.870686 162.495133 -235.675514 163.207334 -232.47998 163.917969 C-229.260111 164.63443 -226.041418 165.355837 -222.82373 166.082031 C-192.18407 172.994866 -192.18407 172.994866 -176.964844 175.484375 C-176.014331 175.642446 -175.063819 175.800518 -174.084503 175.963379 C-164.412361 177.448452 -154.756388 177.369327 -145 177 C-144.919595 175.957712 -144.839189 174.915425 -144.756348 173.841553 C-144.451112 169.899325 -144.140367 165.957547 -143.828125 162.015869 C-143.694833 160.323926 -143.56295 158.631871 -143.432617 156.939697 C-142.689065 147.299258 -141.746301 137.762793 -140.388184 128.187744 C-139.927318 124.403141 -139.844715 120.804475 -140 117 C-151.113515 113.664342 -162.355657 110.873614 -173.652435 108.237061 C-175.206086 107.873354 -176.758863 107.505895 -178.310699 107.134521 C-201.389288 101.62769 -201.389288 101.62769 -208.881836 109.088379 Z M-134 119 C-139.176945 136.514933 -143.38908 159.816669 -139 178 C-135.13968 180.573546 -131.594761 180.628254 -127.09375 181 C-126.644038 181.040334 -126.644038 181.040334 -124.368225 181.244446 C-121.412908 181.506077 -118.456653 181.753958 -115.5 182 C-114.487482 182.086488 -113.474963 182.172976 -112.431763 182.262085 C-93.641823 183.866637 -74.849015 185.329528 -56 186 C-55.259091 186.026406 -54.518182 186.052811 -53.754822 186.080017 C-49.204777 186.234233 -44.656153 186.345052 -40.103882 186.405396 C-38.686015 186.426407 -37.268237 186.455156 -35.850708 186.492554 C-16.315389 186.970291 -5.067237 175.302599 8.330078 162.599609 C11.121266 159.925945 13.883119 157.224169 16.625 154.5 C16.873386 154.25395 16.873386 154.25395 18.130371 153.008789 C24.94166 146.166808 24.94166 146.166808 25.1875 141.25 C25.125625 140.1775 25.06375 139.105 25 138 C22.454053 136.727026 20.363388 136.672672 17.520264 136.430908 C16.941452 136.380446 16.941452 136.380446 14.012314 136.125076 C13.377997 136.071568 13.377997 136.071568 10.167969 135.800781 C8.147849 135.624878 6.12789 135.447197 4.107926 135.269511 C1.95244 135.080062 -0.203162 134.891969 -2.358765 134.703857 C-39.210388 131.475867 -75.806347 127.203531 -112.260742 120.828125 C-119.5922 119.564611 -126.549278 118.692904 -134 119 Z M-290 156 C-290.326837 163.647772 -289.103067 170.494811 -287.476562 177.953125 C-287.208327 179.214654 -286.940091 180.476183 -286.663727 181.77594 C-283.70453 195.640596 -280.546364 209.462415 -277.393402 223.283997 C-272.926472 242.866766 -268.478971 262.450497 -264.394531 282.117188 C-264.255368 282.786095 -264.116205 283.455003 -263.972824 284.14418 C-262.535219 291.058047 -261.115737 297.975362 -259.718262 304.897461 C-259.264102 307.111349 -258.809843 309.325218 -258.355469 311.539062 C-258.159274 312.534612 -257.96308 313.530161 -257.760941 314.555878 C-255.879444 323.658624 -255.879444 323.658624 -253 327 C-250.602783 328.072021 -250.602783 328.072021 -247.738281 328.683594 C-246.665298 328.912886 -245.592314 329.142178 -244.486816 329.378418 C-238.407273 330.462196 -232.316558 331.312418 -226.1875 332.0625 C-224.815185 332.234124 -223.44287 332.405755 -222.070557 332.577393 C-206.645073 334.482583 -191.212232 335.866596 -175.6875 336.625 C-174.877244 336.665203 -174.066987 336.705405 -173.232178 336.746826 C-158.481359 337.372194 -143.736467 337.033483 -129 336.25 C-128.194719 336.207763 -127.389437 336.165526 -126.559753 336.122009 C-114.540436 335.474632 -102.583109 334.497943 -90.625 333.125 C-89.945825 333.049952 -89.26665 332.974905 -88.566895 332.897583 C-78.426341 331.758411 -68.835442 329.628861 -59 327 C-55.741029 315.106869 -52.827624 303.143948 -49.972656 291.148438 C-49.497276 289.157481 -49.021722 287.166566 -48.546005 285.17569 C-47.301732 279.966337 -46.059818 274.756425 -44.81842 269.546387 C-43.568557 264.302712 -42.316394 259.059586 -41.064453 253.816406 C-39.64841 247.884858 -38.232648 241.953244 -36.81813 236.021332 C-36.602653 235.117999 -36.387175 234.214667 -36.165168 233.28396 C-35.741629 231.506149 -35.318977 229.728126 -34.897264 227.949881 C-33.807608 223.359389 -32.700353 218.774095 -31.567108 214.194153 C-31.450735 213.718954 -31.450735 213.718954 -30.861815 211.314157 C-30.418507 209.50537 -29.969928 207.697864 -29.515084 205.891943 C-28.448866 201.516776 -27.634413 197.542149 -28 193 C-32.27149 188.72851 -46.431929 190.675364 -52.543457 190.405273 C-127.893342 187.057422 -203.681188 176.481835 -276.774902 157.675293 C-281.295547 156.530524 -285.290206 155.696393 -290 156 Z M12 164 C12 164.66 12 165.32 12 166 C11.428945 166.2475 10.857891 166.495 10.269531 166.75 C7.64476 168.195657 5.841438 169.916744 3.6875 172 C-1.137547 176.451124 -6.285896 180.032904 -11.821533 183.548828 C-12.434724 183.941348 -13.047915 184.333867 -13.679688 184.738281 C-14.223511 185.078997 -14.767334 185.419712 -15.327637 185.770752 C-25.14097 192.98391 -26.362219 206.770661 -29.082031 217.953125 C-29.462663 219.499927 -29.843752 221.046616 -30.225266 222.593201 C-31.023166 225.833196 -31.817017 229.074146 -32.607666 232.315918 C-33.5965 236.369828 -34.593043 240.421789 -35.592318 244.473137 C-38.099046 254.639791 -40.570089 264.814707 -43 275 C-43.1796 275.752802 -43.3592 276.505605 -43.544243 277.281219 C-44.579871 281.632402 -45.602598 285.986322 -46.607977 290.344597 C-47.059575 292.296093 -47.519014 294.24577 -47.978714 296.195374 C-51.397644 311.204711 -51.397644 311.204711 -49 316 C-45.501803 316.460123 -44.26971 316.200367 -41.386719 314.058594 C-40.941348 313.626113 -40.941348 313.626113 -38.6875 311.4375 C-34.858339 307.754692 -30.981896 304.282093 -26.753906 301.058594 C-21.894734 295.355289 -19.915072 287.120327 -17.671875 280.089844 C-17.365738 279.144946 -17.059601 278.200048 -16.744186 277.226517 C-16.08537 275.191836 -15.428668 273.156469 -14.773895 271.120483 C-13.012024 265.643353 -11.233687 260.171567 -9.457031 254.699219 C-9.091144 253.570977 -8.725257 252.442735 -8.348282 251.280304 C-4.441707 239.248948 -0.446976 227.247386 3.5625 215.25 C3.887303 214.277634 4.212107 213.305268 4.546753 212.303436 C5.181514 210.40329 5.816529 208.503228 6.451813 206.603256 C7.063339 204.772733 7.673697 202.941818 8.282806 201.110489 C9.831449 196.46048 11.405331 191.821225 13.019043 187.193359 C13.345332 186.24612 13.671621 185.298881 14.007797 184.322937 C14.626394 182.528602 15.253173 180.737058 15.889786 178.949036 C17.55294 174.092948 18.437044 170.139609 18 165 C17 164 17 164 14.4375 163.9375 C13.633125 163.958125 12.82875 163.97875 12 164 Z M-94 384 C-94 387.96 -94 391.92 -94 396 C-89.05 396 -84.1 396 -79 396 C-79 392.04 -79 388.08 -79 384 C-83.95 384 -88.9 384 -94 384 Z M-219 387 C-219 389.97 -219 392.94 -219 396 C-213.72 396 -208.44 396 -203 396 C-203 393.03 -203 390.06 -203 387 C-208.28 387 -213.56 387 -219 387 Z M-224 406 C-224.598125 406.515625 -225.19625 407.03125 -225.8125 407.5625 C-229.260601 411.736517 -228.605531 418.092986 -228.492188 423.238281 C-227.853471 428.1199 -226.224237 430.354737 -222.726562 433.679688 C-217.419881 437.737738 -209.350293 436.672088 -203 436 C-198.517706 433.88623 -195.774926 430.598671 -194 426 C-193.365751 419.87876 -193.083987 414.043413 -195.625 408.375 C-196.40875 407.59125 -197.1925 406.8075 -198 406 C-198.78375 405.21625 -199.5675 404.4325 -200.375 403.625 C-208.027153 400.194724 -217.707013 400.047174 -224 406 Z M-100 406 C-100.598125 406.515625 -101.19625 407.03125 -101.8125 407.5625 C-105.712711 412.283808 -104.472317 420.299393 -104 426 C-101.885392 430.542491 -99.148479 433.236247 -95 436 C-92.211426 436.478965 -89.967332 436.714151 -87.1875 436.6875 C-86.478435 436.68605 -85.76937 436.6846 -85.038818 436.683105 C-79.263634 436.450851 -76.167099 434.872989 -72.285156 430.726562 C-69.637815 427.169952 -69.782661 423.970221 -69.75 419.6875 C-69.737109 419.029434 -69.737109 419.029434 -69.671875 415.699219 C-70.12952 410.53982 -71.725977 408.118654 -75.5625 404.75 C-82.560704 399.725648 -93.689169 400.030295 -100 406 Z " fill="#111111" transform="translate(428,35)"/><path d="M0 0 C1.32 0.66 2.64 1.32 4 2 C4.090544 7.704262 3.77033 13.210236 3.125 18.875 C3.080608 19.279967 3.080608 19.279967 2.855957 21.329346 C2.57469 23.886698 2.28745 26.443336 2 29 C1.806894 30.74605 1.614182 32.492143 1.421875 34.238281 C0.952461 38.492704 0.477693 42.746499 0 47 C4.187428 47.313475 8.374955 47.625591 12.5625 47.9375 C13.143545 47.981006 13.143545 47.981006 16.083984 48.201172 C19.722351 48.471794 23.361099 48.736666 27 49 C27.600018 49.044513 27.600018 49.044513 30.636475 49.269775 C40.23442 49.952474 49.82124 50.301854 59.4375 50.5625 C60.958992 50.60586 62.480476 50.649478 64.001953 50.693359 C67.667889 50.79854 71.333911 50.900275 75 51 C75.037584 50.713345 75.037584 50.713345 75.227783 49.262695 C78.971831 21.042254 78.971831 21.042254 83 15 C83.66 15.33 83.66 15.33 87 17 C86.514496 28.506456 84.167173 39.716846 82 51 C88.063249 50.403204 94.125583 49.797671 100.1875 49.1875 C101.078041 49.098293 101.968582 49.009086 102.886108 48.917175 C114.051964 47.79361 125.185659 46.623152 136.246826 44.688232 C141.689854 43.793236 141.689854 43.793236 145 46 C144.67 47.32 144.34 48.64 144 50 C135.069187 52.475931 126.189987 53.982026 117 55.125 C116.328227 55.210602 115.656454 55.296204 114.964325 55.384399 C103.661472 56.819586 92.393079 57.729059 81 58 C81.011602 58.960352 81.023203 59.920703 81.035156 60.910156 C81.133439 73.295268 80.616514 85.632012 80 98 C80.847075 97.878828 81.69415 97.757656 82.566895 97.632812 C85.730985 97.182223 88.895577 96.735381 92.060547 96.291016 C93.426317 96.09849 94.791882 95.904502 96.157227 95.708984 C98.127699 95.427077 100.099001 95.150984 102.070312 94.875 C103.253833 94.707422 104.437354 94.539844 105.656738 94.367188 C114.151348 93.434232 114.151348 93.434232 118 96 C117.67 96.99 117.34 97.98 117 99 C105.76066 104.403529 93.204666 104.303851 81 104 C81.165 105.134375 81.33 106.26875 81.5 107.4375 C82.075761 111.970603 82.095053 116.437472 82 121 C81.34 121.33 81.34 121.33 78 123 C74.605556 117.539373 74.372152 112.324628 74 106 C72.87207 106.010876 71.744141 106.021753 70.582031 106.032959 C59.247774 106.107418 47.971998 105.789907 36.653809 105.200439 C33.973877 105.061142 31.293648 104.929465 28.613281 104.798828 C20.057486 104.373109 11.52125 103.907582 3 103 C3.0825 103.4125 3.0825 103.4125 3.5 105.5 C4.05896 109.412723 4.068072 113.051832 4 117 C3.175 117.165 3.175 117.165 -1 118 C-1.504048 115.896799 -2.003105 113.792402 -2.5 111.6875 C-2.778437 110.515742 -3.056875 109.343984 -3.34375 108.136719 C-4 105 -4 105 -4 102 C-5.090547 101.780859 -6.181094 101.561719 -7.304688 101.335938 C-15.653171 99.602388 -23.832339 97.599318 -31.9375 94.9375 C-32.699819 94.692417 -33.462139 94.447334 -34.247559 94.194824 C-37.909211 92.95436 -40.410926 91.859729 -43 89 C-42.67 88.01 -42.34 87.02 -42 86 C-36.285725 86.570786 -31.149784 87.697887 -25.6875 89.4375 C-19.192472 91.504379 -12.72585 92.887753 -6 94 C-6.030293 93.336938 -6.060586 92.673877 -6.091797 91.990723 C-6.705868 78.318185 -7.157319 64.686717 -7 51 C-7.719055 50.966243 -8.43811 50.932485 -9.178955 50.897705 C-17.026381 50.403563 -24.154934 48.890464 -31.6875 46.6875 C-32.750332 46.39166 -33.813164 46.09582 -34.908203 45.791016 C-51.993018 40.911146 -51.993018 40.911146 -56 36 C-55.6875 33.8125 -55.6875 33.8125 -55 32 C-48.972153 32.68568 -43.502018 34.818829 -37.8125 36.8125 C-27.325483 40.413193 -16.904977 43.045334 -6 45 C-6.017402 44.472129 -6.017402 44.472129 -6.105469 41.800781 C-6.30151 33.006089 -5.904016 24.468753 -4.6875 15.75 C-4.628646 15.309987 -4.628646 15.309987 -4.330811 13.083252 C-3.596696 8.203718 -2.523433 4.325885 0 0 Z M0 53 C-0.049533 58.320217 -0.085783 63.6403 -0.109863 68.960693 C-0.119905 70.769636 -0.133541 72.578563 -0.150879 74.387451 C-0.175208 76.991414 -0.186502 79.595162 -0.195312 82.199219 C-0.205635 83.004616 -0.215958 83.810013 -0.226593 84.639816 C-0.227424 88.822569 -0.134788 92.267074 2 96 C4.546875 96.890625 4.546875 96.890625 7.75 97.25 C8.263047 97.314453 8.263047 97.314453 10.859375 97.640625 C12.239192 97.764848 13.619473 97.883933 15 98 C15.90895 98.087576 16.8179 98.175151 17.754395 98.265381 C29.285533 99.253988 40.811093 99.110881 52.375 99.0625 C54.479166 99.057473 56.583332 99.052912 58.6875 99.048828 C63.79172 99.03878 68.895774 99.019189 74 99 C74 85.47 74 71.94 74 58 C70.899805 57.806641 67.799609 57.613281 64.605469 57.414062 C61.533711 57.219699 58.462044 57.023973 55.390381 56.828125 C53.289233 56.694871 51.187998 56.562989 49.08667 56.432617 C37.800869 55.731468 26.545189 54.984563 15.315964 53.628571 C10.179562 53.030371 5.172281 52.926761 0 53 Z " fill="#111111" transform="translate(225,221)"/></svg>