<svg xmlns="http://www.w3.org/2000/svg" viewBox="0 0 512 512" width="512" height="512"><path d="M0 0 C1.98 0 3.96 0 6 0 C6 0.99 6 1.98 6 3 C6.86625 3.0825 7.7325 3.165 8.625 3.25 C14.835452 4.6301 18.354898 8.005889 21.921875 13.023438 C24.578356 17.893653 25.253352 22.392964 25.274658 27.888184 C25.277214 28.218695 25.277214 28.218695 25.290146 29.891281 C25.303962 32.060427 25.303091 34.229253 25.300781 36.398438 C25.304673 37.917695 25.309009 39.436952 25.313766 40.956207 C25.321212 44.135229 25.32095 47.314139 25.315674 50.493164 C25.309885 54.550411 25.326804 58.607202 25.350019 62.664373 C25.364811 65.800961 25.36562 68.937439 25.362509 72.074055 C25.363019 73.569056 25.368207 75.064065 25.378321 76.559032 C25.488161 95.06668 25.488161 95.06668 18.644531 102.613281 C14.229656 106.336039 9.154562 108.615257 3.5 109.625 C-2.698953 108.518044 -8.686212 105.902883 -12.9375 101.125 C-16.022838 96.450246 -18 92.741939 -18 87 C-22.667926 88.24345 -25.038321 89.614537 -28.125 93.3125 C-28.513008 93.763672 -28.513008 93.763672 -30.476562 96.046875 C-31.309297 97.021406 -32.142031 97.995937 -33 99 C-39.717527 106.49034 -46.648345 113.74776 -53.75 120.875 C-54.446738 121.576331 -55.143477 122.277661 -55.861328 123.000244 C-59.828939 126.956102 -63.8999 130.728853 -68.142578 134.387695 C-70.779332 136.676486 -73.32092 139.056757 -75.875 141.4375 C-81.058719 146.221468 -86.437574 150.660349 -92 155 C-93.199101 155.96598 -94.396933 156.933536 -95.59375 157.902344 C-96.854044 158.914216 -98.11446 159.925935 -99.375 160.9375 C-99.970386 161.422832 -100.565771 161.908164 -101.179199 162.408203 C-106.385653 166.554439 -106.385653 166.554439 -110 167 C-112.25 165.0625 -112.25 165.0625 -114 163 C-112.61332 158.281907 -109.970826 155.858325 -106.25 152.875 C-105.964352 152.639222 -105.964352 152.639222 -104.518799 151.446045 C-99.719814 147.509403 -94.802034 143.724546 -89.89502 139.924316 C-85.903113 136.799776 -82.283063 133.481522 -78.773438 129.816406 C-77.003569 128.003655 -75.167329 126.342663 -73.25 124.6875 C-58.278772 111.753777 -58.278772 111.753777 -52.03125 104.28125 C-49.203285 101.105228 -46.158068 98.166377 -43.125 95.1875 C-38.166606 90.296567 -33.629368 85.27555 -29.292969 79.816406 C-26.520187 76.410655 -23.635456 73.129348 -20.6875 69.875 C-20.183315 69.305798 -19.679131 68.736597 -19.159668 68.150146 C-14.720365 63.300457 -14.720365 63.300457 -11 63 C-8.364833 65.303799 -7.115503 67.232842 -6.592285 70.708008 C-6.417016 74.017044 -6.340676 77.311454 -6.3125 80.625 C-6.270449 82.888089 -6.225034 85.151119 -6.175781 87.414062 C-6.164583 88.413892 -6.153384 89.413721 -6.141846 90.443848 C-6 93 -6 93 -5 96 C-1.914939 97.028354 0.269427 97.133684 3.5 97.125 C4.459063 97.127578 5.418125 97.130156 6.40625 97.132812 C9 97 9 97 12 96 C13.446108 92.528995 13.140985 88.719335 13.161133 85.015869 C13.166098 84.321059 13.171063 83.62625 13.176178 82.910385 C13.190748 80.618632 13.197592 78.326948 13.203125 76.035156 C13.20888 74.438594 13.214637 72.842031 13.220398 71.245468 C13.230893 67.900703 13.236746 64.555961 13.240234 61.211182 C13.245724 56.929419 13.269767 52.647974 13.298206 48.366311 C13.316844 45.069444 13.322039 41.772652 13.32357 38.475737 C13.326593 36.897305 13.334611 35.318875 13.347755 33.740496 C13.364845 31.531261 13.362929 29.3228 13.356445 27.113525 C13.360091 25.857621 13.363737 24.601717 13.367493 23.307755 C12.970156 19.731377 12.156573 17.849787 10 15 C2.606733 11.303367 -9.623035 14.60156 -17.460938 15.574219 C-18.128628 15.656238 -18.796318 15.738258 -19.484241 15.822763 C-23.00528 16.255448 -26.525236 16.695914 -30.044434 17.143311 C-33.663385 17.601891 -37.285003 18.033923 -40.907888 18.460132 C-43.713374 18.794938 -46.516201 19.148924 -49.318653 19.508158 C-51.298366 19.756996 -53.280589 19.985594 -55.262787 20.213791 C-65.220184 21.533743 -65.220184 21.533743 -68.319092 24.479248 C-70.211848 27.317695 -70.597699 28.74531 -70.4375 32.125 C-70.415586 32.973203 -70.393672 33.821406 -70.371094 34.695312 C-70 37 -70 37 -68 40 C-61.879666 42.040111 -55.317919 41.207877 -49.003906 40.375 C-48.119529 40.263899 -47.235151 40.152798 -46.323975 40.03833 C-44.544157 39.806978 -42.76722 39.552086 -40.994385 39.272217 C-38.568248 38.960981 -36.433494 38.740435 -34 39 C-30.898438 41.457031 -30.898438 41.457031 -29 44 C-31.317907 48.164506 -34.147228 51.719232 -37.25 55.3125 C-37.743066 55.88863 -38.236133 56.464761 -38.744141 57.05835 C-40.158955 58.708889 -41.578802 60.354958 -43 62 C-43.311953 62.363516 -43.311953 62.363516 -44.890625 64.203125 C-54.105658 74.84962 -63.811195 84.974947 -73.780518 94.910889 C-75.699255 96.824222 -77.612528 98.742905 -79.525391 100.662109 C-85.513739 106.653996 -91.510138 112.546247 -98 118 C-99.083799 118.948505 -100.165871 119.898986 -101.246094 120.851562 C-109.525928 128.072917 -118.107277 134.815467 -126.891602 141.410645 C-128.903378 142.927164 -130.902485 144.458835 -132.898438 145.996094 C-149.158296 158.457441 -166.365253 169.591144 -184 180 C-184.798091 180.471152 -185.596182 180.942305 -186.418457 181.427734 C-259.228374 224.174846 -341.850874 252.360974 -436.047119 261.643066 C-439.858886 262.103819 -443.806303 262.589267 -446.375 265.625 C-447.502831 269.910757 -447.546688 274.111442 -446.3125 278.375 C-444.485134 280.637453 -442.752925 281.106291 -440 282 C-435.844752 282.219368 -431.708924 281.810332 -427.5625 281.5 C-426.294788 281.406704 -425.027075 281.313408 -423.720947 281.217285 C-342.254851 274.725325 -259.897065 247.010655 -143.457031 180.558594 C-141 179 -141 179 -138.75 179.125 C-137 180 -137 180 -135 182 C-135.170485 185.007951 -135.565814 186.536963 -137.642334 188.751465 C-143.932788 193.352507 -150.410171 197.565443 -157.0625 201.625 C-157.621923 201.968052 -158.181346 202.311104 -158.757721 202.664551 C-169.618878 209.31564 -180.721748 215.476102 -191.992432 221.407471 C-194.164838 222.557776 -196.329809 223.722162 -198.48999 224.895264 C-207.401567 229.730768 -216.44612 234.144276 -225.6875 238.3125 C-226.398206 238.63393 -227.108913 238.955359 -227.841156 239.28653 C-290.551032 267.581483 -364.158311 291.912919 -433.625 293.375 C-434.347842 293.401184 -435.070684 293.427368 -435.81543 293.454346 C-442.157895 293.474267 -447.103112 291.390359 -451.988281 287.359375 C-456.475112 281.906353 -459 277.163117 -459 270 C-457.630335 262.64706 -453.200846 257.699789 -447.453125 253.226562 C-440.044576 249.522288 -431.29087 249.46773 -423.1875 248.75 C-336.479607 240.290013 -250.568137 209.787462 -156 150 C-155.391885 149.579443 -154.78377 149.158887 -154.157227 148.725586 C-135.115954 135.489963 -116.576849 121.1788 -99.589844 105.378906 C-98.202331 104.104404 -96.807894 102.83633 -95.373779 101.614502 C-89.16448 96.319984 -83.428109 90.579673 -77.672607 84.802979 C-75.941053 83.066064 -74.204216 81.334561 -72.466797 79.603516 C-66.7652 73.905236 -61.19694 68.169609 -56 62 C-55.21625 61.113125 -54.4325 60.22625 -53.625 59.3125 C-51.873922 56.820582 -51.343137 55.002447 -51 52 C-51.66 52.165 -52.32 52.33 -53 52.5 C-61.444525 53.907421 -66.815642 52.706993 -74 48 C-78.922233 43.734064 -81.537739 38.062482 -82.5 31.6875 C-81.550552 24.685319 -78.667219 18.899866 -73.0625 14.5 C-66.375143 9.776282 -58.564811 9.257034 -50.664062 8.273438 C-49.470743 8.120895 -48.277424 7.968353 -47.047943 7.811188 C-44.52843 7.490637 -42.008531 7.173108 -39.488281 6.858398 C-35.644727 6.377468 -31.802814 5.884763 -27.960938 5.390625 C-25.507902 5.080022 -23.05478 4.770104 -20.601562 4.460938 C-19.458617 4.314095 -18.315672 4.167253 -17.138092 4.015961 C-11.374333 3.303255 -5.80754 2.834928 0 3 C0 2.01 0 1.02 0 0 Z " fill="#111111" transform="translate(469,0)"/><path d="M0 0 C0.743578 -0.003359 1.487155 -0.006717 2.253265 -0.010178 C4.707353 -0.019664 7.161373 -0.021629 9.615479 -0.022705 C11.324143 -0.025919 13.032807 -0.029283 14.74147 -0.032791 C18.321631 -0.038776 21.901768 -0.040632 25.481934 -0.040039 C30.066292 -0.039937 34.650495 -0.053596 39.234817 -0.070811 C42.763298 -0.081936 46.291741 -0.083958 49.820238 -0.083429 C51.510301 -0.084608 53.200364 -0.089026 54.890409 -0.096762 C57.255175 -0.106573 59.619604 -0.103679 61.984375 -0.097656 C62.680121 -0.103276 63.375868 -0.108895 64.092697 -0.114685 C67.999282 -0.089436 71.13755 0.182993 74.556885 2.145264 C76.531941 5.241823 76.806023 7.673843 76.80298 11.307049 C76.806963 12.356548 76.810945 13.406048 76.815047 14.48735 C76.809222 15.639092 76.803396 16.790835 76.797394 17.977478 C76.798248 18.589678 76.798248 18.589678 76.802572 21.687781 C76.8053 25.0879 76.799038 28.487789 76.789016 31.88788 C76.780388 35.553829 76.783301 39.219771 76.784821 42.885727 C76.78587 49.237757 76.779589 55.589745 76.768345 61.941765 C76.752099 71.125741 76.746883 80.309697 76.744369 89.493686 C76.73999 104.39367 76.726677 119.293632 76.707764 134.193604 C76.689409 148.668537 76.67525 163.143465 76.666748 177.618408 C76.666223 178.510469 76.665697 179.40253 76.665156 180.321623 C76.662546 184.796777 76.660018 189.271932 76.657532 193.747087 C76.636795 230.879828 76.601565 268.012544 76.556885 305.145264 C77.186934 305.138602 77.816984 305.13194 78.466125 305.125076 C85.019601 305.058741 91.572982 305.013471 98.126709 304.980469 C100.573037 304.965376 103.019339 304.9449 105.465576 304.918945 C108.980455 304.882584 112.494977 304.865542 116.01001 304.852295 C117.104927 304.836811 118.199845 304.821327 119.327942 304.805374 C120.348698 304.805148 121.369454 304.804921 122.421143 304.804688 C122.869706 304.801357 122.869706 304.801357 125.139709 304.7845 C128.051502 305.219085 129.442337 306.125552 131.556885 308.145264 C131.556885 308.805264 131.556885 309.465264 131.556885 310.145264 C132.546885 310.475264 133.536885 310.805264 134.556885 311.145264 C133.566885 311.145264 132.576885 311.145264 131.556885 311.145264 C130.896885 312.465264 130.236885 313.785264 129.556885 315.145264 C128.896885 315.145264 128.236885 315.145264 127.556885 315.145264 C127.556885 316.135264 127.556885 317.125264 127.556885 318.145264 C-36.783115 318.145264 -201.123115 318.145264 -370.443115 318.145264 C-370.443115 317.155264 -370.443115 316.165264 -370.443115 315.145264 C-371.763115 314.485264 -373.083115 313.825264 -374.443115 313.145264 C-374.443115 312.485264 -374.443115 311.825264 -374.443115 311.145264 C-375.433115 310.815264 -376.423115 310.485264 -377.443115 310.145264 C-376.453115 310.145264 -375.463115 310.145264 -374.443115 310.145264 C-374.154365 309.505889 -373.865615 308.866514 -373.568115 308.207764 C-372.443115 306.145264 -372.443115 306.145264 -370.443115 305.145264 C-368.808939 305.05498 -367.171087 305.027707 -365.534424 305.031738 C-364.513517 305.031814 -363.492609 305.031889 -362.440765 305.031967 C-361.888145 305.034548 -361.888145 305.034548 -359.091553 305.047607 C-358.526969 305.048315 -358.526969 305.048315 -355.66983 305.051895 C-352.052565 305.057506 -348.435362 305.070061 -344.818115 305.082764 C-342.370199 305.087777 -339.922283 305.09234 -337.474365 305.096436 C-331.463928 305.107479 -325.453526 305.124228 -319.443115 305.145264 C-319.446802 304.268584 -319.45049 303.391905 -319.454288 302.48866 C-319.542595 281.164954 -319.608803 259.84128 -319.650364 238.51743 C-319.670996 228.205401 -319.699129 217.893494 -319.744873 207.581543 C-319.784721 198.594475 -319.810543 189.607495 -319.819469 180.620341 C-319.824687 175.860922 -319.836966 171.101755 -319.866035 166.342417 C-319.893172 161.863333 -319.901564 157.384607 -319.895546 152.905449 C-319.896647 151.261108 -319.904612 149.616756 -319.919937 147.972486 C-319.939838 145.727338 -319.935055 143.483537 -319.924133 141.238358 C-319.92782 139.981954 -319.931508 138.72555 -319.935307 137.431073 C-319.349587 133.520877 -318.284413 131.858023 -315.443115 129.145264 C-312.576005 128.64567 -310.299033 128.469807 -307.43335 128.51416 C-306.629644 128.507005 -305.825939 128.49985 -304.997879 128.492477 C-302.343628 128.475581 -299.691064 128.494997 -297.036865 128.516357 C-295.191283 128.515529 -293.3457 128.51307 -291.500122 128.509048 C-287.633075 128.50619 -283.766606 128.520898 -279.899658 128.54834 C-274.942764 128.582423 -269.986905 128.576405 -265.029961 128.557677 C-261.219212 128.547109 -257.408703 128.556044 -253.597977 128.571062 C-251.770337 128.576245 -249.942672 128.57576 -248.115036 128.569517 C-245.560434 128.564067 -243.007314 128.584433 -240.452881 128.611816 C-239.697435 128.605291 -238.941989 128.598765 -238.163651 128.592041 C-234.950325 128.650612 -232.881739 128.826775 -230.24786 130.739255 C-227.799846 134.002843 -227.950261 136.096141 -227.962097 140.156067 C-227.958679 140.861856 -227.955262 141.567644 -227.951741 142.294821 C-227.945152 144.659769 -227.967152 147.023583 -227.989014 149.388428 C-227.990142 151.083577 -227.989509 152.778729 -227.987244 154.473877 C-227.986095 159.07697 -228.009632 163.679647 -228.037539 168.282643 C-228.062524 173.092603 -228.064893 177.902571 -228.069641 182.712585 C-228.082079 191.821531 -228.114913 200.930285 -228.155039 210.039146 C-228.19973 220.409027 -228.221737 230.778916 -228.241821 241.148869 C-228.283645 262.481131 -228.357008 283.813131 -228.443115 305.145264 C-208.313115 305.145264 -188.183115 305.145264 -167.443115 305.145264 C-167.453589 298.840217 -167.464063 292.535171 -167.474854 286.039062 C-167.507943 265.24394 -167.530166 244.448817 -167.54674 223.653676 C-167.557058 211.041402 -167.571129 198.429153 -167.593994 185.816895 C-167.61391 174.825794 -167.626827 163.834712 -167.631292 152.843594 C-167.633903 147.022327 -167.64005 141.201112 -167.654575 135.379862 C-167.668131 129.90279 -167.672342 124.425791 -167.669331 118.948704 C-167.669882 116.936716 -167.673871 114.924726 -167.681526 112.912752 C-167.691456 110.168739 -167.689091 107.425003 -167.683624 104.680984 C-167.68945 103.882341 -167.695276 103.083697 -167.701278 102.260851 C-167.67245 96.918344 -167.301062 93.003211 -163.443115 89.145264 C-160.778997 88.941548 -158.218393 88.862068 -155.552734 88.870605 C-155.145348 88.86805 -155.145348 88.86805 -153.083725 88.855118 C-150.381833 88.841182 -147.680195 88.842182 -144.978271 88.844482 C-143.105015 88.840598 -141.23176 88.836263 -139.358505 88.831497 C-135.428428 88.824026 -131.49844 88.824333 -127.568359 88.82959 C-122.526299 88.835385 -117.484605 88.818457 -112.442605 88.795245 C-108.572768 88.780529 -104.703019 88.779633 -100.833158 88.782755 C-98.973976 88.782241 -97.114788 88.776982 -95.255632 88.766943 C-92.657808 88.754638 -90.060704 88.761334 -87.462891 88.772949 C-86.691357 88.765305 -85.919822 88.757662 -85.124908 88.749786 C-79.967488 88.80088 -79.967488 88.80088 -77.504379 90.418533 C-74.84875 94.739377 -75.305025 99.652816 -75.322861 104.56073 C-75.322434 104.98917 -75.322434 104.98917 -75.320272 107.157336 C-75.318622 110.033216 -75.324129 112.909038 -75.32959 115.784912 C-75.329872 117.844589 -75.329714 119.904266 -75.329147 121.963943 C-75.32886 127.560644 -75.334748 133.157324 -75.341721 138.75402 C-75.347964 144.601006 -75.348559 150.447993 -75.349747 156.294983 C-75.352857 167.369427 -75.361067 178.443862 -75.371096 189.518302 C-75.382266 202.125167 -75.38777 214.732032 -75.392792 227.338901 C-75.40325 253.274362 -75.421592 279.209809 -75.443115 305.145264 C-55.313115 305.145264 -35.183115 305.145264 -14.443115 305.145264 C-14.458826 296.07832 -14.474536 287.011377 -14.490723 277.669678 C-14.538845 248.678076 -14.572231 219.686475 -14.596311 190.694844 C-14.600063 186.193617 -14.603946 181.692389 -14.60791 177.191162 C-14.608697 176.295027 -14.609484 175.398892 -14.610295 174.475601 C-14.623358 159.954466 -14.647017 145.433366 -14.674574 130.912252 C-14.702602 116.018672 -14.719286 101.12511 -14.725381 86.231504 C-14.729503 77.037058 -14.742534 67.842712 -14.766865 58.648297 C-14.78269 52.348298 -14.787523 46.04835 -14.783619 39.748332 C-14.781693 36.110389 -14.784702 32.472621 -14.800732 28.834709 C-14.817966 24.894888 -14.812099 20.955297 -14.803879 17.015442 C-14.812617 15.859809 -14.821356 14.704176 -14.830359 13.513523 C-14.824386 12.46054 -14.818413 11.407558 -14.812259 10.322666 C-14.812828 9.867761 -14.812828 9.867761 -14.815711 7.565666 C-14.368573 4.661031 -13.416107 3.290266 -11.443115 1.145264 C-7.872186 -0.390919 -3.832111 -0.002489 0 0 Z M-3.443115 11.145264 C-3.443115 108.165264 -3.443115 205.185264 -3.443115 305.145264 C19.326885 305.145264 42.096885 305.145264 65.556885 305.145264 C65.556885 208.125264 65.556885 111.105264 65.556885 11.145264 C42.786885 11.145264 20.016885 11.145264 -3.443115 11.145264 Z M-156.443115 100.145264 C-156.443115 167.795264 -156.443115 235.445264 -156.443115 305.145264 C-133.343115 305.145264 -110.243115 305.145264 -86.443115 305.145264 C-86.443115 237.495264 -86.443115 169.845264 -86.443115 100.145264 C-109.543115 100.145264 -132.643115 100.145264 -156.443115 100.145264 Z M-308.443115 140.145264 C-308.443115 194.595264 -308.443115 249.045264 -308.443115 305.145264 C-285.673115 305.145264 -262.903115 305.145264 -239.443115 305.145264 C-239.443115 250.695264 -239.443115 196.245264 -239.443115 140.145264 C-262.213115 140.145264 -284.983115 140.145264 -308.443115 140.145264 Z " fill="#111111" transform="translate(377.443115234375,193.854736328125)"/></svg>