<svg xmlns="http://www.w3.org/2000/svg" viewBox="0 0 512 512" width="512" height="512"><path d="M0 0 C7.117531 5.081945 11.859488 11.964535 13.980469 20.414062 C14.326746 22.972217 14.637332 25.535378 14.917969 28.101562 C15.623682 34.459397 16.774141 37.668462 20.980469 42.414062 C22.872883 48.091304 22.789036 53.391999 20.105469 58.789062 C18.828663 61.087313 17.4422 63.221465 15.980469 65.414062 C15.482726 68.271049 15.056425 71.105252 14.667969 73.976562 C13.092629 84.216782 10.600348 92.25506 2.222656 98.941406 C-3.588845 102.758368 -10.006767 105.541114 -17.019531 104.414062 C-28.959932 100.197419 -36.630744 91.147797 -44.050049 81.375244 C-47.549697 76.833465 -51.116077 73.437536 -56.019531 70.414062 C-62.744986 66.213446 -67.419547 63.214014 -70.019531 55.414062 C-71.053364 48.192003 -69.366813 42.262076 -65.019531 36.414062 C-61.894969 33.689819 -58.559884 31.554246 -55.019531 29.414062 C-50.542137 26.652415 -47.04288 23.592054 -43.582031 19.664062 C-43.104675 19.134741 -42.627319 18.60542 -42.135498 18.060059 C-39.475739 15.100374 -36.894472 12.08343 -34.332031 9.039062 C-25.055249 -1.585062 -13.25399 -7.35451 0 0 Z M-30.019531 18.414062 C-30.658906 19.094687 -31.298281 19.775312 -31.957031 20.476562 C-33.019531 22.414062 -33.019531 22.414062 -33.019531 28.414062 C-21.469531 28.414062 -9.919531 28.414062 1.980469 28.414062 C1.980469 20.586268 1.451899 16.379778 -3.519531 10.414062 C-13.559796 2.965645 -23.258438 11.168841 -30.019531 18.414062 Z M-56.777344 42.765625 C-59.127712 45.884668 -59.146527 49.610878 -59.019531 53.414062 C-57.668664 56.437431 -56.343677 58.089916 -54.019531 60.414062 C-50.605125 61.327666 -47.372612 61.544063 -43.849609 61.559326 C-42.845067 61.565706 -41.840525 61.572086 -40.805542 61.578659 C-39.731471 61.579772 -38.6574 61.580885 -37.550781 61.582031 C-36.437716 61.58536 -35.324651 61.588688 -34.177856 61.592117 C-31.827722 61.597173 -29.477581 61.599526 -27.127441 61.599365 C-23.532758 61.601554 -19.93838 61.619732 -16.34375 61.638672 C-14.058595 61.641606 -11.773438 61.643591 -9.488281 61.644531 C-8.951246 61.648124 -8.951246 61.648124 -6.233521 61.666306 C-5.228978 61.663229 -4.224436 61.660152 -3.189453 61.656982 C-2.309628 61.658407 -1.429802 61.659832 -0.523315 61.661301 C3.043162 61.309126 5.896246 60.24771 8.738281 58.0625 C11.08865 54.943457 11.107464 51.217247 10.980469 47.414062 C9.629602 44.390694 8.304615 42.738209 5.980469 40.414062 C2.920895 39.369023 0.04823 39.282422 -3.167725 39.268799 C-3.680044 39.265609 -3.680044 39.265609 -6.27269 39.249466 C-7.373796 39.248353 -8.474902 39.24724 -9.609375 39.246094 C-10.177713 39.24443 -10.177713 39.24443 -13.053848 39.236008 C-15.457037 39.230947 -17.860233 39.228599 -20.263428 39.22876 C-23.939408 39.226573 -27.615088 39.208408 -31.291016 39.189453 C-33.626301 39.186519 -35.961588 39.184534 -38.296875 39.183594 C-39.395957 39.176408 -40.495039 39.169223 -41.627426 39.161819 C-42.655217 39.164896 -43.683008 39.167973 -44.741943 39.171143 C-45.192247 39.17043 -45.192247 39.17043 -47.471054 39.166824 C-51.06064 39.515065 -53.916845 40.566219 -56.777344 42.765625 Z M-33.019531 72.414062 C-33.019531 77.633401 -32.909069 78.1875 -29.832031 81.914062 C-29.195234 82.6875 -28.558437 83.460938 -27.902344 84.257812 C-20.986273 92.178292 -20.986273 92.178292 -16.445312 92.722656 C-7.002449 93.113641 -7.002449 93.113641 -2.894531 89.726562 C2.523869 84.057676 1.980469 80.696174 1.980469 72.414062 C-9.569531 72.414062 -21.119531 72.414062 -33.019531 72.414062 Z " fill="#111111" transform="translate(200.01953125,29.5859375)"/><path d="M0 0 C2.875 2.5 2.875 2.5 5 5 C3.750232 8.653167 3.329012 9.780658 0 12 C-3.973638 12.433488 -6.143551 12.578103 -9.5 10.3125 C-11 8 -11 8 -11 5.4375 C-8.883412 0.278316 -5.348277 -0.873188 0 0 Z " fill="#111111" transform="translate(260,74)"/><path d="M0 0 C2.6875 1.625 2.6875 1.625 4 4 C4 7.125 4 7.125 3 10 C-1.491556 13.021592 -6.810867 12.636848 -12 12 C-14.75 10.3125 -14.75 10.3125 -16 8 C-16.0625 5.4375 -16.0625 5.4375 -15 3 C-10.810054 -0.919627 -5.415775 -0.811455 0 0 Z " fill="#111111" transform="translate(302,74)"/><path d="M0 0 C2.167644 0.939572 3.955131 1.834027 5.796875 3.316406 C6.796875 6.566406 6.796875 6.566406 6.796875 9.316406 C2.036959 13.362335 2.036959 13.362335 -1.207031 13.242188 C-5.238637 12.285924 -8.924546 10.899529 -12.203125 8.316406 C-13.140625 6.378906 -13.140625 6.378906 -13.203125 4.316406 C-10.926867 -1.81198 -5.870401 -1.82149 0 0 Z " fill="#111111" transform="translate(340.203125,75.68359375)"/><path d="M0 0 C2.4375 0.5625 2.4375 0.5625 4.25 2.5 C5.850425 6.627411 6.148941 10.191089 5.4375 14.5625 C3.75 17.625 3.75 17.625 1.4375 19.5625 C-1.125 20.0625 -1.125 20.0625 -3.5625 19.5625 C-5.1875 18.402344 -5.1875 18.402344 -6.5625 16.5625 C-6.996094 13.785156 -6.996094 13.785156 -7 10.625 C-7.019336 9.584727 -7.038672 8.544453 -7.058594 7.472656 C-6.319854 3.139103 -4.303159 0.944596 0 0 Z " fill="#111111" transform="translate(360.5625,102.4375)"/><path d="M0 0 C1.9375 1.6875 1.9375 1.6875 3 4 C3.0625 6.5 3.0625 6.5 2 9 C-2.451164 12.908339 -6.207275 14.093431 -12 14 C-14.891341 11.602302 -15.858052 10.163972 -16.3125 6.4375 C-13.463921 1.147282 -5.68845 -1.083514 0 0 Z " fill="#111111" transform="translate(343,136)"/><path d="M0 0 C3.001015 1.136748 4.92926 1.632061 8.09375 1.171875 C8.526875 0.40875 8.96 -0.354375 9.40625 -1.140625 C11.537802 -4.535319 13.372972 -5.190719 17.097656 -6.386719 C19.815474 -6.987723 21.526475 -6.928386 24.09375 -5.828125 C25.96875 -4.015625 25.96875 -4.015625 27.09375 -1.828125 C26.730469 0.042969 26.730469 0.042969 26.09375 2.171875 C25.917148 2.878281 25.740547 3.584688 25.558594 4.3125 C25.070312 6.265625 24.582031 8.21875 24.09375 10.171875 C24.776792 10.282251 25.459834 10.392627 26.163574 10.506348 C29.611958 11.289575 32.695296 12.497172 35.976562 13.820312 C36.675587 14.100663 37.374611 14.381014 38.094818 14.669861 C40.471306 15.624354 42.845115 16.585313 45.21875 17.546875 C47.837689 18.604259 50.456959 19.660822 53.076233 20.717377 C55.03167 21.506361 56.98686 22.295958 58.941833 23.08609 C65.822844 25.863983 72.714176 28.614834 79.61199 31.350645 C85.661925 33.75019 91.708538 36.157979 97.753214 38.570742 C101.54407 40.08338 105.336509 41.59175 109.132874 43.090515 C112.763633 44.524151 116.38953 45.969478 120.012318 47.423134 C121.359164 47.961203 122.707676 48.495125 124.057964 49.024498 C134.691077 53.197334 142.676093 57.537013 149.46875 66.796875 C150.409812 68.037709 151.352553 69.27727 152.296875 70.515625 C152.529873 70.823066 152.529873 70.823066 153.708984 72.378906 C155.800876 75.087448 158.006183 77.685771 160.21875 80.296875 C163.62082 84.357586 166.943359 88.460854 170.15625 92.671875 C170.889727 93.630938 171.623203 94.59 172.378906 95.578125 C175.0888 99.676916 175.0888 99.676916 175.09375 102.171875 C172.342926 106.290741 169.921423 108.061269 165.339844 109.847656 C164.789092 110.065186 164.789092 110.065186 162.001953 111.166016 C161.429287 111.383545 161.429287 111.383545 158.53125 112.484375 C157.382051 112.93877 156.232852 113.393164 155.048828 113.861328 C146.550928 117.171875 146.550928 117.171875 143.09375 117.171875 C143.101669 117.939404 143.109588 118.706933 143.117747 119.497721 C143.309417 138.176246 143.484242 156.854859 143.640338 175.533716 C143.716231 184.566685 143.797817 193.599535 143.892822 202.632324 C143.975618 210.505608 144.047714 218.378904 144.106983 226.252401 C144.138736 230.421095 144.175833 234.589587 144.225744 238.758106 C144.27257 242.683049 144.30507 246.607852 144.326672 250.533012 C144.337101 251.972167 144.352727 253.411295 144.373991 254.85033 C144.402291 256.818657 144.409902 258.787249 144.41655 260.755768 C144.426689 261.856389 144.436829 262.957009 144.447276 264.090982 C143.961645 268.323139 142.588405 271.819425 139.391495 274.712173 C134.226667 277.698899 128.977105 280.020719 123.402344 282.136719 C122.428351 282.515054 121.454359 282.893388 120.450851 283.283188 C117.147021 284.565685 113.839155 285.837428 110.53125 287.109375 C105.535227 289.041688 100.54225 290.981743 95.550781 292.925781 C94.867737 293.191509 94.184692 293.457238 93.480949 293.731018 C80.886253 298.635469 68.352722 303.686318 55.828394 308.76742 C52.606596 310.073762 49.383833 311.37769 46.16069 312.68071 C45.092947 313.112382 44.025203 313.544055 42.925103 313.988809 C40.762976 314.862837 38.600812 315.736775 36.438613 316.610625 C31.042419 318.792825 25.64911 320.981716 20.2612 323.184296 C15.112177 325.289099 9.956795 327.377519 4.796534 329.454607 C2.874895 330.231649 0.955709 331.014789 -0.960794 331.804411 C-3.613968 332.896672 -6.275048 333.966975 -8.938965 335.032715 C-9.703467 335.353525 -10.46797 335.674335 -11.255639 336.004867 C-18.297988 338.774474 -25.783115 339.55642 -32.933105 336.621582 C-33.793107 336.278555 -34.653108 335.935529 -35.539169 335.582108 C-36.441478 335.201809 -37.343786 334.82151 -38.273438 334.429688 C-39.249102 334.034847 -40.224766 333.640006 -41.229996 333.2332 C-44.420661 331.937355 -47.600687 330.617298 -50.78125 329.296875 C-53.024175 328.380823 -55.267756 327.466376 -57.511963 326.553467 C-63.229207 324.223233 -68.938159 321.87342 -74.644714 319.517151 C-79.583573 317.480035 -84.527911 315.45637 -89.472656 313.433594 C-91.301608 312.685252 -93.130547 311.93688 -94.959473 311.188477 C-95.850154 310.824034 -96.740836 310.459592 -97.658508 310.084106 C-100.34646 308.983265 -103.033422 307.880034 -105.720215 306.776367 C-121.298276 300.383557 -136.946229 294.173207 -152.617661 288.013321 C-154.253537 287.369658 -155.888933 286.724773 -157.523819 286.078598 C-161.826692 284.378169 -166.136172 282.698194 -170.457031 281.043945 C-172.273494 280.339338 -174.089902 279.634589 -175.90625 278.929688 C-176.327894 278.770846 -176.327894 278.770846 -178.46167 277.96701 C-179.247756 277.65966 -180.033843 277.352309 -180.84375 277.035645 C-181.188574 276.903601 -181.188574 276.903601 -182.933594 276.235382 C-185.512572 274.844992 -187.040854 273.447501 -188.90625 271.171875 C-189.414059 268.274609 -189.414059 268.274609 -189.425232 264.844421 C-189.439145 263.543143 -189.453058 262.241865 -189.467392 260.901154 C-189.462679 259.461119 -189.457585 258.021086 -189.452148 256.581055 C-189.460883 255.063232 -189.471369 253.545418 -189.483475 252.027618 C-189.511366 247.908079 -189.514739 243.788839 -189.513755 239.669219 C-189.516881 235.36366 -189.542494 231.058236 -189.565735 226.752747 C-189.606319 218.600126 -189.626641 210.447585 -189.639709 202.294879 C-189.655571 193.01315 -189.693983 183.731557 -189.734302 174.449907 C-189.816734 155.357273 -189.870806 136.264651 -189.90625 117.171875 C-190.188232 117.076323 -190.188232 117.076323 -191.615234 116.592773 C-194.214275 115.708333 -196.810238 114.815166 -199.40625 113.921875 C-200.293125 113.621523 -201.18 113.321172 -202.09375 113.011719 C-217.817081 107.57792 -217.817081 107.57792 -220.90625 102.171875 C-218.315824 96.551139 -215.564505 92.221712 -211.40625 87.671875 C-206.309348 81.923816 -201.625376 75.966232 -197.091797 69.765625 C-196.165591 68.503912 -195.230414 67.248732 -194.286133 66.000488 C-193.382095 64.802463 -192.500074 63.587427 -191.643555 62.35498 C-184.896002 53.380391 -172.462663 50.038982 -162.335938 46.167969 C-159.856033 45.206611 -157.376562 44.244184 -154.897461 43.280762 C-154.252454 43.030756 -153.607448 42.78075 -152.942896 42.523168 C-145.244433 39.53593 -137.579601 36.465038 -129.914062 33.394531 C-128.440181 32.804678 -126.966284 32.214865 -125.492371 31.625092 C-121.755602 30.129567 -118.019233 28.633049 -114.282959 27.136292 C-110.541754 25.637761 -106.800163 24.140198 -103.058594 22.642578 C-98.633866 20.871491 -94.209209 19.100228 -89.784943 17.327988 C-82.665431 14.47625 -75.544773 11.627446 -68.421387 8.7854 C-66.393593 7.97592 -64.365827 7.166367 -62.33807 6.356794 C-60.480089 5.615401 -58.621661 4.875129 -56.763214 4.134903 C-48.964712 1.021191 -41.205086 -2.173114 -33.496063 -5.502579 C-21.205763 -10.774435 -11.521386 -5.33789 0 0 Z M-41.140625 8.988281 C-42.470309 9.523271 -43.800722 10.056454 -45.131775 10.588028 C-48.092019 11.773976 -51.04728 12.97142 -53.999756 14.176575 C-59.278654 16.328588 -64.573251 18.440511 -69.869141 20.550293 C-80.93573 24.962873 -91.989471 29.407008 -103.041382 33.856201 C-107.234385 35.54313 -111.428732 37.226707 -115.623051 38.910361 C-119.705734 40.549799 -123.787477 42.191569 -127.86895 43.834017 C-129.796565 44.609363 -131.72448 45.383963 -133.652718 46.157759 C-152.747173 53.822868 -152.747173 53.822868 -161.90625 58.171875 C-161.90625 60.151875 -161.90625 62.131875 -161.90625 64.171875 C-153.687486 68.01509 -145.345037 71.473373 -136.914062 74.820312 C-135.572495 75.355235 -134.231031 75.890418 -132.889664 76.425842 C-130.062616 77.553809 -127.234979 78.680279 -124.40683 79.805481 C-117.789252 82.438487 -111.17482 85.07938 -104.56024 87.719906 C-103.101259 88.302289 -101.64224 88.884577 -100.183184 89.46677 C-89.051403 93.908624 -77.93058 98.376435 -66.827515 102.889679 C-64.628428 103.782791 -62.428166 104.672946 -60.227539 105.562256 C-54.342822 107.942886 -48.470851 110.344616 -42.636719 112.847656 C-30.946948 117.828132 -23.355118 120.3968 -11 115.683594 C-10.311057 115.421154 -9.622113 115.158714 -8.912292 114.888321 C1.049025 111.071046 10.943811 107.082275 20.84375 103.109375 C23.018608 102.23805 25.193495 101.366795 27.368408 100.495605 C45.8664 93.081773 64.346746 85.624146 82.821289 78.1521 C83.85841 77.732686 84.895532 77.313272 85.964081 76.881149 C87.961714 76.073145 89.959216 75.264817 91.956573 74.456131 C96.255925 72.7167 100.557388 70.983625 104.869629 69.276367 C105.580008 68.994737 106.290387 68.713107 107.022293 68.422943 C108.864582 67.694112 110.708231 66.968724 112.552002 66.243652 C115.09375 65.171875 115.09375 65.171875 116.09375 64.171875 C116.134558 62.172291 116.136294 60.171422 116.09375 58.171875 C109.519271 54.722146 102.779275 52.000036 95.855469 49.332031 C93.339801 48.353059 90.824573 47.373037 88.310059 46.391113 C87.979827 46.262278 87.979827 46.262278 86.308656 45.610293 C78.346018 42.498158 70.416972 39.302877 62.488281 36.105469 C62.110676 35.953272 62.110676 35.953272 60.199764 35.183064 C55.54992 33.308797 50.900769 31.432817 46.251892 29.556152 C43.120307 28.292143 39.988456 27.028794 36.856524 25.765646 C35.301274 25.138358 33.746081 24.510929 32.190947 23.883356 C28.395584 22.35203 24.599229 20.823268 20.800568 19.30014 C14.069939 16.599117 7.354696 13.873774 0.677246 11.043457 C-0.453529 10.571101 -1.584303 10.098745 -2.749344 9.612076 C-4.79767 8.75477 -6.840008 7.882916 -8.874069 6.992294 C-20.823934 2.033249 -29.479833 4.152752 -41.140625 8.988281 Z M-186.010254 70.497803 C-186.463198 71.110833 -186.916143 71.723862 -187.382812 72.355469 C-187.905286 73.031824 -188.427759 73.708179 -188.966064 74.405029 C-189.482576 75.132463 -189.999087 75.859897 -190.53125 76.609375 C-191.08321 77.341321 -191.635171 78.073267 -192.203857 78.827393 C-193.294598 80.275989 -194.374966 81.732465 -195.443848 83.197266 C-197.76849 86.336115 -200.318592 89.289211 -202.832031 92.277344 C-204.29062 94.849764 -204.462821 96.262319 -203.90625 99.171875 C-199.72492 103.302072 -194.799038 105.038698 -189.410156 107.078125 C-188.477514 107.439455 -187.544873 107.800786 -186.583969 108.173065 C-183.548573 109.347309 -180.50868 110.509426 -177.46875 111.671875 C-175.364826 112.484131 -173.261312 113.297452 -171.158203 114.111816 C-168.006618 115.332123 -164.854849 116.551912 -161.701813 117.768463 C-153.411873 120.96753 -145.150325 124.231654 -136.90625 127.546875 C-135.733364 128.018027 -134.560479 128.48918 -133.352051 128.974609 C-131.035474 129.905501 -128.719065 130.836809 -126.402832 131.768555 C-122.748984 133.234992 -119.09178 134.69287 -115.433594 136.148438 C-113.53384 136.905223 -111.634147 137.662159 -109.734467 138.419128 C-107.86618 139.162945 -105.997181 139.90497 -104.128174 140.646973 C-97.680165 143.218361 -91.268796 145.85359 -84.890625 148.59375 C-83.570503 149.156505 -82.250273 149.719008 -80.929932 150.28125 C-78.438839 151.34216 -75.959607 152.422361 -73.482178 153.515625 C-61.059224 158.812668 -61.059224 158.812668 -54.90625 157.171875 C-52.152344 155.03125 -52.152344 155.03125 -49.90625 152.171875 C-49.092852 151.248906 -48.279453 150.325938 -47.441406 149.375 C-33.733339 133.003279 -33.733339 133.003279 -33.90625 126.171875 C-42.2034 122.244842 -50.55039 118.637098 -59.117188 115.34375 C-61.58625 114.383757 -64.05478 113.422512 -66.522461 112.458984 C-67.180619 112.20221 -67.838776 111.945436 -68.516878 111.680882 C-77.351968 108.2264 -86.147098 104.672077 -94.945312 101.125 C-96.71653 100.41133 -98.48775 99.697667 -100.258972 98.984009 C-105.683541 96.797811 -111.107434 94.609939 -116.53125 92.421875 C-122.89031 89.856671 -129.249714 87.292324 -135.609814 84.729698 C-138.101215 83.72543 -140.592084 82.719851 -143.082916 81.714172 C-146.166209 80.46964 -149.252664 79.23347 -152.341614 78.003052 C-155.492208 76.746967 -158.626401 75.456841 -161.755554 74.148315 C-163.341304 73.499284 -164.927176 72.850551 -166.513184 72.202148 C-166.868705 72.049677 -166.868705 72.049677 -168.667856 71.27808 C-174.014524 69.120753 -180.810609 67.221025 -186.010254 70.497803 Z M121.655762 71.877441 C120.957685 72.165581 120.259609 72.45372 119.540379 72.750591 C117.237636 73.704029 114.943401 74.676443 112.648438 75.648438 C111.007912 76.330545 109.366691 77.010981 107.724823 77.68985 C105.147472 78.755864 102.570647 79.823012 99.99589 80.895277 C91.473362 84.444161 82.908396 87.883236 74.334053 91.304649 C71.778109 92.324684 69.222898 93.346534 66.667908 94.368958 C63.240938 95.740265 59.813719 97.110947 56.38623 98.480957 C52.042212 100.217412 47.698831 101.955457 43.35561 103.693905 C39.083773 105.403572 34.811496 107.112136 30.539062 108.820312 C29.722091 109.147007 28.90512 109.473701 28.063393 109.810295 C17.18669 114.158163 6.299238 118.475133 -4.633759 122.680023 C-5.465053 123.001695 -6.296347 123.323366 -7.152832 123.654785 C-7.862149 123.92715 -8.571465 124.199515 -9.302277 124.480133 C-10.90625 125.171875 -10.90625 125.171875 -11.90625 126.171875 C-12.434211 129.650208 -11.995664 131.029123 -10.105469 134.046875 C-9.282307 135.099702 -8.444056 136.140847 -7.59375 137.171875 C-7.145156 137.725688 -6.696563 138.279502 -6.234375 138.850098 C-5.282073 140.022339 -4.325411 141.191048 -3.364746 142.356445 C-1.898654 144.18133 -0.519089 146.050824 0.855469 147.945312 C1.767197 149.146618 2.679927 150.347163 3.59375 151.546875 C3.995051 152.124375 4.396353 152.701875 4.809814 153.296875 C6.0625 154.882812 6.0625 154.882812 9.09375 157.171875 C17.164377 157.8655 24.809903 154.311394 32.109375 151.355469 C33.439229 150.827621 34.769508 150.300843 36.100159 149.775009 C39.912524 148.264046 43.717712 146.73565 47.522125 145.204796 C51.194864 143.729601 54.871584 142.264444 58.548073 140.798624 C70.130971 136.179952 81.702813 131.534049 93.270996 126.878662 C98.797682 124.65456 104.326017 122.434591 109.854794 120.215692 C114.169093 118.483609 118.482451 116.749193 122.79554 115.014097 C124.834797 114.194091 126.874356 113.374834 128.914238 112.556383 C149.142062 104.437916 149.142062 104.437916 158.09375 100.171875 C158.333544 95.228265 156.849418 92.894092 153.78125 89.171875 C153.334106 88.617336 152.886963 88.062798 152.42627 87.491455 C151.476152 86.317907 150.520931 85.148475 149.561035 83.98291 C148.085888 82.162172 146.67162 80.305149 145.261719 78.433594 C144.331977 77.241214 143.401023 76.049777 142.46875 74.859375 C142.25972 74.574814 142.25972 74.574814 141.201904 73.134766 C139.929688 71.558594 139.929688 71.558594 137.09375 69.171875 C131.295308 68.674765 127.000335 69.565306 121.655762 71.877441 Z M-176.90625 124.171875 C-176.90625 171.031875 -176.90625 217.891875 -176.90625 266.171875 C-164.532771 271.796184 -164.532771 271.796184 -159.515869 273.792969 C-158.381358 274.246089 -157.246847 274.69921 -156.077957 275.166061 C-154.877895 275.642355 -153.677834 276.118648 -152.441406 276.609375 C-151.140945 277.127861 -149.840588 277.646611 -148.540329 278.165604 C-145.781396 279.266332 -143.021873 280.365561 -140.261841 281.463531 C-133.710728 284.069774 -127.162668 286.683667 -120.614567 289.297464 C-119.131824 289.889303 -117.649043 290.481047 -116.166225 291.072699 C-99.169377 297.854892 -82.20224 304.709693 -65.242432 311.583984 C-60.582599 313.472453 -55.918743 315.350666 -51.252686 317.223694 C-49.116972 318.086724 -46.988421 318.965116 -44.861328 319.849121 C-43.726309 320.310122 -42.591289 320.771123 -41.421875 321.246094 C-40.501807 321.627253 -39.581738 322.008413 -38.633789 322.401123 C-35.90625 323.171875 -35.90625 323.171875 -28.90625 323.171875 C-28.90625 264.761875 -28.90625 206.351875 -28.90625 146.171875 C-33.90625 146.171875 -33.90625 146.171875 -35.539062 147.429688 C-36.031484 148.045859 -36.523906 148.662031 -37.03125 149.296875 C-37.619063 150.012305 -38.206875 150.727734 -38.8125 151.464844 C-40.433341 153.560446 -42.033528 155.667419 -43.625 157.785156 C-43.864685 158.099929 -43.864685 158.099929 -45.077637 159.692871 C-46.035222 160.955391 -46.979985 162.227756 -47.910645 163.510254 C-51.27043 167.956276 -51.27043 167.956276 -54.239746 168.963135 C-57.436788 169.213407 -59.253662 168.596371 -62.21875 167.390625 C-62.746581 167.179702 -62.746581 167.179702 -65.417725 166.112305 C-66.568938 165.636963 -67.720151 165.161621 -68.90625 164.671875 C-70.130295 164.178486 -71.354341 163.685098 -72.615479 163.176758 C-75.296405 162.096039 -77.973833 161.007188 -80.648926 159.912109 C-84.988306 158.136026 -89.335429 156.379446 -93.683594 154.625 C-105.641076 149.795475 -117.587275 144.938293 -129.524704 140.059418 C-132.868111 138.693629 -136.212683 137.330707 -139.557404 135.96814 C-141.140254 135.322379 -142.722529 134.675208 -144.304169 134.026489 C-168.331004 124.171875 -168.331004 124.171875 -176.90625 124.171875 Z M119.113281 125.839844 C118.140845 126.227771 117.168408 126.615698 116.166504 127.015381 C115.09062 127.458899 114.014736 127.902417 112.90625 128.359375 C111.734976 128.830608 110.563701 129.301841 109.356934 129.787354 C106.588396 130.901307 103.82334 132.023465 101.060059 133.150391 C95.292387 135.501194 89.515142 137.828141 83.738281 140.15625 C74.709359 143.796881 65.681846 147.440974 56.65625 151.089844 C55.567259 151.530054 54.478268 151.970263 53.356277 152.423813 C47.746435 154.692256 42.138424 156.965097 36.533234 159.24501 C33.723564 160.386785 30.91209 161.524055 28.100037 162.659943 C26.279922 163.3971 24.462421 164.1407 22.64502 164.884521 C21.578804 165.314504 20.512588 165.744487 19.414062 166.1875 C18.966838 166.369419 18.966838 166.369419 16.703613 167.290039 C13.808685 168.268194 11.138766 168.892031 8.09375 169.171875 C6.04558 167.554899 4.725998 166.162311 3.09375 164.171875 C1.804407 162.732291 0.51253 161.294973 -0.78125 159.859375 C-2.841907 157.546472 -4.861124 155.228073 -6.800781 152.8125 C-7.096621 152.448984 -7.096621 152.448984 -8.59375 150.609375 C-9.113242 149.948086 -9.632734 149.286797 -10.167969 148.605469 C-11.90625 147.171875 -11.90625 147.171875 -16.90625 147.171875 C-16.90625 205.251875 -16.90625 263.331875 -16.90625 323.171875 C-10.36896 322.445509 -6.664134 322.000735 -0.92334 319.721436 C-0.275235 319.467521 0.37287 319.213607 1.040615 318.951998 C3.200734 318.102358 5.354127 317.236898 7.507812 316.371094 C9.077434 315.749373 10.647402 315.128525 12.217682 314.508469 C16.574319 312.78412 20.924717 311.044516 25.273819 309.301262 C28.165483 308.143146 31.058544 306.988587 33.952026 305.835022 C46.617895 300.784787 59.273229 295.708698 71.922852 290.61792 C77.455462 288.391363 82.98977 286.169058 88.524511 283.947804 C92.838607 282.21583 97.151753 280.481501 101.464619 278.746466 C103.508003 277.924793 105.551697 277.103889 107.595715 276.283792 C110.424657 275.14841 113.252283 274.009809 116.07959 272.870361 C116.908482 272.538463 117.737375 272.206565 118.591385 271.864609 C118.977582 271.708587 118.977582 271.708587 120.931976 270.919022 C121.594999 270.652371 122.258023 270.38572 122.941137 270.11099 C125.707466 268.904131 128.394257 267.521622 131.09375 266.171875 C131.09375 219.311875 131.09375 172.451875 131.09375 124.171875 C123.219335 124.171875 123.219335 124.171875 119.113281 125.839844 Z " fill="#111111" transform="translate(278.90625,146.828125)"/><path d="M0 0 C5.875 1.875 5.875 1.875 7 3 C6.598727 9.821636 4.052999 14.452301 -1 19 C-4.421488 18.181818 -6.463951 17.675024 -8.6875 14.875 C-9.183738 10.309609 -6.7218 7.51413 -4 4 C-1.6875 1.5 -1.6875 1.5 0 0 Z " fill="#111111" transform="translate(265,163)"/><path d="M0 0 C2.457549 2.20332 2.946405 3.685128 3.5 6.9375 C2.826813 11.060772 1.300185 12.524861 -2 15 C-4.532933 15 -5.617074 14.23249 -7.75 12.9375 C-9.767523 9.81034 -9.675419 6.602233 -9 3 C-6.415435 -0.063188 -3.916398 -0.702943 0 0 Z " fill="#111111" transform="translate(258,203)"/></svg>