<svg xmlns="http://www.w3.org/2000/svg" viewBox="0 0 512 512" width="512" height="512"><path d="M0 0 C3.108819 2.072546 3.745652 2.247952 7.261902 2.231369 C7.696442 2.231893 7.696442 2.231893 9.895477 2.234543 C10.846171 2.225706 11.796865 2.216869 12.776367 2.207764 C13.27815 2.207164 13.27815 2.207164 15.817474 2.204132 C17.999529 2.200979 20.18158 2.193658 22.363609 2.182699 C25.818802 2.167875 29.273607 2.169436 32.728821 2.176346 C42.553712 2.195201 52.378304 2.201619 62.203125 2.154541 C68.210952 2.12694 74.217933 2.133282 80.225746 2.161554 C82.514246 2.165814 84.802807 2.157337 87.091209 2.135824 C90.297109 2.106933 93.500175 2.121271 96.706055 2.145264 C97.648651 2.126305 98.591248 2.107347 99.562408 2.087814 C104.643991 2.175242 107.34328 2.778617 111.020325 6.416702 C112.037257 7.591016 113.034014 8.783433 114 10 C114.649688 10.721875 115.299375 11.44375 115.96875 12.1875 C116.474063 12.785625 116.979375 13.38375 117.5 14 C120.253437 17.195953 123.146772 20.172301 126.156494 23.125244 C127.933366 24.932237 129.594369 26.793449 131.246094 28.714844 C134.914035 32.932928 138.716613 37.006923 142.5625 41.0625 C143.978125 42.560952 145.393484 44.059655 146.808594 45.558594 C147.160427 45.931052 147.160427 45.931052 148.940918 47.815918 C152.013569 51.0751 155.070745 54.348585 158.125 57.625 C158.692751 58.234001 159.260503 58.843003 159.845459 59.470459 C160.988192 60.696383 162.130852 61.922376 163.273438 63.148438 C165.035145 65.037689 166.798569 66.925325 168.5625 68.8125 C174.523775 75.191366 180.469782 81.583254 186.382324 88.007324 C190.476239 92.448618 194.611863 96.849936 198.75 101.25 C215.126543 118.685095 215.126543 118.685095 215.120255 125.06192 C215.120942 125.597594 215.120942 125.597594 215.12442 128.308426 C215.120825 129.488779 215.11723 130.669132 215.113525 131.885254 C215.113671 133.124249 215.113817 134.363245 215.113968 135.639786 C215.11339 139.042475 215.108365 142.445104 215.101394 145.847783 C215.095154 149.401887 215.094556 152.955992 215.093369 156.510101 C215.090257 163.242618 215.082046 169.975118 215.072019 176.707628 C215.060852 184.371371 215.055346 192.035116 215.050324 199.698865 C215.039864 215.46592 215.022268 231.232958 215 247 C216.229176 247.06548 217.458353 247.130961 218.724777 247.198425 C220.35713 247.286841 221.98948 247.375325 223.621826 247.463867 C224.025735 247.485293 224.025735 247.485293 226.069756 247.593719 C232.182709 247.927314 238.242684 248.438427 244.3125 249.25 C245.266165 249.377134 246.219829 249.504268 247.202393 249.635254 C286.554948 255.208388 286.554948 255.208388 297 268 C297.707031 270.214844 297.707031 270.214844 298 272 C298.99 272 299.98 272 301 272 C301 322.82 301 373.64 301 426 C300.01 426 299.02 426 298 426 C297.835 426.680625 297.67 427.36125 297.5 428.0625 C293.286133 436.314656 285.279969 439.777889 276.867188 442.585938 C261.042559 447.417733 244.458656 449.740332 228 451 C226.726406 451.110859 225.452812 451.221719 224.140625 451.335938 C186.800488 454.110205 128.466845 457.819524 97 434 C92.579524 429.256075 91.875385 426.658339 91.902344 420.242188 C91.903051 419.910662 91.903051 419.910662 91.906631 418.232941 C91.912232 416.113581 91.924785 413.994327 91.9375 411.875 C91.942515 410.438804 91.947078 409.002606 91.951172 407.566406 C91.962202 404.044237 91.979467 400.522129 92 397 C91.507085 397.001383 91.507085 397.001383 89.012638 397.00838 C65.043837 397.074929 41.075048 397.124254 17.106174 397.155437 C5.515086 397.170916 -6.075942 397.192028 -17.666992 397.226318 C-27.767768 397.256186 -37.8685 397.275567 -47.969319 397.282265 C-53.319422 397.286182 -58.669399 397.29541 -64.019463 397.31719 C-69.05252 397.337514 -74.085398 397.343842 -79.118492 397.339323 C-80.968038 397.34015 -82.817589 397.34614 -84.667099 397.357616 C-87.18826 397.372496 -89.708743 397.36897 -92.229919 397.360764 C-92.96533 397.369502 -93.700741 397.378241 -94.458437 397.387244 C-97.51038 397.360308 -99.700297 397.157394 -102.42313 395.727452 C-105.657967 392.183706 -105.123935 388.166792 -105.120255 383.558655 C-105.121109 382.914119 -105.121963 382.269584 -105.122844 381.605517 C-105.124489 379.448246 -105.118992 377.291053 -105.113525 375.133789 C-105.113243 373.586421 -105.113402 372.039052 -105.113968 370.491684 C-105.114255 366.29163 -105.108372 362.091604 -105.101394 357.891557 C-105.095146 353.501986 -105.094555 349.112414 -105.093369 344.722839 C-105.090259 336.410839 -105.082052 328.098851 -105.072019 319.786856 C-105.060845 310.323826 -105.055344 300.860795 -105.050324 291.397759 C-105.039869 271.931832 -105.022278 252.465917 -105 233 C-107.64 233 -110.28 233 -113 233 C-113.202383 233.768281 -113.404766 234.536563 -113.613281 235.328125 C-115.562543 240.489549 -118.365931 245.021042 -121.1875 249.75 C-122.456455 251.899311 -123.724657 254.049067 -124.992188 256.199219 C-125.650576 257.313452 -126.308965 258.427686 -126.987305 259.575684 C-129.650164 264.106162 -132.271794 268.659717 -134.889648 273.216309 C-137.371808 277.53582 -139.867142 281.847659 -142.362305 286.159668 C-143.806582 288.664546 -145.237266 291.176553 -146.664062 293.691406 C-153.02521 304.787324 -159.302628 312.972828 -172.042969 316.578125 C-179.593133 318.205705 -186.240576 316.482981 -193 313 C-200.003405 308.115523 -205.402051 302.258744 -208 294 C-208.117188 291.203125 -208.117188 291.203125 -208 289 C-208.99 289 -209.98 289 -211 289 C-211 287.02 -211 285.04 -211 283 C-210.01 283 -209.02 283 -208 283 C-207.938125 282.05125 -207.87625 281.1025 -207.8125 280.125 C-206.508333 271.122766 -200.171832 262.689572 -195.625 255 C-194.387387 252.893601 -193.150432 250.786816 -191.914062 248.679688 C-191.27501 247.591396 -190.635957 246.503105 -189.977539 245.381836 C-185.998838 238.577766 -182.077146 231.740672 -178.150879 224.90625 C-177.564839 223.887891 -176.978799 222.869531 -176.375 221.820312 C-175.81313 220.843364 -175.25126 219.866416 -174.672363 218.859863 C-172.563776 215.254026 -170.371508 211.702488 -168.151855 208.164062 C-166.08221 204.275691 -166.015924 202.35805 -167 198 C-168.70877 195.905379 -170.600334 194.169467 -172.597656 192.347656 C-193.857532 171.571745 -204.657914 138.54645 -205.351318 109.411377 C-205.627982 74.668761 -192.326942 42.553604 -169 17 C-168.334844 16.263945 -167.669688 15.527891 -166.984375 14.769531 C-122.818808 -31.715656 -51.528115 -34.854484 0 0 Z M-164.34375 24.003906 C-188.331193 50.491524 -196.68431 83.382726 -195.227539 118.500977 C-193.588551 143.704809 -182.98478 166.756686 -167 186 C-166.665488 186.411211 -166.665488 186.411211 -164.972656 188.492188 C-147.331734 209.34383 -119.031712 223.72001 -92 227 C-87.169926 227.259871 -82.358932 227.330126 -77.522705 227.315674 C-75.332981 227.312529 -73.144635 227.336003 -70.955078 227.361328 C-43.381975 227.486763 -17.164595 217.685884 4 200 C4.995156 199.168555 5.990312 198.337109 7.015625 197.480469 C30.130241 177.537358 43.865268 148.894924 46.75 118.625 C46.85496 116.751086 46.939061 114.875861 47 113 C47.039961 112.087344 47.079922 111.174688 47.121094 110.234375 C47.904387 76.50668 35.828821 45.150335 12.664551 20.695801 C-3.848252 3.87299 -25.078666 -6.965402 -48 -12 C-48.961641 -12.225586 -49.923281 -12.451172 -50.914062 -12.683594 C-92.558137 -20.821587 -135.223332 -6.187115 -164.34375 24.003906 Z M20 13 C20 18.777771 20.575941 19.160385 24.3125 23.1875 C47.352778 49.386995 56.708747 83.66486 55 118 C54.109854 127.73783 51.991933 137.068058 48.769531 146.300781 C47.992835 149.025133 47.941989 151.18808 48 154 C49.181285 154.005866 50.36257 154.011732 51.579651 154.017776 C62.703945 154.074952 73.828043 154.147686 84.952137 154.235715 C90.671365 154.280471 96.390521 154.319716 102.109863 154.346436 C107.627792 154.372416 113.145443 154.412781 118.6632 154.463186 C120.769921 154.479891 122.876689 154.491383 124.983467 154.497614 C127.931006 154.507216 130.877831 154.535229 133.825195 154.567627 C134.699134 154.566192 135.573073 154.564757 136.473495 154.563278 C142.420132 154.655917 142.420132 154.655917 145.573425 156.527023 C146.044195 157.013106 146.514965 157.499188 147 158 C146.625 159.9375 146.625 159.9375 146 162 C143.69993 163.150035 142.512599 163.095766 139.961197 163.037094 C139.116101 163.02087 138.271004 163.004646 137.400299 162.98793 C136.470996 162.965407 135.541693 162.942884 134.584229 162.919678 C132.557517 162.880255 130.530788 162.841761 128.504044 162.804062 C127.425184 162.783169 126.346325 162.762277 125.234774 162.740751 C118.326506 162.623089 111.417282 162.58638 104.508225 162.540664 C98.436685 162.495974 92.369013 162.418868 86.299072 162.269775 C80.427695 162.127173 74.561374 162.073367 68.688337 162.078966 C66.455762 162.065477 64.223134 162.020327 61.991884 161.942228 C44.957642 161.373365 44.957642 161.373365 40.009686 165.767567 C36.533043 170.087194 34.204386 174.817646 32.00305 179.879152 C28.916366 186.405635 23.444586 191.628238 18.328125 196.601562 C17.686575 197.22708 17.045024 197.852598 16.384033 198.49707 C15.109543 199.726643 13.821952 200.942812 12.520264 202.143555 C11.934788 202.702041 11.349312 203.260527 10.746094 203.835938 C10.216853 204.326265 9.687612 204.816592 9.142334 205.321777 C7.597402 207.591463 7.919796 209.309401 8 212 C8.698142 212.002388 9.396284 212.004777 10.115582 212.007237 C27.090877 212.066334 44.066019 212.141849 61.041158 212.235715 C69.250163 212.28071 77.459125 212.320116 85.668213 212.346436 C92.821975 212.369386 99.9756 212.40275 107.129253 212.448702 C110.918244 212.472674 114.707099 212.491376 118.496164 212.497614 C122.060963 212.503647 125.625411 212.52358 129.190081 212.554276 C131.125346 212.567293 133.060694 212.565481 134.996002 212.563278 C136.144451 212.575816 137.2929 212.588354 138.476151 212.601273 C139.476296 212.605882 140.476441 212.610491 141.506894 212.615239 C144.361469 213.055785 145.247742 213.761681 147 216 C145.25 219.875 145.25 219.875 143 221 C140.964665 221.088984 138.926321 221.111431 136.889053 221.104385 C136.23669 221.103499 136.23669 221.103499 132.935333 221.099014 C131.480408 221.092159 130.025482 221.085276 128.570557 221.078369 C127.04446 221.074854 125.518362 221.071887 123.992264 221.069427 C120.697609 221.063743 117.40297 221.055724 114.108324 221.046404 C108.881557 221.03322 103.654863 221.034961 98.428085 221.040634 C97.545044 221.041554 96.662003 221.042474 95.752204 221.043422 C93.030766 221.046395 90.309328 221.04956 87.587891 221.052734 C76.334581 221.065492 65.081617 221.067765 53.828369 221.02417 C45.623257 220.992489 37.418675 220.989546 29.213548 221.018929 C24.878214 221.033374 20.54394 221.033988 16.208696 220.999529 C-2.130087 220.862342 -17.513232 220.974156 -34 230 C-37.548412 231.216727 -41.088401 232.136525 -44.75 232.9375 C-45.559531 233.131504 -46.369062 233.325508 -47.203125 233.525391 C-54.430118 235.220684 -61.42898 236.15293 -68.867188 236.0625 C-69.587381 236.058713 -70.307574 236.054927 -71.049591 236.051025 C-73.324791 236.038914 -75.599859 236.020262 -77.875 236 C-80.893225 235.973491 -83.91139 235.953497 -86.929688 235.9375 C-87.624402 235.929202 -88.319116 235.920903 -89.034882 235.912354 C-90.690157 235.903784 -92.345561 235.946708 -94 236 C-95.776749 237.776749 -95.126157 240.366104 -95.126984 242.770142 C-95.129803 244.02378 -95.132623 245.277419 -95.135529 246.569046 C-95.133584 247.971161 -95.131536 249.373276 -95.129395 250.775391 C-95.130749 252.241878 -95.132528 253.708364 -95.134705 255.17485 C-95.139279 259.168541 -95.137489 263.162206 -95.134326 267.155897 C-95.131802 271.326141 -95.134139 275.496382 -95.135712 279.666626 C-95.137533 286.671147 -95.135127 293.675657 -95.130371 300.680176 C-95.124928 308.790053 -95.126691 316.899905 -95.132197 325.009781 C-95.136729 331.96008 -95.137379 338.910372 -95.134759 345.860672 C-95.133196 350.017333 -95.133002 354.173982 -95.136295 358.330643 C-95.139174 362.237564 -95.137199 366.144453 -95.131401 370.051371 C-95.130073 371.489352 -95.130468 372.927336 -95.132664 374.365316 C-95.135375 376.320163 -95.131381 378.275015 -95.126984 380.229858 C-95.126607 381.326415 -95.12623 382.422972 -95.125841 383.552757 C-95 386 -95 386 -94 387 C-91.596715 387.097665 -89.222206 387.129968 -86.818466 387.120255 C-86.058071 387.121109 -85.297676 387.121963 -84.514238 387.122844 C-81.946888 387.124501 -79.379601 387.118973 -76.812256 387.113525 C-74.979619 387.113244 -73.146983 387.113401 -71.314346 387.113968 C-66.322819 387.114256 -61.331316 387.108358 -56.339795 387.101394 C-51.129409 387.095162 -45.919023 387.094557 -40.708633 387.093369 C-30.83469 387.090255 -20.960757 387.082041 -11.086818 387.072019 C2.25066 387.058774 15.588142 387.053358 28.925626 387.047517 C49.950425 387.038101 70.975202 387.018182 92 387 C92 351.69 92 316.38 92 280 C82.312695 279.951016 72.625391 279.902031 62.644531 279.851562 C56.514965 279.816186 50.385408 279.780312 44.255859 279.742188 C34.522402 279.68174 24.788962 279.623346 15.05542 279.578125 C7.966856 279.545183 0.878369 279.50534 -6.210109 279.45721 C-9.963369 279.431967 -13.716578 279.410179 -17.4699 279.396656 C-21.659979 279.38143 -25.84981 279.350796 -30.039795 279.318848 C-31.284168 279.316687 -32.528542 279.314527 -33.810623 279.312302 C-34.953407 279.301138 -36.096191 279.289975 -37.273605 279.278473 C-38.264533 279.272942 -39.25546 279.267411 -40.276416 279.261713 C-43.211966 278.979632 -45.370143 278.32359 -48 277 C-48.9375 275 -48.9375 275 -49 273 C-47 271 -47 271 -44.587026 270.75784 C-44.076289 270.759621 -44.076289 270.759621 -41.491653 270.768631 C-40.321039 270.767584 -39.150424 270.766536 -37.944336 270.765457 C-36.65342 270.774294 -35.362505 270.783131 -34.032471 270.792236 C-32.664242 270.794397 -31.296011 270.795584 -29.92778 270.795868 C-26.97684 270.797926 -24.025985 270.805641 -21.075068 270.817301 C-16.406053 270.834433 -11.737193 270.831216 -7.068161 270.823654 C6.210422 270.804453 19.488805 270.797742 32.767334 270.845459 C40.097737 270.871634 47.4277 270.872905 54.758107 270.846312 C58.636947 270.833329 62.514832 270.833328 66.393591 270.864176 C70.04576 270.893161 73.696468 270.88962 77.348631 270.861568 C79.321379 270.854951 81.29415 270.882988 83.266693 270.912186 C92.96533 270.788189 92.96533 270.788189 97.188553 266.548874 C98.129382 265.368841 99.067067 264.186286 100 263 C107.488793 258.281497 116.493785 256.126554 125 254 C126.046719 253.733164 127.093437 253.466328 128.171875 253.191406 C149.436701 248.374374 171.618034 247.680989 193.344971 247.290527 C194.050491 247.27675 194.756011 247.262974 195.48291 247.248779 C197.402334 247.213115 199.321896 247.185164 201.241455 247.157715 C204 247 204 247 205 246 C205.095912 244.431124 205.12188 242.857922 205.120255 241.286118 C205.121629 240.26663 205.123004 239.247143 205.12442 238.196762 C205.120825 237.068918 205.11723 235.941074 205.113525 234.779053 C205.113598 234.188889 205.113598 234.188889 205.113968 231.202301 C205.113389 227.956579 205.10836 224.710899 205.101394 221.465186 C205.09516 218.07657 205.094557 214.687953 205.093369 211.299332 C205.090255 204.878442 205.082042 198.457569 205.072019 192.036687 C205.060857 184.728462 205.055347 177.420236 205.050324 170.112004 C205.03986 155.07466 205.022261 140.037332 205 125 C203.756075 124.996354 202.51215 124.992709 201.23053 124.988953 C189.517567 124.952039 177.804868 124.894306 166.092106 124.816097 C160.070182 124.776559 154.048405 124.744402 148.026367 124.729004 C142.216619 124.713879 136.407277 124.679508 130.59771 124.631691 C128.379346 124.616834 126.160925 124.608957 123.942513 124.608116 C120.839163 124.605758 117.736944 124.578769 114.633789 124.545898 C113.713096 124.550929 112.792404 124.555959 111.843811 124.561142 C108.181787 124.500984 105.680787 124.368985 102.432007 122.608154 C100.147174 118.446723 100.430264 114.396821 100.454102 109.723633 C100.443764 108.679417 100.433426 107.635201 100.422775 106.559341 C100.393273 103.107113 100.391846 99.65547 100.390625 96.203125 C100.375648 93.809864 100.358922 91.416613 100.340515 89.023376 C100.296771 82.723648 100.276827 76.42406 100.26178 70.124207 C100.238798 62.565851 100.18636 55.00765 100.13884 47.449417 C100.06995 35.966238 100.038561 24.483502 100 13 C73.6 13 47.2 13 20 13 Z M110 24 C110 54.03 110 84.06 110 115 C138.05 115 166.1 115 195 115 C195 109.575951 194.967208 109.346582 191.5 105.75 C191.089434 105.31623 191.089434 105.31623 189.011719 103.121094 C188.539116 102.632378 188.066514 102.143662 187.57959 101.640137 C185.81441 99.807296 184.072186 97.95427 182.332031 96.097656 C179.602817 93.186494 176.868451 90.28035 174.128906 87.378906 C165.561781 78.300192 157.060745 69.160527 148.604004 59.979004 C144.00924 54.996931 139.382394 50.045033 134.729248 45.117432 C131.475591 41.667393 128.262626 38.190684 125.109375 34.648438 C124.482085 33.952183 123.854795 33.255928 123.208496 32.538574 C122.01272 31.20905 120.827552 29.869884 119.654785 28.52002 C119.11644 27.925601 118.578096 27.331182 118.023438 26.71875 C117.558569 26.192168 117.093701 25.665586 116.614746 25.123047 C115 24 115 24 110 24 Z M-159 209 C-159.375842 209.65146 -159.751685 210.30292 -160.138916 210.974121 C-161.283189 212.957528 -162.427478 214.940925 -163.571777 216.924316 C-164.914663 219.252051 -166.257453 221.579841 -167.600098 223.907715 C-171.070535 229.92442 -174.542757 235.940079 -178.019531 241.953125 C-189.21933 261.328369 -189.21933 261.328369 -194.375 270.4375 C-194.738354 271.075747 -195.101709 271.713994 -195.476074 272.371582 C-199.384645 279.314769 -200.504499 286.534864 -198.351562 294.355469 C-196.082488 299.368765 -192.550305 302.948868 -188 306 C-181.561432 308.146189 -172.891456 308.278676 -166.5625 305.625 C-158.579812 300.696998 -154.546323 290.557958 -150.184082 282.58374 C-146.565793 275.969497 -142.805992 269.445331 -139 262.9375 C-138.407434 261.92043 -137.814868 260.903359 -137.204346 259.855469 C-134.472664 255.177525 -131.718799 250.517898 -128.882812 245.902344 C-128.413594 245.13092 -127.944375 244.359497 -127.460938 243.564697 C-126.599834 242.153286 -125.728176 240.748233 -124.84375 239.351318 C-122.441593 235.397258 -121.530224 232.626586 -122 228 C-122.507488 227.744202 -123.014976 227.488403 -123.537842 227.224854 C-133.307155 222.271228 -142.612239 217.269296 -151.335938 210.617188 C-154.289174 208.82446 -155.639466 208.85444 -159 209 Z M102 271 C101.4375 273.375 101.4375 273.375 102 276 C114.448354 285.592885 132.908235 286.975614 148 289 C148.884619 289.120044 149.769238 289.240088 150.680664 289.36377 C180.235741 293.12115 212.481943 293.005638 242 289 C243.000635 288.865776 244.00127 288.731553 245.032227 288.593262 C259.865446 286.525587 274.605394 284.023008 288 277 C288 275.02 288 273.04 288 271 C266.542085 258.036992 236.813362 256.884114 212.433594 256.796875 C211.16065 256.791175 209.887705 256.785475 208.576187 256.779602 C205.889378 256.770204 203.20268 256.763282 200.515869 256.759766 C196.500649 256.753289 192.485804 256.719113 188.470703 256.6875 C123.864949 256.423368 123.864949 256.423368 102 271 Z M102 288 C102 300.87 102 313.74 102 327 C126.215911 338.007232 153.181579 341.100563 179.65625 341.203125 C180.247144 341.205975 180.247144 341.205975 183.237427 341.220398 C185.731681 341.22979 188.225946 341.236359 190.720215 341.240234 C194.434808 341.249832 198.14882 341.280867 201.863281 341.3125 C228.695308 341.430727 260.320256 341.149442 285 329 C285.70415 328.656787 286.408301 328.313574 287.133789 327.959961 C289.583739 325.386937 289.454558 323.319556 289.453186 319.866409 C289.432541 319.05069 289.411896 318.23497 289.390625 317.394531 C289.387795 316.974929 289.387795 316.974929 289.373474 314.851486 C289.351084 312.171244 289.300885 309.492338 289.25 306.8125 C289.229938 304.995462 289.211687 303.178403 289.195312 301.361328 C289.151211 296.907037 289.082167 292.453745 289 288 C284.764618 287.818003 281.731774 288.239096 277.816406 289.839844 C232.773495 307.075303 153.548683 308.004429 109.421875 288.882812 C107 288 107 288 102 288 Z M278 340.25 C233.789908 356.881979 154.574304 359.260757 111.060059 339.568359 C109 339 109 339 102 339 C102 351.54 102 364.08 102 377 C108.562729 380.281365 113.902429 382.904983 120.8125 384.625 C121.628154 384.831008 122.443809 385.037017 123.28418 385.249268 C170.12939 396.612577 243.654936 401.61429 287 378 C289 376 289 376 289.227051 372.284668 C289.226734 370.687139 289.2154 369.08959 289.195312 367.492188 C289.192483 366.651568 289.189653 365.810948 289.186737 364.944855 C289.175524 362.25476 289.150418 359.564995 289.125 356.875 C289.114972 355.05339 289.105846 353.231775 289.097656 351.410156 C289.075581 346.939976 289.041044 342.470044 289 338 C284.738708 337.890782 281.966089 338.636346 278 340.25 Z M102 389 C101.851584 394.338418 101.742755 399.675633 101.67041 405.015625 C101.640252 406.831593 101.599318 408.647415 101.547363 410.462891 C101.474499 413.074584 101.440536 415.684351 101.414062 418.296875 C101.383095 419.107433 101.352127 419.917992 101.320221 420.753113 C101.31889 422.986875 101.389418 424.85061 102 427 C105.194747 429.832324 108.404794 431.404333 112.476562 432.597656 C113.30124 432.840322 114.125918 433.082988 114.975586 433.333008 C115.849893 433.57374 116.724199 433.814473 117.625 434.0625 C118.550869 434.31999 119.476738 434.57748 120.430664 434.842773 C129.87199 437.373934 139.295806 438.916531 149 440 C149.863188 440.102964 150.726377 440.205928 151.615723 440.312012 C193.395422 445.12135 251.423086 448.472522 289 427 C289 414.46 289 401.92 289 389 C279.114377 390.098403 279.114377 390.098403 274.375 391.8125 C229.838014 406.087175 150.944938 410.472469 108 389 C106.0004 388.960008 103.999528 388.956532 102 389 Z " fill="#111111" transform="translate(211,42)"/><path d="M0 0 C0.703828 0.538828 1.407656 1.077656 2.132812 1.632812 C22.019198 17.654638 33.28334 43.877971 36.46875 68.644531 C38.716874 93.041781 31.331406 119.11753 16.140625 138.464844 C15.434219 139.301445 14.727812 140.138047 14 141 C13.190469 141.970664 12.380937 142.941328 11.546875 143.941406 C-7.498641 166.077875 -33.683183 178.027612 -62.660156 180.285156 C-90.369341 181.016857 -115.558367 169.563664 -135.902344 151.410156 C-155.185916 132.992046 -166.51782 108.42984 -168.203125 81.789062 C-168.631432 52.878322 -157.782025 26.87226 -138 6 C-100.100961 -32.873934 -41.159782 -33.343087 0 0 Z M-135.625 15.625 C-152.288822 34.941917 -159.547635 59.712749 -158 85 C-156.342117 105.516301 -148.846541 124.649068 -135 140 C-134.53207 140.582656 -134.064141 141.165312 -133.582031 141.765625 C-131.387978 143.477528 -129.713382 143.087181 -127 143 C-126.980181 142.289807 -126.960361 141.579614 -126.939941 140.8479 C-126.843848 137.58577 -126.734514 134.324207 -126.625 131.0625 C-126.594063 129.945527 -126.563125 128.828555 -126.53125 127.677734 C-126.12219 116.053614 -124.732895 105.883182 -116.25 97.210938 C-110.84465 92.81909 -104.463774 90.434688 -98 88 C-97.737805 85.043882 -97.683993 83.474466 -99.355469 80.964844 C-99.960039 80.29582 -100.564609 79.626797 -101.1875 78.9375 C-109.376745 69.020706 -111.851396 57.581739 -111 45 C-108.882719 32.978149 -102.079378 21.597309 -92.3125 14.375 C-81.728257 7.223912 -70.671966 4.614004 -58 6 C-44.856154 9.027973 -34.90097 16.149104 -27 27 C-20.839321 37.961005 -18.118411 49.136452 -21.1875 61.5 C-23.253954 68.359074 -25.978369 74.944287 -30.8125 80.3125 C-33.293678 83.360804 -33.220201 84.243997 -33 88 C-32.214961 88.30293 -31.429922 88.605859 -30.621094 88.917969 C-20.134102 93.099898 -13.376811 96.800364 -8 107 C-5.04226 114.943163 -4.484853 122.78162 -4.3125 131.1875 C-4.27834 132.330254 -4.24418 133.473008 -4.208984 134.650391 C-4.127471 137.433495 -4.058013 140.216323 -4 143 C0.728027 143.211914 0.728027 143.211914 3.175781 141.304688 C20.617962 121.470982 28.040937 97.187776 27 71 C25.229802 47.228766 15.49664 25.172646 -1.984375 8.671875 C-41.980487 -24.503195 -99.42917 -22.267509 -135.625 15.625 Z M-94 26 C-101.862953 36.472713 -103.136243 47.31855 -102 60 C-100.405616 68.763763 -95.745526 75.292247 -89 81 C-78.593819 87.49726 -68.42516 89.577545 -56.246094 87.539062 C-47.155772 85.120667 -39.233378 79.881978 -34 72 C-28.642411 61.868662 -27.354346 51.069653 -29.648438 39.820312 C-32.911086 29.976595 -38.505208 23.292823 -47.472656 18.191406 C-63.030052 10.857549 -81.866437 13.796838 -94 26 Z M-112.875 104.875 C-118.390597 112.986171 -117.545267 122.211187 -117.645264 131.640137 C-117.673427 133.547105 -117.721294 135.453883 -117.788818 137.359863 C-118.344407 153.11467 -118.344407 153.11467 -115.213623 157.505127 C-112.846244 159.139643 -110.722959 160.092799 -108 161 C-106.727361 161.596584 -105.455185 162.194155 -104.183594 162.792969 C-79.655104 171.924013 -53.638467 173.498197 -29.058594 163.402344 C-16.766509 157.766509 -16.766509 157.766509 -14 155 C-13.861385 152.159834 -13.786758 149.345852 -13.761719 146.503906 C-13.757683 146.072551 -13.757683 146.072551 -13.737259 143.889633 C-13.723392 142.054454 -13.712682 140.219248 -13.704834 138.384033 C-13.687762 135.605113 -13.643918 132.827427 -13.599609 130.048828 C-13.420997 110.07118 -13.420997 110.07118 -20.035156 102.746094 C-20.70418 102.314258 -21.373203 101.882422 -22.0625 101.4375 C-22.734102 100.982461 -23.405703 100.527422 -24.097656 100.058594 C-28.074218 97.845764 -31.440388 97.857789 -35.914795 97.822998 C-36.614393 97.816427 -37.313992 97.809856 -38.03479 97.803085 C-40.350017 97.783377 -42.66518 97.771693 -44.980469 97.761719 C-45.773109 97.757643 -46.56575 97.753568 -47.38241 97.749369 C-51.580214 97.728516 -55.777985 97.714212 -59.97583 97.704834 C-64.298897 97.693789 -68.621447 97.659409 -72.944331 97.619662 C-76.279067 97.593436 -79.613681 97.585137 -82.948511 97.581553 C-84.541227 97.5767 -86.133938 97.565123 -87.726553 97.546515 C-105.970453 97.346649 -105.970453 97.346649 -112.875 104.875 Z " fill="#111111" transform="translate(202,71)"/><path d="M0 0 C3.297148 0.329715 4.622684 0.622684 7 3 C6.9375 5.5 6.9375 5.5 6 8 C3.6875 9.5 3.6875 9.5 1 10 C-1.3125 8.625 -1.3125 8.625 -3 7 C-2.25 2.25 -2.25 2.25 0 0 Z " fill="#111111" transform="translate(336,351)"/><path d="M0 0 C0.454621 -0.004162 0.454621 -0.004162 2.75528 -0.025223 C5.766747 -0.049356 8.777997 -0.058099 11.789551 -0.064697 C13.880789 -0.073661 15.972026 -0.082783 18.063263 -0.092056 C22.449743 -0.108558 26.836147 -0.116249 31.222656 -0.119141 C36.844214 -0.124526 42.465054 -0.162209 48.086409 -0.207885 C52.406694 -0.237623 56.726805 -0.244863 61.047184 -0.245867 C63.119653 -0.250075 65.192123 -0.262535 67.264492 -0.283384 C70.163845 -0.310231 73.061524 -0.305493 75.960938 -0.292969 C76.817217 -0.307803 77.673497 -0.322637 78.555725 -0.337921 C83.033859 -0.282818 84.593743 -0.119943 88.181671 2.843857 C88.817975 3.656495 89.454278 4.469133 90.109863 5.306396 C88.685059 7.766953 88.685059 7.766953 86.109863 10.306396 C83.054073 11.070051 80.043129 10.979314 76.906738 10.9375 C76.441487 10.941078 76.441487 10.941078 74.087036 10.959183 C71.010813 10.976093 67.936042 10.956653 64.859863 10.935303 C62.722818 10.936131 60.585772 10.93859 58.44873 10.942612 C53.969694 10.945471 49.491158 10.930752 45.012207 10.90332 C39.268414 10.869238 33.525514 10.875254 27.781677 10.893983 C23.368739 10.904547 18.956009 10.89562 14.543091 10.880598 C12.425177 10.875412 10.307242 10.875904 8.189331 10.882143 C5.230074 10.887588 2.272099 10.867242 -0.687012 10.839844 C-1.564017 10.84637 -2.441023 10.852896 -3.344604 10.859619 C-9.308514 10.765638 -9.308514 10.765638 -12.465332 8.273056 C-12.935518 7.624058 -13.405703 6.975061 -13.890137 6.306396 C-11.015785 -0.326722 -6.529872 0.005045 0 0 Z " fill="#111111" transform="translate(174.89013671875,368.693603515625)"/><path d="M0 0 C1.010625 0.0825 2.02125 0.165 3.0625 0.25 C5.0625 3.25 5.0625 3.25 4.8125 5.3125 C4.0625 7.25 4.0625 7.25 2.0625 9.25 C-1.234648 8.920285 -2.560184 8.627316 -4.9375 6.25 C-4.219094 0.359072 -4.219094 0.359072 0 0 Z " fill="#111111" transform="translate(337.9375,401.75)"/><path d="M0 0 C3.297148 0.329715 4.622684 0.622684 7 3 C6.9375 5.5 6.9375 5.5 6 8 C3.6875 9.5 3.6875 9.5 1 10 C-1.3125 8.625 -1.3125 8.625 -3 7 C-2.25 2.25 -2.25 2.25 0 0 Z " fill="#111111" transform="translate(336,452)"/></svg>