<svg xmlns="http://www.w3.org/2000/svg" viewBox="0 0 512 512" width="512" height="512"><path d="M0 0 C16.623284 13.07375 27.978754 31.11356 30.945312 52.316406 C31.184468 55.234802 31.283219 58.138843 31.320312 61.066406 C31.33425 61.731724 31.348188 62.397041 31.362549 63.08252 C31.313505 68.543621 30.395328 73.781674 29.42041 79.137695 C29.279122 79.925323 29.137834 80.71295 28.992264 81.524445 C28.64553 83.455504 28.295729 85.386012 27.945312 87.316406 C28.871595 87.309744 29.797877 87.303083 30.752228 87.296219 C39.491721 87.236048 48.231144 87.190402 56.970797 87.16097 C61.463694 87.14533 65.95642 87.124122 70.449219 87.090088 C74.786962 87.057435 79.124541 87.039541 83.462399 87.031775 C85.115371 87.026242 86.768335 87.015437 88.421238 86.999216 C90.74082 86.977363 93.059726 86.974443 95.379395 86.97583 C96.698438 86.969168 98.017481 86.962506 99.376495 86.955643 C104.501085 87.473676 107.777958 88.925 111.09375 92.877197 C113.440333 97.235889 115.012453 101.654509 116.570312 106.34375 C116.909588 107.33939 117.248863 108.335029 117.598419 109.36084 C118.334261 111.521265 119.066477 113.682927 119.795471 115.845673 C121.780175 121.728514 123.795979 127.600659 125.8125 133.472656 C126.231838 134.694763 126.651176 135.91687 127.083221 137.17601 C131.587923 150.259532 136.313187 163.260449 141.070312 176.253906 C142.744167 180.826576 144.417654 185.399378 146.089844 189.972656 C146.497021 191.086165 146.904199 192.199673 147.323715 193.346924 C150.100214 200.956678 152.826335 208.583048 155.519531 216.222656 C155.881919 217.24944 156.244307 218.276223 156.617676 219.334122 C158.30638 224.122785 159.988019 228.913757 161.658691 233.70874 C164.889472 242.924353 168.36624 251.926398 172.404297 260.819824 C187.395515 294.835069 185.311897 333.492636 184.888672 369.833008 C184.827073 375.187747 184.794426 380.54226 184.768614 385.897276 C184.744404 390.059859 184.702233 394.222116 184.654881 398.384495 C184.635104 400.361154 184.621571 402.337887 184.614559 404.314632 C184.60277 407.057832 184.566017 409.799618 184.522949 412.54248 C184.524837 413.346538 184.526726 414.150596 184.528671 414.979019 C184.413125 420.138428 183.601363 423.39357 179.945312 427.316406 C175.002427 429.103659 170.42391 429.604202 165.21627 429.570882 C164.465718 429.574088 163.715165 429.577295 162.941869 429.580598 C160.430691 429.58889 157.919751 429.582977 155.408569 429.577103 C153.588478 429.580124 151.768388 429.584013 149.948301 429.588695 C144.949515 429.59899 139.9508 429.59679 134.952008 429.592515 C129.559983 429.59005 124.167974 429.599058 118.775955 429.606552 C108.214039 429.619308 97.652148 429.621092 87.090226 429.618752 C78.507306 429.61697 69.924395 429.618716 61.341476 429.622976 C60.120512 429.623571 58.899547 429.624167 57.641583 429.62478 C55.161317 429.625992 52.681051 429.627206 50.200785 429.628422 C26.936266 429.639301 3.671761 429.637134 -19.592759 429.631037 C-40.885114 429.625867 -62.177404 429.637128 -83.469751 429.656136 C-105.325581 429.675497 -127.181389 429.683773 -149.037227 429.680012 C-161.310544 429.678098 -173.583822 429.680611 -185.857132 429.694727 C-196.303991 429.70662 -206.750788 429.708069 -217.197648 429.695937 C-222.529106 429.690034 -227.86045 429.688987 -233.1919 429.700939 C-238.07101 429.71175 -242.949907 429.708752 -247.829006 429.694677 C-249.595397 429.692017 -251.361804 429.694438 -253.128179 429.702413 C-255.527591 429.712496 -257.926263 429.704118 -260.325645 429.691136 C-261.012772 429.698446 -261.699898 429.705755 -262.407846 429.713286 C-267.372576 429.65754 -270.714478 428.564092 -275.054688 426.316406 C-279.421322 420.908605 -278.53239 413.689469 -278.566406 407.074219 C-278.57545 406.422152 -278.57545 406.422152 -278.621216 403.122299 C-278.669265 399.617957 -278.699204 396.113688 -278.72485 392.609119 C-278.753792 388.990533 -278.797511 385.372121 -278.839111 381.753662 C-278.916278 374.802435 -278.973348 367.851174 -279.025391 360.899719 C-279.057425 356.981561 -279.102793 353.06371 -279.151947 349.145737 C-279.573986 314.599171 -275.734939 283.019018 -262.863281 250.820312 C-262.030579 248.735945 -261.198591 246.651292 -260.367188 244.566406 C-259.91658 243.436946 -259.465972 242.307485 -259.001709 241.143799 C-251.456873 222.06271 -244.8185 202.628424 -237.957062 183.294708 C-231.707801 165.692191 -225.37531 148.119621 -219.02449 130.553528 C-217.147269 125.357588 -215.283017 120.157375 -213.4366 114.950409 C-212.420892 112.08997 -211.396902 109.232547 -210.37088 106.375793 C-209.706165 104.515506 -209.052913 102.651135 -208.400146 100.786621 C-208.010286 99.705903 -207.620425 98.625186 -207.21875 97.511719 C-206.893423 96.594067 -206.568096 95.676416 -206.23291 94.730957 C-204.769115 91.731178 -203.826994 90.238085 -201.054688 88.316406 C-197.761537 87.654787 -194.495987 87.619186 -191.144531 87.570312 C-190.138896 87.541596 -189.133261 87.512879 -188.097153 87.483292 C-174.940977 87.153623 -161.776277 87.20882 -148.617188 87.253906 C-146.024089 87.258938 -143.43099 87.263498 -140.837891 87.267578 C-134.576801 87.278433 -128.315749 87.295033 -122.054688 87.316406 C-122.266174 86.188557 -122.477661 85.060708 -122.695557 83.898682 C-122.973104 82.383027 -123.25035 80.867318 -123.527344 79.351562 C-123.666764 78.612487 -123.806184 77.873411 -123.949829 77.111938 C-127.884177 55.393156 -122.7447 36.546252 -111.039062 18.148438 C-98.993056 0.956795 -80.919614 -10.646768 -60.367188 -15.210938 C-38.877274 -18.277305 -17.740586 -12.465719 0 0 Z M-96.054688 16.316406 C-96.694063 16.931289 -97.333438 17.546172 -97.992188 18.179688 C-109.683578 30.366919 -113.645456 46.826155 -113.492188 63.253906 C-113.484614 64.395452 -113.477041 65.536997 -113.469238 66.713135 C-113.308395 74.92611 -112.570082 81.799211 -109.054688 89.316406 C-108.665391 90.213594 -108.276094 91.110781 -107.875 92.035156 C-99.441238 109.40172 -85.7912 119.616456 -68.054688 126.316406 C-67.404758 126.470933 -66.754829 126.625459 -66.085205 126.784668 C-62.747032 127.698454 -60.674044 128.469267 -58.5896 131.320312 C-57.293419 133.819999 -56.181003 136.334579 -55.117188 138.941406 C-54.358943 140.683972 -53.599873 142.42618 -52.839844 144.167969 C-52.518948 144.939634 -52.198052 145.711299 -51.867432 146.506348 C-51.054688 148.316406 -51.054688 148.316406 -50.054688 149.316406 C-48.055104 149.357214 -46.054235 149.35895 -44.054688 149.316406 C-43.523594 148.219414 -42.9925 147.122422 -42.445312 145.992188 C-41.732096 144.537601 -41.018536 143.083183 -40.304688 141.628906 C-39.956641 140.907676 -39.608594 140.186445 -39.25 139.443359 C-34.285233 129.375915 -34.285233 129.375915 -29.242188 126.980469 C-28.71625 126.809023 -28.71625 126.809023 -26.054688 125.941406 C-7.51901 119.257769 5.641408 107.208557 14.585938 89.796875 C18.173919 80.610405 19.479029 71.766181 19.382812 61.941406 C19.375239 60.849409 19.367666 59.757412 19.359863 58.632324 C19.189407 50.262532 18.258223 43.084611 14.945312 35.316406 C14.544414 34.372813 14.143516 33.429219 13.730469 32.457031 C5.957822 16.506208 -8.867736 4.743109 -25.199219 -1.503906 C-32.193131 -3.880478 -38.831551 -4.224074 -46.179688 -4.183594 C-46.774227 -4.181096 -46.774227 -4.181096 -49.782959 -4.168457 C-68.682356 -3.795536 -82.628892 3.140076 -96.054688 16.316406 Z M-193.054688 100.316406 C-193.054688 138.596406 -193.054688 176.876406 -193.054688 216.316406 C-96.694687 216.316406 -0.334687 216.316406 98.945312 216.316406 C98.945312 178.036406 98.945312 139.756406 98.945312 100.316406 C82.7025 99.639622 66.574686 99.076007 50.338135 99.02124 C47.917178 99.009519 45.49625 98.988767 43.075439 98.959717 C39.517569 98.917319 35.960435 98.900937 32.402344 98.890625 C31.322255 98.873117 30.242167 98.855609 29.129349 98.83757 C21.70272 98.859226 21.70272 98.859226 17.822021 101.20166 C15.88974 103.379027 14.540551 105.425532 13.195312 108.003906 C4.876985 122.396942 -9.40807 129.787166 -24.429688 135.628906 C-31.345898 140.075042 -34.408744 150.007495 -37.742188 157.191406 C-38.700507 159.253129 -39.662565 161.313119 -40.628906 163.371094 C-41.047449 164.273276 -41.465991 165.175459 -41.897217 166.10498 C-43.054688 168.316406 -43.054688 168.316406 -45.054688 170.316406 C-47.441406 170.382812 -47.441406 170.382812 -50.054688 169.316406 C-51.588653 166.937383 -52.725378 164.812846 -53.867188 162.253906 C-54.205566 161.545244 -54.543945 160.836582 -54.892578 160.106445 C-56.322869 157.107064 -57.708159 154.089123 -59.067871 151.057129 C-59.727825 149.589095 -60.397362 148.125329 -61.076904 146.66626 C-61.711555 145.303307 -62.325124 143.930262 -62.91333 142.546631 C-65.835444 136.311027 -70.384788 134.70332 -76.566406 132.367188 C-77.284414 132.123555 -78.002422 131.879922 -78.742188 131.628906 C-92.503721 126.208979 -103.606476 115.638646 -111.546875 103.382812 C-113.054688 101.316406 -113.054688 101.316406 -116.054688 99.316406 C-141.145389 97.123394 -168.294921 99.740598 -193.054688 100.316406 Z M-210.054688 139.316406 C-212.916468 146.317334 -215.558392 153.374769 -218.082031 160.503906 C-218.463508 161.575918 -218.844985 162.647929 -219.238022 163.752426 C-220.061274 166.065954 -220.883744 168.37976 -221.705505 170.693817 C-223.922493 176.935636 -226.146113 183.17509 -228.371094 189.414062 C-228.486248 189.737026 -228.486248 189.737026 -229.069 191.371416 C-235.755604 210.119684 -242.55076 228.828665 -249.345383 247.537994 C-250.538158 250.827284 -251.72594 254.118343 -252.913086 257.409668 C-254.246371 261.103115 -255.601618 264.786601 -256.985352 268.461426 C-257.128422 268.848066 -257.128422 268.848066 -257.852448 270.804703 C-258.361909 272.181258 -258.880646 273.554444 -259.411957 274.922714 C-261.226069 279.881279 -261.054688 282.567222 -261.054688 288.316406 C-250.164688 288.316406 -239.274687 288.316406 -228.054688 288.316406 C-226.734688 285.016406 -225.414688 281.716406 -224.054688 278.316406 C-222.94412 275.974397 -221.833168 273.632518 -220.704941 271.298965 C-200.477747 228.560559 -203.023801 185.512461 -205.054688 139.316406 C-206.704688 139.316406 -208.354688 139.316406 -210.054688 139.316406 Z M110.945312 139.316406 C110.132059 146.927836 109.785684 154.445239 109.777344 162.097656 C109.774015 163.191224 109.770687 164.284792 109.767258 165.411499 C109.762226 167.714107 109.759848 170.016722 109.76001 172.319336 C109.757836 175.779424 109.739674 179.239187 109.720703 182.699219 C109.67904 198.945331 110.307432 215.035957 113.570312 231.003906 C113.734346 231.80949 113.898379 232.615073 114.067383 233.445068 C118.171398 252.335396 125.306497 271.038776 133.945312 288.316406 C144.835312 288.316406 155.725312 288.316406 166.945312 288.316406 C166.239385 280.551204 165.548163 275.039352 162.898438 268.0625 C162.588358 267.212237 162.278278 266.361975 161.958801 265.485947 C161.299093 263.678568 160.634095 261.873113 159.964111 260.069519 C158.615347 256.424737 157.308415 252.765539 156.000198 249.106049 C154.610505 245.222413 153.209258 241.342979 151.808685 237.463257 C149.853403 232.046584 147.901408 226.628726 145.949219 221.210938 C145.543673 220.085616 145.138127 218.960295 144.720291 217.800873 C140.010338 204.727785 135.320734 191.647408 130.632812 178.566406 C130.230988 177.445335 129.829163 176.324263 129.415161 175.16922 C128.63466 172.991596 127.854252 170.813939 127.073944 168.636246 C126.342259 166.594499 125.610275 164.552858 124.87796 162.511337 C123.352418 158.256377 121.830722 154.000313 120.330566 149.736328 C120.212932 149.402975 120.212932 149.402975 119.61763 147.716003 C119.019881 146.019487 118.425423 144.321813 117.831299 142.624023 C116.945312 140.316406 116.945312 140.316406 115.945312 139.316406 C114.279141 139.275768 112.611432 139.273685 110.945312 139.316406 Z M-196.054688 228.316406 C-196.850217 230.216082 -197.644758 232.116172 -198.438889 234.016434 C-198.881456 235.074501 -199.324023 236.132569 -199.780002 237.222699 C-202.519422 243.871369 -204.958567 250.632141 -207.41333 257.389893 C-208.052021 259.140202 -208.696939 260.888251 -209.3479 262.634033 C-210.302043 265.193793 -211.236913 267.759892 -212.167969 270.328125 C-212.458516 271.097106 -212.749064 271.866087 -213.048416 272.658371 C-213.312568 273.399768 -213.57672 274.141165 -213.848877 274.905029 C-214.082504 275.54168 -214.316132 276.178331 -214.556839 276.834274 C-215.321241 280.645367 -215.145231 284.442644 -215.054688 288.316406 C-213.908137 288.326714 -212.761586 288.337021 -211.580292 288.347641 C-200.72409 288.445808 -189.86794 288.548578 -179.011824 288.655746 C-173.431892 288.710683 -167.851954 288.764053 -162.271973 288.813721 C-156.877299 288.861798 -151.482682 288.91415 -146.088078 288.969347 C-144.039841 288.989576 -141.991589 289.008318 -139.943325 289.02548 C-105.287194 289.319039 -105.287194 289.319039 -99.367188 294.910156 C-96.897233 299.438405 -95.733548 304.472216 -94.304688 309.40625 C-91.735696 317.982936 -91.735696 317.982936 -89.054688 320.316406 C-84.667429 321.27661 -80.448152 321.447747 -75.967041 321.46167 C-75.284905 321.465029 -74.60277 321.468387 -73.899963 321.471848 C-71.661155 321.481291 -69.422421 321.483297 -67.183594 321.484375 C-65.617101 321.487592 -64.050608 321.490956 -62.484116 321.494461 C-59.20677 321.500435 -55.92945 321.502303 -52.6521 321.501709 C-48.464825 321.501607 -44.27772 321.51527 -40.090486 321.532481 C-36.857022 321.54363 -33.6236 321.545627 -30.39012 321.545099 C-28.846846 321.546275 -27.303571 321.550672 -25.760317 321.558432 C-23.597335 321.568292 -21.434717 321.56533 -19.271729 321.559326 C-18.044063 321.560751 -16.816397 321.562176 -15.551529 321.563644 C-10.874418 321.232957 -6.695257 320.418532 -2.769531 317.78125 C0.229857 313.470057 0.853363 308.388537 1.923828 303.314453 C3.168283 297.963715 4.434154 294.823535 8.945312 291.316406 C12.102075 290.264152 14.495707 290.122644 17.814453 290.019775 C19.039344 289.980736 20.264236 289.941696 21.526245 289.901474 C22.884674 289.863636 24.243114 289.826178 25.601562 289.789062 C26.298588 289.768645 26.995613 289.748227 27.71376 289.72719 C45.751003 289.199415 63.793633 288.990812 81.836853 288.78418 C86.270169 288.732727 90.703441 288.677707 95.136719 288.623047 C103.739545 288.517474 112.34241 288.415638 120.945312 288.316406 C120.507299 282.497757 119.868226 277.200158 117.90625 271.664062 C117.49375 270.483684 117.08125 269.303306 116.65625 268.087158 C116.215391 266.863435 115.774531 265.639712 115.320312 264.378906 C114.866405 263.096875 114.413287 261.814564 113.960938 260.531982 C113.059097 257.982827 112.149957 255.436478 111.233398 252.892578 C110.079129 249.687928 108.936713 246.479332 107.796875 243.269531 C107.181136 241.555469 106.564062 239.841885 105.945312 238.128906 C105.667358 237.352327 105.389404 236.575747 105.103027 235.775635 C103.180991 230.552085 103.180991 230.552085 100.945312 228.316406 C98.792543 228.068009 98.792543 228.068009 96.060858 228.070311 C95.022307 228.066328 93.983757 228.062346 92.913735 228.058244 C91.763949 228.064069 90.614163 228.069895 89.429535 228.075897 C88.215011 228.074188 87.000487 228.07248 85.749159 228.070719 C82.367325 228.067985 78.98572 228.074269 75.603913 228.084275 C71.961106 228.092886 68.318306 228.089991 64.675491 228.08847 C58.360531 228.08742 52.045613 228.093712 45.730663 228.104946 C36.600233 228.121178 27.469823 228.126407 18.33938 228.128922 C3.527023 228.133303 -11.285311 228.146622 -26.097656 228.165527 C-40.489257 228.183876 -54.880851 228.198038 -69.272461 228.206543 C-70.159073 228.207068 -71.045685 228.207594 -71.959165 228.208135 C-76.406893 228.210745 -80.85462 228.213273 -85.302348 228.215759 C-122.21981 228.236504 -159.137247 228.271739 -196.054688 228.316406 Z M-265.054688 300.316406 C-265.054688 338.596406 -265.054688 376.876406 -265.054688 416.316406 C-121.174688 416.316406 22.705312 416.316406 170.945312 416.316406 C170.945312 378.036406 170.945312 339.756406 170.945312 300.316406 C118.805313 300.316406 66.665313 300.316406 12.945312 300.316406 C10.965312 306.586406 8.985313 312.856406 6.945312 319.316406 C2.875469 325.236179 -0.208779 328.097003 -7.054688 330.316406 C-9.869348 330.595646 -12.457759 330.73776 -15.265625 330.720459 C-15.66041 330.723891 -15.66041 330.723891 -17.658264 330.741257 C-20.248925 330.759447 -22.838977 330.755699 -25.429688 330.75 C-27.241376 330.754565 -29.053062 330.759872 -30.864746 330.765884 C-34.654043 330.7748 -38.443129 330.77241 -42.232422 330.762451 C-47.077901 330.750955 -51.922652 330.771191 -56.768036 330.800368 C-60.506801 330.81875 -64.245393 330.818434 -67.984192 330.812731 C-69.770294 330.812578 -71.556409 330.818598 -73.342468 330.831022 C-75.843355 330.845971 -78.342904 330.835228 -80.84375 330.818115 C-81.209048 330.822949 -81.209048 330.822949 -83.057678 330.847412 C-89.531112 330.755079 -93.743628 328.60364 -98.328125 324.066406 C-100.498432 320.609628 -101.583555 317.224983 -102.679688 313.316406 C-103.971086 308.88642 -105.336208 304.612604 -107.054688 300.316406 C-159.194687 300.316406 -211.334688 300.316406 -265.054688 300.316406 Z " fill="#111111" transform="translate(303.0546875,49.68359375)"/><path d="M0 0 C2.10872 1.847284 3.976468 3.647445 5.875 5.6875 C6.930307 6.785765 7.987586 7.882138 9.046875 8.976562 C9.552832 9.501533 10.058789 10.026504 10.580078 10.567383 C12.340979 12.344028 14.198627 13.967981 16.125 15.5625 C19 18 19 18 21 21 C24.04298 21.652067 26.063521 21.512451 28.820312 20.003906 C34.833631 15.70694 39.868013 10.282682 45 5 C46.664291 3.330961 48.330452 1.663781 50 0 C50.33 -0.33 50.66 -0.66 51 -1 C53.375 -1.3125 53.375 -1.3125 56 -1 C57.875 0.6875 57.875 0.6875 59 3 C58.753528 7.880149 56.461691 9.937248 53 13.1875 C48.071525 17.85695 48.071525 17.85695 47 20 C46.34 20 45.68 20 45 20 C44.79375 20.556875 44.5875 21.11375 44.375 21.6875 C43 24 43 24 39.875 26.375 C37 29 37 29 36.25 31.8125 C38.319994 40.609974 46.76846 46.946222 53 53 C54.669039 54.664291 56.336219 56.330452 58 58 C58.33 58.33 58.66 58.66 59 59 C59.3125 61.375 59.3125 61.375 59 64 C57.3125 65.875 57.3125 65.875 55 67 C50.631268 66.864885 48.555273 64.961655 45.587891 61.890625 C45.336201 61.619922 45.336201 61.619922 44.0625 60.25 C43.055983 59.190235 42.046876 58.132924 41.035156 57.078125 C40.539673 56.561453 40.044189 56.04478 39.533691 55.512451 C37.992847 53.992946 36.392218 52.620085 34.714844 51.253906 C32 49 32 49 30.5 46.6875 C29 45 29 45 26.3125 44.375 C17.451109 46.046961 11.005096 54.818572 5 61 C3.335709 62.669039 1.669548 64.336219 0 66 C-0.165 66.165 -0.165 66.165 -1 67 C-3.375 67.3125 -3.375 67.3125 -6 67 C-7.875 65.3125 -7.875 65.3125 -9 63 C-8.927071 58.35684 -6.636802 56.237075 -3.486328 53.183594 C-3.189521 52.905801 -3.189521 52.905801 -1.6875 51.5 C-0.522431 50.38783 0.640377 49.273287 1.800781 48.15625 C2.353628 47.624592 2.906475 47.092935 3.476074 46.545166 C5.493062 44.500066 7.222511 42.253098 9 40 C9.7425 39.525625 10.485 39.05125 11.25 38.5625 C13 37 13 37 13.625 34.3125 C11.953039 25.451109 3.181428 19.005096 -3 13 C-4.669039 11.335709 -6.336219 9.669548 -8 8 C-8.33 7.67 -8.66 7.34 -9 7 C-9.3125 4.625 -9.3125 4.625 -9 2 C-6.027994 -1.302229 -4.090752 -1.390973 0 0 Z " fill="#111111" transform="translate(231,79)"/></svg>