<svg xmlns="http://www.w3.org/2000/svg" viewBox="0 0 512 512" width="512" height="512"><path d="M0 0 C0.878113 -0.009608 1.756227 -0.019215 2.66095 -0.029114 C3.134388 -0.031239 3.134388 -0.031239 5.530273 -0.041992 C6.508249 -0.047692 7.486224 -0.053392 8.493835 -0.059265 C10.565052 -0.068714 12.636285 -0.075249 14.70752 -0.079102 C17.863551 -0.088787 21.018926 -0.119803 24.174805 -0.151367 C26.189124 -0.1579 28.203447 -0.163149 30.217773 -0.166992 C31.156553 -0.179339 32.095333 -0.191686 33.062561 -0.204407 C38.53887 -0.185955 44.489901 0.011385 48.639648 4.161133 C48.280018 11.881197 46.053602 18.551021 43.452148 25.786133 C43.249323 26.358557 43.249323 26.358557 42.2229 29.255371 C41.04302 32.562779 39.845951 35.863281 38.639648 39.161133 C38.327373 40.019004 38.015098 40.876875 37.693359 41.760742 C33.112851 54.212506 33.112851 54.212506 28.639648 58.161133 C24.813521 56.658011 22.938729 54.533117 20.639648 51.161133 C19.389648 47.848633 19.389648 47.848633 18.639648 45.161133 C11.843867 46.346269 8.243168 48.613012 3.264648 53.286133 C1.950807 54.472429 0.635703 55.657328 -0.680664 56.84082 C-1.311338 57.414131 -1.942012 57.987441 -2.591797 58.578125 C-5.617399 61.286297 -8.806071 63.776938 -11.993164 66.290039 C-14.513735 68.282372 -17.001514 70.310707 -19.485352 72.348633 C-24.790289 76.699283 -30.11398 81.026479 -35.441162 85.349854 C-39.403322 88.566717 -43.355028 91.795607 -47.297852 95.036133 C-50.500501 97.668251 -53.742507 100.222139 -57.047852 102.723633 C-60.111602 105.067784 -62.76913 107.55035 -65.422852 110.348633 C-68.826426 113.812985 -72.450052 117.252148 -77.360352 118.161133 C-84.644463 117.041237 -90.56895 112.662639 -96.735352 108.848633 C-100.937552 106.275908 -105.145742 103.713476 -109.360352 101.161133 C-110.212744 100.634712 -111.065137 100.108291 -111.943359 99.565918 C-119.529827 95.057579 -119.529827 95.057579 -124.360352 96.161133 C-126.820629 97.902479 -128.867572 99.56012 -131.047852 101.598633 C-132.290381 102.712986 -133.53388 103.826258 -134.77832 104.938477 C-135.082781 105.214255 -135.082781 105.214255 -136.623535 106.609863 C-138.972294 108.7077 -141.406851 110.687428 -143.860352 112.661133 C-149.851643 117.529606 -155.696977 122.56039 -161.544434 127.599609 C-163.363358 129.163718 -165.187152 130.721944 -167.012695 132.27832 C-172.246751 136.743452 -177.458722 141.217766 -182.547852 145.848633 C-186.778768 149.691773 -191.162039 153.303443 -195.625977 156.87207 C-199.251107 159.906822 -202.5741 163.224869 -205.875977 166.606445 C-208.360352 168.161133 -208.360352 168.161133 -211.790039 168.083008 C-221.828112 165.49112 -230.786092 158.735095 -239.359863 153.069824 C-241.351827 151.75368 -243.351979 150.452085 -245.360352 149.161133 C-245.671821 148.959636 -245.671821 148.959636 -247.248047 147.939941 C-253.33136 144.201547 -253.33136 144.201547 -257.360352 145.161133 C-259.747427 146.902814 -261.826595 148.60926 -263.985352 150.598633 C-265.235725 151.711656 -266.487036 152.823627 -267.739258 153.93457 C-268.354302 154.485967 -268.969346 155.037363 -269.603027 155.605469 C-271.986853 157.715741 -274.446291 159.723473 -276.922852 161.723633 C-280.887937 164.940917 -284.790269 168.220656 -288.672852 171.536133 C-293.131037 175.337183 -297.669449 179.007152 -302.297852 182.598633 C-307.101922 186.327066 -311.768126 190.174835 -316.360352 194.161133 C-321.419852 198.550394 -326.581635 202.758604 -331.879639 206.856201 C-335.253626 209.475487 -338.568795 212.150274 -341.844727 214.891602 C-342.605515 215.527271 -343.366304 216.162939 -344.150146 216.817871 C-345.634012 218.062156 -347.113557 219.311617 -348.588135 220.566895 C-352.028918 223.448709 -354.978671 225.854316 -359.360352 227.161133 C-357.889634 223.559862 -355.992886 221.816683 -352.922852 219.473633 C-352.470391 219.122363 -352.470391 219.122363 -350.180664 217.344727 C-349.249961 216.624141 -348.319258 215.903555 -347.360352 215.161133 C-345.667556 213.792658 -343.980161 212.417479 -342.297852 211.036133 C-341.381328 210.284609 -340.464805 209.533086 -339.520508 208.758789 C-333.536437 203.84199 -327.559112 198.916991 -321.582031 193.991699 C-318.008731 191.047457 -314.434507 188.104336 -310.860352 185.161133 C-309.44368 183.994472 -308.027014 182.827805 -306.610352 181.661133 C-303.777018 179.327799 -300.943685 176.994466 -298.110352 174.661133 C-297.408618 174.08323 -296.706885 173.505327 -295.983887 172.909912 C-294.572122 171.747292 -293.160338 170.584694 -291.748535 169.422119 C-287.390834 165.833631 -283.033298 162.244944 -278.677979 158.653564 C-277.233137 157.464197 -275.786402 156.277126 -274.337646 155.092529 C-271.200011 152.524236 -268.088389 149.943287 -265.05957 147.24707 C-264.106953 146.414336 -263.154336 145.581602 -262.172852 144.723633 C-261.374922 144.003047 -260.576992 143.282461 -259.754883 142.540039 C-256.454758 140.639641 -255.029228 141.225611 -251.360352 142.161133 C-248.785835 143.471905 -246.371512 144.808884 -243.915039 146.30957 C-243.222742 146.722765 -242.530445 147.13596 -241.817169 147.561676 C-239.617808 148.877695 -237.426761 150.206925 -235.235352 151.536133 C-233.755374 152.42237 -232.27491 153.307795 -230.793945 154.192383 C-229.37554 155.043218 -227.957556 155.894757 -226.540039 156.74707 C-225.879546 157.144051 -225.219052 157.541032 -224.538544 157.950043 C-221.976244 159.50534 -219.486492 161.064347 -217.106934 162.890137 C-215.360352 164.161133 -215.360352 164.161133 -212.235352 164.911133 C-207.038048 163.905203 -204.773257 161.349536 -201.032227 157.727539 C-198.410318 155.209127 -195.696994 152.932851 -192.860352 150.661133 C-188.391819 147.04614 -184.121858 143.267538 -179.875977 139.395508 C-177.347049 137.149317 -174.749852 135.025821 -172.110352 132.911133 C-166.345939 128.250544 -160.971832 123.22334 -155.567383 118.157227 C-151.910438 114.730225 -148.16777 111.419795 -144.360352 108.161133 C-143.232634 107.191213 -142.105042 106.221146 -140.977539 105.250977 C-134.110017 99.348975 -134.110017 99.348975 -132.011719 97.589844 C-130.92128 96.64643 -129.862689 95.66475 -128.841797 94.646484 C-126.057581 91.972973 -124.753709 91.163313 -120.836914 91.141602 C-117.276369 92.185762 -114.816718 93.423633 -111.735352 95.473633 C-110.625469 96.181328 -109.515586 96.889023 -108.37207 97.618164 C-107.748647 98.016001 -107.125225 98.413838 -106.48291 98.82373 C-102.215789 101.5124 -97.891768 104.098898 -93.547852 106.661133 C-92.664683 107.201653 -91.781514 107.742173 -90.871582 108.299072 C-85.403105 111.500772 -81.711712 113.238303 -75.360352 112.161133 C-72.808764 110.650402 -70.923816 109.326322 -68.735352 107.411133 C-68.14053 106.917422 -67.545708 106.423711 -66.932861 105.915039 C-65.057902 104.349821 -63.20833 102.758067 -61.360352 101.161133 C-60.174969 100.154963 -58.988784 99.149738 -57.801758 98.145508 C-54.874392 95.658265 -51.966366 93.149446 -49.062988 90.634277 C-41.410973 84.01365 -33.662985 77.567993 -25.669922 71.362793 C-20.76557 67.532715 -16.04499 63.513208 -11.340332 59.441895 C-7.193725 55.858335 -2.98907 52.368403 1.327148 48.989258 C2.935298 47.717951 4.517173 46.412987 6.077148 45.083008 C6.860898 44.428164 7.644648 43.77332 8.452148 43.098633 C8.795684 42.804082 8.795684 42.804082 10.53418 41.313477 C12.639648 40.161133 12.639648 40.161133 15.198242 40.239258 C18.119186 41.342206 19.103852 42.440622 20.889648 44.973633 C21.389805 45.660703 21.889961 46.347773 22.405273 47.055664 C23.614788 49.118729 24.198512 50.82416 24.639648 53.161133 C26.289648 53.161133 27.939648 53.161133 29.639648 53.161133 C29.790952 52.549795 29.942256 51.938457 30.098145 51.308594 C32.483252 42.102384 35.754155 33.245254 39.029297 24.32959 C39.77242 22.301544 40.507193 20.270614 41.241211 18.239258 C41.459465 17.643228 41.459465 17.643228 42.563965 14.626953 C43.639648 11.161133 43.639648 11.161133 44.639648 4.161133 C27.809648 4.161133 10.979648 4.161133 -6.360352 4.161133 C-4.360352 10.161133 -4.360352 10.161133 -2.610352 12.223633 C-2.197852 12.863008 -1.785352 13.502383 -1.360352 14.161133 C-2.526798 18.64118 -4.703306 20.626263 -8.297852 23.411133 C-9.293008 24.194883 -10.288164 24.978633 -11.313477 25.786133 C-12.318945 26.569883 -13.324414 27.353633 -14.360352 28.161133 C-16.093679 29.572705 -17.822891 30.989347 -19.547852 32.411133 C-22.74243 35.02695 -25.943137 37.634821 -29.15332 40.231445 C-35.54204 45.401722 -41.911774 50.586529 -48.172852 55.911133 C-53.84428 60.733958 -59.562018 65.491334 -65.360352 70.161133 C-65.950903 70.636797 -66.541455 71.112461 -67.149902 71.602539 C-69.048994 73.127663 -70.953715 74.645456 -72.860352 76.161133 C-73.46033 76.642598 -74.060308 77.124062 -74.678467 77.620117 C-77.230213 79.636204 -79.249125 81.124057 -82.360352 82.161133 C-85.118346 80.713415 -87.678981 79.207259 -90.297852 77.536133 C-91.083293 77.048464 -91.868735 76.560796 -92.677979 76.05835 C-97.093118 73.298833 -101.438845 70.449853 -105.750977 67.532227 C-106.635354 66.939419 -107.519731 66.346611 -108.430908 65.73584 C-110.145864 64.581016 -111.851267 63.411847 -113.545654 62.227051 C-118.229951 59.072271 -121.516526 57.053433 -127.360352 58.161133 C-129.844727 59.813477 -129.844727 59.813477 -132.110352 62.098633 C-135.511786 65.38737 -138.920088 68.510568 -142.610352 71.473633 C-146.924862 74.965462 -151.157407 78.536941 -155.360352 82.161133 C-160.373348 86.480647 -165.445733 90.71211 -170.583008 94.883789 C-173.704315 97.443173 -176.784852 100.047071 -179.860352 102.661133 C-184.7065 106.779328 -189.602722 110.828043 -194.540039 114.836914 C-196.586458 116.523367 -198.609249 118.224169 -200.618164 119.954102 C-206.634505 125.130791 -212.607406 129.950185 -219.360352 134.161133 C-225.38319 130.972301 -231.28512 127.639197 -237.094727 124.075195 C-238.257424 123.365457 -239.420185 122.655822 -240.583008 121.946289 C-242.360505 120.860836 -244.134543 119.771019 -245.900879 118.66748 C-247.644574 117.580595 -249.399397 116.514026 -251.157227 115.450195 C-252.181709 114.818071 -253.206191 114.185947 -254.261719 113.534668 C-257.900988 111.921484 -260.41831 111.7901 -264.360352 112.161133 C-267.063477 113.813477 -267.063477 113.813477 -269.610352 116.098633 C-270.556523 116.924922 -271.502695 117.751211 -272.477539 118.602539 C-273.428867 119.446875 -274.380195 120.291211 -275.360352 121.161133 C-277.145195 122.627809 -278.936809 124.086288 -280.735352 125.536133 C-284.756936 128.821853 -288.722918 132.165325 -292.672852 135.536133 C-297.231791 139.424399 -301.878537 143.173016 -306.610352 146.848633 C-311.286278 150.481929 -315.782546 154.229419 -320.168945 158.211914 C-323.49477 161.170179 -326.962122 163.948017 -330.418945 166.750977 C-333.538398 169.307022 -336.606762 171.916701 -339.672852 174.536133 C-344.10872 178.319202 -348.626189 181.966704 -353.235352 185.536133 C-359.131052 190.104033 -364.788259 194.908261 -370.387207 199.834473 C-370.979048 200.354771 -371.570889 200.875068 -372.180664 201.411133 C-372.45604 201.65541 -372.45604 201.65541 -373.849609 202.891602 C-375.360352 204.161133 -375.360352 204.161133 -377.790039 205.723633 C-379.360352 207.161133 -379.360352 207.161133 -379.911133 209.52832 C-379.134112 213.242589 -377.295089 214.715756 -374.547852 217.286133 C-373.654531 218.134336 -372.761211 218.982539 -371.84082 219.856445 C-371.022266 220.616992 -370.203711 221.377539 -369.360352 222.161133 C-368.354984 223.155736 -367.352081 224.15293 -366.360352 225.161133 C-369.360352 225.161133 -369.360352 225.161133 -371.446289 223.368164 C-371.823984 222.973066 -371.823984 222.973066 -373.735352 220.973633 C-376.251797 218.346168 -378.746767 215.803548 -381.485352 213.411133 C-383.360352 211.161133 -383.360352 211.161133 -383.375977 208.879883 C-381.920234 204.982972 -379.137838 202.944322 -375.985352 200.411133 C-375.350488 199.884551 -374.715625 199.357969 -374.061523 198.81543 C-372.170884 197.251615 -370.26763 195.704583 -368.360352 194.161133 C-367.409023 193.382539 -366.457695 192.603945 -365.477539 191.801758 C-363.72239 190.366203 -361.964541 188.933945 -360.204102 187.504883 C-356.883486 184.768111 -353.619914 181.970069 -350.360352 179.161133 C-345.347204 174.84179 -340.274976 170.61016 -335.137695 166.438477 C-332.016389 163.879093 -328.935817 161.275234 -325.860352 158.661133 C-321.913847 155.306662 -317.943931 151.988915 -313.922852 148.723633 C-309.059061 144.766051 -304.301539 140.695708 -299.552002 136.602783 C-295.169269 132.833741 -290.714745 129.163878 -286.223633 125.524414 C-282.189562 122.194792 -278.238815 118.76941 -274.305664 115.321289 C-264.859387 107.124287 -264.859387 107.124287 -260.34082 107.235352 C-248.421532 110.937673 -237.536044 119.347337 -227.125244 126.057129 C-224.276618 127.839047 -221.899834 128.808398 -218.469727 128.758789 C-214.501535 127.634468 -211.919856 124.522883 -209.016602 121.71582 C-206.47547 119.27185 -203.858333 117.0551 -201.110352 114.848633 C-196.795843 111.356806 -192.563256 107.785369 -188.360352 104.161133 C-183.371095 99.861234 -178.318134 95.656274 -173.204102 91.504883 C-169.268791 88.261495 -165.412159 84.929665 -161.549561 81.600342 C-158.047999 78.588683 -154.512486 75.630543 -150.922852 72.723633 C-145.671582 68.46479 -140.570768 64.043684 -135.485596 59.589111 C-134.295306 58.549167 -133.100357 57.514522 -131.899902 56.486328 C-130.658302 55.417599 -129.440812 54.320893 -128.231445 53.21582 C-126.360352 52.161133 -126.360352 52.161133 -123.899414 52.297852 C-121.16553 53.227372 -119.135125 54.36727 -116.735352 55.973633 C-115.790469 56.594961 -114.845586 57.216289 -113.87207 57.856445 C-113.331147 58.213838 -112.790225 58.57123 -112.23291 58.939453 C-108.370166 61.459554 -104.452796 63.894663 -100.547852 66.348633 C-98.936589 67.362025 -97.325889 68.376313 -95.71582 69.391602 C-94.962202 69.862593 -94.208584 70.333584 -93.432129 70.818848 C-91.64392 71.977412 -89.925406 73.242256 -88.223633 74.524414 C-84.605633 76.592547 -82.468925 76.732028 -78.360352 76.161133 C-75.868164 74.68457 -75.868164 74.68457 -73.485352 72.536133 C-72.543047 71.713711 -71.600742 70.891289 -70.629883 70.043945 C-70.112485 69.584072 -69.595088 69.124199 -69.062012 68.650391 C-65.832604 65.82408 -62.492936 63.129679 -59.172852 60.411133 C-57.701324 59.199104 -56.229971 57.986863 -54.758789 56.774414 C-48.65077 51.750682 -42.509527 46.76805 -36.366211 41.787598 C-33.611391 39.553833 -30.857998 37.318317 -28.105225 35.082031 C-26.750459 33.981756 -25.395166 32.88213 -24.039307 31.783203 C-21.004695 29.321581 -17.979268 26.851074 -14.981445 24.344727 C-14.48709 23.932871 -14.48709 23.932871 -11.985352 21.848633 C-11.131992 21.130625 -10.278633 20.412617 -9.399414 19.672852 C-7.360352 18.161133 -7.360352 18.161133 -5.360352 18.161133 C-6.502209 13.681539 -7.790503 10.015905 -10.360352 6.161133 C-7.615599 1.063735 -5.695953 0.050401 0 0 Z " fill="#111111" transform="translate(417.3603515625,31.8388671875)"/><path d="M0 0 C1.235335 -0.019291 2.47067 -0.038581 3.743439 -0.058456 C5.099619 -0.073268 6.455811 -0.08704 7.812012 -0.099854 C8.153628 -0.103139 8.153628 -0.103139 9.882412 -0.119768 C13.50313 -0.152373 17.123818 -0.176814 20.744629 -0.196289 C23.732374 -0.214058 26.719167 -0.248802 29.706543 -0.298828 C33.320525 -0.359272 36.933629 -0.389798 40.548092 -0.399462 C41.920381 -0.407982 43.292648 -0.426715 44.664646 -0.456205 C52.211743 -0.609613 57.75634 -0.600243 63.529053 4.621674 C63.791014 4.88354 63.791014 4.88354 65.116699 6.20874 C66.297068 7.225737 67.481395 8.238177 68.671387 9.243896 C69.781684 10.24913 70.888495 11.258227 71.991699 12.27124 C72.558887 12.774619 73.126074 13.277998 73.710449 13.796631 C74.254434 14.294854 74.798418 14.793076 75.358887 15.306396 C75.842124 15.744758 76.325361 16.18312 76.823242 16.634766 C80.330316 20.902434 80.401215 25.59334 80.359619 30.887207 C80.361486 31.663061 80.363354 32.438915 80.365277 33.23828 C80.36896 35.878267 80.358007 38.517994 80.347168 41.157959 C80.346432 43.10847 80.346501 45.05898 80.34729 47.009491 C80.346428 52.475344 80.331948 57.941088 80.314541 63.40691 C80.304193 66.898297 80.296997 70.389676 80.290924 73.881073 C80.266116 88.107552 80.224975 102.333916 80.174917 116.560322 C80.129797 129.444901 80.09564 142.329485 80.065533 155.214107 C80.01673 176.064109 79.954564 196.914027 79.876164 217.76394 C79.867836 219.987534 79.859523 222.211128 79.851227 224.434723 C79.847123 225.534452 79.843019 226.634181 79.838791 227.767235 C79.810417 235.564733 79.789325 243.362232 79.771088 251.15976 C79.748405 260.785351 79.714987 270.410837 79.668299 280.036343 C79.644353 285.033276 79.625357 290.030107 79.619034 295.027096 C79.613013 299.656864 79.593158 304.286362 79.562412 308.91603 C79.553636 310.603098 79.549923 312.290203 79.551694 313.977293 C79.553345 316.274895 79.536671 318.571668 79.515427 320.869156 C79.510818 322.150079 79.506209 323.431002 79.50146 324.750741 C79.079518 328.542902 78.103828 330.969742 76.116699 334.20874 C73.929199 335.58374 73.929199 335.58374 72.116699 336.20874 C72.604086 335.496927 73.091472 334.785114 73.593628 334.051731 C75.26399 330.933805 75.490058 329.22137 75.485843 325.720881 C75.491816 324.624107 75.497789 323.527332 75.503943 322.397322 C75.495205 321.19791 75.486466 319.998499 75.477463 318.762741 C75.480026 317.484401 75.482589 316.20606 75.48523 314.888982 C75.491938 311.342886 75.479938 307.797061 75.464896 304.250999 C75.451945 300.426239 75.456325 296.601494 75.458603 292.776718 C75.460176 286.150762 75.450761 279.524895 75.433889 272.898962 C75.409512 263.318981 75.401695 253.739043 75.397925 244.159034 C75.391359 228.616252 75.371393 213.073518 75.343018 197.530762 C75.315482 182.432131 75.294246 167.333514 75.281494 152.234863 C75.280706 151.304234 75.279918 150.373605 75.279106 149.414775 C75.275191 144.746098 75.2714 140.077421 75.26767 135.408744 C75.236568 96.675376 75.183727 57.942061 75.116699 19.20874 C72.445696 17.873239 70.404387 18.0816 67.413574 18.079346 C66.218936 18.076194 65.024297 18.073041 63.793457 18.069794 C63.145542 18.070806 63.145542 18.070806 59.866699 18.075928 C58.529134 18.075254 57.191569 18.074284 55.854004 18.073029 C53.04963 18.071553 50.245288 18.073701 47.440918 18.078369 C43.842727 18.084066 40.244611 18.080786 36.646423 18.074797 C33.884109 18.071187 31.121812 18.072332 28.359497 18.074924 C26.386311 18.075918 24.413125 18.072876 22.439941 18.069794 C21.245303 18.072946 20.050664 18.076098 18.819824 18.079346 C17.764404 18.080141 16.708984 18.080937 15.621582 18.081757 C13.116699 18.20874 13.116699 18.20874 11.116699 19.20874 C10.94348 58.632777 10.780823 98.056844 10.632386 137.480983 C10.614864 142.132423 10.597254 146.783863 10.57959 151.435303 C10.577832 151.898323 10.577832 151.898323 10.568938 154.241489 C10.511765 169.247621 10.447484 184.253714 10.380588 199.259806 C10.312135 214.650569 10.251293 230.041348 10.197555 245.43217 C10.164139 254.933707 10.124745 264.435181 10.077771 273.936661 C10.046153 280.44688 10.021908 286.9571 10.003527 293.46737 C9.992692 297.226807 9.978545 300.986156 9.955664 304.745541 C9.93097 308.816684 9.921771 312.887713 9.914154 316.958923 C9.904437 318.153466 9.894721 319.348009 9.88471 320.578749 C9.884959 321.122658 9.884959 321.122658 9.886221 323.875164 C9.882424 324.815352 9.878627 325.755539 9.874714 326.724217 C10.132493 329.370902 10.685154 330.979883 12.116699 333.20874 C14.558361 334.429571 16.203607 334.366048 18.933594 334.414062 C19.93448 334.434008 20.935367 334.453953 21.966583 334.474503 C23.04995 334.491215 24.133316 334.507928 25.249512 334.525146 C26.356484 334.545928 27.463456 334.566709 28.603973 334.58812 C32.149817 334.65365 35.695737 334.712516 39.241699 334.77124 C41.641447 334.814422 44.041186 334.858036 46.440918 334.9021 C52.332764 335.009335 58.224687 335.111095 64.116699 335.20874 C64.116699 336.19874 64.116699 337.18874 64.116699 338.20874 C63.116699 339.20874 63.116699 339.20874 61.163132 339.304489 C60.306937 339.290536 59.450743 339.276583 58.568604 339.262207 C57.600573 339.248566 56.632542 339.234925 55.635178 339.220871 C54.581072 339.20011 53.526966 339.179349 52.440918 339.157959 C51.364213 339.139091 50.287509 339.120224 49.178177 339.100784 C46.894043 339.05881 44.609958 339.014064 42.325928 338.966797 C38.829854 338.896754 35.333763 338.842335 31.837402 338.788818 C29.621889 338.746158 27.406393 338.702569 25.190918 338.657959 C24.142885 338.643271 23.094852 338.628582 22.01506 338.613449 C21.526317 338.6019 21.526317 338.6019 19.052979 338.543457 C18.194397 338.527117 17.335816 338.510777 16.451218 338.493942 C13.931487 338.186113 12.35325 337.361862 10.116699 336.20874 C8.941074 336.16749 7.765449 336.12624 6.554199 336.08374 C-0.518143 335.367218 -6.680465 329.776183 -11.148926 324.568115 C-14.082792 320.576999 -14.01696 318.214321 -14.041519 313.254059 C-14.046458 312.528295 -14.051396 311.802531 -14.056484 311.054774 C-14.071926 308.604308 -14.080244 306.153869 -14.088623 303.703369 C-14.098198 301.945354 -14.1082 300.187341 -14.118596 298.429331 C-14.145791 293.611533 -14.166737 288.793725 -14.186586 283.975892 C-14.20866 278.860599 -14.236259 273.745336 -14.263092 268.630066 C-14.31964 257.635233 -14.36867 246.640375 -14.416134 235.6455 C-14.445459 228.864918 -14.476551 222.084345 -14.507965 215.303772 C-14.63933 186.845029 -14.756438 158.386248 -14.861984 129.927399 C-14.878762 125.408598 -14.895989 120.889799 -14.913436 116.371001 C-14.97906 99.347915 -15.034651 82.324903 -15.05954 65.301697 C-15.06611 60.846964 -15.076954 56.392275 -15.091583 51.937561 C-15.107866 46.848085 -15.114439 41.758698 -15.11256 36.669197 C-15.113347 34.879962 -15.11738 33.090724 -15.125172 31.301506 C-15.216251 9.066605 -15.216251 9.066605 -10.383301 3.14624 C-6.640562 0.245618 -4.697128 0.068378 0 0 Z M-3.883301 3.20874 C-4.085999 7.983368 -4.085999 7.983368 -2.261719 10.011719 C3.794171 14.064889 7.823229 14.908343 14.991699 14.14624 C16.990058 13.995833 18.988792 13.850352 20.987793 13.70874 C21.542009 13.666201 21.542009 13.666201 24.34668 13.450928 C31.106286 13.016688 37.875708 12.876802 44.646301 12.707062 C47.798324 12.627444 50.950101 12.539751 54.101913 12.452271 C57.106791 12.369164 60.11174 12.288855 63.116699 12.20874 C63.429199 9.95874 63.429199 9.95874 63.116699 7.20874 C60.514548 4.588064 58.836858 3.325967 55.161667 2.727722 C54.616507 2.732163 54.616507 2.732163 51.857666 2.754639 C51.237212 2.75479 51.237212 2.75479 48.097336 2.755554 C46.753523 2.775977 45.409717 2.796841 44.065918 2.818115 C42.683017 2.825582 41.300106 2.831273 39.917191 2.835266 C36.28867 2.850492 32.660797 2.889746 29.032532 2.934082 C25.325651 2.975102 21.618664 2.993291 17.911621 3.013428 C10.646353 3.056244 3.381617 3.124457 -3.883301 3.20874 Z M-10.883301 9.20874 C-10.937146 11.500153 -10.976022 13.791922 -11.008301 16.08374 C-11.031504 17.359912 -11.054707 18.636084 -11.078613 19.950928 C-10.883301 23.20874 -10.883301 23.20874 -8.883301 25.20874 C-9.543301 25.53874 -10.203301 25.86874 -10.883301 26.20874 C-10.883301 27.123975 -10.883301 28.039209 -10.883301 28.982178 C-10.883301 39.391032 -10.883301 49.799886 -10.883301 60.20874 C-10.223301 60.53874 -9.563301 60.86874 -8.883301 61.20874 C-9.213301 61.37374 -9.213301 61.37374 -10.883301 62.20874 C-10.883301 63.228228 -10.883301 64.247715 -10.883301 65.298096 C-10.883301 107.268311 -10.883301 149.238525 -10.883301 191.20874 C-10.223301 191.53874 -9.563301 191.86874 -8.883301 192.20874 C-9.543301 192.53874 -10.203301 192.86874 -10.883301 193.20874 C-10.883301 196.50874 -10.883301 199.80874 -10.883301 203.20874 C-10.223301 203.53874 -9.563301 203.86874 -8.883301 204.20874 C-9.543301 204.53874 -10.203301 204.86874 -10.883301 205.20874 C-10.883301 215.43874 -10.883301 225.66874 -10.883301 236.20874 C-10.223301 236.53874 -9.563301 236.86874 -8.883301 237.20874 C-9.543301 237.53874 -10.203301 237.86874 -10.883301 238.20874 C-10.883301 241.50874 -10.883301 244.80874 -10.883301 248.20874 C-10.223301 248.53874 -9.563301 248.86874 -8.883301 249.20874 C-9.543301 249.53874 -10.203301 249.86874 -10.883301 250.20874 C-10.883301 256.80874 -10.883301 263.40874 -10.883301 270.20874 C-10.223301 270.53874 -9.563301 270.86874 -8.883301 271.20874 C-9.543301 271.53874 -10.203301 271.86874 -10.883301 272.20874 C-10.883301 278.47874 -10.883301 284.74874 -10.883301 291.20874 C-10.223301 291.53874 -9.563301 291.86874 -8.883301 292.20874 C-9.543301 292.53874 -10.203301 292.86874 -10.883301 293.20874 C-10.883301 297.82874 -10.883301 302.44874 -10.883301 307.20874 C-10.223301 307.53874 -9.563301 307.86874 -8.883301 308.20874 C-9.543301 308.53874 -10.203301 308.86874 -10.883301 309.20874 C-11.341192 318.892302 -11.341192 318.892302 -9.883301 323.08374 C-6.121789 327.080346 -2.21635 330.110948 3.378418 330.345459 C4.282051 330.300342 5.185684 330.255225 6.116699 330.20874 C6.116699 329.293506 6.116699 328.378271 6.116699 327.435303 C6.116699 315.20874 6.116699 315.20874 6.187012 312.23999 C6.205059 311.074678 6.223105 309.909365 6.241699 308.70874 C6.264902 307.543428 6.288105 306.378115 6.312012 305.17749 C6.116699 302.20874 6.116699 302.20874 4.116699 300.20874 C4.776699 299.87874 5.436699 299.54874 6.116699 299.20874 C6.116699 298.643647 6.116699 298.078555 6.116699 297.496338 C6.116699 256.20874 6.116699 256.20874 6.187012 253.89624 C6.205059 253.009365 6.223105 252.12249 6.241699 251.20874 C6.264902 250.321865 6.288105 249.43499 6.312012 248.52124 C6.116699 246.20874 6.116699 246.20874 4.116699 244.20874 C4.776699 243.87874 5.436699 243.54874 6.116699 243.20874 C6.116699 242.365693 6.116699 241.522646 6.116699 240.654053 C6.116699 229.20874 6.116699 229.20874 6.187012 225.80249 C6.205632 224.437912 6.223845 223.073329 6.241699 221.70874 C6.258457 221.019092 6.275215 220.329443 6.29248 219.618896 C6.310066 217.814645 6.219989 216.010118 6.116699 214.20874 C5.456699 213.54874 4.796699 212.88874 4.116699 212.20874 C4.776699 211.87874 5.436699 211.54874 6.116699 211.20874 C6.116699 210.510068 6.116699 209.811396 6.116699 209.091553 C6.116699 183.183424 6.116699 183.183424 6.187012 179.14624 C6.205654 177.500412 6.223865 175.854578 6.241699 174.20874 C6.258457 173.376006 6.275215 172.543271 6.29248 171.685303 C6.298926 170.888662 6.305371 170.092021 6.312012 169.27124 C6.322485 168.540342 6.332959 167.809443 6.34375 167.056396 C6.116699 165.20874 6.116699 165.20874 4.116699 163.20874 C4.776699 162.87874 5.436699 162.54874 6.116699 162.20874 C6.116699 155.60874 6.116699 149.00874 6.116699 142.20874 C5.456699 141.87874 4.796699 141.54874 4.116699 141.20874 C4.776699 140.87874 5.436699 140.54874 6.116699 140.20874 C6.116699 139.293506 6.116699 138.378271 6.116699 137.435303 C6.116699 125.196082 6.116699 125.196082 6.187012 120.92749 C6.20566 119.187911 6.22387 117.448328 6.241699 115.70874 C6.258457 114.828311 6.275215 113.947881 6.29248 113.040771 C6.298926 112.199014 6.305371 111.357256 6.312012 110.48999 C6.322485 109.717197 6.332959 108.944404 6.34375 108.148193 C6.116699 106.20874 6.116699 106.20874 4.116699 104.20874 C4.281699 104.04374 4.281699 104.04374 5.116699 103.20874 C5.215071 101.878304 5.247485 100.542807 5.249512 99.20874 C5.250801 98.404365 5.25209 97.59999 5.253418 96.77124 C5.251484 96.348428 5.251484 96.348428 5.241699 94.20874 C5.245566 93.363115 5.249434 92.51749 5.253418 91.64624 C5.252773 91.244053 5.252773 91.244053 5.249512 89.20874 C5.248384 88.46624 5.247256 87.72374 5.246094 86.95874 C5.116699 85.20874 5.116699 85.20874 4.116699 84.20874 C4.446699 84.04374 4.446699 84.04374 6.116699 83.20874 C6.170566 81.084014 6.20943 78.958904 6.241699 76.83374 C6.264902 75.650381 6.288105 74.467021 6.312012 73.247803 C6.116699 70.20874 6.116699 70.20874 4.116699 68.20874 C4.446699 68.04374 4.446699 68.04374 6.116699 67.20874 C6.143594 64.250347 6.163487 61.292196 6.179199 58.33374 C6.187578 57.491982 6.195957 56.650225 6.20459 55.782959 C6.207812 54.977295 6.211035 54.171631 6.214355 53.341553 C6.219592 52.597925 6.224829 51.854297 6.230225 51.088135 C6.116699 49.20874 6.116699 49.20874 5.116699 47.20874 C5.045535 44.834715 5.032608 42.458733 5.054199 40.08374 C5.063223 38.802412 5.072246 37.521084 5.081543 36.200928 C5.093145 35.213506 5.104746 34.226084 5.116699 33.20874 C4.456699 32.87874 3.796699 32.54874 3.116699 32.20874 C3.776699 31.87874 4.436699 31.54874 5.116699 31.20874 C6.691809 26.483411 7.327964 22.094629 6.116699 17.20874 C3.146684 14.175308 -0.172528 12.225879 -3.883301 10.20874 C-4.213301 9.87874 -4.543301 9.54874 -4.883301 9.20874 C-6.882884 9.167932 -8.883753 9.166197 -10.883301 9.20874 Z " fill="#111111" transform="translate(400.88330078125,140.791259765625)"/><path d="M0 0 C0.590713 -0.004728 0.590713 -0.004728 3.580078 -0.028656 C4.211396 -0.02562 4.211396 -0.02562 7.40625 -0.010254 C8.715293 -0.013124 10.024336 -0.015994 11.373047 -0.018951 C14.136827 -0.023361 16.900316 -0.016989 19.664062 -0.00293 C23.194694 0.014162 26.724642 0.004313 30.255249 -0.013647 C33.63897 -0.027136 37.02251 -0.017673 40.40625 -0.010254 C41.668887 -0.016327 42.931523 -0.022399 44.232422 -0.028656 C45.413848 -0.0192 46.595273 -0.009743 47.8125 0 C48.846973 0.002387 49.881445 0.004774 50.947266 0.007233 C57.57013 0.859886 62.172823 4.984823 67.03125 9.200684 C67.638398 9.709219 68.245547 10.217754 68.871094 10.741699 C69.462773 11.250234 70.054453 11.75877 70.664062 12.282715 C70.927756 12.508824 70.927756 12.508824 72.262207 13.653076 C76.787302 18.428818 78.420577 22.229129 78.6539 28.79274 C78.668269 29.158864 78.668269 29.158864 78.740981 31.011675 C79.091752 41.307215 78.999107 51.615863 78.943848 61.915283 C78.935322 64.23651 78.927253 66.557738 78.919601 68.878967 C78.897582 75.132592 78.868881 81.38617 78.838646 87.63976 C78.807788 94.205347 78.782289 100.770956 78.755951 107.336563 C78.708236 119.054193 78.654804 130.771791 78.599394 142.489387 C78.549378 153.096342 78.504667 163.703308 78.463867 174.310303 C78.411263 187.984968 78.353751 201.659602 78.292248 215.33423 C78.268932 220.542501 78.247548 225.750774 78.227741 230.959059 C78.204201 237.089716 78.175932 243.220333 78.144053 249.350952 C78.133134 251.596276 78.123831 253.841609 78.116289 256.086946 C78.1057 259.15887 78.089175 262.230709 78.071198 265.302597 C78.070367 265.743312 78.070367 265.743312 78.066167 267.973598 C77.946906 284.322146 77.946906 284.322146 74.34375 288.013184 C73.539375 288.466934 72.735 288.920684 71.90625 289.388184 C72.23129 288.783864 72.556329 288.179545 72.891218 287.556912 C74.372258 282.933397 74.174314 278.515009 74.146759 273.688522 C74.147613 273.143274 74.147613 273.143274 74.151937 270.383986 C74.155236 266.723453 74.144222 263.063104 74.133301 259.402588 C74.132737 256.781194 74.133053 254.1598 74.134186 251.538406 C74.135234 245.891391 74.128962 240.244422 74.11771 234.597418 C74.101452 226.432817 74.096247 218.268239 74.093734 210.103624 C74.089357 196.856912 74.076049 183.610224 74.057129 170.363525 C74.038769 157.496014 74.024613 144.628509 74.016113 131.760986 C74.015588 130.967759 74.015062 130.174532 74.014521 129.357268 C74.011911 125.377858 74.009384 121.398448 74.006897 117.419038 C73.986166 84.408731 73.949296 51.398471 73.90625 18.388184 C52.78625 18.388184 31.66625 18.388184 9.90625 18.388184 C9.884221 52.113575 9.86575 85.838959 9.855185 119.564355 C9.853934 123.542415 9.85264 127.520475 9.851318 131.498535 C9.851187 131.894529 9.851187 131.894529 9.850523 133.8985 C9.846168 146.736439 9.83828 159.574374 9.829097 172.412311 C9.819759 185.576965 9.814194 198.741616 9.812162 211.906273 C9.810787 220.035069 9.806438 228.163851 9.798334 236.292642 C9.792442 242.516959 9.791792 248.741266 9.793142 254.965586 C9.792866 257.525487 9.790861 260.08539 9.787045 262.645288 C9.782108 266.12596 9.783252 269.606577 9.785995 273.08725 C9.784539 273.599888 9.784539 273.599888 9.777169 276.194146 C9.77916 277.121227 9.781151 278.048309 9.783202 279.003485 C9.782822 279.807732 9.782443 280.61198 9.782052 281.440599 C9.90625 283.388184 9.90625 283.388184 10.90625 285.388184 C11.209857 285.392227 11.209857 285.392227 12.746292 285.412689 C19.056582 285.498634 25.366554 285.598133 31.676514 285.705566 C34.032579 285.74389 36.388704 285.778737 38.744873 285.810059 C42.128308 285.855636 45.511334 285.913643 48.894531 285.974121 C49.950863 285.985672 51.007194 285.997224 52.095535 286.009125 C53.076326 286.028994 54.057116 286.048864 55.067627 286.069336 C55.931445 286.08266 56.795263 286.095983 57.685257 286.109711 C59.90625 286.388184 59.90625 286.388184 62.90625 288.388184 C60.542089 290.752345 60.081701 290.642665 56.874756 290.662842 C56.043064 290.672374 55.211372 290.681906 54.354477 290.691727 C53.45246 290.690815 52.550444 290.689904 51.621094 290.688965 C51.155966 290.691107 51.155966 290.691107 48.802139 290.70195 C46.827492 290.707703 44.852824 290.708187 42.878174 290.703857 C39.879993 290.700722 36.882822 290.72406 33.884766 290.749512 C31.963543 290.751787 30.042318 290.752487 28.121094 290.751465 C27.233247 290.760675 26.3454 290.769884 25.430649 290.779373 C20.104508 290.740515 15.807817 289.966283 10.845474 288.001144 C8.90625 287.388184 8.90625 287.388184 5.53125 287.700684 C-1.608851 287.085158 -8.529711 280.757642 -13.09375 275.388184 C-15.501871 269.934761 -15.394429 264.729698 -15.399139 258.881119 C-15.407754 257.823291 -15.416369 256.765463 -15.425244 255.67558 C-15.451614 252.131289 -15.463852 248.587091 -15.476074 245.042725 C-15.491921 242.5015 -15.508578 239.960281 -15.525986 237.419067 C-15.565807 231.233249 -15.59616 225.047448 -15.621401 218.861554 C-15.641956 213.833136 -15.66561 208.804743 -15.691441 203.77635 C-15.764329 189.514868 -15.828857 175.253383 -15.882792 160.991816 C-15.885699 160.223416 -15.888606 159.455015 -15.891602 158.66333 C-15.89451 157.89399 -15.897419 157.12465 -15.900416 156.331997 C-15.948087 143.859829 -16.015745 131.387859 -16.092438 118.915839 C-16.170983 106.104715 -16.234506 93.293593 -16.282412 80.482316 C-16.30961 73.29167 -16.343018 66.101176 -16.392605 58.910646 C-16.439101 52.149791 -16.464775 45.389171 -16.476366 38.628151 C-16.483899 36.146104 -16.49832 33.664067 -16.520113 31.182104 C-16.548779 27.795232 -16.552645 24.409204 -16.550262 21.022232 C-16.564441 20.038959 -16.578619 19.055686 -16.593226 18.042617 C-16.555149 11.962494 -15.698829 8.341168 -12.09375 3.388184 C-8.032644 0.680103 -4.830744 0.011146 0 0 Z M-3.09375 4.388184 C-3.260269 6.713455 -3.260269 6.713455 -3.09375 9.388184 C1.039099 13.724778 4.07275 14.703807 10.025146 14.864014 C12.44315 14.821518 14.860774 14.751198 17.277344 14.657715 C18.55481 14.628444 19.832276 14.599173 21.148453 14.569016 C24.524556 14.487073 27.898467 14.383003 31.273499 14.267944 C34.72547 14.155793 38.178138 14.073075 41.630859 13.987793 C48.390284 13.814898 55.148356 13.612766 61.90625 13.388184 C62.15625 10.575684 62.15625 10.575684 61.90625 7.388184 C59.743952 4.916443 58.358392 4.446506 55.109436 4.02742 C54.03466 4.034082 52.959884 4.040744 51.852539 4.047607 C50.631575 4.047834 49.410612 4.048061 48.152649 4.048294 C46.838994 4.063778 45.525338 4.079262 44.171875 4.095215 C42.809962 4.100813 41.448042 4.105082 40.086121 4.108078 C36.508679 4.11951 32.931606 4.148962 29.354309 4.18219 C25.7011 4.212927 22.047832 4.226591 18.394531 4.241699 C11.231604 4.273834 4.068978 4.32501 -3.09375 4.388184 Z M-12.09375 8.388184 C-12.09375 14.988184 -12.09375 21.588184 -12.09375 28.388184 C-11.43375 28.718184 -10.77375 29.048184 -10.09375 29.388184 C-10.75375 29.718184 -11.41375 30.048184 -12.09375 30.388184 C-12.091529 30.999839 -12.089309 31.611494 -12.087021 32.241684 C-12.064969 38.583887 -12.049844 44.926079 -12.038818 51.268311 C-12.033777 53.638107 -12.026943 56.0079 -12.018311 58.377686 C-12.006238 61.775724 -12.00052 65.173721 -11.996094 68.571777 C-11.990932 69.638431 -11.985771 70.705085 -11.980453 71.804062 C-11.980378 72.785003 -11.980302 73.765945 -11.980225 74.776611 C-11.978004 75.64487 -11.975783 76.51313 -11.973495 77.4077 C-12.09375 79.388184 -12.09375 79.388184 -13.09375 80.388184 C-13.343416 83.526418 -13.278968 86.67868 -13.28125 89.825684 C-13.293496 90.710625 -13.305742 91.595566 -13.318359 92.507324 C-13.320293 93.353594 -13.322227 94.199863 -13.324219 95.071777 C-13.328328 95.850935 -13.332437 96.630093 -13.33667 97.432861 C-13.09375 99.388184 -13.09375 99.388184 -11.09375 101.388184 C-11.25875 101.553184 -11.25875 101.553184 -12.09375 102.388184 C-12.182277 104.885775 -12.209009 107.355525 -12.191406 109.853027 C-12.189991 110.601535 -12.188576 111.350042 -12.187119 112.121231 C-12.181504 114.522755 -12.168956 116.924187 -12.15625 119.325684 C-12.151236 120.942219 -12.146673 122.558755 -12.142578 124.175293 C-12.134389 127.135517 -12.123726 130.095707 -12.109619 133.055908 C-12.09421 136.291685 -12.154827 139.444007 -12.382812 142.669434 C-12.436953 143.511191 -12.491094 144.352949 -12.546875 145.220215 C-12.661492 146.999379 -12.783895 148.778058 -12.914062 150.556152 C-12.965625 151.39791 -13.017187 152.239668 -13.070312 153.106934 C-13.096497 153.49333 -13.096497 153.49333 -13.229004 155.44873 C-13.09375 157.388184 -13.09375 157.388184 -11.09375 159.388184 C-11.42375 159.718184 -11.75375 160.048184 -12.09375 160.388184 C-12.197069 161.820092 -12.232249 163.257012 -12.239014 164.692627 C-12.245394 165.607051 -12.251773 166.521474 -12.258347 167.463608 C-12.259459 168.458366 -12.260572 169.453125 -12.261719 170.478027 C-12.265047 171.492887 -12.268376 172.507747 -12.271805 173.55336 C-12.276879 175.704595 -12.279213 177.855839 -12.279053 180.00708 C-12.281238 183.308074 -12.299387 186.608733 -12.318359 189.909668 C-12.321293 191.994953 -12.323278 194.08024 -12.324219 196.165527 C-12.331404 197.158262 -12.33859 198.150996 -12.345993 199.173813 C-12.344455 199.632601 -12.344455 199.632601 -12.33667 201.954346 C-12.338095 202.764073 -12.33952 203.573801 -12.340988 204.408066 C-12.09375 206.388184 -12.09375 206.388184 -10.09375 208.388184 C-10.75375 208.718184 -11.41375 209.048184 -12.09375 209.388184 C-12.143099 215.048164 -12.179445 220.70802 -12.203613 226.368164 C-12.213686 228.294619 -12.227344 230.221058 -12.244629 232.147461 C-12.268822 234.912636 -12.28022 237.67761 -12.289062 240.442871 C-12.299385 241.3075 -12.309708 242.172128 -12.320343 243.062958 C-12.320741 245.172719 -12.216402 247.281991 -12.09375 249.388184 C-11.43375 250.048184 -10.77375 250.708184 -10.09375 251.388184 C-10.75375 251.718184 -11.41375 252.048184 -12.09375 252.388184 C-12.09375 253.303418 -12.09375 254.218652 -12.09375 255.161621 C-12.09375 267.388184 -12.09375 267.388184 -12.46875 270.700684 C-12.09375 274.388184 -12.09375 274.388184 -9.40625 277.138184 C-8.31853 277.911843 -7.214477 278.663163 -6.09375 279.388184 C-5.248125 279.986309 -4.4025 280.584434 -3.53125 281.200684 C-0.825012 282.519107 0.934612 282.642895 3.90625 282.388184 C3.90625 281.274434 3.90625 280.160684 3.90625 279.013184 C3.90625 257.388184 3.90625 257.388184 3.953857 253.536865 C4.00782 249.128726 4.042501 244.720627 4.071045 240.312256 C4.086168 238.406281 4.106666 236.500341 4.132568 234.594482 C4.168904 231.849848 4.185961 229.105671 4.199219 226.36084 C4.206961 225.934243 4.206961 225.934243 4.24614 223.775406 C4.24785 217.78087 4.24785 217.78087 2.384964 215.639389 C1.896988 215.226491 1.409013 214.813593 0.90625 214.388184 C1.89625 214.058184 2.88625 213.728184 3.90625 213.388184 C3.90625 212.761699 3.90625 212.135215 3.90625 211.489746 C3.90625 206.668416 3.91395 201.849969 3.9832 197.029053 C4.022927 193.959707 4.047659 190.89031 4.071045 187.820801 C4.086182 186.198997 4.106691 184.577234 4.132568 182.955566 C4.168861 180.620503 4.18595 178.285977 4.199219 175.950684 C4.214703 175.223572 4.230186 174.49646 4.24614 173.747314 C4.246826 171.70459 4.246826 171.70459 3.90625 168.388184 C3.41125 168.058184 3.41125 168.058184 0.90625 166.388184 C1.89625 166.058184 2.88625 165.728184 3.90625 165.388184 C3.964168 162.263261 3.999817 159.138476 4.03125 156.013184 C4.039629 155.568457 4.039629 155.568457 4.082031 153.317871 C4.088477 152.46709 4.094922 151.616309 4.101562 150.739746 C4.112036 149.954224 4.12251 149.168701 4.133301 148.359375 C3.90625 146.388184 3.90625 146.388184 1.90625 144.388184 C2.56625 144.058184 3.22625 143.728184 3.90625 143.388184 C3.90625 142.472949 3.90625 141.557715 3.90625 140.614746 C3.90625 130.205892 3.90625 119.797038 3.90625 109.388184 C3.24625 109.058184 2.58625 108.728184 1.90625 108.388184 C2.23625 108.223184 2.23625 108.223184 3.90625 107.388184 C3.960042 104.42961 3.999821 101.472006 4.03125 98.513184 C4.048008 97.671426 4.064766 96.829668 4.082031 95.962402 C4.088477 95.156738 4.094922 94.351074 4.101562 93.520996 C4.112036 92.777368 4.12251 92.03374 4.133301 91.267578 C3.90625 89.388184 3.90625 89.388184 1.90625 87.388184 C2.23625 87.223184 2.23625 87.223184 3.90625 86.388184 C3.90625 85.472949 3.90625 84.557715 3.90625 83.614746 C3.90625 68.205892 3.90625 52.797038 3.90625 37.388184 C3.24625 37.058184 2.58625 36.728184 1.90625 36.388184 C2.56625 36.058184 3.22625 35.728184 3.90625 35.388184 C6.596324 20.182702 6.596324 20.182702 3.856445 15.652344 C0.751346 12.359356 -2.934187 10.153159 -7.09375 8.388184 C-8.74375 8.388184 -10.39375 8.388184 -12.09375 8.388184 Z " fill="#111111" transform="translate(284.09375,188.61181640625)"/><path d="M0 0 C0.404474 -0.00319 0.404474 -0.00319 2.451355 -0.019333 C3.321089 -0.020446 4.190824 -0.021559 5.086914 -0.022705 C5.542326 -0.024369 5.542326 -0.024369 7.846985 -0.032791 C9.780309 -0.037854 11.713642 -0.0402 13.646973 -0.040039 C16.550286 -0.042197 19.453201 -0.060281 22.356445 -0.079346 C54.314788 -0.181122 54.314788 -0.181122 64.852539 9.582764 C67.359893 11.898148 69.818061 14.119155 72.540039 16.18042 C74.984822 18.257659 75.760731 19.178986 76.852539 22.145264 C77.039884 24.789165 77.118124 27.325834 77.099777 29.968674 C77.102192 30.762034 77.104606 31.555394 77.107094 32.372796 C77.112734 35.034259 77.104065 37.695482 77.095459 40.356934 C77.096532 42.264079 77.098471 44.171225 77.101212 46.078369 C77.106064 51.262488 77.098397 56.44652 77.088259 61.630628 C77.079478 67.056999 77.081235 72.483368 77.081619 77.909744 C77.080682 87.028386 77.071994 96.146994 77.05835 105.265625 C77.042647 115.798084 77.037351 126.330507 77.038085 136.862977 C77.038762 148.081497 77.031811 159.300003 77.022639 170.518519 C77.020511 173.746596 77.019798 176.974671 77.0194 180.202749 C77.018392 185.285909 77.01226 190.369037 77.002234 195.452187 C76.999323 197.314137 76.99808 199.17609 76.998661 201.038042 C76.999155 203.587705 76.993462 206.137284 76.986252 208.686935 C76.9878 209.416726 76.989349 210.146517 76.990945 210.898423 C76.920127 226.156296 76.920127 226.156296 71.852539 232.145264 C71.192539 232.145264 70.532539 232.145264 69.852539 232.145264 C70.177579 231.659616 70.502618 231.173968 70.837507 230.673603 C72.291025 227.05304 72.120832 223.533249 72.093048 219.691833 C72.094757 218.83087 72.096466 217.969906 72.098226 217.082853 C72.101525 214.19309 72.090511 211.303559 72.07959 208.413818 C72.079026 206.344289 72.079342 204.27476 72.080475 202.205231 C72.08105 196.581645 72.069274 190.958144 72.055327 185.334579 C72.042841 179.459568 72.041651 173.584555 72.039276 167.709534 C72.033055 156.581951 72.016636 145.454408 71.996577 134.326843 C71.974238 121.659523 71.96323 108.992203 71.953186 96.324869 C71.93227 70.264979 71.897082 44.205123 71.852539 18.145264 C63.803288 18.122119 55.754051 18.104338 47.704775 18.093451 C43.967397 18.088227 40.230041 18.081138 36.492676 18.069824 C32.887641 18.058979 29.282628 18.052983 25.677578 18.050386 C24.300431 18.048535 22.923284 18.04492 21.546146 18.039534 C19.621108 18.032302 17.696048 18.031855 15.770996 18.031738 C14.674014 18.029518 13.577032 18.027297 12.446808 18.025009 C9.852539 18.145264 9.852539 18.145264 7.852539 19.145264 C7.782547 46.230535 7.729599 73.315793 7.697103 100.401136 C7.681615 112.976521 7.660489 125.551849 7.626221 138.127197 C7.596377 149.084209 7.576978 160.041181 7.570274 170.998232 C7.566353 176.803223 7.557099 182.608098 7.535349 188.413052 C7.515063 193.871261 7.508689 199.329305 7.513216 204.787548 C7.512387 206.795963 7.506375 208.804384 7.494923 210.812767 C7.480101 213.544807 7.483547 216.276217 7.491776 219.00827 C7.487406 219.410016 7.487406 219.410016 7.465295 221.443093 C7.483396 223.650755 7.483396 223.650755 7.852539 227.145264 C13.523099 230.925637 19.971033 230.269754 26.555664 230.207764 C27.474665 230.203977 28.393666 230.20019 29.340515 230.196289 C32.261239 230.184121 35.181861 230.165479 38.102539 230.145264 C41.961911 230.118743 45.821236 230.098732 49.680664 230.082764 C50.570218 230.074465 51.459772 230.066167 52.376282 230.057617 C58.62697 230.032479 58.62697 230.032479 60.852539 231.145264 C60.852539 231.805264 60.852539 232.465264 60.852539 233.145264 C55.131599 234.146185 49.665878 234.228965 43.868164 234.094482 C42.930754 234.075615 41.993344 234.056747 41.027527 234.037308 C39.057511 233.995629 37.087558 233.950914 35.117676 233.90332 C32.098429 233.832667 29.079169 233.778554 26.05957 233.725342 C24.141579 233.682726 22.223609 233.63914 20.305664 233.594482 C19.402535 233.579794 18.499406 233.565106 17.568909 233.549973 C16.730837 233.526875 15.892765 233.503778 15.029297 233.47998 C14.293182 233.463641 13.557067 233.447301 12.798645 233.430466 C10.852539 233.145264 10.852539 233.145264 7.852539 231.145264 C6.718164 231.186514 5.583789 231.227764 4.415039 231.270264 C0.852539 231.145264 0.852539 231.145264 -1.584961 229.145264 C-2.100586 228.485264 -2.616211 227.825264 -3.147461 227.145264 C-1.167461 227.145264 0.812539 227.145264 2.852539 227.145264 C2.738674 224.37356 2.611931 221.603483 2.477539 218.832764 C2.46207 218.439922 2.46207 218.439922 2.383789 216.451904 C2.345117 215.69458 2.306445 214.937256 2.266602 214.156982 C2.250891 213.808734 2.250891 213.808734 2.171387 212.046387 C1.852539 210.145264 1.852539 210.145264 -0.147461 207.145264 C0.842539 207.145264 1.832539 207.145264 2.852539 207.145264 C2.852539 202.525264 2.852539 197.905264 2.852539 193.145264 C2.192539 192.815264 1.532539 192.485264 0.852539 192.145264 C1.512539 192.145264 2.172539 192.145264 2.852539 192.145264 C2.742911 189.019524 2.612227 185.895016 2.477539 182.770264 C2.446602 181.880811 2.415664 180.991357 2.383789 180.074951 C2.345117 179.22417 2.306445 178.373389 2.266602 177.496826 C2.250891 177.104065 2.250891 177.104065 2.171387 175.116455 C1.852539 173.145264 1.852539 173.145264 -0.147461 171.145264 C0.842539 171.145264 1.832539 171.145264 2.852539 171.145264 C2.742669 167.873737 2.612039 164.603363 2.477539 161.332764 C2.446602 160.403994 2.415664 159.475225 2.383789 158.518311 C2.345117 157.625635 2.306445 156.732959 2.266602 155.813232 C2.250891 155.402142 2.250891 155.402142 2.171387 153.321777 C1.852539 151.145264 1.852539 151.145264 -0.147461 148.145264 C0.842539 148.145264 1.832539 148.145264 2.852539 148.145264 C2.711847 146.019917 2.56483 143.894988 2.415039 141.770264 C2.374434 141.178584 2.374434 141.178584 2.168945 138.184326 C1.852539 135.145264 1.852539 135.145264 0.852539 133.145264 C1.512539 133.145264 2.172539 133.145264 2.852539 133.145264 C2.73872 130.206937 2.611974 127.270157 2.477539 124.332764 C2.46207 123.916074 2.46207 123.916074 2.383789 121.807373 C2.345117 121.004932 2.306445 120.20249 2.266602 119.375732 C2.250891 119.006537 2.250891 119.006537 2.171387 117.138184 C1.852539 115.145264 1.852539 115.145264 -0.147461 112.145264 C0.842539 112.145264 1.832539 112.145264 2.852539 112.145264 C2.780352 110.863936 2.708164 109.582607 2.633789 108.262451 C2.539159 106.515103 2.445475 104.767703 2.352539 103.020264 C2.328329 102.567883 2.328329 102.567883 2.205811 100.278564 C1.877266 93.732013 1.819943 87.253534 2.012695 80.699951 C1.852539 78.145264 1.852539 78.145264 -0.147461 76.145264 C0.842539 76.145264 1.832539 76.145264 2.852539 76.145264 C2.852539 69.875264 2.852539 63.605264 2.852539 57.145264 C2.357539 56.980264 2.357539 56.980264 -0.147461 56.145264 C0.347539 55.980264 0.347539 55.980264 2.852539 55.145264 C2.765459 53.040321 2.657282 50.936242 2.540039 48.832764 C2.482031 47.661006 2.424023 46.489248 2.364258 45.281982 C1.836491 42.046895 1.428732 41.058415 -1.147461 39.145264 C0.172539 39.145264 1.492539 39.145264 2.852539 39.145264 C3.540289 19.524306 3.540289 19.524306 -0.264648 14.160889 C-4.393015 11.294308 -8.211924 9.970812 -13.147461 9.145264 C-13.201882 11.833042 -13.241334 14.519696 -13.272461 17.207764 C-13.289219 17.959932 -13.305977 18.7121 -13.323242 19.487061 C-13.366102 24.437317 -12.847459 28.479184 -11.147461 33.145264 C-10.487461 33.805264 -9.827461 34.465264 -9.147461 35.145264 C-10.467461 35.145264 -11.787461 35.145264 -13.147461 35.145264 C-13.006769 37.27061 -12.859752 39.395539 -12.709961 41.520264 C-12.62875 42.703623 -12.547539 43.886982 -12.463867 45.106201 C-12.147461 48.145264 -12.147461 48.145264 -11.147461 50.145264 C-11.807461 50.145264 -12.467461 50.145264 -13.147461 50.145264 C-13.008883 53.27063 -12.860365 56.395446 -12.709961 59.520264 C-12.690303 59.96499 -12.690303 59.96499 -12.59082 62.215576 C-12.548926 63.066357 -12.507031 63.917139 -12.463867 64.793701 C-12.427209 65.579224 -12.390552 66.364746 -12.352783 67.174072 C-12.147461 69.145264 -12.147461 69.145264 -11.147461 71.145264 C-11.807461 71.145264 -12.467461 71.145264 -13.147461 71.145264 C-13.147461 75.765264 -13.147461 80.385264 -13.147461 85.145264 C-12.487461 85.475264 -11.827461 85.805264 -11.147461 86.145264 C-11.807461 86.145264 -12.467461 86.145264 -13.147461 86.145264 C-13.147461 92.415264 -13.147461 98.685264 -13.147461 105.145264 C-12.157461 105.475264 -11.167461 105.805264 -10.147461 106.145264 C-10.642461 106.310264 -10.642461 106.310264 -13.147461 107.145264 C-13.451579 138.537027 -13.451579 138.537027 -11.147461 143.145264 C-11.807461 143.145264 -12.467461 143.145264 -13.147461 143.145264 C-13.00892 146.43728 -12.860391 149.728771 -12.709961 153.020264 C-12.670645 153.957412 -12.631328 154.894561 -12.59082 155.860107 C-12.569873 156.308057 -12.569873 156.308057 -12.463867 158.574951 C-12.427209 159.402368 -12.390552 160.229785 -12.352783 161.082275 C-12.147461 163.145264 -12.147461 163.145264 -11.147461 165.145264 C-11.807461 165.145264 -12.467461 165.145264 -13.147461 165.145264 C-13.111931 165.708101 -13.076401 166.270938 -13.039795 166.85083 C-12.355475 178.062706 -11.924712 188.952411 -13.147461 200.145264 C-12.157461 200.475264 -11.167461 200.805264 -10.147461 201.145264 C-10.642461 201.475264 -10.642461 201.475264 -13.147461 203.145264 C-13.368539 205.933793 -13.428536 208.491795 -13.334961 211.270264 C-13.321426 212.024365 -13.307891 212.778467 -13.293945 213.55542 C-13.258561 215.419005 -13.204753 217.282223 -13.147461 219.145264 C-14.620438 218.164047 -14.620438 218.164047 -16.147461 216.145264 C-16.458629 213.307648 -16.584905 210.685371 -16.579834 207.844727 C-16.590011 206.988552 -16.600189 206.132378 -16.610675 205.250259 C-16.64112 202.372749 -16.650128 199.495571 -16.65918 196.61792 C-16.676328 194.562281 -16.694718 192.506652 -16.714264 190.451035 C-16.76319 184.867394 -16.792892 179.283805 -16.818027 173.700012 C-16.840589 169.047114 -16.872222 164.394295 -16.903716 159.741449 C-16.985523 147.588739 -17.044877 135.436012 -17.095618 123.283136 C-17.132686 114.704352 -17.185079 106.125764 -17.246094 97.547119 C-17.320449 87.062956 -17.379936 76.578852 -17.419068 66.094495 C-17.439666 60.582438 -17.465952 55.070569 -17.507172 49.558624 C-17.545137 44.381234 -17.563434 39.204139 -17.566601 34.026613 C-17.570967 32.132555 -17.582151 30.238498 -17.600758 28.344526 C-17.625049 25.756917 -17.624317 23.170452 -17.617432 20.582764 C-17.630245 19.839609 -17.643059 19.096455 -17.65626 18.330781 C-17.602599 12.909334 -16.182262 8.666228 -13.147461 4.145264 C-9.057288 0.97538 -5.098649 0.027499 0 0 Z M-5.147461 5.145264 C-5.25293 7.530518 -5.25293 7.530518 -5.147461 10.145264 C-3.459961 11.981201 -3.459961 11.981201 -1.147461 13.520264 C-0.776211 13.781943 -0.776211 13.781943 1.102539 15.106201 C4.232176 16.288706 6.20955 15.885622 9.457031 15.4245 C14.0706 14.886712 18.712441 14.904108 23.352539 14.828857 C24.428826 14.808076 25.505112 14.787295 26.614014 14.765884 C30.026795 14.700892 33.439649 14.641739 36.852539 14.582764 C39.176765 14.539531 41.500984 14.495915 43.825195 14.451904 C49.500902 14.345263 55.176679 14.243406 60.852539 14.145264 C61.165039 11.895264 61.165039 11.895264 60.852539 9.145264 C58.308747 6.397478 56.644711 5.275891 52.935471 4.664246 C51.862915 4.673128 50.79036 4.68201 49.685303 4.691162 C49.074859 4.691313 49.074859 4.691313 45.985641 4.692078 C44.677147 4.712723 43.368653 4.733368 42.020508 4.754639 C40.660027 4.762105 39.299536 4.767796 37.939041 4.77179 C34.3697 4.787014 30.801016 4.826267 27.231934 4.870605 C23.585377 4.911628 19.938713 4.929815 16.291992 4.949951 C9.14524 4.992765 1.998933 5.060977 -5.147461 5.145264 Z " fill="#111111" transform="translate(167.1474609375,243.854736328125)"/><path d="M0 0 C1.068638 -0.00638 2.137276 -0.01276 3.238297 -0.019333 C4.3945 -0.020446 5.550703 -0.021559 6.741943 -0.022705 C7.338354 -0.024369 7.338354 -0.024369 10.356552 -0.032791 C12.885972 -0.03786 15.415399 -0.040199 17.944824 -0.040039 C21.792025 -0.042214 25.638934 -0.060338 29.486084 -0.079346 C31.946369 -0.082282 34.406656 -0.084265 36.866943 -0.085205 C38.008977 -0.092391 39.151011 -0.099576 40.327652 -0.106979 C56.566525 -0.061173 56.566525 -0.061173 62.87085 4.281982 C63.703584 5.12374 64.536318 5.965498 65.394287 6.832764 C66.303076 7.727373 67.211865 8.621982 68.148193 9.543701 C68.580674 9.972959 68.580674 9.972959 70.769287 12.145264 C72.895792 13.9502 75.042038 15.723434 77.210693 17.477295 C80.652728 21.160876 81.021037 25.260236 81.036713 30.128265 C81.045243 31.328247 81.053773 32.528228 81.062561 33.764572 C81.061655 35.072754 81.060748 36.380936 81.059814 37.72876 C81.065802 39.126992 81.072608 40.525222 81.08017 41.923447 C81.097814 45.71484 81.102524 49.506142 81.103801 53.297573 C81.105224 55.668094 81.109497 58.038592 81.114796 60.409107 C81.13329 68.68413 81.141467 76.959088 81.139893 85.234131 C81.138691 92.939638 81.159795 100.644865 81.19138 108.350301 C81.217556 114.972975 81.228259 121.595558 81.226982 128.218283 C81.226473 132.17061 81.232133 136.122688 81.253338 140.074963 C81.272744 143.793321 81.272829 147.511194 81.258305 151.22957 C81.255226 153.238037 81.271876 155.246504 81.289185 157.254898 C81.241912 164.048638 81.03088 168.705938 76.769287 174.145264 C74.519287 175.082764 74.519287 175.082764 72.769287 175.145264 C73.256708 174.614063 73.744128 174.082862 74.246319 173.535563 C76.202721 170.464989 76.141548 168.528809 76.13678 164.900467 C76.142349 163.617462 76.147918 162.334457 76.153656 161.012573 C76.144634 159.593016 76.135316 158.17346 76.125732 156.753906 C76.126523 155.25742 76.128621 153.760933 76.131927 152.26445 C76.137061 148.202668 76.123528 144.141139 76.1064 140.079397 C76.091372 135.833105 76.092539 131.586815 76.091736 127.3405 C76.088044 120.212633 76.073076 113.084862 76.050537 105.957031 C76.02163 96.796396 76.011311 87.635839 76.006855 78.475163 C76.002881 70.610385 75.990381 62.745624 75.976508 54.880857 C75.972403 52.346743 75.969481 49.812629 75.966713 47.278513 C75.961833 43.305057 75.951651 39.331649 75.937275 35.358217 C75.932739 33.896049 75.92991 32.433874 75.928867 30.971699 C75.927131 28.98416 75.918633 26.99663 75.909729 25.009109 C75.908242 24.451718 75.908242 24.451718 75.900715 21.630979 C75.769287 19.145264 75.769287 19.145264 74.769287 18.145264 C72.877902 18.035617 70.982413 17.99616 69.087891 17.984131 C67.873156 17.974523 66.658421 17.964916 65.406876 17.955017 C64.07065 17.95017 62.734422 17.945891 61.398193 17.942139 C60.036779 17.93639 58.675364 17.930632 57.31395 17.924866 C54.456529 17.914348 51.599137 17.90851 48.741699 17.905029 C45.074962 17.89954 41.408596 17.875508 37.741975 17.847057 C34.929041 17.828461 32.116196 17.823227 29.303205 17.821693 C27.951161 17.81866 26.599118 17.810608 25.247133 17.797508 C23.358189 17.780512 21.469093 17.784163 19.580078 17.788818 C18.503877 17.785173 17.427676 17.781527 16.318863 17.777771 C15.898183 17.838407 15.898183 17.838407 13.769287 18.145264 C11.444239 21.632835 11.518183 22.985702 11.51532 27.104492 C11.50968 28.349576 11.504041 29.594659 11.49823 30.877472 C11.502119 32.259705 11.506215 33.641938 11.510498 35.02417 C11.507788 36.477856 11.504228 37.931541 11.499878 39.385223 C11.490748 43.335569 11.4943 47.285809 11.500636 51.236156 C11.505693 55.36675 11.501005 59.497335 11.497864 63.62793 C11.494223 70.565039 11.499025 77.502106 11.508545 84.439209 C11.51943 92.463909 11.515904 100.488507 11.504892 108.513204 C11.495822 115.398189 11.494533 122.283143 11.499769 129.168132 C11.50289 133.282362 11.503295 137.396545 11.496696 141.510773 C11.490927 145.378366 11.494912 149.245828 11.506485 153.113407 C11.509134 154.534423 11.508363 155.95545 11.50396 157.376461 C11.498512 159.312982 11.506548 161.249527 11.51532 163.186035 C11.516074 164.270776 11.516828 165.355517 11.517605 166.473129 C11.769287 169.145264 11.769287 169.145264 13.769287 172.145264 C15.870026 172.543991 15.870026 172.543991 18.494385 172.577637 C18.984818 172.587534 18.984818 172.587534 21.466705 172.637619 C22.528198 172.644009 23.589691 172.650399 24.68335 172.656982 C25.768126 172.674934 26.852902 172.692885 27.970551 172.71138 C31.445089 172.765687 34.91949 172.799444 38.394287 172.832764 C40.745869 172.865919 43.097433 172.900407 45.448975 172.936279 C51.222288 173.021425 56.995618 173.089688 62.769287 173.145264 C62.769287 174.135264 62.769287 175.125264 62.769287 176.145264 C60.597984 178.316567 55.530552 177.334342 52.511475 177.348389 C51.575061 177.354089 50.638648 177.359789 49.673859 177.365662 C47.684846 177.375131 45.695818 177.381653 43.706787 177.385498 C40.677857 177.395157 37.649619 177.426142 34.62085 177.457764 C32.688562 177.464298 30.756269 177.469547 28.823975 177.473389 C27.922668 177.485735 27.021362 177.498082 26.092743 177.510803 C20.480817 177.491154 16.820628 176.548089 11.769287 174.145264 C10.552412 174.165889 9.335537 174.186514 8.081787 174.207764 C4.769287 174.145264 4.769287 174.145264 2.331787 172.145264 C1.816162 171.485264 1.300537 170.825264 0.769287 170.145264 C2.749287 170.145264 4.729287 170.145264 6.769287 170.145264 C6.655423 167.37356 6.528679 164.603483 6.394287 161.832764 C6.378818 161.439922 6.378818 161.439922 6.300537 159.451904 C6.261865 158.69458 6.223193 157.937256 6.18335 157.156982 C6.167639 156.808734 6.167639 156.808734 6.088135 155.046387 C5.769287 153.145264 5.769287 153.145264 3.769287 150.145264 C4.759287 150.145264 5.749287 150.145264 6.769287 150.145264 C6.628595 148.019917 6.481578 145.894988 6.331787 143.770264 C6.291182 143.178584 6.291182 143.178584 6.085693 140.184326 C5.769287 137.145264 5.769287 137.145264 4.769287 135.145264 C5.429287 135.145264 6.089287 135.145264 6.769287 135.145264 C6.630709 132.019897 6.482191 128.895081 6.331787 125.770264 C6.292471 124.880811 6.253154 123.991357 6.212646 123.074951 C6.170752 122.22417 6.128857 121.373389 6.085693 120.496826 C6.049036 119.711304 6.012378 118.925781 5.974609 118.116455 C5.769287 116.145264 5.769287 116.145264 4.769287 114.145264 C5.429287 114.145264 6.089287 114.145264 6.769287 114.145264 C6.630709 111.019897 6.482191 107.895081 6.331787 104.770264 C6.292471 103.880811 6.253154 102.991357 6.212646 102.074951 C6.170752 101.22417 6.128857 100.373389 6.085693 99.496826 C6.049036 98.711304 6.012378 97.925781 5.974609 97.116455 C5.769287 95.145264 5.769287 95.145264 4.769287 93.145264 C5.429287 93.145264 6.089287 93.145264 6.769287 93.145264 C6.655572 90.853009 6.527977 88.56144 6.394287 86.270264 C6.324678 84.994092 6.255068 83.71792 6.18335 82.403076 C5.769287 79.145264 5.769287 79.145264 3.769287 77.145264 C4.759287 77.145264 5.749287 77.145264 6.769287 77.145264 C6.628825 74.186584 6.482165 71.228441 6.331787 68.270264 C6.292471 67.428506 6.253154 66.586748 6.212646 65.719482 C6.170752 64.913818 6.128857 64.108154 6.085693 63.278076 C6.049036 62.534448 6.012378 61.79082 5.974609 61.024658 C5.769287 59.145264 5.769287 59.145264 4.769287 57.145264 C5.429287 57.145264 6.089287 57.145264 6.769287 57.145264 C6.769287 52.525264 6.769287 47.905264 6.769287 43.145264 C6.274287 42.980264 6.274287 42.980264 3.769287 42.145264 C4.264287 41.980264 4.264287 41.980264 6.769287 41.145264 C7.671533 19.512662 7.671533 19.512662 3.429443 14.871826 C-1.001829 11.671793 -4.903563 10.143684 -10.230713 9.145264 C-10.09229 13.103893 -9.943723 17.062077 -9.793213 21.020264 C-9.753896 22.148193 -9.71458 23.276123 -9.674072 24.438232 C-9.632178 25.5146 -9.590283 26.590967 -9.547119 27.699951 C-9.510461 28.694946 -9.473804 29.689941 -9.436035 30.715088 C-9.230713 33.145264 -9.230713 33.145264 -8.230713 35.145264 C-8.890713 35.145264 -9.550713 35.145264 -10.230713 35.145264 C-10.116998 37.437518 -9.989403 39.729088 -9.855713 42.020264 C-9.786104 43.296436 -9.716494 44.572607 -9.644775 45.887451 C-9.230713 49.145264 -9.230713 49.145264 -7.230713 51.145264 C-8.220713 51.145264 -9.210713 51.145264 -10.230713 51.145264 C-10.230713 57.415264 -10.230713 63.685264 -10.230713 70.145264 C-9.570713 70.475264 -8.910713 70.805264 -8.230713 71.145264 C-8.890713 71.145264 -9.550713 71.145264 -10.230713 71.145264 C-10.230713 75.765264 -10.230713 80.385264 -10.230713 85.145264 C-9.240713 85.475264 -8.250713 85.805264 -7.230713 86.145264 C-7.725713 86.310264 -7.725713 86.310264 -10.230713 87.145264 C-10.230713 93.415264 -10.230713 99.685264 -10.230713 106.145264 C-9.240713 106.475264 -8.250713 106.805264 -7.230713 107.145264 C-7.725713 107.310264 -7.725713 107.310264 -10.230713 108.145264 C-10.121085 111.271003 -9.9904 114.395511 -9.855713 117.520264 C-9.824775 118.409717 -9.793838 119.29917 -9.761963 120.215576 C-9.723291 121.066357 -9.684619 121.917139 -9.644775 122.793701 C-9.613354 123.579224 -9.581934 124.364746 -9.549561 125.174072 C-9.230713 127.145264 -9.230713 127.145264 -7.230713 129.145264 C-8.220713 129.145264 -9.210713 129.145264 -10.230713 129.145264 C-10.116947 131.270895 -9.989357 133.39579 -9.855713 135.520264 C-9.786104 136.703623 -9.716494 137.886982 -9.644775 139.106201 C-9.230713 142.145264 -9.230713 142.145264 -7.230713 144.145264 C-8.220713 144.145264 -9.210713 144.145264 -10.230713 144.145264 C-10.11625 146.708626 -9.989518 149.270398 -9.855713 151.832764 C-9.840244 152.193379 -9.840244 152.193379 -9.761963 154.018311 C-9.537357 158.117368 -9.053304 161.388948 -7.230713 165.145264 C-9.468069 164.250321 -10.926777 163.570834 -12.343597 161.587006 C-13.63217 158.040272 -13.539365 154.554327 -13.549561 150.827393 C-13.559595 149.985988 -13.569629 149.144583 -13.579967 148.27768 C-13.610949 145.475736 -13.627899 142.673888 -13.644775 139.871826 C-13.663715 137.892677 -13.683476 135.913536 -13.70401 133.934402 C-13.756248 128.639367 -13.795978 123.34431 -13.832413 118.049145 C-13.863379 113.691446 -13.900125 109.333804 -13.93676 104.97615 C-14.026481 94.26846 -14.102644 83.560724 -14.17141 72.852881 C-14.216248 65.986787 -14.273369 59.120895 -14.338568 52.254967 C-14.392688 46.48732 -14.43162 40.719675 -14.460876 34.951843 C-14.474019 32.719754 -14.491903 30.487688 -14.514709 28.255676 C-14.543891 25.238259 -14.554243 22.221398 -14.558838 19.203857 C-14.571134 18.355236 -14.583431 17.506615 -14.5961 16.632278 C-14.574443 10.925036 -13.468214 6.848911 -9.730713 2.332764 C-6.701655 -0.065241 -3.69504 0.01498 0 0 Z M-1.230713 5.145264 C-1.418701 9.920166 -1.418701 9.920166 0.273193 11.946045 C4.88944 15.335964 7.824357 16.977554 13.769287 16.145264 C14.429287 15.815264 15.089287 15.485264 15.769287 15.145264 C17.310709 15.027034 18.856898 14.968266 20.402588 14.939941 C21.363433 14.919996 22.324278 14.900051 23.31424 14.879501 C24.353858 14.862789 25.393477 14.846076 26.4646 14.828857 C26.99589 14.818467 26.99589 14.818467 29.68454 14.765884 C33.087721 14.700361 36.490982 14.641491 39.894287 14.582764 C42.197681 14.539581 44.501066 14.495967 46.804443 14.451904 C52.459307 14.344677 58.11425 14.242916 63.769287 14.145264 C64.126858 10.927125 64.051809 9.543202 62.147644 6.861145 C59.123383 4.679272 57.424572 4.660509 53.715576 4.691162 C52.494612 4.691464 51.273649 4.691766 50.015686 4.692078 C48.702031 4.712723 47.388375 4.733368 46.034912 4.754639 C44.673002 4.762103 43.311082 4.767795 41.949158 4.77179 C38.371583 4.787033 34.794663 4.826302 31.217346 4.870605 C27.564177 4.911587 23.910901 4.929807 20.257568 4.949951 C13.094511 4.992799 5.931991 5.061033 -1.230713 5.145264 Z " fill="#111111" transform="translate(45.230712890625,300.854736328125)"/></svg>