<svg xmlns="http://www.w3.org/2000/svg" viewBox="0 0 512 512" width="512" height="512"><path d="M0 0 C0.66 0 1.32 0 2 0 C2.230742 0.652266 2.461484 1.304531 2.699219 1.976562 C7.2129 14.072516 7.2129 14.072516 13.179688 17.109375 C14.708896 17.761169 16.254325 18.376791 17.816406 18.945312 C20.435197 20.210203 22.048899 21.867504 24 24 C23.047383 24.424102 22.094766 24.848203 21.113281 25.285156 C11.987715 29.491084 6.959755 32.785965 3.1875 42.4375 C2.795625 43.613125 2.40375 44.78875 2 46 C1.01 46 0.02 46 -1 46 C-1.230742 45.347734 -1.461484 44.695469 -1.699219 44.023438 C-5.596177 33.580205 -9.51245 29.824059 -19.550781 25.101562 C-20.359023 24.738047 -21.167266 24.374531 -22 24 C-21 21 -21 21 -19.144531 20.007812 C-18.374961 19.716484 -17.605391 19.425156 -16.8125 19.125 C-8.346248 15.515774 -5.451816 11.731257 -1.980469 3.328125 C-1 1 -1 1 0 0 Z M-6.125 13.375 C-8.382216 16.141626 -10.004029 18.002686 -13 20 C-13.460938 22.863281 -13.460938 22.863281 -13 26 C-11.101562 28.230469 -11.101562 28.230469 -8.625 30.1875 C-5.840339 32.428489 -4.000949 33.998576 -2 37 C0.367188 37.460938 0.367188 37.460938 3 37 C5.132812 35.101562 5.132812 35.101562 7.125 32.625 C9.382216 29.858374 11.004029 27.997314 14 26 C14.460938 23.136719 14.460938 23.136719 14 20 C12.101562 17.769531 12.101562 17.769531 9.625 15.8125 C6.840339 13.571511 5.000949 12.001424 3 9 C-1.717245 8.081461 -3.255192 9.807435 -6.125 13.375 Z " fill="#111111" transform="translate(45,22)"/><path d="M0 0 C1.149468 -0.004458 2.298935 -0.008916 3.483235 -0.013509 C4.114982 -0.013416 4.114982 -0.013416 7.312005 -0.01295 C8.667377 -0.01625 10.022749 -0.019976 11.378119 -0.024091 C15.106505 -0.034105 18.834874 -0.037827 22.563271 -0.040481 C26.583262 -0.044386 30.60324 -0.053964 34.623223 -0.062694 C44.334716 -0.082455 54.04621 -0.092525 63.757717 -0.101421 C68.333066 -0.105806 72.908413 -0.111172 77.48376 -0.11641 C92.697613 -0.133424 107.911466 -0.147917 123.125328 -0.155159 C127.073301 -0.157069 131.021274 -0.158989 134.969247 -0.160945 C135.459862 -0.161187 135.459862 -0.161187 137.942674 -0.162411 C153.828395 -0.170706 169.714041 -0.196035 185.59973 -0.228526 C201.91617 -0.261625 218.232571 -0.27961 234.549045 -0.282803 C243.707246 -0.284966 252.865337 -0.293678 262.023505 -0.319264 C269.825359 -0.341011 277.627075 -0.349003 285.428955 -0.339298 C289.406299 -0.334764 293.383361 -0.336584 297.360665 -0.356059 C301.009763 -0.373772 304.658375 -0.372628 308.307479 -0.357162 C310.236292 -0.353688 312.165111 -0.369751 314.093853 -0.386766 C326.345573 -0.297136 336.649514 2.62862 346.390389 10.134221 C347.277264 10.752971 348.164139 11.371721 349.077889 12.009221 C357.528346 19.774505 363.710424 31.087712 364.576545 42.610906 C364.650115 45.464097 364.661779 48.311188 364.651086 51.165318 C364.654911 52.255407 364.658737 53.345495 364.662678 54.468616 C364.672972 58.110293 364.669023 61.751811 364.665048 65.393498 C364.669396 68.008963 364.67458 70.624427 364.680535 73.239888 C364.693263 79.600261 364.695078 85.960591 364.692735 92.320975 C364.69095 97.492804 364.692707 102.664621 364.696959 107.83645 C364.697555 108.5735 364.69815 109.31055 364.698763 110.069935 C364.699975 111.567425 364.701189 113.064914 364.702405 114.562404 C364.713273 128.595326 364.711122 142.628225 364.705021 156.661149 C364.699852 169.486736 364.711106 182.312248 364.730119 195.137821 C364.749511 208.320855 364.757751 221.503852 364.753996 234.6869 C364.752086 242.082669 364.754551 249.478374 364.76871 256.874131 C364.781892 263.829574 364.779345 270.784863 364.766299 277.740306 C364.763934 280.290404 364.766667 282.840512 364.774922 285.390597 C364.785393 288.87696 364.777286 292.362812 364.764611 295.849156 C364.771986 296.853454 364.77936 297.857752 364.786958 298.892483 C364.673145 313.817519 358.845522 324.783466 348.390389 335.134221 C340.101977 342.788912 329.172564 347.26546 317.891778 347.254476 C316.799479 347.25585 315.70718 347.257225 314.58178 347.258641 C313.987646 347.256844 313.987646 347.256844 310.980966 347.247746 C309.722025 347.247892 308.463084 347.248039 307.165994 347.248189 C303.72217 347.248475 300.278382 347.242603 296.834567 347.235615 C293.232433 347.229356 289.630299 347.228776 286.028161 347.22759 C279.210746 347.224484 272.393347 347.21628 265.575939 347.20624 C257.812975 347.195056 250.050009 347.189563 242.287038 347.184545 C226.321478 347.174097 210.355939 347.155761 194.390389 347.134221 C194.390389 359.674221 194.390389 372.214221 194.390389 385.134221 C208.765389 384.884221 208.765389 384.884221 213.235604 384.77387 C222.145622 384.699268 229.464863 385.076716 236.53077 390.897405 C242.603936 397.081176 245.892244 404.697374 249.327889 412.509221 C249.907817 413.792431 250.48919 415.074988 251.07203 416.356877 C258.2944 432.329058 258.2944 432.329058 255.671639 440.325627 C252.293627 447.503903 247.346575 451.59289 240.390389 455.134221 C236.970425 456.259382 233.747387 456.265078 230.161462 456.274663 C229.521533 456.277518 229.521533 456.277518 226.283105 456.291966 C224.866799 456.293212 223.450494 456.294337 222.034188 456.295354 C220.54083 456.299984 219.047472 456.305009 217.554116 456.310399 C213.498093 456.323509 209.442087 456.329966 205.386047 456.33441 C202.849856 456.337343 200.313669 456.341449 197.77748 456.345914 C189.836246 456.359587 181.895022 456.369254 173.953776 456.373116 C164.798449 456.377593 155.643272 456.395127 146.48799 456.424116 C139.404173 456.445765 132.320397 456.455822 125.236547 456.457157 C121.009198 456.458203 116.781989 456.464065 112.554675 456.481977 C108.574578 456.498512 104.594726 456.500586 100.614606 456.491838 C99.159012 456.49107 97.703404 456.495372 96.247844 456.505296 C85.223877 456.576009 76.372677 455.964768 68.120858 448.157659 C64.450744 443.866193 62.764657 439.338244 61.827889 433.821721 C62.692741 428.152141 64.977078 423.296875 67.390389 418.134221 C67.814169 417.222532 68.237948 416.310842 68.674569 415.371526 C70.132912 412.246221 71.602586 409.126554 73.077889 406.009221 C73.565558 404.976682 74.053226 403.944143 74.555673 402.880315 C75.020621 401.909651 75.48557 400.938987 75.964608 399.938909 C76.383151 399.062185 76.801693 398.185461 77.232919 397.28217 C78.390389 395.134221 78.390389 395.134221 80.390389 393.134221 C81.015389 390.509221 81.015389 390.509221 81.390389 388.134221 C75.844888 389.666764 71.373668 392.340176 66.515389 395.321721 C65.646078 395.84927 64.776766 396.376819 63.881112 396.920354 C56.128939 401.641695 48.43394 406.455386 40.745126 411.278996 C33.254578 415.977792 25.736082 420.629145 18.202889 425.259221 C17.1262 425.923249 16.049511 426.587278 14.940194 427.271428 C9.720232 430.488271 4.488479 433.68083 -0.777579 436.821721 C-1.742201 437.402927 -2.706822 437.984133 -3.700675 438.582952 C-5.498778 439.665629 -7.302947 440.738325 -9.114249 441.798772 C-13.991316 444.751624 -16.499061 447.273145 -19.609611 452.134221 C-23.791545 454.66837 -26.934019 455.511378 -31.795157 455.522405 C-32.996604 455.531861 -34.19805 455.541318 -35.435905 455.551061 C-36.720415 455.544988 -38.004925 455.538915 -39.328361 455.532659 C-40.673048 455.534682 -42.017734 455.537596 -43.362418 455.541356 C-46.173275 455.545766 -48.983845 455.539392 -51.794669 455.525334 C-55.385831 455.508243 -58.976321 455.518091 -62.567458 455.536052 C-65.341982 455.546926 -68.116347 455.543427 -70.890876 455.535668 C-72.855027 455.532713 -74.819185 455.541775 -76.783317 455.551061 C-77.984763 455.541604 -79.18621 455.532148 -80.424064 455.522405 C-81.476301 455.520018 -82.528539 455.517631 -83.612662 455.515172 C-88.446328 454.900751 -91.674326 453.170617 -94.922111 449.571721 C-97.468134 445.894132 -97.734971 444.013156 -97.736594 439.560094 C-97.739414 438.373003 -97.742234 437.185913 -97.745139 435.96285 C-97.743115 434.65219 -97.741091 433.341531 -97.739005 431.991155 C-97.74036 430.600778 -97.742141 429.210403 -97.744315 427.820027 C-97.748897 424.021581 -97.747092 420.223161 -97.743936 416.424714 C-97.741393 412.404593 -97.743757 408.384475 -97.745322 404.364354 C-97.747148 397.56303 -97.744737 390.761716 -97.739982 383.960393 C-97.735221 377.075295 -97.735096 370.190218 -97.739982 363.30512 C-97.754759 341.618319 -97.733175 319.93206 -97.620522 298.245509 C-97.613345 296.856702 -97.606389 295.467894 -97.599675 294.079085 C-97.562028 286.307528 -97.503062 278.53693 -97.392535 270.766046 C-97.365761 268.733383 -97.34532 266.700626 -97.331782 264.667832 C-97.311714 261.944521 -97.266983 259.222797 -97.214591 256.499944 C-97.213754 255.726936 -97.212917 254.953927 -97.212054 254.157495 C-97.073265 249.026605 -95.937419 246.032522 -92.609611 242.134221 C-87.991067 238.397939 -83.595497 238.743072 -77.933829 238.841252 C-77.00867 238.845497 -76.083511 238.849742 -75.130317 238.854115 C-72.185614 238.870861 -69.241605 238.908506 -66.297111 238.946721 C-64.296469 238.961773 -62.295818 238.975461 -60.295157 238.987737 C-55.399709 239.020751 -50.504777 239.072505 -45.609611 239.134221 C-45.612376 238.129997 -45.615141 237.125774 -45.61799 236.091119 C-45.684665 211.627144 -45.733924 187.163182 -45.765047 162.699136 C-45.780499 150.868383 -45.801557 139.03769 -45.835929 127.206975 C-45.865882 116.892241 -45.885198 106.577551 -45.891876 96.262775 C-45.895778 90.803988 -45.904914 85.345326 -45.926801 79.886579 C-45.94726 74.741872 -45.953425 69.597341 -45.948934 64.452598 C-45.949755 62.570936 -45.955664 60.689269 -45.967227 58.807643 C-46.072718 40.746053 -43.745426 27.019202 -30.996329 13.42719 C-22.668052 5.426047 -11.645274 0.020956 0 0 Z M-32.922111 17.446721 C-43.167212 30.449003 -42.900558 44.703798 -42.836661 60.445256 C-42.836097 62.397445 -42.836415 64.349635 -42.837546 66.301824 C-42.838118 71.57796 -42.826392 76.854005 -42.812398 82.130121 C-42.799862 87.652754 -42.798718 93.175389 -42.796348 98.698033 C-42.790141 109.145431 -42.773742 119.592786 -42.753649 130.040165 C-42.731263 141.938593 -42.72029 153.837023 -42.710258 165.735466 C-42.689375 190.201741 -42.654216 214.667979 -42.609611 239.134221 C-41.391446 239.160002 -40.173282 239.185784 -38.918204 239.212346 C-37.294472 239.26866 -35.670776 239.326007 -34.047111 239.384221 C-33.247247 239.398401 -32.447384 239.41258 -31.623282 239.42719 C-27.450459 239.597509 -24.427468 239.970764 -20.832267 242.181096 C-17.615716 244.130521 -16.260105 244.576705 -12.609611 244.134221 C-12.608877 243.619036 -12.608877 243.619036 -12.605166 241.011889 C-12.568583 215.949064 -12.509149 190.886372 -12.425708 165.823657 C-12.385886 153.703543 -12.35351 141.583495 -12.338614 129.463323 C-12.325614 118.900266 -12.298691 108.337352 -12.254997 97.774376 C-12.232346 92.180536 -12.216702 86.586872 -12.217727 80.992982 C-12.218471 75.728343 -12.200607 70.464095 -12.168443 65.199557 C-12.159921 63.267027 -12.158209 61.334453 -12.163808 59.401912 C-12.170435 56.762977 -12.152559 54.125294 -12.128592 51.486485 C-12.132473 51.104184 -12.132473 51.104184 -12.152109 49.169505 C-12.06887 43.99152 -11.088456 40.980214 -7.609611 37.134221 C-1.314035 32.223773 5.720769 32.572196 13.377831 32.633016 C14.678298 32.627481 15.978764 32.621947 17.318638 32.616245 C20.912901 32.601532 24.506723 32.611646 28.100972 32.625981 C31.983095 32.637111 35.865158 32.625142 39.747277 32.616139 C47.345959 32.602219 54.944475 32.609754 62.543149 32.624815 C71.394032 32.641689 80.244873 32.638463 89.095767 32.634721 C104.888425 32.628845 120.681004 32.643005 136.473641 32.667668 C151.794961 32.691593 167.116174 32.698671 182.437509 32.688176 C199.126573 32.676765 215.815589 32.674839 232.504653 32.689274 C234.284395 32.6908 236.064137 32.69232 237.843879 32.693835 C238.2817 32.694214 238.2817 32.694214 240.49734 32.696132 C246.665733 32.700873 252.834105 32.699024 259.002498 32.69477 C266.519699 32.689842 274.0368 32.695834 281.553979 32.715664 C285.38878 32.725531 289.223427 32.730648 293.058236 32.722772 C297.215613 32.714408 301.372582 32.729304 305.529931 32.746541 C306.741406 32.740531 307.95288 32.734521 309.201067 32.728329 C316.551556 32.783882 321.773458 33.299329 327.702889 37.946721 C331.838989 43.308332 331.678689 49.195215 331.651086 55.654225 C331.654911 56.605881 331.658737 57.557536 331.662678 58.538029 C331.672987 61.723063 331.66902 64.907916 331.665048 68.092961 C331.669395 70.378028 331.674579 72.663093 331.680535 74.948155 C331.693931 81.152634 331.694503 87.357052 331.691972 93.561542 C331.690903 98.740613 331.695785 103.919671 331.700577 109.098738 C331.712309 122.014633 331.711446 134.930489 331.705021 147.846385 C331.699851 159.0575 331.711108 170.268527 331.730119 181.479625 C331.7495 192.998076 331.757461 204.516476 331.753996 216.034945 C331.752182 222.498945 331.754831 228.962865 331.76871 235.426852 C331.781272 241.504858 331.77936 247.582689 331.766299 253.660691 C331.76393 255.891149 331.766679 258.121618 331.774922 260.352061 C331.785366 263.397321 331.777308 266.441994 331.764611 269.487233 C331.771986 270.369342 331.77936 271.25145 331.786958 272.160289 C331.730778 278.567262 330.623675 283.284857 326.577889 288.446721 C320.958237 292.781881 314.637708 292.42596 307.874185 292.412694 C306.815502 292.418486 305.756818 292.424279 304.666054 292.430247 C301.11922 292.44725 297.572515 292.450124 294.025643 292.453069 C291.482915 292.462367 288.940191 292.472535 286.39747 292.48351 C280.923466 292.505177 275.449498 292.520788 269.975461 292.530877 C262.060977 292.545475 254.146559 292.571015 246.232113 292.599208 C233.390846 292.644657 220.54957 292.68128 207.708261 292.712346 C195.235588 292.74254 182.762937 292.776894 170.290292 292.816838 C169.905758 292.818069 169.905758 292.818069 167.959781 292.824298 C164.101514 292.836672 160.243248 292.849129 156.384981 292.861626 C124.386815 292.965164 92.388624 293.054377 60.390389 293.134221 C59.035993 295.843014 59.325375 298.143554 59.390389 301.134221 C63.943961 301.387197 63.943961 301.387197 66.265389 300.071721 C69.579737 298.609509 71.932634 299.284948 75.390389 300.134221 C80.561561 303.377879 82.952784 307.965319 85.890389 313.134221 C87.323011 315.630836 88.770647 318.10691 90.284121 320.55563 C91.959868 323.312994 93.402648 326.146619 94.845345 329.031973 C101.926605 342.367128 101.926605 342.367128 107.648035 345.285988 C113.91612 347.061636 120.332058 346.676778 126.779305 346.452336 C128.919375 346.451605 131.059463 346.459665 133.199471 346.475789 C138.981533 346.494262 144.755389 346.389465 150.535803 346.260895 C156.601007 346.146465 162.666299 346.144048 168.732415 346.128621 C178.915988 346.087304 189.096539 345.973533 199.278817 345.807805 C213.613045 345.574614 227.945999 345.472349 242.281801 345.396372 C253.444489 345.332679 264.606929 345.235158 275.769296 345.130315 C276.960598 345.119332 278.151899 345.10835 279.379301 345.097034 C286.242909 345.031272 293.105927 344.947953 299.968995 344.839412 C302.042485 344.808438 304.116052 344.782138 306.189666 344.761003 C322.771814 344.585008 337.285635 343.676333 350.140389 331.946721 C359.312242 322.146066 361.698861 310.899831 361.651086 297.951268 C361.654911 296.844846 361.658737 295.738423 361.662678 294.598473 C361.672974 290.901519 361.669023 287.204721 361.665048 283.507756 C361.669396 280.852879 361.674515 278.198014 361.680535 275.543141 C361.693264 269.086515 361.695078 262.62993 361.692735 256.173293 C361.69095 250.923279 361.692706 245.673277 361.696959 240.423265 C361.697257 240.049189 361.697257 240.049189 361.698763 238.156138 C361.699975 236.636101 361.701189 235.116063 361.702405 233.596026 C361.713274 219.351363 361.711122 205.106724 361.705021 190.862059 C361.699852 177.842476 361.711106 164.822968 361.730119 151.803399 C361.74951 138.421484 361.757751 125.039604 361.753996 111.657674 C361.752086 104.150123 361.754552 96.642635 361.76871 89.135095 C361.780641 82.743735 361.782009 76.352477 361.76992 69.961116 C361.764043 66.703115 361.764534 63.445341 361.774922 60.187346 C361.785391 56.648438 361.777288 53.110032 361.764611 49.571141 C361.771986 48.55128 361.77936 47.531418 361.786958 46.480651 C361.694197 34.136937 357.586391 23.531687 349.202889 14.384221 C338.605062 4.466343 326.760271 2.832756 312.873864 2.866796 C311.502664 2.863055 310.131465 2.858452 308.76027 2.853065 C305.006694 2.840869 301.253208 2.841091 297.499617 2.843454 C293.445605 2.843863 289.391622 2.832814 285.337625 2.823339 C277.400094 2.806746 269.462593 2.80123 261.525047 2.800114 C255.070348 2.799162 248.615659 2.795048 242.160964 2.788713 C223.846681 2.771104 205.532421 2.761873 187.21813 2.763373 C186.231399 2.763453 185.244668 2.763533 184.228036 2.763616 C183.240095 2.763697 182.252155 2.763779 181.234276 2.763863 C165.229174 2.764676 149.224166 2.745543 133.219091 2.717339 C116.771438 2.688584 100.32383 2.6748 83.876151 2.676526 C74.647594 2.677189 65.419135 2.671735 56.1906 2.65017 C48.33211 2.631924 40.473764 2.627639 32.615261 2.641189 C28.609543 2.647702 24.604099 2.647898 20.598407 2.630483 C16.923555 2.614671 13.249195 2.617697 9.574354 2.635051 C7.63182 2.639537 5.689271 2.624527 3.746797 2.608572 C-10.580757 2.720162 -23.010053 6.779939 -32.922111 17.446721 Z M-7.885767 38.142373 C-10.118211 42.016932 -10.290649 45.279243 -10.210883 49.631978 C-10.215155 50.485629 -10.219427 51.33928 -10.223829 52.218799 C-10.232063 55.078267 -10.204568 57.936266 -10.177238 60.795598 C-10.175827 62.84557 -10.176619 64.895545 -10.17945 66.945516 C-10.180886 72.511379 -10.151467 78.076704 -10.11658 83.642442 C-10.085346 89.4587 -10.082388 95.274969 -10.076453 101.091298 C-10.060906 112.105616 -10.019866 123.119687 -9.969706 134.133896 C-9.913839 146.673037 -9.886333 159.21219 -9.861229 171.751424 C-9.808951 197.545827 -9.720992 223.34001 -9.609611 249.134221 C-8.780859 249.122586 -7.952107 249.11095 -7.098242 249.098962 C-6.555949 249.094437 -6.555949 249.094437 -3.811622 249.071538 C-2.73537 249.059902 -1.659118 249.048267 -0.550253 249.036279 C2.877806 249.150455 5.109363 249.840094 8.073983 251.556096 C9.01097 252.081308 9.947958 252.606521 10.913339 253.147649 C11.87514 253.720718 12.836942 254.293787 13.827889 254.884221 C14.854144 255.468247 15.880399 256.052273 16.937753 256.653996 C19.057373 257.863741 21.170695 259.084588 23.277596 260.31635 C26.258001 262.056906 29.25485 263.763681 32.261483 265.45844 C37.323713 268.318 42.368167 271.204975 47.390389 274.134221 C48.291686 274.651699 49.192982 275.169177 50.121591 275.702336 C51.015958 276.223843 51.910326 276.745349 52.831796 277.282659 C53.237568 277.51751 53.237568 277.51751 55.291024 278.705998 C59.236784 281.390345 60.890109 284.63338 62.390389 289.134221 C95.699532 289.225731 129.008643 289.296237 162.317883 289.338482 C166.248302 289.343485 170.178721 289.348663 174.109139 289.353948 C174.891631 289.354997 175.674123 289.356046 176.480327 289.357127 C189.158521 289.374543 201.836644 289.406088 214.514795 289.442832 C227.518993 289.480208 240.523152 289.50245 253.527401 289.510575 C261.554933 289.51607 269.58226 289.533438 277.609729 289.565887 C283.760119 289.589485 289.910352 289.592049 296.060781 289.586652 C298.587603 289.587756 301.114433 289.595757 303.64121 289.611043 C307.082042 289.630844 310.521987 289.626196 313.962838 289.615239 C314.970615 289.626891 315.978392 289.638542 317.016708 289.650546 C320.875905 289.617161 323.586904 289.569883 327.009945 287.713861 C329.167114 283.682754 328.944599 279.884549 328.905053 275.378972 C328.908526 274.878439 328.908526 274.878439 328.9261 272.345439 C328.944439 268.981189 328.934086 265.617638 328.923837 262.253362 C328.930892 259.845494 328.939635 257.437631 328.949944 255.029775 C328.970151 249.162787 328.971454 243.295977 328.963319 237.428976 C328.957022 232.661257 328.958153 227.893594 328.964591 223.125875 C328.965042 222.786741 328.965042 222.786741 328.967323 221.070521 C328.969174 219.692685 328.971037 218.314849 328.972911 216.937013 C328.989494 204.013512 328.980766 191.09012 328.963925 178.166626 C328.949226 166.338977 328.963859 154.511582 328.992695 142.683965 C329.022076 130.542938 329.033066 118.402029 329.023513 106.260968 C329.022491 104.888168 329.021496 103.515368 329.02053 102.142568 C329.020292 101.804836 329.020292 101.804836 329.019086 100.095706 C329.01692 95.333053 329.026735 90.57051 329.041301 85.807881 C329.060628 79.399074 329.053767 72.990624 329.029101 66.581832 C329.024076 64.225952 329.027628 61.870037 329.04025 59.514186 C329.056085 56.305396 329.041318 53.098184 329.018579 49.88947 C329.030414 48.950568 329.04225 48.011665 329.054444 47.044311 C329.042022 46.185382 329.0296 45.326452 329.016802 44.441495 C329.016532 43.70093 329.016262 42.960366 329.015985 42.19736 C328.036584 38.967413 326.19683 37.889057 323.390389 36.134221 C320.672005 35.631674 320.672005 35.631674 317.666619 35.628063 C316.517194 35.617016 315.367768 35.605968 314.183512 35.594585 C312.925255 35.602826 311.666999 35.611067 310.370614 35.619557 C309.01692 35.614232 307.663232 35.607166 306.309555 35.59851 C302.590662 35.579857 298.872166 35.586197 295.153256 35.596663 C291.142269 35.603648 287.131364 35.587663 283.1204 35.574666 C275.263313 35.553009 267.406369 35.553157 259.549261 35.561292 C253.164493 35.567588 246.779766 35.566458 240.394998 35.560019 C239.4868 35.559118 238.578603 35.558216 237.642884 35.557287 C235.797985 35.555436 233.953085 35.553573 232.108185 35.5517 C214.802489 35.535115 197.496875 35.543846 180.191184 35.560685 C164.351819 35.575385 148.512643 35.560751 132.673302 35.531915 C116.41561 35.502537 100.158006 35.491544 83.90029 35.501097 C82.06212 35.50212 80.223951 35.503114 78.385781 35.504081 C77.481332 35.504557 76.576882 35.505034 75.645025 35.505524 C69.266808 35.507691 62.888674 35.497874 56.510476 35.48331 C48.739113 35.465812 40.967992 35.465867 33.196639 35.488661 C29.230365 35.499827 25.264517 35.502914 21.298261 35.484361 C17.668618 35.4676 14.039776 35.473846 10.410186 35.498577 C8.472537 35.5058 6.534844 35.488392 4.597267 35.470166 C-3.67205 35.559534 -3.67205 35.559534 -7.885767 38.142373 Z M-91.983314 243.543508 C-94.515958 247.578045 -94.180038 251.429494 -94.155509 256.103215 C-94.165833 257.122956 -94.176156 258.142697 -94.186792 259.193339 C-94.216442 262.602175 -94.217689 266.010422 -94.218986 269.419377 C-94.234235 271.835246 -94.251202 274.251105 -94.269782 276.666951 C-94.30994 282.493539 -94.331733 288.319976 -94.344322 294.146684 C-94.359386 300.857247 -94.393381 307.567672 -94.428125 314.278157 C-94.483481 325.08693 -94.52391 335.895685 -94.552958 346.704559 C-94.586577 359.192698 -94.655409 371.680056 -94.754233 384.167836 C-94.80804 391.005841 -94.847095 397.843891 -94.879613 404.682028 C-94.901068 409.151654 -94.928142 413.621061 -94.969596 418.09055 C-95.007179 422.218033 -95.025743 426.345148 -95.028813 430.472796 C-95.033134 431.959199 -95.04428 433.4456 -95.06289 434.931891 C-95.086969 436.932303 -95.084042 438.932986 -95.079581 440.933537 C-95.085448 442.043229 -95.091314 443.15292 -95.097358 444.296239 C-94.49155 447.821164 -93.402093 448.96693 -90.609611 451.134221 C-87.34488 452.222465 -84.910185 452.280886 -81.47338 452.311223 C-80.840899 452.317641 -80.840899 452.317641 -77.640159 452.350118 C-76.257584 452.358285 -74.875005 452.365728 -73.492423 452.372502 C-73.143877 452.37454 -73.143877 452.37454 -71.380023 452.384852 C-67.691419 452.405691 -64.002851 452.420003 -60.3142 452.429387 C-56.508711 452.440457 -52.703805 452.474868 -48.898522 452.514559 C-45.967947 452.540724 -43.037511 452.549079 -40.10683 452.552669 C-38.704214 452.557534 -37.301605 452.569145 -35.899104 452.587707 C-33.934423 452.612095 -31.969457 452.608713 -30.00463 452.604192 C-28.887829 452.610058 -27.771027 452.615924 -26.620383 452.621968 C-22.696919 451.986364 -21.172079 451.198958 -18.609611 448.134221 C-17.856713 444.975476 -17.897676 441.878063 -17.915763 438.642522 C-17.901605 437.661237 -17.887446 436.679952 -17.872859 435.668931 C-17.831389 432.34724 -17.825975 429.026465 -17.820548 425.704534 C-17.799098 423.309669 -17.775634 420.914821 -17.750327 418.519994 C-17.693506 412.548383 -17.661249 406.577047 -17.638617 400.605243 C-17.618062 395.458981 -17.583505 390.312943 -17.541373 385.166814 C-17.53829 384.788368 -17.53829 384.788368 -17.522686 382.8732 C-17.516467 382.110131 -17.510248 381.347061 -17.50384 380.560868 C-17.372044 364.381102 -17.297157 348.20171 -17.268611 332.02144 C-17.251826 322.722228 -17.217804 313.423413 -17.162017 304.124351 C-17.123428 297.459986 -17.103806 290.795729 -17.098498 284.131254 C-17.094864 280.192518 -17.083024 276.254226 -17.050395 272.315614 C-17.020467 268.658943 -17.013946 265.00299 -17.025779 261.346223 C-17.026105 259.372187 -17.001607 257.398196 -16.976401 255.424321 C-16.98472 254.251566 -16.993038 253.078812 -17.001609 251.870519 C-16.998299 250.852939 -16.994989 249.83536 -16.991578 248.786944 C-17.842892 245.13293 -19.494607 244.095968 -22.609611 242.134221 C-25.727546 241.626287 -25.727546 241.626287 -29.264152 241.616643 C-29.911946 241.609634 -30.55974 241.602624 -31.227164 241.595403 C-33.356392 241.577878 -35.484277 241.589423 -37.613517 241.602971 C-39.098947 241.600275 -40.584376 241.596391 -42.0698 241.591374 C-45.177562 241.585487 -48.284862 241.594018 -51.39257 241.612737 C-55.373085 241.635547 -59.352524 241.622387 -63.333 241.598447 C-66.398282 241.583984 -69.46331 241.588596 -72.5286 241.598958 C-73.996198 241.601623 -75.463819 241.598363 -76.93139 241.58904 C-78.983038 241.578864 -81.032946 241.594385 -83.084464 241.616643 C-83.667606 241.618234 -83.667606 241.618234 -86.618659 241.626287 C-89.609611 242.134221 -89.609611 242.134221 -91.983314 243.543508 Z M-10.912101 257.995549 C-14.852795 264.293656 -15.236724 269.383176 -14.922111 276.696721 C-14.899552 277.705412 -14.876993 278.714104 -14.853751 279.753362 C-14.795412 282.215255 -14.713631 284.673907 -14.609611 287.134221 C-12.959611 287.134221 -11.309611 287.134221 -9.609611 287.134221 C-9.113321 286.135198 -8.617032 285.136174 -8.105704 284.106877 C-7.420828 282.802797 -6.734556 281.499449 -6.047111 280.196721 C-5.7242 279.537366 -5.40129 278.87801 -5.068595 278.198674 C-3.293341 274.901775 -2.001904 273.302917 1.460702 271.813909 C7.422563 272.299865 11.652345 275.138864 16.702889 278.196721 C17.684511 278.770998 18.666132 279.345276 19.677499 279.936955 C21.635329 281.086257 23.584899 282.249754 25.525643 283.427678 C27.429219 284.561647 29.359473 285.652026 31.313729 286.696233 C32.219457 287.190105 33.125184 287.683977 34.058358 288.192815 C34.463889 288.405148 34.463889 288.405148 36.516122 289.47968 C38.390389 291.134221 38.390389 291.134221 39.34913 293.929875 C39.400621 297.92885 38.366713 299.887397 36.382577 303.345159 C36.06008 303.916989 35.737582 304.488819 35.405313 305.077977 C34.373942 306.897614 33.320119 308.703045 32.265389 310.509221 C31.579012 311.714108 30.894102 312.919831 30.210702 314.126409 C27.377004 319.104629 24.485478 324.034872 21.398202 328.860784 C19.390389 332.134221 19.390389 332.134221 19.390389 334.134221 C16.422594 335.02456 14.874472 335.326613 11.952889 334.165471 C11.107264 333.660159 10.261639 333.154846 9.390389 332.634221 C8.439061 332.08508 7.487733 331.53594 6.507577 330.970159 C5.478905 330.364299 4.450233 329.75844 3.390389 329.134221 C1.106696 327.82851 -1.185039 326.536761 -3.484611 325.259221 C-4.533907 324.663674 -5.583204 324.068127 -6.664298 323.454534 C-9.609611 322.134221 -9.609611 322.134221 -14.609611 322.134221 C-14.609611 328.074221 -14.609611 334.014221 -14.609611 340.134221 C-13.977325 340.466155 -13.977325 340.466155 -10.777579 342.14594 C-9.117055 343.037182 -7.456919 343.929147 -5.797111 344.821721 C-5.380421 345.03925 -5.380421 345.03925 -3.27172 346.14008 C4.915062 350.578697 4.915062 350.578697 6.390389 355.134221 C5.827889 357.438909 5.827889 357.438909 4.390389 360.009221 C3.828358 361.036604 3.266327 362.063987 2.687264 363.122502 C2.339862 363.729167 1.99246 364.335832 1.63453 364.960881 C0.120942 367.604908 -1.360539 370.266139 -2.843986 372.92719 C-11.770358 388.875342 -11.770358 388.875342 -14.609611 393.134221 C-14.836661 395.586125 -14.836661 395.586125 -14.804923 398.45844 C-14.798478 399.486467 -14.792032 400.514495 -14.785392 401.573674 C-14.768634 402.64553 -14.751876 403.717385 -14.734611 404.821721 C-14.725587 405.905178 -14.716564 406.988635 -14.707267 408.104924 C-14.683684 410.781578 -14.650772 413.457789 -14.609611 416.134221 C-12.959611 416.134221 -11.309611 416.134221 -9.609611 416.134221 C-9.207584 415.410574 -8.805558 414.686926 -8.391349 413.94135 C-7.826578 412.924763 -7.261808 411.908176 -6.679923 410.860784 C-6.054486 409.734949 -5.429049 408.609114 -4.784659 407.449162 C-3.40711 404.969549 -2.029318 402.490071 -0.651359 400.010686 C5.264124 389.366086 5.264124 389.366086 8.191171 384.071721 C12.910446 375.54076 17.710675 367.060747 22.565438 358.606145 C27.511996 349.968786 32.335216 341.263793 37.139169 332.546575 C40.361491 326.715727 43.659758 320.951216 47.113046 315.254094 C49.697084 310.965638 52.033999 306.550084 54.390389 302.134221 C54.881522 301.264104 55.372655 300.393987 55.878671 299.497502 C58.811337 294.103048 60.433755 290.290079 59.390389 284.134221 C56.109755 280.322525 52.702159 277.938439 48.296639 275.567815 C47.716541 275.251838 47.136443 274.935862 46.538766 274.610311 C44.660363 273.589086 42.77575 272.580034 40.890389 271.571721 C38.268581 270.157465 35.649495 268.738221 33.031014 267.317815 C32.379615 266.965448 31.728215 266.61308 31.057076 266.250035 C27.025334 264.058645 23.059046 261.78315 19.124764 259.419377 C18.18955 258.861294 17.254335 258.30321 16.29078 257.728215 C14.576868 256.697437 12.871681 255.651949 11.177499 254.589055 C2.165066 249.212705 -4.631013 249.01954 -10.912101 257.995549 Z M-4.58422 279.835393 C-4.984474 280.614631 -5.384728 281.39387 -5.797111 282.196721 C-6.208966 282.948889 -6.620821 283.701057 -7.045157 284.476018 C-7.864892 285.976484 -8.668607 287.485816 -9.455802 289.003606 C-10.609611 291.134221 -10.609611 291.134221 -11.790763 292.887883 C-15.248964 298.064478 -15.08355 302.589945 -14.859611 308.571721 C-14.841564 309.494045 -14.823517 310.41637 -14.804923 311.366643 C-14.758147 313.623608 -14.692629 315.878347 -14.609611 318.134221 C-10.863595 320.284168 -7.109923 322.41987 -3.348624 324.542912 C-2.071053 325.266616 -0.795628 325.994121 0.477548 326.72553 C2.311427 327.778166 4.152669 328.816744 5.995858 329.852971 C7.100826 330.481389 8.205795 331.109807 9.344247 331.757268 C12.414456 333.1451 14.08918 333.767465 17.390389 333.134221 C18.951669 331.604924 18.951669 331.604924 20.277108 329.415471 C20.780326 328.593049 21.283544 327.770627 21.802011 326.923284 C24.681406 321.867302 27.47467 316.773353 30.202889 311.634221 C31.353738 309.477173 32.506002 307.320879 33.659921 305.165471 C34.161124 304.222522 34.662328 303.279573 35.17872 302.308049 C36.390389 300.134221 36.390389 300.134221 37.390389 299.134221 C37.952889 295.884221 37.952889 295.884221 37.390389 292.134221 C35.991952 290.913762 35.991952 290.913762 34.077889 289.825627 C33.714414 289.614141 33.714414 289.614141 31.875009 288.543889 C31.055084 288.078699 30.23516 287.613508 29.390389 287.134221 C27.534812 286.023726 25.679349 284.913038 23.823983 283.80219 C21.826499 282.639945 19.827778 281.479823 17.827889 280.321721 C16.825643 279.724241 15.823397 279.12676 14.79078 278.511174 C10.685467 276.146363 7.135514 274.304792 2.499764 273.243596 C-1.620566 274.423791 -2.547804 276.187747 -4.58422 279.835393 Z M58.327889 305.259221 C57.982743 305.478201 57.982743 305.478201 56.236093 306.58637 C49.33101 311.310385 45.227951 317.256254 42.390389 325.134221 C42.202889 328.556096 42.202889 328.556096 42.390389 331.134221 C48.491123 332.099376 52.770398 327.891697 57.507577 324.601018 C58.19078 324.146623 58.873983 323.692229 59.577889 323.224065 C59.884042 323.011974 59.884042 323.011974 61.433358 321.938664 C64.182063 320.808801 65.618271 321.123165 68.390389 322.134221 C70.146249 324.006291 70.146249 324.006291 71.734139 326.462346 C72.328397 327.367912 72.922655 328.273479 73.534921 329.206487 C74.147225 330.172639 74.75953 331.138791 75.390389 332.134221 C75.701698 332.609563 75.701698 332.609563 77.277108 335.01508 C79.184092 337.950264 81.041218 340.912338 82.890389 343.884221 C83.534921 344.885823 84.179452 345.887424 84.843514 346.919377 C85.446796 347.89262 86.050077 348.865862 86.671639 349.868596 C86.945243 350.302849 86.945243 350.302849 88.329843 352.500432 C89.69686 355.895317 89.529464 357.673006 88.390389 361.134221 C86.463632 362.973577 86.463632 362.973577 83.937264 364.501409 C83.475418 364.7875 83.475418 364.7875 81.138192 366.235295 C80.148917 366.820691 79.159642 367.406086 78.140389 368.009221 C77.141447 368.619109 76.142504 369.228996 75.11329 369.857366 C73.122399 371.071595 71.127099 372.278627 69.127206 373.477971 C66.795538 374.889036 64.497929 376.33432 62.214608 377.821721 C61.629052 378.199578 61.043495 378.577434 60.440194 378.966741 C58.942249 379.935279 57.445564 380.905763 55.948983 381.876409 C53.065957 383.293713 51.560223 383.497942 48.390389 383.134221 C46.802743 381.735784 46.802743 381.735784 45.456796 379.759221 C44.952933 379.028323 44.449071 378.297424 43.92994 377.544377 C40.770921 372.598954 37.74103 367.57691 34.802499 362.497502 C34.304276 361.67637 33.806054 360.855237 33.292733 360.009221 C32.854371 359.264143 32.41601 358.519065 31.964364 357.751409 C30.390389 356.134221 30.390389 356.134221 27.821542 355.768498 C25.390389 356.134221 25.390389 356.134221 23.589608 358.110784 C23.090741 358.984768 22.591874 359.858752 22.077889 360.759221 C21.566132 361.617737 21.054374 362.476252 20.527108 363.360784 C19.116698 366.801991 18.775272 368.430333 19.390389 372.134221 C21.653076 376.591478 24.473495 380.704259 27.212655 384.878362 C27.757284 385.737522 28.301913 386.596682 28.863046 387.481877 C29.371017 388.255395 29.878988 389.028913 30.402352 389.825871 C31.660722 392.7658 31.497387 394.15523 30.390389 397.134221 C28.818368 398.62885 28.818368 398.62885 26.769296 399.860784 C26.006976 400.330163 25.244657 400.799543 24.459237 401.283147 C24.04569 401.526699 24.04569 401.526699 21.952889 402.759221 C21.107748 403.273396 20.262606 403.787571 19.391854 404.317327 C17.621622 405.392873 15.84744 406.461941 14.069589 407.524846 C11.464463 409.089726 8.879978 410.683661 6.300546 412.290471 C4.705724 413.280426 3.110681 414.270024 1.515389 415.259221 C0.773615 415.720222 0.03184 416.181223 -0.732413 416.656194 C-3.62051 418.425448 -6.224442 419.998718 -9.429923 421.126409 C-12.504254 422.547873 -13.287327 424.046022 -14.609611 427.134221 C-14.902579 430.466252 -14.902579 430.466252 -14.797111 433.946721 C-14.77004 435.108166 -14.74297 436.269612 -14.715079 437.466252 C-14.680275 438.346682 -14.64547 439.227112 -14.609611 440.134221 C-7.112835 439.985349 -1.831584 435.951521 4.327889 432.009221 C5.481708 431.283056 6.636262 430.558058 7.791512 429.834172 C10.167376 428.342982 12.538923 426.845279 14.906991 425.341741 C19.1641 422.640131 23.442839 419.973494 27.721444 417.306096 C30.699271 415.448978 33.674006 413.586991 36.648202 411.724065 C46.392076 405.626359 56.17547 399.592354 65.953866 393.550237 C70.260274 390.888808 74.565146 388.224959 78.866952 385.556096 C82.896962 383.055929 86.935439 380.569891 90.976327 378.087346 C93.176991 376.728203 95.377514 375.368832 97.577889 374.009221 C98.101128 373.689292 98.101128 373.689292 100.749032 372.070256 C101.71736 371.470037 102.685687 370.869817 103.683358 370.251409 C104.544694 369.721443 105.406029 369.191477 106.293466 368.645452 C108.766258 366.863337 110.177366 365.243084 110.76368 362.191106 C110.971438 355.548083 108.911291 351.544583 105.327889 346.071721 C104.798568 345.228271 104.269247 344.384822 103.723886 343.515813 C102.574925 341.688405 101.417352 339.866391 100.252206 338.04926 C98.296256 334.986837 96.377001 331.903702 94.464608 328.813909 C89.725779 321.168178 84.98143 313.526282 80.070077 305.98969 C79.600697 305.268057 79.131317 304.546423 78.647714 303.802922 C77.390389 302.134221 77.390389 302.134221 75.390389 301.134221 C68.648188 300.264203 63.969864 301.622727 58.327889 305.259221 Z M52.015389 328.759221 C51.216171 329.281291 50.416952 329.803362 49.593514 330.341252 C47.987565 331.393695 46.387472 332.455133 44.793466 333.525578 C43.157318 334.620832 41.511139 335.701214 39.856454 336.768254 C39.454065 337.029088 39.454065 337.029088 37.417733 338.349065 C36.6932 338.814336 35.968666 339.279607 35.222177 339.758977 C32.444845 341.844104 31.397654 343.843825 30.390389 347.134221 C29.970522 352.522125 30.672614 355.444723 33.601327 359.962346 C34.269061 361.009065 34.936796 362.055784 35.624764 363.134221 C36.331171 364.206721 37.037577 365.279221 37.765389 366.384221 C38.114725 366.928205 38.114725 366.928205 39.882577 369.681096 C42.353425 373.520414 44.857827 377.335377 47.390389 381.134221 C54.176483 382.328152 58.49269 379.197129 64.077889 375.634221 C64.955499 375.090478 65.833109 374.546736 66.737313 373.986516 C84.780304 362.744307 84.780304 362.744307 87.390389 360.134221 C88.331312 353.287886 85.59035 349.432501 81.827889 343.884221 C80.717936 342.206218 79.608558 340.527834 78.499764 338.849065 C77.961581 338.04324 77.423397 337.237414 76.868905 336.40717 C75.597244 334.452223 74.415723 332.486799 73.281014 330.450627 C72.718983 329.459338 72.156952 328.468049 71.577889 327.446721 C71.117694 326.597229 70.657499 325.747737 70.183358 324.872502 C68.390389 323.134221 68.390389 323.134221 65.277108 322.513127 C59.950189 323.364364 56.434231 325.773326 52.015389 328.759221 Z M-14.609611 344.134221 C-14.609611 356.674221 -14.609611 369.214221 -14.609611 382.134221 C-12.959611 382.134221 -11.309611 382.134221 -9.609611 382.134221 C-7.414412 378.48394 -5.258898 374.811691 -3.109611 371.134221 C-2.489571 370.10426 -1.869532 369.074299 -1.230704 368.013127 C2.214078 362.069931 4.253425 358.038505 3.390389 351.134221 C1.334538 349.954289 -0.727976 348.790437 -2.797111 347.634221 C-3.945665 346.984534 -5.09422 346.334846 -6.277579 345.665471 C-9.609611 344.134221 -9.609611 344.134221 -14.609611 344.134221 Z M110.390389 347.134221 C110.390389 353.134221 110.390389 353.134221 111.452889 355.071721 C112.94011 358.343607 112.231021 360.71165 111.390389 364.134221 C107.577762 370.464026 100.592262 373.260891 94.304452 376.673284 C93.420155 377.176018 92.535858 377.678752 91.624764 378.196721 C90.812333 378.641448 89.999901 379.086174 89.16285 379.544377 C88.577938 380.069026 87.993026 380.593674 87.390389 381.134221 C87.390389 382.784221 87.390389 384.434221 87.390389 386.134221 C99.930389 385.804221 112.470389 385.474221 125.390389 385.134221 C125.390389 372.594221 125.390389 360.054221 125.390389 347.134221 C120.440389 347.134221 115.490389 347.134221 110.390389 347.134221 Z M128.390389 347.134221 C128.229954 365.192098 128.229954 365.192098 128.195077 372.888127 C128.171163 378.140082 128.14287 383.391758 128.088632 388.643498 C128.045177 392.877505 128.021253 397.111213 128.01088 401.345426 C128.003488 402.960998 127.989053 404.576554 127.967469 406.191998 C127.93844 408.454675 127.934433 410.716115 127.936288 412.978948 C127.927405 414.266902 127.918523 415.554857 127.909371 416.881841 C128.390389 420.134221 128.390389 420.134221 130.084542 422.549077 C132.869606 424.463656 134.377531 424.640402 137.738046 424.651799 C138.805953 424.664408 139.873861 424.677016 140.97413 424.690007 C142.12212 424.68191 143.270111 424.673813 144.452889 424.665471 C145.044609 424.667385 145.044609 424.667385 148.039071 424.677068 C150.540626 424.679789 153.042209 424.672412 155.54371 424.655705 C159.37606 424.634301 163.206535 424.655502 167.038827 424.681096 C169.468519 424.678453 171.898209 424.673328 174.327889 424.665471 C174.901885 424.66952 174.901885 424.66952 177.806649 424.690007 C178.340603 424.683703 178.340603 424.683703 181.042733 424.651799 C181.511912 424.650208 181.511912 424.650208 183.886239 424.642156 C187.27726 423.954331 188.407127 422.961176 190.390389 420.134221 C190.871408 416.881841 190.871408 416.881841 190.844491 412.978948 C190.845075 412.266353 190.845659 411.553758 190.846261 410.81957 C190.843481 408.470828 190.812393 406.123365 190.781014 403.774846 C190.773552 402.143892 190.767859 400.512929 190.763864 398.881963 C190.748608 394.594234 190.709328 390.30705 190.665048 386.019536 C190.616889 380.872591 190.59856 375.725464 190.575234 370.578359 C190.536476 362.763268 190.459823 354.949371 190.390389 347.134221 C169.930389 347.134221 149.470389 347.134221 128.390389 347.134221 Z M14.390389 375.134221 C14.063532 375.737825 13.736674 376.341428 13.399911 376.963323 C11.877866 379.771358 10.353074 382.57789 8.827889 385.384221 C8.555092 385.887237 8.555092 385.887237 7.174569 388.432805 C3.780385 394.666375 0.290571 400.792266 -3.500236 406.794377 C-4.753638 409.437997 -4.836332 411.243528 -4.609611 414.134221 C0.554511 414.557969 3.243777 413.441395 7.593514 410.704534 C7.875447 410.529337 7.875447 410.529337 9.302194 409.642735 C11.0897 408.527257 12.864689 407.393375 14.640389 406.259221 C15.847992 405.504145 17.05632 404.750227 18.265389 403.997502 C27.001057 398.523553 27.001057 398.523553 29.390389 396.134221 C30.246877 390.454792 28.049284 387.290114 24.952889 382.821721 C24.74245 382.505578 24.74245 382.505578 23.677499 380.905705 C20.665374 376.409206 20.665374 376.409206 19.390389 375.134221 C17.724218 375.093583 16.056508 375.0915 14.390389 375.134221 Z M82.570077 393.360784 C80.063051 396.550727 78.23382 399.857557 76.515389 403.509221 C76.180233 404.208215 75.845077 404.907209 75.499764 405.627385 C74.805076 407.078789 74.114011 408.531932 73.426522 409.98676 C72.432317 412.047323 71.387197 414.07159 70.320077 416.095159 C65.993821 424.464245 63.195969 432.100528 66.132577 441.513127 C68.040429 445.793968 70.394194 448.572557 74.390389 451.134221 C77.789842 452.267372 80.389243 452.268689 83.974816 452.281392 C84.310874 452.28323 84.310874 452.28323 86.011532 452.292534 C88.26844 452.303565 90.525303 452.307413 92.782235 452.311223 C94.398539 452.317488 96.014842 452.324135 97.631143 452.331136 C102.942808 452.352172 108.254475 452.362537 113.566171 452.372502 C115.394588 452.37655 117.223004 452.380667 119.051421 452.384852 C127.640315 452.403902 136.229199 452.418134 144.81811 452.426464 C154.734199 452.43624 164.650066 452.46257 174.566077 452.502965 C182.229864 452.533115 189.893587 452.547932 197.557432 452.551245 C202.135181 452.553597 206.712692 452.562571 211.290378 452.587707 C215.597163 452.610973 219.903553 452.615227 224.210385 452.604945 C225.7898 452.604449 227.369233 452.610783 228.948588 452.624501 C231.10787 452.642205 233.265729 452.635123 235.425012 452.621968 C236.028681 452.623162 236.028681 452.623162 239.083616 452.629206 C244.215207 451.861068 247.286687 449.357242 250.702889 445.571721 C254.610328 439.927643 254.432777 432.738206 253.390389 426.134221 C251.959818 421.209272 249.651734 416.654387 247.311288 412.108098 C246.257688 410.056727 245.251568 407.986694 244.249764 405.909612 C243.588343 404.575617 242.924369 403.242883 242.257577 401.911565 C241.960438 401.303203 241.663299 400.694841 241.357156 400.068044 C238.455224 394.502621 234.883143 391.089014 228.984139 388.829534 C222.410988 387.492993 215.567567 387.926109 208.890389 388.009221 C207.481542 388.01927 206.072687 388.028393 204.663827 388.036565 C201.239169 388.060021 197.81487 388.092847 194.390389 388.134221 C194.375807 388.915474 194.361224 389.696726 194.3462 390.501653 C194.271384 394.067155 194.174833 397.631755 194.077889 401.196721 C194.06661 401.811282 194.06661 401.811282 194.00953 404.92133 C193.651098 417.01025 193.651098 417.01025 190.390389 422.134221 C185.022952 426.920335 180.055131 426.71959 173.077889 426.665471 C171.990807 426.669298 170.903724 426.673125 169.7837 426.677068 C167.490803 426.679783 165.197875 426.672446 162.905038 426.655705 C159.402054 426.634292 155.901122 426.65552 152.398202 426.681096 C150.166427 426.678453 147.934653 426.673328 145.702889 426.665471 C144.658991 426.673568 143.615092 426.681665 142.539559 426.690007 C136.544785 426.612974 132.884008 426.253977 128.390389 422.134221 C125.936801 418.809133 126.096851 415.481328 126.011483 411.435002 C125.977323 410.144006 125.943163 408.85301 125.907968 407.522893 C125.88062 406.164182 125.853935 404.805458 125.827889 403.446721 C125.770151 400.775929 125.704685 398.105573 125.636483 395.435002 C125.612555 394.250757 125.588627 393.066511 125.563973 391.846379 C125.390389 389.134221 125.390389 389.134221 124.390389 388.134221 C120.261039 387.890012 116.127918 387.905605 111.991952 387.893987 C109.926421 387.884389 107.861932 387.853434 105.796639 387.821721 C97.121084 387.748592 89.579738 387.826841 82.570077 393.360784 Z " fill="#111111" transform="translate(119.60961055755615,34.86577892303467)"/><path d="M0 0 C0.523037 -0.014502 0.523037 -0.014502 3.169922 -0.087891 C10.910868 -0.151947 10.910868 -0.151947 14.855469 2.207031 C18.01997 5.843847 17.811308 8.16209 17.807755 12.930939 C17.808609 13.618684 17.809463 14.30643 17.810344 15.015016 C17.811997 17.330512 17.806479 19.645937 17.801025 21.961426 C17.800743 23.616872 17.800901 25.272319 17.801468 26.927765 C17.801756 31.431646 17.795862 35.935501 17.788894 40.439375 C17.782657 45.142596 17.782056 49.845817 17.780869 54.549042 C17.777756 63.459638 17.769544 72.370223 17.759519 81.280814 C17.748355 91.42335 17.742847 101.565887 17.737824 111.708428 C17.727362 132.576459 17.709764 153.444479 17.6875 174.3125 C18.143878 174.310196 18.143878 174.310196 20.453425 174.298533 C42.653358 174.188156 64.853244 174.105393 87.053393 174.053439 C97.789195 174.027647 108.524814 173.992478 119.260498 173.935303 C128.61673 173.885497 137.97283 173.853216 147.329192 173.842058 C152.284286 173.835534 157.239002 173.820182 162.193975 173.78385 C166.85696 173.749936 171.519409 173.739438 176.182505 173.746962 C177.894582 173.745585 179.606678 173.735625 181.318649 173.716473 C183.655979 173.691605 185.991283 173.69757 188.328659 173.711227 C189.636683 173.706618 190.944708 173.702009 192.292369 173.697261 C196.549069 174.468627 197.998582 176.003524 200.6875 179.3125 C202.553809 183.045118 201.915489 187.517208 201.9375 191.625 C201.947812 192.100342 201.947812 192.100342 202 194.505859 C202.049594 203.376965 202.049594 203.376965 198.6875 207.3125 C194.985742 209.780339 193.137839 209.56836 188.716705 209.579926 C188.003048 209.584457 187.289391 209.588988 186.554108 209.593656 C184.156612 209.606342 181.759342 209.604677 179.361816 209.603027 C177.645367 209.60901 175.928921 209.615815 174.212479 209.623383 C169.5451 209.641077 164.877794 209.645739 160.210385 209.647014 C156.316188 209.648912 152.422009 209.656267 148.527819 209.663358 C139.341128 209.679653 130.154477 209.684526 120.967773 209.683105 C111.486606 209.681904 102.005666 209.703008 92.524556 209.734593 C84.388592 209.760732 76.252704 209.771474 68.116699 209.770195 C63.255631 209.769684 58.394766 209.775407 53.533741 209.796551 C48.961837 209.815893 44.390329 209.816085 39.818411 209.801517 C38.140218 209.799423 36.462001 209.804166 34.78385 209.816238 C32.492853 209.831652 30.203228 209.82241 27.912262 209.806976 C26.630257 209.808066 25.348252 209.809155 24.027399 209.810278 C20.111769 209.226693 18.469843 208.072624 15.6875 205.3125 C14.330494 202.598487 14.575114 200.464037 14.589844 197.429688 C14.593066 196.263086 14.596289 195.096484 14.599609 193.894531 C14.607988 192.671211 14.616367 191.447891 14.625 190.1875 C14.629512 188.956445 14.634023 187.725391 14.638672 186.457031 C14.650487 183.408806 14.66696 180.360677 14.6875 177.3125 C13.926067 177.333447 13.164634 177.354395 12.380127 177.375977 C8.92022 177.459278 5.460524 177.511206 2 177.5625 C0.801816 177.596016 -0.396367 177.629531 -1.630859 177.664062 C-2.787793 177.676953 -3.944727 177.689844 -5.136719 177.703125 C-6.199792 177.724072 -7.262866 177.74502 -8.358154 177.766602 C-12.033407 177.201692 -13.665212 175.867437 -16.3125 173.3125 C-17.739298 170.458904 -17.448385 168.033009 -17.459671 164.841599 C-17.463348 164.169631 -17.467024 163.497664 -17.470812 162.805334 C-17.481867 160.542985 -17.485696 158.280682 -17.489502 156.018311 C-17.495765 154.400532 -17.502412 152.782754 -17.509415 151.164978 C-17.526836 146.762014 -17.53738 142.35906 -17.54562 137.95607 C-17.550768 135.206514 -17.556843 132.456961 -17.563131 129.707407 C-17.582186 121.108367 -17.596417 112.509337 -17.604743 103.91028 C-17.61452 93.97719 -17.640848 84.044324 -17.681244 74.111313 C-17.711381 66.43822 -17.72621 58.76519 -17.729524 51.092039 C-17.731877 46.507042 -17.740872 41.922281 -17.765985 37.337347 C-17.789229 33.024012 -17.793514 28.711071 -17.783224 24.39769 C-17.782728 22.814631 -17.789078 21.231553 -17.80278 19.648554 C-17.820446 17.486678 -17.813421 15.326228 -17.800247 13.164352 C-17.802636 11.954792 -17.805024 10.745232 -17.807485 9.499019 C-17.215289 5.686692 -15.988131 4.038901 -13.3125 1.3125 C-9.338832 -0.674334 -4.369296 0.039939 0 0 Z M-14.3125 4.3125 C-14.409469 6.489426 -14.434367 8.669564 -14.432755 10.848648 C-14.433182 11.194135 -14.433182 11.194135 -14.435344 12.942511 C-14.437 15.274932 -14.431474 17.607283 -14.426025 19.939697 C-14.425744 21.604848 -14.425901 23.269999 -14.426468 24.93515 C-14.426756 29.470081 -14.420858 34.004986 -14.413894 38.539911 C-14.407661 43.273834 -14.407057 48.007757 -14.405869 52.741684 C-14.402755 61.712521 -14.394541 70.683346 -14.384519 79.654178 C-14.373359 89.864404 -14.367848 100.074631 -14.362824 110.284862 C-14.352358 131.294081 -14.334758 152.30329 -14.3125 173.3125 C-11.546324 174.695588 -9.30232 174.424602 -6.210938 174.410156 C-4.999219 174.406934 -3.7875 174.403711 -2.539062 174.400391 C-1.268047 174.392012 0.002969 174.383633 1.3125 174.375 C1.951875 174.372744 1.951875 174.372744 5.1875 174.361328 C8.354213 174.349512 11.520834 174.333038 14.6875 174.3125 C14.734166 152.312188 14.769462 130.311884 14.791124 108.311533 C14.801448 98.096995 14.81553 87.882487 14.838379 77.667969 C14.858278 68.767728 14.871208 59.867509 14.875677 50.967246 C14.87829 46.25216 14.884456 41.537137 14.89896 36.822071 C14.912489 32.38821 14.916732 27.954439 14.913715 23.520559 C14.914268 21.889486 14.918273 20.258411 14.925911 18.627356 C14.935799 16.407759 14.933492 14.188507 14.928009 11.968903 C14.928931 11.346692 14.928931 11.346692 14.933596 8.197931 C14.6875 5.3125 14.6875 5.3125 12.6875 3.3125 C10.0896 3.06958 10.0896 3.06958 6.839844 3.082031 C6.258799 3.082998 6.258799 3.082998 3.318359 3.087891 C2.099551 3.100137 0.880742 3.112383 -0.375 3.125 C-1.597676 3.125645 -2.820352 3.126289 -4.080078 3.126953 C-13.172389 3.172389 -13.172389 3.172389 -14.3125 4.3125 Z M17.6875 177.3125 C17.662841 181.28181 17.64466 185.25109 17.632568 189.220459 C17.627529 190.571704 17.620698 191.922943 17.612061 193.27417 C17.599976 195.212704 17.594802 197.151278 17.589844 199.089844 C17.584607 200.257654 17.57937 201.425464 17.573975 202.628662 C17.6875 205.3125 17.6875 205.3125 18.6875 206.3125 C20.973749 206.416207 23.26327 206.447742 25.551865 206.452942 C25.915022 206.454427 25.915022 206.454427 27.752821 206.461945 C30.204936 206.470669 32.657002 206.472144 35.109131 206.473633 C36.859707 206.478258 38.610281 206.483283 40.360855 206.488678 C45.129373 206.501829 49.897876 206.508252 54.666409 206.512689 C57.641907 206.515615 60.617401 206.519719 63.592897 206.524193 C72.891927 206.537874 82.190948 206.547538 91.489986 206.551395 C102.244318 206.555879 112.998523 206.573441 123.752816 206.602395 C132.052589 206.62397 140.352326 206.634097 148.652127 206.635436 C153.615378 206.636487 158.57851 206.642456 163.541731 206.660255 C168.207925 206.676663 172.873909 206.678927 177.540121 206.670116 C179.256661 206.669342 180.973212 206.67374 182.689724 206.683575 C185.025454 206.696177 187.360428 206.690482 189.696152 206.679993 C191.005643 206.681459 192.315133 206.682926 193.664306 206.684437 C194.66196 206.561698 195.659614 206.438959 196.6875 206.3125 C198.892944 203.004333 198.943771 201.944782 198.953125 198.09375 C198.955703 197.079258 198.958281 196.064766 198.960938 195.019531 C198.953203 193.961211 198.945469 192.902891 198.9375 191.8125 C198.945234 190.75418 198.952969 189.695859 198.960938 188.605469 C198.958359 187.590977 198.955781 186.576484 198.953125 185.53125 C198.951997 185.066865 198.951997 185.066865 198.946289 182.716797 C198.6875 180.3125 198.6875 180.3125 196.6875 177.3125 C193.645895 176.943357 193.645895 176.943357 189.651459 176.951736 C188.918794 176.949173 188.186129 176.94661 187.431263 176.943969 C184.963558 176.939007 182.496458 176.955563 180.028809 176.971924 C178.264989 176.97277 176.501169 176.972296 174.73735 176.970596 C169.937943 176.969733 165.13876 176.987414 160.339405 177.008318 C155.327894 177.027028 150.31638 177.028831 145.30484 177.032394 C135.809836 177.041732 126.314936 177.066368 116.819977 177.096443 C106.012412 177.129935 95.204842 177.14646 84.397238 177.161529 C62.160601 177.192916 39.924057 177.245709 17.6875 177.3125 Z " fill="#111111" transform="translate(187.3125,92.6875)"/><path d="M0 0 C2.78614 -0.37473 2.78614 -0.37473 6.415161 -0.374222 C7.081078 -0.378196 7.746995 -0.382171 8.433091 -0.386265 C10.675009 -0.395926 12.916302 -0.384048 15.158203 -0.372314 C16.761146 -0.374741 18.364088 -0.378459 19.967026 -0.383377 C24.328553 -0.392806 28.689857 -0.383344 33.051367 -0.370045 C37.608179 -0.358755 42.16498 -0.362836 46.721802 -0.364792 C54.375281 -0.365676 62.028673 -0.354578 69.682129 -0.336182 C78.54014 -0.315013 87.398021 -0.311504 96.256052 -0.317744 C104.764871 -0.323431 113.273644 -0.317798 121.782455 -0.30657 C125.409224 -0.301916 129.035964 -0.301054 132.662735 -0.303156 C136.930856 -0.305035 141.198845 -0.296966 145.466936 -0.281096 C147.036723 -0.27684 148.606523 -0.27601 150.176313 -0.278786 C152.312636 -0.281991 154.448558 -0.272969 156.584839 -0.260696 C157.782416 -0.258644 158.979993 -0.256591 160.21386 -0.254476 C163 0 163 0 165 2 C165.251682 4.661201 165.251682 4.661201 165.253967 8.11145 C165.256787 8.763477 165.256787 8.763477 165.271057 12.063126 C165.267168 13.516694 165.263072 14.970261 165.258789 16.423828 C165.261498 17.947954 165.265058 19.472079 165.269409 20.996201 C165.278549 25.142811 165.274982 29.289322 165.268651 33.435934 C165.263599 37.768531 165.26828 42.101119 165.271423 46.433716 C165.275065 53.710546 165.270257 60.987336 165.260742 68.26416 C165.249857 76.685915 165.253383 85.107573 165.264395 93.529326 C165.273461 100.750578 165.274757 107.9718 165.269518 115.193056 C165.266394 119.510154 165.265999 123.827207 165.272591 128.144302 C165.278353 132.202297 165.274387 136.260167 165.262802 140.318148 C165.26015 141.810535 165.26093 143.302933 165.265327 144.795317 C165.270762 146.826391 165.262751 148.857488 165.253967 150.88855 C165.25359 151.457841 165.25359 151.457841 165.251682 154.338799 C165 157 165 157 163 159 C160.21386 159.251682 160.21386 159.251682 156.584839 159.253967 C155.918922 159.257087 155.253005 159.260207 154.566909 159.263422 C152.325116 159.271429 150.083592 159.265068 147.841797 159.258789 C146.238854 159.261498 144.635913 159.265058 143.032974 159.269409 C138.671496 159.27855 134.310113 159.274982 129.948633 159.268651 C125.391819 159.2636 120.835013 159.26828 116.278198 159.271423 C108.624741 159.275066 100.971322 159.270257 93.317871 159.260742 C84.459865 159.249857 75.601951 159.253383 66.743948 159.264395 C59.149026 159.273461 51.554133 159.274757 43.959208 159.269518 C39.418545 159.266394 34.877925 159.266 30.337265 159.272591 C26.069154 159.278353 21.801162 159.274388 17.533064 159.262802 C15.963273 159.260149 14.393473 159.260931 12.823687 159.265327 C10.687374 159.270761 8.551448 159.263976 6.415161 159.253967 C5.217584 159.253213 4.020007 159.252459 2.78614 159.251682 C0 159 0 159 -2 157 C-2.251682 154.357209 -2.251682 154.357209 -2.253967 150.933243 C-2.259607 149.639049 -2.265247 148.344856 -2.271057 147.011444 C-2.267168 145.568908 -2.263072 144.126373 -2.258789 142.683838 C-2.261498 141.171187 -2.265058 139.658537 -2.269409 138.145889 C-2.27855 134.030202 -2.274982 129.914615 -2.268651 125.798927 C-2.263599 121.497494 -2.26828 117.196071 -2.271423 112.894638 C-2.275066 105.669082 -2.270257 98.443567 -2.260742 91.218018 C-2.249861 82.858766 -2.25338 74.499613 -2.264395 66.140364 C-2.273465 58.970901 -2.274754 51.801467 -2.269518 44.632 C-2.266396 40.346728 -2.265994 36.061501 -2.272591 31.776232 C-2.27836 27.746961 -2.274375 23.717816 -2.262802 19.688559 C-2.260153 18.207879 -2.260925 16.727189 -2.265327 15.246513 C-2.270774 13.228926 -2.26274 11.211316 -2.253967 9.193741 C-2.253213 8.063455 -2.252459 6.933169 -2.251682 5.768632 C-2 3 -2 3 0 0 Z M2 3 C2 10.92 2 18.84 2 27 C10.91 27 19.82 27 29 27 C29 19.08 29 11.16 29 3 C20.09 3 11.18 3 2 3 Z M33 3 C33 10.92 33 18.84 33 27 C42.9 27 52.8 27 63 27 C63 19.08 63 11.16 63 3 C53.1 3 43.2 3 33 3 Z M66 3 C66 10.92 66 18.84 66 27 C76.23 27 86.46 27 97 27 C97 19.08 97 11.16 97 3 C86.77 3 76.54 3 66 3 Z M100 3 C100 10.92 100 18.84 100 27 C109.9 27 119.8 27 130 27 C130 19.08 130 11.16 130 3 C120.1 3 110.2 3 100 3 Z M134 3 C134 9.6 134 16.2 134 23 C135.65 23 137.3 23 139 23 C140.84375 20.988281 140.84375 20.988281 142.5 18.3125 C144.460783 15.266208 146.211151 12.581744 148.9375 10.1875 C151 8 151 8 151 3 C145.39 3 139.78 3 134 3 Z M147 13 C142.342432 17.95223 141 19.889982 141 27 C147.6 27 154.2 27 161 27 C161 20.07 161 13.14 161 6 C154.309442 6 151.760236 8.582167 147 13 Z M2 31 C2 40.9 2 50.8 2 61 C10.91 61 19.82 61 29 61 C29 51.1 29 41.2 29 31 C20.09 31 11.18 31 2 31 Z M33 31 C33 40.9 33 50.8 33 61 C42.9 61 52.8 61 63 61 C63 51.1 63 41.2 63 31 C53.1 31 43.2 31 33 31 Z M66 31 C66 40.9 66 50.8 66 61 C76.23 61 86.46 61 97 61 C97 51.1 97 41.2 97 31 C86.77 31 76.54 31 66 31 Z M100 31 C100 40.9 100 50.8 100 61 C117.378351 62.198507 117.378351 62.198507 121.679688 59.019531 C123.447472 56.422852 124.741708 53.873666 126 51 C126.805151 49.890463 127.616741 48.785542 128.4375 47.6875 C130 44 130 44 130 31 C120.1 31 110.2 31 100 31 Z M137 31 C133.625 38.875 133.625 38.875 133.707031 43.714844 C133.714524 44.631287 133.722017 45.547729 133.729736 46.491943 C133.757048 47.628977 133.78436 48.766011 133.8125 49.9375 C133.874375 53.588125 133.93625 57.23875 134 61 C142.91 61 151.82 61 161 61 C161 51.1 161 41.2 161 31 C153.08 31 145.16 31 137 31 Z M125 54 C124.67 56.31 124.34 58.62 124 61 C125.98 61 127.96 61 130 61 C130 58.69 130 56.38 130 54 C128.35 54 126.7 54 125 54 Z M2 64 C2 74.23 2 84.46 2 95 C10.91 95 19.82 95 29 95 C29 84.77 29 74.54 29 64 C20.09 64 11.18 64 2 64 Z M33 64 C33 74.23 33 84.46 33 95 C42.9 95 52.8 95 63 95 C63 84.77 63 74.54 63 64 C53.1 64 43.2 64 33 64 Z M66 65 C65.912329 67.072621 65.893041 69.148203 65.902344 71.222656 C65.905566 72.482715 65.908789 73.742773 65.912109 75.041016 C65.920466 76.381511 65.928931 77.722006 65.9375 79.0625 C65.942513 80.406899 65.947077 81.751301 65.951172 83.095703 C65.963005 86.397179 65.97949 89.698568 66 93 C76.797955 93.406812 85.986555 88.759713 95 83 C97 81 97 81 97.230469 77.339844 C97.226477 75.872331 97.211722 74.404818 97.1875 72.9375 C97.187178 72.564639 97.187178 72.564639 97.185547 70.677734 C97.140282 65.140282 97.140282 65.140282 96 64 C93.866468 63.899967 91.729625 63.86919 89.59375 63.867188 C88.943418 63.866543 88.943418 63.866543 85.652344 63.863281 C85.311951 63.864329 85.311951 63.864329 83.589355 63.869629 C81.508715 63.874978 79.42829 63.869683 77.347656 63.863281 C76.046992 63.86457 74.746328 63.865859 73.40625 63.867188 C72.20291 63.868315 70.99957 63.869443 69.759766 63.870605 C67 64 67 64 66 65 Z M100 64 C100 67.96 100 71.92 100 76 C105 76 105 76 107.019531 74.644531 C107.611211 74.039961 108.202891 73.435391 108.8125 72.8125 C109.114785 72.51666 109.114785 72.51666 110.644531 71.019531 C112 69 112 69 112 64 C108.04 64 104.08 64 100 64 Z M113.90625 66.957031 C112.738307 68.212701 111.602539 69.499029 110.5 70.8125 C109.345502 72.091427 108.189303 73.368822 107.03125 74.644531 C106.542051 75.215344 106.052852 75.786157 105.548828 76.374268 C104 78 104 78 100 81 C100 85.62 100 90.24 100 95 C109.9 95 119.8 95 130 95 C130 84.77 130 74.54 130 64 C118 64 118 64 113.90625 66.957031 Z M134 64 C134 74.23 134 84.46 134 95 C142.91 95 151.82 95 161 95 C161 84.77 161 74.54 161 64 C152.09 64 143.18 64 134 64 Z M85 90 C84.871094 92.613281 84.871094 92.613281 85 95 C86.812421 95.026873 88.624952 95.046337 90.4375 95.0625 C90.942168 95.068301 90.942168 95.068301 93.496094 95.097656 C96 95 96 95 97 94 C97.040929 91.667026 97.042417 89.332948 97 87 C92.115755 86.712691 88.783309 86.675274 85 90 Z M2 98 C2 107.9 2 117.8 2 128 C17 128 17 128 21.089844 125.753906 C22.586914 124.239014 22.586914 124.239014 23.9375 122.5625 C24.433467 121.995715 24.929434 121.428931 25.44043 120.844971 C30.988736 113.702818 29.843798 106.64893 29 98 C20.09 98 11.18 98 2 98 Z M33 98 C33 101.3 33 104.6 33 108 C38.738462 108 38.738462 108 42.3125 105.8125 C43.009883 105.406445 43.707266 105.000391 44.425781 104.582031 C46 103 46 103 46 98 C41.71 98 37.42 98 33 98 Z M66 98 C66 107.9 66 117.8 66 128 C76.23 128 86.46 128 97 128 C97 118.1 97 108.2 97 98 C86.77 98 76.54 98 66 98 Z M100 98 C100 107.9 100 117.8 100 128 C109.9 128 119.8 128 130 128 C130 118.1 130 108.2 130 98 C120.1 98 110.2 98 100 98 Z M134 98 C134 107.9 134 117.8 134 128 C142.91 128 151.82 128 161 128 C161 118.1 161 108.2 161 98 C152.09 98 143.18 98 134 98 Z M46 104 C45.398652 104.289878 44.797305 104.579756 44.177734 104.878418 C42.322814 105.811265 40.540593 106.824634 38.75 107.875 C37.651719 108.491172 36.553437 109.107344 35.421875 109.742188 C33 113 33 113 33 128 C42.9 128 52.8 128 63 128 C63 118.43 63 108.86 63 99 C56.363859 99 51.893447 101.101246 46 104 Z M23 123 C22.959362 124.666171 22.957279 126.333881 23 128 C24.98 128 26.96 128 29 128 C29 126.02 29 124.04 29 122 C24.125 121.875 24.125 121.875 23 123 Z M2 132 C2 135.63 2 139.26 2 143 C3.65 143 5.3 143 7 143 C9.552453 140.033635 10.908174 138.055999 11.25 134.125 C11.20875 133.774375 11.20875 133.774375 11 132 C8.03 132 5.06 132 2 132 Z M12.5625 135.375 C11.674437 136.897393 10.822216 138.441059 10 140 C9.444414 140.840469 8.888828 141.680937 8.316406 142.546875 C4.929496 147.709371 4 149.468578 4 156 C12.25 156 20.5 156 29 156 C29 148.08 29 140.16 29 132 C15.875 130.928571 15.875 130.928571 12.5625 135.375 Z M33 132 C33 139.92 33 147.84 33 156 C42.9 156 52.8 156 63 156 C63 148.08 63 140.16 63 132 C53.1 132 43.2 132 33 132 Z M66 132 C66 139.92 66 147.84 66 156 C76.23 156 86.46 156 97 156 C97 148.08 97 140.16 97 132 C86.77 132 76.54 132 66 132 Z M100 132 C100 139.92 100 147.84 100 156 C109.9 156 119.8 156 130 156 C130 148.08 130 140.16 130 132 C120.1 132 110.2 132 100 132 Z M134 132 C134 139.92 134 147.84 134 156 C142.91 156 151.82 156 161 156 C161 148.08 161 140.16 161 132 C152.09 132 143.18 132 134 132 Z " fill="#111111" transform="translate(223,93)"/><path d="M0 0 C0.66 0.33 1.32 0.66 2 1 C2 2.98 2 4.96 2 7 C1.01 7 0.02 7 -1 7 C-1.042544 5.000453 -1.040808 2.999584 -1 1 C-0.67 0.67 -0.34 0.34 0 0 Z " fill="#111111" transform="translate(45,102)"/><path d="M0 0 C0.66 0.33 1.32 0.66 2 1 C2 31.03 2 61.06 2 92 C1.01 91.67 0.02 91.34 -1 91 C-1.023122 79.282732 -1.040914 67.56547 -1.051812 55.848184 C-1.057041 50.407977 -1.064139 44.967786 -1.075439 39.527588 C-1.086267 34.282143 -1.092277 29.036713 -1.094877 23.791258 C-1.096732 21.785291 -1.100353 19.779324 -1.10573 17.773363 C-1.112939 14.973972 -1.113991 12.174643 -1.113525 9.375244 C-1.117121 8.537273 -1.120716 7.699302 -1.12442 6.835938 C-1.114052 1.114052 -1.114052 1.114052 0 0 Z " fill="#111111" transform="translate(45,125)"/><path d="M0 0 C0.846713 -0.000997 1.693425 -0.001994 2.565796 -0.003021 C4.351089 0.001647 6.136396 0.021031 7.921387 0.054199 C10.648012 0.10142 13.370726 0.095314 16.097656 0.082031 C17.835961 0.093186 19.574249 0.107406 21.3125 0.125 C22.124086 0.123177 22.935671 0.121354 23.771851 0.119476 C28.802589 0.24496 31.510842 0.940333 35.15625 4.726562 C36.826507 8.067076 36.340981 11.82184 36.359375 15.496094 C36.365075 16.369247 36.370775 17.242401 36.376648 18.142014 C36.386103 19.992206 36.392634 21.842415 36.396484 23.692627 C36.406176 26.517391 36.437188 29.341423 36.46875 32.166016 C36.475282 33.963537 36.480531 35.761064 36.484375 37.558594 C36.496722 38.401464 36.509069 39.244335 36.52179 40.112747 C36.504153 44.778713 36.292619 48.005334 33.15625 51.726562 C29.60321 54.459551 25.360003 54.032554 21.066406 54.027344 C20.284867 54.031629 19.503327 54.035914 18.698105 54.040329 C17.048177 54.046062 15.398223 54.04658 13.748291 54.042236 C11.230842 54.039078 8.71457 54.062543 6.197266 54.087891 C4.591147 54.090164 2.985026 54.090867 1.378906 54.089844 C0.629805 54.099053 -0.119297 54.108263 -0.891098 54.117752 C-5.390517 54.078137 -8.285391 53.532674 -11.84375 50.726562 C-13.852962 47.712745 -14.099022 47.098358 -14.150146 43.717529 C-14.166134 42.916271 -14.182121 42.115013 -14.198593 41.289474 C-14.203956 40.426956 -14.209319 39.564437 -14.214844 38.675781 C-14.223872 37.784218 -14.232901 36.892655 -14.242203 35.974075 C-14.256711 34.086999 -14.265593 32.199873 -14.269287 30.312744 C-14.281164 27.434839 -14.330326 24.559092 -14.380859 21.681641 C-14.390326 19.846365 -14.39756 18.011075 -14.402344 16.175781 C-14.421876 15.319335 -14.441408 14.462889 -14.461533 13.58049 C-14.431591 9.586606 -14.173761 6.523812 -11.861572 3.181396 C-7.81067 -0.113792 -5.078106 -0.115251 0 0 Z M-10.84375 4.726562 C-10.936623 6.138813 -10.961218 7.555652 -10.957275 8.970947 C-10.9572 9.871806 -10.957124 10.772664 -10.957047 11.700821 C-10.951885 12.67998 -10.946724 13.659138 -10.941406 14.667969 C-10.939991 15.665376 -10.938576 16.662783 -10.937119 17.690414 C-10.931501 20.889994 -10.918946 24.089504 -10.90625 27.289062 C-10.901237 29.452473 -10.896674 31.615884 -10.892578 33.779297 C-10.881526 39.095076 -10.864771 44.410814 -10.84375 49.726562 C-4.880773 49.89377 1.082331 50.05437 7.045654 50.20874 C9.075977 50.262243 11.106252 50.317578 13.136475 50.374756 C16.04791 50.456438 18.959451 50.531613 21.871094 50.605469 C22.784631 50.632504 23.698169 50.659539 24.639389 50.687393 C26.811095 50.7393 28.983956 50.738455 31.15625 50.726562 C35.264256 46.618557 33.280497 33.057803 33.294128 27.190643 C33.293353 25.71946 33.290841 24.248277 33.286621 22.7771 C33.281167 20.50433 33.286649 18.231749 33.292969 15.958984 C33.292309 14.51302 33.291031 13.067057 33.289062 11.621094 C33.288499 10.970641 33.288499 10.970641 33.285645 7.678955 C33.15625 4.726562 33.15625 4.726562 32.15625 3.726562 C29.065435 3.625393 25.997424 3.586877 22.90625 3.59375 C21.977803 3.592793 21.049355 3.591837 20.092773 3.590851 C18.12565 3.590169 16.158525 3.592024 14.191406 3.596191 C11.16922 3.60154 8.147182 3.596247 5.125 3.589844 C3.21875 3.590505 1.312499 3.591786 -0.59375 3.59375 C-1.50415 3.591726 -2.414551 3.589702 -3.352539 3.587616 C-9.7288 3.611613 -9.7288 3.611613 -10.84375 4.726562 Z " fill="#111111" transform="translate(52.84375,292.2734375)"/><path d="M0 0 C3.567886 2.108296 4.807648 3.567208 6.5 7.375 C7.111378 11.807492 6.576819 13.376349 4 17 C0.891269 19.694234 -0.855186 20.97615 -5 21.0625 C-8.959118 19.660313 -11.156866 18.107612 -14 15 C-15.208019 12.216303 -15.543135 9.992901 -15 7 C-11.289842 0.641472 -7.363864 -1.914605 0 0 Z M-10.5 3.5 C-12.621534 7.03589 -12.791013 9.979017 -12 14 C-10.5 16.5 -10.5 16.5 -8 18 C-5.187835 18.605077 -2.807681 18.643068 0 18 C2.5625 16.0625 2.5625 16.0625 4 13 C4.161592 9.875886 3.977918 6.980601 3 4 C-1.463182 1.024546 -5.940773 0.764464 -10.5 3.5 Z " fill="#111111" transform="translate(349,344)"/><path d="M0 0 C3.525292 2.083127 4.807953 3.592861 6.5625 7.3125 C7.056463 11.475899 6.611218 13.088784 4.339844 16.484375 C2.173528 18.934901 0.083113 19.993269 -3 21 C-7.913101 21 -10.565275 18.200539 -14 15 C-15.478969 12.042063 -15.435558 10.297798 -15 7 C-11.002858 0.801901 -7.523545 -1.956122 0 0 Z M-10.5 2.9375 C-12.626741 5.861768 -12.558206 8.284649 -12.378906 11.835938 C-12 14 -12 14 -10.4375 16.5625 C-7.000829 18.589255 -4.925828 18.619868 -1 18 C1.9375 15.875 1.9375 15.875 4 13 C4.559481 9.083632 4.207097 6.310645 2 3 C-1.927814 1.036093 -6.489744 1.433654 -10.5 2.9375 Z " fill="#111111" transform="translate(389,344)"/><path d="M0 0 C3.525292 2.083127 4.807953 3.592861 6.5625 7.3125 C7.056463 11.475899 6.611218 13.088784 4.339844 16.484375 C2.173528 18.934901 0.083113 19.993269 -3 21 C-7.913101 21 -10.565275 18.200539 -14 15 C-15.478969 12.042063 -15.435558 10.297798 -15 7 C-11.002858 0.801901 -7.523545 -1.956122 0 0 Z M-12 5 C-12.53125 7.375 -12.53125 7.375 -12.5 10 C-12.510312 10.86625 -12.520625 11.7325 -12.53125 12.625 C-12 15 -12 15 -10.1875 16.789062 C-6.988701 18.559826 -4.592576 18.384919 -1 18 C1.375 17 1.375 17 3 15 C4.386445 10.840664 4.468648 7.978048 2.5625 4 C-0.522984 1.591817 -2.198601 1.471853 -6 1.53125 C-8.669132 2.156828 -10.061026 3.061026 -12 5 Z " fill="#111111" transform="translate(429,344)"/><path d="M0 0 C1.746635 0.034162 3.493417 0.060992 5.240234 0.083984 C8.464057 0.132785 11.686104 0.211581 14.90918 0.295898 C15.968386 0.309917 17.027593 0.323936 18.118896 0.338379 C19.123479 0.370767 20.128062 0.403154 21.163086 0.436523 C22.064866 0.457471 22.966646 0.478418 23.895752 0.5 C27.099915 1.213667 28.305785 2.522652 30.34668 5.045898 C31.468272 8.410675 31.476078 10.969314 31.479492 14.514648 C31.480137 15.161758 31.480137 15.161758 31.483398 18.436523 C31.481304 19.112637 31.479209 19.78875 31.477051 20.485352 C31.471771 22.510821 31.476964 24.536061 31.483398 26.561523 C31.462778 47.42948 31.462778 47.42948 28.53418 51.670898 C23.350751 54.929054 17.545099 54.208389 11.625488 54.087402 C9.941064 54.056724 8.256428 54.037265 6.571777 54.023926 C3.49576 53.994564 0.421999 53.929317 -2.65332 53.858398 C-3.656614 53.852759 -4.659907 53.847119 -5.693604 53.841309 C-6.171644 53.826726 -6.171644 53.826726 -8.59082 53.75293 C-9.445469 53.737219 -10.300117 53.721509 -11.180664 53.705322 C-14.94981 52.700142 -16.36106 51.187507 -18.65332 48.045898 C-19.370973 44.873198 -19.354795 41.788451 -19.317383 38.545898 C-19.322166 37.632598 -19.32695 36.719297 -19.331879 35.77832 C-19.335273 33.85187 -19.3261 31.925363 -19.305176 29.999023 C-19.278403 27.055005 -19.304937 24.114799 -19.336914 21.170898 C-19.33361 19.29589 -19.327203 17.420884 -19.317383 15.545898 C-19.327504 14.668691 -19.337625 13.791484 -19.348053 12.887695 C-19.263585 8.469657 -19.089733 6.607867 -16.299316 3.014648 C-11.158339 -0.810489 -6.157812 -0.122025 0 0 Z M-15.65332 4.045898 C-15.65332 19.225898 -15.65332 34.405898 -15.65332 50.045898 C-1.46332 50.045898 12.72668 50.045898 27.34668 50.045898 C27.34668 34.865898 27.34668 19.685898 27.34668 4.045898 C13.15668 4.045898 -1.03332 4.045898 -15.65332 4.045898 Z " fill="#111111" transform="translate(57.6533203125,360.9541015625)"/><path d="M0 0 C14.52 0 29.04 0 44 0 C43.67 0.99 43.34 1.98 43 3 C29.14 3 15.28 3 1 3 C0.67 2.01 0.34 1.02 0 0 Z " fill="#111111" transform="translate(386,400)"/><path d="M0 0 C4.106391 3.437909 7.368475 6.973898 8.6875 12.25 C8.788534 18.300793 7.654081 22.532985 3.6875 27.25 C-0.348398 31.148551 -3.396932 33.124389 -9.125 33.5 C-14.212993 33.388584 -17.532463 32.015326 -21.203125 28.375 C-25.579974 23.535557 -27.747807 20.240623 -27.660156 13.441406 C-26.837546 8.256186 -23.517768 4.395005 -19.8125 0.875 C-13.095573 -3.491003 -7.147056 -3.775803 0 0 Z M-22.6875 5.6875 C-25.059634 10.887948 -25.07635 15.625284 -24.3125 21.25 C-22.126063 25.865811 -19.816502 27.978641 -15.3125 30.25 C-9.787891 31.075345 -4.850434 30.951514 0.25 28.625 C4.420818 24.561126 5.854206 21.069064 6.125 15.3125 C5.946903 10.17093 4.843618 7.319731 1.6875 3.25 C-6.004616 -2.427514 -16.218697 -0.951534 -22.6875 5.6875 Z " fill="#111111" transform="translate(481.3125,403.75)"/><path d="M0 0 C4.298608 1.966385 7.164841 4.550872 9.125 8.875 C10.12014 12.157107 9.957387 13.167609 9.0625 16.6875 C6.272788 21.167947 3.535833 23.865549 -1.375 26.0625 C-5.525933 25.963668 -8.619935 24.342759 -12 22 C-14.842844 18.8018 -15.861314 16.762775 -16.625 12.5625 C-15.790739 7.80721 -13.605073 5.133768 -10 2 C-6.474292 -0.037981 -4.098985 -0.562606 0 0 Z M-11.0625 4.875 C-13.794997 9.282254 -13.869213 12.946636 -13 18 C-11.6875 20.625 -11.6875 20.625 -9 22 C-4.156671 22.690854 0.236336 22.861324 4.6875 20.6875 C6.86286 16.233191 6.822787 11.841222 6 7 C3.837446 4.000328 2.439832 3.265575 -1.160156 2.601562 C-5.283594 2.31244 -7.490528 2.688078 -11.0625 4.875 Z " fill="#111111" transform="translate(67,446)"/></svg>