<svg xmlns="http://www.w3.org/2000/svg" viewBox="0 0 512 512" width="512" height="512"><path d="M0 0 C9.678191 6.83513 16.975037 18.021199 19.320312 29.699219 C20.255072 37.726277 19.544286 44.506775 17.261719 52.21875 C16.192536 56.207161 15.528606 59.759062 16.566406 63.8125 C18.017956 66.007419 19.644972 67.767503 21.488281 69.644531 C31.786536 80.388011 35.606535 90.288747 35.815918 105.039307 C35.823335 105.434895 35.823335 105.434895 35.86087 107.436813 C35.892602 109.142939 35.922533 110.849099 35.950832 112.555285 C35.996704 115.258623 36.049644 117.961737 36.104767 120.664902 C36.261017 128.346484 36.411471 136.028113 36.540527 143.710205 C36.620148 148.419397 36.713748 153.128137 36.816349 157.836882 C36.852658 159.626492 36.883727 161.416216 36.909389 163.206011 C36.945773 165.709497 36.999957 168.212026 37.058105 170.715088 C37.06445 171.449279 37.070795 172.183471 37.077332 172.939911 C37.209584 177.604968 38.127802 180.836658 40.566406 184.8125 C42.878906 186.980469 42.878906 186.980469 45.566406 189 C65.895604 205.091713 78.750336 226.197418 82.878906 252.0625 C84.574121 266.90708 83.029069 281.765106 76.96875 295.527344 C75.303057 299.429427 74.90296 301.610672 75.566406 305.8125 C78.99614 312.043811 84.487614 316.932671 89.566406 321.8125 C96.477458 328.532062 96.477458 328.532062 96.734375 332.230469 C96.74082 333.144414 96.747266 334.058359 96.753906 335 C97.292553 341.637518 99.860344 344.363424 104.566406 348.8125 C105.520604 349.780242 106.470863 350.751878 107.417969 351.726562 C111.632233 356.035709 115.872358 360.242693 120.433594 364.1875 C124.698983 367.887419 128.746743 371.773513 132.753906 375.75 C133.439043 376.414512 134.12418 377.079023 134.830078 377.763672 C140.791964 383.679653 146.133483 389.790589 146.878906 398.4375 C146.786435 404.713986 144.179798 409.795761 140.316406 414.625 C134.522376 419.233888 129.5382 421.533638 122.019531 421.199219 C112.839994 419.752126 106.450458 413.006024 100.679688 406.25 C94.204679 398.781598 87.425075 391.574612 80.371094 384.652344 C78.448155 382.691945 76.663277 380.649371 74.878906 378.5625 C69.437535 372.37857 69.437535 372.37857 66.566406 370.8125 C64.79449 370.820898 63.022457 370.89053 61.253906 371 C57.84016 371.156214 56.141118 371.186596 53.25 369.304688 C51.191406 367.375 51.191406 367.375 49.417969 365.441406 C47.177828 363.470649 45.48891 363.169025 42.566406 362.8125 C42.468437 363.453164 42.370469 364.093828 42.269531 364.753906 C40.793134 373.294099 38.211865 378.743269 31.640625 384.550781 C26.604458 387.614212 21.15517 388.065534 15.382751 388.097702 C14.694411 388.1042 14.006071 388.110698 13.296872 388.117393 C11.008748 388.136615 8.720813 388.141936 6.432617 388.147217 C4.784423 388.158162 3.136235 388.169953 1.488052 388.182526 C-2.976988 388.214048 -7.442004 388.23335 -11.907121 388.250149 C-16.590522 388.269556 -21.27386 388.299267 -25.957214 388.327591 C-33.825457 388.373624 -41.693707 388.412024 -49.562012 388.445557 C-58.63867 388.484302 -67.715222 388.533578 -76.791794 388.588887 C-85.542423 388.642088 -94.293074 388.689192 -103.043755 388.733072 C-106.757984 388.751718 -110.472197 388.772209 -114.186409 388.794165 C-118.569466 388.819695 -122.952517 388.839778 -127.335619 388.855793 C-128.93712 388.862453 -130.538615 388.870868 -132.140097 388.881247 C-160.053834 389.05808 -160.053834 389.05808 -169.246094 381.5 C-177.647298 371.17852 -177.502023 360.176952 -177.984375 347.371094 C-178.028405 346.25827 -178.072434 345.145447 -178.117798 343.998901 C-178.225424 341.270184 -178.330622 338.541396 -178.433594 335.8125 C-201.905444 326.024051 -225.378951 316.239668 -248.871094 306.5 C-249.69407 306.158731 -250.517045 305.817462 -251.36496 305.465851 C-252.966322 304.801879 -254.567786 304.138152 -256.169357 303.474686 C-257.697828 302.841033 -259.225847 302.206287 -260.753372 301.570358 C-264.542604 299.995546 -268.339904 298.447953 -272.157227 296.942383 C-272.924707 296.636215 -273.692188 296.330048 -274.482925 296.014603 C-275.924814 295.440383 -277.369715 294.873642 -278.818222 294.31633 C-286.933889 291.065988 -293.309411 285.616343 -297.433594 277.8125 C-301.664236 265.937856 -291.923656 249.836871 -287.248779 238.959503 C-285.469728 234.817426 -283.712229 230.666204 -281.953125 226.515625 C-281.58398 225.645553 -281.214835 224.775481 -280.834503 223.879044 C-276.614576 213.913054 -272.520139 203.896254 -268.433594 193.875 C-268.05609 192.949775 -267.678586 192.024551 -267.289642 191.071289 C-265.769764 187.346185 -264.250173 183.620965 -262.731461 179.895386 C-259.342766 171.583809 -255.935586 163.279885 -252.524872 154.977325 C-244.694117 135.913989 -236.903539 116.834299 -229.125183 97.749527 C-228.336555 95.817224 -227.546267 93.885597 -226.754211 91.954697 C-224.957275 87.571784 -223.180613 83.184131 -221.465332 78.768555 C-221.157896 77.989306 -220.850459 77.210058 -220.533707 76.407196 C-219.972204 74.981768 -219.420407 73.552454 -218.88121 72.118439 C-217.127377 67.705662 -214.975482 64.94551 -211.433594 61.8125 C-211.156365 61.559602 -211.156365 61.559602 -209.753418 60.279785 C-203.679455 55.453525 -196.715552 52.377774 -189.70752 49.170898 C-187.566186 48.190975 -185.43113 47.198358 -183.296875 46.203125 C-159.419144 35.114612 -159.419144 35.114612 -151.433594 36.8125 C-148.116738 38.107123 -144.928809 39.650233 -141.786377 41.321533 C-137.8266 43.390089 -134.903375 44.491856 -130.433594 43.8125 C-128.667969 42.457031 -128.667969 42.457031 -127.183594 40.625 C-121.899556 34.949413 -116.654234 31.872121 -108.779297 31.414795 C-103.28627 31.259685 -97.801089 31.37547 -92.308594 31.5 C-90.378935 31.525117 -88.449245 31.547924 -86.519531 31.568359 C-81.823432 31.623075 -77.128865 31.709157 -72.433594 31.8125 C-72.307346 31.137031 -72.181099 30.461562 -72.051025 29.765625 C-71.8795 28.873594 -71.707974 27.981562 -71.53125 27.0625 C-71.363752 26.180781 -71.196255 25.299062 -71.023682 24.390625 C-68.504607 13.384655 -59.629564 4.83397 -50.835938 -1.71875 C-46.639434 -4.284417 -42.135624 -5.810212 -37.433594 -7.1875 C-36.77875 -7.37957 -36.123906 -7.571641 -35.449219 -7.769531 C-23.087072 -10.333 -10.642722 -6.196636 0 0 Z M-48.433594 9.8125 C-49.14 10.292031 -49.846406 10.771563 -50.574219 11.265625 C-54.854794 14.539006 -58.0102 18.560974 -59.433594 23.8125 C-59.55748 26.494341 -59.503731 29.124835 -59.433594 31.8125 C-58.653469 31.837556 -57.873345 31.862612 -57.06958 31.888428 C-53.461648 32.005999 -49.853878 32.12798 -46.246094 32.25 C-45.019551 32.289316 -43.793008 32.328633 -42.529297 32.369141 C-13.338052 33.370423 -13.338052 33.370423 -3.683594 43.5625 C-3.459539 43.816687 -3.459539 43.816687 -2.325684 45.103027 C-0.092083 47.557415 1.029878 48.750251 4.394531 49.140625 C5.11125 49.032344 5.827969 48.924062 6.566406 48.8125 C9.54356 42.858193 8.267199 32.060174 6.882812 25.644531 C3.464992 16.497252 -2.92308 10.393993 -11.433594 5.8125 C-23.417346 0.787612 -37.928152 2.518913 -48.433594 9.8125 Z M-123.308594 50.4375 C-123.799727 50.933789 -124.290859 51.430078 -124.796875 51.941406 C-127.552864 54.754662 -130.173618 57.652228 -132.738281 60.640625 C-137.536842 66.174375 -142.84101 71.200028 -148.113281 76.277344 C-153.377664 81.444891 -156.613599 85.532522 -158.433594 92.8125 C-158.433594 109.6425 -158.433594 126.4725 -158.433594 143.8125 C-98.373594 143.8125 -38.313594 143.8125 23.566406 143.8125 C23.566406 86.959559 23.566406 86.959559 14.566406 77.8125 C12.845776 75.984728 11.135603 74.147473 9.425537 72.309814 C8.183675 70.975648 6.939685 69.643459 5.693604 68.313232 C2.131912 64.510635 -1.373045 60.674844 -4.773438 56.726562 C-15.940276 43.851855 -15.940276 43.851855 -19.007324 43.607178 C-20.176665 43.57052 -21.346006 43.533862 -22.550781 43.496094 C-23.210751 43.475177 -23.870721 43.45426 -24.55069 43.432709 C-26.803186 43.364865 -29.055785 43.306472 -31.308594 43.25 C-31.698656 43.239743 -31.698656 43.239743 -33.672607 43.187836 C-50.087842 42.769813 -66.506871 42.672032 -82.926674 42.631275 C-84.933377 42.625001 -86.940033 42.615089 -88.946716 42.604218 C-92.74449 42.58636 -96.542033 42.58219 -100.339844 42.582031 C-101.487321 42.574891 -102.634798 42.567751 -103.817047 42.560394 C-104.348357 42.56191 -104.348357 42.56191 -107.037109 42.56958 C-107.962535 42.568155 -108.887961 42.56673 -109.841431 42.565262 C-115.896032 43.142744 -119.239027 46.199683 -123.308594 50.4375 Z M-177.896484 55.588867 C-180.577698 56.882001 -183.287078 58.090333 -186.011719 59.289062 C-187.881826 60.129506 -189.751624 60.970639 -191.621094 61.8125 C-192.057401 62.001589 -192.057401 62.001589 -194.265381 62.958496 C-205.3942 68.102493 -209.580853 76.12446 -213.871094 87.25 C-214.316465 88.330879 -214.761836 89.411758 -215.220703 90.525391 C-217.748788 96.929095 -218.961782 101.931581 -218.433594 108.8125 C-209.815236 113.237581 -201.077234 117.285434 -192.183594 121.125 C-190.957013 121.667276 -189.73045 122.209594 -188.503906 122.751953 C-182.411795 125.383241 -177.092132 127.506075 -170.433594 127.8125 C-169.705531 124.50816 -169.287803 121.384148 -169.1875 118.003906 C-169.15624 117.098501 -169.12498 116.193096 -169.092773 115.260254 C-169.060869 114.30812 -169.028965 113.355986 -168.996094 112.375 C-168.2815 95.255694 -167.275838 83.866951 -154.371094 71.6875 C-144.326416 62.140293 -144.326416 62.140293 -142.746094 56.25 C-143.654205 53.030332 -145.339991 51.523269 -148.148438 49.78125 C-158.676586 45.318035 -168.516748 50.967243 -177.896484 55.588867 Z M-225.433594 118.8125 C-230.723679 129.894294 -235.394994 141.20714 -240.058594 152.5625 C-240.891442 154.584538 -241.724454 156.606509 -242.557617 158.628418 C-249.056337 174.411619 -255.503987 190.215688 -261.940399 206.024384 C-266.254056 216.619044 -270.581263 227.207116 -274.992188 237.761719 C-275.16965 238.186384 -275.16965 238.186384 -276.067719 240.335449 C-277.716622 244.277469 -279.370304 248.217413 -281.030273 252.154785 C-281.606123 253.526366 -282.181969 254.897948 -282.757812 256.269531 C-283.005756 256.857223 -283.005756 256.857223 -284.260498 259.831299 C-285.776921 263.685002 -286.622366 267.117187 -286.808594 271.25 C-286.857578 271.991211 -286.906563 272.732422 -286.957031 273.496094 C-286.12839 277.163141 -284.342753 278.460961 -281.433594 280.8125 C-278.222156 282.598493 -274.880891 284.013267 -271.496094 285.4375 C-270.444138 285.890605 -269.392183 286.343711 -268.30835 286.810547 C-254.742882 292.610786 -241.086014 298.203282 -227.435059 303.798584 C-210.406558 310.782185 -210.406558 310.782185 -202.003906 314.480469 C-200.812732 315.00125 -199.621558 315.522031 -198.394287 316.058594 C-196.300304 316.980715 -194.211919 317.915725 -192.131104 318.867188 C-186.240096 321.454479 -181.873427 322.265455 -175.433594 321.8125 C-174.731097 312.763201 -174.224546 303.733399 -173.952881 294.661377 C-173.933301 294.044729 -173.933301 294.044729 -173.834213 290.924118 C-173.72876 287.579789 -173.625852 284.235403 -173.524483 280.890949 C-173.438499 278.062725 -173.350892 275.234551 -173.263373 272.406373 C-173.055906 265.698487 -172.85161 258.99051 -172.64917 252.282471 C-172.465999 246.214959 -172.278758 240.147589 -172.087646 234.080322 C-170.032562 168.786187 -170.032562 168.786187 -170.433594 140.8125 C-180.084493 135.769612 -189.901505 131.150602 -199.864929 126.761078 C-201.192876 126.174554 -202.518967 125.583809 -203.843079 124.988678 C-211.006255 121.776344 -217.491362 119.08041 -225.433594 118.8125 Z M-159.433594 155.8125 C-160.042719 165.558502 -160.615747 175.253846 -160.914307 185.005859 C-160.953467 186.222125 -160.992627 187.438391 -161.032974 188.691513 C-161.138342 191.99015 -161.241391 195.288846 -161.342704 198.58761 C-161.407167 200.686099 -161.472131 202.784571 -161.537199 204.883041 C-161.743755 211.554037 -161.947942 218.2251 -162.149079 224.896262 C-162.353045 231.659402 -162.561921 238.422343 -162.779541 245.185059 C-163.779469 276.326723 -164.644697 307.47296 -164.836729 338.631577 C-164.854534 341.461034 -164.883355 344.290031 -164.922045 347.119278 C-164.974122 351.013821 -164.984618 354.907832 -164.98999 358.802734 C-165.00963 359.952845 -165.02927 361.102956 -165.049505 362.287918 C-165.007526 369.949246 -165.007526 369.949246 -162.299835 374.021896 C-158.910673 376.13918 -156.998426 376.448375 -153.017334 376.471924 C-151.715149 376.491547 -150.412964 376.51117 -149.07132 376.531387 C-147.628274 376.527914 -146.18523 376.523944 -144.742188 376.519531 C-143.206025 376.532921 -141.66988 376.548439 -140.133759 376.565903 C-135.928145 376.607082 -131.722978 376.616746 -127.517185 376.620193 C-123.070849 376.62827 -118.624698 376.662282 -114.178467 376.692383 C-106.456545 376.740306 -98.734748 376.767011 -91.012695 376.781738 C-82.308772 376.798361 -73.605154 376.834734 -64.901367 376.88623 C-53.429242 376.953925 -41.957162 377.003895 -30.484894 377.039642 C-25.993054 377.05374 -21.501289 377.073371 -17.009491 377.097321 C-11.683702 377.124689 -6.358088 377.136619 -1.03223 377.136889 C0.938102 377.139355 2.908436 377.146962 4.878727 377.160032 C7.583006 377.177047 10.286656 377.17535 12.990967 377.168945 C13.384178 377.173555 13.384178 377.173555 15.374063 377.196881 C20.189069 377.160243 23.4731 376.357154 27.566406 373.8125 C30.500241 370.648798 30.730708 368.100108 30.640625 363.949219 C30.52827 362.131714 30.398865 360.315196 30.253906 358.5 C30.192676 357.568652 30.131445 356.637305 30.068359 355.677734 C29.915703 353.38789 29.74796 351.100204 29.566406 348.8125 C24.613183 348.521584 20.624108 349.580156 16.003906 351.1875 C-6.683376 358.651317 -29.737293 356.295081 -51.386719 346.472656 C-73.99501 334.813237 -91.115176 315.9234 -99.214844 291.839844 C-106.933232 267.201747 -104.295559 242.653977 -92.433594 219.8125 C-80.772636 198.345098 -62.656689 182.947351 -39.417969 175.46875 C-21.51422 170.224974 -3.108305 170.032889 14.921875 174.9375 C18.566406 175.8125 18.566406 175.8125 24.566406 175.8125 C24.566406 169.2125 24.566406 162.6125 24.566406 155.8125 C-36.153594 155.8125 -96.873594 155.8125 -159.433594 155.8125 Z M-71.433594 205.8125 C-72.096172 206.393867 -72.75875 206.975234 -73.441406 207.574219 C-85.668444 218.457927 -92.435176 237.79119 -93.654785 253.697266 C-94.682643 280.552792 -88.123995 303.606463 -69.605469 323.691406 C-51.91889 340.96445 -28.553393 345.57806 -4.758057 345.35376 C5.176834 345.165077 13.527533 344.047796 22.566406 339.8125 C23.704648 339.293008 24.842891 338.773516 26.015625 338.238281 C43.123132 329.714332 56.372909 316.428703 64.253906 299.125 C64.539514 298.514629 64.825122 297.904258 65.119385 297.275391 C69.94389 286.210815 71.130657 274.452249 71.066406 262.5 C71.059961 261.233979 71.053516 259.967959 71.046875 258.663574 C70.652695 238.397001 63.13147 220.931027 49.566406 205.8125 C49.049492 205.202773 48.532578 204.593047 48 203.964844 C36.726165 191.5608 17.829037 182.678061 1.203369 181.593018 C-2.697834 181.471368 -6.593458 181.424423 -10.496094 181.4375 C-11.187454 181.439041 -11.878815 181.440582 -12.591125 181.442169 C-36.33127 181.568384 -54.769458 188.914755 -71.433594 205.8125 Z M57.753906 323.875 C53.389429 328.782605 49.178162 333.358409 43.824219 337.222656 C42.566406 338.8125 42.566406 338.8125 42.050781 341.628906 C42.727222 345.805413 44.740775 347.874463 47.691406 350.6875 C48.165781 351.185078 48.640156 351.682656 49.128906 352.195312 C51.574678 354.601423 53.267849 355.757086 56.660156 356.386719 C60.302894 355.666984 61.477664 354.493088 63.941406 351.75 C66.796606 348.688111 69.632879 345.783514 72.816406 343.0625 C73.460938 342.501758 74.105469 341.941016 74.769531 341.363281 C76.364107 339.987093 77.964819 338.618022 79.566406 337.25 C81.566406 334.8125 81.566406 334.8125 82.253906 331.9375 C81.259508 327.417506 78.815436 324.994921 75.566406 321.8125 C75.05207 321.299453 74.537734 320.786406 74.007812 320.257812 C71.903964 318.323365 70.100264 316.94735 67.308594 316.242188 C62.833178 317.172972 60.658426 320.511353 57.753906 323.875 Z M73.566406 353.8125 C72.906406 354.4725 72.246406 355.1325 71.566406 355.8125 C71.003906 358.5 71.003906 358.5 71.566406 361.8125 C73.021009 363.650119 74.597221 365.159479 76.351562 366.710938 C78.303485 368.563026 80.009552 370.449802 81.758545 372.489258 C85.261456 376.512397 88.92988 380.321307 92.707031 384.085938 C93.355893 384.735756 94.004755 385.385574 94.673279 386.055084 C96.029982 387.412462 97.387925 388.768603 98.74707 390.123535 C100.828647 392.199709 102.904772 394.28123 104.980469 396.363281 C106.305669 397.687821 107.631178 399.012051 108.957031 400.335938 C109.575801 400.956732 110.194572 401.577526 110.832092 402.217133 C111.409894 402.791783 111.987697 403.366432 112.583008 403.958496 C113.088179 404.462872 113.593351 404.967248 114.113831 405.486908 C117.603013 408.671067 119.904757 409.13065 124.503906 409.1875 C125.024043 409.20168 125.024043 409.20168 127.65625 409.273438 C131.276262 408.700066 132.379183 407.706908 134.566406 404.8125 C135.793351 401.756823 135.867638 399.073996 135.566406 395.8125 C132.122444 388.596738 126.138835 382.971761 120.519531 377.4375 C119.667119 376.58696 118.814706 375.736421 117.936462 374.860107 C116.148169 373.078495 114.356303 371.300463 112.561035 369.525879 C109.803604 366.799843 107.057211 364.063056 104.3125 361.324219 C102.569636 359.590516 100.826168 357.857421 99.082031 356.125 C98.258099 355.305317 97.434166 354.485635 96.585266 353.641113 C95.823974 352.889429 95.062682 352.137744 94.27832 351.363281 C93.608028 350.699817 92.937736 350.036353 92.247131 349.352783 C89.903374 347.204871 88.635644 346.823578 85.441406 346.3125 C79.947705 347.021365 77.349085 349.968951 73.566406 353.8125 Z " fill="#111111" transform="translate(331.43359375,42.1875)"/><path d="M0 0 C1.640625 1.207031 1.640625 1.207031 3 3 C3.363281 5.558594 3.363281 5.558594 3.3125 8.4375 C3.308633 9.384961 3.304766 10.332422 3.300781 11.308594 C2.993784 14.055625 2.543921 15.717908 1 18 C-1.875 19 -1.875 19 -5 19 C-7.375 17.75 -7.375 17.75 -9 15 C-9.63804 9.736168 -9.94718 4.598437 -7 0 C-4.266349 -1.366826 -2.893336 -0.84683 0 0 Z " fill="#111111" transform="translate(67,51)"/><path d="M0 0 C2.75 1.625 2.75 1.625 4 4 C4 7.125 4 7.125 3 10 C-1.495337 13.024136 -6.806991 12.629456 -12 12 C-14.75 10.375 -14.75 10.375 -16 8 C-16 4.875 -16 4.875 -15 2 C-10.504663 -1.024136 -5.193009 -0.629456 0 0 Z " fill="#111111" transform="translate(50,74)"/><path d="M0 0 C2.75 1.625 2.75 1.625 4 4 C4 7.125 4 7.125 3 10 C-1.495337 13.024136 -6.806991 12.629456 -12 12 C-14.75 10.375 -14.75 10.375 -16 8 C-16 4.875 -16 4.875 -15 2 C-10.504663 -1.024136 -5.193009 -0.629456 0 0 Z " fill="#111111" transform="translate(90,74)"/><path d="M0 0 C1.640625 1.207031 1.640625 1.207031 3 3 C3.363281 5.558594 3.363281 5.558594 3.3125 8.4375 C3.308633 9.384961 3.304766 10.332422 3.300781 11.308594 C2.993784 14.055625 2.543921 15.717908 1 18 C-1.875 19 -1.875 19 -5 19 C-7.375 17.75 -7.375 17.75 -9 15 C-9.63804 9.736168 -9.94718 4.598437 -7 0 C-4.266349 -1.366826 -2.893336 -0.84683 0 0 Z " fill="#111111" transform="translate(67,91)"/><path d="M0 0 C1.640625 1.207031 1.640625 1.207031 3 3 C3.363281 5.558594 3.363281 5.558594 3.3125 8.4375 C3.308633 9.384961 3.304766 10.332422 3.300781 11.308594 C2.993784 14.055625 2.543921 15.717908 1 18 C-1.875 19 -1.875 19 -5 19 C-7.375 17.75 -7.375 17.75 -9 15 C-9.63804 9.736168 -9.94718 4.598437 -7 0 C-4.266349 -1.366826 -2.893336 -0.84683 0 0 Z " fill="#111111" transform="translate(451,99)"/><path d="M0 0 C7.114722 5.842343 11.024451 12.449819 12.679688 21.53125 C13.188686 30.153377 9.609244 37.976708 4.246094 44.527344 C-1.587772 50.553113 -8.8643 54.215882 -17.316406 54.714844 C-26.131413 54.093171 -33.475505 50.502104 -39.808594 44.441406 C-45.399173 37.862934 -48.178031 30.217465 -48.023438 21.644531 C-47.07492 12.874176 -42.312812 5.836728 -35.753906 0.152344 C-23.975781 -7.359124 -11.812536 -7.92529 0 0 Z M-32.566406 12.152344 C-36.787373 17.941099 -36.376947 24.222084 -35.753906 31.152344 C-34.003906 34.714844 -34.003906 34.714844 -31.753906 37.152344 C-31.073281 37.915469 -30.392656 38.678594 -29.691406 39.464844 C-26.08624 42.604827 -22.475197 42.34404 -17.878906 42.402344 C-16.664609 42.428125 -15.450312 42.453906 -14.199219 42.480469 C-9.801541 42.061642 -7.316476 40.703075 -4.207031 37.617188 C1.059752 30.931109 0.937218 25.58022 0.246094 17.152344 C-2.104488 12.102946 -5.753225 8.652685 -10.753906 6.152344 C-19.451107 5.527683 -26.486257 5.267217 -32.566406 12.152344 Z " fill="#111111" transform="translate(281.75390625,111.84765625)"/><path d="M0 0 C2.75 1.625 2.75 1.625 4 4 C4 7.125 4 7.125 3 10 C-1.495337 13.024136 -6.806991 12.629456 -12 12 C-14.75 10.375 -14.75 10.375 -16 8 C-16 4.875 -16 4.875 -15 2 C-10.504663 -1.024136 -5.193009 -0.629456 0 0 Z " fill="#111111" transform="translate(434,122)"/><path d="M0 0 C2.75 1.625 2.75 1.625 4 4 C4 7.125 4 7.125 3 10 C-1.495337 13.024136 -6.806991 12.629456 -12 12 C-14.75 10.375 -14.75 10.375 -16 8 C-16 4.875 -16 4.875 -15 2 C-10.504663 -1.024136 -5.193009 -0.629456 0 0 Z " fill="#111111" transform="translate(474,122)"/><path d="M0 0 C1.640625 1.207031 1.640625 1.207031 3 3 C3.363281 5.558594 3.363281 5.558594 3.3125 8.4375 C3.308633 9.384961 3.304766 10.332422 3.300781 11.308594 C2.993784 14.055625 2.543921 15.717908 1 18 C-1.875 19 -1.875 19 -5 19 C-7.375 17.75 -7.375 17.75 -9 15 C-9.63804 9.736168 -9.94718 4.598437 -7 0 C-4.266349 -1.366826 -2.893336 -0.84683 0 0 Z " fill="#111111" transform="translate(451,139)"/><path d="M0 0 C2.4375 0.5625 2.4375 0.5625 4.182495 2.724854 C5.805267 6.394044 5.263291 7.781654 3.955078 11.527344 C3.757892 12.100896 3.757892 12.100896 2.76001 15.003418 C0.627994 20.741008 -1.55237 26.448898 -3.84375 32.125 C-4.34433 33.37231 -4.844691 34.619708 -5.344849 35.867188 C-6.383329 38.453466 -7.425874 41.038059 -8.471191 43.621582 C-9.805331 46.920507 -11.126633 50.224412 -12.44474 53.52977 C-13.470022 56.095589 -14.503163 58.658188 -15.538559 61.21994 C-16.265827 63.024236 -16.985597 64.831549 -17.7052 66.638916 C-18.152465 67.737761 -18.599729 68.836606 -19.060547 69.96875 C-19.448192 70.931035 -19.835837 71.89332 -20.235229 72.884766 C-21.682575 75.804749 -23.446412 78.094314 -25.5625 80.5625 C-28.4375 80.25 -28.4375 80.25 -31.5625 79.5625 C-34.06773 75.804655 -33.650663 74.286318 -33.054657 69.990753 C-32.269493 66.116834 -30.86928 62.619292 -29.316406 58.996094 C-28.989483 58.207218 -28.66256 57.418342 -28.325729 56.60556 C-27.270014 54.065529 -26.198066 51.532744 -25.125 49 C-24.392607 47.250641 -23.661166 45.500882 -22.930664 43.750732 C-21.483263 40.286348 -20.029905 36.824551 -18.572754 33.364258 C-16.819616 29.191221 -15.109336 25.003134 -13.417969 20.804688 C-12.969294 19.698108 -12.52062 18.591528 -12.05835 17.451416 C-11.251796 15.459767 -10.451415 13.465603 -9.658447 11.468506 C-5.449257 1.196178 -5.449257 1.196178 0 0 Z " fill="#111111" transform="translate(127.5625,216.4375)"/><path d="M0 0 C2.876769 0.590107 3.643113 1.219706 5.4375 3.5 C5.836227 5.554672 5.836227 5.554672 5.869873 7.950928 C5.889647 8.856791 5.909421 9.762655 5.929794 10.695969 C5.936204 11.681885 5.942614 12.667801 5.949219 13.683594 C5.967351 14.714909 5.985484 15.746225 6.004166 16.808792 C6.059414 20.184996 6.093013 23.561001 6.125 26.9375 C6.155755 29.254894 6.187335 31.572277 6.219727 33.889648 C6.29627 39.678595 6.352928 45.467564 6.404968 51.256775 C6.444358 55.18374 6.501773 59.110293 6.560867 63.037003 C6.607562 66.34663 6.639994 69.65625 6.666656 72.966095 C6.680436 74.475971 6.69873 75.985812 6.721771 77.495575 C6.751345 79.575387 6.761234 81.654377 6.765625 83.734375 C6.770298 84.307847 6.770298 84.307847 6.793945 87.209961 C6.356513 91.247517 5.282079 93.885517 3.4375 97.5 C1.25 98.9375 1.25 98.9375 -0.5625 99.5 C-3.295207 97.930147 -4.742689 97.005151 -6.5625 94.5 C-7.075653 91.836899 -7.075653 91.836899 -7.245605 88.689209 C-7.309313 87.526384 -7.373021 86.363559 -7.43866 85.165497 C-7.641496 79.161838 -7.705078 73.167017 -7.695312 67.160156 C-7.695989 65.82222 -7.696962 64.484283 -7.698212 63.146347 C-7.699672 60.36391 -7.697588 57.581505 -7.692871 54.799072 C-7.68718 51.275245 -7.690459 47.751494 -7.696444 44.22767 C-7.700099 41.470896 -7.698888 38.714139 -7.696316 35.957365 C-7.695347 34.040103 -7.698325 32.122841 -7.701447 30.205582 C-7.685394 24.103217 -7.576063 18.004484 -7.304199 11.907959 C-7.258991 10.797185 -7.213784 9.686411 -7.167206 8.541977 C-6.303043 4.194797 -4.540068 0.885867 0 0 Z " fill="#111111" transform="translate(208.5625,258.5)"/><path d="M0 0 C3.601511 1.304895 5.937843 3.54092 8.632812 6.164062 C9.184773 6.68855 9.736733 7.213037 10.30542 7.753418 C12.114202 9.482323 13.905687 11.227846 15.695312 12.976562 C16.019995 13.291013 16.019995 13.291013 17.663086 14.882324 C19.619426 16.780674 21.56585 18.688514 23.507812 20.601562 C23.81618 20.903324 23.81618 20.903324 25.376709 22.43042 C26.855918 23.907099 28.281234 25.4374 29.695312 26.976562 C29.695312 27.636563 29.695312 28.296562 29.695312 28.976562 C30.355312 28.976562 31.015312 28.976562 31.695312 28.976562 C31.695312 29.636563 31.695312 30.296562 31.695312 30.976562 C32.685313 31.306562 33.675313 31.636563 34.695312 31.976562 C35.025312 32.636562 35.355312 33.296562 35.695312 33.976562 C38.195312 34.476562 38.195312 34.476562 41.695312 33.976562 C43.88268 32.207765 45.715872 30.256603 47.625 28.191406 C49.554901 26.126776 51.542938 24.303971 53.695312 22.476562 C60.004916 17.031288 65.711886 11.131488 71.054688 4.738281 C73.560614 2.047394 75.58689 0.165805 79.257812 -0.460938 C81.695312 -0.023438 81.695312 -0.023438 83.570312 1.664062 C85.022728 4.649583 84.642648 5.82972 83.695312 8.976562 C81.104439 12.642372 77.825477 15.766467 74.695312 18.976562 C74.016138 19.676201 73.336963 20.37584 72.637207 21.09668 C70.353124 23.440727 68.058013 25.773334 65.757812 28.101562 C64.999844 28.872744 64.241875 29.643926 63.460938 30.438477 C62.745508 31.154873 62.030078 31.87127 61.292969 32.609375 C60.648518 33.257935 60.004067 33.906494 59.340088 34.574707 C57.695312 35.976562 57.695312 35.976562 55.695312 35.976562 C55.427188 36.595312 55.159063 37.214063 54.882812 37.851562 C53.695312 39.976562 53.695312 39.976562 50.695312 41.976562 C50.253906 44.828125 50.253906 44.828125 50.695312 47.976562 C52.417969 50.25 52.417969 50.25 54.757812 52.351562 C57.817552 55.200285 60.690447 58.027114 63.382812 61.226562 C66.249663 64.570118 69.266496 67.218601 72.695312 69.976562 C74.405247 71.598808 76.068789 73.270697 77.695312 74.976562 C78.311484 75.609492 78.927656 76.242422 79.5625 76.894531 C80.204453 77.581602 80.846406 78.268672 81.507812 78.976562 C82.112383 79.615937 82.716953 80.255313 83.339844 80.914062 C85.025677 83.47925 85.083332 84.961949 84.695312 87.976562 C83.007812 89.851562 83.007812 89.851562 80.695312 90.976562 C76.391915 90.62091 74.300711 89.140532 71.195312 86.226562 C70.768633 85.826309 70.768633 85.826309 68.609375 83.800781 C67.636534 82.860912 66.665298 81.919379 65.695312 80.976562 C65.125225 80.426938 64.555137 79.877314 63.967773 79.311035 C62.160034 77.562254 60.362992 75.803272 58.570312 74.039062 C57.98959 73.471553 57.408867 72.904043 56.810547 72.319336 C55.399096 70.910432 54.041854 69.447627 52.695312 67.976562 C52.695312 67.316563 52.695312 66.656563 52.695312 65.976562 C51.705312 65.646563 50.715312 65.316563 49.695312 64.976562 C48.546107 63.660402 47.446368 62.300353 46.382812 60.914062 C43.097751 57.113563 43.097751 57.113563 39.757812 55.976562 C35.669513 57.311517 33.65964 59.629123 30.777344 62.753906 C28.790344 64.875112 26.729384 66.731426 24.507812 68.601562 C21.14446 71.491943 18.471898 74.524591 15.695312 77.976562 C14.074283 79.687649 12.400278 81.349096 10.695312 82.976562 C10.000508 83.677813 9.305703 84.379063 8.589844 85.101562 C2.532193 90.94613 2.532193 90.94613 -1.742188 91.101562 C-4.304688 89.976562 -4.304688 89.976562 -6.304688 87.976562 C-6.710938 85.683594 -6.710938 85.683594 -6.304688 82.976562 C-4.460938 80.425781 -4.460938 80.425781 -1.804688 77.664062 C-1.324189 77.159878 -0.843691 76.655693 -0.348633 76.13623 C1.31741 74.400812 3.004545 72.687893 4.695312 70.976562 C5.348223 70.309956 6.001133 69.64335 6.673828 68.956543 C20.391222 54.970371 20.391222 54.970371 26.436523 50.606934 C27.695312 48.976562 27.695312 48.976562 28.330566 46.272217 C27.357382 41.223402 24.200551 38.795157 20.546875 35.347656 C19.819149 34.635535 19.091423 33.923413 18.341644 33.189713 C16.014978 30.916459 13.669286 28.664241 11.320312 26.414062 C8.98114 24.157848 6.646517 21.897379 4.320404 19.627701 C2.872895 18.216844 1.41744 16.814083 -0.046722 15.420517 C-6.096581 9.550109 -6.096581 9.550109 -7.304688 4.976562 C-3.030097 -0.030815 -3.030097 -0.030815 0 0 Z " fill="#111111" transform="translate(281.3046875,260.0234375)"/></svg>