<svg xmlns="http://www.w3.org/2000/svg" viewBox="0 0 512 512" width="512" height="512"><path d="M0 0 C1.506398 0.797743 3.007406 1.605716 4.503906 2.421875 C5.32375 2.860801 6.143594 3.299727 6.988281 3.751953 C14.563083 7.834624 22.039661 12.092016 29.515381 16.352539 C35.476516 19.740712 41.479991 23.014806 47.566406 26.171875 C54.658249 29.850467 61.626013 33.715202 68.566406 37.671875 C75.611757 41.687684 82.686288 45.613282 89.878906 49.359375 C98.181865 53.684625 106.379533 58.17178 114.538574 62.762207 C117.393098 64.354058 120.262579 65.917132 123.132812 67.480469 C125.215012 68.627298 127.297046 69.77443 129.378906 70.921875 C129.871489 71.187301 129.871489 71.187301 132.364258 72.530518 C138.825022 76.117777 143.18383 79.23558 146.441406 86.046875 C147.789073 92.785208 146.298148 97.481209 142.90625 103.214844 C137.263861 109.216621 128.970307 112.127819 121.527344 115.234375 C120.420925 115.702763 119.314507 116.171151 118.174561 116.653732 C114.599382 118.165876 111.020406 119.668802 107.441406 121.171875 C104.972781 122.213623 102.505114 123.25763 100.037598 124.302002 C96.378341 125.850487 92.718908 127.398544 89.058441 128.944168 C80.164436 132.700302 71.292707 136.503841 62.441406 140.359375 C60.153699 141.354288 57.86594 142.349084 55.578125 143.34375 C55.040828 143.577393 55.040828 143.577393 52.321777 144.759766 C45.508507 147.715215 38.686158 150.649775 31.851807 153.556152 C26.064132 156.018034 20.292909 158.506459 14.548447 161.067307 C11.5613 162.395684 8.5671 163.707684 5.57193 165.017853 C4.12656 165.654865 2.684367 166.299139 1.245697 166.951141 C-12.853099 173.334022 -12.853099 173.334022 -20.933594 171.171875 C-25.229469 168.556994 -27.877355 165.275225 -29.505615 160.491211 C-30.115591 157.185581 -30.055895 153.910678 -30.03125 150.5625 C-30.030543 150.199095 -30.030543 150.199095 -30.026962 148.360046 C-30.021382 146.04728 -30.008833 143.734612 -29.996094 141.421875 C-29.991076 139.850262 -29.986514 138.278647 -29.982422 136.707031 C-29.971419 132.861942 -29.954167 129.016925 -29.933594 125.171875 C-61.53167 125.738362 -91.660332 128.794909 -121.977234 138.293915 C-123.306991 138.707532 -124.639881 139.111228 -125.975891 139.504181 C-133.606898 141.771169 -138.949789 143.68889 -142.864502 150.878906 C-143.040902 151.257246 -143.040902 151.257246 -143.933594 153.171875 C-144.268992 153.82543 -144.60439 154.478984 -144.949951 155.152344 C-145.868783 157.010863 -146.694773 158.884999 -147.496094 160.796875 C-147.78855 161.484348 -148.081006 162.171821 -148.382324 162.880127 C-159.469293 189.400764 -164.758963 218.468589 -165.074219 247.167969 C-165.083867 247.856655 -165.093514 248.545342 -165.103455 249.254898 C-165.183453 254.984157 -165.183453 254.984157 -165.184082 257.781982 C-165.187417 259.89074 -165.22188 261.997125 -165.261719 264.105469 C-165.271064 265.343533 -165.28041 266.581597 -165.290039 267.857178 C-166.094875 272.002571 -167.748658 273.504792 -170.933594 276.171875 C-175.411603 274.755196 -178.317692 272.330617 -181.558594 269.046875 C-181.817856 268.78439 -181.817856 268.78439 -183.129883 267.456055 C-205.102297 244.469734 -214.577308 215.023453 -214.210938 183.6875 C-213.95238 174.863095 -212.385173 166.631336 -209.933594 158.171875 C-209.831758 157.816738 -209.831758 157.816738 -209.316406 156.019531 C-204.338261 139.272066 -196.094098 123.604469 -184.933594 110.171875 C-184.4879 109.622251 -184.042207 109.072627 -183.583008 108.506348 C-168.132164 89.476465 -149.579508 74.571355 -127.850586 63.181641 C-125.899266 62.153793 -123.967577 61.09413 -122.035156 60.03125 C-120.793957 59.367939 -119.55181 58.706398 -118.308594 58.046875 C-117.765898 57.756836 -117.765898 57.756836 -115.019531 56.289062 C-111.438311 54.99257 -109.544467 55.023431 -105.933594 56.171875 C-103.933594 59.171875 -103.933594 59.171875 -103.996094 61.109375 C-106.375099 66.343187 -112.372141 68.525823 -117.308594 70.859375 C-154.090806 88.824849 -184.207903 118.300502 -198.054688 157.332031 C-199.063934 160.59302 -199.52746 163.787425 -199.933594 167.171875 C-194.511471 165.783483 -191.316385 163.291057 -187.183594 159.734375 C-146.171101 125.849366 -84.691256 110.081798 -32.183594 112.359375 C-31.415554 112.389265 -30.647515 112.419155 -29.856201 112.449951 C-25.473386 112.734202 -22.435376 113.478711 -18.933594 116.171875 C-17.21557 119.607923 -17.813932 123.556264 -17.835938 127.335938 C-17.836645 127.789541 -17.836645 127.789541 -17.840225 130.085052 C-17.845833 132.989027 -17.858387 135.892924 -17.871094 138.796875 C-17.876108 140.76302 -17.880671 142.729166 -17.884766 144.695312 C-17.895805 149.520863 -17.913074 154.346356 -17.933594 159.171875 C-10.27875 157.995096 -3.626016 155.639625 3.449219 152.542969 C4.524695 152.08159 5.600171 151.620211 6.708237 151.144852 C10.206494 149.641834 13.698854 148.125596 17.191406 146.609375 C19.636209 145.556604 22.081351 144.504668 24.5271 143.454102 C29.43034 141.34679 34.331383 139.234475 39.230957 137.118652 C47.562396 133.523256 55.910743 129.968287 64.264496 126.42511 C66.622616 125.424544 68.97998 124.422216 71.337158 123.419434 C80.358174 119.583461 89.388944 115.771206 98.425781 111.972656 C100.520117 111.091509 102.614436 110.210324 104.70874 109.329102 C108.751046 107.628291 112.79507 105.931653 116.840088 104.237305 C118.672101 103.466947 120.504054 102.696447 122.335938 101.925781 C123.177635 101.574537 124.019332 101.223293 124.886536 100.861404 C125.659792 100.535327 126.433048 100.20925 127.229736 99.873291 C127.901846 99.591475 128.573957 99.309659 129.266434 99.019302 C131.066406 98.171875 131.066406 98.171875 134.066406 96.171875 C134.884434 93.08431 134.784494 90.274941 134.066406 87.171875 C131.695764 84.970564 130.137776 83.92652 127.316406 82.546875 C126.573423 82.147024 125.830439 81.747173 125.064941 81.335205 C123.371315 80.428836 121.668945 79.53869 119.959961 78.661621 C116.790702 77.029929 113.650574 75.349575 110.511719 73.660156 C106.944729 71.740775 103.377202 69.822976 99.800049 67.922607 C92.135442 63.848142 84.542965 59.662552 77.003906 55.359375 C70.25132 51.505802 63.467097 47.753725 56.566406 44.171875 C49.665664 40.589999 42.882197 36.836772 36.128906 32.984375 C27.754066 28.221746 19.345526 23.525871 10.874237 18.937103 C9.637964 18.266046 8.403328 17.591961 7.170441 16.914703 C5.441205 15.96584 3.705084 15.029559 1.96875 14.09375 C1.471132 13.82353 1.471132 13.82353 -1.047119 12.456055 C-4.042082 11.123609 -6.690621 10.563066 -9.933594 10.171875 C-9.938267 10.673763 -9.938267 10.673763 -9.961914 13.213623 C-10.001896 16.950722 -10.067676 20.687005 -10.141113 24.423584 C-10.169276 26.038386 -10.190514 27.653324 -10.20459 29.268311 C-10.226086 31.594947 -10.272766 33.91995 -10.324219 36.246094 C-10.325447 36.963996 -10.326676 37.681898 -10.327942 38.421555 C-10.427918 41.870911 -10.894593 44.102041 -12.585449 47.129639 C-15.596721 49.748612 -17.155763 49.785657 -21.113281 49.773438 C-22.342 49.786892 -23.570718 49.800347 -24.83667 49.814209 C-26.147405 49.808489 -27.45814 49.802769 -28.808594 49.796875 C-31.531643 49.825467 -34.253972 49.87662 -36.976562 49.933594 C-37.655017 49.94659 -38.333472 49.959586 -39.032486 49.972977 C-45.128507 50.11735 -51.092071 50.728672 -57.121094 51.609375 C-58.012239 51.738523 -58.903384 51.867671 -59.821533 52.000732 C-64.425619 52.702663 -68.949255 53.596286 -73.496094 54.609375 C-77.25921 55.365628 -77.59749 55.369583 -81.121094 53.296875 C-81.719219 52.595625 -82.317344 51.894375 -82.933594 51.171875 C-82.632444 48.386241 -82.420692 46.669069 -80.425781 44.632812 C-76.882581 42.555764 -73.312979 41.895226 -69.308594 41.109375 C-68.467561 40.940186 -67.626528 40.770996 -66.76001 40.59668 C-52.128741 37.757144 -37.817937 36.855187 -22.933594 37.171875 C-22.954541 36.395859 -22.975488 35.619844 -22.99707 34.820312 C-23.080721 31.270968 -23.13241 27.721831 -23.183594 24.171875 C-23.217109 22.951133 -23.250625 21.730391 -23.285156 20.472656 C-23.363778 13.200142 -22.995736 8.290614 -18.933594 2.171875 C-12.331668 -3.082719 -7.526903 -3.740927 0 0 Z M-177.933594 166.171875 C-178.857852 166.867969 -179.782109 167.564063 -180.734375 168.28125 C-183.547883 170.498711 -186.247288 172.801605 -188.933594 175.171875 C-189.540098 175.699746 -190.146602 176.227617 -190.771484 176.771484 C-201.949669 186.634588 -201.949669 186.634588 -203.925781 191.730469 C-204.007088 194.409088 -203.570041 196.566537 -202.933594 199.171875 C-202.764727 200.362969 -202.595859 201.554062 -202.421875 202.78125 C-200.148123 218.462768 -193.932327 232.5962 -185.933594 246.171875 C-185.463086 246.971094 -184.992578 247.770312 -184.507812 248.59375 C-182.933594 250.171875 -182.933594 250.171875 -180.335205 250.270508 C-179.938939 250.254233 -179.938939 250.254233 -177.933594 250.171875 C-177.868899 249.399243 -177.804204 248.626611 -177.737549 247.830566 C-175.331548 219.854865 -171.409794 192.049958 -161.234375 165.679688 C-160.057194 162.505187 -159.621649 160.499289 -159.933594 157.171875 C-167.095695 156.33938 -172.521584 162.090112 -177.933594 166.171875 Z " fill="#111111" transform="translate(289.93359375,36.828125)"/><path d="M0 0 C14.948651 5.13046 26.226231 26.443021 33.022949 39.92334 C45.762711 67.000905 47.227234 96.210075 37.535645 124.383301 C26.554548 154.609345 4.380898 181.773452 -22 200 C-22.665317 200.46084 -23.330635 200.92168 -24.016113 201.396484 C-60.806474 226.498721 -103.542447 239.430024 -148 239 C-147.979053 239.776016 -147.958105 240.552031 -147.936523 241.351562 C-147.852872 244.900907 -147.801184 248.450044 -147.75 252 C-147.733242 252.610371 -147.733242 252.610371 -147.648438 255.699219 C-147.569761 262.976832 -147.952157 267.869782 -152 274 C-155.872927 277.283569 -158.95296 278.663122 -164 279 C-167.101563 277.875 -167.101563 277.875 -170.625 276 C-170.954396 275.827024 -170.954396 275.827024 -172.621338 274.95166 C-174.1648 274.137079 -175.703932 273.314263 -177.239746 272.485352 C-179.859075 271.075835 -182.488239 269.686112 -185.121033 268.301941 C-188.229993 266.666174 -191.333696 265.020522 -194.4375 263.375 C-195.040963 263.056118 -195.644425 262.737236 -196.266174 262.408691 C-216.861074 251.500859 -216.861074 251.500859 -219 245 C-217.375 242.9375 -217.375 242.9375 -215 241 C-210.161939 241.298747 -206.708219 242.994752 -202.527344 245.351562 C-202.225162 245.520123 -202.225162 245.520123 -200.695938 246.373138 C-198.771655 247.448783 -196.854491 248.536422 -194.9375 249.625 C-193.678208 250.332875 -192.418446 251.039913 -191.158203 251.746094 C-190.537489 252.09412 -189.916776 252.442147 -189.277252 252.80072 C-184.070345 255.71907 -184.070345 255.71907 -181.828796 256.973755 C-180.609475 257.657988 -179.391575 258.344759 -178.17511 259.034058 C-176.435316 260.018173 -174.688462 260.989772 -172.941406 261.960938 C-172.440323 262.242195 -172.440323 262.242195 -169.904541 263.665527 C-166.89563 265.047952 -164.275755 265.613615 -161 266 C-160.995327 265.498112 -160.995327 265.498112 -160.97168 262.958252 C-160.931698 259.221153 -160.865917 255.48487 -160.79248 251.748291 C-160.764318 250.133489 -160.74308 248.518551 -160.729004 246.903564 C-160.707507 244.576928 -160.660828 242.251925 -160.609375 239.925781 C-160.608146 239.207879 -160.606918 238.489977 -160.605652 237.75032 C-160.465805 232.925358 -159.494065 230.346109 -156 227 C-153.454512 226.3135 -151.597701 226.080558 -149 226 C-148.054634 225.964229 -147.109268 225.928457 -146.135254 225.891602 C-143.905567 225.821052 -141.675528 225.761107 -139.445312 225.709961 C-91.196685 224.581566 -45.015655 209.222099 -10 175 C-9.089922 174.151797 -8.179844 173.303594 -7.242188 172.429688 C9.388969 156.556647 26.907149 132.544576 29 109 C24.445589 110.269154 21.591197 111.878246 18.0625 115 C-23.398426 149.838308 -85.285619 166.074495 -138.75 163.8125 C-139.518442 163.78269 -140.286885 163.752881 -141.078613 163.722168 C-145.460939 163.437292 -148.498555 162.692905 -152 160 C-153.718024 156.563952 -153.119662 152.615611 -153.097656 148.835938 C-153.096949 148.382334 -153.096949 148.382334 -153.093369 146.086823 C-153.087761 143.182848 -153.075207 140.278951 -153.0625 137.375 C-153.057486 135.408855 -153.052923 133.442709 -153.048828 131.476562 C-153.037789 126.651012 -153.020519 121.825519 -153 117 C-161.283099 118.182283 -168.528257 121.103611 -176.133911 124.472748 C-179.184109 125.823478 -182.244032 127.151543 -185.303375 128.4814 C-186.954536 129.199314 -188.605223 129.918321 -190.255463 130.638351 C-199.119971 134.502315 -208.029871 138.256836 -216.943176 142.006531 C-221.678209 143.998792 -226.411465 145.995261 -231.144531 147.992188 C-232.102244 148.396238 -233.059957 148.800289 -234.046692 149.216583 C-245.519716 154.059713 -256.979177 158.934713 -268.4375 163.8125 C-268.931392 164.022713 -268.931392 164.022713 -271.430786 165.086517 C-276.010417 167.035945 -280.589527 168.986578 -285.16748 170.939941 C-288.247855 172.254246 -291.330115 173.563911 -294.414551 174.868652 C-295.704755 175.416335 -296.994957 175.964023 -298.285156 176.511719 C-298.831759 176.742904 -298.831759 176.742904 -301.5979 177.912842 C-304 179 -304 179 -305 180 C-305.0718 181.51928 -305.08392 183.041675 -305.0625 184.5625 C-305.041667 186.041667 -305.020833 187.520833 -305 189 C-296.272661 194.018013 -287.51039 198.963777 -278.688873 203.814606 C-276.821834 204.841749 -274.95609 205.871213 -273.090576 206.901123 C-267.322144 210.083768 -261.547132 213.252015 -255.746094 216.375 C-254.818774 216.876687 -253.891455 217.378374 -252.936035 217.895264 C-251.23205 218.815758 -249.524851 219.730337 -247.813965 220.637939 C-247.067114 221.042302 -246.320264 221.446665 -245.550781 221.863281 C-245.229362 222.034928 -245.229362 222.034928 -243.602783 222.903564 C-242 224 -242 224 -240 227 C-240.324137 230.322403 -240.607763 231.607763 -243 234 C-246.886596 234.443304 -249.142237 233.689721 -252.464844 231.71875 C-253.332705 231.214243 -254.200566 230.709736 -255.094727 230.189941 C-256.032842 229.632261 -256.970957 229.07458 -257.9375 228.5 C-268.053287 222.620838 -278.294205 217.04915 -288.659882 211.625732 C-313.334161 198.712512 -313.334161 198.712512 -317.3125 190.1875 C-318.604207 184.198678 -317.692182 178.843706 -314.40538 173.642975 C-309.093986 167.433632 -300.638304 164.272138 -293.277344 161.226562 C-292.243747 160.789802 -291.210151 160.353041 -290.145233 159.903046 C-286.746113 158.468659 -283.341811 157.047016 -279.9375 155.625 C-277.53625 154.613705 -275.13546 153.601315 -272.735107 152.587891 C-268.9855 151.004872 -265.235682 149.422377 -261.484146 147.843933 C-249.090205 142.628086 -236.730426 137.334234 -224.374817 132.028229 C-220.831171 130.50801 -217.28574 128.99203 -213.739746 127.477295 C-203.469845 123.0873 -193.21563 118.671374 -183.015625 114.121094 C-180.606479 113.055176 -178.196636 111.990852 -175.786469 110.927246 C-173.645179 109.974295 -171.514785 108.999662 -169.384033 108.023438 C-162.490997 104.93959 -157.486048 103.052852 -150 105 C-145.704124 107.614881 -143.056239 110.89665 -141.427979 115.680664 C-140.818003 118.986294 -140.877699 122.261197 -140.902344 125.609375 C-140.903051 125.97278 -140.903051 125.97278 -140.906631 127.811829 C-140.912212 130.124595 -140.924761 132.437263 -140.9375 134.75 C-140.942518 136.321613 -140.94708 137.893228 -140.951172 139.464844 C-140.962175 143.309933 -140.979426 147.15495 -141 151 C-109.401923 150.433513 -79.273262 147.376966 -48.95636 137.87796 C-47.626602 137.464343 -46.293712 137.060647 -44.957703 136.667694 C-37.314319 134.39703 -31.983758 132.476618 -28.064697 125.275391 C-27.713347 124.524512 -27.361997 123.773633 -27 123 C-26.669919 122.367715 -26.339839 121.73543 -25.999756 121.083984 C-11.836954 93.025531 -6.352322 59.468298 -5.773438 28.351562 C-5.765985 27.987795 -5.765985 27.987795 -5.728271 26.146912 C-5.660365 22.578548 -5.624922 19.014289 -5.641602 15.445312 C-5.628389 14.15625 -5.615176 12.867188 -5.601562 11.539062 C-5.604946 10.39647 -5.60833 9.253877 -5.611816 8.07666 C-4.819901 4.09433 -3.04094 2.582659 0 0 Z M7 26 C6.935305 26.772632 6.87061 27.545264 6.803955 28.341309 C4.397954 56.31701 0.476201 84.121917 -9.699219 110.492188 C-10.8764 113.666688 -11.311945 115.672586 -11 119 C-4.595092 118.667709 -1.138415 116.436511 3.8125 112.5 C4.163206 112.228411 4.163206 112.228411 5.937988 110.854004 C11.529066 106.480784 16.848705 101.883359 22 97 C22.933281 96.199492 23.866562 95.398984 24.828125 94.574219 C31.494173 88.58781 31.494173 88.58781 32.730469 84.707031 C32.825353 82.009621 32.487375 79.657097 32 77 C31.836289 75.80375 31.672578 74.6075 31.503906 73.375 C29.16827 57.69704 23.005104 43.586488 15 30 C14.529492 29.200781 14.058984 28.401563 13.574219 27.578125 C12 26 12 26 9.401611 25.901367 C8.60908 25.933916 7.816548 25.966465 7 26 Z " fill="#111111" transform="translate(393,199)"/></svg>