<svg xmlns="http://www.w3.org/2000/svg" xmlns:xlink="http://www.w3.org/1999/xlink" viewBox="0 0 512 512" id="empty-mailbox"><defs><linearGradient id="b" x1="263.93" x2="138.06" y1="233.35" y2="233.35" gradientUnits="userSpaceOnUse"><stop offset="0" stop-color="#cacfdd"></stop><stop offset="1" stop-color="#eef0f1"></stop></linearGradient><linearGradient id="a" x1="276.19" x2="92.95" y1="233.34" y2="233.34" gradientUnits="userSpaceOnUse"><stop offset="0" stop-color="#a9afc4"></stop><stop offset="1" stop-color="#d4d8e5"></stop></linearGradient><linearGradient xlink:href="#a" id="c" x1="289.37" x2="289.37" y1="341.27" y2="376.21"></linearGradient><linearGradient xlink:href="#a" id="d" x1="263.16" x2="44.59" y1="335.55" y2="335.55"></linearGradient><linearGradient xlink:href="#a" id="e" x1="261.16" x2="474.86" y1="335.55" y2="335.55"></linearGradient></defs><g><rect width="6" height="19.3" x="55.59" y="203.19" fill="#5e6175" transform="rotate(-45 58.591 212.84)"></rect><rect width="19.3" height="6" x="36" y="232.59" fill="#5e6175"></rect><rect width="6" height="19.3" x="77.16" y="189.73" fill="#5e6175"></rect><path fill="#5e6175" d="M355.45 408a10.47 10.47 0 1110.47-10.47A10.47 10.47 0 01355.45 408zm0-14.94a4.47 4.47 0 104.47 4.47A4.47 4.47 0 00355.45 393.05zM396.58 378.74a8.87 8.87 0 118.87-8.87A8.88 8.88 0 01396.58 378.74zm0-11.74a2.87 2.87 0 102.87 2.87A2.88 2.88 0 00396.58 367z"></path><rect width="52.42" height="40.82" x="318.94" y="61.98" fill="#e1830e"></rect><path fill="url(#b)" d="M263.75,207.82v121.5H122.86V207.82a70.45,70.45,0,0,1,140.89,0Z"></path><rect width="51.23" height="108.24" x="263.75" y="341.78" fill="#f5f5f5"></rect><path fill="url(#a)" d="M263.75,207.82V329.31L158.13,146.77a70.46,70.46,0,0,1,105.62,61Z"></path><rect width="51.23" height="34.6" x="263.75" y="341.78" fill="url(#c)" style="mix-blend-mode:multiply"></rect><path fill="#5e6175" d="M266.75,332.31H119.86V207.82a73.45,73.45,0,0,1,146.89,0Zm-140.89-6H260.75V207.82a67.45,67.45,0,0,0-134.89,0Z"></path><path fill="#f5f5f5" d="M476,207.82V329.31H263.75V207.82a70.45,70.45,0,0,0-70.45-70.44H405.56A70.45,70.45,0,0,1,476,207.82Z"></path><path fill="#5e6175" d="M479,332.31H260.75V207.82a67.41,67.41,0,0,0-67.45-67.44v-6H405.56A73.53,73.53,0,0,1,479,207.82Zm-212.25-6H473V207.82a67.52,67.52,0,0,0-67.44-67.44H222.48a73.46,73.46,0,0,1,44.27,67.44Z"></path><rect width="12.44" height="148.84" x="309.5" y="64.98" fill="#f5f5f3"></rect><path fill="#5e6175" d="M324.94,216.82H306.5V62h18.44Zm-12.44-6h6.44V68H312.5Z"></path><rect width="220.35" height="12.47" x="43.4" y="329.31" fill="url(#d)"></rect><rect width="212.25" height="12.47" x="263.75" y="329.31" fill="url(#e)"></rect><path fill="#5e6175" d="M266.75,344.78H40.4V326.31H266.75Zm-220.35-6H260.75v-6.47H46.4Z"></path><path fill="#5e6175" d="M479,344.78H260.75V326.31H479Zm-212.25-6H473v-6.47H266.75Z"></path><circle cx="315.72" cy="213.82" r="14.78" fill="#5e6175"></circle><path fill="#5e6175" d="M315.72,231.6a17.78,17.78,0,1,1,17.78-17.78A17.81,17.81,0,0,1,315.72,231.6Zm0-29.56a11.78,11.78,0,1,0,11.78,11.78A11.79,11.79,0,0,0,315.72,202Z"></path><polygon fill="#5e6175" points="317.98 450.02 311.98 450.02 311.98 344.78 266.75 344.78 266.75 450.02 260.75 450.02 260.75 338.78 317.98 338.78 317.98 450.02"></polygon><circle cx="119.41" cy="271.64" r="57.68" fill="#f5f5f5"></circle><path fill="#5e6175" d="M119.41,332.31a60.68,60.68,0,1,1,60.68-60.67A60.74,60.74,0,0,1,119.41,332.31Zm0-115.35a54.68,54.68,0,1,0,54.68,54.68A54.73,54.73,0,0,0,119.41,217Z"></path><rect width="64.87" height="21.96" x="87.06" y="260.65" fill="#e1830e" transform="rotate(-45 119.498 271.642)"></rect><rect width="21.96" height="64.87" x="108.52" y="239.2" fill="#e1830e" transform="rotate(-45 119.498 271.642)"></rect><path fill="#a9afc4" d="M299.39 104.93h-6v-6h6zm-16 0h-6v-6h6zm-16 0h-6v-6h6zm-16 0h-6v-6h6zm-16 0h-6v-6h6zm-16 0h-6v-6h6zm-16 0h-6v-6h6zm-16 0h-6v-6h6zm-16 0h-6v-6h6zm-16 0h-6v-6h6zm-16 0h-6v-6h6zm-16 0h-6v-6h6zM123.34 168.74h-6v-6h6zm0-16h-6v-6h6zm0-16h-6v-6h6zm0-16h-6v-6h6z"></path></g></svg>