<svg xmlns="http://www.w3.org/2000/svg" viewBox="0 0 512 512" width="512" height="512"><path d="M0 0 C3.51641 2.830531 6.768987 5.850142 10 9 C10.477598 9.44666 10.477598 9.44666 12.894531 11.707031 C30.44949 28.374746 46.490081 52.516574 53 76 C53 77.32 53 78.64 53 80 C53.629063 80.146953 54.258125 80.293906 54.90625 80.445312 C66.331667 83.439322 74.328859 90.7045 80.67041 100.608887 C82.258887 103.418958 83.768083 106.257336 85.25 109.125 C85.802283 110.168335 86.354565 111.21167 86.923584 112.286621 C88.62943 115.517444 90.31686 118.757299 92 122 C93.027068 123.968894 94.054403 125.937649 95.082031 127.90625 C96.50688 130.636524 97.929979 133.367411 99.338867 136.105957 C102.176232 141.599288 105.109188 147.034168 108.086777 152.452347 C114.973329 164.991662 121.534906 177.676726 128 190.4375 C129.998293 194.374567 131.998552 198.31063 134 202.246094 C134.246163 202.730368 134.246163 202.730368 135.491898 205.181091 C139.028735 212.126359 142.617207 219.04344 146.230469 225.949219 C210.982466 349.725114 210.982466 349.725114 202.875 376.75 C196.18495 388.346086 188.716119 393.960111 176 398 C172.259679 398.980854 168.495156 399.772902 164.70459 400.533691 C163.634794 400.755395 162.564998 400.977099 161.462784 401.205521 C157.963725 401.92868 154.462406 402.640171 150.960938 403.351562 C148.509419 403.855976 146.058056 404.361146 143.606842 404.867035 C137.832192 406.057023 132.056095 407.239757 126.279199 408.418792 C119.088344 409.886806 111.899627 411.365168 104.710938 412.84375 C97.361637 414.355229 90.012198 415.865968 82.661224 417.369293 C81.541397 417.59851 80.421569 417.827726 79.267807 418.063889 C77.192597 418.488546 75.117269 418.912627 73.041794 419.335983 C67.986085 420.37106 62.944378 421.444903 57.916819 422.609671 C50.956498 424.027028 43.174872 424.174425 36.953125 420.449219 C32.667503 417.269287 28.803328 413.737547 25 410 C24.303906 409.328398 23.607813 408.656797 22.890625 407.964844 C15.064208 399.858912 9.17688 390.18166 2.928711 380.857422 C-0.016797 376.493595 -3.034545 372.181862 -6.0625 367.875 C-6.63573 367.05854 -7.20896 366.24208 -7.799561 365.400879 C-8.954659 363.756216 -10.110175 362.111846 -11.266113 360.467773 C-14.183244 356.315934 -17.091122 352.157624 -20 348 C-21.166623 346.333303 -22.33329 344.666636 -23.5 343 C-25.833333 339.666667 -28.166667 336.333333 -30.5 333 C-31.077339 332.175242 -31.654678 331.350483 -32.249512 330.500732 C-33.41785 328.831655 -34.586144 327.162547 -35.754395 325.493408 C-38.645135 321.363377 -41.536599 317.233856 -44.429688 313.105469 C-51.317281 303.274995 -58.182944 293.429577 -65.03418 283.57373 C-71.094993 274.857466 -77.180704 266.158813 -83.273438 257.464844 C-85.0377 254.946179 -86.800332 252.426381 -88.5625 249.90625 C-88.857212 249.484888 -88.857212 249.484888 -90.348633 247.352539 C-91.525419 245.669844 -92.701856 243.986904 -93.87793 242.303711 C-96.65672 238.330652 -99.446256 234.366264 -102.265625 230.421875 C-120.503421 204.888395 -135.154899 177.350917 -130 145 C-126.225471 126.776964 -116.849396 110.453857 -101.375 99.8125 C-96.506771 96.926586 -92.627918 96.092261 -87 96 C-89.565112 80.734456 -93.897882 68.196999 -104.3125 56.375 C-112.762106 52.051946 -123.231382 56.387244 -131.695312 58.867188 C-133.096414 59.267144 -134.497859 59.665896 -135.899628 60.063507 C-139.565889 61.10671 -143.227527 62.165282 -146.888306 63.227539 C-150.601415 64.302381 -154.318332 65.363871 -158.035156 66.425781 C-162.222267 67.622091 -166.409041 68.819357 -170.592316 70.029022 C-189.66159 75.531203 -189.66159 75.531203 -194 74 C-196.454676 71.545324 -196.323243 70.827559 -196.375 67.4375 C-195.9985 50.539283 -189.809937 35.747634 -178.503906 23.21875 C-172.991368 18.334005 -166.900137 15.228638 -159.921875 13 C-159.150673 12.749277 -158.379471 12.498555 -157.5849 12.240234 C-147.639885 9.118758 -137.448766 7.096751 -127.25 5 C-122.765572 4.063688 -118.282937 3.119002 -113.800781 2.171875 C-113.214683 2.048357 -113.214683 2.048357 -110.248672 1.423279 C-101.598096 -0.41313 -92.977488 -2.361171 -84.364231 -4.363571 C-82.238933 -4.857408 -80.113179 -5.349237 -77.987274 -5.840454 C-71.763876 -7.279303 -65.542006 -8.723103 -59.327182 -10.198605 C-56.136302 -10.951848 -52.94079 -11.685012 -49.746094 -12.421875 C-48.603355 -12.698359 -47.460616 -12.974843 -46.283249 -13.259705 C-28.598611 -17.284202 -14.069215 -10.43817 0 0 Z M-67.808594 -3.257812 C-69.953951 -2.767962 -72.099634 -2.279533 -74.245621 -1.79245 C-78.704914 -0.776364 -83.161209 0.251668 -87.615479 1.289551 C-93.331261 2.621093 -99.052 3.929641 -104.774856 5.230406 C-109.188201 6.234746 -113.599684 7.247056 -118.010546 8.262241 C-120.12138 8.74783 -122.232579 9.231833 -124.344145 9.71423 C-127.277384 10.386414 -130.208172 11.068358 -133.138428 11.753418 C-134.011551 11.951944 -134.884674 12.150469 -135.784256 12.355011 C-141.770797 13.770797 -141.770797 13.770797 -144 16 C-144.125 19.125 -144.125 19.125 -144 22 C-142.839844 22.617461 -141.679688 23.234922 -140.484375 23.871094 C-115.529091 37.326062 -92.081265 55.763211 -83.38623 83.992676 C-82.095539 88.626292 -81.030651 93.30261 -80 98 C-79.773125 98.995156 -79.54625 99.990313 -79.3125 101.015625 C-78.861529 103.007414 -78.427901 105.003127 -78 107 C-69.485844 106.51982 -61.347657 105.47811 -53.019531 103.664062 C-52.463318 103.546428 -52.463318 103.546428 -49.648544 102.951126 C-46.034639 102.18433 -42.423531 101.405211 -38.8125 100.625 C-36.294043 100.086212 -33.775487 99.547888 -31.256836 99.01001 C-26.080271 97.902313 -20.905111 96.788336 -15.730957 95.669434 C-9.45147 94.311565 -3.169171 92.967332 3.114212 91.627625 C7.732874 90.64075 12.349607 89.645106 16.965729 88.646423 C19.145451 88.175921 21.325767 87.708163 23.506683 87.243225 C26.532506 86.596824 29.555545 85.938718 32.578125 85.277344 C33.021605 85.183819 33.021605 85.183819 35.265884 84.710526 C39.697277 83.727131 43.233681 82.675587 47 80 C46.511142 73.993068 45.221007 69.446729 42.5625 64.0625 C42.210505 63.335227 41.858511 62.607954 41.49585 61.858643 C33.615715 45.880388 24.241684 31.397867 12.105469 18.300781 C10.214717 16.234635 8.455462 14.107856 6.6875 11.9375 C-3.122998 0.744923 -16.844799 -6.907958 -31.698135 -8.36203 C-44.198312 -8.55344 -55.681394 -6.102067 -67.808594 -3.257812 Z M18.710938 91.179688 C16.274548 91.714104 13.837908 92.24738 11.401031 92.779572 C6.320843 93.89215 1.242888 95.014235 -3.833496 96.144043 C-10.342759 97.592568 -16.855676 99.023439 -23.370188 100.448103 C-28.389697 101.546679 -33.407881 102.651199 -38.42561 103.757877 C-40.827979 104.287629 -43.230588 104.816288 -45.633442 105.343838 C-48.98036 106.080273 -52.325594 106.823907 -55.67041 107.569824 C-56.662616 107.787051 -57.654821 108.004279 -58.677094 108.228088 C-59.132505 108.330433 -59.132505 108.330433 -61.437164 108.848358 C-62.226472 109.023499 -63.015779 109.198639 -63.829004 109.379087 C-66.060918 110.017423 -67.962246 110.897214 -70 112 C-70.406206 117.37265 -70.406206 117.37265 -68.636719 120.105469 C-67.993477 120.792539 -67.350234 121.479609 -66.6875 122.1875 C-50.841001 140.942885 -40.17386 166.329803 -29.353027 188.26416 C-27.014379 193.001221 -24.588666 197.673124 -22.0625 202.3125 C-18.951543 208.058656 -16.102673 213.904618 -13.3125 219.8125 C-7.887119 231.298792 -2.199504 242.647963 3.5 254 C9.094988 265.143988 14.68473 276.281693 20 287.5625 C26.505962 301.350682 33.645837 314.813438 40.800781 328.273438 C50.066504 345.716929 57.503126 361.168106 60 381 C69.91744 381.301746 78.868202 380.647002 88.605469 378.574219 C89.920153 378.305684 91.235122 378.038541 92.550339 377.772629 C95.447284 377.184519 98.342274 376.587751 101.236267 375.985291 C106.360516 374.921126 111.491709 373.892622 116.623535 372.865723 C125.243045 371.138546 133.857712 369.388753 142.469301 367.622515 C147.438636 366.603524 152.408893 365.58962 157.381592 364.587158 C162.282498 363.599081 167.180824 362.599076 172.077505 361.590277 C173.925469 361.211669 175.774308 360.837307 177.624018 360.467325 C180.178052 359.955615 182.728467 359.428638 185.278564 358.897705 C186.036186 358.749604 186.793807 358.601503 187.574387 358.448914 C192.771798 357.342303 192.771798 357.342303 195 354 C195.810444 347.350874 193.497698 341.854273 191.1875 335.6875 C190.780076 334.584304 190.372651 333.481108 189.952881 332.344482 C175.852281 294.642274 157.472964 258.77118 139.5 222.8125 C139.128452 222.068814 138.756903 221.325128 138.374096 220.558907 C130.426592 204.653135 122.477073 188.753042 114.102295 173.066498 C112.584304 170.220685 111.077628 167.368933 109.570282 164.517471 C107.715972 161.010349 105.8577 157.505327 104 154 C94.896454 136.820279 94.896454 136.820279 90.788818 128.969971 C89.275287 126.082927 87.747207 123.203671 86.220215 120.32373 C84.812464 117.642864 83.433435 114.947797 82.050781 112.253906 C81.013808 110.273025 79.976059 108.29255 78.9375 106.3125 C78.478755 105.402744 78.02001 104.492988 77.547363 103.555664 C73.798854 96.488996 68.912772 89.889399 61.21553 86.929123 C47.469248 82.957154 32.188138 88.165427 18.710938 91.179688 Z M-109 124 C-113.773249 130.069356 -117.159476 136.496326 -119 144 C-119.181758 144.706406 -119.363516 145.412813 -119.550781 146.140625 C-123.920102 173.9523 -112.260649 195.976058 -96.51123 217.894043 C-93.749626 221.742444 -91.032574 225.622187 -88.3125 229.5 C-87.728152 230.331526 -87.143804 231.163052 -86.541748 232.019775 C-81.248316 239.58131 -76.128993 247.253573 -71.025879 254.944336 C-65.406882 263.408583 -59.69858 271.808543 -53.964844 280.195312 C-49.5444 286.66137 -45.146438 293.142614 -40.75 299.625 C-39.942957 300.814782 -39.135909 302.00456 -38.328857 303.194336 C-36.69896 305.597266 -35.069179 308.000274 -33.439453 310.40332 C-30.249155 315.107276 -27.0576 319.810378 -23.865967 324.513428 C-22.286476 326.840911 -20.707227 329.168558 -19.128174 331.496338 C-15.558807 336.75786 -11.988318 342.018603 -8.412003 347.275406 C-6.419736 350.203917 -4.428447 353.133092 -2.4375 356.0625 C-2.047669 356.635962 -1.657839 357.209423 -1.256195 357.800262 C3.163906 364.305359 7.560746 370.824989 11.914062 377.375 C12.31695 377.980975 12.719837 378.58695 13.134933 379.211288 C15.048414 382.090837 16.958331 384.972621 18.863525 387.857666 C33.58004 410.057329 33.58004 410.057329 41 413 C44 413.3125 44 413.3125 46 413 C54.491875 397.773189 56.489016 378.976083 51.910099 362.191779 C46.697436 344.515641 37.170777 328.087497 28.921311 311.672766 C27.065505 307.977621 25.214724 304.27996 23.363464 300.582535 C19.85597 293.578863 16.344741 286.577072 12.831811 279.576125 C6.56499 267.086882 0.302556 254.595441 -5.955478 242.101792 C-8.140912 237.739185 -10.328641 233.377739 -12.518199 229.017201 C-19.736029 214.63941 -26.877181 200.234444 -33.761673 185.692917 C-36.84939 179.18271 -40.112213 172.767064 -43.4375 166.375 C-43.748164 165.776674 -44.058828 165.178347 -44.378906 164.56189 C-48.627925 156.389088 -52.969698 148.27103 -57.5 140.25 C-57.955603 139.435796 -58.411206 138.621592 -58.880615 137.782715 C-63.207529 130.249891 -68.172384 123.174915 -74.8125 117.5 C-75.186973 117.175156 -75.186973 117.175156 -77.082031 115.53125 C-87.413352 107.283027 -101.360534 116.447629 -109 124 Z M162.542969 366.382812 C160.350958 366.840144 158.158759 367.296579 155.966385 367.752167 C151.378103 368.708245 146.791592 369.672272 142.206299 370.642578 C136.397871 371.871482 130.58638 373.085044 124.77357 374.293032 C120.243145 375.23557 115.714028 376.184273 111.185297 377.134914 C109.047078 377.583456 106.908588 378.030704 104.769796 378.476505 C93.579229 380.814362 82.419016 383.278809 71.317627 386.01123 C70.354681 386.235452 69.391734 386.459674 68.399608 386.690691 C62.826572 388.105232 59.586795 389.436737 56 394 C55.065186 395.941162 55.065186 395.941162 54.636719 397.777344 C54.472363 398.456035 54.308008 399.134727 54.138672 399.833984 C54.064229 400.181064 54.064229 400.181064 53.6875 401.9375 C53.519277 402.627793 53.351055 403.318086 53.177734 404.029297 C52.235944 408.084763 51.824362 411.843241 52 416 C58.680947 416.205302 64.57613 415.504825 71.09375 414.097656 C73.320167 413.634879 75.546744 413.172872 77.773438 412.711426 C78.411685 412.577897 78.411685 412.577897 81.641602 411.902161 C86.623076 410.865781 91.612142 409.867909 96.601562 408.870605 C105.723932 407.047022 114.843734 405.211179 123.961594 403.365179 C129.293436 402.286093 134.626026 401.211036 139.960449 400.144775 C145.197729 399.097782 150.432852 398.040572 155.666641 396.976274 C157.640135 396.576784 159.61436 396.18089 161.58934 395.788816 C164.340933 395.241926 167.089562 394.681929 169.837891 394.118896 C170.635876 393.963469 171.433861 393.808041 172.256027 393.647903 C180.733036 391.881112 189.242959 388.77768 195 382 C197.250542 377.810872 197.240553 373.831845 197.125 369.1875 C197.115977 368.494629 197.106953 367.801758 197.097656 367.087891 C197.074262 365.391776 197.038396 363.695841 197 362 C185.216522 361.010819 173.989944 363.950467 162.542969 366.382812 Z " fill="#111111" transform="translate(252,52)"/><path d="M0 0 C3 1 3 1 3.960938 2.75 C4 5 4 5 2.226562 7.375 C1.368047 8.24125 0.509531 9.1075 -0.375 10 C-5.152764 14.922776 -9.104129 20.116142 -12.992188 25.761719 C-13.654766 26.500352 -14.317344 27.238984 -15 28 C-16.32 28 -17.64 28 -19 28 C-19.229158 25.141884 -19.276945 23.46692 -17.794189 20.967041 C-17.23949 20.319207 -16.68479 19.671372 -16.113281 19.003906 C-15.504199 18.280098 -14.895117 17.556289 -14.267578 16.810547 C-13.622402 16.068691 -12.977227 15.326836 -12.3125 14.5625 C-11.68666 13.824512 -11.06082 13.086523 -10.416016 12.326172 C-9.190647 10.882675 -7.960475 9.443241 -6.725098 8.008301 C-4.453189 5.363421 -2.224963 2.684419 0 0 Z " fill="#111111" transform="translate(339,45)"/><path d="M0 0 C2.125 0.375 2.125 0.375 4 1 C3.503168 7.683941 1.618547 13.048563 -1 19.1875 C-1.733131 20.929326 -2.46243 22.672772 -3.1875 24.417969 C-3.511055 25.178757 -3.834609 25.939546 -4.167969 26.723389 C-5.047926 29.131135 -5.5594 31.477956 -6 34 C-5.146641 34.184336 -4.293281 34.368672 -3.414062 34.558594 C5.859384 36.709651 14.902278 39.440828 23.9375 42.4375 C25.105229 42.808669 26.272959 43.179839 27.476074 43.562256 C28.020784 43.747277 28.020784 43.747277 30.777344 44.683594 C31.759529 45.009001 32.741714 45.334409 33.753662 45.669678 C36 47 36 47 36.826416 49.644775 C36.855057 50.033387 36.855057 50.033387 37 52 C32.470448 54.264776 24.745745 50.493345 20 49 C14.960197 47.276219 9.941721 45.49191 4.946533 43.642822 C4.003826 43.301785 3.061118 42.960747 2.089844 42.609375 C1.253162 42.299678 0.416479 41.98998 -0.445557 41.670898 C-3.377095 40.90096 -5.981816 40.886801 -9 41 C-9.131082 41.343132 -9.131082 41.343132 -9.794434 43.07959 C-10.98245 46.180202 -12.178614 49.277608 -13.375 52.375 C-13.7875 53.455234 -14.2 54.535469 -14.625 55.648438 C-15.024609 56.679688 -15.424219 57.710938 -15.835938 58.773438 C-16.019226 59.249988 -16.019226 59.249988 -16.946777 61.661621 C-18 64 -18 64 -20 66 C-22.125 65.625 -22.125 65.625 -24 65 C-23.634084 58.657462 -21.830145 53.930639 -19.058594 48.222656 C-18.072886 45.221887 -17.886225 43.391994 -17.933838 40.298584 C-17.94339 39.492351 -17.952942 38.686118 -17.962784 37.855453 C-17.975065 37.243154 -17.987346 36.630854 -18 36 C-18.625679 35.798423 -18.625679 35.798423 -21.791992 34.77832 C-26.440236 33.277227 -31.083139 31.760174 -35.724609 30.238281 C-37.732956 29.58223 -39.742719 28.930497 -41.753906 28.283203 C-44.647078 27.351213 -47.534776 26.403735 -50.421875 25.453125 C-50.870902 25.310331 -50.870902 25.310331 -53.14325 24.587708 C-57.670506 23.079707 -60.950232 21.882875 -64 18 C-63.67 17.34 -63.34 16.68 -63 16 C-56.707772 15.679368 -52.004778 16.66135 -46.117188 18.808594 C-45.299287 19.094771 -44.481387 19.380948 -43.638702 19.675797 C-41.046516 20.584719 -38.460615 21.510067 -35.875 22.4375 C-33.281406 23.358686 -30.686621 24.276229 -28.089874 25.188492 C-26.48063 25.754761 -24.873307 26.326532 -23.26828 26.904648 C-19.186656 28.350523 -15.319375 29.44519 -11 30 C-10.853047 29.319375 -10.706094 28.63875 -10.554688 27.9375 C-9.083682 21.580053 -7.212606 15.48252 -4.9375 9.375 C-4.680171 8.676328 -4.422842 7.977656 -4.157715 7.257812 C-3.050302 4.348618 -2.225861 2.225861 0 0 Z " fill="#111111" transform="translate(220,59)"/><path d="M0 0 C1.613281 0.851562 1.613281 0.851562 2.613281 2.851562 C-0.959751 6.779887 -4.23857 9.054104 -9.074219 11.226562 C-10.212461 11.749922 -11.350703 12.273281 -12.523438 12.8125 C-13.46832 13.155391 -14.413203 13.498281 -15.386719 13.851562 C-16.046719 13.521563 -16.706719 13.191563 -17.386719 12.851562 C-17.3125 10.625 -17.3125 10.625 -16.386719 7.851562 C-14.099367 6.129391 -12.066142 4.813937 -9.574219 3.476562 C-8.944512 3.10918 -8.314805 2.741797 -7.666016 2.363281 C-5.028034 0.896198 -3.061826 -0.190425 0 0 Z " fill="#111111" transform="translate(352.38671875,77.1484375)"/><path d="M0 0 C0.33 1.32 0.66 2.64 1 4 C-3.512355 7.213902 -8.047048 8.127683 -13.375 9.1875 C-14.2 9.364746 -15.025 9.541992 -15.875 9.724609 C-20.681746 10.712663 -25.095197 11.191697 -30 11 C-30.33 9.68 -30.66 8.36 -31 7 C-28.117571 4.582812 -25.916251 3.514837 -22.226562 2.832031 C-21.319062 2.66123 -20.411563 2.49043 -19.476562 2.314453 C-18.535547 2.148809 -17.594531 1.983164 -16.625 1.8125 C-16.158359 1.723877 -16.158359 1.723877 -13.796875 1.275391 C-9.1436 0.421851 -4.752606 -0.230478 0 0 Z " fill="#111111" transform="translate(381,98)"/><path d="M0 0 C0.965508 -0.039961 1.931016 -0.079922 2.925781 -0.121094 C6.769218 0.656292 8.492011 2.342771 10.6875 5.4375 C13.078608 9.493086 15.199621 13.669121 17.3125 17.875 C17.925327 19.079945 18.538861 20.284531 19.153076 21.48877 C20.400411 23.938968 21.64146 26.3922 22.877441 28.848145 C24.573828 32.217711 26.291286 35.576234 28.011719 38.933594 C29.008682 40.892787 30.004823 42.852399 31 44.8125 C31.461646 45.714119 31.923291 46.615737 32.398926 47.544678 C32.820288 48.383293 33.24165 49.221909 33.675781 50.085938 C34.042278 50.809585 34.408774 51.533232 34.786377 52.278809 C35.774466 54.645833 36.263464 56.913202 36.6875 59.4375 C32.023835 62.934098 27.90505 64.469868 22.257812 65.769531 C21.442128 65.967236 20.626443 66.164941 19.786041 66.368637 C17.131021 67.008349 14.472184 67.629991 11.8125 68.25 C9.974155 68.685981 8.13594 69.122509 6.297852 69.55957 C1.654644 70.659077 -2.992568 71.740553 -7.641235 72.816711 C-10.191641 73.409413 -12.740157 74.009544 -15.288086 74.612793 C-19.021419 75.495875 -22.758038 76.362983 -26.498596 77.214935 C-27.866309 77.528096 -29.232996 77.845773 -30.598572 78.168121 C-32.48422 78.611054 -34.374846 79.032632 -36.265625 79.453125 C-37.319111 79.693213 -38.372598 79.933301 -39.458008 80.180664 C-42.781275 80.479678 -44.42069 80.076968 -47.3125 78.4375 C-48.897949 76.666748 -48.897949 76.666748 -50.242188 74.511719 C-50.747178 73.70396 -51.252168 72.896201 -51.772461 72.063965 C-54.438809 67.516632 -56.963554 62.904438 -59.4375 58.25 C-60.56827 56.13502 -61.699799 54.020447 -62.832031 51.90625 C-63.117961 51.371934 -63.117961 51.371934 -64.564941 48.667969 C-66.289256 45.480467 -68.049224 42.31577 -69.824219 39.15625 C-70.378999 38.162625 -70.933779 37.168999 -71.505371 36.145264 C-72.564 34.25285 -73.630422 32.364769 -74.705566 30.481689 C-75.180425 29.627927 -75.655283 28.774165 -76.144531 27.894531 C-76.354528 27.52316 -76.354528 27.52316 -77.417236 25.643799 C-78.508899 22.953492 -78.846104 21.306749 -78.3125 18.4375 C-74.903156 15.997861 -71.735221 14.848462 -67.671143 13.935303 C-66.562614 13.681715 -65.454086 13.428127 -64.311966 13.166855 C-63.122337 12.904254 -61.932709 12.641653 -60.707031 12.371094 C-59.472648 12.091533 -58.238265 11.811973 -56.966476 11.523941 C-53.688694 10.783469 -50.409356 10.050828 -47.129028 9.321777 C-44.474981 8.730085 -41.822647 8.130929 -39.170384 7.531295 C-6.519044 0.149964 -6.519044 0.149964 0 0 Z M-31.875 11.75 C-33.965269 12.159357 -36.055763 12.567568 -38.146484 12.974609 C-43.875347 14.096242 -49.596368 15.252753 -55.3125 16.4375 C-55.68378 16.51427 -55.68378 16.51427 -57.562683 16.902771 C-67.953506 19.078506 -67.953506 19.078506 -70.3125 21.4375 C-70.781656 26.613386 -70.004963 29.902086 -67.601562 34.464844 C-67.020518 35.579963 -66.439473 36.695083 -65.84082 37.843994 C-65.207187 39.021431 -64.572732 40.198425 -63.9375 41.375 C-63.297349 42.583637 -62.657703 43.792542 -62.018555 45.001709 C-49.806958 67.943042 -49.806958 67.943042 -44.3125 73.4375 C-36.69065 74.028066 -29.853138 72.460468 -22.464844 70.699219 C-21.253573 70.417785 -20.042303 70.136352 -18.794327 69.84639 C-15.594887 69.100256 -12.397767 68.345033 -9.201355 67.58606 C-5.964094 66.82117 -2.722927 66.073287 0.517578 65.322266 C3.002831 64.740549 5.487864 64.157898 7.972656 63.574219 C9.128064 63.305343 10.283472 63.036468 11.473892 62.759445 C17.406609 61.346023 23.03635 59.736441 28.6875 57.4375 C28.16083 51.452619 26.334135 46.736516 23.8125 41.3125 C23.421189 40.457368 23.029878 39.602236 22.626709 38.721191 C19.507115 31.996151 16.176126 25.385974 12.75 18.8125 C12.27772 17.906128 11.805439 16.999756 11.318848 16.065918 C7.946226 9.696226 7.946226 9.696226 5.6875 7.4375 C-6.788541 5.655925 -19.724811 9.304091 -31.875 11.75 Z " fill="#111111" transform="translate(306.3125,172.5625)"/><path d="M0 0 C2.08252 -0.165527 2.08252 -0.165527 5.867676 0.291504 C8.119796 2.357848 9.32531 3.761361 10.867676 6.291504 C11.069817 6.620698 11.069817 6.620698 12.092773 8.286621 C13.332971 10.391467 14.51376 12.519988 15.680176 14.666504 C15.883525 15.034531 15.883525 15.034531 16.912598 16.896973 C17.903358 18.691997 18.886336 20.491312 19.867676 22.291504 C15.365335 27.452206 10.361654 27.989627 3.867676 29.291504 C2.832559 29.499043 1.797441 29.706582 0.730957 29.92041 C-2.217966 30.460354 -5.160227 30.900979 -8.132324 31.291504 C-8.551914 31.357891 -8.551914 31.357891 -10.675293 31.693848 C-13.969629 32.008382 -16.137225 32.09943 -18.772949 29.959473 C-20.473816 27.833389 -21.787509 25.660773 -23.132324 23.291504 C-23.789746 22.207402 -24.447168 21.123301 -25.124512 20.006348 C-30.335753 11.082317 -30.335753 11.082317 -29.54248 7.998535 C-25.518448 3.127338 -16.533881 2.699761 -10.569824 1.604004 C-10.215936 1.538221 -10.215936 1.538221 -8.425049 1.205322 C-5.625436 0.723435 -2.813856 0.384674 0 0 Z M-11.444824 7.729004 C-12.159609 7.863711 -12.874395 7.998418 -13.61084 8.137207 C-18.84721 9.148947 -18.84721 9.148947 -21.132324 10.291504 C-20.747039 16.456065 -18.661464 20.277781 -15.132324 25.291504 C7.084139 24.07504 7.084139 24.07504 9.867676 21.291504 C10.730735 15.393929 8.20156 11.871496 4.867676 7.291504 C3.867676 6.291504 3.867676 6.291504 0.824707 6.13916 C-3.397475 6.301712 -7.312614 6.905626 -11.444824 7.729004 Z " fill="#111111" transform="translate(358.13232421875,272.70849609375)"/><path d="M0 0 C3.36247 3.60035 5.836729 7.763581 8.3125 12 C8.498447 12.301641 8.498447 12.301641 9.439453 13.828125 C11.145466 16.750904 12.044052 18.519898 11.730469 21.9375 C11.489414 22.618125 11.248359 23.29875 11 24 C-7.465961 28.772883 -7.465961 28.772883 -16 30 C-16.727031 30.154688 -17.454063 30.309375 -18.203125 30.46875 C-20.25 30.75 -20.25 30.75 -24 30 C-26.954575 27.026566 -28.930242 23.624484 -31 20 C-31.595547 19.019023 -32.191094 18.038047 -32.804688 17.027344 C-37.099864 9.674081 -37.099864 9.674081 -36.65625 6.679688 C-36.439687 6.125391 -36.223125 5.571094 -36 5 C-28.179302 2.786383 -20.343129 0.736668 -12.375 -0.875 C-11.083359 -1.140547 -9.791719 -1.406094 -8.460938 -1.679688 C-4.763351 -2.021902 -3.153425 -1.90497 0 0 Z M-28 9 C-27.534803 13.079047 -27.150585 16.439397 -24.9375 19.9375 C-24.617813 20.442813 -24.617813 20.442813 -23 23 C-13.854952 23.404118 -5.823657 22.426145 3 20 C3.178817 15.967964 3.002342 13.242727 1.0625 9.6875 C0.702852 9.010742 0.343203 8.333984 -0.027344 7.636719 C-1 6 -1 6 -2 5 C-10.913794 3.767026 -19.511145 6.640814 -28 9 Z " fill="#111111" transform="translate(311,285)"/><path d="M0 0 C3.99807 3.789475 6.44872 8.219695 8.875 13.125 C9.194687 13.732148 9.514375 14.339297 9.84375 14.964844 C11.078371 17.428718 11.998119 19.460172 12.007812 22.242188 C10.131512 25.514804 7.393389 26.607527 3.845215 27.606934 C1.301521 28.194885 -1.247266 28.70239 -3.8125 29.1875 C-4.676816 29.364746 -5.541133 29.541992 -6.431641 29.724609 C-11.718922 30.758123 -16.615079 31.181374 -22 31 C-23.652961 27.920437 -25.296102 24.835739 -26.9375 21.75 C-27.171787 21.313652 -27.171787 21.313652 -28.357422 19.105469 C-28.805371 18.261133 -29.25332 17.416797 -29.714844 16.546875 C-29.921698 16.159351 -29.921698 16.159351 -30.968506 14.198242 C-31.939284 12.129392 -32.535584 10.230973 -33 8 C-27.95313 4.05532 -23.308606 2.876423 -17.0625 1.75 C-16.194316 1.577266 -15.326133 1.404531 -14.431641 1.226562 C-4.443133 -0.67601 -4.443133 -0.67601 0 0 Z M-24 10 C-24.565611 15.656115 -22.713913 19.226421 -20 24 C-12.60575 24.246475 -3.751163 24.375582 3 21 C3.315491 15.741819 2.700163 12.536274 0 8 C-1.734192 6.265808 -4.012972 6.786432 -6.375 6.75 C-12.629889 6.779999 -18.087722 8.044759 -24 10 Z " fill="#111111" transform="translate(388,317)"/><path d="M0 0 C3.555866 3.693957 6.147465 8.198022 8.8125 12.5625 C9.23209 13.221855 9.65168 13.881211 10.083984 14.560547 C13.070331 19.455794 13.070331 19.455794 12.726318 22.117676 C11.551248 25.162983 9.969471 25.675676 7 27 C3.447988 27.926774 -0.133319 28.567842 -3.75 29.1875 C-4.701328 29.364746 -5.652656 29.541992 -6.632812 29.724609 C-18.999554 31.918435 -18.999554 31.918435 -24 31 C-25.980469 29.164062 -25.980469 29.164062 -27.1875 26.625 C-27.646406 25.716211 -28.105313 24.807422 -28.578125 23.871094 C-29.047344 22.923633 -29.516563 21.976172 -30 21 C-31.643959 18.426686 -33.314941 15.873335 -34.996094 13.324219 C-36 11 -36 11 -36.097656 8.394531 C-35 6 -35 6 -32.164062 4.328125 C-27.059946 2.478241 -21.712089 1.64403 -16.375 0.75 C-15.351484 0.564375 -14.327969 0.37875 -13.273438 0.1875 C-12.283437 0.017344 -11.293437 -0.152812 -10.273438 -0.328125 C-9.380601 -0.481846 -8.487764 -0.635566 -7.567871 -0.793945 C-4.785739 -1.017193 -2.675224 -0.783651 0 0 Z M-27 10 C-26.713363 15.637204 -26.209723 19.892954 -22 24 C-14.726344 25.594226 -2.575376 24.287688 4 21 C3.720083 15.681584 3.091012 11.524115 -0.3125 7.289062 C-3.122464 5.142562 -5.586913 5.314611 -9.023438 5.558594 C-24.915254 7.915254 -24.915254 7.915254 -27 10 Z " fill="#111111" transform="translate(335,329)"/><path d="M0 0 C5.867557 4.591398 10.218307 14.281279 13 21 C12.878906 23.265625 12.878906 23.265625 12 25 C7.095189 28.269874 1.362115 28.640864 -4.375 29.6875 C-5.607344 29.925332 -6.839688 30.163164 -8.109375 30.408203 C-9.297891 30.627988 -10.486406 30.847773 -11.710938 31.074219 C-12.253875 31.175209 -12.253875 31.175209 -15.001465 31.686279 C-18.023725 32.002482 -20.112588 31.919429 -23 31 C-26.833823 27.048214 -29.642382 22.634053 -32.375 17.875 C-32.742383 17.267852 -33.109766 16.660703 -33.488281 16.035156 C-34.88629 13.6137 -35.958134 11.572166 -36.164062 8.757812 C-33.341603 4.495709 -27.40907 3.791246 -22.714844 2.832031 C-20.790618 2.483487 -18.864768 2.14381 -16.9375 1.8125 C-16.453779 1.723877 -16.453779 1.723877 -14.005859 1.275391 C-3.994728 -0.499341 -3.994728 -0.499341 0 0 Z " fill="#111111" transform="translate(387,368)"/></svg>