<svg xmlns="http://www.w3.org/2000/svg" viewBox="0 0 512 512" width="512" height="512"><path d="M0 0 C0.386824 -0.001838 0.386824 -0.001838 2.344388 -0.011141 C4.939011 -0.022162 7.533593 -0.026019 10.128235 -0.029831 C11.987743 -0.036097 13.847251 -0.042744 15.706757 -0.049744 C21.815014 -0.070771 27.923272 -0.081144 34.031555 -0.09111 C36.135124 -0.095158 38.238693 -0.099275 40.342262 -0.10346 C50.22435 -0.122508 60.10643 -0.136741 69.988532 -0.145072 C81.393122 -0.154847 92.797517 -0.181173 104.202039 -0.221573 C113.019158 -0.251735 121.836222 -0.266541 130.653392 -0.269853 C135.918641 -0.272203 141.183682 -0.28116 146.448875 -0.306314 C151.403257 -0.329602 156.357296 -0.333826 161.311718 -0.323553 C163.127337 -0.323058 164.942974 -0.329376 166.758541 -0.343109 C169.243246 -0.360848 171.726719 -0.353713 174.211426 -0.340576 C174.56805 -0.346061 174.56805 -0.346061 176.372786 -0.373816 C182.309796 -0.298377 187.462888 1.547927 191.893769 5.523684 C197.203889 11.457818 197.667456 17.699823 197.773743 25.264359 C197.783426 25.692937 197.783426 25.692937 197.832428 27.861801 C197.891893 30.581825 197.938476 33.301893 197.98468 36.022171 C198.02289 37.873751 198.061944 39.725314 198.101868 41.576859 C198.197567 46.100155 198.281719 50.623535 198.35968 55.147171 C198.977499 55.37029 199.595317 55.593408 200.231857 55.823288 C227.836037 65.793507 255.43538 75.776075 282.98468 85.897171 C283.951386 86.252046 284.918093 86.606921 285.914093 86.972549 C290.528093 88.666932 295.139771 90.367111 299.747375 92.078812 C303.766564 93.569284 307.799077 95.01712 311.839172 96.449905 C313.999705 97.229061 316.160188 98.008355 318.320618 98.787796 C318.820477 98.961366 318.820477 98.961366 321.350067 99.839737 C328.595585 102.479091 333.911684 105.628176 338.35968 112.022171 C340.370881 118.307173 338.121892 124.458176 335.937805 130.455765 C335.812008 130.804572 335.812008 130.804572 335.1754 132.569748 C334.328354 134.911121 333.469086 137.247809 332.60968 139.584671 C331.98871 141.292376 331.368369 143.00031 330.748596 144.70845 C328.633088 150.526566 326.497887 156.337365 324.35968 162.147171 C323.97133 163.202712 323.58298 164.258253 323.182861 165.345779 C320.224338 173.384986 317.26099 181.422412 314.29718 189.459671 C311.126233 198.059916 307.956839 206.660732 304.7901 215.262527 C303.81882 217.900675 302.846912 220.538589 301.874573 223.176346 C299.133753 230.612894 296.399696 238.051839 293.681535 245.496703 C292.503998 248.721447 291.32325 251.944921 290.134064 255.16539 C288.818686 258.732897 287.51547 262.304622 286.215149 265.87764 C285.822488 266.934339 285.429828 267.991038 285.025269 269.079758 C281.649107 278.430526 281.649107 278.430526 282.35968 283.147171 C284.414368 285.647171 284.414368 285.647171 287.23468 288.147171 C306.822974 306.489948 317.904357 333.530085 319.35968 360.147171 C320.311835 389.414155 308.610566 416.858196 289.67218 438.772171 C270.496808 459.099839 243.393742 472.529821 215.35968 474.147171 C214.939446 474.173597 214.939446 474.173597 212.812805 474.307327 C202.407895 474.63787 191.101575 473.277692 181.146957 470.131911 C177.387737 469.154466 174.287024 468.894253 170.414856 468.888885 C169.752278 468.88521 169.089701 468.881534 168.407045 468.877747 C166.206281 468.867837 164.005772 468.871904 161.804993 468.875931 C160.219276 468.87154 158.633562 468.866236 157.047852 468.860092 C153.642482 468.848621 150.237175 468.843135 146.831787 468.842211 C141.444055 468.840265 136.05645 468.822185 130.668762 468.801453 C117.288996 468.752336 103.909196 468.721378 90.529358 468.70015 C80.125159 468.683619 69.721071 468.660792 59.316946 468.617129 C53.964074 468.595377 48.611412 468.587292 43.258499 468.589522 C39.925742 468.587852 36.593122 468.573788 33.260414 468.556309 C31.718529 468.55072 30.176615 468.550214 28.634727 468.555246 C26.524344 468.561411 24.414814 468.549116 22.304504 468.53244 C21.714955 468.531435 21.714955 468.531435 18.731476 468.526345 C14.167125 468.013063 10.132886 466.709659 6.617493 463.612015 C3.138234 458.921015 2.235205 456.847868 2.29718 451.022171 C2.306204 449.926468 2.315227 448.830765 2.324524 447.701859 C2.330325 447.280335 2.330325 447.280335 2.35968 445.147171 C-4.111431 446.650045 -10.183326 448.716471 -16.372742 451.112015 C-21.618125 453.0498 -26.476766 454.365166 -31.933289 452.264359 C-32.245886 452.059398 -32.245886 452.059398 -33.82782 451.022171 C-34.46075 450.627718 -35.093679 450.233265 -35.745789 449.826859 C-41.424324 444.79228 -43.437421 437.83395 -45.886414 430.87764 C-46.087887 430.316261 -46.087887 430.316261 -47.107468 427.475342 C-48.20758 424.406963 -49.300734 421.336206 -50.39135 418.264442 C-52.271362 412.979442 -54.172598 407.701995 -56.068939 402.422836 C-56.805346 400.371888 -57.540763 398.320587 -58.276062 396.269241 C-62.683707 383.981126 -67.196138 371.73266 -71.730682 359.490829 C-79.907413 337.412783 -87.929982 315.28334 -95.86681 293.118317 C-102.96406 273.29917 -110.150607 253.516953 -117.45282 233.772171 C-124.851563 213.765087 -132.173399 193.732831 -139.353699 173.646194 C-140.070209 171.64257 -140.786842 169.638988 -141.503601 167.635452 C-141.850278 166.666309 -142.196956 165.697166 -142.554138 164.698654 C-144.879267 158.217788 -147.266019 151.762128 -149.683289 145.31514 C-150.60801 142.829742 -151.531406 140.343856 -152.454285 137.857773 C-153.027215 136.325909 -153.606278 134.796322 -154.192078 133.269333 C-154.985845 131.20018 -155.758414 129.124206 -156.527039 127.045609 C-156.962339 125.897537 -157.397639 124.749466 -157.84613 123.566605 C-158.963684 118.754906 -158.649408 114.462139 -156.644226 109.862015 C-152.910917 105.258612 -148.683966 103.087729 -143.214539 101.080765 C-142.442249 100.788983 -141.66996 100.497202 -140.874268 100.196579 C-138.134213 99.167306 -135.387959 98.156016 -132.64032 97.147171 C-132.109594 96.95145 -132.109594 96.95145 -129.423798 95.960983 C-121.271541 92.957881 -113.108304 89.98541 -104.94289 87.018345 C-98.656995 84.733225 -92.373411 82.44175 -86.089539 80.151077 C-85.393479 79.897406 -84.69742 79.643734 -83.980268 79.382376 C-70.207207 74.362379 -56.450684 69.298304 -42.70282 64.209671 C-42.207719 64.026433 -42.207719 64.026433 -39.702209 63.099136 C-34.347574 61.11696 -28.9936 59.133006 -23.64032 57.147171 C-23.635647 56.516819 -23.635647 56.516819 -23.612 53.326859 C-23.571946 48.622568 -23.506145 43.918921 -23.4328 39.215042 C-23.404679 37.184202 -23.383421 35.153254 -23.369324 33.122269 C-23.347771 30.192512 -23.301058 27.264038 -23.249695 24.334671 C-23.248466 23.435389 -23.247238 22.536107 -23.245972 21.609573 C-23.092 14.892057 -21.638509 9.243985 -16.85907 4.307327 C-16.291882 3.945101 -15.724695 3.582874 -15.14032 3.209671 C-14.573132 2.829398 -14.005945 2.449124 -13.42157 2.057327 C-9.11762 -0.14184 -4.737664 -0.001209 0 0 Z M-12.64032 12.147171 C-12.906807 15.197922 -12.987891 18.043433 -12.933289 21.092484 C-12.929044 21.977495 -12.924799 22.862507 -12.920425 23.774338 C-12.903602 26.607255 -12.865944 29.439468 -12.82782 32.272171 C-12.812778 34.19013 -12.799088 36.108099 -12.786804 38.026077 C-12.753687 42.733381 -12.70188 47.440156 -12.64032 52.147171 C-6.591865 51.702161 -1.337964 50.628152 4.316711 48.459671 C4.671836 48.328388 4.671836 48.328388 6.468979 47.664017 C8.707077 46.834618 10.939685 45.99152 13.17218 45.147171 C15.423512 44.305723 17.675891 43.467165 19.92894 42.630325 C21.322516 42.111652 22.714926 41.589829 24.105972 41.064407 C27.161305 39.91771 30.165319 38.834022 33.35968 38.147171 C33.541438 37.376312 33.723196 36.605452 33.910461 35.811234 C34.036145 35.309788 34.036145 35.309788 34.67218 32.772171 C34.915813 31.774437 35.159446 30.776702 35.410461 29.748734 C36.35968 27.147171 36.35968 27.147171 39.35968 25.147171 C41.266563 24.895489 41.266563 24.895489 43.458679 24.893204 C44.291469 24.887564 45.124259 24.881924 45.982285 24.876114 C46.892509 24.880162 47.802733 24.884211 48.74054 24.888382 C49.701762 24.884877 50.662985 24.881373 51.653336 24.877762 C54.836773 24.868946 58.01999 24.874793 61.20343 24.881546 C63.41156 24.880199 65.619691 24.878259 67.82782 24.875748 C72.458098 24.872797 77.088298 24.877094 81.718567 24.886429 C87.660684 24.897823 93.602621 24.891264 99.544731 24.879284 C104.105116 24.872065 108.665459 24.874353 113.225845 24.879539 C115.41716 24.880876 117.608479 24.879229 119.799789 24.87458 C122.859572 24.869515 125.91906 24.877226 128.978821 24.888382 C129.433933 24.886358 129.433933 24.886358 131.737076 24.876114 C132.569866 24.881754 133.402655 24.887393 134.260681 24.893204 C134.984079 24.893958 135.707478 24.894712 136.452797 24.895489 C138.35968 25.147171 138.35968 25.147171 141.35968 27.147171 C142.097961 29.869827 142.097961 29.869827 142.67218 33.209671 C144.248228 40.48683 146.35081 46.329192 152.621399 50.737015 C157.705548 53.490596 162.599478 54.833097 168.32843 55.494827 C170.35968 56.147171 170.35968 56.147171 171.469229 57.683331 C172.730462 61.17311 172.6474 64.557442 172.638153 68.220963 C172.643945 69.041091 172.649738 69.861219 172.655706 70.706199 C172.672728 73.457722 172.675584 76.209077 172.678528 78.960648 C172.687824 80.93166 172.697993 82.902669 172.708969 84.873672 C172.736313 90.228628 172.751432 95.583558 172.764397 100.938565 C172.780009 106.533339 172.806805 112.128058 172.832428 117.722794 C172.879251 128.319098 172.915978 138.915412 172.949101 149.511766 C172.987297 161.574541 173.036714 173.637261 173.087085 185.69999 C173.190457 210.515677 173.279701 235.331398 173.35968 260.147171 C178.328847 259.633119 182.649944 258.913322 187.35968 257.147171 C187.428088 226.258507 187.481194 195.369863 187.512876 164.481141 C187.516628 160.836126 187.520511 157.191111 187.524475 153.546097 C187.525262 152.820427 187.526049 152.094757 187.52686 151.347096 C187.539921 139.590397 187.563579 127.833741 187.591139 116.077068 C187.619173 104.017559 187.635852 91.958073 187.641946 79.898533 C187.645696 73.123214 187.654732 66.347987 187.67687 59.572701 C187.697179 53.200147 187.703525 46.827735 187.699003 40.455153 C187.699831 38.112167 187.70583 35.769176 187.717297 33.426218 C187.732153 30.235106 187.728659 27.044532 187.720444 23.853409 C187.729182 22.91956 187.737921 21.985711 187.746924 21.023563 C187.722594 17.543215 187.629651 14.81519 186.31873 11.571436 C183.294285 9.37261 180.249751 9.602983 176.654114 9.652695 C175.861458 9.647866 175.068802 9.643037 174.252127 9.638062 C171.587125 9.62676 168.923077 9.644133 166.258118 9.661331 C164.351234 9.659186 162.444352 9.65531 160.537476 9.649826 C155.351539 9.640114 150.165945 9.655459 144.980049 9.675732 C139.56021 9.69327 134.140382 9.689779 128.72052 9.689011 C119.61776 9.690885 110.515132 9.708268 101.412415 9.73555 C90.879263 9.767002 80.346258 9.777546 69.813063 9.776079 C59.69229 9.774859 49.571564 9.785062 39.450806 9.801662 C35.138261 9.808734 30.825734 9.81239 26.513184 9.81345 C21.437402 9.815455 16.361744 9.827637 11.286003 9.847782 C9.419927 9.853636 7.553837 9.856082 5.687752 9.854927 C3.146785 9.853949 0.606165 9.865221 -1.934753 9.879745 C-2.678813 9.876648 -3.422872 9.873551 -4.189478 9.87036 C-7.892985 9.905488 -9.473618 10.036037 -12.64032 12.147171 Z M43.35968 34.147171 C43.35968 42.757865 43.35968 42.757865 47.35968 47.147171 C48.590836 49.829224 48.590836 49.829224 49.630432 52.753372 C50.027972 53.8561 50.425512 54.958827 50.835098 56.094971 C51.043471 56.688174 51.043471 56.688174 52.097961 59.69014 C52.776694 61.582654 53.455428 63.475168 54.134273 65.367642 C55.082517 68.018956 56.021732 70.673434 56.961121 73.327896 C58.810724 78.547904 60.677674 83.761758 62.543026 88.976154 C63.21849 90.865135 63.892742 92.75455 64.566986 94.643967 C67.993646 104.214537 71.585109 113.708749 75.35968 123.147171 C75.98696 123.161864 76.61424 123.176558 77.260529 123.191696 C98.727553 123.717515 116.887521 127.588071 132.699524 143.256546 C136.644909 147.543748 139.622827 152.018323 142.35968 157.147171 C142.594934 157.571917 142.594934 157.571917 143.785461 159.72139 C150.828803 173.621082 151.858717 188.73994 147.73468 203.647171 C143.179763 217.149248 135.826997 229.373004 123.73468 237.334671 C120.690992 239.5202 120.435548 239.81452 119.54718 243.709671 C120.35968 248.147171 120.35968 248.147171 125.35968 261.147171 C137.89968 261.147171 150.43968 261.147171 163.35968 261.147171 C163.35968 196.137171 163.35968 131.127171 163.35968 64.147171 C158.07968 61.507171 152.79968 58.867171 147.35968 56.147171 C139.90684 50.140404 136.861588 42.901941 133.35968 34.147171 C103.65968 34.147171 73.95968 34.147171 43.35968 34.147171 Z M24.641174 48.988724 C24.085699 49.191852 24.085699 49.191852 21.274658 50.219803 C20.076817 50.66892 18.878976 51.118038 17.644836 51.580765 C16.370197 52.050678 15.095225 52.519693 13.819946 52.987869 C11.101345 53.98791 8.385026 54.993836 5.67038 56.004562 C1.386327 57.59952 -2.902499 59.181334 -7.192322 60.760696 C-11.53998 62.36194 -15.887397 63.963813 -20.233139 65.570251 C-31.637387 69.78552 -43.061704 73.943195 -54.499939 78.065414 C-59.188356 79.755266 -63.875189 81.449504 -68.562195 83.143265 C-69.470178 83.471286 -70.378162 83.799307 -71.31366 84.137268 C-88.001018 90.166643 -104.679216 96.221067 -121.345154 102.309402 C-123.515274 103.101528 -125.686076 103.891752 -127.857117 104.681351 C-131.350664 105.95268 -134.839758 107.235862 -138.32782 108.522171 C-139.295825 108.873441 -140.263831 109.22471 -141.261169 109.586624 C-142.112031 109.903089 -142.962893 110.219554 -143.839539 110.545609 C-144.559722 110.81035 -145.279905 111.075091 -146.021912 111.347855 C-147.64032 112.147171 -147.64032 112.147171 -148.64032 114.147171 C-149.365138 121.647349 -147.059385 127.579224 -144.460632 134.549515 C-144.02149 135.758313 -143.582348 136.967111 -143.129898 138.21254 C-141.938077 141.492301 -140.730585 144.766086 -139.520061 148.038982 C-138.246833 151.490003 -136.988494 154.946445 -135.728455 158.402298 C-133.185355 165.369547 -130.625796 172.330649 -128.061157 179.289993 C-126.004809 184.870424 -123.957789 190.454275 -121.909851 196.037796 C-119.742041 201.945256 -117.572143 207.85193 -115.395935 213.756302 C-109.193589 230.590014 -103.090827 247.459043 -96.996918 264.33226 C-90.491374 282.339082 -83.906004 300.314788 -77.26532 318.272171 C-68.608585 341.682839 -60.125657 365.152861 -51.71698 388.653519 C-49.26611 395.502901 -46.808288 402.34976 -44.343369 409.194099 C-43.605188 411.244767 -42.868198 413.29586 -42.131165 415.346939 C-40.866206 418.864589 -39.594707 422.379818 -38.318821 425.893518 C-37.833697 427.232185 -37.350499 428.571552 -36.86932 429.911642 C-36.204702 431.761353 -35.532318 433.608267 -34.859558 435.455032 C-34.478409 436.508463 -34.097259 437.561894 -33.704559 438.647247 C-32.64032 441.147171 -32.64032 441.147171 -30.64032 443.147171 C-23.089307 444.360843 -16.228313 442.196707 -9.20282 439.647171 C-8.223777 439.33264 -7.244734 439.018109 -6.236023 438.694046 C0.609493 436.247539 0.609493 436.247539 2.675598 433.216995 C4.382424 428.872988 4.733662 424.821946 4.35968 420.147171 C4.02968 419.487171 3.69968 418.827171 3.35968 418.147171 C3.256381 416.04389 3.176422 413.939429 3.10968 411.834671 C2.654465 405.572007 2.654465 405.572007 0.23468 402.084671 C-0.71407 401.445296 -1.66282 400.805921 -2.64032 400.147171 C-3.632898 399.445921 -4.625476 398.744671 -5.648132 398.022171 C-11.143657 394.900927 -17.166223 396.005141 -23.253601 396.391312 C-24.159812 396.425472 -25.066023 396.459632 -25.999695 396.494827 C-26.819216 396.54647 -27.638738 396.598113 -28.483093 396.651321 C-30.64032 396.147171 -30.64032 396.147171 -32.154205 393.927368 C-33.526838 391.359472 -34.596123 388.8978 -35.575378 386.159866 C-35.75202 385.670279 -35.75202 385.670279 -36.645935 383.192673 C-37.023066 382.130938 -37.400198 381.069204 -37.788757 379.975296 C-38.19312 378.851123 -38.597483 377.726949 -39.014099 376.56871 C-40.120431 373.491405 -41.222316 370.412548 -42.322685 367.333107 C-44.216586 362.039593 -46.124347 356.751043 -48.030018 351.461758 C-48.522434 350.094845 -49.014658 348.727862 -49.506695 347.360813 C-54.180013 334.377584 -58.941993 321.428079 -63.732513 308.487625 C-71.96727 286.241733 -80.055101 263.947257 -88.055397 241.61631 C-94.928088 222.433044 -101.852821 203.270813 -108.89032 184.147171 C-109.269173 183.117613 -109.648027 182.088055 -110.038361 181.027298 C-111.694135 176.529972 -113.3516 172.033272 -115.01239 167.537796 C-115.281361 166.802386 -115.550332 166.066976 -115.827454 165.30928 C-116.378739 163.84294 -116.955141 162.385844 -117.553772 160.938187 C-120.07554 154.745246 -120.07554 154.745246 -118.64032 151.147171 C-115.909851 149.506546 -115.909851 149.506546 -112.45282 147.897171 C-105.511484 144.361737 -101.131179 140.619749 -98.64032 133.147171 C-98.593252 131.627064 -98.602077 130.104809 -98.648132 128.584671 C-98.66489 127.70553 -98.681648 126.82639 -98.698914 125.920609 C-98.743189 124.071447 -98.795275 122.222456 -98.855164 120.373734 C-98.869343 119.494593 -98.883523 118.615452 -98.898132 117.709671 C-98.920208 116.906585 -98.942283 116.103499 -98.965027 115.276077 C-98.545827 112.527637 -97.764067 111.912192 -95.64032 110.147171 C-93.299713 109.069916 -93.299713 109.069916 -90.499207 108.06929 C-89.443681 107.687441 -88.388155 107.305591 -87.300644 106.91217 C-86.726339 106.709246 -86.726339 106.709246 -83.820007 105.682327 C-82.624709 105.252269 -81.429411 104.82221 -80.197891 104.37912 C-76.972582 103.218742 -73.743712 102.068608 -70.513912 100.920799 C-67.190063 99.738125 -63.868985 98.547724 -60.547791 97.35762 C-59.223045 96.882989 -57.898293 96.40838 -56.573532 95.933792 C-55.920707 95.699918 -55.267882 95.466044 -54.595274 95.225082 C-52.622756 94.518969 -50.649783 93.81414 -48.676712 93.109573 C-41.307937 90.476309 -33.956701 87.801803 -26.628601 85.057327 C-25.089064 84.483642 -23.549514 83.909991 -22.009949 83.33638 C-19.941035 82.564897 -17.873949 81.789803 -15.811401 81.00145 C-13.981107 80.302278 -12.144858 79.618751 -10.308289 78.936234 C-9.321108 78.561922 -8.333928 78.18761 -7.316833 77.801956 C-4.322773 77.069486 -2.557226 77.200693 0.35968 78.147171 C1.914368 80.00264 1.914368 80.00264 3.23468 82.334671 C7.332668 88.933483 11.68635 93.233248 19.35968 95.147171 C22.657048 95.373091 25.93167 95.336838 29.23468 95.272171 C29.67425 95.267659 29.67425 95.267659 31.898743 95.244827 C34.052507 95.221417 36.20613 95.185551 38.35968 95.147171 C41.939585 101.860068 44.513139 108.758071 47.043274 115.924515 C47.495172 117.192015 47.947594 118.459329 48.400497 119.726471 C49.366665 122.431982 50.330029 125.138467 51.291138 127.845779 C53.859803 135.07971 56.448153 142.306611 59.035461 149.53389 C59.167219 149.90217 59.167219 149.90217 59.833992 151.765888 C65.289722 167.011537 70.866418 182.210694 76.48468 197.397171 C78.201264 202.037634 79.917634 206.678176 81.633118 211.319046 C81.835543 211.866658 81.835543 211.866658 82.85994 214.637909 C87.220991 226.452924 91.492398 238.30023 95.719543 250.163773 C95.84202 250.505928 95.84202 250.505928 96.461823 252.237442 C97.105353 254.03537 97.745832 255.834388 98.386047 257.633499 C99.35968 260.147171 99.35968 260.147171 100.35968 261.147171 C102.712816 261.219888 105.068017 261.23088 107.42218 261.209671 C108.712532 261.200648 110.002883 261.191624 111.332336 261.182327 C112.33136 261.170726 113.330383 261.159124 114.35968 261.147171 C114.91691 254.508145 112.932961 249.395222 110.574524 243.244827 C110.171294 242.164548 109.768064 241.084268 109.352615 239.971252 C108.473764 237.619785 107.589842 235.270208 106.701477 232.922318 C104.52452 227.166931 102.37862 221.400028 100.231113 215.633602 C99.473443 213.600154 98.714441 211.567206 97.955353 209.534286 C92.702456 195.451454 87.633752 181.303882 82.57571 167.150162 C74.002496 143.167833 65.291468 119.240035 56.447571 95.356155 C56.04355 94.264189 55.63953 93.172222 55.223267 92.047165 C54.432998 89.9127 53.641325 87.778755 52.848145 85.64537 C50.811903 80.151876 48.82527 74.645558 46.901672 69.111526 C46.499918 67.964699 46.098163 66.817871 45.684235 65.636292 C44.920006 63.447783 44.16509 61.255992 43.421112 59.060516 C43.077768 58.08034 42.734424 57.100164 42.380676 56.090286 C42.085833 55.229751 41.790991 54.369217 41.487213 53.482605 C40.119913 50.650547 38.880523 49.042892 36.35968 47.147171 C32.015084 46.598805 28.703573 47.483113 24.641174 48.988724 Z M197.35968 66.147171 C197.35968 71.097171 197.35968 76.047171 197.35968 81.147171 C218.071087 88.800347 238.795913 96.415161 259.54718 103.959671 C260.519415 104.313277 261.49165 104.666883 262.493347 105.031204 C265.254577 106.035267 268.016051 107.038654 270.777649 108.041702 C271.604094 108.342119 272.430539 108.642536 273.282028 108.952057 C274.041372 109.227609 274.800715 109.503161 275.583069 109.787064 C276.243447 110.026854 276.903824 110.266645 277.584213 110.513702 C279.168748 111.079048 280.763644 111.615159 282.35968 112.147171 C282.306184 112.702757 282.306184 112.702757 282.035461 115.514359 C281.175808 125.583287 280.517005 134.510256 286.98468 142.959671 C290.013591 146.209837 293.497089 148.063063 297.504211 149.90889 C299.35968 151.147171 299.35968 151.147171 300.084641 152.878372 C300.452698 155.914477 299.678324 157.821192 298.615784 160.686234 C298.206345 161.806711 297.796907 162.927188 297.375061 164.081619 C297.146293 164.69056 297.146293 164.69056 295.988586 167.772171 C295.513666 169.059618 295.039728 170.347427 294.566711 171.635574 C293.556055 174.381763 292.538763 177.125363 291.516205 179.867142 C289.918894 184.150807 288.338047 188.440427 286.759827 192.731155 C282.758387 203.601193 278.72936 214.46096 274.695618 225.319046 C272.774208 230.491889 270.862187 235.668107 268.956818 240.846878 C267.941456 243.595 266.912787 246.337886 265.883362 249.080765 C265.271939 250.738072 264.66114 252.395609 264.051086 254.053421 C263.774099 254.779767 263.497112 255.506114 263.211731 256.254471 C261.554979 260.812567 261.091892 264.380614 261.35968 269.147171 C262.39093 269.807171 263.42218 270.467171 264.48468 271.147171 C264.774719 271.332796 264.774719 271.332796 266.242493 272.272171 C269.008834 273.415456 271.392419 273.203758 274.35968 273.147171 C274.582799 272.529353 274.805917 271.911534 275.035797 271.274994 C284.495933 245.083064 293.956179 218.89145 303.574158 192.756973 C304.670392 189.777032 305.764796 186.796424 306.858704 183.815628 C310.174987 174.782831 313.50188 165.754425 316.866867 156.739639 C318.386432 152.662519 319.895851 148.581687 321.403473 144.500137 C322.115394 142.580447 322.831934 140.662463 323.553436 138.746353 C324.544992 136.112058 325.520414 133.472298 326.492493 130.830765 C326.785256 130.065369 327.078019 129.299973 327.379654 128.511383 C329.1919 123.520878 329.894679 119.464745 329.35968 114.147171 C327.173815 111.250417 324.687969 110.312745 321.324036 109.120316 C320.284956 108.747122 319.245876 108.373928 318.175308 107.989426 C317.606316 107.789868 317.606316 107.789868 314.726868 106.779984 C312.891141 106.123928 311.055417 105.467868 309.219758 104.811625 C307.2518 104.109833 305.282425 103.412162 303.312592 102.715652 C297.110983 100.522439 290.91843 98.303871 284.725 96.087692 C282.582329 95.321267 280.439299 94.555848 278.296249 93.790482 C262.052481 87.984342 245.873624 82.003885 229.695312 76.018326 C227.323632 75.14091 224.951855 74.263753 222.579971 73.386887 C220.44359 72.596851 218.307566 71.805845 216.171982 71.013657 C213.570444 70.050973 210.965633 69.097819 208.35968 68.147171 C207.247783 67.734349 206.135886 67.321526 204.990295 66.896194 C202.35968 66.147171 202.35968 66.147171 197.35968 66.147171 Z M-15.204773 88.947952 C-15.739633 89.145259 -15.739633 89.145259 -18.44635 90.143753 C-19.019761 90.36088 -19.019761 90.36088 -21.92157 91.459671 C-23.126078 91.906815 -24.330586 92.353958 -25.571594 92.814651 C-28.781968 94.006442 -31.987913 95.209721 -35.192993 96.415665 C-38.372257 97.609944 -41.555165 98.794415 -44.737976 99.979202 C-48.470462 101.369167 -52.202479 102.760357 -55.933044 104.155472 C-66.810299 108.222511 -77.717059 112.205549 -88.64032 116.147171 C-88.675688 117.195904 -88.711057 118.244637 -88.747498 119.32515 C-89.188695 130.745756 -91.297228 140.767726 -99.64032 149.147171 C-102.004462 150.714237 -104.362492 152.130735 -106.882507 153.432327 C-108.64032 155.147171 -108.64032 155.147171 -108.997742 158.026321 C-108.840986 163.587422 -106.603312 168.643883 -104.679382 173.795609 C-104.470932 174.367353 -104.470932 174.367353 -103.416046 177.260727 C-102.280039 180.369921 -101.134203 183.475143 -99.983826 186.579025 C-98.771203 189.858474 -97.571709 193.14272 -96.370789 196.426468 C-94.167172 202.44613 -91.952836 208.461777 -89.733021 214.475483 C-87.474118 220.59538 -85.224255 226.718574 -82.976257 232.842484 C-80.802105 238.763766 -78.626978 244.684678 -76.446716 250.603714 C-70.681115 266.263554 -64.997041 281.952219 -59.32782 297.647171 C-52.144143 317.53146 -44.903796 337.393883 -37.595493 357.232651 C-36.893023 359.139831 -36.190992 361.047172 -35.489044 362.954544 C-34.19196 366.477623 -32.893105 370.000042 -31.593445 373.522171 C-31.205966 374.574409 -30.818487 375.626646 -30.419266 376.71077 C-30.065856 377.666891 -29.712447 378.623013 -29.348328 379.608109 C-29.040826 380.441326 -28.733324 381.274544 -28.416504 382.133011 C-27.64032 384.147171 -27.64032 384.147171 -26.64032 386.147171 C-24.481425 386.381447 -22.31054 386.508157 -20.14032 386.584671 C-14.834686 386.875538 -10.545816 387.612935 -5.616882 389.514359 C-2.547102 390.497174 0.162928 390.351219 3.35968 390.147171 C4.854669 387.157193 4.475455 384.446743 4.35968 381.147171 C4.19468 380.652171 4.19468 380.652171 3.35968 378.147171 C3.264926 376.117649 3.228958 374.085152 3.226868 372.053421 C3.225579 370.85846 3.22429 369.663499 3.222961 368.432327 C3.226829 367.183226 3.230696 365.934124 3.23468 364.647171 C3.230813 363.398069 3.226946 362.148968 3.222961 360.862015 C3.22425 359.667054 3.22554 358.472093 3.226868 357.240921 C3.227996 356.144573 3.229124 355.048226 3.230286 353.918655 C3.35968 351.147171 3.35968 351.147171 4.35968 348.147171 C4.589188 341.606187 4.589188 341.606187 3.35968 339.147171 C3.262292 337.065644 3.228912 334.980974 3.226868 332.897171 C3.225579 331.649359 3.22429 330.401546 3.222961 329.115921 C3.226829 327.806234 3.230696 326.496546 3.23468 325.147171 C3.230813 323.837484 3.226946 322.527796 3.222961 321.178421 C3.22425 319.930609 3.22554 318.682796 3.226868 317.397171 C3.227996 316.247327 3.229124 315.097484 3.230286 313.912796 C3.35968 311.147171 3.35968 311.147171 4.35968 309.147171 C4.48468 305.584671 4.48468 305.584671 4.35968 302.147171 C2.537607 300.325098 -0.071531 300.594885 -2.519226 300.247513 C-20.292666 297.688836 -36.51065 290.413573 -48.027039 276.201859 C-53.346399 269.079935 -56.98874 261.647824 -59.64032 253.147171 C-59.885242 252.380179 -60.130164 251.613187 -60.382507 250.822952 C-64.508061 235.535797 -60.811633 220.091881 -53.593445 206.444046 C-44.391925 190.91188 -30.961781 180.863883 -13.648132 175.873734 C2.810345 171.898049 18.7903 174.679999 33.332336 183.182327 C48.187714 192.823947 58.833878 206.341654 62.76593 223.851028 C64.85488 234.050981 64.454619 241.641359 62.01593 251.779984 C61.35968 255.147171 61.35968 255.147171 61.35968 261.147171 C70.59968 261.147171 79.83968 261.147171 89.35968 261.147171 C88.234658 252.146994 88.234658 252.146994 86.651672 247.81929 C86.474983 247.329895 86.474983 247.329895 85.580826 244.853256 C85.193316 243.80685 84.805807 242.760443 84.406555 241.682327 C83.998864 240.560994 83.591173 239.439661 83.171127 238.284348 C82.057734 235.227538 80.936846 232.17361 79.81242 229.120846 C78.626249 225.894929 77.449817 222.665463 76.272034 219.436478 C73.558876 212.004801 70.830265 204.578848 68.098091 197.154144 C67.134006 194.533796 66.170736 191.913149 65.207456 189.292505 C60.933621 177.665958 56.651635 166.042431 52.360916 154.422104 C46.304018 138.017523 40.306154 121.59209 34.35968 105.147171 C33.209353 105.033975 32.059026 104.920779 30.87384 104.804153 C29.34042 104.64166 27.807057 104.478627 26.273743 104.31514 C25.896088 104.278704 25.896088 104.278704 23.984924 104.094315 C13.548655 102.952583 4.984223 98.338597 -1.64032 90.147171 C-1.97032 89.652171 -1.97032 89.652171 -3.64032 87.147171 C-7.930045 86.683712 -11.202722 87.451093 -15.204773 88.947952 Z M197.35968 92.147171 C197.35968 122.837171 197.35968 153.527171 197.35968 185.147171 C199.50468 186.302171 199.50468 186.302171 210.35968 192.147171 C218.486882 198.16861 224.588877 205.219502 229.35968 214.147171 C229.830188 214.985062 230.300696 215.822952 230.785461 216.686234 C237.48562 229.770318 237.958637 243.83362 236.35968 258.147171 C237.895552 258.827082 239.438735 259.490486 240.98468 260.147171 C241.413938 260.332796 241.413938 260.332796 243.586243 261.272171 C246.653309 262.239809 249.162849 262.20902 252.35968 262.147171 C257.466454 250.594756 261.558185 238.661482 265.79718 226.772171 C267.395146 222.297389 268.995403 217.823435 270.597961 213.350296 C270.99743 212.235166 271.396898 211.120037 271.808472 209.971115 C274.365014 202.856217 276.981767 195.766755 279.652649 188.694046 C279.982181 187.817554 280.311712 186.941062 280.65123 186.03801 C282.184183 181.961174 283.728499 177.889463 285.294983 173.825394 C285.840597 172.378195 286.385635 170.93078 286.929993 169.483109 C287.165972 168.867178 287.165972 168.867178 288.360168 165.750198 C289.520426 161.567716 289.653158 158.466144 289.35968 154.147171 C287.820618 152.404984 287.820618 152.404984 285.73468 151.272171 C278.904513 146.839829 275.573774 139.812812 273.35968 132.147171 C273.0762 129.499573 272.858038 126.924357 272.73468 124.272171 C272.696008 123.583812 272.657336 122.895452 272.617493 122.186234 C272.524199 120.506939 272.440898 118.827093 272.35968 117.147171 C271.657478 116.892964 270.955277 116.638757 270.231796 116.376846 C263.56878 113.964722 256.905791 111.552522 250.242831 109.14024 C246.818498 107.900484 243.394155 106.660757 239.969788 105.421097 C236.656462 104.221634 233.343165 103.022093 230.029886 101.822502 C228.169596 101.148996 226.309278 100.475566 224.448959 99.802139 C223.288587 99.382006 222.128214 98.961872 220.932678 98.529007 C219.823309 98.130002 218.71394 97.730997 217.570953 97.319901 C215.462857 96.550042 213.361998 95.760005 211.269745 94.948074 C210.314338 94.580974 209.358931 94.213873 208.374573 93.835648 C207.547423 93.509374 206.720273 93.1831 205.868057 92.846939 C203.35968 92.147171 203.35968 92.147171 197.35968 92.147171 Z M80.35968 133.147171 C80.916813 137.819066 81.826447 141.967112 83.425842 146.388382 C83.853967 147.582034 84.282092 148.775685 84.72319 150.005508 C85.194303 151.297581 85.665586 152.589592 86.137024 153.881546 C86.627859 155.241555 87.118127 156.601769 87.607864 157.962173 C88.901686 161.550982 90.203732 165.136754 91.507385 168.722 C92.540414 171.567061 93.567757 174.414156 94.594732 177.261406 C101.086468 195.25925 107.682222 213.217393 114.35968 231.147171 C119.08349 231.346084 120.702433 230.556577 124.23468 227.334671 C134.072362 217.96545 140.38248 205.827972 141.35968 192.147171 C141.422844 191.313148 141.486008 190.479124 141.551086 189.619827 C142.16646 174.83101 137.741323 161.276022 128.17218 150.022171 C117.543318 138.689411 105.689716 133.625702 90.35968 132.147171 C86.806296 132.061547 83.766694 132.098859 80.35968 133.147171 Z M-40.64032 201.147171 C-51.804913 214.662204 -53.902526 230.245023 -52.64032 247.147171 C-50.108628 260.837568 -43.029703 272.644158 -31.999695 281.194046 C-22.832426 287.32302 -13.05158 291.202908 -1.960632 291.162796 C-1.151262 291.16054 -0.341892 291.158284 0.492004 291.15596 C0.800171 291.15451 0.800171 291.15451 2.35968 291.147171 C2.372571 290.496194 2.372571 290.496194 2.437805 287.201859 C2.494107 285.475263 2.551454 283.748702 2.60968 282.022171 C2.62386 281.166234 2.63804 280.310296 2.652649 279.428421 C2.866258 273.874595 3.678268 270.560722 7.35968 266.147171 C12.040168 262.034015 16.528752 261.960635 22.527649 261.830765 C23.322462 261.809984 24.117274 261.789203 24.936172 261.767792 C27.473088 261.70245 30.010106 261.643483 32.54718 261.584671 C34.267894 261.541471 35.988597 261.497856 37.70929 261.453812 C41.925981 261.346785 46.142776 261.245474 50.35968 261.147171 C57.13023 245.545469 56.800901 230.117069 51.35968 214.147171 C49.691181 210.512054 47.752204 207.346811 45.35968 204.147171 C44.835032 203.442054 44.310383 202.736937 43.769836 202.010452 C35.24734 191.482663 22.796156 184.816087 9.35968 183.147171 C-10.499716 182.035558 -26.609135 186.325497 -40.64032 201.147171 Z M197.35968 196.147171 C197.35968 215.617171 197.35968 235.087171 197.35968 255.147171 C207.25968 255.147171 217.15968 255.147171 227.35968 255.147171 C229.552818 239.795207 227.864228 225.495614 219.35968 212.147171 C214.794009 206.177979 209.200833 199.567748 202.35968 196.147171 C200.70968 196.147171 199.05968 196.147171 197.35968 196.147171 Z M135.51593 295.643265 C117.695533 314.361772 109.75694 339.276166 109.10968 364.709671 C109.733885 389.053669 117.052892 411.738468 133.35968 430.147171 C133.886907 430.816194 134.414133 431.485218 134.957336 432.174515 C142.709822 441.793692 153.365452 448.763233 164.35968 454.147171 C165.194993 454.586741 166.030305 455.026312 166.89093 455.479202 C189.641126 466.820038 218.582132 466.936664 242.388245 459.309769 C266.911164 450.958126 286.042722 433.90941 298.726868 411.490921 C303.184461 402.362452 306.797747 392.208452 308.35968 382.147171 C308.46925 381.507796 308.578821 380.868421 308.691711 380.209671 C312.39764 354.119936 306.528216 327.317296 291.594055 305.576859 C274.985758 283.87442 252.599083 269.256075 225.35968 265.147171 C191.280808 260.851942 159.701751 271.025554 135.51593 295.643265 Z M12.35968 271.147171 C12.35968 280.717171 12.35968 290.287171 12.35968 300.147171 C13.905548 301.693038 15.355003 301.285719 17.508423 301.301071 C18.402886 301.309672 19.29735 301.318272 20.218918 301.327133 C21.207996 301.331393 22.197075 301.335653 23.216125 301.340042 C24.251872 301.34822 25.287619 301.356397 26.354752 301.364822 C29.799097 301.389734 33.243401 301.406208 36.687805 301.420609 C37.274468 301.42327 37.274468 301.42327 40.24334 301.436741 C46.454151 301.463498 52.664942 301.482864 58.875793 301.497269 C65.299975 301.513918 71.723645 301.558692 78.147633 301.60964 C83.07868 301.643257 88.009606 301.65484 92.940758 301.660496 C95.309089 301.667224 97.677411 301.682487 100.045631 301.706387 C103.359401 301.737918 106.671777 301.738092 109.985657 301.730667 C110.966638 301.747072 111.94762 301.763478 112.958328 301.78038 C117.608229 301.737675 119.655621 301.706229 123.397217 298.735214 C124.04483 297.88116 124.692443 297.027106 125.35968 296.147171 C125.944915 295.489749 126.530149 294.832327 127.133118 294.154984 C127.661633 293.533655 128.190149 292.912327 128.73468 292.272171 C133.20242 287.137171 137.550796 282.233618 143.29718 278.522171 C143.802493 278.130296 143.802493 278.130296 146.35968 276.147171 C146.35968 274.497171 146.35968 272.847171 146.35968 271.147171 C102.13968 271.147171 57.91968 271.147171 12.35968 271.147171 Z M12.35968 311.147171 C12.35968 320.717171 12.35968 330.287171 12.35968 340.147171 C42.38968 340.147171 72.41968 340.147171 103.35968 340.147171 C105.33968 334.207171 107.31968 328.267171 109.35968 322.147171 C110.34968 320.167171 111.33968 318.187171 112.35968 316.147171 C112.35968 314.497171 112.35968 312.847171 112.35968 311.147171 C79.35968 311.147171 46.35968 311.147171 12.35968 311.147171 Z M12.35968 350.147171 C12.35968 359.717171 12.35968 369.287171 12.35968 379.147171 C41.39968 379.147171 70.43968 379.147171 100.35968 379.147171 C100.35968 369.577171 100.35968 360.007171 100.35968 350.147171 C71.31968 350.147171 42.27968 350.147171 12.35968 350.147171 Z M12.35968 389.147171 C12.35968 398.717171 12.35968 408.287171 12.35968 418.147171 C45.35968 418.147171 78.35968 418.147171 112.35968 418.147171 C111.577207 412.669857 110.547505 408.590971 108.42218 403.647171 C106.388064 398.846458 104.803323 394.19992 103.35968 389.147171 C73.32968 389.147171 43.29968 389.147171 12.35968 389.147171 Z M12.35968 429.147171 C12.259745 431.207724 12.228871 433.271697 12.226868 435.334671 C12.225579 436.590218 12.22429 437.845765 12.222961 439.139359 C12.225056 439.796458 12.227151 440.453558 12.229309 441.130569 C12.234658 443.138784 12.229363 445.146776 12.222961 447.154984 C12.22425 448.41053 12.22554 449.666077 12.226868 450.959671 C12.227996 452.121116 12.229124 453.282562 12.230286 454.479202 C12.35968 457.147171 12.35968 457.147171 13.35968 458.147171 C15.093276 458.243442 16.830827 458.269047 18.567093 458.267426 C19.695964 458.2688 20.824836 458.270175 21.987915 458.271591 C23.237319 458.267996 24.486722 458.264401 25.773987 458.260696 C27.081111 458.260842 28.388236 458.260988 29.73497 458.261139 C33.329851 458.261427 36.924699 458.25553 40.519572 458.248565 C44.272543 458.242331 48.025514 458.241728 51.778488 458.24054 C58.889988 458.237426 66.001473 458.229213 73.112967 458.21919 C81.207151 458.208029 89.301335 458.202518 97.395525 458.197495 C114.050252 458.18703 130.704964 458.169431 147.35968 458.147171 C147.470032 455.760696 147.470032 455.760696 147.35968 453.147171 C145.594055 451.330765 145.594055 451.330765 143.10968 449.584671 C138.732503 446.304906 134.82711 442.833664 130.98468 438.959671 C130.485491 438.460723 129.986301 437.961776 129.471985 437.447708 C127.278278 435.223307 125.404725 433.225449 123.840195 430.506638 C119.975096 426.830154 116.153028 427.478743 111.007385 427.563675 C109.955022 427.561339 108.902658 427.559002 107.818405 427.556595 C104.33817 427.554979 100.859258 427.589022 97.379211 427.623734 C94.965942 427.630521 92.552666 427.635244 90.139389 427.637985 C85.082822 427.648668 80.026697 427.675384 74.970276 427.715042 C68.47313 427.765991 61.976237 427.791062 55.478917 427.805979 C49.299813 427.820735 43.120769 427.845988 36.941711 427.873734 C35.754569 427.878644 34.567426 427.883555 33.344309 427.888615 C30.004069 427.904813 26.663967 427.928214 23.323792 427.9543 C22.823791 427.95643 22.823791 427.95643 20.293488 427.967209 C19.389165 427.975809 18.484842 427.98441 17.553116 427.993271 C16.762804 427.998843 15.972492 428.004415 15.158231 428.010157 C13.35968 428.147171 13.35968 428.147171 12.35968 429.147171 Z " fill="#111111" transform="translate(165.64031982421875,18.852828979492188)"/><path d="M0 0 C1.558594 1.355469 1.558594 1.355469 2.9375 2.75 C6.469587 5.345003 7.008162 5.169508 11.125 4.5625 C11.552969 4.491602 11.552969 4.491602 13.71875 4.132812 C16 4 16 4 18.625 5.9375 C18.851875 6.277813 18.851875 6.277813 20 8 C19.375 9.8125 19.375 9.8125 18 12 C17.01 12.37125 16.02 12.7425 15 13.125 C12 15 12 15 11.304688 17.164062 C11.014177 18.91241 10.74252 20.663979 10.488281 22.417969 C9.756089 26.289802 8.258118 28.783893 6 32 C5.505 32.165 5.505 32.165 3 33 C0.9375 31.3125 0.9375 31.3125 -1 29 C-0.75 26.875 -0.75 26.875 0 24 C0.826722 13.56263 0.826722 13.56263 -3 9 C-5.405456 7.797272 -6.94997 7.899285 -9.625 7.9375 C-10.442266 7.946523 -11.259531 7.955547 -12.101562 7.964844 C-12.728047 7.976445 -13.354531 7.988047 -14 8 C-13.98429 8.589021 -13.968579 9.178042 -13.952393 9.784912 C-13.889308 12.50234 -13.85078 15.219614 -13.8125 17.9375 C-13.787363 18.863691 -13.762227 19.789883 -13.736328 20.744141 C-13.656827 28.29678 -14.432 34.971077 -19.4375 40.875 C-24.545366 45.110791 -27.875043 47.410582 -34.800781 47.359375 C-39.634445 46.569505 -43.607237 43.392763 -47 40 C-49.460938 40.164062 -49.460938 40.164062 -52.375 40.625 C-57.664356 41.241976 -57.664356 41.241976 -60.6875 39.0625 C-61.120625 38.381875 -61.55375 37.70125 -62 37 C-59.89607 32.792139 -58.389644 31.537453 -54 30 C-53.98582 29.29875 -53.971641 28.5975 -53.957031 27.875 C-53.61667 21.104578 -52.566446 16.160969 -48 11 C-45.1875 9 -45.1875 9 -43 8 C-40.9375 9.75 -40.9375 9.75 -39 12 C-39.177536 15.018114 -39.837352 15.837352 -42 18 C-42.335938 20.863281 -42.335938 20.863281 -42.375 24.3125 C-42.38918 24.877754 -42.38918 24.877754 -42.460938 27.738281 C-41.898369 31.719171 -41.00108 33.335675 -38 36 C-34.984375 36.488281 -34.984375 36.488281 -31.75 36.3125 C-30.672344 36.267383 -29.594687 36.222266 -28.484375 36.175781 C-27.664531 36.117773 -26.844687 36.059766 -26 36 C-25.110598 32.976034 -24.914579 30.371202 -25.007812 27.226562 C-25.02457 26.319062 -25.041328 25.411563 -25.058594 24.476562 C-25.102687 22.58313 -25.154707 20.689865 -25.214844 18.796875 C-25.313556 12.46136 -24.738877 8.103618 -20.386719 3.171875 C-13.383607 -2.688201 -8.409548 -4.197143 0 0 Z " fill="#111111" transform="translate(188,234)"/><path d="M0 0 C16.091621 12.662627 27.87916 30.278022 30.867188 50.832031 C32.318826 75.076993 26.036258 94.655198 9.9375 113.035156 C-3.207272 126.866201 -21.642798 135.604869 -40.694092 136.232666 C-61.220414 136.50771 -79.890903 129.73743 -95.132812 115.832031 C-95.437031 115.573574 -95.437031 115.573574 -96.976562 114.265625 C-110.126801 102.340749 -118.370474 83.036825 -119.453125 65.570312 C-120.23822 44.700821 -113.347602 25.217461 -99.109375 9.800781 C-71.925925 -18.05008 -31.869719 -22.054481 0 0 Z M-95.132812 17.832031 C-108.55762 34.289685 -110.640856 53.284943 -109.132812 73.832031 C-106.418888 91.346155 -95.540936 105.494718 -81.730469 116.082031 C-66.52359 126.326665 -47.273611 128.696161 -29.472656 125.617188 C-12.353255 121.592626 1.82317 112.144644 11.679688 97.519531 C21.270905 81.579517 23.890736 61.909427 20.183594 43.652344 C19.2762 40.572476 18.199331 37.751054 16.867188 34.832031 C16.466289 33.838164 16.065391 32.844297 15.652344 31.820312 C8.373007 15.341582 -6.146333 4.377626 -22.585938 -2.140625 C-48.509677 -10.289169 -77.17859 -2.133276 -95.132812 17.832031 Z " fill="#111111" transform="translate(419.1328125,322.16796875)"/><path d="M0 0 C2.468 1.151734 4.047836 2.047836 6 4 C6.195312 6.382812 6.195312 6.382812 6.125 9.125 C6.106953 10.035078 6.088906 10.945156 6.070312 11.882812 C6.047109 12.581484 6.023906 13.280156 6 14 C6.70125 14.0825 7.4025 14.165 8.125 14.25 C13.798553 15.730057 18.311037 19.528529 22 24 C21.912362 27.06732 21.186476 27.813524 19 30 C15.643032 29.628505 14.732994 28.76708 12.0625 26.4375 C7.038808 22.667007 0.988257 23.279893 -5 24 C-7.898438 25.027344 -7.898438 25.027344 -10 26 C-10.081076 27.936812 -10.139225 29.874593 -10.1875 31.8125 C-10.222305 32.891445 -10.257109 33.970391 -10.292969 35.082031 C-10 38 -10 38 -8.929688 39.773438 C-6.088323 41.579487 -3.214413 42.082445 0.0625 42.8125 C8.827632 44.977681 16.108197 47.873514 21.5625 55.4375 C24.180915 59.885829 25.64818 63.698958 24.621094 68.929688 C22.481282 75.847066 17.86144 81.239114 11.75 85 C9 86 9 86 6 86 C6.046406 86.675469 6.092812 87.350937 6.140625 88.046875 C6.435374 95.33139 6.435374 95.33139 4.25 98.6875 C2 100 2 100 -0.125 99.9375 C-2 99 -2 99 -4 96 C-4.043676 94.542321 -4.039803 93.08279 -4 91.625 C-4.207031 89.203125 -4.207031 89.203125 -5 87 C-7.365262 85.34298 -9.751647 84.348257 -12.414062 83.238281 C-16.330102 81.363078 -18.806391 78.718534 -21 75 C-21.875 71.5625 -21.875 71.5625 -22 69 C-20.35 68.01 -18.7 67.02 -17 66 C-13.223776 69.524476 -13.223776 69.524476 -12 72.125 C-10.655315 74.646285 -9.68093 74.997376 -7 76 C-3.503906 76.265625 -3.503906 76.265625 0.4375 76.25 C1.735586 76.255156 3.033672 76.260312 4.371094 76.265625 C7.753045 76.018076 10.014774 75.559949 13 74 C14.766185 70.46763 14.409474 65.878417 14 62 C12.616953 58.338993 11.493895 57.273218 8.0625 55.375 C4.75946 54.117034 1.376655 53.360418 -2.0625 52.5625 C-10.787181 50.452041 -15.279172 46.315468 -20.3125 39.125 C-21.695522 34.850203 -21.855206 30.993034 -20.089844 26.878906 C-16.196828 20.257024 -11.593126 15.988676 -4 14 C-4.046406 13.40832 -4.092812 12.816641 -4.140625 12.207031 C-4.338475 7.875532 -4.436546 5.668461 -2 1.9375 C-1.34 1.298125 -0.68 0.65875 0 0 Z " fill="#111111" transform="translate(374,333)"/></svg>