<svg xmlns="http://www.w3.org/2000/svg" xmlns:xlink="http://www.w3.org/1999/xlink" viewBox="0 0 512 512" id="envelope"><defs><linearGradient id="a" x1="88.84" x2="388.33" y1="97.45" y2="97.45" gradientUnits="userSpaceOnUse"><stop offset="0" stop-color="#cacfdd"></stop><stop offset="1" stop-color="#eef0f1"></stop></linearGradient><linearGradient xlink:href="#a" id="b" x1="307.16" x2="388.33" y1="373.67" y2="373.67"></linearGradient></defs><g style="isolation:isolate"><rect width="299.49" height="381.51" x="88.84" y="36" fill="#dee1ec"></rect><rect width="299.48" height="381.52" x="88.84" y="36" fill="#dee1ec"></rect><path fill="url(#a)" d="M388.33,36v93.22a76,76,0,0,1-60.26,29.68h-179a76,76,0,0,1-60.26-29.67V36Z" style="mix-blend-mode:multiply"></path><path fill="#dee1ec" d="M327.51,143.05H149.66A60.82,60.82,0,0,1,88.84,82.23V36H388.33V82.23A60.82,60.82,0,0,1,327.51,143.05Z"></path><path fill="#5e6175" d="M327.51,146.05H149.66A63.89,63.89,0,0,1,85.84,82.23V33H391.33V82.23A63.89,63.89,0,0,1,327.51,146.05ZM91.84,39V82.23a57.89,57.89,0,0,0,57.82,57.82H327.51a57.89,57.89,0,0,0,57.82-57.82V39Z"></path><circle cx="238.58" cy="101.17" r="19.07" fill="#e1830e"></circle><circle cx="238.58" cy="101.17" r="6.55" fill="#f5f5f5"></circle><circle cx="238.58" cy="185.16" r="19.07" fill="#e1830e"></circle><path fill="#5e6175" d="M238.58 123.24a22.07 22.07 0 1122.07-22.07A22.09 22.09 0 01238.58 123.24zm0-38.14a16.07 16.07 0 1016.07 16.07A16.09 16.09 0 00238.58 85.1zM238.58 207.23a22.07 22.07 0 1122.07-22.07A22.09 22.09 0 01238.58 207.23zm0-38.14a16.07 16.07 0 1016.07 16.07A16.09 16.09 0 00238.58 169.09z"></path><circle cx="238.58" cy="185.16" r="6.55" fill="#f5f5f5"></circle><path fill="#5e6175" d="M195.48,213.43l-4.24-4.24,25.27-25.27v-2a49,49,0,0,1,20.32-39.68,43,43,0,0,0,17.82-34.8v-6.24h6v6.24a49,49,0,0,1-20.31,39.67,43,43,0,0,0-17.83,34.81v4.51Z"></path><rect width="75.1" height="44.65" x="118.53" y="340.43" fill="#dee1ec"></rect><rect width="75.1" height="44.65" x="118.53" y="340.43" fill="#e1830e"></rect><rect width="41.08" height="12.21" x="135.54" y="355.89" fill="#f5f5f5"></rect><path fill="url(#b)" d="M388.33,329.83v87.69H307.42A81.26,81.26,0,0,1,388.33,329.83Z" style="mix-blend-mode:multiply"></path><path fill="#5e6175" d="M112.23 461.78A13.83 13.83 0 11125.11 443 13.85 13.85 0 01112.23 461.78zm-7.17-17a7.83 7.83 0 1014.45.37A7.84 7.84 0 00105.06 444.76zM58.2 416.26a10 10 0 119.3-13.58A10 10 0 0158.2 416.26zm-3.66-11.61a4 4 0 107.36.19A4 4 0 0054.54 404.65z"></path><path fill="#a9afc4" d="M470.4,395.89c3.61-.94,2.2-.6,5.84-1.39Zm-2.7-9.41c-.62-1.85-1.29-3.69-2-5.47l5.57-2.22c.75,1.88,1.47,3.83,2.12,5.78Zm-6-14.28c-.9-1.71-1.86-3.42-2.85-5.05l5.13-3.12c1.06,1.75,2.08,3.56,3,5.39Zm-8.32-13c-1.19-1.53-2.43-3-3.71-4.44l4.46-4c1.37,1.53,2.71,3.13,4,4.77ZM442.78,348c-1.45-1.26-3-2.49-4.49-3.64l3.61-4.79c1.65,1.24,3.27,2.56,4.83,3.91ZM430.26,339c-2.37-1.37-3.26-1.71-5.35-3.09l3.3-5c1.82,1.2,2.58,1.47,5.05,2.89Zm-13.44-10.28a38.7,38.7,0,0,1-3.76-5.32l5.19-3a31.82,31.82,0,0,0,3.15,4.47ZM409,313.39a36.92,36.92,0,0,1-1-6.45l6-.36a31.81,31.81,0,0,0,.8,5.41Zm5-16.63h-6v-6h6Zm0-16h-6v-6h6Zm0-16h-6v-6h6Zm0-16h-6v-6h6Zm0-16h-6v-6h6Z"></path><path fill="#e1830e" d="M38.68 307a16.46 16.46 0 0116.45 16.45A16.44 16.44 0 0171.57 307 16.44 16.44 0 0155.13 290.6 16.45 16.45 0 0138.68 307zM412 101.17a29.35 29.35 0 0129.34 29.35 29.35 29.35 0 0129.35-29.35 29.35 29.35 0 01-29.35-29.35A29.35 29.35 0 01412 101.17z"></path><path fill="#5e6175" d="M391.33,420.51H85.84V33H391.33Zm-299.49-6H385.33V39H91.84Z"></path><circle cx="388.33" cy="411.01" r="64.99" fill="#f5f5f5"></circle><path fill="#5e6175" d="M388.33,479a68,68,0,1,1,68-68A68.07,68.07,0,0,1,388.33,479Zm0-130a62,62,0,1,0,62,62A62.06,62.06,0,0,0,388.33,349Z"></path><polygon fill="#e1830e" points="376.9 440.23 352.46 415.79 362.97 405.28 376.9 419.21 413.69 382.42 424.2 392.93 376.9 440.23"></polygon></g></svg>