<svg xmlns="http://www.w3.org/2000/svg" viewBox="0 0 512 512" id="eraser"><defs><linearGradient id="a" x1="182.41" x2="405.06" y1="281.43" y2="281.43" gradientTransform="rotate(45 293.73 281.427)" gradientUnits="userSpaceOnUse"><stop offset="0" stop-color="#cacfdd"></stop><stop offset="1" stop-color="#eef0f1"></stop></linearGradient></defs><g style="isolation:isolate"><rect width="6" height="20.66" x="114.2" y="313.3" fill="#5e6175" transform="rotate(-73.44 117.19 323.632)"></rect><rect width="20.66" height="6" x="106.28" y="348.64" fill="#5e6175" transform="rotate(-28.44 116.593 351.612)"></rect><rect width="6" height="20.66" x="127.64" y="289.64" fill="#5e6175" transform="rotate(-28.44 130.631 299.945)"></rect><path fill="#5e6175" d="M375.39 105.3a13.05 13.05 0 119-22.51h0a13.05 13.05 0 01-9 22.51zm0-20.09a7 7 0 105.1 11.9A7.05 7.05 0 00375.41 85.21zM311.8 115.28a10 10 0 116.88-17.21A10 10 0 01311.8 115.28zm-4-9.87a4 4 0 106.72-3h0A4 4 0 00307.82 105.41z"></path><path fill="#f5f5f5" d="M456.88,229.61l-183.2,183.2a58,58,0,0,1-82,0l-29.32-29.32a58,58,0,0,1,0-82l183.21-183.2Z"></path><rect width="157.44" height="157.44" x="215.02" y="202.71" fill="url(#a)" style="mix-blend-mode:multiply" transform="rotate(-45 293.733 281.432)"></rect><path fill="#5e6175" d="M189.55,414.93l-29.32-29.32a61.06,61.06,0,0,1,0-86.25L345.56,114,461.13,229.6,275.8,414.93A61.06,61.06,0,0,1,189.55,414.93Zm156-292.41L164.47,303.6a55.06,55.06,0,0,0,0,77.77l29.32,29.32a55.06,55.06,0,0,0,77.77,0L452.64,229.6Z"></path><rect width="369.43" height="6" x="36" y="426.79" fill="#5e6175"></rect><circle cx="93.27" cy="418.22" r="11.57" fill="#a9afc4"></circle><circle cx="145.5" cy="423.58" r="6.21" fill="#a9afc4"></circle><circle cx="345.33" cy="420.66" r="9.13" fill="#a9afc4"></circle><path fill="#5e6175" d="M93.27 432.79a14.57 14.57 0 1114.57-14.57A14.59 14.59 0 0193.27 432.79zm0-23.14a8.57 8.57 0 108.57 8.57A8.57 8.57 0 0093.27 409.65zM145.5 432.79a9.22 9.22 0 119.22-9.21A9.22 9.22 0 01145.5 432.79zm0-12.43a3.22 3.22 0 103.22 3.22A3.22 3.22 0 00145.5 420.36zM345.33 432.79a12.13 12.13 0 1112.13-12.13A12.14 12.14 0 01345.33 432.79zm0-18.26a6.13 6.13 0 106.13 6.13A6.13 6.13 0 00345.33 414.53z"></path><path fill="#a9afc4" d="M457.26,266.06,453,261.82l4.24-4.24,4.25,4.24Zm11.33-11.33-4.27-4.21a29.63,29.63,0,0,0,3.47-4.21l5,3.39A36.32,36.32,0,0,1,468.59,254.73Zm8.85-14.84-5.74-1.74a30.23,30.23,0,0,0,1.11-5.33l6,.67A36.37,36.37,0,0,1,477.44,239.89Zm-5-16.13a30.71,30.71,0,0,0-1.49-5.24l5.59-2.16a36,36,0,0,1,1.8,6.28Zm-6-13.09a43.72,43.72,0,0,0-3.87-4.13l4.25-4.25a50.72,50.72,0,0,1,4.31,4.64Zm-10.94-11.2-4.24-4.25,4.24-4.24,4.24,4.24Zm-11.31-11.32L440,183.91l4.25-4.24,4.24,4.24ZM432.9,176.84l-4.24-4.24,4.24-4.25,4.25,4.25Zm-11.31-11.32-4.24-4.24,4.24-4.24,4.24,4.24Zm-11.31-11.31L406,150l4.25-4.24,4.24,4.24Z"></path><rect width="157.44" height="169.34" x="231" y="180.89" fill="#dee1ec" transform="rotate(-45 309.715 265.552)"></rect><path fill="#5e6175" d="M313.93,385.33l-124-124L305.51,145.78l124,124Zm-115.5-124,115.5,115.5L421,269.76l-115.5-115.5Z"></path><rect width="84.61" height="27.4" x="251.49" y="236.54" fill="#e1830e" transform="rotate(-45 293.795 250.246)"></rect><rect width="84.61" height="10.3" x="289.27" y="282.88" fill="#5e6175" transform="rotate(-45 331.575 288.027)"></rect></g></svg>