<svg xmlns="http://www.w3.org/2000/svg" xmlns:xlink="http://www.w3.org/1999/xlink" viewBox="0 0 512 512" id="flash-sale"><defs><linearGradient id="a" x1="257.69" x2="454.97" y1="140.37" y2="384.06" gradientUnits="userSpaceOnUse"><stop offset="0" stop-color="#cacfdd"></stop><stop offset="1" stop-color="#eef0f1"></stop></linearGradient><linearGradient xlink:href="#a" id="b" x1="269.97" x2="434.19" y1="140.97" y2="343.83"></linearGradient></defs><g><path fill="#dee1ec" d="M476,256.26l-80.78-80.79H78.36V395.9H395.21L476,315.12ZM431.89,272a19.4,19.4,0,1,1-27.45,0A19.41,19.41,0,0,1,431.89,272Z"></path><path fill="#dee1ec" d="M476,256.26l-80.78-80.78H78.36V395.9H395.21L476,315.12Zm-44.11,43.15a19.4,19.4,0,1,1,0-27.44A19.4,19.4,0,0,1,431.88,299.41Z"></path><path fill="#5e6175" d="M396.45,398.91H75.36V172.47H396.45L479,255v61.35Zm-315.09-6H394l79-79V257.5l-79-79H81.36Zm321-91.37A22.4,22.4,0,1,1,434,269.85h0a22.4,22.4,0,0,1-31.68,31.68Zm4.23-27.44a16.41,16.41,0,1,0,23.2,0h0A16.39,16.39,0,0,0,406.56,274.09Z"></path><path fill="#5e6175" d="M440.13,448.06a27.69,27.69,0,0,1-27.65-27.66V304.45a30.13,30.13,0,0,1,22.81-29.27l1.46,5.82a24.13,24.13,0,0,0-18.27,23.45v116a21.66,21.66,0,1,0,43.31,0V328h6v92.42A27.69,27.69,0,0,1,440.13,448.06Z"></path><rect width="272.18" height="175.39" x="101.59" y="197.67" fill="#f5f5f5"></rect><rect width="15.32" height="25.8" x="292.3" y="84.08" fill="#f5f5f5"></rect><polygon fill="#f5f5f5" points="269.9 114.57 256.63 122.25 248.23 107.7 261.5 100.02 269.9 114.57"></polygon><polygon fill="#f5f5f5" points="330.02 114.57 343.29 122.25 351.69 107.7 338.42 100.02 330.02 114.57"></polygon><path fill="#5e6175" d="M310.62 112.88H289.3V81.08h21.32zm-15.32-6h9.32V87.08H295.3zM255.53 126.36l-11.4-19.75 18.46-10.69L274 115.66zm-3.21-17.56l5.4 9.35 8.08-4.68-5.4-9.35zM344.38 126.36l-18.46-10.7 11.41-19.74 18.46 10.69zm-10.26-12.88l8.07 4.67 5.4-9.35-8.07-4.68z"></path><path fill="#5e6175" d="M315.25,87.06H284.67a7.38,7.38,0,0,1,0-14.76h30.58a7.38,7.38,0,0,1,0,14.76Z"></path><path fill="#e1830e" d="M286.76,123.92H150a11.32,11.32,0,1,0,0,22.64H196.4a9.27,9.27,0,0,1,0,18.54H49.52a11.31,11.31,0,0,0,0,22.61H187.35a9.64,9.64,0,1,1,0,19.27H115.2a12.57,12.57,0,0,0,0,25.13H286.76Z"></path><path fill="#e1830e" d="M104.44,146.17H81.75a10.9,10.9,0,0,1,0-21.8h22.69a10.9,10.9,0,0,1,0,21.8Z"></path><path fill="url(#a)" d="M300,267.5A89.59,89.59,0,0,1,210.47,178a87.48,87.48,0,0,1,18.61-54.11h57.51v51.57H389.4C391.19,224.51,351.15,267.5,300,267.5Z" style="mix-blend-mode:multiply"></path><circle cx="299.96" cy="178.01" r="73.29" fill="url(#b)"></circle><circle cx="299.96" cy="178.01" r="53.64" fill="#f5f5f5"></circle><path fill="#5e6175" d="M300,254.3A76.29,76.29,0,1,1,376.25,178,76.37,76.37,0,0,1,300,254.3Zm0-146.57A70.29,70.29,0,1,0,370.25,178,70.36,70.36,0,0,0,300,107.73Z"></path><polygon fill="#e1830e" points="322.6 169.49 289.19 212.57 287.52 212.56 300.03 182.14 277.55 182.15 293.35 143.72 315.07 143.74 297.73 169.5 322.6 169.49"></polygon><polygon fill="#a9afc4" points="189.38 318.96 179.87 318.96 206.86 266.32 233.4 318.96 223.91 318.94 206.79 284.99 189.38 318.96"></polygon><rect width="30.08" height="8.46" x="191.66" y="300.53" fill="#a9afc4"></rect><path fill="#a9afc4" d="M157.73,319H123.87v-8.9h33.86a6.21,6.21,0,0,0,0-12.41H139.57a15.71,15.71,0,0,1,0-31.41h33.26v8.9H139.57a6.81,6.81,0,0,0,0,13.61h18.16a15.11,15.11,0,0,1,0,30.21Z"></path><polygon fill="#a9afc4" points="292.22 319 242.9 319 242.9 266.32 251.79 266.32 251.79 310.11 292.22 310.11 292.22 319"></polygon><polygon fill="#a9afc4" points="351.49 319 302.17 319 302.17 266.32 351.49 266.32 351.49 275.22 311.07 275.22 311.07 310.11 351.49 310.11 351.49 319"></polygon><rect width="30.07" height="8.9" x="306.62" y="288.21" fill="#a9afc4"></rect><rect width="227.62" height="13.04" x="123.87" y="340.05" fill="#dee1ec"></rect><rect width="18.71" height="6" x="408.02" y="146.96" fill="#5e6175" transform="rotate(-45 417.375 149.958)"></rect><rect width="6" height="18.71" x="392.33" y="128.05" fill="#5e6175"></rect><rect width="18.71" height="6" x="421.07" y="167.87" fill="#5e6175"></rect><path fill="#5e6175" d="M33 395.94h0a11.95 11.95 0 1120.59 8A11.94 11.94 0 0133 395.94zm12-6.22a5.94 5.94 0 104.3 10A5.94 5.94 0 0045 389.72zM84 426.72h0a9.21 9.21 0 1115.87 6.14A9.2 9.2 0 0184 426.72zm9.2-3.43A3.21 3.21 0 0090 426.57h0a3.21 3.21 0 103.21-3.28z"></path><path fill="#a9afc4" d="M208.19,106.08v-6a28.25,28.25,0,0,0,5.48-.32l1,5.92A34.7,34.7,0,0,1,208.19,106.08Zm-10,0h-6v-6h6Zm-16,0h-6v-6h6Zm-16,0h-6v-6h6Zm-16,0h-6v-6h6Zm-16,0h-6v-6h6Zm-16,0h-6v-6h6ZM225,101.92l-3-5.19a27.6,27.6,0,0,0,4.38-3.16l4,4.51A33.91,33.91,0,0,1,225,101.92Zm12.42-11.23-4.31-4.17c1.44-1.48,2.91-2.93,4.39-4.31l4.09,4.38C240.21,87.9,238.81,89.28,237.44,90.69ZM249,80.27l-3.68-4.74c1.66-1.28,3.35-2.51,5-3.64l3.37,5C252.14,77.92,250.56,79.07,249,80.27ZM262,72l-2.69-5.37a41.3,41.3,0,0,1,6-2.54L267,69.82A33.79,33.79,0,0,0,262,72Z"></path></g></svg>