<svg xmlns="http://www.w3.org/2000/svg" xmlns:xlink="http://www.w3.org/1999/xlink" viewBox="0 0 512 512" id="folder"><defs><linearGradient id="a" x1="113.17" x2="433.51" y1="293.48" y2="293.48" gradientUnits="userSpaceOnUse"><stop offset="0" stop-color="#cacfdd"></stop><stop offset="1" stop-color="#eef0f1"></stop></linearGradient><linearGradient xlink:href="#a" id="b" x1="273.35" x2="273.35" y1="85.18" y2="271.2"></linearGradient><linearGradient xlink:href="#a" id="c" x1="272.14" x2="272.14" y1="476.11" y2="351.49"></linearGradient></defs><g style="isolation:isolate"><path fill="#a9afc4" d="M102.06,330.12V207a20.69,20.69,0,0,1,20.69-20.68H419.48A20.68,20.68,0,0,1,440.16,207V330.12Z"></path><path fill="url(#a)" d="M417.38,400.6C424,315,421.21,351,433.51,191.84a20.56,20.56,0,0,0-14-5.48H122.75a20.57,20.57,0,0,0-9.58,2.35V400.6Z" style="mix-blend-mode:multiply"></path><path fill="#5e6175" d="M443.16,333.12H99.06V207a23.71,23.71,0,0,1,23.69-23.68H419.48A23.7,23.7,0,0,1,443.16,207Zm-338.1-6h332.1V207a17.7,17.7,0,0,0-17.68-17.68H122.75A17.71,17.71,0,0,0,105.06,207Z"></path><path fill="#f5f5f5" d="M424.33,98.28C399.06,425.24,405,348.74,400.63,405H301.7L143,392.72,167.29,78.41Z"></path><polygon fill="url(#b)" points="403.7 96.68 403.7 404.99 301.7 404.99 143 392.72 167.29 78.41 403.7 96.68" style="mix-blend-mode:multiply"></polygon><path fill="#5e6175" d="M402.8,415.81l-263-20.32,24.75-320.3,263,20.32C427.14,100.77,403.19,410.77,402.8,415.81ZM146.22,390l251.06,19.39L421.1,101l-251-19.39Z"></path><rect width="257.8" height="315.25" x="129.53" y="73.38" fill="#f5f5f5"></rect><path fill="#5e6175" d="M390.33,391.62H126.53V70.38h263.8Zm-257.8-6h251.8V76.38H132.53Z"></path><rect width="178.86" height="10.14" x="170.02" y="176.22" fill="#a9afc4"></rect><rect width="114.36" height="10.14" x="234.53" y="207.67" fill="#a9afc4"></rect><rect width="178.86" height="42.04" x="170.02" y="107.09" fill="#dee1ec"></rect><path fill="#a9afc4" d="M427.19,257H242.58a38.3,38.3,0,0,1-30.36-15l-4-5.21a38.31,38.31,0,0,0-30.37-15H109.3a22.38,22.38,0,0,0-22.08,26L116.28,424.5a22.38,22.38,0,0,0,22.09,18.75h268a22.38,22.38,0,0,0,22.14-19.13l20.81-141.49A22.38,22.38,0,0,0,427.19,257Z"></path><path fill="url(#c)" d="M431.8,401.79l-3.28,22.34a22.38,22.38,0,0,1-22.15,19.11h-268a22.37,22.37,0,0,1-22.09-18.75l-3.81-23.15a22.29,22.29,0,0,0,15.67,6.4H416.6A22.3,22.3,0,0,0,431.8,401.79Z" style="mix-blend-mode:multiply"></path><path fill="#5e6175" d="M138.37 446.25A25.29 25.29 0 01113.32 425L84.26 248.36a25.38 25.38 0 0125-29.5h68.54A41.58 41.58 0 01210.59 235l4 5.21a35.51 35.51 0 0028 13.79H427.19a25.39 25.39 0 0125.11 29.08L431.49 424.56a25.53 25.53 0 01-25.11 21.69zM109.3 224.86a19.38 19.38 0 00-19.12 22.53L119.24 424a19.32 19.32 0 0019.13 16.23h268a19.49 19.49 0 0019.17-16.56l20.81-141.5A19.39 19.39 0 00427.19 260H242.58a41.54 41.54 0 01-32.74-16.13l-4-5.21a35.51 35.51 0 00-28-13.79zM465.92 118.4a13.1 13.1 0 01-10.27-21.16 12.94 12.94 0 018.72-4.9 13.08 13.08 0 111.55 26.06zM460.37 101A7.07 7.07 0 10473 104.48 7.09 7.09 0 00460.37 101zM422.64 66.73a10 10 0 119.92-11.18A10 10 0 01422.64 66.73zm0-14a4 4 0 10.48 8 3.94 3.94 0 002.66-1.49A4 4 0 00422.64 52.74z"></path><path fill="#e1830e" d="M36 412.78a30.47 30.47 0 0130.47 30.47 30.48 30.48 0 0130.46-30.47 30.46 30.46 0 01-30.46-30.46A30.47 30.47 0 0136 412.78zM85.34 149.13a11.59 11.59 0 0111.59 11.59 11.6 11.6 0 0111.59-11.59 11.59 11.59 0 01-11.59-11.59A11.59 11.59 0 0185.34 149.13z"></path><path fill="#a9afc4" d="M404.53,465.26h-6v-6h6Zm-16,0h-6v-6h6Zm-16,0h-6v-6h6Zm42.52-.86-1.15-5.89a40.56,40.56,0,0,0,5.4-1.44l1.94,5.68A45.92,45.92,0,0,1,415.05,464.4Zm15.82-6.24-3.19-5.09a39.44,39.44,0,0,0,4.52-3.28l3.85,4.61A47.8,47.8,0,0,1,430.87,458.16Zm12.53-11.48-4.79-3.62a41.14,41.14,0,0,0,3.05-4.67l5.24,2.93A48.33,48.33,0,0,1,443.4,446.68ZM451,431.47l-5.77-1.66a41.2,41.2,0,0,0,1.17-5.4l5.94.79A46.77,46.77,0,0,1,451,431.47Zm2.78-16.15-5.94-.87.87-5.94,5.93.87Zm2.3-15.84-5.93-.86.86-5.94,5.94.86Zm2.31-15.83-5.94-.86.86-5.94,5.94.86Zm2.3-15.84-5.94-.86.86-5.94,5.94.87ZM463,352l-5.94-.86.87-5.94,5.93.86Zm2.3-15.83-5.94-.87.87-5.93,5.93.86Z"></path></g></svg>