<svg xmlns="http://www.w3.org/2000/svg" viewBox="0 0 512 512" id="folder-empty"><defs><linearGradient id="a" x1="107.83" x2="395" y1="312.8" y2="312.8" gradientUnits="userSpaceOnUse"><stop offset="0" stop-color="#a9afc4"></stop><stop offset="1" stop-color="#d4d8e5"></stop></linearGradient><linearGradient id="b" x1="321.03" x2="395" y1="262.61" y2="262.61" gradientUnits="userSpaceOnUse"><stop offset="0" stop-color="#cacfdd"></stop><stop offset="1" stop-color="#eef0f1"></stop></linearGradient></defs><g><path fill="#5e6175" d="M127.55 181.16a23.49 23.49 0 01-19-27.21 17.5 17.5 0 00-14.15-20.37c-12.72-2.6-21.22-14.83-19-27.28l5.91 1c-1.64 9.27 4.74 18.4 14.23 20.34a23.48 23.48 0 0118.94 27.2 17.51 17.51 0 0014.15 20.36zM183.81 178.23a33.76 33.76 0 01-1.68-47.74c10-10.28 10.36-28.34-1.37-39.28-13.32-13-14-34.46-1.67-47.76l4.39 4.08c-10.18 10.95-9.54 28.6 1.43 39.34 14.12 13.17 13.82 35.18 1.55 47.77a27.77 27.77 0 001.44 39.2zM244.48 207.84A39.36 39.36 0 01253.94 153a33.41 33.41 0 008-46.52l4.91-3.45a39.41 39.41 0 01-9.47 54.86 33.35 33.35 0 00-8 46.52z"></path><path fill="url(#a)" d="M394.75,254.09,372.56,402.56a31.81,31.81,0,0,1-31.46,27.12h-1.59A18.79,18.79,0,0,0,357.9,407.1L330.53,274.6a22.62,22.62,0,0,0-22.14-18H148.66l-13.35-22A22.61,22.61,0,0,0,116,223.73h-7.54a22.6,22.6,0,0,1,22-27.81h38.23a22.63,22.63,0,0,1,19.12,10.54l13.68,21.69H372.39A22.61,22.61,0,0,1,394.75,254.09Z"></path><path fill="url(#b)" d="M394.75,254.09l-6.43,43A86.65,86.65,0,0,1,321,228.15h51.36A22.61,22.61,0,0,1,394.75,254.09Z" style="mix-blend-mode:multiply"></path><path fill="#dee1ec" d="M339.51,429.68H101.35a22.6,22.6,0,0,1-22.13-18L46,250.91a22.61,22.61,0,0,1,22.14-27.18H116a22.61,22.61,0,0,1,19.32,10.86l13.35,22H308.39a22.62,22.62,0,0,1,22.14,18L357.9,407.1A18.79,18.79,0,0,1,339.51,429.68Z"></path><path fill="#5e6175" d="M339.51,432.68H101.35a25.7,25.7,0,0,1-25.07-20.43L43.08,251.52a25.61,25.61,0,0,1,25.08-30.79H116A25.74,25.74,0,0,1,137.87,233l12.48,20.52h158A25.73,25.73,0,0,1,333.47,274l27.37,132.5A21.78,21.78,0,0,1,339.51,432.68ZM68.16,226.73A19.6,19.6,0,0,0,49,250.3L82.15,411a19.69,19.69,0,0,0,19.2,15.64H339.51a15.78,15.78,0,0,0,15.45-19l-27.37-132.5a19.69,19.69,0,0,0-19.21-15.65H147l-14.22-23.41A19.73,19.73,0,0,0,116,226.73Z"></path><path fill="#5e6175" d="M341.1,432.68h-1.59v-6a15.78,15.78,0,0,0,15.45-19l-27.37-132.5a19.69,19.69,0,0,0-19.21-15.65H147l-14.22-23.41A19.73,19.73,0,0,0,116,226.73h-9.92l-.54-2.31a25.61,25.61,0,0,1,24.92-31.5h38.23a25.45,25.45,0,0,1,21.65,11.94l12.81,20.29H372.39a25.61,25.61,0,0,1,25.32,29.39c0,.1.5-3.3-22.18,148.47A35,35,0,0,1,341.1,432.68ZM150.35,253.56h158A25.73,25.73,0,0,1,333.47,274l27.37,132.5a21.77,21.77,0,0,1-1.64,13.71,28.79,28.79,0,0,0,10.39-18.09l22.19-148.47a19.61,19.61,0,0,0-19.39-22.5H199.83l-14.57-23.09a19.51,19.51,0,0,0-16.58-9.14H130.45A19.61,19.61,0,0,0,111,220.73h5A25.74,25.74,0,0,1,137.87,233Z"></path><rect width="46.47" height="15.74" x="136.36" y="308.92" fill="#5e6175" transform="rotate(-45 159.604 316.78)"></rect><rect width="15.74" height="46.47" x="151.73" y="293.55" fill="#5e6175" transform="rotate(-45 159.604 316.78)"></rect><rect width="46.47" height="15.74" x="212.85" y="308.92" fill="#5e6175" transform="rotate(-45 236.085 316.78)"></rect><rect width="15.74" height="46.47" x="228.22" y="293.55" fill="#5e6175" transform="rotate(-45 236.085 316.78)"></rect><path fill="#5e6175" d="M253.11,377.28c-.87-.78-21.75-19.21-54.33-19.21s-53.47,18.43-54.34,19.21l-2.57,2.31,11.19,12.47,2.57-2.25a69.77,69.77,0,0,1,86.29,0l2.57,2.28,11.19-12.5Z"></path><circle cx="406.04" cy="212.47" r="69.96" fill="#f5f5f5"></circle><path fill="#5e6175" d="M406 285.43a73 73 0 1173-73A73 73 0 01406 285.43zm0-139.91a67 67 0 1067 66.95A67 67 0 00406 145.52zM316.66 149.05a9.62 9.62 0 119.62-9.62A9.62 9.62 0 01316.66 149.05zm0-13.23a3.62 3.62 0 103.62 3.61A3.61 3.61 0 00316.66 135.82zM361.75 125.5A13.21 13.21 0 11375 112.29 13.22 13.22 0 01361.75 125.5zm0-20.41a7.21 7.21 0 107.21 7.2A7.21 7.21 0 00361.75 105.09z"></path><rect width="19.44" height="6" x="49.56" y="440.75" fill="#5e6175" transform="rotate(-45 59.28 443.756)"></rect><rect width="6" height="19.44" x="79.18" y="447.07" fill="#5e6175"></rect><rect width="19.44" height="6" x="36" y="419.03" fill="#5e6175"></rect><path fill="#e1830e" d="M413.77,229.15H398.32A33,33,0,0,1,412,202.41a10.27,10.27,0,1,0-16.26-8.35H380.33A25.71,25.71,0,1,1,421.05,215,17.52,17.52,0,0,0,413.77,229.15Z"></path><rect width="15.51" height="15.51" x="398.15" y="241.09" fill="#e1830e"></rect><path fill="#a9afc4" d="M340.15,386.22h-6v-6h6Zm-16,0h-6v-6h6Zm-16,0h-6v-6h6Zm-16,0h-6v-6h6Z"></path><rect width="6" height="6" x="360.94" y="380.22" fill="#a9afc4"></rect><path fill="#a9afc4" d="M406.49 386.22h-6v-6h6zm-16 0h-6v-6h6zM422.21 386.21h-6v-6h6zm0-16h-6v-6h6zm0-16h-6v-6h6zm0-16h-6v-6h6zm0-16h-6v-6h6zm0-16h-6v-6h6z"></path></g></svg>