<svg xmlns="http://www.w3.org/2000/svg" viewBox="0 0 512 512" id="font-design"><defs><linearGradient id="linear-gradient" x1="144.19" x2="198.97" y1="146.81" y2="146.81" gradientUnits="userSpaceOnUse"><stop offset="0" stop-color="#cacfdd"></stop><stop offset="1" stop-color="#eef0f1"></stop></linearGradient></defs><g style="isolation:isolate"><g id="Font_Design"><rect width="222.99" height="237.83" x="144.19" y="108.33" fill="#f5f5f5"></rect><path d="M199,108.33a81.59,81.59,0,0,1-54.78,77v-77Z" style="mix-blend-mode:multiply" fill="url(#linear-gradient)"></path><path d="M286.09,108.33H225.6L144.19,346.15h62.34l17.19-57.55H290.2l17.19,57.55H367.5C321.38,211.44,339.72,265,286.09,108.33ZM240.34,233,257,177.37,273.59,233Z" fill="#dee1ec"></path><path d="M371.7,349.15H305.16L288,291.6H226l-17.2,57.55H140l83.47-243.82h62.63v6H227.74L148.38,343.15h55.91l17.2-57.55h70.94l17.2,57.55H363.3L327.09,237.37l5.67-1.94ZM277.62,236h-41.3L257,166.89Zm-33.25-6h25.19L257,187.85Z" fill="#5e6175"></path><rect width="6" height="291.71" x="141.19" y="81.39" fill="#5e6175"></rect><rect width="6" height="291.71" x="364.18" y="81.39" fill="#5e6175"></rect><rect width="275.98" height="6" x="118.26" y="105.33" fill="#5e6175"></rect><rect width="275.98" height="6" x="118.26" y="343.15" fill="#5e6175"></rect><rect width="439.37" height="69.73" x="36" y="399.39" fill="#dee1ec"></rect><rect width="440" height="21.04" x="36" y="399.39" fill="#a9afc4"></rect><path d="M478.37,472.12H33V396.39H478.37ZM39,466.12H472.37V402.39H39Z" fill="#5e6175"></path><rect width="6" height="21.04" x="85.44" y="399.39" fill="#5e6175"></rect><rect width="6" height="21.04" x="141.19" y="399.39" fill="#5e6175"></rect><rect width="6" height="21.04" x="196.94" y="399.39" fill="#5e6175"></rect><rect width="6" height="21.04" x="252.69" y="399.39" fill="#5e6175"></rect><rect width="6" height="21.04" x="308.43" y="399.39" fill="#5e6175"></rect><rect width="6" height="21.04" x="364.18" y="399.39" fill="#5e6175"></rect><rect width="6" height="21.04" x="419.93" y="399.39" fill="#5e6175"></rect><path d="M322.5,224l-1.94-5.67,5.68-1.95,1.94,5.68Zm-5.18-15.14-1.94-5.67,5.67-1.94L323,206.9Zm-5.18-15.13L310.2,188l5.67-1.94,1.94,5.67ZM307,178.57,305,172.89l5.68-1.94,1.94,5.68Zm-5.19-15.14-1.94-5.68,5.68-1.94,1.94,5.68Zm-5.18-15.14-1.94-5.67,5.68-2,1.94,5.68Zm-5.18-15.13-1.94-5.68,5.67-1.94,1.95,5.67ZM286.23,118l-1.94-5.68L290,110.4l2,5.68Z" fill="#a9afc4"></path><path d="M277.61 236h-41.3L257 166.89Zm-33.24-6h25.19L257 187.85ZM411.56 91.89a13.38 13.38 0 1 1 10.11-4.59A13.39 13.39 0 0 1 411.56 91.89Zm0-20.76a7.39 7.39 0 1 0 5.58 12.23A7.38 7.38 0 0 0 411.57 71.13ZM443.9 137.63h0a9.65 9.65 0 1 1 16-7.94A9.63 9.63 0 0 1 443.9 137.63Zm3.93-4.52a3.66 3.66 0 1 0-.35-5.15 3.67 3.67 0 0 0 .35 5.15Z" fill="#5e6175"></path><rect width="19.12" height="6" x="102.22" y="278.25" fill="#5e6175"></rect><rect width="19.12" height="6" x="109.09" y="303.24" transform="rotate(-45 118.642 306.247)" fill="#5e6175"></rect><rect width="6" height="19.12" x="114.46" y="247.16" transform="rotate(-45 117.465 256.715)" fill="#5e6175"></rect><circle cx="118.26" cy="108.33" r="65.45" fill="#f5f5f5"></circle><path d="M118.26,176.78a68.45,68.45,0,1,1,68.45-68.45A68.53,68.53,0,0,1,118.26,176.78Zm0-130.9a62.45,62.45,0,1,0,62.45,62.45A62.52,62.52,0,0,0,118.26,45.88Z" fill="#5e6175"></path><polygon points="88.98 116.41 118.16 87.23 137.91 106.98 108.73 136.16 86.61 138.52 88.98 116.41" fill="#e1830e"></polygon><path d="M125.3,80.09l2.77-2.78a14,14,0,0,1,19.75,19.75l-2.77,2.78Z" fill="#e1830e"></path></g></g></svg>