<svg xmlns="http://www.w3.org/2000/svg" xmlns:xlink="http://www.w3.org/1999/xlink" viewBox="0 0 512 512" id="food-delivery"><defs><linearGradient id="b" x1="318.11" x2="395.04" y1="267.45" y2="267.45" gradientUnits="userSpaceOnUse"><stop offset="0" stop-color="#a9afc4"></stop><stop offset="1" stop-color="#d4d8e5"></stop></linearGradient><linearGradient id="a" x1="237.54" x2="293.05" y1="151.23" y2="151.23" gradientUnits="userSpaceOnUse"><stop offset="0" stop-color="#cacfdd"></stop><stop offset="1" stop-color="#eef0f1"></stop></linearGradient><linearGradient xlink:href="#a" id="c" x1="356.25" x2="395.04" y1="267.45" y2="267.45"></linearGradient><linearGradient xlink:href="#a" id="d" x1="229.91" x2="229.91" y1="150.8" y2="375.75"></linearGradient><linearGradient xlink:href="#a" id="e" x1="135.12" x2="356.25" y1="179.68" y2="179.68"></linearGradient></defs><g><polygon fill="url(#b)" points="356.25 146.67 338.22 329.61 318.11 388.24 395.04 388.24 374.57 329.61 357.75 146.67 356.25 146.67"></polygon><path fill="#dee1ec" d="M247.91,194.11,183.12,171a23.7,23.7,0,0,1-9.87-6.71l-38.43-42.65L36,132.3V54H215a28.11,28.11,0,0,1,18.94,7.33l46.47,42.25a35.28,35.28,0,0,1,11.51,24.83l1.13,31.6a15.34,15.34,0,0,1-30.4,3.37l-5.06-27.13a14.17,14.17,0,0,0-5.06-8.46L226.69,107a7.27,7.27,0,0,0-10.54,1.52l-8,11.48A10.73,10.73,0,0,0,207,130.2l3.71,9.1a10.72,10.72,0,0,0,5.9,5.89l17,6.9a25.08,25.08,0,0,1,15.59,25.22Z"></path><path fill="url(#a)" d="M291.79,126.57H251l1.51,1.21a14.22,14.22,0,0,1,5.06,8.47l5.07,27.12A15.32,15.32,0,0,0,293,160C291.79,124.56,292,128.53,291.79,126.57Z" style="mix-blend-mode:multiply"></path><path fill="#5e6175" d="M250.6,198.25l-68.49-24.39A26.67,26.67,0,0,1,171,166.3l-37.37-41.47-97.3,10.49-.64-6L136,118.54l39.46,43.78a20.81,20.81,0,0,0,8.64,5.89L245.23,190l1-12.89a22,22,0,0,0-13.72-22.21l-17-6.9a13.79,13.79,0,0,1-7.55-7.54l-3.71-9.1a13.71,13.71,0,0,1,1.45-13l8-11.49a10.29,10.29,0,0,1,14.89-2.14l25.83,20.76a17.19,17.19,0,0,1,6.14,10.25l5.06,27.12a12.33,12.33,0,0,0,24.45-2.7l-1.13-31.61a32.4,32.4,0,0,0-10.53-22.71L231.92,63.55A25.1,25.1,0,0,0,215,57H36V51H215a31.08,31.08,0,0,1,21,8.11l46.47,42.25a38.48,38.48,0,0,1,12.49,26.94l1.13,31.61a18.33,18.33,0,0,1-36.34,4l-5.07-27.13a11.24,11.24,0,0,0-4-6.68l-25.84-20.76a4.28,4.28,0,0,0-6.2.9l-8,11.48a7.71,7.71,0,0,0-.81,7.33l3.71,9.1a7.79,7.79,0,0,0,4.25,4.24l17,6.9a28,28,0,0,1,17.45,28.24Z"></path><path fill="#5e6175" d="M250.6,198.25l-68.49-24.39A26.67,26.67,0,0,1,171,166.3l4.52-4a20.73,20.73,0,0,0,8.61,5.86L245.23,190l1-12.89a22,22,0,0,0-13.72-22.21l-17-6.9a13.79,13.79,0,0,1-7.55-7.54l5.56-2.26a7.79,7.79,0,0,0,4.25,4.24l17,6.9a28,28,0,0,1,17.45,28.24Z"></path><polygon fill="url(#c)" points="356.25 146.67 356.25 388.24 395.04 388.24 374.57 329.61 357.75 146.67 356.25 146.67" style="mix-blend-mode:multiply"></polygon><path fill="url(#d)" d="M356.25,146.66c-8.21,83.21-4.15,42-18,182.94L318.1,388.23H103.57c.12-.69-1.45,4,20-58.63,19.25-195.31,17.76-180.67,18.11-182.94Z"></path><path fill="url(#e)" d="M356.25,146.66l-6.51,66H135.12c7-71.06,6.26-63.91,6.59-66Z" style="mix-blend-mode:multiply"></path><path fill="#5e6175" d="M318.1,391.24h-218l.76-4.44L120.66,329c19.83-201.3,17.59-179.57,18.48-185.29H356.25v6H144.35L126.56,330.25l-18.87,55H318.1Z"></path><path fill="#5e6175" d="M399.27,391.24H318.11v-6h72.71l-19.2-55c-.06-.64-16.79-182.53-16.86-183.31l1.49-.13v-3.14h4.24l17,185.29Z"></path><path fill="#f5f5f5" d="M140.75,146.67l-16.42,48.65H341.47c16.12-52.34,14.47-46.7,14.78-48.65Z"></path><path fill="#5e6175" d="M343.69,198.32H120.15l18.45-54.65H359.76l-.86,5.24Zm-215.18-6H339.26l13.13-42.65H142.9Z"></path><path fill="#dee1ec" d="M216.15,108.55l-8,11.48A10.73,10.73,0,0,0,207,130.2l3.71,9.1a10.72,10.72,0,0,0,5.9,5.89l17,6.9a25.08,25.08,0,0,1,15.59,25.22l-1.32,16.8L183.12,171a23.7,23.7,0,0,1-9.87-6.71l-38.43-42.65Z"></path><path fill="#5e6175" d="M250.6,198.25l-68.49-24.39A26.67,26.67,0,0,1,171,166.3l-38.4-42.61,4.46-4,38.43,42.64a20.81,20.81,0,0,0,8.64,5.89L245.23,190l1-12.89a22,22,0,0,0-13.72-22.21l-17-6.9a13.79,13.79,0,0,1-7.55-7.54l-3.71-9.1a13.71,13.71,0,0,1,1.45-13l8-11.49,4.93,3.43-8,11.48a7.71,7.71,0,0,0-.81,7.33l3.71,9.1a7.79,7.79,0,0,0,4.25,4.24l17,6.9a28,28,0,0,1,17.45,28.24Z"></path><path fill="#5e6175" d="M250.6,198.25l-68.49-24.39A26.67,26.67,0,0,1,171,166.3l4.52-4a20.73,20.73,0,0,0,8.61,5.86L245.23,190l1-12.89a22,22,0,0,0-13.72-22.21l-17-6.9a13.79,13.79,0,0,1-7.55-7.54l5.56-2.26a7.79,7.79,0,0,0,4.25,4.24l17,6.9a28,28,0,0,1,17.45,28.24Z"></path><path fill="#dee1ec" d="M273.94,423a18.22,18.22,0,0,1,0-36.43h23.3a52.91,52.91,0,0,0,24.28-5.9,52.9,52.9,0,0,1,50.55,1.09c11.83,6.77,7.94,4.48,17.24,10.1H476v76l-94.07-17.73L307.1,473.68a58.41,58.41,0,0,1-35-.74l-96.1-33a20.1,20.1,0,0,1,12.41-38.24l64.63,20.52a18.09,18.09,0,0,0,5.42.83Z"></path><path fill="#5e6175" d="M271.18,475.78l-96.11-33a23.1,23.1,0,0,1,14.27-43.93L254,419.35a16,16,0,0,0,5.19.69,21.2,21.2,0,0,1,14.77-36.43h23.3a50.13,50.13,0,0,0,22.9-5.56,55.66,55.66,0,0,1,53.42,1.15c11.83,6.76,8.11,4.58,16.58,9.7H476v6H388.47c-10.19-6.16-6.14-3.77-17.89-10.5a49.74,49.74,0,0,0-47.69-1,56.1,56.1,0,0,1-25.65,6.23h-23.3a15.22,15.22,0,1,0,0,30.43h42.48v6H258.5a21.16,21.16,0,0,1-6.32-1l-64.64-20.52c-14.35-4.48-26.94,10.45-20.46,23.79a16.92,16.92,0,0,0,9.92,8.74l96.12,33a55.2,55.2,0,0,0,33.14.7l75.48-23.73,94.82,17.86-1.12,5.9-93.33-17.59L308,476.55A61.28,61.28,0,0,1,271.18,475.78Z"></path><path fill="#e1830e" d="M228 251.13c1.64-11.72-3.16-24-11.2-24s-16.27 12.27-17.91 24c-1.37 9.86 2.36 16.18 8.37 17.93l-12.95 63.43a6.65 6.65 0 006.62 8.3 9.24 9.24 0 008.94-8.3l4.77-63.43C221.16 267.31 226.66 261 228 251.13zM275.45 227.14a3.74 3.74 0 00-3.59 3.15l-2.3 16.46a3.9 3.9 0 01-3.74 3.28 2.79 2.79 0 01-2.83-3.28l2.3-16.46a2.68 2.68 0 00-2.71-3.15h-.4a3.74 3.74 0 00-3.59 3.15l-2.3 16.46a3.9 3.9 0 01-3.74 3.28 2.79 2.79 0 01-2.83-3.28l2.3-16.46a2.68 2.68 0 00-2.71-3.15 3.74 3.74 0 00-3.59 3.15l-3 21.44c-1.07 7.73 3.42 14.19 10.42 15.82l-13.25 64.94a6.66 6.66 0 006.62 8.3 9.24 9.24 0 008.94-8.3l4.88-64.94a19.42 19.42 0 0014.84-15.82l3-21.44A2.68 2.68 0 00275.45 227.14z"></path><path fill="#5e6175" d="M322.64 99.84a12.67 12.67 0 1112.43-10.35h0A12.67 12.67 0 01322.64 99.84zm0-19.34a6.67 6.67 0 103.79 12.17 6.61 6.61 0 002.78-4.28h0A6.68 6.68 0 00322.6 80.5zM269.2 40.94a9.71 9.71 0 1115.05 9.78A9.71 9.71 0 01269.2 40.94zM278.74 39a3.71 3.71 0 102.12 6.77A3.71 3.71 0 00278.74 39z"></path><rect width="18.43" height="6" x="75.42" y="403.49" fill="#5e6175" transform="rotate(-45 84.626 406.497)"></rect><rect width="6" height="18.43" x="103.34" y="409.63" fill="#5e6175"></rect><rect width="18.43" height="6" x="62.56" y="382.9" fill="#5e6175"></rect><circle cx="379.88" cy="183.17" r="63.75" fill="#f5f5f5"></circle><path fill="#a9afc4" d="M417.9,262.85l-2.58-5.41c1.73-.83,3.46-1.73,5.13-2.68l3,5.22C421.62,261,419.76,262,417.9,262.85Zm14.19-8.49-3.55-4.84c1.55-1.14,3.08-2.35,4.54-3.59l3.88,4.58C435.39,251.84,433.75,253.13,432.09,254.36Zm12.36-11-4.39-4.09c1.31-1.4,2.58-2.87,3.8-4.37l4.66,3.78C447.22,240.29,445.85,241.87,444.45,243.37Zm10.1-13.09-5.07-3.21c1-1.63,2-3.31,2.92-5l5.28,2.84C456.71,226.73,455.66,228.53,454.55,230.28ZM462,215.53l-5.58-2.2c.7-1.79,1.35-3.63,1.93-5.45l5.72,1.79C463.5,211.63,462.8,213.6,462,215.53Zm4.59-15.9-5.9-1.11c.36-1.89.65-3.81.87-5.72l6,.69C467.32,195.54,467,197.61,466.63,199.63Zm1.53-16.46h-6c0-1.92-.07-3.87-.2-5.78l6-.42C468.09,179,468.16,181.11,468.16,183.17Zm-7.43-15.34c-.36-1.9-.79-3.79-1.27-5.65l5.8-1.52c.52,2,1,4,1.37,6.05ZM456.46,153c-.7-1.78-1.48-3.57-2.31-5.29l5.42-2.59c.88,1.85,1.72,3.76,2.47,5.68Zm-7-13.73c-1-1.62-2.12-3.23-3.26-4.78l4.84-3.55c1.22,1.66,2.39,3.39,3.5,5.13Zm-9.41-12.2c-1.31-1.41-2.69-2.78-4.09-4.09l4.09-4.39c1.51,1.4,3,2.88,4.39,4.39Zm-11.51-10.25c-1.55-1.14-3.16-2.24-4.79-3.26l3.21-5.07c1.74,1.1,3.47,2.28,5.13,3.5Zm-13.22-7.93c-1.74-.83-3.53-1.61-5.31-2.31l2.2-5.58c1.92.75,3.83,1.59,5.7,2.48Zm-14.48-5.31c-1.85-.49-3.75-.92-5.64-1.27l1.11-5.9c2,.38,4.07.84,6.06,1.37Zm-15.2-2.5c-1.91-.13-3.86-.2-5.79-.2v-6c2.07,0,4.15.07,6.2.21Z"></path><path fill="#5e6175" d="M379.88,249.92a66.75,66.75,0,1,1,66.75-66.75A66.83,66.83,0,0,1,379.88,249.92Zm0-127.5a60.75,60.75,0,1,0,60.75,60.75A60.82,60.82,0,0,0,379.88,122.42Z"></path><polygon fill="#e08326" points="368.88 212.57 341.94 185.63 351.8 175.78 368.88 192.86 407.97 153.77 417.83 163.62 368.88 212.57"></polygon></g></svg>