<svg xmlns="http://www.w3.org/2000/svg" xmlns:xlink="http://www.w3.org/1999/xlink" viewBox="0 0 512 512" id="forklift"><defs><linearGradient id="a" x1="358.81" x2="476" y1="356.91" y2="356.91" gradientUnits="userSpaceOnUse"><stop offset="0" stop-color="#cacfdd"></stop><stop offset="1" stop-color="#eef0f1"></stop></linearGradient><linearGradient xlink:href="#a" id="b" x1="203.62" x2="203.62" y1="287.25" y2="112.62"></linearGradient><linearGradient xlink:href="#a" id="c" x1="201.32" x2="201.32" y1="231.92" y2="346.62"></linearGradient><linearGradient xlink:href="#a" id="d" x1="126.92" x2="126.92" y1="287.25" y2="112.62"></linearGradient></defs><g style="isolation:isolate"><path fill="#dee1ec" d="M94.42,224.61h41.31v68.63H288.4l42,55.44V378H94.42A28.92,28.92,0,0,1,65.5,349.06V253.53A28.92,28.92,0,0,1,94.42,224.61Z"></path><rect width="28.45" height="252.68" x="330.36" y="151.65" fill="#e08326"></rect><path fill="url(#a)" d="M456.91,386.07H379.16V309.49H358.81v94.85H476Z"></path><path fill="#5e6175" d="M361.81,407.34H327.36V148.65h34.45Zm-28.45-6h22.45V154.65H333.36Z"></path><path fill="#5e6175" d="M483.48,407.33H355.81V306.49h26.35v76.58h75.95Zm-121.67-6H468.52L455.7,389.07H376.16V312.49H361.81Z"></path><rect width="298.76" height="6" x="59.34" y="432.66" fill="#5e6175"></rect><path fill="url(#b)" d="M118.12,106h123a48,48,0,0,1,48,48V293.24H270.4V154a48,48,0,0,0-48-48Z"></path><path fill="#e08326" d="M135.73,293.24v-118h15.75a21.87,21.87,0,0,1,21.87,21.87v58.35h33.57A21.89,21.89,0,0,1,228.8,277.3v15.94Z"></path><path fill="#5e6175" d="M231.79,296.24H132.73v-124h18.75a24.9,24.9,0,0,1,24.87,24.87v55.35h30.57a24.9,24.9,0,0,1,24.87,24.88Zm-93.06-6h87.06V277.3a18.89,18.89,0,0,0-18.87-18.88H170.35V197.07a18.9,18.9,0,0,0-18.87-18.87H138.73Z"></path><rect width="53.34" height="6" x="127.82" y="271.28" fill="#5e6175" transform="rotate(-45 154.493 274.287)"></rect><polygon fill="#5e6175" points="228.79 293.24 228.79 252.46 238.16 243.1 238.16 224.61 256.42 206.34 270.4 206.34 270.4 293.24 228.79 293.24"></polygon><rect width="6" height="25.83" x="237.47" y="193.21" fill="#5e6175" transform="rotate(-45 240.482 206.13)"></rect><rect width="13.31" height="45.35" x="219.79" y="169.7" fill="#5e6175" rx="5.65" transform="rotate(45 226.436 192.373)"></rect><path fill="url(#c)" d="M300.51,309.24l-12.11-16H135.73V224.6H102.12v7.2a8.8,8.8,0,0,0,8.8,8.8,8.81,8.81,0,0,1,8.81,8.81v51a8.8,8.8,0,0,0,8.8,8.8Z" style="mix-blend-mode:multiply"></path><rect width="17.61" height="118.6" x="118.12" y="106.01" fill="url(#d)"></rect><path fill="#5e6175" d="M292.13,296.24H267.4V154a45,45,0,0,0-45-45H118.12v-6h123a51,51,0,0,1,51,51Zm-18.73-6h12.73V154a45,45,0,0,0-39-44.58A51,51,0,0,1,273.4,154Z"></path><path fill="#5e6175" d="M138.73,227.61H115.12V103h23.61Zm-17.61-6h11.61V109H121.12Z"></path><path fill="#a9afc4" d="M449.19,364.76h-6v-6h6Zm-16,0h-6v-6h6Zm-16.34-.13a20.72,20.72,0,0,1-6.71-1.95l2.63-5.4a14.66,14.66,0,0,0,4.76,1.39ZM401.59,355a20.37,20.37,0,0,1-2.63-6.47l5.86-1.28a14.78,14.78,0,0,0,1.86,4.59Zm2.89-17.08h-6v-6h6Zm0-16h-6v-6h6Zm0-16h-6v-6h6ZM397.69,291a14.53,14.53,0,0,0-2.38-4.35l4.71-3.72a20.52,20.52,0,0,1,3.35,6.12Zm-9.05-9.12a14.44,14.44,0,0,0-4.89-.83v-6a20.65,20.65,0,0,1,6.89,1.17Z"></path><path fill="#5e6175" d="M409.86 254a11.4 11.4 0 01-9.38-17.83 11.25 11.25 0 017.3-4.74h0A11.38 11.38 0 11409.86 254zm0-16.77a5.38 5.38 0 104.43 8.43A5.38 5.38 0 00409.86 237.22zM448.38 289.43A8.82 8.82 0 11457.05 279 8.83 8.83 0 01448.38 289.43zM446.06 279a2.82 2.82 0 105.09 1.08A2.82 2.82 0 00446.06 279z"></path><rect width="6" height="16.82" x="52.69" y="208.26" fill="#5e6175" transform="rotate(-45 55.689 216.673)"></rect><rect width="16.82" height="6" x="36" y="233.5" fill="#5e6175"></rect><rect width="6" height="16.82" x="71.49" y="196.53" fill="#5e6175"></rect><rect width="26.38" height="26.38" x="65.5" y="314.56" fill="#e1830e"></rect><path fill="#5e6175" d="M333.36,381H94.42A32,32,0,0,1,62.5,349.06V253.53a32,32,0,0,1,31.92-31.92h44.31v68.63H289.89l43.47,57.43ZM94.42,227.61A26,26,0,0,0,68.5,253.53v95.53A26,26,0,0,0,94.42,375H327.36V349.69l-40.45-53.45H132.73V227.61Z"></path><circle cx="271.01" cy="393.44" r="42.22" fill="#5e6175"></circle><circle cx="135.73" cy="393.44" r="42.22" fill="#5e6175"></circle><circle cx="135.73" cy="393.44" r="15.45" fill="#f5f5f5"></circle><circle cx="271.01" cy="393.44" r="15.45" fill="#f5f5f5"></circle><path fill="#e1830e" d="M367.44 126.51a22.43 22.43 0 0122.43 22.43 22.41 22.41 0 0122.42-22.43 22.42 22.42 0 01-22.42-22.43A22.43 22.43 0 01367.44 126.51zM289.13 87.64a11.3 11.3 0 0111.3 11.29 11.28 11.28 0 0111.29-11.29 11.29 11.29 0 01-11.29-11.3A11.3 11.3 0 01289.13 87.64z"></path></g></svg>