<svg xmlns="http://www.w3.org/2000/svg" xmlns:xlink="http://www.w3.org/1999/xlink" viewBox="0 0 512 512" id="fragile"><defs><linearGradient id="a" x1="253.05" x2="253.05" y1="424.83" y2="62.82" gradientUnits="userSpaceOnUse"><stop offset="0" stop-color="#cacfdd"></stop><stop offset="1" stop-color="#eef0f1"></stop></linearGradient><linearGradient xlink:href="#a" id="b" x1="316.47" x2="407.01" y1="360.8" y2="360.8"></linearGradient><linearGradient xlink:href="#a" id="c" x1="99.09" x2="171.26" y1="171.96" y2="171.96"></linearGradient><linearGradient id="d" x1="99.09" x2="99.09" y1="87.58" y2="215.4" gradientUnits="userSpaceOnUse"><stop offset="0" stop-color="#a9afc4"></stop><stop offset="1" stop-color="#d4d8e5"></stop></linearGradient></defs><g style="isolation:isolate"><path fill="url(#a)" d="M99.09,119.09V405.74H407V119.09Z"></path><polygon fill="#e08326" points="212.11 119.09 212.11 195.24 225.76 185.56 239.44 195.24 253.09 185.56 266.71 195.24 280.36 185.56 293.98 195.24 293.98 119.09 212.11 119.09"></polygon><polygon fill="url(#b)" points="407.01 330.73 407.01 405.74 332 405.74 316.47 369.15 353.7 353.35 368.86 315.86 406.35 331.01 407.01 330.73" style="mix-blend-mode:multiply"></polygon><rect width="74.88" height="18.61" x="125.71" y="360.23" fill="#5e6175"></rect><path fill="#5e6175" d="M142.28 294.65c-.1 0 .24-.27-16.57 17.29H134v35.18h16.59V311.94h8.28zM183.32 294.65c-.1 0 .24-.27-16.57 17.29H175v35.18H191.6V311.94h8.29zM397.13 97.41A11.93 11.93 0 11408.53 82 12 12 0 01397.13 97.41zm-5.25-14.73a5.94 5.94 0 1010.91 1.06A6 6 0 00391.88 82.68zM442.51 130.31a9.2 9.2 0 118.79-11.89A9.21 9.21 0 01442.51 130.31zm-2.83-10.71a3.2 3.2 0 105.88.57A3.21 3.21 0 00439.68 119.6z"></path><rect width="18.94" height="6" x="72.36" y="420.28" fill="#5e6175" transform="rotate(-45 81.823 423.268)"></rect><rect width="6" height="18.94" x="101.14" y="426.5" fill="#5e6175"></rect><rect width="18.93" height="6" x="59.15" y="399.11" fill="#5e6175"></rect><path fill="#e1830e" d="M166.26 61.37a24.1 24.1 0 0124.1 24.1 24.11 24.11 0 0124.1-24.1 24.1 24.1 0 01-24.1-24.1A24.1 24.1 0 01166.26 61.37zM280.37 451.21a15 15 0 0115 15 15.06 15.06 0 0115-15 15 15 0 01-15-15A15 15 0 01280.37 451.21z"></path><path fill="#a9afc4" d="M79,288.16c-8,0-8,0,0,0Zm0-10H73v-6h6Zm0-16H73v-6h6Zm0-16H73a44.85,44.85,0,0,0-.17-5.65l6-.68A48.84,48.84,0,0,1,79,246.12Zm-8.69-14.2a26.63,26.63,0,0,0-2.86-4.56l4.72-3.69a32.84,32.84,0,0,1,3.52,5.59Zm-9.53-10.63c-1.7-1.15-3.39-2.36-5-3.61l3.64-4.76c1.53,1.17,3.12,2.32,4.73,3.4ZM47.91,211c-1.51-1.42-3-2.89-4.37-4.38l4.38-4.1c1.31,1.4,2.69,2.78,4.11,4.12Zm-11-12.32a52.61,52.61,0,0,1-3.54-5.34l5.26-2.89a48.8,48.8,0,0,0,3.11,4.67Z"></path><path fill="#5e6175" d="M410,408.74H96.09V116.09H410Zm-307.92-6H404V122.09H102.09Z"></path><polygon fill="#f5f5f5" points="377.93 337.24 406.51 348.79 434.88 336.74 446.93 365.12 475.5 376.66 463.96 405.24 476 433.61 447.63 445.65 436.08 474.23 407.5 462.69 379.13 474.73 367.09 446.36 338.51 434.81 350.06 406.23 338.01 377.86 366.38 365.82 377.93 337.24"></polygon><path fill="#5e6175" d="M377.54,478.66l-12.73-30-30.2-12.2,12.2-30.21-12.73-30,30-12.73,12.2-30.21,30.21,12.21,30-12.73,12.73,30L479.41,375,467.2,405.21l12.73,30-30,12.73-12.2,30.21-30.21-12.21Zm-35.12-45.51L369.36,444l11.36,26.76,26.76-11.36,26.94,10.89,10.89-26.95L472.07,432l-11.36-26.75,10.89-26.95-27-10.89-11.36-26.75L406.54,352l-27-10.88L368.7,368.09,342,379.45l11.35,26.76Z"></path><path fill="#e08326" d="M412,412.93v21.72h4.6a7.5,7.5,0,0,1,7.5,7.5h-32a7.51,7.51,0,0,1,7.51-7.5h5.07V413a19.89,19.89,0,0,1-16.49-19.6V369.32h16.21l-6.11,15.13h9.08l-6,15.73,16.53-20.91h-9.8l6.05-9.95H428V393.4A19.89,19.89,0,0,1,412,412.93Z"></path><path fill="url(#c)" d="M171.26,138.37A82,82,0,0,1,159.94,180l.76.84-9,11c-12,14.62-28.43,25.51-47.51,31.5-5.18,1.61-5,1.58-5.1,1.58V119.08h72.17Z" style="mix-blend-mode:multiply"></path><path fill="#f5f5f5" d="M154.83,87.21,99.09,69.44,43.35,87.21v51.15c0,31.06,22.24,58.77,55.56,69.22.23.07.14.07.36,0A83.51,83.51,0,0,0,139,181.34v0a67.38,67.38,0,0,0,15.83-42.95Z"></path><path fill="url(#d)" d="M135.06,101.66l-36-11.48-36,11.51v36.67c0,20.53,14.22,39.32,36,48.29a62.08,62.08,0,0,0,25.83-19.4h0a47.48,47.48,0,0,0,10.15-28.87Z"></path><path fill="#f5f5f5" d="M124.92,167.24c-1,1.28-2,2.53-3.12,3.74Q123.45,169.17,124.92,167.24Z"></path><path fill="#5e6175" d="M99.09,210.78c-38-11.91-58.74-42.08-58.74-72.42V85L99.09,66.29,157.83,85v53.35A69.69,69.69,0,0,1,143,181.1l0,0-1.71,2.11C130.08,197,115.55,205.63,99.09,210.78ZM46.35,89.41v49c0,29.44,21.16,55.93,52.74,66.13,30-9.7,52.74-35.22,52.74-66.12v-49L99.09,72.59Z"></path></g></svg>