<svg xmlns="http://www.w3.org/2000/svg" xmlns:xlink="http://www.w3.org/1999/xlink" viewBox="0 0 512 512" id="free-shipping"><defs><linearGradient id="a" x1="319.49" x2="319.49" y1="413.38" y2="180.05" gradientUnits="userSpaceOnUse"><stop offset="0" stop-color="#cacfdd"></stop><stop offset="1" stop-color="#eef0f1"></stop></linearGradient><linearGradient xlink:href="#a" id="b" x1="319.49" x2="319.49" y1="413.38" y2="180.05"></linearGradient><linearGradient xlink:href="#a" id="c" x1="297.35" x2="344.47" y1="232.2" y2="232.2"></linearGradient><linearGradient xlink:href="#a" id="d" x1="345.69" x2="418.72" y1="364.56" y2="364.56"></linearGradient></defs><g><path fill="#e08326" d="M259.64 231.32c-.32-1.24-45.66 21.31-114.67 21.31H98a11.48 11.48 0 000 22.95h43.57a10 10 0 010 19.9H71.45a12.86 12.86 0 000 25.72h89.86a11.24 11.24 0 110 22.47H124a12 12 0 000 24.07H153c63.93 0 106.27 19.43 106.68 18.33 51.79 15.36 103.69-23.51 103.69-77.38S311.49 215.94 259.64 231.32zM73.43 367.12h-26a11.48 11.48 0 010-22.95h26a11.48 11.48 0 110 22.95z"></path><path fill="url(#a)" d="M220.26,216.31V401.07H418.72V216.31Z"></path><path fill="url(#b)" d="M220.26,216.31V401.07H418.72V216.31Z"></path><polygon fill="#e08326" points="293.11 216.33 293.11 265.41 301.91 259.17 310.73 265.41 319.52 259.17 328.3 265.41 337.1 259.17 345.88 265.41 345.88 216.33 293.11 216.33"></polygon><rect width="49.4" height="19.82" x="246.01" y="362.88" fill="#5e6175"></rect><polygon fill="url(#c)" points="344.47 216.33 320.92 248.07 297.35 216.33 344.47 216.33" style="mix-blend-mode:multiply"></polygon><path fill="url(#d)" d="M418.72,328v73h-73A73,73,0,0,1,418.72,328Z" style="mix-blend-mode:multiply"></path><path fill="#5e6175" d="M421.72,404.07H217.26V213.31H421.72Zm-198.46-6H415.72V219.31H223.26Z"></path><circle cx="418.71" cy="401.07" r="57.28" fill="#f5f5f5"></circle><path fill="#5e6175" d="M418.71,461.33A60.27,60.27,0,1,1,479,401.07,60.08,60.08,0,0,1,418.71,461.33Zm0-114.54A54.29,54.29,0,1,0,473,401.07,54.25,54.25,0,0,0,418.71,346.79Z"></path><path fill="#e1830e" d="M420.29,367.66a23.47,23.47,0,0,0-23,33c.93,2.07,21.44,33.92,21.44,33.92,11.15-17.31,21.64-34,21.45-34A23.51,23.51,0,0,0,420.29,367.66Zm-1.57,32.23a10.49,10.49,0,1,1,10.49-10.49A10.49,10.49,0,0,1,418.72,399.89Z"></path><path fill="#f5f5f5" d="M125.52,83.52h245a24.14,24.14,0,0,1,24.15,24.14v63.07a24.15,24.15,0,0,1-24.15,24.15H342.1l-21.19,28.54-21.18-28.54H125.52a24.15,24.15,0,0,1-24.15-24.15V107.66A24.14,24.14,0,0,1,125.52,83.52Z"></path><path fill="#5e6175" d="M320.91,228.45l-22.69-30.57H125.52a27.18,27.18,0,0,1-27.15-27.15V107.67a27.18,27.18,0,0,1,27.15-27.15h245a27.18,27.18,0,0,1,27.15,27.15v63.06a27.18,27.18,0,0,1-27.15,27.15H343.61ZM125.52,86.52a21.17,21.17,0,0,0-21.15,21.15v63.06a21.18,21.18,0,0,0,21.15,21.15H301.24l19.67,26.51,19.68-26.51h30a21.18,21.18,0,0,0,21.15-21.15V107.67a21.17,21.17,0,0,0-21.15-21.15Z"></path><polygon fill="#a9afc4" points="183.71 112.66 135.19 112.66 135.19 164.49 143.94 164.49 143.94 121.42 183.71 121.42 183.71 112.66"></polygon><polygon fill="#a9afc4" points="300 164.49 251.48 164.49 251.48 112.66 300 112.66 300 121.42 260.23 121.42 260.23 155.74 300 155.74 300 164.49"></polygon><rect width="29.58" height="8.75" x="255.85" y="134.2" fill="#a9afc4"></rect><polygon fill="#a9afc4" points="360.88 164.49 312.35 164.49 312.35 112.66 360.88 112.66 360.88 121.42 321.1 121.42 321.1 155.74 360.88 155.74 360.88 164.49"></polygon><rect width="29.58" height="8.75" x="316.73" y="134.2" fill="#a9afc4"></rect><rect width="29.58" height="8.75" x="139.69" y="134.2" fill="#a9afc4"></rect><path fill="#a9afc4" d="M213.76,142.38h9a14.91,14.91,0,1,0,0-29.81H195v51.92h8V144.1l22.14,20.39h13.17ZM203,120.58h19.77a6.9,6.9,0,1,1,0,13.79H203Z"></path><rect width="15.39" height="6" x="397.16" y="68.66" fill="#5e6175" transform="rotate(-45 404.85 71.655)"></rect><rect width="6" height="15.39" x="383.71" y="53.64" fill="#5e6175"></rect><rect width="15.39" height="6" x="407.89" y="85.86" fill="#5e6175"></rect><path fill="#5e6175" d="M176.31 411a10.83 10.83 0 01-3.18-21.19h0A10.83 10.83 0 11176.31 411zm-1.43-15.45a4.83 4.83 0 105.68 6.89 4.82 4.82 0 00-5.68-6.89zM216.08 439.86a8.45 8.45 0 01-7.46-12.4 8.35 8.35 0 015-4.1h0a8.44 8.44 0 112.48 16.5zm-.73-10.77a2.44 2.44 0 102.87 3.48 2.44 2.44 0 00-2.87-3.48z"></path><path fill="#a9afc4" d="M454.79,333.28h-6v-4.13h6Zm0-14.13h-6v-6h6Zm0-16h-6v-6h6Zm0-16h-6v-6h6Zm0-16h-6v-6h6Zm0-16h-6v-6h6Zm0-16h-6v-6h6Zm0-16h-6v-6h6Zm0-16h-6v-6h6Zm0-16h-6v-6h6Zm-6-15.87a31.42,31.42,0,0,0-.71-5.41l5.85-1.31a35.94,35.94,0,0,1,.85,6.47Zm-4-13.87a30.68,30.68,0,0,0-3.12-4.48l4.6-3.85a36.68,36.68,0,0,1,3.73,5.36Zm-9.91-10.51a31.22,31.22,0,0,0-4.81-2.56l2.33-5.53a37,37,0,0,1,5.76,3.07Zm-13.6-4.79a49.71,49.71,0,0,0-5.69-.16v-6a54.7,54.7,0,0,1,6.29.19Z"></path></g></svg>