<svg xmlns="http://www.w3.org/2000/svg" xmlns:xlink="http://www.w3.org/1999/xlink" viewBox="0 0 512 512" id="glue"><defs><linearGradient id="a" x1="72.23" x2="124.87" y1="408.53" y2="408.53" gradientUnits="userSpaceOnUse"><stop offset="0" stop-color="#cacfdd"></stop><stop offset="1" stop-color="#eef0f1"></stop></linearGradient><linearGradient xlink:href="#a" id="b" x1="112.45" x2="167.32" y1="367.2" y2="367.2"></linearGradient><linearGradient xlink:href="#a" id="c" x1="90.87" x2="146.38" y1="388.45" y2="388.45"></linearGradient><linearGradient xlink:href="#a" id="d" x1="332.37" x2="345.61" y1="388.75" y2="388.75"></linearGradient><linearGradient xlink:href="#a" id="e" x1="367.94" x2="381.18" y1="388.75" y2="388.75"></linearGradient></defs><g style="isolation:isolate"><path fill="#f5f5f5" d="M115.9,309.38,354.09,71.18a19.5,19.5,0,0,1,27.57,0l54.23,54.24a19.47,19.47,0,0,1,0,27.56L197.7,391.18a16.39,16.39,0,0,1-23.18,0L115.9,332.56A16.39,16.39,0,0,1,115.9,309.38Z"></path><path fill="#5e6175" d="M172.4 393.3l-58.62-58.62a19.37 19.37 0 010-27.42L352 69.06a22.52 22.52 0 0131.81 0L438 123.3a22.51 22.51 0 010 31.8L199.82 393.3A19.41 19.41 0 01172.4 393.3zm183.81-320L118 311.5a13.38 13.38 0 000 18.94l58.62 58.62a13.41 13.41 0 0018.94 0l238.19-238.2a16.51 16.51 0 000-23.32L379.54 73.3A16.52 16.52 0 00356.21 73.3zM476 449.53H36v-6H476C476 450.45 475.94 439.38 476 449.53z"></path><rect width="277.97" height="115.7" x="143.28" y="166.96" fill="#dee1ec" transform="rotate(-45 282.27 224.81)"></rect><path fill="#5e6175" d="M224.89,368.24l-86-86.06L339.63,81.39l86.06,86.05Zm-77.57-86.06,77.57,77.57L417.2,167.44,339.63,89.87Z"></path><path fill="#5e6175" d="M225.62,281.45a18.59,18.59,0,0,1,0-26.29l87-87a18.59,18.59,0,0,1,26.3,26.29l-87,87A18.57,18.57,0,0,1,225.62,281.45Z"></path><path fill="#dee1ec" d="M110.06,433.17,73.9,397a5.7,5.7,0,0,1,0-8.05l49.2-49.2L167.31,384l-49.2,49.2A5.68,5.68,0,0,1,110.06,433.17Z"></path><path fill="url(#a)" d="M124.87,426.42l-6.75,6.75a5.68,5.68,0,0,1-8.05,0L73.91,397a5.68,5.68,0,0,1,0-8.05l6.75-6.75C81,382.72,124.26,426,124.87,426.42Z" style="mix-blend-mode:multiply"></path><path fill="url(#b)" d="M167.32,384l-10.66,10.66c-.34-.45-43.67-43.8-44.21-44.21l10.66-10.66Z" style="mix-blend-mode:multiply"></path><path fill="url(#c)" d="M146.38,404.9l-11.3,11.3c-.33-.45-43.66-43.8-44.21-44.21l11.3-11.3Z" style="mix-blend-mode:multiply"></path><path fill="#f5f5f5" d="M145.79 404.25l-43-43A7.27 7.27 0 11113.11 351l43 43a7.27 7.27 0 11-10.28 10.28zM124.2 425.84l-43-43A7.27 7.27 0 0191.52 372.6l43 43a7.27 7.27 0 11-10.28 10.28z"></path><path fill="#5e6175" d="M107.94 435.29L71.78 399.13a8.68 8.68 0 010-12.29L81 377.62c3.13 4.24-4.22-3.43 45.32 46.1a34.42 34.42 0 003.13 2.36l-9.21 9.21A8.68 8.68 0 01107.94 435.29zM80.61 386.5L76 391.08a2.67 2.67 0 000 3.8l36.17 36.17a2.73 2.73 0 003.8 0l4.59-4.59zM156.32 399.21a27.61 27.61 0 00-2.37-3.12C107.86 350 110.87 353 110.66 352.83l-2.8-2.07 15.25-15.24L171.56 384zm-39.59-48.83l40 40 6.37-6.38-40-40zM134.74 420.79a27.69 27.69 0 00-2.36-3.12c-48.29-48.3-41.78-42.14-46.08-45.34l15.87-15.88 48.46 48.45zM95.15 372l40 40 7-7-40-40z"></path><path fill="#5e6175" d="M150.93 409.38a10.2 10.2 0 01-7.26-3l-43-43a10.27 10.27 0 1114.53-14.53l43 43A10.29 10.29 0 01150.93 409.38zm-43-57.5a4.27 4.27 0 00-3 7.29l43 43a4.28 4.28 0 007.29-3 4.22 4.22 0 00-1.25-3l-43-43A4.26 4.26 0 00108 351.88zM129.34 431a10.24 10.24 0 01-7.27-3l-43-43a10.27 10.27 0 0114.53-14.53l43 43A10.28 10.28 0 01129.34 431zm-3-7.25a4.27 4.27 0 106-6l-43-43a4.27 4.27 0 10-6.05 6z"></path><path fill="#f5f5f5" d="M78.09,441.44,65.64,429a17.39,17.39,0,0,1,0-24.59l7.82-7.82,37,37-7.82,7.83A17.39,17.39,0,0,1,78.09,441.44Z"></path><path fill="#5e6175" d="M76,443.56,63.52,431.1a20.41,20.41,0,0,1,0-28.83l9.94-9.94,41.28,41.28-9.94,9.95A20.38,20.38,0,0,1,76,443.56Zm-2.51-42.74-5.7,5.7a14.39,14.39,0,0,0,0,20.34l12.45,12.45a14.37,14.37,0,0,0,20.35,0l5.7-5.7Z"></path><path fill="#a9afc4" d="M418.34 204.78l-4.25-4.24 4.25-4.25 4.24 4.25zm11.31-11.32l-4.24-4.24 4.24-4.24 4.24 4.24zM441 182.15l-4.24-4.24 4.24-4.24 4.25 4.24zm11.32-11.31L448 166.59a46.51 46.51 0 003.86-4.16l4.66 3.77A51.84 51.84 0 01452.28 170.84zm9.94-13.73l-5.45-2.52a37.43 37.43 0 002-5.2l5.76 1.69A43.8 43.8 0 01462.22 157.11zm4-16.6l-6-.24a36.7 36.7 0 00-.18-5.55l6-.64A45.1 45.1 0 01466.22 140.51zM458 125.71a38.87 38.87 0 00-2.29-5l5.27-2.87a43.44 43.44 0 012.65 5.86zm-7.67-12.57c-.72-.77-.93-1-4.13-4.17l4.24-4.25c3 3 3.49 3.48 4.3 4.36zm-11.2-11.24l-4.25-4.25 4.25-4.24 4.24 4.24zM404.62 446.53h-97.1V341.37A10.41 10.41 0 01317.93 331h76.28a10.41 10.41 0 0110.41 10.41z"></path><rect width="13.24" height="115.56" x="332.37" y="330.96" fill="url(#d)" style="mix-blend-mode:multiply"></rect><rect width="13.24" height="115.56" x="367.94" y="330.96" fill="url(#e)" style="mix-blend-mode:multiply"></rect><path fill="#a9afc4" d="M390.62,331c-70.39,0-68.39-.1-68.39,0a18.18,18.18,0,0,1,18.17-18.17h32.05A18.18,18.18,0,0,1,390.62,331Z"></path><path fill="#5e6175" d="M393.62,334H319.23v-3a21.2,21.2,0,0,1,21.17-21.17h32.05A21.2,21.2,0,0,1,393.62,331Zm-68.09-6h61.79a15.2,15.2,0,0,0-14.87-12.17H340.4A15.21,15.21,0,0,0,325.53,328Z"></path><path fill="#5e6175" d="M407.62 449.53H304.52V341.37A13.43 13.43 0 01317.93 328h76.28a13.43 13.43 0 0113.41 13.41zm-97.1-6h91.1V341.37a7.42 7.42 0 00-7.41-7.41H317.93a7.42 7.42 0 00-7.41 7.41zM63.62 308.29a15.33 15.33 0 01-15-12.34h0a15.34 15.34 0 1115 12.34zM54.5 294.78a9.34 9.34 0 1014.35-9.6 9.33 9.33 0 00-14.35 9.6zM118.57 254.43a10.13 10.13 0 1110-12.12A10.14 10.14 0 01118.57 254.43zm0-14.27a4.13 4.13 0 104.05 3.33A4.14 4.14 0 00118.6 240.16z"></path><path fill="#e1830e" d="M390.62 265.61a26.47 26.47 0 0126.47 26.46 26.44 26.44 0 0126.46-26.46 26.47 26.47 0 01-26.46-26.47A26.47 26.47 0 01390.62 265.61zM281.05 85a10.59 10.59 0 0110.59 10.58A10.57 10.57 0 01302.23 85a10.59 10.59 0 01-10.59-10.59A10.59 10.59 0 01281.05 85z"></path></g></svg>