<svg xmlns="http://www.w3.org/2000/svg" viewBox="0 0 512 512" id="graphic-tablet"><g id="Graphic_tablet"><rect width="347.45" height="276.11" x="68.45" y="181.11" rx="16.33" fill="#a9afc4"></rect><rect width="29.33" height="29.33" x="226.85" y="206.69" fill="#e1830e"></rect><rect width="282.55" height="161.56" x="100.9" y="261.93" fill="#dee1ec"></rect><path d="M399.57,460.22H84.78a19.35,19.35,0,0,1-19.33-19.33V197.44a19.35,19.35,0,0,1,19.33-19.33H399.57a19.35,19.35,0,0,1,19.33,19.33V440.89A19.35,19.35,0,0,1,399.57,460.22ZM84.78,184.11a13.35,13.35,0,0,0-13.33,13.33V440.89a13.35,13.35,0,0,0,13.33,13.33H399.57a13.35,13.35,0,0,0,13.33-13.33V197.44a13.35,13.35,0,0,0-13.33-13.33Z" fill="#5e6175"></path><polygon points="103.9 277.91 97.9 277.91 97.9 258.93 117.45 258.93 117.45 264.93 103.9 264.93 103.9 277.91" fill="#5e6175"></polygon><polygon points="117.45 426.49 97.9 426.49 97.9 407.51 103.9 407.51 103.9 420.49 117.45 420.49 117.45 426.49" fill="#5e6175"></polygon><polygon points="386.45 277.91 380.45 277.91 380.45 264.93 366.9 264.93 366.9 258.93 386.45 258.93 386.45 277.91" fill="#5e6175"></polygon><polygon points="386.45 426.49 366.9 426.49 366.9 420.49 380.45 420.49 380.45 407.51 386.45 407.51 386.45 426.49" fill="#5e6175"></polygon><path d="M368.79,239H115.56a17.66,17.66,0,0,1,0-35.32H368.79a17.66,17.66,0,0,1,0,35.32ZM115.56,209.69a11.66,11.66,0,0,0,0,23.32H368.79a11.66,11.66,0,0,0,0-23.32Z" fill="#5e6175"></path><path d="M320.48 239H253.17V203.69h67.31Zm-61.31-6h55.31V209.69H259.17ZM229.85 239H162.54V203.69h67.31Zm-61.31-6h55.31V209.69H168.54Z" fill="#5e6175"></path><rect width="66.49" height="32.82" x="208.93" y="148.28" fill="#5e6175"></rect><path d="M137.49,158.81V148.36H115.4v10.45a6,6,0,0,0-6.22,6v16.29h34.33V164.82A6,6,0,0,0,137.49,158.81Z" fill="#5e6175"></path><path d="M134.16,148.36H118.73a37.56,37.56,0,0,1,37.53-37.52H358a17.76,17.76,0,0,0,0-35.52H272a37.56,37.56,0,0,1-37.53-37.53V36h15.43v1.79A22.12,22.12,0,0,0,272,59.89h86a33.19,33.19,0,0,1,0,66.38H156.26A22.12,22.12,0,0,0,134.16,148.36Z" fill="#e1830e"></path><rect width="18.32" height="6" x="419.31" y="163.15" transform="rotate(-45 428.472 166.151)" fill="#5e6175"></rect><rect width="6" height="18.32" x="403.88" y="144.7" fill="#5e6175"></rect><rect width="18.32" height="6" x="432.08" y="183.62" fill="#5e6175"></rect><path d="M98.9,479h-6v-6h6Zm-16,0a42.83,42.83,0,0,1-6.37-.29l.77-5.95a38.06,38.06,0,0,0,5.6.24Zm-16.82-3.36a34.44,34.44,0,0,1-5.64-3.34L64,467.45a29.75,29.75,0,0,0,4.67,2.77Zm-13.35-11A35.53,35.53,0,0,1,49.37,459l5.42-2.59a28.53,28.53,0,0,0,2.78,4.66Zm-6.46-16.06a42.69,42.69,0,0,1-.31-6.39h6a37.13,37.13,0,0,0,.26,5.59ZM52,432.17H46v-6h6Zm0-16H46v-6h6Zm0-16H46v-6h6Zm0-16H46v-6h6Z" fill="#a9afc4"></path><path d="M47.44 99.63A30.88 30.88 0 0 1 78.31 130.5a30.87 30.87 0 0 1 30.87-30.87A30.87 30.87 0 0 1 78.31 68.77 30.87 30.87 0 0 1 47.44 99.63ZM430.81 435.23a16.88 16.88 0 0 1 16.88 16.88 16.86 16.86 0 0 1 16.87-16.88 16.87 16.87 0 0 1-16.87-16.88A16.88 16.88 0 0 1 430.81 435.23Z" fill="#e1830e"></path></g></svg>