<svg xmlns="http://www.w3.org/2000/svg" xmlns:xlink="http://www.w3.org/1999/xlink" viewBox="0 0 512 512" id="grocery"><defs><linearGradient id="a" x1="265.91" x2="319.23" y1="183.32" y2="183.32" gradientUnits="userSpaceOnUse"><stop offset="0" stop-color="#a9afc4"></stop><stop offset="1" stop-color="#d4d8e5"></stop></linearGradient><linearGradient xlink:href="#a" id="c" x1="265.91" x2="319.23" y1="109.54" y2="109.54"></linearGradient><linearGradient xlink:href="#a" id="d" x1="342.21" x2="393.42" y1="307.59" y2="307.59"></linearGradient><linearGradient id="b" x1="129.79" x2="277.89" y1="401.22" y2="401.22" gradientUnits="userSpaceOnUse"><stop offset="0" stop-color="#cacfdd"></stop><stop offset="1" stop-color="#eef0f1"></stop></linearGradient><linearGradient xlink:href="#b" id="e" x1="342.21" x2="393.42" y1="424.27" y2="424.27"></linearGradient><linearGradient xlink:href="#b" id="f" x1="106.1" x2="140.32" y1="390.85" y2="390.85"></linearGradient><linearGradient xlink:href="#b" id="g" x1="146.93" x2="181.15" y1="390.85" y2="390.85"></linearGradient><linearGradient xlink:href="#b" id="h" x1="191.52" x2="225.74" y1="390.85" y2="390.85"></linearGradient></defs><g style="isolation:isolate"><rect width="53.31" height="112.74" x="212.6" y="126.95" fill="#dee1ec"></rect><polygon fill="#dee1ec" points="240.23 73.73 240.23 92.13 212.6 125.17 212.6 126.95 265.91 126.95 292.2 92.13 292.2 73.73 240.23 73.73"></polygon><rect width="53.32" height="112.74" x="265.91" y="126.95" fill="url(#a)"></rect><polygon fill="url(#c)" points="319.23 126.95 265.91 126.95 292.19 92.13 319.23 125.17 319.23 126.95"></polygon><path fill="#5e6175" d="M268.91,242.69H209.6V124h59.31Zm-53.31-6h47.31V130H215.6Z"></path><path fill="#5e6175" d="M267.41,130H209.6v-5.87l27.63-33V70.73h58v22.4Zm-49.88-6h46.89L289.2,91.12V76.73h-46V93.22Z"></path><path fill="#5e6175" d="M322.23,242.69H262.91V124h59.32Zm-53.32-6h47.32V130H268.91Z"></path><path fill="#5e6175" d="M322.23,130H259.89L292.1,87.28l30.13,36.82Zm-50.29-6h42.41L292.29,97Z"></path><rect width="51.96" height="6" x="240.23" y="89.13" fill="#5e6175"></rect><path fill="#f5f5f5" d="M161.24,124.94l-5.44-5.45-23.16,23.16,5.45,5.44A19.71,19.71,0,0,1,143.85,162v12.84a19.64,19.64,0,0,0,5.76,13.9l52.49,52.5a13.42,13.42,0,0,0,19,0l33.31-33.31a13.42,13.42,0,0,0,0-19l-52.5-52.49A19.64,19.64,0,0,0,188,130.7H175.15A19.71,19.71,0,0,1,161.24,124.94Z"></path><rect width="45.95" height="16.37" x="115.46" y="117.09" fill="#a9afc4" rx="5.84" transform="rotate(-45 138.432 125.28)"></rect><path fill="#5e6175" d="M200,243.36l-52.49-52.49a22.56,22.56,0,0,1-6.64-16V162A16.57,16.57,0,0,0,136,150.21l-7.56-7.56,27.4-27.4,7.56,7.56a16.57,16.57,0,0,0,11.79,4.89H188a22.51,22.51,0,0,1,16,6.64l52.49,52.49a16.4,16.4,0,0,1,0,23.22L223.2,243.36A16.44,16.44,0,0,1,200,243.36ZM136.89,142.65l3.32,3.32a22.52,22.52,0,0,1,6.64,16v12.83a16.55,16.55,0,0,0,4.88,11.79l52.49,52.5a10.43,10.43,0,0,0,14.73,0l33.32-33.32a10.41,10.41,0,0,0,0-14.73l-52.5-52.49A16.54,16.54,0,0,0,188,133.7H175.15a22.52,22.52,0,0,1-16-6.64l-3.32-3.33Z"></path><path fill="#5e6175" d="M121.72,145.31,118.4,142a8.84,8.84,0,0,1,0-12.5l24.24-24.24a8.84,8.84,0,0,1,12.5,0l3.32,3.32a8.86,8.86,0,0,1,0,12.5c-.1,0,1-1-24.24,24.24A8.85,8.85,0,0,1,121.72,145.31Zm25.16-35.81-24.23,24.23a2.84,2.84,0,0,0,0,4l3.32,3.32a2.85,2.85,0,0,0,4,0l24.24-24.24a2.85,2.85,0,0,0,0-4l-3.32-3.32A2.84,2.84,0,0,0,146.88,109.5Z"></path><path fill="#f5f5f5" d="M376.3,149.06,360.2,133A16.42,16.42,0,0,0,335,135.39l-46.41,68.88A11.84,11.84,0,0,0,305,220.7l68.87-46.41A16.42,16.42,0,0,0,376.3,149.06Z"></path><path fill="#e1830e" d="M368.25,141l12.43-12.43a37,37,0,0,1,26.18-10.84h20l-9.63,9.63a37,37,0,0,1-26.18,10.84,1.68,1.68,0,0,0-1.19,2.87l12.37,12.37h-6.31A37,37,0,0,1,368.25,141Z"></path><path fill="#e1830e" d="M368.42,141.17l12.43-12.42a37,37,0,0,0,10.84-26.18v-20l-9.63,9.63a37,37,0,0,0-10.84,26.18,1.68,1.68,0,0,1-2.87,1.19L356,107.18v6.31A37,37,0,0,0,368.42,141.17Z"></path><path fill="#5e6175" d="M298.39,225.71a14.85,14.85,0,0,1-12.31-23.12l46.41-68.87a19.42,19.42,0,0,1,29.83-2.88l16.11,16.1a19.54,19.54,0,0,1,5.49,16.48h0a19.47,19.47,0,0,1-8.37,13.35l-68.88,46.41A14.73,14.73,0,0,1,298.39,225.71Zm39.07-88.64-46.4,68.87a8.83,8.83,0,0,0,12.26,12.27l68.87-46.41a13.47,13.47,0,0,0,5.79-9.23h0a13.51,13.51,0,0,0-3.8-11.39l-16.1-16.1A13.43,13.43,0,0,0,337.46,137.07Z"></path><path fill="#5e6175" d="M409.5,156.45H395.94A40,40,0,0,1,366,143l-1.88-2.11,14.43-14.43a39.76,39.76,0,0,1,28.3-11.72h27.26l-14.75,14.75a39.75,39.75,0,0,1-25.23,11.61Zm-37-15.4A34.09,34.09,0,0,0,395,150.44l-7.24-7.24a4.68,4.68,0,0,1,3.31-8,33.79,33.79,0,0,0,24.05-10l4.51-4.51H406.86a33.83,33.83,0,0,0-24.06,10Z"></path><path fill="#5e6175" d="M368.54,145.29l-2.11-1.87A40,40,0,0,1,353,113.49V99.93l15.35,15.36a39.72,39.72,0,0,1,11.61-25.23l14.75-14.75v27.26A39.76,39.76,0,0,1,383,130.87ZM359,114.43A34,34,0,0,0,368.38,137l10.35-10.35a33.79,33.79,0,0,0,10-24.05V89.79l-4.51,4.51a33.83,33.83,0,0,0-10,24.06,4.69,4.69,0,0,1-8,3.31Z"></path><rect width="6" height="20.04" x="329.47" y="146.69" fill="#5e6175" transform="rotate(-45 332.465 156.719)"></rect><rect width="6" height="13.83" x="366.69" y="161.77" fill="#5e6175" transform="rotate(-45 369.693 168.688)"></rect><rect width="51.21" height="261.33" x="342.21" y="176.93" fill="url(#d)"></rect><rect width="212.41" height="261.34" x="129.79" y="176.93" fill="#f5f5f5"></rect><path fill="url(#b)" d="M277.89,412.41V418a36.18,36.18,0,0,1-6.17,20.26H129.79V364.18h99.87A48.28,48.28,0,0,1,277.89,412.41Z" style="mix-blend-mode:multiply"></path><polygon fill="url(#e)" points="342.21 438.26 342.21 429.06 367.81 410.29 393.42 429.06 393.42 438.26 342.21 438.26" style="mix-blend-mode:multiply"></polygon><path fill="#5e6175" d="M345.21,441.26H126.79V173.93H345.21Zm-212.42-6H339.21V179.93H132.79Z"></path><path fill="#5e6175" d="M396.42,441.26H339.21V427.54l28.61-21,28.6,21Zm-51.21-6h45.21v-4.68L367.82,414l-22.61,16.57Z"></path><path fill="#5e6175" d="M396.42,441.26H339.21V173.93h57.21Zm-51.21-6h45.21V179.93H345.21Z"></path><rect width="6" height="233.36" x="364.82" y="176.93" fill="#5e6175"></rect><path fill="#e1830e" d="M261.68,412.41V418a20.25,20.25,0,0,1-20.25,20.26H87.55A20.25,20.25,0,0,1,67.3,418v-5.6a32,32,0,0,1,32-32H229.66A32,32,0,0,1,261.68,412.41Z"></path><path fill="url(#f)" d="M112.07,380.39a95.24,95.24,0,0,0-5.88,16.77,3.42,3.42,0,0,0,5.32,3.52l28.81-20.29Z" style="mix-blend-mode:multiply"></path><path fill="url(#g)" d="M152.9,380.39A95.24,95.24,0,0,0,147,397.16a3.42,3.42,0,0,0,5.32,3.52l28.81-20.29Z" style="mix-blend-mode:multiply"></path><path fill="url(#h)" d="M197.49,380.39a95.24,95.24,0,0,0-5.88,16.77,3.42,3.42,0,0,0,5.32,3.52l28.81-20.29Z" style="mix-blend-mode:multiply"></path><path fill="#5e6175" d="M241.43,441.27H87.55A23.29,23.29,0,0,1,64.3,418v-5.6a35.06,35.06,0,0,1,35-35H229.66a35.06,35.06,0,0,1,35,35V418A23.29,23.29,0,0,1,241.43,441.27ZM99.32,383.39a29.06,29.06,0,0,0-29,29V418a17.27,17.27,0,0,0,17.25,17.26H241.43A17.27,17.27,0,0,0,258.68,418v-5.6a29,29,0,0,0-29-29Z"></path><path fill="#e1830e" d="M66.93 178.11a18.68 18.68 0 0118.68 18.68 18.68 18.68 0 0118.67-18.68 18.67 18.67 0 01-18.67-18.68A18.68 18.68 0 0166.93 178.11zM412.5 382.64A14.37 14.37 0 01426.88 397a14.37 14.37 0 0114.37-14.37 14.37 14.37 0 01-14.37-14.38A14.38 14.38 0 01412.5 382.64z"></path><path fill="#5e6175" d="M466.32 149.72A12.69 12.69 0 11479 138 12.68 12.68 0 01466.32 149.72zm0-19.38a6.69 6.69 0 106.66 7.22A6.7 6.7 0 00466.32 130.34zM426.74 187.22a9.75 9.75 0 11.77-19.47h0a9.75 9.75 0 01-.77 19.47zm-2.85-7.31a3.75 3.75 0 103.15-6.18h0A3.76 3.76 0 00423.89 179.91z"></path><rect width="6" height="17.83" x="53.87" y="363.64" fill="#5e6175" transform="rotate(-45 56.88 372.56)"></rect><rect width="17.83" height="6" x="36" y="390.57" fill="#5e6175"></rect><rect width="6" height="17.83" x="73.8" y="351.21" fill="#5e6175"></rect><path fill="#a9afc4" d="M280.89,412.41h-6a45.43,45.43,0,0,0-.35-5.61l6-.74A51.67,51.67,0,0,1,280.89,412.41Zm-8.45-14.73a46.15,46.15,0,0,0-2.16-5.19l5.38-2.65a51.16,51.16,0,0,1,2.45,5.89Zm-7.14-13.12a46.56,46.56,0,0,0-3.73-4.21l4.23-4.25a51.45,51.45,0,0,1,4.22,4.76Zm-11-10.09a47.19,47.19,0,0,0-4.89-2.77l2.62-5.39a50.41,50.41,0,0,1,5.54,3.13Zm-13.69-6a44.82,44.82,0,0,0-5.53-1l.71-6a52.81,52.81,0,0,1,6.27,1.15Zm-15.16-1.33h-6v-6h6Zm-16,0h-6v-6h6Zm-16,0h-6v-6h6Zm-16,0h-6v-6h6Z"></path></g></svg>