<svg xmlns="http://www.w3.org/2000/svg" xmlns:xlink="http://www.w3.org/1999/xlink" viewBox="0 0 512 512" id="illustration"><defs><linearGradient id="linear-gradient" x1="316.79" x2="369.45" y1="180.31" y2="232.96" gradientUnits="userSpaceOnUse"><stop offset="0" stop-color="#cacfdd"></stop><stop offset="1" stop-color="#eef0f1"></stop></linearGradient><linearGradient xlink:href="#linear-gradient" id="linear-gradient-2" x1="336.23" x2="404.92" y1="370.33" y2="370.33"></linearGradient><linearGradient xlink:href="#linear-gradient" id="linear-gradient-3" x1="336.64" x2="374.06" y1="141.06" y2="141.06" gradientTransform="rotate(45 423.156 255.568)"></linearGradient><linearGradient xlink:href="#linear-gradient" id="linear-gradient-4" x1="458.36" x2="475.44" y1="-7.09" y2="9.98" gradientTransform="translate(-82.44 197.44)"></linearGradient><linearGradient xlink:href="#linear-gradient" id="linear-gradient-5" x1="381.1" x2="459.51" y1="251.43" y2="329.84" gradientTransform="rotate(45 423.156 255.568)"></linearGradient></defs><g style="isolation:isolate"><g id="Illustration"><rect width="334.12" height="279.53" x="70.8" y="125.14" fill="#f5f5f5"></rect><rect width="334.13" height="279.53" x="70.79" y="125.15" fill="#f5f5f5"></rect><rect width="334.13" height="279.53" x="70.79" y="125.15" fill="#f5f5f5"></rect><rect width="289.64" height="199.38" x="92.11" y="147.98" fill="#dee1ec"></rect><polygon points="383.43 293.38 288.35 198.3 213.47 273.17 164.73 224.43 92.11 297.05 92.11 347.36 383.43 347.36 383.43 293.38" fill="#e1830e"></polygon><circle cx="212.25" cy="192.52" r="20.11" fill="#e1830e"></circle><path d="M334.82,240l-4.24-4.24L345.4,221l4.38,4.11C346.89,228,350,224.89,334.82,240Z" fill="#5e6175"></path><path d="M404.92,125.15V225.77L362.74,268a26.69,26.69,0,0,1-12.58,7.73l-48.22,16.45c-16.06,6.39-29.87-8-23.42-23.57L295,220.5a26.23,26.23,0,0,1,7.86-12.81l82.54-82.54Z" style="mix-blend-mode:multiply" fill="url(#linear-gradient)"></path><path d="M352.42,261.47l-4.67-3.87,2.49-2.48,2.19,2c2.24-2.69,2.25-2.7,0,0l2.22,2C354.48,259.39,354.37,259.48,352.42,261.47Z" fill="#5e6175"></path><path d="M404.92,336v68.69H336.23A68.78,68.78,0,0,1,404.92,336Z" style="mix-blend-mode:multiply" fill="url(#linear-gradient-2)"></path><path d="M407.92,407.68H67.8V122.14H407.92Zm-334.12-6H401.92V128.14H73.8Z" fill="#5e6175"></path><circle cx="404.92" cy="404.68" r="53.77" fill="#f5f5f5"></circle><path d="M404.92,461.45a56.78,56.78,0,1,1,56.77-56.77A56.84,56.84,0,0,1,404.92,461.45Zm0-107.55a50.78,50.78,0,1,0,50.77,50.78A50.83,50.83,0,0,0,404.92,353.9Z" fill="#5e6175"></path><polygon points="395.28 432.02 371.23 407.97 380.75 398.45 395.28 412.98 429.09 379.17 438.61 388.69 395.28 432.02" fill="#e1830e"></polygon><path d="M365,244.62l-14.88,14.89a4,4,0,0,1-1.55,1L295,278.75a2.46,2.46,0,0,1-3.22-2.33c0-.6-.41.79,5.91-17.69,13.76-40.19,12.62-37.38,13.56-38.32L326,205.64Z" fill="#dee1ec"></path><path d="M311.88,273,295,278.75a2.46,2.46,0,0,1-3.1-3.1l5.79-16.92A20.13,20.13,0,0,1,311.88,273Z" fill="#5e6175"></path><path d="M294.17,281.87a5.45,5.45,0,0,1-5.44-5.45c0-1.31-1.37,3.11,18.67-55.43a6.92,6.92,0,0,1,1.68-2.7L326,201.4l43.23,43.22-17,17a7.22,7.22,0,0,1-2.71,1.69C291.74,283,295.51,281.87,294.17,281.87Zm31.81-72c-13.65,13.65-12.8,12.73-12.9,13.05l-18,52.61,52.51-17.9c.33-.12-.75.9,13.15-13Z" fill="#5e6175"></path><path d="M294.17,281.87a5.45,5.45,0,0,1-5.44-5.45c0-1.29-.25-.16,7-21.31l2.71.72a23.15,23.15,0,0,1,16.36,16.38l.71,2.71C294.14,282.2,295.46,281.87,294.17,281.87Zm5.33-19.3-4.44,13,13-4.42A17.1,17.1,0,0,0,299.5,262.57Z" fill="#5e6175"></path><path d="M443,166.63c-91.29,91.29-90.68,90.87-90.78,90.77a13.79,13.79,0,1,0-19.5-19.49h0a13.78,13.78,0,0,0-19.33-19.65L404,127.64Z" fill="#a9afc4"></path><rect width="17.52" height="55.15" x="420.92" y="113.36" transform="rotate(-45 429.68 140.94)" fill="#5e6175"></rect><path d="M469,140.62l-13.62,13.62-39-39L430,101.62a23.94,23.94,0,0,1,28.87-3.81c3.55,2,5.21,4.06,10.12,9A23.92,23.92,0,0,1,469,140.62Z" fill="#e1830e"></path><path d="M469,140.62l-13.62,13.62-13.93-13.93,13.62-13.62a24,24,0,0,0,3.81-28.88c3.55,2,5.21,4.06,10.12,9A23.92,23.92,0,0,1,469,140.62Z" style="mix-blend-mode:multiply" fill="url(#linear-gradient-3)"></path><path d="M443,170.87l-43.23-43.24L416.37,111l43.24,43.24Zm-34.75-43.24L443,162.38l8.15-8.14-34.76-34.76Z" fill="#5e6175"></path><path d="M423.48 147.12 332.7 237.9a13.78 13.78 0 0 0-19.49-19.49c-.1-.1-1 1 90.77-90.78ZM443 166.62l-90.62 90.62a13.79 13.79 0 0 0-19.66-19.33l90.78-90.78Z" fill="#a9afc4"></path><path d="M443,166.63c-91.29,91.29-90.68,90.87-90.78,90.77C443.49,166.11,442.88,166.53,443,166.63Z" fill="#a9afc4"></path><path d="M443,166.62l-90.62,90.62a13.79,13.79,0,0,0-19.66-19.33l90.78-90.78Z" style="mix-blend-mode:multiply" fill="url(#linear-gradient-4)"></path><path d="M443,166.63c-91.29,91.29-90.68,90.87-90.78,90.77C443.49,166.11,442.88,166.53,443,166.63Z" style="mix-blend-mode:multiply" fill="url(#linear-gradient-5)"></path><path d="M334.82,240l-4.24-4.24a10.78,10.78,0,0,0-15.12-15.38l-2.25,2.25L309,218.41c3.3-3.32,91.76-91.77,95-95l23.74,23.73C333.82,241,334.72,240,334.82,240Zm-10.43-28.55a16.68,16.68,0,0,1,15.27,15.22l79.58-79.57L404,131.87Z" fill="#5e6175"></path><path d="m354.49 259.36-4.28-4.21A10.79 10.79 0 0 0 334.82 240l-4.24-4.24 92.9-92.9 23.74 23.73Zm-10.57-28.42a16.72 16.72 0 0 1 15.23 15.27l79.58-79.59-15.25-15.25ZM455.37 158.48l-43.24-43.24L427.88 99.5a26.92 26.92 0 0 1 38.07 0l5.16 5.16a26.92 26.92 0 0 1 0 38.08C471 142.74 472.26 141.6 455.37 158.48Zm-34.75-43.24L455.37 150c12.25-12.25 13.2-12.81 15.1-16.33a20.89 20.89 0 0 0-3.6-24.76l-5.17-5.17a20.92 20.92 0 0 0-29.58 0ZM433.23 73a11.21 11.21 0 1 1 11.21-11.31A11.23 11.23 0 0 1 433.23 73Zm-3.72-14.87a5.21 5.21 0 1 0 7.37-.06A5.23 5.23 0 0 0 429.51 58.11ZM392 100.81a7.77 7.77 0 1 1 5.45-13.3A7.77 7.77 0 0 1 392 100.81Zm0-9.53a1.77 1.77 0 1 0 1.26 3A1.77 1.77 0 0 0 392 91.28Z" fill="#5e6175"></path><rect width="16.21" height="6" x="47.3" y="416.21" transform="rotate(-45 55.403 419.211)" fill="#5e6175"></rect><rect width="6" height="16.21" x="71.5" y="421.97" fill="#5e6175"></rect><rect width="16.21" height="6" x="36" y="398.1" fill="#5e6175"></rect><path d="M55.51,144.54h-6v-6h6Zm0-16h-6v-6h6Zm2.17-14-5.18-3a22.12,22.12,0,0,1,4.39-5.34l4,4.49A15.94,15.94,0,0,0,57.68,114.52Zm10.64-7.58-1.17-5.89a29.5,29.5,0,0,1,6.56-.41v6A24.46,24.46,0,0,0,68.32,106.94Zm100-.3h-4.56v-6h4.56Zm-14.56,0h-6v-6h6Zm-16,0h-6v-6h6Zm-16,0h-6v-6h6Zm-16,0h-6v-6h6Zm-16,0h-6v-6h6Z" fill="#a9afc4"></path></g></g></svg>