<svg xmlns="http://www.w3.org/2000/svg" xmlns:xlink="http://www.w3.org/1999/xlink" viewBox="0 0 512 512" id="important"><defs><linearGradient id="a" x1="234.74" x2="234.74" y1="442.76" y2="58.4" gradientUnits="userSpaceOnUse"><stop offset="0" stop-color="#cacfdd"></stop><stop offset="1" stop-color="#eef0f1"></stop></linearGradient><linearGradient xlink:href="#a" id="b" x1="316.99" x2="398.21" y1="158.75" y2="158.75"></linearGradient></defs><g style="isolation:isolate"><path fill="url(#a)" d="M71.28,118.14V422.49H398.21V118.14Z"></path><path fill="url(#b)" d="M398.21,118.14v81.22A81.31,81.31,0,0,1,317,118.14Z" style="mix-blend-mode:multiply"></path><polygon fill="#e08326" points="191.27 118.14 191.27 198.99 205.77 188.72 220.3 198.99 234.79 188.72 249.25 198.99 263.75 188.72 278.21 198.99 278.21 118.14 191.27 118.14"></polygon><path fill="#5e6175" d="M401.21,425.49H68.28V115.14H401.21Zm-326.93-6H395.21V121.14H74.28Z"></path><rect width="108.78" height="108.78" x="97.12" y="290.87" fill="#f5f5f5"></rect><path fill="#5e6175" d="M208.91,402.65H94.12V287.87H208.91Zm-108.79-6H202.91V293.87H100.12Z"></path><rect width="71.81" height="71.81" x="115.35" y="308.5" fill="#f5f5f5"></rect><polygon fill="#e1830e" points="145.06 321.98 145.06 339.16 146.99 349.88 151.25 349.88 151.25 349.89 155.51 349.89 157.45 339.15 157.46 321.96 145.06 321.98"></polygon><rect width="9.31" height="9.31" x="146.6" y="357.54" fill="#e1830e"></rect><polygon fill="#5e6175" points="118.35 327.11 112.35 327.11 112.35 305.5 134.46 305.5 134.46 311.5 118.35 311.5 118.35 327.11"></polygon><polygon fill="#5e6175" points="190.16 327.11 184.16 327.11 184.16 311.5 168.06 311.5 168.06 305.5 190.16 305.5 190.16 327.11"></polygon><polygon fill="#5e6175" points="190.16 383.31 168.06 383.31 168.06 377.31 184.16 377.31 184.16 361.69 190.16 361.69 190.16 383.31"></polygon><polygon fill="#5e6175" points="134.46 383.31 112.35 383.31 112.35 361.69 118.35 361.69 118.35 377.31 134.46 377.31 134.46 383.31"></polygon><circle cx="398.21" cy="118.14" r="65.22" fill="#f5f5f5"></circle><polygon fill="#e1830e" points="398.21 75.94 411.1 102.06 439.94 106.25 419.07 126.59 424 155.31 398.21 141.75 372.42 155.31 377.34 126.59 356.48 106.25 385.31 102.06 398.21 75.94"></polygon><path fill="#a9afc4" d="M426.54,287.11h-6v-6h6Zm0-16h-6v-6h6Zm0-16h-6v-6h6Zm0-16h-6v-6h6Zm0-16-6-.08a35.61,35.61,0,0,1,.69-6.51l5.88,1.19A28.69,28.69,0,0,0,426.54,223.15Zm3.7-13.87L425,206.36a36,36,0,0,1,3.69-5.4l4.63,3.82A29.36,29.36,0,0,0,430.24,209.28Zm9.83-10.57-3.31-5c1.79-1.19,2.74-1.6,5.26-3.12l3.11,5.13C442.62,197.24,441.7,197.63,440.07,198.71Zm13.58-8.84L450,185.12c1.52-1.17,3-2.42,4.46-3.7l4,4.49C456.88,187.27,455.28,188.61,453.65,189.87Zm12.1-11.26-4.47-4c1.29-1.44,2.54-2.94,3.71-4.45l4.74,3.69C468.46,175.47,467.13,177.07,465.75,178.61Zm9.86-13.25-5.12-3.13c1-1.64,2-3.34,2.85-5l5.32,2.78C477.71,161.78,476.68,163.6,475.61,165.36Z"></path><path fill="#5e6175" d="M398.21,186.36a68.22,68.22,0,1,1,68.22-68.22A68.29,68.29,0,0,1,398.21,186.36Zm0-130.44a62.22,62.22,0,1,0,62.22,62.22A62.29,62.29,0,0,0,398.21,55.92Z"></path><rect width="77.84" height="19.34" x="294.13" y="380.31" fill="#5e6175"></rect><path fill="#5e6175" d="M431.36 428.43a11 11 0 119-17.16A10.91 10.91 0 01431.36 428.43zm0-15.92a5 5 0 104.86 5.86A5 5 0 00431.36 412.51zM387.75 458.38a8.53 8.53 0 1115.41-3.27A8.54 8.54 0 01387.75 458.38zm4.95-3.4a2.52 2.52 0 102.54-3.91h0A2.53 2.53 0 00392.7 455z"></path><rect width="6" height="15.97" x="51.69" y="95.15" fill="#5e6175" transform="rotate(-45 54.69 103.136)"></rect><rect width="15.97" height="6" x="36" y="118.95" fill="#5e6175"></rect><rect width="6" height="15.97" x="69.54" y="84.01" fill="#5e6175"></rect><path fill="#e1830e" d="M272.86 72.46A19.54 19.54 0 01292.4 92a19.53 19.53 0 0119.54-19.54A19.54 19.54 0 01292.4 52.92 19.54 19.54 0 01272.86 72.46zM40.8 438.38a9.77 9.77 0 019.77 9.77 9.77 9.77 0 019.77-9.77 9.76 9.76 0 01-9.77-9.76A9.76 9.76 0 0140.8 438.38z"></path></g></svg>