<svg xmlns="http://www.w3.org/2000/svg" xmlns:xlink="http://www.w3.org/1999/xlink" viewBox="0 0 512 512" id="index"><defs><linearGradient id="a" x1="266.34" x2="425.57" y1="313.85" y2="313.85" gradientUnits="userSpaceOnUse"><stop offset="0" stop-color="#cacfdd"></stop><stop offset="1" stop-color="#eef0f1"></stop></linearGradient><linearGradient xlink:href="#a" id="b" x1="242.27" x2="242.27" y1="367.95" y2="405.23"></linearGradient></defs><g style="isolation:isolate"><rect width="366.59" height="237.98" x="58.98" y="132.02" fill="#a9afc4"></rect><rect width="366.59" height="237.98" x="58.97" y="132.02" fill="#a9afc4"></rect><rect width="337.87" height="206.2" x="73.34" y="147.92" fill="#f5f5f5"></rect><path fill="url(#a)" d="M425.57,286.8V370H266.34V321.62a34.85,34.85,0,0,1,34.81-34.8h4.35V266.37a8.66,8.66,0,0,1,14.44-6.46L350,286.8Z" style="mix-blend-mode:multiply"></path><rect width="77.15" height="44.08" x="203.7" y="370.01" fill="#a9afc4"></rect><rect width="77.15" height="22.04" x="203.7" y="370.01" fill="url(#b)" style="mix-blend-mode:multiply"></rect><path fill="#a9afc4" d="M303.46,434.84H181.08a10.38,10.38,0,1,1,0-20.75H303.46a10.38,10.38,0,1,1,0,20.75Z"></path><path fill="#5e6175" d="M303.46,437.84H181.08a13.38,13.38,0,1,1,0-26.75H303.46a13.38,13.38,0,1,1,0,26.75ZM181.08,417.09a7.38,7.38,0,1,0,0,14.75H303.46a7.38,7.38,0,1,0,0-14.75Z"></path><path fill="#5e6175" d="M283.84,417.09H200.7V367h83.14Zm-77.14-6h71.14V373H206.7Z"></path><path fill="#5e6175" d="M428.56,373H56V129H428.56ZM62,367H422.56V135H62Z"></path><rect width="242.79" height="6" x="120.88" y="431.84" fill="#5e6175"></rect><rect width="32.04" height="32.04" x="100.64" y="174.79" fill="#f5f5f5"></rect><rect width="32.04" height="32.04" x="100.64" y="174.79" fill="#dee1ec"></rect><rect width="32.04" height="32.04" x="100.64" y="237.64" fill="#f5f5f5"></rect><rect width="32.04" height="32.04" x="100.64" y="237.64" fill="#dee1ec"></rect><rect width="32.04" height="32.04" x="100.64" y="300.48" fill="#f5f5f5"></rect><rect width="32.04" height="32.04" x="100.64" y="300.48" fill="#dee1ec"></rect><path fill="#5e6175" d="M135.68 209.83h-38v-38h38zm-32-6h26v-26h-26zM135.68 272.67h-38v-38h38zm-32-6h26v-26h-26zM135.68 335.52h-38v-38h38zm-32-6h26v-26h-26z"></path><rect width="81.94" height="6" x="161.63" y="179.8" fill="#5e6175"></rect><rect width="40.97" height="6" x="161.63" y="196.44" fill="#5e6175"></rect><rect width="81.94" height="6" x="161.63" y="242.34" fill="#5e6175"></rect><rect width="40.97" height="6" x="161.63" y="258.97" fill="#5e6175"></rect><rect width="81.94" height="6" x="161.63" y="304.87" fill="#5e6175"></rect><rect width="40.97" height="6" x="161.63" y="321.51" fill="#5e6175"></rect><rect width="19.3" height="53.36" x="289.77" y="200.3" fill="#a9afc4"></rect><path fill="#5e6175" d="M312.07,256.66h-25.3V197.3h25.3Zm-19.3-6h13.3V203.3h-13.3Z"></path><rect width="19.3" height="39.67" x="360.24" y="213.98" fill="#e1830e"></rect><path fill="#5e6175" d="M382.54,256.66h-25.3V211h25.3Zm-19.3-6h13.3V217h-13.3Z"></path><rect width="19.3" height="79.35" x="325" y="174.31" fill="#dee1ec"></rect><path fill="#5e6175" d="M347.3,256.66H322V171.31h25.3Zm-19.3-6h13.3V177.31H328Z"></path><rect width="113.73" height="6" x="277.79" y="250.66" fill="#5e6175"></rect><path fill="#f5f5f5" d="M301.15,391.59h125A19.55,19.55,0,0,0,445.74,372V321.6A19.55,19.55,0,0,0,426.19,302h-82l-23.47-21v21c-.33.07,4.53,0-19.58,0a19.55,19.55,0,0,0-19.57,19.56V372A19.55,19.55,0,0,0,301.15,391.59Z"></path><path fill="#5e6175" d="M426.19,394.59h-125A22.58,22.58,0,0,1,278.59,372V321.62a22.54,22.54,0,0,1,22.57-22.56l16.58,0V274.37L345.36,299h80.83a22.58,22.58,0,0,1,22.55,22.56V372A22.58,22.58,0,0,1,426.19,394.59Zm-125-89.53a16.55,16.55,0,0,0-16.55,16.56V372a16.57,16.57,0,0,0,16.56,16.55h125A16.57,16.57,0,0,0,442.74,372V321.6A16.58,16.58,0,0,0,426.19,305H343.07l-19.33-17.27v11.57l.21,0c0,2.85,0,3.18-.21,3.86v1.24C319.7,305.34,323.36,305.06,301.14,305.06Z"></path><path fill="#e1830e" d="M322.89 351.67l4.82-10.21 4.76 10.21zm6.21-29.75h-2.71l-21.82 46.25H315.1l3.29-7h18.52l3.26 7h10.51zM425.75 336.62v-1.9A12.8 12.8 0 00413 321.93H397.78A12.8 12.8 0 00385 334.72v20.65a12.81 12.81 0 0012.79 12.8H413a12.81 12.81 0 0012.79-12.8v-1.9h-9.07v1.9A3.73 3.73 0 01413 359.1H397.78a3.73 3.73 0 01-3.72-3.73V334.72a3.73 3.73 0 013.72-3.73H413a3.73 3.73 0 013.72 3.73v1.9z"></path><rect width="17.95" height="9.53" x="355.71" y="340.38" fill="#e1830e"></rect><path fill="#5e6175" d="M467.75 150.92A11.24 11.24 0 11479 138.75h0A11.24 11.24 0 01467.75 150.92zm-4-14.62a5.24 5.24 0 109.22 2.95h0A5.24 5.24 0 00463.76 136.3zM424.22 105.68a8.72 8.72 0 118.69-9.44h0A8.71 8.71 0 01424.22 105.68zm0-11.43a2.71 2.71 0 102.71 2.49A2.71 2.71 0 00424.22 94.25z"></path><path fill="#a9afc4" d="M137.9,397h-6v-6h6Zm-16,0h-6v-6h6Zm-16,0h-6v-6h6Zm-16,0h-6v-6h6Zm-16,0h-6v-6h6Zm-16,0a33.22,33.22,0,0,1-6.5-.34l1.05-5.91a27.94,27.94,0,0,0,5.45.25ZM41,391.79a22.54,22.54,0,0,1-4.56-5.18l5.06-3.22a16.54,16.54,0,0,0,3.34,3.79Zm-8-16.07c0-.76,0-.86,0-6.14h6c0,4.65,0,5.26,0,5.85Zm6-16.14H33v-6h6Z"></path><path fill="#e1830e" d="M112.87,97a19.81,19.81,0,0,1,19.81,19.81A19.81,19.81,0,0,1,152.48,97a19.79,19.79,0,0,1-19.8-19.8A19.8,19.8,0,0,1,112.87,97Z"></path></g></svg>