<svg xmlns="http://www.w3.org/2000/svg" xmlns:xlink="http://www.w3.org/1999/xlink" viewBox="0 0 512 512" id="ink"><defs><linearGradient id="a" x1="218.69" x2="218.69" y1="127.27" y2="163.1" gradientUnits="userSpaceOnUse"><stop offset="0" stop-color="#cacfdd"></stop><stop offset="1" stop-color="#eef0f1"></stop></linearGradient><linearGradient xlink:href="#a" id="b" x1="162.08" x2="178.42" y1="94" y2="94"></linearGradient><linearGradient xlink:href="#a" id="c" x1="210.52" x2="226.86" y1="94" y2="94"></linearGradient><linearGradient xlink:href="#a" id="d" x1="258.96" x2="275.3" y1="94" y2="94"></linearGradient><linearGradient xlink:href="#a" id="e" x1="218.69" x2="218.69" y1="112.55" y2="335.98"></linearGradient><linearGradient xlink:href="#a" id="f" x1="327.26" x2="377.52" y1="183.95" y2="183.95"></linearGradient></defs><g style="isolation:isolate"><rect width="317.66" height="271.58" x="59.86" y="158.33" fill="#f5f5f5" rx="28.84"></rect><path fill="#f5f5f5" d="M377.52,187.17v213.9a28.84,28.84,0,0,1-28.84,28.84h-260a28.84,28.84,0,0,1-28.85-28.84V187.17a28.84,28.84,0,0,1,28.85-28.84h260A28.84,28.84,0,0,1,377.52,187.17Z"></path><path fill="#5e6175" d="M344.68,247.91V366.05a33.84,33.84,0,0,1-46.23,31.48c-12.23-4.78-43.08-15.21-79.76-15.21s-67.54,10.43-79.76,15.21A33.84,33.84,0,0,1,92.7,366.05V247.91Z"></path><rect width="126.81" height="28.5" x="155.29" y="129.83" fill="url(#a)" style="mix-blend-mode:multiply"></rect><path fill="#5e6175" d="M285.09,161.33H152.29v-34.5h132.8Zm-126.8-6h120.8v-22.5H158.29Z"></path><rect width="175.27" height="71.65" x="131.06" y="58.18" fill="#a9afc4" rx="11.85"></rect><rect width="16.34" height="71.65" x="162.08" y="58.18" fill="url(#b)" style="mix-blend-mode:multiply"></rect><rect width="16.34" height="71.65" x="210.52" y="58.18" fill="url(#c)" style="mix-blend-mode:multiply"></rect><rect width="16.34" height="71.65" x="258.96" y="58.18" fill="url(#d)" style="mix-blend-mode:multiply"></rect><path fill="url(#e)" d="M344.68,212.22v35.69H92.7V212.22a26.94,26.94,0,0,1,26.94-26.94h31.07a26.94,26.94,0,0,0,26.95-26.95h82.06a26.94,26.94,0,0,0,26.94,26.95h31.07A26.94,26.94,0,0,1,344.68,212.22Z" style="mix-blend-mode:multiply"></path><path fill="#5e6175" d="M294.47,132.83H142.91A14.87,14.87,0,0,1,128.06,118V70a14.86,14.86,0,0,1,14.85-14.85H294.47A14.86,14.86,0,0,1,309.32,70V118A14.87,14.87,0,0,1,294.47,132.83ZM142.91,61.18A8.86,8.86,0,0,0,134.06,70V118a8.87,8.87,0,0,0,8.85,8.86H294.47a8.87,8.87,0,0,0,8.85-8.86V70a8.86,8.86,0,0,0-8.85-8.85Z"></path><path fill="url(#f)" d="M377.52,187.17v22.39a85.61,85.61,0,0,1-50.26-51.23h21.42A28.84,28.84,0,0,1,377.52,187.17Z" style="mix-blend-mode:multiply"></path><polygon fill="#f5f5f5" points="403.68 171.13 404.4 172.66 403.68 172.66 403.68 171.13"></polygon><polygon fill="#f5f5f5" points="411.48 171.13 411.48 172.66 410.76 172.66 411.48 171.13"></polygon><path fill="#5e6175" d="M348.68,432.92H88.7a31.88,31.88,0,0,1-31.84-31.84V187.17A31.88,31.88,0,0,1,88.7,155.33h260a31.88,31.88,0,0,1,31.84,31.84V401.08A31.88,31.88,0,0,1,348.68,432.92ZM88.7,161.33a25.87,25.87,0,0,0-25.84,25.84V401.08A25.87,25.87,0,0,0,88.7,426.92h260a25.88,25.88,0,0,0,25.84-25.84V187.17a25.88,25.88,0,0,0-25.84-25.84Z"></path><circle cx="407.58" cy="129.83" r="68.42" fill="#f5f5f5"></circle><path fill="#5e6175" d="M407.58,201.24A71.42,71.42,0,1,1,479,129.83,71.49,71.49,0,0,1,407.58,201.24Zm0-136.83A65.42,65.42,0,1,0,473,129.83,65.49,65.49,0,0,0,407.58,64.41Z"></path><path fill="#e1830e" d="M416.34 119.15a8.76 8.76 0 10-12.93 7.7v47L379.05 122.6c13.58-16.59 14.11-33.08 14.11-33.08H422s.53 16.49 14.11 33.08l-24.36 51.25v-47A8.74 8.74 0 00416.34 119.15zM66.07 126.64A14.27 14.27 0 0180.34 140.9a14.25 14.25 0 0114.27-14.25 14.28 14.28 0 01-14.27-14.27A14.26 14.26 0 0166.07 126.64zM401.21 354.73a30.84 30.84 0 0130.84 30.84 30.83 30.83 0 0130.84-30.83 30.84 30.84 0 01-30.84-30.84A30.83 30.83 0 01401.21 354.73z"></path><path fill="#5e6175" d="M414.85 290a13.87 13.87 0 1113.8-15.63A13.88 13.88 0 01414.85 290zm-7.77-12.87a7.87 7.87 0 1012.63-7.23A7.86 7.86 0 00407.08 277.16zM466.92 239.58a10.54 10.54 0 01-10.44-9.21h0a10.55 10.55 0 1110.44 9.21zm-4.49-10a4.55 4.55 0 107.3-4.17 4.54 4.54 0 00-7.3 4.17z"></path><path fill="#a9afc4" d="M185.54,456.82H182v-6h3.52Zm-13.52,0h-6v-6h6Zm-16,0h-6v-6h6Zm-16,0h-6v-6h6Zm-16,0h-6v-6h6Zm-16,0h-6v-6h6Zm-16,0H86l.06-6h6Zm-16.54-1.15A53.36,53.36,0,0,1,69.35,454l1.93-5.68a48.43,48.43,0,0,0,5.43,1.49Zm-15.76-6.06a54.47,54.47,0,0,1-5.29-3.51l3.6-4.79a51.61,51.61,0,0,0,4.7,3.11ZM46.64,439a57.54,57.54,0,0,1-4-5l4.92-3.44a46.38,46.38,0,0,0,3.5,4.41ZM37.5,424.77a52.54,52.54,0,0,1-2.2-6L41,417.07a46,46,0,0,0,2,5.29Zm-4.25-16.34a57.35,57.35,0,0,1-.25-6.27h6a52.7,52.7,0,0,0,.22,5.7ZM39,392.16H33v-6h6Z"></path><rect width="343.35" height="6" x="88.7" y="426.92" fill="#5e6175"></rect></g></svg>