<svg xmlns="http://www.w3.org/2000/svg" xmlns:xlink="http://www.w3.org/1999/xlink" viewBox="0 0 512 512" id="instant-delivery"><defs><linearGradient id="a" x1="297.52" x2="297.52" y1="387.52" y2="150.35" gradientUnits="userSpaceOnUse"><stop offset="0" stop-color="#cacfdd"></stop><stop offset="1" stop-color="#eef0f1"></stop></linearGradient><linearGradient xlink:href="#a" id="b" x1="342.77" x2="398.38" y1="223.25" y2="223.25"></linearGradient></defs><g><path fill="#e1830e" d="M115.54,252.69h44.93a62.37,62.37,0,0,1,0,124.73H119l1.89-2.35a13.94,13.94,0,0,0-10.86-22.67,68.47,68.47,0,0,1-41.72-14.18L36,313.36H61.38c19.24,0,28.88-23.27,15.27-36.88h29A13.94,13.94,0,0,0,115.54,252.69Z"></path><path fill="#f5f5f5" d="M189.63,315.06a23.73,23.73,0,0,1-23.73,23.73,44.79,44.79,0,0,1-26.49-8.67l-20.56-15.06L139.41,300a44.81,44.81,0,0,1,26.49-8.67A23.73,23.73,0,0,1,189.63,315.06Z"></path><path fill="url(#a)" d="M196.67,187.21V375H398.38V187.21Z"></path><path fill="url(#b)" d="M398.38,187.21v72.08a74.64,74.64,0,0,1-55.61-72.08Z" style="mix-blend-mode:multiply"></path><polygon fill="#e08326" points="270.71 187.22 270.71 237.11 279.65 230.77 288.62 237.11 297.56 230.77 306.48 237.11 315.42 230.77 324.35 237.11 324.35 187.22 270.71 187.22"></polygon><path fill="#5e6175" d="M401.38,378H193.67V184.22H401.38Zm-201.71-6H395.38V190.22H199.67Z"></path><rect width="50.21" height="20.15" x="222.83" y="336.19" fill="#5e6175"></rect><rect width="99.77" height="6" x="70.46" y="187.03" fill="#5e6175"></rect><path fill="#a9afc4" d="M189.3,164.32h-6v-6h6Zm-16,0h-6v-6h6Zm-16,0h-6v-6h6Zm-16,0h-6v-6h6Zm-16,0h-6v-6h6Z"></path><rect width="35.66" height="6" x="94.08" y="212.53" fill="#5e6175"></rect><circle cx="417.28" cy="187.22" r="58.72" fill="#f5f5f5"></circle><path fill="#5e6175" d="M417.28 248.94A61.72 61.72 0 11479 187.22 61.79 61.79 0 01417.28 248.94zm0-117.44A55.72 55.72 0 10473 187.22 55.78 55.78 0 00417.28 131.5zM356.28 116.92A11.1 11.1 0 11376 111.27 11.11 11.11 0 01356.28 116.92zm8.69-12a5.1 5.1 0 105.06 5.67A5.1 5.1 0 00365 104.92zM330.39 157.89a8.63 8.63 0 111-17.2h0a8.56 8.56 0 015.77 3.2A8.65 8.65 0 01330.39 157.89zm0-11.25a2.62 2.62 0 102.6 2.92A2.63 2.63 0 00330.39 146.64z"></path><rect width="6" height="16.26" x="413.85" y="382.49" fill="#5e6175" transform="rotate(-45 416.845 390.607)"></rect><rect width="16.26" height="6" x="419.62" y="368.46" fill="#5e6175"></rect><rect width="6" height="16.26" x="395.68" y="393.83" fill="#5e6175"></rect><polygon fill="#e08326" points="408.68 216.61 383.86 191.79 392.94 182.71 408.68 198.45 444.69 162.44 453.77 171.52 408.68 216.61"></polygon></g></svg>