<svg xmlns="http://www.w3.org/2000/svg" viewBox="0 0 512 512" id="intelligent-search"><defs><linearGradient id="a" x1="264.55" x2="298.48" y1="183.2" y2="183.2" gradientUnits="userSpaceOnUse"><stop offset="0" stop-color="#cacfdd"></stop><stop offset="1" stop-color="#eef0f1"></stop></linearGradient></defs><g style="isolation:isolate"><rect width="6" height="19.92" x="167.28" y="334.82" fill="#5e6175"></rect><rect width="6" height="19.91" x="193.32" y="327.67" fill="#5e6175" transform="rotate(-45 196.31 337.626)"></rect><rect width="19.91" height="6" x="134.77" y="335.86" fill="#5e6175" transform="rotate(-45 144.73 338.86)"></rect><path fill="#5e6175" d="M364.1 74.81A11.77 11.77 0 11365 51.3h0a11.77 11.77 0 01-.92 23.51zm0-17.55a5.77 5.77 0 105.75 6.22A5.79 5.79 0 00364.1 57.26zM311.77 114.83a9.09 9.09 0 11.7-18.16h0a9.09 9.09 0 01-.7 18.16zm0-12.18a3.09 3.09 0 102 5.44A3.1 3.1 0 00311.76 102.65z"></path><path fill="#a9afc4" d="M416.59,281.3c-.68-3.72-.4-2.2-1.09-5.9a53.4,53.4,0,0,0,5.45-1.47l1.83,5.72A57.46,57.46,0,0,1,416.59,281.3Zm15.85-5.4L430,270.44c1.75-.8,3.5-1.67,5.19-2.59l2.86,5.28C436.18,274.11,434.31,275,432.44,275.9Zm14.36-8.2-3.44-4.92c1.58-1.1,3.14-2.27,4.64-3.48l3.76,4.67C450.16,265.27,448.49,266.52,446.8,267.7ZM459.41,257l-4.3-4.18c1.34-1.38,2.64-2.82,3.87-4.29l4.6,3.86C462.25,254,460.85,255.51,459.41,257Zm10.33-12.94-5-3.27c1-1.6,2-3.26,3-5l5.25,2.9C471.93,240.54,470.85,242.33,469.74,244.05Zm7.65-14.64-5.55-2.28c.74-1.82.9-2.31,2.12-5.53l5.61,2.13C478.25,227.2,478.19,227.46,477.39,229.41Z"></path><path fill="#dee1ec" d="M304.19,285.5c-1.25.23-2.49.55-3.73.9l-27.7-27.69,1.93-2.71,0,0c48.25-68.57,20.28-164.53-57.21-196.61A131.24,131.24,0,1,0,163.81,311.8c29.56.75,57.75-8.8,81.71-25.86l28.11,28.11a38.68,38.68,0,0,0-.8,3.82l14.41,14.42,31.87-31.87ZM238,248c-26.78,27.57-64.11,36.14-97.5,26.65-14.15-4-25.81-11.3-37.29-20.24-42.15-36.7-44.66-103.25-5.07-142.84,37.68-37.69,100.48-37.67,138.16,0C276.39,151.68,271.67,214.34,238,248Z"></path><path fill="#5e6175" d="M338.39,295.87,438.74,396.22a38.87,38.87,0,1,1-55,55l-100-100a38.87,38.87,0,0,1,54.61-55.34Z"></path><path fill="#5e6175" d="M381.64,453.31l-100-100a41.84,41.84,0,0,1,0-59.21c16.61-16.61,43.26-15.95,58.85-.37L440.86,394.1a41.87,41.87,0,1,1-59.22,59.21ZM278.5,309.08a35.88,35.88,0,0,0,7.4,40l100,100a35.87,35.87,0,0,0,50.73-50.73L336.28,298A35.91,35.91,0,0,0,278.5,309.08Z"></path><path fill="#f5f5f5" d="M204.62,90.34c-36.24-14.82-78.74-6.51-106.47,21.23-39.59,39.59-37.08,106.14,5.07,142.85,12,9.31,24.19,16.78,39,20.7C176,284,212.26,274.51,238,248,283.76,202.24,269.43,117.2,204.62,90.34Z"></path><path fill="#f5f5f5" d="M204.62,90.34c-36.13-15-78.84-6.41-106.48,21.22C58.6,151.1,61,217.79,103.22,254.42c12,9.31,24.19,16.78,39,20.7A97.65,97.65,0,0,0,238,248C283.7,202.31,269.5,117.22,204.62,90.34Z"></path><path fill="url(#a)" d="M296,206.23,270.83,193.6a11.4,11.4,0,0,1,0-20.37l26-13.07A130.89,130.89,0,0,1,296,206.23Z" style="mix-blend-mode:multiply"></path><path fill="#e1830e" d="M181.32 231.75v15.72H133.59l-23-23H80.16A95.3 95.3 0 0174 208.75H117.1l23 23zM264.29 190.28H167.4V174.56h97A100.62 100.62 0 01264.29 190.28zM192.66 124.91l-27.27 27.27H74.06a93.88 93.88 0 016.18-15.73h78.63l22.68-22.67z"></path><circle cx="181.32" cy="239.61" r="17.95" fill="#5e6175" transform="rotate(-22.05 181.33 239.61)"></circle><circle cx="167.32" cy="182.36" r="17.95" fill="#5e6175" transform="rotate(-22.05 167.314 182.352)"></circle><circle cx="187.11" cy="119.34" r="17.95" fill="#5e6175" transform="rotate(-22.05 187.1 119.348)"></circle><path fill="#5e6175" d="M141.49,278c-13.41-3.54-25.77-10.09-40.11-21.24l-.12-.1c-43.5-37.74-46-106.5-5.24-147.24C124.5,81,168.61,72.17,205.77,87.57h0c66.17,27.42,82.06,114.85,34.37,162.54A100.61,100.61,0,0,1,141.49,278ZM105.13,252.1c13.64,10.59,25.33,16.8,37.89,20.12a94.57,94.57,0,0,0,92.81-26.29c44.31-44.31,30.53-126.76-32.36-152.82h0c-34.95-14.48-76.42-6.21-103.21,20.57C62.14,151.81,64.16,216.48,105.13,252.1Z"></path><path fill="#5e6175" d="M287.24,336.53l-17.6-17.61c.24-1.57.35-2.41.68-3.94l-25.14-25.14c-24.79,17.06-52.88,25.67-81.45,25A134.23,134.23,0,1,1,218.6,56.58h0c77,31.91,108.21,127.67,60,199l0,0-1.9,2.74,24.67,24.67c1.4-.35,2.12-.47,3.85-.79l18.16,18.16Zm-11.18-19.67L287.24,328l27.63-27.62-11.64-11.65c-1.11.27-1.81.48-3.64,1L268.85,259l3.36-4.79C320.1,186.18,290.89,93,216.3,62.12h0A128.24,128.24,0,1,0,163.88,308.8c28.06.7,55.67-8,79.9-25.3l2.07-1.47L277,313.14C276.58,314.63,276.29,315.68,276.06,316.86Z"></path><path fill="#f5f5f5" d="M388,259.42a76,76,0,1,0-74.71-89.89l-27.67,13.89,27.67,13.89A76,76,0,0,0,388,259.42Z"></path><path fill="#5e6175" d="M388,262.42h0a78.94,78.94,0,0,1-77.37-63.09l-31.69-15.91,31.69-15.91A79,79,0,1,1,388,262.42Zm-95.69-79,23.66,11.88.27,1.47A73,73,0,1,0,388,110.42c-33.26,0-64.92,22.68-72,61.12Z"></path><path fill="#e1830e" d="M400.75,225.79h7.69V212.22a11.24,11.24,0,0,0,7.93-7.93h13.56V196.6H416.76v-9.33h13.17v-7.7H416.76v-9.33h13.17v-7.69H416.37a11.24,11.24,0,0,0-7.93-7.93V141.06h-7.69v13.16h-9.33V141.06h-7.7v13.16h-9.33V141.06H366.7v13.56a11.23,11.23,0,0,0-7.93,7.93H345.2v7.69h13.17v9.33H345.2v7.7h13.17v9.33H345.2v7.69h13.57a11.23,11.23,0,0,0,7.93,7.93v13.57h7.69V212.62h9.33v13.17h7.7V212.62h9.33Z"></path><path fill="#f5f5f5" d="M389.36,194.79h4.49L381.3,169.93,368.55,194.8H373l2.42-4.71H387Zm-11.85-8.7,3.76-7.34,3.7,7.34Z"></path><rect width="3.98" height="24.87" x="399.67" y="169.93" fill="#f5f5f5"></rect></g></svg>