<svg xmlns="http://www.w3.org/2000/svg" xmlns:xlink="http://www.w3.org/1999/xlink" viewBox="0 0 512 512" id="knowledge-graph"><defs><linearGradient id="a" x1="255.2" x2="373.83" y1="163.51" y2="163.51" gradientUnits="userSpaceOnUse"><stop offset="0" stop-color="#cacfdd"></stop><stop offset="1" stop-color="#eef0f1"></stop></linearGradient><linearGradient xlink:href="#a" id="b" x1="136.56" x2="255.2" y1="163.51" y2="163.51"></linearGradient><linearGradient xlink:href="#a" id="c" x1="255.2" x2="255.2" y1="320.17" y2="93.97"></linearGradient></defs><g style="isolation:isolate"><path fill="url(#a)" d="M342.07,99.24a32.07,32.07,0,0,0-37-37.19A25.1,25.1,0,0,0,255.2,66.2V260.83A25.1,25.1,0,0,0,305.05,265a32.07,32.07,0,0,0,37-37.19c29-6.42,41.35-40.93,23.34-64.28C383.43,140.16,371.07,105.65,342.07,99.24Z"></path><path fill="url(#b)" d="M230.09,41.09a25.1,25.1,0,0,0-24.75,21,32.07,32.07,0,0,0-37,37.19c-29,6.41-41.34,40.93-23.34,64.27-18,23.36-5.66,57.87,23.34,64.28a32.07,32.07,0,0,0,37,37.19,25.1,25.1,0,0,0,49.86-4.15V66.2A25.11,25.11,0,0,0,230.09,41.09Z"></path><path fill="url(#c)" d="M365.65,163.84H345.14l7.39,9.6c10.91,14.09,3.15,34.69-14,38.48a16.24,16.24,0,0,0-12.5,18.69,15.82,15.82,0,0,1-15.56,18.58,14.46,14.46,0,0,1-2.73-.24A16.25,16.25,0,0,0,289,262.32a8.81,8.81,0,0,1-8.87,7.36,9.08,9.08,0,0,1-8.7-9.19V163.84H238.94v96.65a9.07,9.07,0,0,1-8.7,9.19,8.81,8.81,0,0,1-8.87-7.36A16.24,16.24,0,0,0,202.61,249a15.81,15.81,0,0,1-18.29-18.35,16.23,16.23,0,0,0-12.5-18.68c-17.08-3.77-24.88-24.37-14-38.48l7.39-9.6H144.74c-17.58,23.26-5.47,57.53,23.58,63.95a32.07,32.07,0,0,0,37,37.19,25.1,25.1,0,0,0,49.86-4.15A25.1,25.1,0,0,0,305.05,265a32.07,32.07,0,0,0,37-37.19C371.11,221.37,383.23,187.11,365.65,163.84Z" style="mix-blend-mode:multiply"></path><path fill="#5e6175" d="M280.3,288.93a28.12,28.12,0,0,1-28.1-28.1V66.2a28.1,28.1,0,0,1,55.19-7.48,35.1,35.1,0,0,1,38,38.28c28.17,8.17,40.7,42,23.72,66.51,17,24.5,4.46,58.35-23.72,66.52a35.09,35.09,0,0,1-38,38.27A28,28,0,0,1,280.3,288.93Zm0-244.84A22.13,22.13,0,0,0,258.2,66.2V260.83a22.1,22.1,0,0,0,43.89,3.66l.5-3,3,.51a29.09,29.09,0,0,0,34-28.64,39.37,39.37,0,0,0-1-7.9l2.81-.62c26.52-5.86,38.45-37.69,21.62-59.51l-1.41-1.84,1.41-1.83c16.79-21.77,5-53.64-21.62-59.51l-2.81-.62a39.38,39.38,0,0,0,1-7.91,29.09,29.09,0,0,0-34-28.63l-3,.51-.5-3A22,22,0,0,0,280.3,44.09Z"></path><path fill="#5e6175" d="M230.09,288.93A28,28,0,0,1,203,268.3,35.09,35.09,0,0,1,165,230c-28.17-8.17-40.7-42-23.72-66.52C124.28,139,136.8,105.17,165,97a35.1,35.1,0,0,1,38-38.28,28.11,28.11,0,0,1,55.2,7.48V260.83A28.13,28.13,0,0,1,230.09,288.93ZM207.8,261.51l.5,3a22.1,22.1,0,0,0,43.9-3.66V66.2a22.1,22.1,0,0,0-43.9-3.66l-.5,3-3-.51a29.08,29.08,0,0,0-34,28.63,39.75,39.75,0,0,0,1,7.91l-2.81.62c-26.53,5.86-38.44,37.69-21.62,59.51l1.41,1.83-1.41,1.84c-16.79,21.77-5,53.64,21.62,59.51l2.81.62a39.66,39.66,0,0,0-1,7.9,29.09,29.09,0,0,0,34,28.64Z"></path><path fill="#5e6175" d="M206.67 109.87h-6a24.82 24.82 0 0124.79-24.79v6A18.81 18.81 0 00206.67 109.87zM308.69 101.09a18.82 18.82 0 00-26.57 0l-4.24-4.24a24.82 24.82 0 0135.05 0zM233.12 246.69h-6a18.8 18.8 0 00-18.78-18.78v-6A24.81 24.81 0 01233.12 246.69zM228.46 173.73h-6a31.28 31.28 0 00-31.24-31.25v-6A37.29 37.29 0 01228.46 173.73zM282.51 182.33a45.83 45.83 0 0145.85-45.85v6a39.83 39.83 0 00-39.85 39.85zM175.88 202.33h-6A29.19 29.19 0 01199 173.18v6A23.18 23.18 0 00175.88 202.33zM307.74 191.67l4.25-4.25a23.13 23.13 0 0032.74 0l4.24 4.25A29.15 29.15 0 01307.74 191.67zM292.39 251.06h-6a29.19 29.19 0 0129.15-29.15v6A23.17 23.17 0 00292.39 251.06z"></path><path fill="#a9afc4" d="M82.74 332.73h-6v-6h6zm0-16h-6v-6h6zm0-16h-6v-6h6zm0-16h-6v-6h6zm0-16h-6v-6h6zm0-16h-6v-6h6zm0-16h-6v-6h6zm0-16h-6v-6h6zm0-16h-6v-6h6zM82.82 189l-6-.49a28.94 28.94 0 011.3-6.54l5.71 1.84A23.53 23.53 0 0082.82 189zm5.29-12.9l-4.62-3.83a29.21 29.21 0 014.81-4.62l3.64 4.78A22.93 22.93 0 0088.11 176.08zm11.71-7.59l-1.6-5.78a29.29 29.29 0 016.59-1l.25 6A23.65 23.65 0 0099.82 168.49zm21.11-.83h-6v-6h6zM435.24 332.73h-6v-6h6zm0-16h-6v-6h6zm0-16h-6v-6h6zm0-16h-6v-6h6zm0-16h-6v-6h6zm0-16h-6v-6h6zm0-16h-6v-6h6zm0-16h-6v-6h6zm0-16h-6v-6h6zM429.16 189a23.3 23.3 0 00-1-5.19l5.71-1.85a29.75 29.75 0 011.31 6.54zm-5.28-12.9a23.33 23.33 0 00-3.83-3.67l3.63-4.78a29.21 29.21 0 014.81 4.62zm-11.72-7.59a23.66 23.66 0 00-5.23-.82l.24-6a29.29 29.29 0 016.59 1zm-15.11-.83h-6v-6h6z"></path><path fill="#5e6175" d="M329.55,444l-3.94-2.76H182.8v1.91l-3.72-1.91h-8.81l3.73-2.6L73.17,387,176.8,333.87v-3.93l3.95,2.76h142.8v-1.79l3.69,1.79h8.84l-3.62,2.53L439.11,387,329.55,440.13Zm-140.22-8.76H317l-63.84-44.61Zm140.22-94.76v93L425.37,387ZM86.32,387l90.48,46.36V340.61Zm172.1,0,65.13,45.52v-91ZM182.8,341.46v91L247.94,387Zm6.53-2.76,63.85,44.62L317,338.7Z"></path><circle cx="179.8" cy="335.7" r="32.81" fill="#a9afc4"></circle><path fill="#5e6175" d="M179.8,371.51a35.81,35.81,0,1,1,35.81-35.81A35.85,35.85,0,0,1,179.8,371.51Zm0-65.62a29.81,29.81,0,1,0,29.81,29.81A29.85,29.85,0,0,0,179.8,305.89Z"></path><circle cx="179.8" cy="335.7" r="12.81" fill="#5e6175"></circle><circle cx="179.8" cy="438.25" r="32.81" fill="#e1830e"></circle><path fill="#5e6175" d="M179.8,474.06a35.81,35.81,0,1,1,35.81-35.81A35.85,35.85,0,0,1,179.8,474.06Zm0-65.62a29.81,29.81,0,1,0,29.81,29.81A29.85,29.85,0,0,0,179.8,408.44Z"></path><circle cx="179.8" cy="438.25" r="12.81" fill="#5e6175"></circle><circle cx="326.55" cy="335.7" r="32.81" fill="#e1830e"></circle><path fill="#5e6175" d="M326.55,371.51a35.81,35.81,0,1,1,35.81-35.81A35.84,35.84,0,0,1,326.55,371.51Zm0-65.62a29.81,29.81,0,1,0,29.81,29.81A29.84,29.84,0,0,0,326.55,305.89Z"></path><circle cx="326.55" cy="335.7" r="12.81" fill="#5e6175"></circle><circle cx="326.55" cy="438.25" r="32.81" fill="#a9afc4"></circle><path fill="#5e6175" d="M326.55,474.06a35.81,35.81,0,1,1,35.81-35.81A35.84,35.84,0,0,1,326.55,474.06Zm0-65.62a29.81,29.81,0,1,0,29.81,29.81A29.84,29.84,0,0,0,326.55,408.44Z"></path><circle cx="326.55" cy="438.25" r="12.81" fill="#5e6175"></circle><circle cx="432.24" cy="386.98" r="32.81" fill="#f5f5f5"></circle><path fill="#5e6175" d="M432.24,422.79A35.81,35.81,0,1,1,468.05,387,35.85,35.85,0,0,1,432.24,422.79Zm0-65.62A29.81,29.81,0,1,0,462.05,387,29.84,29.84,0,0,0,432.24,357.17Z"></path><circle cx="432.24" cy="386.98" r="12.81" fill="#5e6175"></circle><circle cx="79.74" cy="386.98" r="32.81" fill="#f5f5f5"></circle><path fill="#5e6175" d="M79.74,422.79A35.81,35.81,0,1,1,115.55,387,35.86,35.86,0,0,1,79.74,422.79Zm0-65.62A29.81,29.81,0,1,0,109.55,387,29.85,29.85,0,0,0,79.74,357.17Z"></path><circle cx="79.74" cy="386.98" r="12.81" fill="#5e6175"></circle><path fill="#5e6175" d="M158.13 47.29c-6.87-7.46-1.29-19.66 8.9-19.22a11.46 11.46 0 11-8.9 19.22zm4.41-4.07a5.46 5.46 0 104.24-9.15h0A5.47 5.47 0 00162.54 43.22zM120.28 88.22a8.87 8.87 0 1115.39-5.65A8.89 8.89 0 01120.28 88.22zm6.53-8.89a2.87 2.87 0 102.86 3A2.88 2.88 0 00126.81 79.33z"></path><rect width="6" height="20.58" x="428.99" y="437.08" fill="#5e6175"></rect><rect width="6" height="20.58" x="455.9" y="429.69" fill="#5e6175" transform="rotate(-45 458.88 439.966)"></rect><rect width="20.58" height="6" x="395.28" y="438.26" fill="#5e6175" transform="rotate(-45 405.583 441.252)"></rect></g></svg>