<svg xmlns="http://www.w3.org/2000/svg" viewBox="0 0 512 512" id="learning-algorithm"><g><path fill="#5e6175" d="M102 479h0a13.17 13.17 0 1113.23-13.1A13.18 13.18 0 01102 479zm0-6a7.17 7.17 0 10-7.12-7.21A7.15 7.15 0 00102 473zM43.31 424.43a10.06 10.06 0 1117.13 7.21A10.06 10.06 0 0143.31 424.43zm10-4a4.06 4.06 0 102.86 6.95A4.06 4.06 0 0053.36 420.42z"></path><rect width="6" height="60.8" x="426.18" y="363.13" fill="#5e6175"></rect><polygon fill="#a9afc4" points="454.7 363.13 394.53 363.13 411.22 334.88 471.39 334.88 454.7 363.13"></polygon><path fill="#5e6175" d="M456.41,366.13H389.27l20.24-34.25h67.13Zm-56.63-6H453l13.14-22.25h-53.2Z"></path><rect width="6" height="21.12" x="114.9" y="50.76" fill="#5e6175" transform="rotate(-45.06 117.902 61.313)"></rect><rect width="21.12" height="6" x="93.21" y="83.22" fill="#5e6175"></rect><rect width="6" height="21.12" x="138.5" y="36" fill="#5e6175" transform="rotate(-.06 133.665 47.816)"></rect><path fill="#a9afc4" d="M339.27,348.49l-3.4-4.94,4.94-3.4,3.41,4.94Zm13.18-9.07-3.4-4.94c3.41-2.35,3.77-2.57,4.65-3.31l3.87,4.58A60.59,60.59,0,0,1,352.45,339.42Zm11.78-12.84-5.56-2.26a17.42,17.42,0,0,0,1.23-5l6,.59A23.78,23.78,0,0,1,364.23,326.58ZM366,309.65h-6v-6h6Zm0-16h-6v-6h6Zm0-16h-6v-6h6Z"></path><polygon fill="#5e6175" points="101.22 216.94 95.22 216.94 95.22 165.5 158.22 102.5 162.46 106.75 101.22 167.99 101.22 216.94"></polygon><rect width="84.11" height="6" x="160.55" y="427.83" fill="#5e6175"></rect><polygon fill="#5e6175" points="166 442.42 128.41 385.28 94.76 385.28 94.76 379.28 131.64 379.28 171.01 439.12 166 442.42"></polygon><rect width="6" height="81.89" x="378.31" y="65.35" fill="#5e6175" transform="rotate(-45 381.31 106.296)"></rect><polygon fill="#f5f5f5" points="259.23 173.16 177.72 220.22 177.72 314.34 259.23 361.4 340.74 314.34 340.74 220.22 259.23 173.16"></polygon><path fill="#5e6175" d="M259.23,364.86l-84.52-48.79V218.49l84.52-48.8,84.51,48.8v97.58Zm-78.52-52.25,78.52,45.33,78.51-45.33V222l-78.51-45.33L180.71,222Z"></path><path fill="#e1830e" d="M264.19,299.56l13.22,0-37-73.31L202.85,299.6h13.24l7.13-13.89h34Zm-34.93-25.64,11.09-21.63,10.91,21.63Z"></path><rect width="11.73" height="73.31" x="294.58" y="226.29" fill="#e1830e"></rect><polygon fill="#5e6175" points="303.78 199.24 298.62 196.18 335.25 134.44 410.27 134.44 410.27 140.44 338.66 140.44 303.78 199.24"></polygon><circle cx="410.27" cy="135.25" r="32.11" fill="#dee1ec"></circle><path fill="#5e6175" d="M410.27,170.36a35.11,35.11,0,1,1,35.1-35.11A35.15,35.15,0,0,1,410.27,170.36Zm0-64.21a29.11,29.11,0,1,0,29.1,29.1A29.14,29.14,0,0,0,410.27,106.15Z"></path><circle cx="410.27" cy="135.25" r="12.54" fill="#5e6175"></circle><rect width="6" height="48.13" x="407.27" y="167.36" fill="#5e6175"></rect><rect width="108.7" height="6" x="134.43" y="380.47" fill="#5e6175" transform="rotate(-58.71 188.772 383.465)"></rect><polygon fill="#5e6175" points="429.18 431.48 354.17 431.48 298.21 339.02 303.35 335.91 357.56 425.48 429.18 425.48 429.18 431.48"></polygon><rect width="6" height="109.14" x="185.46" y="96.82" fill="#5e6175" transform="rotate(-31.02 188.491 151.409)"></rect><circle cx="160.55" cy="430.83" r="32.11" fill="#dee1ec"></circle><path fill="#5e6175" d="M160.55,465.93a35.11,35.11,0,1,1,35.11-35.1A35.14,35.14,0,0,1,160.55,465.93Zm0-64.21a29.11,29.11,0,1,0,29.11,29.11A29.14,29.14,0,0,0,160.55,401.72Z"></path><circle cx="160.55" cy="430.83" r="12.54" fill="#5e6175"></circle><circle cx="429.18" cy="428.48" r="32.11" fill="#a9afc4"></circle><path fill="#5e6175" d="M429.18,463.59a35.11,35.11,0,1,1,35.1-35.11A35.15,35.15,0,0,1,429.18,463.59Zm0-64.21a29.11,29.11,0,1,0,29.1,29.1A29.14,29.14,0,0,0,429.18,399.38Z"></path><circle cx="429.18" cy="428.48" r="12.54" fill="#5e6175"></circle><polygon fill="#dee1ec" points="448.92 210.58 410.27 191.43 371.62 210.58 410.27 229.73 448.92 210.58"></polygon><path fill="#5e6175" d="M410.27,233.08l-45.41-22.5,45.41-22.5,45.4,22.5Zm-31.89-22.5,31.89,15.8,31.89-15.8-31.89-15.81Z"></path><rect width="64.1" height="31.77" x="320.31" y="51.48" fill="#dee1ec"></rect><path fill="#5e6175" d="M387.41,86.25h-70.1V48.48h70.1Zm-64.1-6h58.1V54.48h-58.1Z"></path><rect width="64.1" height="31.77" x="229.36" y="414.95" fill="#dee1ec"></rect><path fill="#5e6175" d="M296.46,449.71h-70.1V412h70.1Zm-64.1-6h58.1V418h-58.1Z"></path><polygon fill="#dee1ec" points="117.91 382.28 79.26 363.13 40.61 382.28 79.26 401.44 117.91 382.28"></polygon><path fill="#5e6175" d="M79.26,404.78l-45.4-22.5,45.4-22.5,45.41,22.5Zm-31.89-22.5,31.89,15.81,31.89-15.81-31.89-15.8Z"></path><circle cx="160.34" cy="104.63" r="32.11" fill="#a9afc4"></circle><path fill="#5e6175" d="M160.34,139.73a35.11,35.11,0,1,1,35.11-35.11A35.15,35.15,0,0,1,160.34,139.73Zm0-64.21a29.11,29.11,0,1,0,29.11,29.1A29.14,29.14,0,0,0,160.34,75.52Z"></path><circle cx="160.34" cy="104.63" r="12.54" fill="#5e6175"></circle><polygon fill="#a9afc4" points="117.97 220 57.8 220 74.49 191.74 134.66 191.74 117.97 220"></polygon><path fill="#5e6175" d="M119.68,223H52.54l20.24-34.26h67.14Zm-56.63-6h53.21l13.14-22.26H76.2Z"></path></g></svg>