<svg xmlns="http://www.w3.org/2000/svg" xmlns:xlink="http://www.w3.org/1999/xlink" viewBox="0 0 512 512" id="lost-direction"><defs><linearGradient id="a" x1="79.6" x2="175.88" y1="219.97" y2="219.97" gradientUnits="userSpaceOnUse"><stop offset="0" stop-color="#cacfdd"></stop><stop offset="1" stop-color="#eef0f1"></stop></linearGradient><linearGradient xlink:href="#a" id="b" x1="201.11" x2="268.45" y1="280.86" y2="280.86"></linearGradient><linearGradient xlink:href="#a" id="c" x1="154.97" x2="222.3" y1="327.01" y2="327.01"></linearGradient></defs><g><path fill="#5e6175" d="M224.82,180.82H198.23V139.73a13.3,13.3,0,1,1,26.59,0Zm-20.59-6h14.59V139.73a7.3,7.3,0,1,0-14.59,0Z"></path><path fill="#5e6175" d="M221.82,177.82H201.23V139.73a10.3,10.3,0,1,1,20.59,0Z"></path><circle cx="211.71" cy="303.93" r="139.13" fill="#dee1ec"></circle><circle cx="211.71" cy="303.93" r="112.46" fill="#f5f5f5"></circle><path fill="url(#a)" d="M175.88,202.94A65.15,65.15,0,0,1,79.6,260.19,139.45,139.45,0,0,1,168,171.83,64.73,64.73,0,0,1,175.88,202.94Z" style="mix-blend-mode:multiply"></path><path fill="#5e6175" d="M211.53 156.62a36.69 36.69 0 1136.68-36.68A36.72 36.72 0 01211.53 156.62zm0-67.37a30.69 30.69 0 1030.68 30.69A30.72 30.72 0 00211.53 89.25zM211.71 446.06c-78.37 0-142.13-63.76-142.13-142.13s63.76-142.12 142.13-142.12 142.12 63.75 142.12 142.12S290.08 446.06 211.71 446.06zm0-278.25c-75.06 0-136.13 61.06-136.13 136.12s61.07 136.13 136.13 136.13S347.83 379 347.83 303.93 286.77 167.81 211.71 167.81z"></path><path fill="url(#b)" d="M268.45,249.87l-2.67-2.68c-24.94,14.39-41,22.51-60.55,42l-4.12,4.12,21.19,21.19,4.12-4.12C245.92,290.91,254,275,268.45,249.87Z" style="mix-blend-mode:multiply"></path><path fill="url(#c)" d="M155,358l2.67,2.67c24.4-14.08,41-22.49,60.54-42l4.12-4.12-21.19-21.19L197,297.46C177.47,317,169.07,333.56,155,358Z" style="mix-blend-mode:multiply"></path><path fill="#5e6175" d="M222.3,318.77l-25.43-25.43,6.24-6.24c20-20,36.4-28.22,63.16-43.66l5.93,5.93c-14.14,24.5-22.24,40.38-39.08,58.42C230.41,310.7,229.3,311.78,222.3,318.77Zm-16.94-25.43,16.94,17c20.74-20.75,26.94-33.14,41.61-58.55C238.43,266.44,226.09,272.6,205.36,293.34Z"></path><path fill="#5e6175" d="M157.15,364.42l-5.93-5.92,13.85-24a187.09,187.09,0,0,1,29.8-39.15l6.24-6.25,25.44,25.44c-6.44,6.43-7,7-8.6,8.55C198.88,341.51,182.36,349.87,157.15,364.42Zm44-66.84c-20.63,20.64-27,33.21-41.6,58.55,25.3-14.6,37.85-20.91,58.55-41.6Z"></path><rect width="6" height="11.47" x="208.71" y="404.93" fill="#5e6175"></rect><rect width="6" height="11.47" x="208.71" y="191.47" fill="#5e6175"></rect><rect width="11.47" height="6" x="99.24" y="300.93" fill="#5e6175"></rect><rect width="11.47" height="6" x="312.7" y="300.93" fill="#5e6175"></rect><circle cx="211.71" cy="303.93" r="14.98" fill="#e1830e" transform="rotate(-9.67 211.766 303.97)"></circle><circle cx="211.71" cy="303.93" r="7.14" fill="#e1830e" transform="matrix(.99 -.17 .17 .99 -48.05 39.89)"></circle><path fill="#e1830e" d="M199,316.65a18,18,0,1,1,25.43,0A18,18,0,0,1,199,316.65ZM211.71,292a12,12,0,1,0,8.47,20.46A12,12,0,0,0,211.71,292Z"></path><path fill="#a9afc4" d="M323.82 359.06h-6v-6h6zm-16 0h-6v-6h6zm-16 0h-6v-6h6zm-16 0h-6v-6h6zm-16 0h-6v-6h6zm-16 0h-6v-6h6zm-16 0h-6v-6h6zM350.83 359.06v-6c1.92 0 3.85-.08 5.74-.24l.51 6C355 359 352.92 359.06 350.83 359.06zm16.54-1.9L366 351.32c1.86-.44 3.71-1 5.53-1.56l1.87 5.71C371.42 356.11 369.39 356.68 367.37 357.16zM383 351.5l-2.67-5.37c1.7-.85 3.39-1.79 5-2.78l3.14 5.11C386.74 349.55 384.9 350.57 383 351.5zM397 342.39l-3.84-4.61c1.47-1.22 2.9-2.52 4.26-3.86l4.21 4.27C400.15 339.65 398.59 341.06 397 342.39zm11.5-12l-4.79-3.62c1.15-1.52 2.25-3.1 3.26-4.72l5.08 3.2C410.94 327 409.74 328.7 408.49 330.35zM416.93 316l-5.49-2.43c.77-1.74 1.48-3.53 2.09-5.34l5.68 1.94C418.54 312.15 417.77 314.11 416.93 316zm4.92-15.91L416 299c.35-1.86.62-3.77.81-5.68l6 .59C422.52 296 422.23 298.07 421.85 300.1zm1.22-16.47h-6v-6h6zm0-16h-6v-6h6zm0-16h-6v-6h6zM416.57 236c-.23-1.9-.55-3.8-.94-5.66l5.87-1.24c.43 2 .78 4.1 1 6.17zM413 221.18c-.66-1.79-1.41-3.57-2.22-5.29l5.42-2.57c.89 1.88 1.71 3.82 2.43 5.77zm-6.92-13.62c-1.05-1.58-2.19-3.14-3.38-4.63l4.69-3.74c1.3 1.62 2.54 3.32 3.69 5.05zm-9.86-11.66c-1.39-1.31-2.85-2.57-4.34-3.75l3.71-4.71c1.64 1.29 3.23 2.66 4.74 4.08zm-12.25-9.12c-1.65-.95-3.36-1.84-5.08-2.65l2.54-5.44c1.88.88 3.75 1.86 5.55 2.9zm-14-6.06c-1.82-.55-3.69-1-5.55-1.41l1.22-5.87c2 .42 4.07.94 6.06 1.54zm-15-2.67c-2.29-.14-3.77-.12-5.81-.12v-6c2.15 0 3.7 0 6.18.13zm-15.81-.12h-6v-6h6zm-16.55-.78a37.83 37.83 0 01-6.24-1.84l2.18-5.59a31.11 31.11 0 005.26 1.55zM306.88 170a38.17 38.17 0 01-4.8-4.37l4.4-4.08a32.19 32.19 0 004 3.69zm-11-13.24a38.34 38.34 0 01-2.42-6l5.74-1.76a32 32 0 002 5.09zM291.83 140a38 38 0 01.45-6.47l5.93.92a31.26 31.26 0 00-.38 5.48zm9-14.27l-5.44-2.55a39 39 0 013.25-5.63L303.6 121A31.24 31.24 0 00300.86 125.77zm8.94-11.45L306 109.66a39.11 39.11 0 015.37-3.66l2.95 5.23A31.49 31.49 0 00309.8 114.32zm13-6.41l-1.37-5.84a38.49 38.49 0 016.43-.94l.37 6A32.92 32.92 0 00322.82 107.91zm21.24-.86h-6v-6h6z"></path><path fill="#e1830e" d="M391,59.61a33.55,33.55,0,0,0-28.21,51.7L391,160.24c28.73-49.76,28.69-49.53,28.59-49.53C433.19,88.6,417.37,59.61,391,59.61Z"></path><rect width="204.19" height="6" x="211.71" y="440.06" fill="#5e6175"></rect><rect width="32.96" height="11.27" x="374.52" y="89.29" fill="#f5f5f5" transform="rotate(-45 390.998 94.923)"></rect><rect width="11.27" height="32.96" x="385.36" y="78.45" fill="#f5f5f5" transform="rotate(-45 390.998 94.923)"></rect><rect width="18.88" height="6" x="83.03" y="423.03" fill="#5e6175" transform="rotate(-45 92.47 426.037)"></rect><rect width="6" height="18.88" x="111.71" y="429.25" fill="#5e6175"></rect><rect width="18.88" height="6" x="69.86" y="401.93" fill="#5e6175"></rect><path fill="#5e6175" d="M357.26 421.66a9.43 9.43 0 119.42-9.42A9.44 9.44 0 01357.26 421.66zm0-12.85a3.43 3.43 0 103.42 3.43A3.44 3.44 0 00357.26 408.81zM401.05 398.79A12.92 12.92 0 11414 385.88 12.93 12.93 0 01401.05 398.79zm0-19.83a6.92 6.92 0 106.91 6.92A6.94 6.94 0 00401.05 379z"></path><circle cx="110.71" cy="202.94" r="50.17" fill="#f5f5f5"></circle><path fill="#5e6175" d="M110.71,256.11a53.17,53.17,0,1,1,53.17-53.17A53.23,53.23,0,0,1,110.71,256.11Zm0-100.34a47.17,47.17,0,1,0,47.17,47.17A47.22,47.22,0,0,0,110.71,155.77Z"></path><path fill="#e1830e" d="M116.55,215.53H104.88a24.91,24.91,0,0,1,10.36-20.19A7.76,7.76,0,1,0,103,189H91.29a19.42,19.42,0,1,1,30.76,15.78A13.21,13.21,0,0,0,116.55,215.53Z"></path><rect width="11.72" height="11.72" x="104.75" y="224.56" fill="#e1830e"></rect></g></svg>