<svg xmlns="http://www.w3.org/2000/svg" xmlns:xlink="http://www.w3.org/1999/xlink" viewBox="0 0 512 512" id="machine-learning"><defs><linearGradient id="a" x1="256" x2="256" y1="456.88" y2="-63.07" gradientUnits="userSpaceOnUse"><stop offset="0" stop-color="#cacfdd"></stop><stop offset="1" stop-color="#eef0f1"></stop></linearGradient><linearGradient xlink:href="#a" id="b" x1="255.98" x2="255.98" y1="525.26" y2="112.48"></linearGradient></defs><g style="isolation:isolate"><circle cx="358" cy="427.69" r="16.64" fill="#e1830e"></circle><rect width="6" height="19.82" x="93.54" y="430.68" fill="#5e6175"></rect><rect width="6" height="19.82" x="119.44" y="423.56" fill="#5e6175" transform="rotate(-45 122.44 433.473)"></rect><rect width="19.82" height="6" x="61.2" y="431.7" fill="#5e6175" transform="rotate(-44.99 71.127 434.726)"></rect><path fill="#5e6175" d="M164.39 56.46a11.6 11.6 0 01-8.62-3.79c-7-7.6-1.38-20.11 9.11-19.66a11.73 11.73 0 01-.49 23.45zm0-17.46a5.73 5.73 0 105.72 6A5.74 5.74 0 00164.39 39zM121.91 98.35a9.06 9.06 0 1115.71-5.77A9.07 9.07 0 01121.91 98.35zm6.66-9.2a3.06 3.06 0 103.05 3.18A3.07 3.07 0 00128.57 89.15z"></path><path fill="#e1830e" d="M323.09,206.37a24.76,24.76,0,0,0-28.59-28.72,19.38,19.38,0,0,0-38.5,3.2v150.3a19.38,19.38,0,0,0,38.5,3.2,24.76,24.76,0,0,0,28.59-28.72,31.32,31.32,0,0,0,18-49.63A31.32,31.32,0,0,0,323.09,206.37Z"></path><path fill="#e1830e" d="M188.91,206.37a24.76,24.76,0,0,1,28.59-28.72,19.38,19.38,0,0,1,38.5,3.2v150.3a19.38,19.38,0,0,1-38.5,3.2,24.76,24.76,0,0,1-28.59-28.72,31.32,31.32,0,0,1-18-49.63A31.32,31.32,0,0,1,188.91,206.37Z"></path><path fill="#5e6175" d="M275.39,353.54A22.42,22.42,0,0,1,253,331.15V180.85a22.39,22.39,0,0,1,43.81-6.5,27.78,27.78,0,0,1,29.58,29.79C348,210.79,357.72,236.8,344.81,256c12.91,19.2,3.17,45.21-18.42,51.86a27.77,27.77,0,0,1-29.58,29.79A22.31,22.31,0,0,1,275.39,353.54Zm0-189.08A16.41,16.41,0,0,0,259,180.85v150.3a16.38,16.38,0,0,0,32.54,2.71l.5-3,3,.5A21.77,21.77,0,0,0,320.47,310a34.76,34.76,0,0,0-.83-6.63l2.8-.62c20-4.42,29-28.41,16.29-44.87L337.32,256l1.41-1.83c12.68-16.45,3.74-40.45-16.29-44.87l-2.8-.62a35.17,35.17,0,0,0,.83-6.63A21.77,21.77,0,0,0,295,180.61l-3,.5-.5-3A16.32,16.32,0,0,0,275.39,164.46Z"></path><path fill="#5e6175" d="M236.61,353.54a22.31,22.31,0,0,1-21.42-15.89,27.77,27.77,0,0,1-29.58-29.79C164,301.21,154.28,275.2,167.19,256c-12.91-19.2-3.17-45.21,18.42-51.86a27.77,27.77,0,0,1,29.58-29.79,22.39,22.39,0,0,1,43.81,6.5v150.3A22.42,22.42,0,0,1,236.61,353.54ZM220,330.89l.5,3A16.38,16.38,0,0,0,253,331.15V180.85a16.38,16.38,0,0,0-32.54-2.71l-.5,3-3-.5a21.77,21.77,0,0,0-25.46,21.44,34.76,34.76,0,0,0,.83,6.63l-2.8.62c-20,4.42-29,28.41-16.29,44.87l1.41,1.83-1.41,1.83c-12.68,16.45-3.74,40.45,16.29,44.87l2.8.62a35.17,35.17,0,0,0-.83,6.63A21.77,21.77,0,0,0,217,331.39Z"></path><path fill="#5e6175" d="M205.6 242h-6a24.31 24.31 0 0124.29-24.29v6A18.3 18.3 0 00205.6 242zM322.63 248.12h-6a18.32 18.32 0 00-18.29-18.29v-6A24.32 24.32 0 01322.63 248.12zM235.84 201.05A11.87 11.87 0 00219 201l-4.25-4.23a17.88 17.88 0 0125.32 0zM276.51 209.45a17.87 17.87 0 0117.9-17.89v6a11.88 11.88 0 00-11.9 11.89zM295.37 315.56a11.87 11.87 0 00-16.82 0l-4.25-4.23a17.87 17.87 0 0125.31 0zM212.45 289.59h-6a22.78 22.78 0 00-22.75-22.75v-6A28.79 28.79 0 01212.45 289.59zM226.89 315.91h-6a16.71 16.71 0 0116.69-16.69v6A10.7 10.7 0 00226.89 315.91zM326.88 285a28.8 28.8 0 01-28.82-28.81h6A22.81 22.81 0 00326.88 279z"></path><rect width="37.85" height="37.85" x="237.08" y="238.87" fill="#f5f5f5" rx="4.03"></rect><path fill="#5e6175" d="M270.89,279.72H241.11a7,7,0,0,1-7-7V242.9a7,7,0,0,1,7-7h29.78a7,7,0,0,1,7,7v29.78A7,7,0,0,1,270.89,279.72Zm-29.78-37.85a1,1,0,0,0-1,1v29.78a1,1,0,0,0,1,1h29.78a1,1,0,0,0,1-1V242.9a1,1,0,0,0-1-1Z"></path><rect width="6" height="12.03" x="240.56" y="226.83" fill="#5e6175"></rect><rect width="6" height="12.03" x="265.44" y="226.83" fill="#5e6175"></rect><rect width="6" height="12.03" x="240.56" y="276.72" fill="#5e6175"></rect><rect width="6" height="12.03" x="265.44" y="276.72" fill="#5e6175"></rect><rect width="12.03" height="6" x="274.92" y="242.35" fill="#5e6175"></rect><rect width="12.03" height="6" x="274.92" y="267.23" fill="#5e6175"></rect><rect width="12.03" height="6" x="225.04" y="242.35" fill="#5e6175"></rect><rect width="12.03" height="6" x="225.04" y="267.23" fill="#5e6175"></rect><path fill="#dee1ec" d="M98.11,255.92a62.19,62.19,0,0,1-53.42,61.55A222.53,222.53,0,0,0,97,408.17a62.16,62.16,0,0,1,106.63,61.46,219.53,219.53,0,0,0,104.74.06,62.12,62.12,0,0,1,106.53-61.52,219.6,219.6,0,0,0,52.33-90.73,62.15,62.15,0,0,1,.05-123.06A223.42,223.42,0,0,0,415,103.7a62.16,62.16,0,0,1-106.6-61.5,225,225,0,0,0-104.74,0,62.12,62.12,0,0,1-106.54,61.5A220.29,220.29,0,0,0,44.76,194.4,62.14,62.14,0,0,1,98.11,255.92Zm260.62-59.31a118.62,118.62,0,1,1-162-43.43C256,119.77,326.91,141.44,358.73,196.61Z"></path><path fill="url(#a)" d="M394.1,255.57H374.65a118,118,0,0,0-15.92-59c-31.69-55-102.53-77-162-43.43a118.55,118.55,0,0,0-59.33,102.39H117.91a138.1,138.1,0,0,1,276.19,0Z" style="mix-blend-mode:multiply"></path><path fill="url(#b)" d="M413.92,256.73H395c-.27,15,2.94,29.48,10.78,42.23a83.25,83.25,0,0,0,35.41,31.68A200.16,200.16,0,0,1,413.34,379,83,83,0,0,0,366,364c-26.38,0-57.72,18-71,40.81a83.18,83.18,0,0,0-11,48.93,198.93,198.93,0,0,1-55.79-.07A83.13,83.13,0,0,0,217,404.81C203.67,381.87,172.73,364,146,364a83.07,83.07,0,0,0-47.36,15,202.74,202.74,0,0,1-27.89-48.3,83.32,83.32,0,0,0,35.36-31.61c7.29-11.82,11-27.06,11.12-42.34H98.08a62.15,62.15,0,0,1-53.4,60.74,222.68,222.68,0,0,0,52.37,90.7,62.15,62.15,0,0,1,106.62,61.46,219.49,219.49,0,0,0,104.73.06A62.13,62.13,0,0,1,415,408.17a219.88,219.88,0,0,0,52.33-90.73A62.14,62.14,0,0,1,413.92,256.73Z" style="mix-blend-mode:multiply"></path><path fill="none" stroke="#5e6175" stroke-miterlimit="10" stroke-width="6" d="M98.11,255.92a62.19,62.19,0,0,1-53.42,61.55A222.53,222.53,0,0,0,97,408.17a62.16,62.16,0,0,1,106.63,61.46,219.53,219.53,0,0,0,104.74.06,62.12,62.12,0,0,1,106.53-61.52,219.6,219.6,0,0,0,52.33-90.73,62.15,62.15,0,0,1,.05-123.06A223.42,223.42,0,0,0,415,103.7a62.16,62.16,0,0,1-106.6-61.5,225,225,0,0,0-104.74,0,62.12,62.12,0,0,1-106.54,61.5A220.29,220.29,0,0,0,44.76,194.4,62.14,62.14,0,0,1,98.11,255.92Zm260.62-59.31a118.62,118.62,0,1,1-162-43.43C256,119.77,326.91,141.44,358.73,196.61Z"></path><path fill="#a9afc4" d="M364.92,110.21v-6a35.73,35.73,0,0,0,5.52-.41l.9,5.93A42.43,42.43,0,0,1,364.92,110.21Zm-10.67-1.42a41.61,41.61,0,0,1-6.09-2.16l2.44-5.48a34.67,34.67,0,0,0,5.21,1.84Zm27.42-2-2.38-5.51a36.21,36.21,0,0,0,4.89-2.58l3.2,5.07A42.66,42.66,0,0,1,381.67,106.77ZM339,101.05a42.85,42.85,0,0,1-4.72-4.41l4.43-4a36.06,36.06,0,0,0,4,3.77Zm56.66-4.17-4.4-4.08a36,36,0,0,0,3.43-4.33l5,3.35A42.85,42.85,0,0,1,395.65,96.88Z"></path></g></svg>