<svg xmlns="http://www.w3.org/2000/svg" xmlns:xlink="http://www.w3.org/1999/xlink" viewBox="0 0 512 512" id="natural-language-processing"><defs><linearGradient id="a" x1="75.3" x2="100.2" y1="389.97" y2="389.97" gradientUnits="userSpaceOnUse"><stop offset="0" stop-color="#cacfdd"></stop><stop offset="1" stop-color="#eef0f1"></stop></linearGradient><linearGradient xlink:href="#a" id="b" x1="216.36" x2="241.26" y1="389.97" y2="389.97"></linearGradient><linearGradient xlink:href="#a" id="c" x1="357.41" x2="382.31" y1="389.97" y2="389.97"></linearGradient></defs><g style="isolation:isolate"><path fill="#a9afc4" d="M56.1,474.57h-6v-6h6Zm0-16h-6v-6h6Zm0-16h-6v-6h6Zm0-16h-6v-6h6Zm0-16h-6v-6h6Zm.5-15.26-5.84-1.38a24.67,24.67,0,0,1,2.46-6.35l5.24,2.92A18.88,18.88,0,0,0,56.6,395.31Zm7.8-11.75-4.24-4.24,4.24-4.24,4.24,4.24Z"></path><path fill="#5e6175" d="M386.4 65.14a11.57 11.57 0 1111.56-12A11.59 11.59 0 01386.4 65.14zm-4.09-15.35A5.57 5.57 0 10392 53.34 5.58 5.58 0 00382.31 49.79zM426.67 105.76a9 9 0 116.59-2.89A8.87 8.87 0 01426.67 105.76zm-.12-11.9a2.95 2.95 0 102.29 5 3 3 0 00-2.29-5z"></path><polygon fill="#f5f5f5" points="176.78 377.16 176.78 476 75.3 476 75.3 400.31 97.36 377.16 176.78 377.16"></polygon><polygon fill="url(#a)" points="100.2 377.16 100.2 402.79 75.3 402.79 75.3 400.31 97.36 377.16 100.2 377.16" style="mix-blend-mode:multiply"></polygon><polygon fill="#f5f5f5" points="317.84 377.16 317.84 476 216.36 476 216.36 400.31 238.41 377.16 317.84 377.16"></polygon><polygon fill="url(#b)" points="241.26 377.16 241.26 402.79 216.36 402.79 216.36 400.31 238.41 377.16 241.26 377.16" style="mix-blend-mode:multiply"></polygon><polygon fill="#f5f5f5" points="458.9 377.16 458.9 476 357.42 476 357.42 400.31 379.47 377.16 458.9 377.16"></polygon><path fill="#5e6175" d="M179.78 479H72.3V399.11l23.77-24.95h83.71zM78.3 473h95.48V380.16H98.64L78.3 401.51zM320.84 479H213.36V399.11l23.77-24.95h83.71zm-101.48-6h95.48V380.16H239.7l-20.34 21.35zM461.9 479H354.42V399.11l23.77-24.95H461.9zm-101.48-6H455.9V380.16H380.76l-20.34 21.35z"></path><polygon fill="url(#c)" points="382.31 377.16 382.31 402.79 357.42 402.79 357.42 400.31 379.47 377.16 382.31 377.16" style="mix-blend-mode:multiply"></polygon><path fill="#5e6175" d="M103.2 405.79H72.3v-6.68l23.77-24.95h7.13zm-23.25-6H97.2V381.67zM244.26 405.79h-30.9v-6.68l23.77-24.95h7.13zm-23.26-6h17.26V381.67zM385.31 405.79H354.42v-6.68l23.77-24.95h7.12zm-23.25-6h17.25V381.67z"></path><polygon fill="#5e6175" points="411.59 361.89 405.59 361.89 405.59 334.15 129.48 334.15 129.48 361.89 123.48 361.89 123.48 328.15 411.59 328.15 411.59 361.89"></polygon><rect width="6" height="61.45" x="264.54" y="300.44" fill="#5e6175"></rect><path fill="#dee1ec" d="M176.7,161.91a35.61,35.61,0,0,1-30.58,35.24,127.38,127.38,0,0,0,30,51.92,35.59,35.59,0,0,1,61,35.19,125.61,125.61,0,0,0,60,0,35.57,35.57,0,0,1,61-35.23,125.67,125.67,0,0,0,30-51.94,35.58,35.58,0,0,1,0-70.45,127.79,127.79,0,0,0-30-51.92,35.59,35.59,0,0,1-61-35.21,128.85,128.85,0,0,0-60,0,35.57,35.57,0,0,1-61,35.21,126.08,126.08,0,0,0-30,52A35.57,35.57,0,0,1,176.7,161.91Zm152.5-35.86A71.71,71.71,0,1,1,231.25,99.8C267.1,79.61,310,92.7,329.2,126.05Z"></path><path fill="none" stroke="#5e6175" stroke-miterlimit="10" stroke-width="6" d="M176.7,161.91a35.61,35.61,0,0,1-30.58,35.24,127.38,127.38,0,0,0,30,51.92,35.59,35.59,0,0,1,61,35.19,125.61,125.61,0,0,0,60,0,35.57,35.57,0,0,1,61-35.23,125.67,125.67,0,0,0,30-51.94,35.58,35.58,0,0,1,0-70.45,127.79,127.79,0,0,0-30-51.92,35.59,35.59,0,0,1-61-35.21,128.85,128.85,0,0,0-60,0,35.57,35.57,0,0,1-61,35.21,126.08,126.08,0,0,0-30,52A35.57,35.57,0,0,1,176.7,161.91Zm152.5-35.86A71.71,71.71,0,1,1,231.25,99.8C267.1,79.61,310,92.7,329.2,126.05Z"></path><path fill="#e1830e" d="M221.16 175.89a5.1 5.1 0 01-5.1-5.1V153.9a5.11 5.11 0 1110.21 0v16.89A5.1 5.1 0 01221.16 175.89zM313.69 183.94a5.1 5.1 0 01-5.1-5.1v-33a5.11 5.11 0 1110.21 0v33A5.1 5.1 0 01313.69 183.94zM245.15 193.22a5.1 5.1 0 01-5.1-5.1V136.56a5.1 5.1 0 1110.2 0v51.56A5.1 5.1 0 01245.15 193.22zM292.26 173.5a5.11 5.11 0 01-5.11-5.11v-12.1a5.11 5.11 0 0110.21 0v12.1A5.1 5.1 0 01292.26 173.5zM269.14 210.79a5.11 5.11 0 01-5.11-5.11V119a5.11 5.11 0 0110.21 0v86.68A5.1 5.1 0 01269.14 210.79z"></path><polygon fill="#e1830e" points="104.91 454.62 85.73 435.44 104.91 416.26 111.02 422.37 97.95 435.44 111.02 448.51 104.91 454.62"></polygon><polygon fill="#e1830e" points="147.89 454.62 141.78 448.51 154.85 435.44 141.78 422.37 147.89 416.26 167.07 435.44 147.89 454.62"></polygon><rect width="35.53" height="8.64" x="109.58" y="431.12" fill="#e1830e" transform="rotate(-65.19 127.356 435.446)"></rect><polygon fill="#e1830e" points="246.05 454.62 226.87 435.44 246.05 416.26 252.16 422.37 239.09 435.44 252.16 448.51 246.05 454.62"></polygon><polygon fill="#e1830e" points="289.03 454.62 282.92 448.51 295.99 435.44 282.92 422.37 289.03 416.26 308.21 435.44 289.03 454.62"></polygon><rect width="35.53" height="8.64" x="250.71" y="431.12" fill="#e1830e" transform="rotate(-65.19 268.503 435.446)"></rect><polygon fill="#e1830e" points="387.18 454.62 368 435.44 387.18 416.26 393.29 422.37 380.22 435.44 393.29 448.51 387.18 454.62"></polygon><polygon fill="#e1830e" points="430.16 454.62 424.05 448.51 437.12 435.44 424.05 422.37 430.16 416.26 449.34 435.44 430.16 454.62"></polygon><rect width="35.53" height="8.64" x="391.85" y="431.12" fill="#e1830e" transform="rotate(-65.19 409.638 435.45)"></rect><rect width="19.45" height="6" x="421.81" y="307.68" fill="#5e6175" transform="rotate(-45 431.538 310.681)"></rect><rect width="6" height="19.45" x="405.62" y="287.91" fill="#5e6175"></rect><rect width="19.45" height="6" x="435.38" y="329.42" fill="#5e6175"></rect></g></svg>