<svg xmlns="http://www.w3.org/2000/svg" viewBox="0 0 512 512" id="neural-network"><g><rect width="6" height="123.04" x="260.13" y="71.45" fill="#5e6175"></rect><rect width="6" height="123.04" x="260.13" y="317.52" fill="#5e6175"></rect><rect width="88.67" height="6" x="296.57" y="191.48" fill="#5e6175"></rect><rect width="88.67" height="6" x="296.57" y="314.52" fill="#5e6175"></rect><polygon fill="#5e6175" points="262.13 320.34 99.44 262.2 261.94 191.73 264.33 197.24 115.76 261.67 264.14 314.69 262.13 320.34"></polygon><path fill="#5e6175" d="M263.69,443.94,104.6,387.08V136.93L263.59,68,420.53,192.13l-3.72,4.71L262.68,74.91l-152.08,66v242l152,54.31,154.23-122,3.72,4.71Z"></path><circle cx="107.6" cy="138.9" r="33.43" fill="#e1830e"></circle><circle cx="107.6" cy="261.93" r="33.43" fill="#e1830e"></circle><circle cx="107.6" cy="384.97" r="33.43" fill="#e1830e"></circle><circle cx="418.67" cy="194.48" r="33.43" fill="#a9afc4"></circle><path fill="#a9afc4" d="M479,189.52h-6a17.91,17.91,0,0,0-.4-5.4l5.9-1.12A23,23,0,0,1,479,189.52ZM470,175a55.81,55.81,0,0,0-2.29-5.2l5.36-2.7a62.75,62.75,0,0,1,2.54,5.77Zm-7.26-13.25a56.35,56.35,0,0,0-3.63-4.39l4.42-4.05a60.25,60.25,0,0,1,4,4.86ZM452.17,151a55.66,55.66,0,0,0-4.68-3.24l3.15-5.1a61.41,61.41,0,0,1,5.19,3.59ZM439,143.47a55.82,55.82,0,0,0-5.38-1.83l1.63-5.77a60.1,60.1,0,0,1,6,2Zm-14.68-3.6a53.61,53.61,0,0,0-5.68-.3v-6a60.14,60.14,0,0,1,6.3.33Z"></path><circle cx="418.67" cy="317.52" r="33.43" fill="#a9afc4"></circle><circle cx="263.13" cy="71.45" r="33.43" fill="#dee1ec"></circle><circle cx="263.13" cy="194.48" r="33.43" fill="#dee1ec"></circle><circle cx="263.13" cy="317.52" r="33.43" fill="#dee1ec"></circle><circle cx="263.13" cy="440.55" r="33.43" fill="#dee1ec"></circle><path fill="#5e6175" d="M107.6 175.33A36.43 36.43 0 11144 138.9 36.47 36.47 0 01107.6 175.33zm0-66.86A30.43 30.43 0 10138 138.9 30.46 30.46 0 00107.6 108.47zM107.6 298.37A36.44 36.44 0 11144 261.94 36.47 36.47 0 01107.6 298.37zm0-66.87A30.44 30.44 0 10138 261.94 30.47 30.47 0 00107.6 231.5zM107.6 421.4A36.43 36.43 0 11144 385 36.47 36.47 0 01107.6 421.4zm0-66.86A30.43 30.43 0 10138 385 30.46 30.46 0 00107.6 354.54zM418.67 230.91a36.43 36.43 0 1136.43-36.43A36.47 36.47 0 01418.67 230.91zm0-66.86a30.43 30.43 0 1030.43 30.43A30.46 30.46 0 00418.67 164.05zM418.67 354a36.43 36.43 0 1136.43-36.43A36.47 36.47 0 01418.67 354zm0-66.86a30.43 30.43 0 1030.43 30.43A30.46 30.46 0 00418.67 287.09zM263.13 107.88a36.43 36.43 0 1136.44-36.43A36.47 36.47 0 01263.13 107.88zm0-66.86a30.43 30.43 0 1030.44 30.43A30.46 30.46 0 00263.13 41zM263.13 230.91a36.43 36.43 0 1136.44-36.43A36.47 36.47 0 01263.13 230.91zm0-66.86a30.43 30.43 0 1030.44 30.43A30.46 30.46 0 00263.13 164.05zM263.13 354a36.43 36.43 0 1136.44-36.43A36.47 36.47 0 01263.13 354zm0-66.86a30.43 30.43 0 1030.44 30.43A30.46 30.46 0 00263.13 287.09zM263.13 477a36.43 36.43 0 1136.44-36.43A36.47 36.47 0 01263.13 477zm0-66.86a30.43 30.43 0 1030.44 30.43A30.46 30.46 0 00263.13 410.12z"></path><circle cx="107.6" cy="138.9" r="13.06" fill="#5e6175"></circle><circle cx="107.6" cy="261.93" r="13.06" fill="#5e6175"></circle><circle cx="107.6" cy="384.97" r="13.06" fill="#5e6175"></circle><circle cx="263.13" cy="440.55" r="13.06" fill="#5e6175"></circle><circle cx="263.13" cy="317.52" r="13.06" fill="#5e6175"></circle><circle cx="263.13" cy="194.48" r="13.06" fill="#5e6175"></circle><circle cx="418.67" cy="194.48" r="13.06" fill="#5e6175"></circle><circle cx="418.67" cy="317.52" r="13.06" fill="#5e6175"></circle><circle cx="263.13" cy="71.45" r="13.06" fill="#5e6175"></circle><rect width="22" height="6" x="51.37" y="427.66" fill="#5e6175" transform="rotate(-45.06 62.363 430.66)"></rect><rect width="6" height="22" x="85.29" y="434.38" fill="#5e6175"></rect><rect width="22" height="6" x="36" y="403.1" fill="#5e6175"></rect><path fill="#5e6175" d="M407.07 425.18a13.59 13.59 0 01-13.29-16.46h0a13.6 13.6 0 0116.15-10.4 13.44 13.44 0 018.55 5.91A13.6 13.6 0 01407.07 425.18zM399.64 410a7.59 7.59 0 1013.8-2.51 7.58 7.58 0 00-13.8 2.51zM450.93 376.45A10.35 10.35 0 11469.75 373 10.36 10.36 0 01450.93 376.45zm4.45-6.52h0a4.35 4.35 0 107.91-1.44A4.35 4.35 0 00455.38 369.93z"></path></g></svg>