<svg xmlns="http://www.w3.org/2000/svg" xmlns:xlink="http://www.w3.org/1999/xlink" viewBox="0 0 512 512" id="new-product"><defs><linearGradient id="a" x1="217.3" x2="217.3" y1="165.07" y2="498.25" gradientUnits="userSpaceOnUse"><stop offset="0" stop-color="#cacfdd"></stop><stop offset="1" stop-color="#eef0f1"></stop></linearGradient><linearGradient xlink:href="#a" id="b" x1="217.3" x2="217.3" y1="165.07" y2="498.25"></linearGradient><linearGradient xlink:href="#a" id="c" x1="276.37" x2="365.49" y1="206.45" y2="206.45"></linearGradient></defs><g><path fill="#5e6175" d="M78.09 479a12.47 12.47 0 119-3.86A12.49 12.49 0 0178.09 479zM73.4 462.06a6.47 6.47 0 1011.16 4.32A6.48 6.48 0 0073.4 462.06zM27 443.45a9.58 9.58 0 119.58-9.8A9.59 9.59 0 0127 443.45zm0-13.15a3.58 3.58 0 102.6 6A3.57 3.57 0 0027 430.3zM152.43 134.94a10.91 10.91 0 1110.92-11.16h0A10.91 10.91 0 01152.43 134.94zm-3.55-14.29a4.91 4.91 0 108.47 3.27h0A4.92 4.92 0 00148.88 120.65z"></path><rect width="296.38" height="275.89" x="69.11" y="156.57" fill="url(#a)"></rect><rect width="296.37" height="275.89" x="69.12" y="156.57" fill="url(#b)"></rect><rect width="73.75" height="15.56" x="103.26" y="388.22" fill="#5e6175"></rect><polygon fill="#e08326" points="179.79 156.57 254.82 156.57 254.82 238.25 242.31 232.15 229.81 238.25 217.3 232.15 204.8 238.25 192.29 232.15 179.79 238.25 179.79 156.57"></polygon><polygon fill="url(#c)" points="365.49 156.57 365.49 256.34 359.96 251.85 320.13 254 309.87 215.46 276.37 193.79 290.74 156.57 365.49 156.57" style="mix-blend-mode:multiply"></polygon><path fill="#5e6175" d="M368.49,435.46H66.11V153.57H368.49Zm-296.38-6H362.49V159.57H72.11Z"></path><path fill="#f5f5f5" d="M472.72,156.57,484.45,187,457.1,204.65l-8.38,31.47-32.52-1.76L390.92,254.9l-25.28-20.54-32.52,1.76-8.37-31.47L297.4,187l11.72-30.39L297.4,126.18l27.35-17.69L333.12,77l32.52,1.76,25.28-20.54L416.2,78.77,448.72,77l8.38,31.48,27.35,17.69Z"></path><path fill="#5e6175" d="M390.92,258.77l-26.27-21.35-33.8,1.83-8.71-32.71-28.42-18.39,12.19-31.58L293.72,125l28.42-18.39,8.71-32.71,33.8,1.83,26.27-21.35L417.2,75.71,451,73.88l8.71,32.71L488.12,125l-12.18,31.59,12.18,31.58L459.7,206.54,451,239.25l-33.79-1.83Zm-24.28-27.46L390.92,251l24.29-19.73L446.45,233l8.05-30.24,26.27-17-11.26-29.19,11.26-29.2-26.27-17-8.05-30.24-31.24,1.69L390.92,62.09,366.64,81.83,335.4,80.14l-8,30.24-26.27,17,11.26,29.2-11.26,29.19,26.27,17,8,30.24Z"></path><path fill="#e1830e" d="M379.24 194.89h23.37v.92a7 7 0 01-7 6.95h-9.43a6.93 6.93 0 01-6.49-4.45A8 8 0 01379.24 194.89zM427.26 183.65a4.1 4.1 0 01-4.12 4.13H358.7a4.13 4.13 0 010-8.25 12.8 12.8 0 006.64-11.12c0-29.22 0-27.08 0-27.8a12 12 0 0015.24-11.5 11.84 11.84 0 00-3.79-8.72 25.4 25.4 0 019.77-3.83 17.39 17.39 0 000-1.89 4.31 4.31 0 018.62 0 12.92 12.92 0 010 1.88 25.5 25.5 0 0121.3 25.17v26.69a12.8 12.8 0 006.62 11.12A4.11 4.11 0 01427.26 183.65z"></path><circle cx="368.67" cy="129.12" r="6.41" fill="#e1830e"></circle><path fill="#5e6175" d="M116.59 331.4L97.38 350.18h11v23.14h16.34V350.18h11zM163.68 331.4l-19.21 18.78h11v23.14h16.34V350.18h11z"></path><rect width="379.08" height="6" x="69.11" y="429.46" fill="#5e6175"></rect><rect width="19.43" height="6" x="458.57" y="55.74" fill="#5e6175" transform="rotate(-45 468.294 58.746)"></rect><rect width="6" height="19.43" x="442.4" y="36" fill="#5e6175"></rect><rect width="19.43" height="6" x="472.13" y="77.46" fill="#5e6175"></rect><path fill="#a9afc4" d="M396 375.88h-6v-6h6zm10.59-.64l-1.25-5.87a22.16 22.16 0 005-1.69l2.58 5.42A28.45 28.45 0 01406.58 375.24zm15.24-8.73l-4.42-4.05a23.29 23.29 0 003.1-4.29l5.24 2.93A29.25 29.25 0 01421.82 366.51zm7.36-16l-6-.72a41.47 41.47 0 00.17-5.63h6A47 47 0 01429.18 350.55zm.21-16.35h-6v-6h6zm0-16h-6v-6h6zm0-16h-6v-6h6zm0-16h-6v-6h6zm0-16h-6v-6h6zM350.49 376.32h-6v-6h6zm-16 0h-6v-6h6zm-16 0h-6v-6h6zm-16 0h-6v-6h6zm-16 0h-6v-6h6zm-16 0h-6v-6h6zm-16 0h-6v-6h6zm-16 0h-6v-6h6z"></path></g></svg>