<svg xmlns="http://www.w3.org/2000/svg" viewBox="0 0 512 512" id="not-found"><defs><linearGradient id="a" x1="309.19" x2="425.47" y1="363.92" y2="363.92" gradientUnits="userSpaceOnUse"><stop offset="0" stop-color="#cacfdd"></stop><stop offset="1" stop-color="#eef0f1"></stop></linearGradient></defs><g><path fill="#f5f5f5" d="M425.47,102V395.31a17.75,17.75,0,0,1-17.75,17.74h-312A17.74,17.74,0,0,1,78,395.31V102A17.74,17.74,0,0,1,95.69,84.26h312A17.75,17.75,0,0,1,425.47,102Z"></path><path fill="url(#a)" d="M425.47,321.78v73.54a17.75,17.75,0,0,1-17.75,17.74H310.65c-9.63-50.89,29.61-98.27,81.52-98.27A82.27,82.27,0,0,1,425.47,321.78Z" style="mix-blend-mode:multiply"></path><path fill="#5e6175" d="M407.72,416.05h-312A20.76,20.76,0,0,1,75,395.31V102A20.76,20.76,0,0,1,95.69,81.26h312A20.77,20.77,0,0,1,428.47,102V395.31A20.77,20.77,0,0,1,407.72,416.05ZM95.69,87.26A14.75,14.75,0,0,0,81,102V395.31a14.75,14.75,0,0,0,14.74,14.74h312a14.76,14.76,0,0,0,14.75-14.74V102a14.76,14.76,0,0,0-14.75-14.74Z"></path><path fill="#5e6175" d="M425.47,102v21.78H78V102A17.74,17.74,0,0,1,95.69,84.26h312A17.75,17.75,0,0,1,425.47,102Z"></path><circle cx="104.68" cy="104.02" r="7.68" fill="#f5f5f5"></circle><circle cx="133.76" cy="104.02" r="7.68" fill="#f5f5f5"></circle><circle cx="254.12" cy="241.96" r="99.16" fill="#dee1ec"></circle><path fill="#a9afc4" d="M273,389.81H235.24a10.15,10.15,0,0,1,0-20.3H273a10.15,10.15,0,0,1,0,20.3Z"></path><circle cx="392.17" cy="397.73" r="67.95" fill="#f5f5f5"></circle><path fill="#5e6175" d="M392.17 468.67a70.95 70.95 0 1170.94-70.94A71 71 0 01392.17 468.67zm0-135.89a64.95 64.95 0 1064.94 65A65 65 0 00392.17 332.78zM243.6 265.85a48.25 48.25 0 0120-38.11 16.33 16.33 0 10-25.82-14.27H216.74a37.39 37.39 0 1159.2 31.36 27.19 27.19 0 00-11.27 21z"></path><rect width="21.16" height="21.16" x="243.33" y="285.68" fill="#5e6175"></rect><path fill="#e1830e" d="M409.84,404.29a30.53,30.53,0,1,0-10,10c6.27,10.66,11.58,15.33,20.63,24.38a48.6,48.6,0,0,0,13.61-14C425.19,415.9,420.47,410.55,409.84,404.29Zm-15-5a15.52,15.52,0,1,1,0-22A15.53,15.53,0,0,1,394.79,399.29Z"></path><path fill="#a9afc4" d="M337.15 459.46h-6v-6h6zm-16 0h-6v-6h6zm-16 0h-6v-6h6zm-16 0h-6v-6h6zm-16 0h-6v-6h6zm-16 0h-6v-6h6zm-16 0h-6v-6h6zm-16 0h-6v-6h6zm-16 0h-6v-6h6zm-16 0h-6v-6h6zM193.17 444.47h-6v-6h6zm0-16h-6v-5.55h6z"></path><rect width="18.88" height="6" x="432.07" y="65.43" fill="#5e6175" transform="rotate(-45.01 441.478 68.437)"></rect><rect width="6" height="18.88" x="416.26" y="46.33" fill="#5e6175"></rect><rect width="18.88" height="6" x="445.24" y="86.53" fill="#5e6175"></rect><path fill="#5e6175" d="M54.31 428.9a9.43 9.43 0 119.42-9.42A9.44 9.44 0 0154.31 428.9zm0-12.85a3.43 3.43 0 103.42 3.43A3.44 3.44 0 0054.31 416.05zM98.1 462.24A12.92 12.92 0 11111 449.32 12.93 12.93 0 0198.1 462.24zm0-19.83a6.92 6.92 0 106.91 6.91A6.92 6.92 0 0098.1 442.41z"></path><path fill="#a9afc4" d="M193.17,403.84h-6v-6h6Zm0-16h-6v-6h6Zm0-16h-6v-6h6Zm0-16h-6v-6h6Zm0-16h-6v-6h6Z"></path></g></svg>