<svg xmlns="http://www.w3.org/2000/svg" viewBox="0 0 512 512" id="offset-printing"><defs><linearGradient id="linear-gradient" x1="95.31" x2="428.43" y1="202.09" y2="202.09" gradientUnits="userSpaceOnUse"><stop offset="0" stop-color="#cacfdd"></stop><stop offset="1" stop-color="#eef0f1"></stop></linearGradient></defs><g style="isolation:isolate"><g id="Offset_Printing"><ellipse cx="95.31" cy="155.09" rx="37.65" ry="62.94" fill="#f5f5f5"></ellipse><ellipse cx="95.31" cy="155.76" rx="16.27" ry="36.51" fill="#a9afc4"></ellipse><path d="M433.33,155.09c0,34.76-16.86,62.94-37.65,62.94H95.31c20.8,0,37.66-28.18,37.66-62.94S116.11,92.15,95.31,92.15H395.68C416.47,92.15,433.33,120.33,433.33,155.09Z" fill="#a9afc4"></path><path d="M433.34,155.09a96.76,96.76,0,0,1-4.91,31.06C422,205.19,409.72,218,395.68,218H95.31c14,0,26.29-12.84,32.77-31.88A97.32,97.32,0,0,0,133,155.09c0-34.76-16.86-62.94-37.66-62.94H395.68C416.47,92.15,433.34,120.33,433.34,155.09Z" fill="#a9afc4"></path><path d="M391.59,155.09c0,34.76-16.86,62.94-37.65,62.94H142.09c20.79,0,37.65-28.18,37.65-62.94s-16.86-62.94-37.65-62.94H353.94C374.73,92.15,391.59,120.33,391.59,155.09Z" fill="#f5f5f5"></path><ellipse cx="95.31" cy="280.97" rx="37.65" ry="62.94" fill="#f5f5f5"></ellipse><path d="M66.11,201.13c-15.28-25.54-15.28-66.54,0-92.09,15.83-26.45,42.46-26.65,58.4,0,15.28,25.55,15.29,66.55,0,92.09C108.69,227.58,82.06,227.79,66.11,201.13Zm29.2-106c-19.1,0-34.65,26.89-34.65,59.94S76.21,215,95.31,215,130,188.14,130,155.09,114.42,95.15,95.31,95.15Z" fill="#5e6175"></path><path d="M66.11,327c-15.28-25.55-15.28-66.55,0-92.1,15.83-26.45,42.46-26.65,58.4,0,15.28,25.55,15.29,66.55,0,92.1C108.69,353.47,82.06,353.67,66.11,327Zm29.2-106c-19.1,0-34.65,26.89-34.65,59.94s15.55,59.94,34.65,59.94S130,314,130,281,114.42,221,95.31,221Z" fill="#5e6175"></path><ellipse cx="95.31" cy="281.64" rx="16.27" ry="36.51" fill="#a9afc4"></ellipse><ellipse cx="95.31" cy="155.76" rx="16.27" ry="36.51" fill="#e1830e"></ellipse><ellipse cx="95.31" cy="281.64" rx="16.27" ry="36.51" fill="#e1830e"></ellipse><path d="M433.33,281c0,34.76-16.86,62.94-37.65,62.94H95.31c20.8,0,37.66-28.18,37.66-62.94S116.11,218,95.31,218H395.68C416.47,218,433.33,246.21,433.33,281Z" fill="#a9afc4"></path><path d="M395.68,346.91H95.31v-6C114.42,340.91,130,314,130,281S114.42,221,95.31,221v-6H395.68c11.15,0,21.52,7.07,29.2,19.9,15.28,25.54,15.28,66.54,0,92.09C417.2,339.85,406.83,346.91,395.68,346.91Zm-283.25-6H395.68c19.11,0,34.65-26.89,34.65-59.94S414.79,221,395.68,221H112.43C137.81,240,144,294.52,124.51,327A47.57,47.57,0,0,1,112.43,340.91Z" fill="#5e6175"></path><path d="M433.33,413c0-133.36-.09-132,0-132,0-34.77-16.87-63-37.66-63H95.31C116.11,218,133,246.21,133,281c-.14,0,0,131.9,0,132a42.66,42.66,0,0,0,42.66,42.67H476A42.67,42.67,0,0,1,433.33,413Z" fill="#f5f5f5"></path><path d="M389.09,413c0-133.36-.1-132,0-132,0-34.77-16.87-63-37.66-63H148.26c20.8,0,37.66,28.18,37.66,62.94-.14,0,0,131.9,0,132a42.67,42.67,0,0,0,42.67,42.67H431.75A42.66,42.66,0,0,1,389.09,413Z" fill="#dee1ec"></path><path d="M476,458.65H175.63A45.72,45.72,0,0,1,130,413c-.07-138.71,0-109.41,0-132.79C129.72,247.5,114.27,221,95.31,221v-6H395.68c11.15,0,21.52,7.07,29.2,19.9,7.39,12.35,11.46,28.7,11.46,46.05V413A39.72,39.72,0,0,0,476,452.65ZM136,413a39.71,39.71,0,0,0,39.66,39.67H453.39A45.72,45.72,0,0,1,430.33,413V280C430,247.38,414.59,221,395.68,221H112.43a47.79,47.79,0,0,1,12.09,13.9C131.9,247.27,136,263.62,136,281,135.9,306.24,136,391.39,136,413Z" fill="#5e6175"></path><path d="M431.75,76.47a20.12,20.12,0,0,1,20.12,20.12A20.13,20.13,0,0,1,472,76.47a20.12,20.12,0,0,1-20.12-20.12A20.12,20.12,0,0,1,431.75,76.47Z" fill="#e1830e"></path><path d="M39,150.17,33,150c0-.09.07-2.42.53-6.28l6,.71C39.06,148,39,150.14,39,150.17Zm2.07-15.37-5.87-1.22c.41-2,.89-4,1.41-6l5.8,1.52C41.92,131,41.47,132.9,41.07,134.8Zm4.22-15-5.65-2c.71-2,1.46-3.89,2.26-5.75l5.52,2.35C46.67,116.13,46,118,45.29,119.8Zm6.38-14.14-5.25-2.91c1-1.83,2.09-3.62,3.2-5.32l5,3.27C53.62,102.29,52.61,104,51.67,105.66ZM60.38,93,55.79,89.1C57.14,87.5,58.55,86,60,84.49l4.26,4.23C62.93,90.07,61.62,91.5,60.38,93ZM71.46,82.42l-3.63-4.78c1.66-1.25,3.38-2.45,5.14-3.56l3.2,5.08C74.56,80.17,73,81.27,71.46,82.42Zm13-7.45-1.94-5.68a36.41,36.41,0,0,1,6.36-1.54l.87,5.94A29.14,29.14,0,0,0,84.45,75Zm100.84-1.59h-6v-6h6Zm-16,0h-6v-6h6Zm-16,0h-6v-6h6Zm-16,0h-6v-6h6Zm-16,0h-6v-6h6Zm-16,0h-6v-6h6Z" fill="#a9afc4"></path><rect width="19.34" height="6" x="452.99" y="215.26" fill="#5e6175"></rect><rect width="19.34" height="6" x="446.05" y="189.98" transform="rotate(-45 455.726 192.982)" fill="#5e6175"></rect><rect width="6" height="19.34" x="453.92" y="233.41" transform="rotate(-45 456.92 243.087)" fill="#5e6175"></rect><path d="M428.43,186.15C422,205.19,409.72,218,395.68,218H95.31c14,0,26.29-12.84,32.77-31.88Z" style="mix-blend-mode:multiply" fill="url(#linear-gradient)"></path><path d="M395.68 221H95.31v-6c19.11 0 34.66-26.89 34.66-59.94S114.42 95.15 95.31 95.15v-6H395.68c11.15 0 21.52 7.07 29.2 19.89 15.28 25.55 15.28 66.55 0 92.1C417.2 214 406.83 221 395.68 221Zm-283.25-6H395.68c19.11 0 34.65-26.89 34.65-59.94s-15.54-59.94-34.65-59.94H112.43c25.38 18.92 31.52 73.49 12.08 106A47.57 47.57 0 0 1 112.43 215ZM53.25 388.14A14.58 14.58 0 1 1 67.09 369 14.59 14.59 0 0 1 53.25 388.14Zm-7.68-18.45a8.58 8.58 0 1 0 11.53-3.8A8.6 8.6 0 0 0 45.57 369.69ZM98.82 426.42a9.85 9.85 0 1 1 9.35-12.93h0A9.86 9.86 0 0 1 98.82 426.42Zm0-13.7a3.85 3.85 0 1 0 3.66 2.65A3.86 3.86 0 0 0 98.81 412.72Z" fill="#5e6175"></path></g></g></svg>