<svg xmlns="http://www.w3.org/2000/svg" xmlns:xlink="http://www.w3.org/1999/xlink" viewBox="0 0 512 512" id="oil-lamp"><defs><linearGradient id="a" x1="224.93" x2="297.95" y1="148.58" y2="148.58" gradientUnits="userSpaceOnUse"><stop offset="0" stop-color="#cacfdd"></stop><stop offset="1" stop-color="#eef0f1"></stop></linearGradient><linearGradient xlink:href="#a" id="b" x1="356.85" x2="193.56" y1="438.25" y2="438.25"></linearGradient></defs><g><rect width="306.01" height="6" x="80.12" y="467.79" fill="#5e6175"></rect><path fill="#e1830e" d="M313.36,423.84H209.52c-53.68,0-92-50.73-79-101.69l37.54-147.07a81.49,81.49,0,0,1,79-61.37h28.75a81.48,81.48,0,0,1,79,61.37l37.55,147.07C405.37,373.13,367,423.84,313.36,423.84ZM247.07,133.91a61.31,61.31,0,0,0-59.43,46.16L150.1,327.14c-9.79,38.36,19.06,76.5,59.42,76.5H313.36c40.35,0,69.22-38.13,59.42-76.5L335.24,180.07a61.3,61.3,0,0,0-59.42-46.16Z"></path><path fill="#f5f5f5" d="M198.87 390.67H324a18.46 18.46 0 0118.46 18.46V448.9a0 0 0 010 0H180.41a0 0 0 010 0V409.13A18.46 18.46 0 01198.87 390.67zM180.44 448.9h162A20.59 20.59 0 01363 469.49v1.3a0 0 0 010 0H159.84a0 0 0 010 0v-1.3a20.59 20.59 0 0120.59-20.59z"></path><path fill="#5e6175" d="M366,473.79H156.84v-4.3a23.62,23.62,0,0,1,23.6-23.59h162A23.61,23.61,0,0,1,366,469.49Zm-203.11-6H360a17.61,17.61,0,0,0-17.51-15.89h-162A17.6,17.6,0,0,0,162.93,467.79Z"></path><path fill="#a9afc4" d="M335.74,316.52,299.22,161.59a28.54,28.54,0,0,0-27.78-22h-20a28.56,28.56,0,0,0-27.79,22L187.14,316.52a60.34,60.34,0,0,0,58.71,74.15H277A60.34,60.34,0,0,0,335.74,316.52Z"></path><path fill="#5e6175" d="M277.49,92.71a24,24,0,0,0-32.09,0L228.4,108h66.08Z"></path><path fill="#5e6175" d="M301.63,121.66H221.25a38.76,38.76,0,0,1-38.72-38.72,42.4,42.4,0,0,1,15-32.37l16-13.59a38.74,38.74,0,0,1,25-9.19h45.69a38.74,38.74,0,0,1,25,9.19l16,13.6a42.33,42.33,0,0,1,15,32.36A38.76,38.76,0,0,1,301.63,121.66Zm-63-87.87a32.78,32.78,0,0,0-21.16,7.76l-16,13.6a36.37,36.37,0,0,0-12.87,27.79,32.76,32.76,0,0,0,32.72,32.72h80.38a32.76,32.76,0,0,0,32.72-32.72,36.37,36.37,0,0,0-12.87-27.79l-16-13.6a32.75,32.75,0,0,0-21.15-7.76Z"></path><path fill="#f5f5f5" d="M232.14,108h58.6a10.89,10.89,0,0,1,10.89,10.89v20.65a0,0,0,0,1,0,0H221.25a0,0,0,0,1,0,0V118.93A10.89,10.89,0,0,1,232.14,108Z"></path><path fill="#5e6175" d="M304.63,142.59H218.25V118.93A13.9,13.9,0,0,1,232.14,105h58.6a13.9,13.9,0,0,1,13.89,13.89Zm-80.38-6h74.38V118.93a7.9,7.9,0,0,0-7.89-7.89h-58.6a7.9,7.9,0,0,0-7.89,7.89Z"></path><path fill="#f5f5f5" d="M243.16,321.25v22.4A62.46,62.46,0,0,0,258,303.26v-5.5l5.42,6.39a48.45,48.45,0,0,1,11.47,31.31l11.69-13.8a47.36,47.36,0,0,1,11.22,30.62v2.06a36.32,36.32,0,0,1-36.33,36.33c-21.49,0-36.33-16.8-36.33-35.63C225.11,340.93,231.34,335.21,243.16,321.25Z"></path><path fill="#5e6175" d="M261.44,393.67c-23,0-39.33-18.12-39.33-38.63,0-12.6,4.95-19.42,11.94-27.67l12.11-14.3v21.34A59.52,59.52,0,0,0,255,303.26V289.58l10.71,12.63a51.54,51.54,0,0,1,11.63,25.72L286.55,317l2.29,2.7a50.42,50.42,0,0,1,11.93,32.56v2.06A39.37,39.37,0,0,1,261.44,393.67ZM228.11,355a32.66,32.66,0,0,0,32.63,32.63c20.2,0,34-15.81,34-33.33v-2.06a44.44,44.44,0,0,0-8.31-25.86l-14.6,17.22v-8.18a45.5,45.5,0,0,0-10.94-29.58,65.61,65.61,0,0,1-15.47,39.71l-5.29,6.25v-22.4C232.63,338.33,228.11,343.66,228.11,355Z"></path><path fill="#e1830e" d="M271.74,373.13l-10.29-17.82-10.31,17.82a11.79,11.79,0,1,0,20.6,0Z"></path><rect width="6" height="17.04" x="391.42" y="398.68" fill="#5e6175" transform="rotate(-45 394.417 407.197)"></rect><rect width="17.04" height="6" x="397.33" y="384.13" fill="#5e6175"></rect><rect width="6" height="17.04" x="372.38" y="410.56" fill="#5e6175"></rect><path fill="#5e6175" d="M115.21 200.89a12.71 12.71 0 117.43-23C132.51 184.94 127.72 200.89 115.21 200.89zm.05-19.42a6.71 6.71 0 101.07 13.33h0a6.71 6.71 0 00-1.07-13.33zM152.4 150.4a9.74 9.74 0 115.69-17.66C165.67 138.17 162 150.4 152.4 150.4zm-3.67-9.13a3.74 3.74 0 105.87-3.66A3.74 3.74 0 00148.73 141.27z"></path><path fill="#a9afc4" d="M129.93,407.28c-1.4-1.51-2.76-3.08-4.06-4.68l4.66-3.78c1.21,1.5,2.49,3,3.8,4.39Zm-10.11-13c-1.11-1.73-2.18-3.52-3.18-5.32l5.25-2.9c.93,1.68,1.93,3.36,3,5Zm-7.67-14.62c-.8-1.9-1.53-3.85-2.2-5.79l5.68-1.94c.62,1.82,1.31,3.64,2.06,5.43Zm-5-15.73c-.45-2-.84-4.05-1.15-6.09l5.93-.91c.29,1.9.65,3.82,1.07,5.7ZM105,347.52c-.09-2.13-.11-4.25-.06-6.2l6,.14c0,2,0,3.92.07,5.8Zm6.68-15.7-6-.79c.27-2,.62-4.09,1-6.11l5.89,1.18C112.25,328,111.92,329.92,111.67,331.82ZM115,316.65,109.27,315l1.66-5.77,5.77,1.66Zm4.42-15.37-5.77-1.66,1.66-5.77,5.77,1.66Zm4.42-15.38-5.76-1.66,1.66-5.76,5.76,1.65Zm4.43-15.38-5.77-1.65,1.66-5.77,5.77,1.66Zm4.42-15.37L127,253.49l1.66-5.77,5.77,1.66Z"></path><path fill="url(#a)" d="M298,157.57h-73a28.54,28.54,0,0,1,26.52-18h20A28.53,28.53,0,0,1,298,157.57Z" style="mix-blend-mode:multiply"></path><path fill="#5e6175" d="M277,393.67H245.85a63.31,63.31,0,0,1-61.63-77.84L220.74,160.9a31.58,31.58,0,0,1,30.71-24.31h20a31.57,31.57,0,0,1,30.7,24.31l36.52,154.93A63.3,63.3,0,0,1,277,393.67ZM251.45,142.59a25.57,25.57,0,0,0-24.87,19.68L190.06,317.21a57.3,57.3,0,0,0,55.79,70.46H277a57.3,57.3,0,0,0,55.79-70.46L296.3,162.27a25.56,25.56,0,0,0-24.86-19.68Z"></path><rect width="162.06" height="21.3" x="180.41" y="427.6" fill="url(#b)" style="mix-blend-mode:multiply"></rect><path fill="#5e6175" d="M345.47,451.9H177.41V409.13a21.49,21.49,0,0,1,21.46-21.46H324a21.48,21.48,0,0,1,21.45,21.46Zm-162.06-6H339.47V409.13A15.47,15.47,0,0,0,324,393.67H198.87a15.48,15.48,0,0,0-15.46,15.46Z"></path></g></svg>