<svg xmlns="http://www.w3.org/2000/svg" viewBox="0 0 512 512" id="online-tracking"><defs><linearGradient id="a" x1="161.29" x2="301.87" y1="146.4" y2="146.4" gradientUnits="userSpaceOnUse"><stop offset="0" stop-color="#cacfdd"></stop><stop offset="1" stop-color="#eef0f1"></stop></linearGradient></defs><g><path fill="#dee1ec" d="M393.1,111.55v331.8A32.64,32.64,0,0,1,360.46,476H207a32.65,32.65,0,0,1-32.65-32.65V111.55A32.64,32.64,0,0,1,207,78.92H360.46A32.64,32.64,0,0,1,393.1,111.55Z"></path><path fill="#f5f5f5" d="M376,110V444.9a14,14,0,0,1-14,14H205.4a14,14,0,0,1-14-14V110a14,14,0,0,1,14-14h33.7a8.72,8.72,0,0,1,8.72,8.71,8.71,8.71,0,0,0,8.71,8.72h54.3a8.71,8.71,0,0,0,8.72-8.72A8.71,8.71,0,0,1,328.26,96H362A14,14,0,0,1,376,110Z"></path><path fill="url(#a)" d="M203.51,76.11a42.23,42.23,0,1,0,29.86,12.37A42.21,42.21,0,0,0,203.51,76.11Zm90.15,2.81H207a32.64,32.64,0,0,0-32.65,32.63V212.23A98.37,98.37,0,0,0,293.66,78.92Z" style="mix-blend-mode:multiply"></path><path fill="#5e6175" d="M360.46,479H207a35.68,35.68,0,0,1-35.64-35.64V111.55A35.68,35.68,0,0,1,207,75.91H360.46a35.68,35.68,0,0,1,35.64,35.64V443.36A35.68,35.68,0,0,1,360.46,479ZM207,81.91a29.67,29.67,0,0,0-29.64,29.64V443.36A29.67,29.67,0,0,0,207,473H360.46a29.68,29.68,0,0,0,29.64-29.64V111.55a29.68,29.68,0,0,0-29.64-29.64Z"></path><circle cx="203.52" cy="118.34" r="58.23" fill="#f5f5f5"></circle><path fill="#dee1ec" d="M261.75,176.57a82.35,82.35,0,1,0-122.67-7l-16.93,16.94,13,13,16.91-16.91A82.36,82.36,0,0,0,261.75,176.57Zm-99.41-99.4a58.23,58.23,0,1,1,0,82.34A58.22,58.22,0,0,1,162.34,77.17Z"></path><path fill="#5e6175" d="M46.69,275a19.31,19.31,0,0,1,0-27.32l58.24-58.25a19.32,19.32,0,0,1,27.32,27.32L74,275A19.33,19.33,0,0,1,46.69,275Z"></path><path fill="#5e6175" d="M135.16,203.79l-17.25-17.25,17.18-17.19a85.34,85.34,0,1,1,128.78,9.34h0a85.2,85.2,0,0,1-111.55,7.94Zm16.69-25.18,2.1,1.68a79.35,79.35,0,1,0-12.52-12.56l1.67,2.1-16.71,16.71,8.77,8.76Zm51.67.93A61.21,61.21,0,0,1,160.22,75h0a61.23,61.23,0,1,1,43.3,104.5ZM164.46,79.29h0a55.23,55.23,0,1,0,78.11,0A55.21,55.21,0,0,0,164.46,79.29Z"></path><path fill="#5e6175" d="M44.56,277.13a22.34,22.34,0,0,1,0-31.56l58.25-58.25a22.32,22.32,0,0,1,31.56,31.57L76.13,277.13A22.32,22.32,0,0,1,44.56,277.13Zm62.49-85.57L48.81,249.81a16.32,16.32,0,1,0,23.08,23.08l58.24-58.25a16.32,16.32,0,1,0-23.08-23.08Z"></path><path fill="#e08326" d="M328.65,385.24v14.57l-3.1-1.85-3.11,1.85L319.33,398l-3.11,1.85L313.1,398,310,399.81V385.24H289.86v54.85h58.92V385.24ZM311.31,433H296.65v-5.88h14.66Z"></path><path fill="#e1830e" d="M205.12,84.37a23.88,23.88,0,0,0-23.4,33.48c.68,1.7,20.83,33,21.8,34.51,11.46-17.8,22-34.51,21.8-34.51A23.9,23.9,0,0,0,205.12,84.37Zm-1.6,32.77a10.66,10.66,0,1,1,10.67-10.67A10.67,10.67,0,0,1,203.52,117.14Z"></path><path fill="#a9afc4" d="M272.59,430.21h-1.67a60.87,60.87,0,0,1,0-121.74h13.6A38.88,38.88,0,0,0,312,242.11l-34.88-34.88,24.81-24.81,34.88,34.87a74,74,0,0,1-52.3,126.27h-13.6a25.78,25.78,0,0,0,0,51.56h1.67Z"></path><path fill="#5e6175" d="M272.59,433.21h-1.67a63.87,63.87,0,0,1,0-127.74h13.6a35.88,35.88,0,0,0,25.37-61.24L275,209.35l4.24-4.24L314.13,240a41.87,41.87,0,0,1-29.61,71.48h-13.6a57.87,57.87,0,0,0,0,115.74h1.67Z"></path><path fill="#5e6175" d="M272.59,398.12h-1.67a28.78,28.78,0,0,1,0-57.56h13.6A71,71,0,0,0,334.7,219.42l-34.88-34.88,4.25-4.24,34.87,34.87a77,77,0,0,1-54.42,131.39h-13.6a22.78,22.78,0,0,0,0,45.56h1.67Z"></path><polygon fill="#e1830e" points="274.91 275.04 267.68 261.24 272.01 261.24 258.69 235.82 245.28 261.24 249.66 261.24 242.38 275.04 274.91 275.04"></polygon><polygon fill="#e1830e" points="345.96 162.08 341.36 153.29 344.11 153.29 335.63 137.1 327.09 153.29 329.88 153.29 325.24 162.08 345.96 162.08"></polygon><rect width="16.12" height="6" x="86.59" y="104.29" fill="#5e6175"></rect><rect width="16.12" height="6" x="92.38" y="125.36" fill="#5e6175" transform="rotate(-45 100.44 128.366)"></rect><rect width="6" height="16.12" x="96.44" y="78.54" fill="#5e6175" transform="rotate(-45 99.441 86.6)"></rect><path fill="#5e6175" d="M462.94 342.75a11 11 0 112.85-21.68h0a10.93 10.93 0 016.7 5.13A11 11 0 01462.94 342.75zm0-16.06A5 5 0 10467.8 333 5 5 0 00463 326.69zM415.9 369.48a8.58 8.58 0 1115.71-2.08A8.59 8.59 0 01415.9 369.48zm7.43-6.87a2.58 2.58 0 102.48 3.24A2.59 2.59 0 00423.33 362.61z"></path><path fill="#a9afc4" d="M424.32,168.54h-6v-6h6Zm0-16h-6v-6h6Zm0-16h-6v-6h6Zm0-16h-6v-6h6Zm-6-16a50.57,50.57,0,0,0-.38-5.65l6-.74a57.8,57.8,0,0,1,.42,6.31Zm-2.4-14.86a49.5,49.5,0,0,0-2-5.28L419.37,82a56.37,56.37,0,0,1,2.26,5.92Zm-6.66-13.48a52,52,0,0,0-3.49-4.47l4.52-4a57,57,0,0,1,3.89,5Zm-10.33-11A52.75,52.75,0,0,0,394.29,62l3.16-5.1a58.23,58.23,0,0,1,5.19,3.64Zm-13.07-7.46a48.19,48.19,0,0,0-5.38-1.74L382,50.27a57.32,57.32,0,0,1,6,2Zm-14.68-3.28c-2.14-.15-3.5-.13-5.78-.13v-6c2.32,0,3.84,0,6.2.14Zm-15.78-.13h-6v-6h6Zm-16,0h-6v-6h6Zm-16,0h-6v-6h6Z"></path></g></svg>