<svg xmlns="http://www.w3.org/2000/svg" xmlns:xlink="http://www.w3.org/1999/xlink" viewBox="0 0 512 512" id="online-payment"><defs><linearGradient id="a" x1="316.48" x2="403.08" y1="211.75" y2="211.75" gradientUnits="userSpaceOnUse"><stop offset="0" stop-color="#cacfdd"></stop><stop offset="1" stop-color="#eef0f1"></stop></linearGradient><linearGradient xlink:href="#a" id="b" x1="291.91" x2="362.52" y1="301.29" y2="301.29"></linearGradient></defs><g><path fill="#dee1ec" d="M419.34,417.44H56.05a13.7,13.7,0,0,1-13.71-13.7V390.07H433v13.67A13.7,13.7,0,0,1,419.34,417.44Z"></path><path fill="#a9afc4" d="M260.65,401.53H214.74a5.45,5.45,0,0,1-5.45-5.44v-6h56.8v6A5.45,5.45,0,0,1,260.65,401.53Z"></path><path fill="#5e6175" d="M419.34,420.44H56.05a16.73,16.73,0,0,1-16.71-16.7V387.07H436v16.67A16.72,16.72,0,0,1,419.34,420.44Zm-374-27.37v10.67a10.72,10.72,0,0,0,10.71,10.7H419.34a10.71,10.71,0,0,0,10.7-10.7V393.07Z"></path><path fill="#dee1ec" d="M403.08,181.12V376.66a13.41,13.41,0,0,1-13.39,13.41H85.7a13.41,13.41,0,0,1-13.4-13.41V181.12a13.39,13.39,0,0,1,13.4-13.39h304A13.39,13.39,0,0,1,403.08,181.12Z"></path><rect width="297.7" height="190.06" x="88.84" y="183.64" fill="#f5f5f5"></rect><path fill="url(#a)" d="M403.08,181.12v74.66a87.73,87.73,0,0,1-86.6-87.63c0-.14,0-.29,0-.42h73.2A13.39,13.39,0,0,1,403.08,181.12Z" style="mix-blend-mode:multiply"></path><path fill="#5e6175" d="M389.69 393.07h-304a16.42 16.42 0 01-16.39-16.4V181.12a16.41 16.41 0 0116.39-16.39h304a16.41 16.41 0 0116.39 16.39V376.67A16.41 16.41 0 01389.69 393.07zm-304-222.34A10.4 10.4 0 0075.3 181.12V376.67a10.41 10.41 0 0010.39 10.4h304a10.41 10.41 0 0010.39-10.4V181.12a10.4 10.4 0 00-10.39-10.39zM270.36 143.76a12.14 12.14 0 118.18-21.13C286.71 130.05 281.44 143.76 270.36 143.76zm-6.13-11.84a6.14 6.14 0 1010.27-4.84A6.14 6.14 0 00264.23 131.92zM323.19 110.25A9.35 9.35 0 11329.49 94 9.34 9.34 0 01323.19 110.25zm0-12.69a3.35 3.35 0 103.34 3.18A3.35 3.35 0 00323.21 97.56z"></path><path fill="#e1830e" d="M146.29,296.22a21.9,21.9,0,0,1-21.88-21.88h13.71a8.17,8.17,0,1,0,8.17-8.17,21.89,21.89,0,1,1,21.88-21.88H154.46a8.17,8.17,0,1,0-8.17,8.17,21.88,21.88,0,0,1,0,43.76Z"></path><rect width="13.71" height="13.68" x="139.43" y="289.36" fill="#e1830e"></rect><rect width="13.71" height="13.68" x="139.43" y="215.58" fill="#e1830e"></rect><circle cx="404.12" cy="168.15" r="71.88" fill="#f5f5f5"></circle><path fill="#5e6175" d="M404.12,243A74.88,74.88,0,1,1,479,168.15,75,75,0,0,1,404.12,243Zm0-143.75A68.88,68.88,0,1,0,473,168.15,69,69,0,0,0,404.12,99.27Z"></path><polygon fill="#e1830e" points="394.85 195.53 369.55 170.23 378.26 161.52 394.85 178.11 432.2 140.76 440.91 149.47 394.85 195.53"></polygon><path fill="url(#b)" d="M342.43,296.16l10.36-1.42,2.57-2.57v-14L291.91,259l.3,15,18.88,62.47c.1-.1-.87.6,5.69-4V311.21l32.39,32.38,13.35-13.34v-14Z"></path><path fill="#f5f5f5" d="M362.52,316.25,349.17,329.6l-32.39-32.39c-1.18,8.5-.82,6-3.11,22.66l-2.58,2.56c-25-82.57-9.11-30.14-19.18-63.43l63.45,19.18-2.57,2.57-22.66,3.11Z"></path><path fill="#5e6175" d="M349.17,333.84,318.93,303.6l-2.43,17.68-6.83,6.8L287.42,254.5,361,276.75l-6.82,6.83L336.52,286l30.24,30.24Zm-34.54-43,34.54,34.53,9.1-9.1-34.54-34.54,22.66-3.11-50-15.11,15.11,50Z"></path><rect width="105.01" height="14.26" x="202.9" y="222.4" fill="#dee1ec"></rect><rect width="67.47" height="14.26" x="202.9" y="258.28" fill="#dee1ec"></rect><rect width="67.47" height="14.26" x="202.9" y="294.17" fill="#dee1ec"></rect><rect width="105.01" height="14.26" x="124.41" y="330.05" fill="#dee1ec"></rect><rect width="24.82" height="14.26" x="245.55" y="330.05" fill="#dee1ec"></rect><rect width="6" height="19.49" x="55.82" y="145.22" fill="#5e6175" transform="rotate(-45 58.82 154.966)"></rect><rect width="19.49" height="6" x="36" y="174.93" fill="#5e6175"></rect><rect width="6" height="19.49" x="77.6" y="131.62" fill="#5e6175"></rect><path fill="#a9afc4" d="M437.23,311.42h-6v-6h6Zm-16,0h-6v-6h6Zm26.37-.19-.76-6a17,17,0,0,0,4.89-1.38l2.48,5.46A23.12,23.12,0,0,1,447.6,311.23Zm15.5-8.94-4.77-3.64a17.05,17.05,0,0,0,2.46-4.46l5.63,2.09A23.08,23.08,0,0,1,463.1,302.29Zm4.77-16.9h-6v-6h6Zm0-16h-6v-6h6Zm0-16h-6v-6h6Zm0-16h-6v-6h6Z"></path></g></svg>