<svg xmlns="http://www.w3.org/2000/svg" xmlns:xlink="http://www.w3.org/1999/xlink" viewBox="0 0 512 512" id="out-of-stock"><defs><linearGradient id="a" x1="173.73" x2="344.02" y1="204.31" y2="204.31" gradientUnits="userSpaceOnUse"><stop offset="0" stop-color="#cacfdd"></stop><stop offset="1" stop-color="#eef0f1"></stop></linearGradient><linearGradient id="b" x1="352.64" x2="352.64" y1="235.87" y2="427.48" gradientUnits="userSpaceOnUse"><stop offset="0" stop-color="#a9afc4"></stop><stop offset="1" stop-color="#d4d8e5"></stop></linearGradient><linearGradient xlink:href="#a" id="c" x1="180.43" x2="180.43" y1="251.96" y2="424.31"></linearGradient><linearGradient xlink:href="#b" id="d" x1="80.79" x2="280.06" y1="235.07" y2="235.07"></linearGradient><linearGradient xlink:href="#a" id="e" x1="280.06" x2="425.2" y1="235.07" y2="235.07"></linearGradient></defs><g><path fill="#f5f5f5" d="M352.64,137.77A93.76,93.76,0,1,1,258.87,44,93.77,93.77,0,0,1,352.64,137.77Z"></path><path fill="#e08326" d="M258.87,68.52a69.25,69.25,0,1,0,69.25,69.24A69.33,69.33,0,0,0,258.87,68.52Zm0,118.92a49.38,49.38,0,0,1-26.32-7.56L301,111.43a49.66,49.66,0,0,1-42.12,76Zm0-99.37a49.35,49.35,0,0,1,26.34,7.58c0,.1-68.45,68.54-68.45,68.44a49.66,49.66,0,0,1,42.11-76Z"></path><path fill="url(#a)" d="M344,177.07a93.91,93.91,0,0,1-58.74,50.67l-5.22-6.53-7.43,9.31a93.78,93.78,0,0,1-98.9-53.45Z" style="mix-blend-mode:multiply"></path><path fill="#5e6175" d="M258.87,234.53a96.77,96.77,0,1,1,96.77-96.77A96.88,96.88,0,0,1,258.87,234.53Zm0-187.53a90.77,90.77,0,1,0,90.77,90.76A90.87,90.87,0,0,0,258.87,47Z"></path><rect width="145.13" height="231.41" x="280.07" y="194.04" fill="url(#b)"></rect><rect width="199.27" height="231.42" x="80.79" y="194.04" fill="url(#c)"></rect><polygon fill="url(#d)" points="280.06 194.04 280.06 244.12 258.12 276.1 80.79 276.1 80.79 244.12 240.06 244.12 280.06 194.04" style="mix-blend-mode:multiply"></polygon><polygon fill="url(#e)" points="280.06 247.88 280.06 194.04 320.06 244.12 425.2 244.12 425.2 276.1 302.72 276.1 280.06 247.88" style="mix-blend-mode:multiply"></polygon><path fill="#5e6175" d="M428.2,428.45H277.07V191H428.2Zm-145.13-6H422.2V197H283.07Z"></path><path fill="#5e6175" d="M283.06,428.46H77.79V191H283.06Zm-199.27-6H277.06V197H83.79Z"></path><rect width="52.65" height="27.19" x="304.4" y="374.83" fill="#5e6175"></rect><polygon fill="#f5f5f5" points="240.06 244.12 36 244.12 76 194.04 280.06 194.04 240.06 244.12"></polygon><polygon fill="#f5f5f5" points="320.06 244.12 467.84 244.12 427.83 194.04 280.06 194.04 320.06 244.12"></polygon><path fill="#5e6175" d="M241.5,247.12H29.76L74.56,191H286.3Zm-199.26-6H238.61L273.83,197H77.45Z"></path><path fill="#5e6175" d="M474.07 247.12H318.62L273.83 191H429.28zm-152.56-6H461.6L426.39 197H286.3zM96.06 161.85a12.66 12.66 0 01-11.83-8.15c-4-10.53 6.77-20.71 17-16.13h0a12.69 12.69 0 01-5.2 24.28zm0-19.38a6.69 6.69 0 106.1 9.41A6.7 6.7 0 0096.09 142.47zM43.46 191.72a9.73 9.73 0 114-18.61h0a9.73 9.73 0 01-4 18.61zm0-13.46a3.73 3.73 0 103.4 5.25A3.73 3.73 0 0043.49 178.26z"></path><rect width="6" height="19.21" x="438.08" y="435.4" fill="#5e6175" transform="rotate(-45 441.048 444.982)"></rect><rect width="19.21" height="6" x="444.35" y="419.37" fill="#5e6175"></rect><rect width="6" height="19.21" x="416.61" y="448.79" fill="#5e6175"></rect><path fill="#a9afc4" d="M473.67,212.83l-3.78-4.66,4.66-3.78,3.78,4.66ZM463.6,200.4l-3.78-4.67,4.66-3.77,3.78,4.66ZM453.53,188l-3.78-4.66,4.66-3.78,3.78,4.67Zm-9.94-12a16.71,16.71,0,0,0-4.16-2.9l2.66-5.38a22.79,22.79,0,0,1,5.64,3.94Zm-12.51-4.65h-6v-6h6Zm-16,0h-6v-6h6Zm-16.3-.12a22.9,22.9,0,0,1-6.66-1.74l2.37-5.51a16.94,16.94,0,0,0,4.91,1.28Zm-15.66-8.72a22.7,22.7,0,0,1-3.36-6l5.62-2.11a16.66,16.66,0,0,0,2.48,4.43Zm1.28-16.8-6-.19c.06-1.92.08-3.9.05-5.87l6-.07C384.48,141.57,384.46,143.63,384.4,145.63ZM378,129.81c-.17-1.94-.39-3.9-.64-5.83l5.94-.79c.27,2,.5,4.07.68,6.09Zm-2.3-15.46c-.41-1.91-.86-3.83-1.35-5.7l5.81-1.52c.51,2,1,4,1.41,6Zm-4.17-15c-.64-1.85-1.32-3.69-2-5.5L375,91.59c.75,1.88,1.47,3.82,2.13,5.75Zm-6-14.42c-.85-1.74-1.76-3.49-2.7-5.2L368,76.79c1,1.79,1.94,3.63,2.84,5.45Zm-7.73-13.57c-1.06-1.61-2.17-3.24-3.32-4.84l4.88-3.5c1.19,1.67,2.36,3.37,3.46,5.06Z"></path><path fill="#5e6175" d="M54.48,455.72A11.26,11.26,0,1,1,64,438.45,11.25,11.25,0,0,1,54.48,455.72Zm0-16.52a5.26,5.26,0,1,0,5.12,6.42A5.26,5.26,0,0,0,54.49,439.2Z"></path></g></svg>