<svg xmlns="http://www.w3.org/2000/svg" xmlns:xlink="http://www.w3.org/1999/xlink" viewBox="0 0 512 512" id="package"><defs><linearGradient id="a" x1="110.69" x2="110.69" y1="239.53" y2="328.98" gradientUnits="userSpaceOnUse"><stop offset="0" stop-color="#a9afc4"></stop><stop offset="1" stop-color="#d4d8e5"></stop></linearGradient><linearGradient xlink:href="#a" id="c" x1="169.44" x2="169.44" y1="239.53" y2="328.98"></linearGradient><linearGradient xlink:href="#a" id="d" x1="228.18" x2="228.18" y1="239.53" y2="328.98"></linearGradient><linearGradient id="b" x1="81.32" x2="257.56" y1="252.56" y2="252.56" gradientUnits="userSpaceOnUse"><stop offset="0" stop-color="#cacfdd"></stop><stop offset="1" stop-color="#eef0f1"></stop></linearGradient><linearGradient xlink:href="#b" id="e" x1="374.52" x2="374.52" y1="383.16" y2="228.53"></linearGradient><linearGradient xlink:href="#b" id="f" x1="374.52" x2="374.52" y1="262.24" y2="107.61"></linearGradient><linearGradient xlink:href="#b" id="g" x1="256.83" x2="256.83" y1="395.63" y2="426.37"></linearGradient><linearGradient xlink:href="#b" id="h" x1="84" x2="84" y1="395.63" y2="426.37"></linearGradient><linearGradient xlink:href="#b" id="i" x1="429.65" x2="429.65" y1="395.63" y2="426.37"></linearGradient></defs><g style="isolation:isolate"><rect width="58.75" height="92.61" x="81.32" y="241.38" fill="url(#a)"></rect><rect width="58.75" height="92.61" x="140.06" y="241.38" fill="url(#c)"></rect><rect width="58.75" height="92.61" x="198.81" y="241.38" fill="url(#d)"></rect><rect width="193.18" height="40.02" x="73.37" y="201.36" fill="#dee1ec"></rect><rect width="193.18" height="40.02" x="73.37" y="333.99" fill="#dee1ec"></rect><path fill="#5e6175" d="M269.55 244.38H70.37v-46H269.55zm-193.18-6H263.55v-34H76.37zM269.55 377H70.37V331H269.55zM76.37 371H263.55V337H76.37z"></path><circle cx="110.69" cy="353.35" r="6.4" fill="#e08326"></circle><circle cx="228.18" cy="353.35" r="6.4" fill="#e08326"></circle><circle cx="110.69" cy="222.01" r="6.4" fill="#e08326"></circle><circle cx="228.18" cy="222.01" r="6.4" fill="#e08326"></circle><rect width="176.24" height="22.37" x="81.32" y="241.38" fill="url(#b)" style="mix-blend-mode:multiply"></rect><path fill="#5e6175" d="M143.06,337H78.32V238.38h64.74Zm-58.74-6h52.74V244.38H84.32Z"></path><path fill="#5e6175" d="M201.81,337H137.06V238.38h64.75Zm-58.75-6h52.75V244.38H143.06Z"></path><path fill="#5e6175" d="M260.56,337H195.81V238.38h64.75Zm-58.75-6h52.75V244.38H201.81Z"></path><path fill="url(#e)" d="M308.76,252.56V375H440.28V252.56Z"></path><polygon fill="#e08326" points="357.04 252.57 357.04 285.1 362.87 280.97 368.71 285.1 374.55 280.97 380.36 285.1 386.19 280.97 392.01 285.1 392.01 252.57 357.04 252.57"></polygon><rect width="32.74" height="13.14" x="325.82" y="349.7" fill="#5e6175"></rect><path fill="#5e6175" d="M443.28,378H305.76V249.56H443.28Zm-131.52-6H437.28V255.56H311.76Z"></path><path fill="url(#f)" d="M308.76,131.64V254.09H440.28V131.64Z"></path><polygon fill="#e08326" points="357.04 131.65 357.04 164.18 362.87 160.04 368.71 164.18 374.55 160.04 380.36 164.18 386.19 160.04 392.01 164.18 392.01 131.65 357.04 131.65"></polygon><rect width="32.74" height="13.14" x="325.82" y="228.78" fill="#5e6175"></rect><path fill="#5e6175" d="M443.28,257.09H305.76V128.64H443.28Zm-131.52-6H437.28V134.64H311.76Z"></path><rect width="409.13" height="21.16" x="52.26" y="374.01" fill="#dee1ec"></rect><rect width="63.48" height="31.15" x="225.09" y="395.16" fill="url(#g)" style="mix-blend-mode:multiply"></rect><path fill="#5e6175" d="M464.39,398.16H49.26V371H464.39Zm-409.13-6H458.39V377H55.26Z"></path><rect width="63.48" height="31.15" x="52.26" y="395.16" fill="url(#h)" style="mix-blend-mode:multiply"></rect><rect width="63.48" height="31.15" x="397.91" y="395.16" fill="url(#i)" style="mix-blend-mode:multiply"></rect><path fill="#5e6175" d="M118.74 429.31H49.26V392.16h69.48zm-63.48-6h57.48V398.16H55.26zM464.39 429.31H394.91V392.16h69.48zm-63.48-6h57.48V398.16H400.91zM291.57 429.31H222.09V392.16h69.48zm-63.48-6h57.48V398.16H228.09zM311.32 105a11.14 11.14 0 112-22.09h0a11 11 0 017.14 4.64A11.16 11.16 0 01311.32 105zm0-16.28a5.14 5.14 0 105 6.07A5.15 5.15 0 00311.33 88.69zM273.92 139.38a8.65 8.65 0 111.58-17.16h0a8.65 8.65 0 01-1.58 17.16zm-2.18-7.15a2.65 2.65 0 102.67-4.11h0A2.66 2.66 0 00271.74 132.23z"></path><rect width="6" height="16.33" x="52.12" y="177.45" fill="#5e6175" transform="rotate(-45 55.116 185.62)"></rect><rect width="16.33" height="6" x="36" y="201.86" fill="#5e6175"></rect><rect width="6" height="16.33" x="70.37" y="166.06" fill="#5e6175"></rect><rect width="440" height="6" x="36" y="423.31" fill="#5e6175"></rect><path fill="#a9afc4" d="M466.74,300.23c-8,0-8,0,0,0Zm0-10h-6v-6h6Zm0-16h-6v-6h6Zm0-16h-6v-6h6Zm0-16h-6v-6h6Zm0-16h-6v-6h6Zm0-16h-6v-6h6Zm0-16h-6v-6h6Zm0-16h-6v-6h6Zm0-16h-6v-6h6Zm0-16h-6v-6h6Zm0-16h-6v-6h6Zm-7.89-14.13a14.7,14.7,0,0,0-3.13-3.85l4-4.51a21.07,21.07,0,0,1,4.4,5.41Zm-10.55-7.33a31.85,31.85,0,0,0-5.52-.18v-6a39.5,39.5,0,0,1,6.45.25Zm-15.52-.18h-6v-6h6Zm-16,0h-6v-6h6Z"></path></g></svg>