<svg xmlns="http://www.w3.org/2000/svg" xmlns:xlink="http://www.w3.org/1999/xlink" viewBox="0 0 512 512" id="package-overload"><defs><linearGradient id="a" x1="425.45" x2="425.45" y1="404.01" y2="433.27" gradientTransform="translate(.9 -12.57)" gradientUnits="userSpaceOnUse"><stop offset="0" stop-color="#cacfdd"></stop><stop offset="1" stop-color="#eef0f1"></stop></linearGradient><linearGradient xlink:href="#a" id="b" x1="96.8" x2="96.8" y1="409.26" y2="438.52" gradientTransform="translate(-2.26 -17.21)"></linearGradient><linearGradient xlink:href="#a" id="c" x1="238.98" x2="238.98" y1="388.87" y2="241.67" gradientTransform="rotate(-8.1 252.947 299.688)"></linearGradient><linearGradient xlink:href="#a" id="d" x1="364.18" x2="364.18" y1="388.87" y2="241.67" gradientTransform="rotate(-8.1 252.947 299.688)"></linearGradient><linearGradient xlink:href="#a" id="e" x1="196.97" x2="196.97" y1="272.33" y2="125.12" gradientTransform="rotate(-8.1 252.947 299.688)"></linearGradient><linearGradient xlink:href="#a" id="f" x1="196.97" x2="196.97" y1="272.33" y2="125.12" gradientTransform="rotate(-8.1 252.947 299.688)"></linearGradient><linearGradient xlink:href="#a" id="g" x1="322.17" x2="322.17" y1="272.33" y2="125.12" gradientTransform="rotate(-8.1 252.947 299.688)"></linearGradient><linearGradient xlink:href="#a" id="h" x1="115.62" x2="177.01" y1="189.06" y2="189.06"></linearGradient></defs><g><rect width="60.43" height="29.65" x="396.14" y="390.99" fill="url(#a)" style="mix-blend-mode:multiply" transform="rotate(-7.42 426.659 406.087)"></rect><path fill="#5e6175" d="M395.72,427.78l-4.61-35.35L457,383.84l4.61,35.35Zm2.11-30.18,3.06,23.45,54-7-3.05-23.45Z"></path><polygon fill="#dee1ec" points="450.56 357.8 186.85 391.59 195.65 400.57 223.72 403.94 234.47 416.27 454.39 387.21 450.56 357.8"></polygon><path fill="#5e6175" d="M233.27,419.46l-11.05-12.67-28-3.37-13.77-14,272.67-34.94,4.61,35.35Zm-36.21-21.74,28.16,3.38,10.46,12L451,384.62,448,361.15,193.21,393.8Z"></path><rect width="60.43" height="29.65" x="64.32" y="391.61" fill="url(#b)" style="mix-blend-mode:multiply" transform="rotate(13.32 94.556 406.47)"></rect><path fill="#5e6175" d="M122.75,431.43l-64.64-15.3,8.21-34.69L131,396.74ZM65.33,411.67l53,12.54,5.45-23-53-12.54Z"></path><polygon fill="#dee1ec" points="195.65 400.57 175.31 379.84 75.38 356.19 68.55 385.05 243.33 426.43 223.72 403.94 195.65 400.57"></polygon><path fill="#5e6175" d="M251.73,431.5,64.94,387.27l8.21-34.7,103.69,24.55,20.22,20.6,28.16,3.38ZM72.16,382.82l162.76,38.54-12.7-14.57-28-3.37-20.48-20.86L77.61,359.79Z"></path><rect width="424.58" height="6" x="51.42" y="427.2" fill="#5e6175"></rect><path fill="url(#c)" d="M172.07,275.93l14.78,115.62L311,375.67,296.26,260.05Z"></path><polygon fill="#e08326" points="217.66 270.11 221.58 300.82 226.59 296.21 232.61 299.41 237.62 294.8 243.61 298 248.62 293.4 254.61 296.6 250.68 265.88 217.66 270.11"></polygon><rect width="31.16" height="12.5" x="200.57" y="363.56" fill="#5e6175" transform="rotate(-7.28 216.282 370.06)"></rect><path fill="#5e6175" d="M184.26,394.9,168.72,273.33l130.14-16.64L314.4,378.27Zm-8.83-116.38,14,109.67,118.24-15.12-14-109.66Z"></path><path fill="url(#d)" d="M296.26,260.05,311,375.67,435.23,359.8,420.45,244.18Z"></path><polygon fill="#e08326" points="341.85 254.23 345.77 284.94 350.78 280.34 356.8 283.54 361.81 278.93 367.8 282.13 372.81 277.52 378.8 280.72 374.87 250.01 341.85 254.23"></polygon><rect width="31.16" height="12.5" x="324.76" y="347.68" fill="#5e6175" transform="rotate(-7.28 340.56 354.135)"></rect><path fill="#5e6175" d="M308.45,379,292.91,257.45l130.14-16.63,15.54,121.57Zm-8.83-116.38,14,109.66L431.88,357.2l-14-109.67Z"></path><path fill="url(#e)" d="M115.62,165.65,130.4,281.27l124.19-15.88L239.81,149.77Z"></path><path fill="url(#f)" d="M239.81,149.77,115.62,165.65c8.46,66.19,5.09,39.87,14.78,115.62l124.19-15.88Z"></path><polygon fill="#e08326" points="161.21 159.83 165.13 190.54 170.14 185.94 176.16 189.13 181.16 184.53 187.16 187.73 192.16 183.12 198.16 186.32 194.23 155.61 161.21 159.83"></polygon><rect width="31.16" height="12.5" x="144.12" y="253.28" fill="#5e6175" transform="rotate(-7.28 159.776 259.694)"></rect><path fill="url(#g)" d="M239.81,149.77l14.78,115.62,124.19-15.87L364,133.9Z"></path><polygon fill="#e08326" points="285.4 143.95 289.32 174.67 294.33 170.06 300.35 173.26 305.35 168.65 311.35 171.85 316.35 167.25 322.35 170.45 318.42 139.73 285.4 143.95"></polygon><rect width="31.16" height="12.5" x="268.31" y="237.41" fill="#5e6175" transform="rotate(-7.28 284.055 243.768)"></rect><path fill="#5e6175" d="M252 268.75L236.45 147.18l130.14-16.64 15.54 121.57zm-8.82-116.38l14 109.67 118.24-15.12-14-109.67zM111.82 337.74a16.42 16.42 0 0110.23-20.8 10.56 10.56 0 006.48-13.18l5.69-1.93A16.46 16.46 0 01124 322.62a10.4 10.4 0 00-6.49 13.18zM56.27 311.25l2.64-5.38a10.56 10.56 0 0013.91-4.74 16.4 16.4 0 0121.93-7.47 10.56 10.56 0 0013.91-4.74l5.38 2.66a16.45 16.45 0 01-21.93 7.47 10.4 10.4 0 00-13.91 4.73A16.44 16.44 0 0156.27 311.25z"></path><rect width="15.52" height="6" x="370.89" y="113.55" fill="#5e6175" transform="rotate(-45 378.646 116.55)"></rect><rect width="6" height="15.53" x="357.36" y="98.38" fill="#5e6175"></rect><rect width="15.52" height="6" x="381.71" y="130.9" fill="#5e6175"></rect><path fill="url(#h)" d="M177,157.81a78.88,78.88,0,0,1-54.4,62.51l-7-54.67Z" style="mix-blend-mode:multiply"></path><path fill="#5e6175" d="M127.8,284.62,112.26,163.05,242.4,146.42,257.94,268ZM119,168.24l14,109.67L251.23,262.8l-14-109.67Z"></path><circle cx="99.4" cy="145.19" r="63.4" fill="#f5f5f5"></circle><path fill="#5e6175" d="M99.4,211.59a66.4,66.4,0,1,1,66.39-66.4A66.47,66.47,0,0,1,99.4,211.59Zm0-126.79a60.4,60.4,0,1,0,60.39,60.39A60.46,60.46,0,0,0,99.4,84.8Z"></path><path fill="#e08326" d="M140.35,155.61a40,40,0,0,0-80,0Z"></path><path fill="#f5f5f5" d="M121.12,138.58l2.51-3L120.12,132A86.63,86.63,0,0,1,101,144.78a22.87,22.87,0,0,0-6.17,4.73,8.46,8.46,0,0,0-2.49,6.1h18A93.76,93.76,0,0,1,121.12,138.58Z"></path><path fill="#e08326" d="M106.15,160.84a24.64,24.64,0,0,0,4.21-5.23h-18A8,8,0,0,0,106.15,160.84Z"></path><path fill="#a9afc4" d="M447.36,305.61l-.8-5.95,5.95-.79.79,5.94Zm-2.13-15.86-.79-5.95,5.94-.79.8,5.95Zm-2.12-15.86-.8-5.94,5.95-.8.8,6ZM441,258l-.8-6,5.95-.8.79,6Zm-2.17-15.61a21.57,21.57,0,0,0-1.74-5l5.38-2.66a27.5,27.5,0,0,1,2.22,6.33Zm-7.11-11.82a21.66,21.66,0,0,0-4.38-2.91l2.68-5.37A27.56,27.56,0,0,1,435.6,226Zm-34.07-2.71-.8-6,6-.79.79,5.94Zm15.86-2.12-.8-5.95a31,31,0,0,1,6.54-.37l-.34,6A25.29,25.29,0,0,0,413.5,225.78Z"></path></g></svg>