<svg xmlns="http://www.w3.org/2000/svg" xmlns:xlink="http://www.w3.org/1999/xlink" viewBox="0 0 512 512" id="papers"><defs><linearGradient id="a" x1="195.96" x2="337.22" y1="221.89" y2="221.89" gradientUnits="userSpaceOnUse"><stop offset="0" stop-color="#cacfdd"></stop><stop offset="1" stop-color="#eef0f1"></stop></linearGradient><linearGradient xlink:href="#a" id="b" x1="149.15" x2="400.59" y1="256.32" y2="256.32"></linearGradient></defs><g style="isolation:isolate"><rect width="288.56" height="219" x="182.13" y="105.59" fill="#a9afc4" transform="rotate(-81.12 326.406 215.088)"></rect><polygon fill="url(#a)" points="337.22 80.97 337.22 362.81 195.96 340.73 236.53 80.97 337.22 80.97" style="mix-blend-mode:multiply"></polygon><path fill="#5e6175" d="M414.82,378l-222.3-34.74L238,52.2,460.3,86.94ZM199.38,338.23l210.44,32.88L453.44,91.94,243,59.05Z"></path><polygon fill="#dee1ec" points="321 97.2 321 385.76 102.01 385.76 102.01 140.71 143.38 97.2 321 97.2"></polygon><polygon fill="url(#b)" points="400.59 126.89 400.59 372.7 321 360.27 321 385.75 149.15 385.75 149.15 126.89 400.59 126.89" style="mix-blend-mode:multiply"></polygon><path fill="#5e6175" d="M149.89,147.77H99v-8l43.08-45.6h7.8Zm-44.49-6h38.49V101Z"></path><rect width="6" height="18.47" x="94.71" y="88.14" fill="#5e6175" transform="rotate(-45 97.706 97.379)"></rect><rect width="18.47" height="6" x="76.08" y="116.14" fill="#5e6175"></rect><rect width="6" height="18.47" x="115.35" y="75.25" fill="#5e6175"></rect><path fill="#5e6175" d="M386.45 475.18a13.45 13.45 0 01-13.27-11.47h0a13.44 13.44 0 1113.27 11.47zm.05-20.87a7.45 7.45 0 00-7.38 8.52h0a7.44 7.44 0 107.38-8.52zM435.58 425.79A10.24 10.24 0 01425.46 417h0a10.25 10.25 0 1110.12 8.75zm-4.18-9.62a4.25 4.25 0 106.74-4 4.24 4.24 0 00-6.74 4z"></path><path fill="#e1830e" d="M84.39 444.55A31.45 31.45 0 01115.84 476a31.44 31.44 0 0131.45-31.45 31.45 31.45 0 01-31.45-31.45A31.45 31.45 0 0184.39 444.55zM55.13 350.45a10.81 10.81 0 0110.8 10.8 10.79 10.79 0 0110.79-10.8 10.79 10.79 0 01-10.79-10.79A10.8 10.8 0 0155.13 350.45z"></path><path fill="#a9afc4" d="M220.24,75.79l-5.9-1.07,1.06-5.9,5.9,1.06ZM223.07,60,217.17,59c.62-3.47.78-4.54,1.23-6.16l5.78,1.61C223.8,55.79,223.68,56.65,223.07,60Zm100.62-8.38-5.92-1,1-5.93,5.93,1ZM307.9,49.08l-5.92-1,1-5.93,5.93,1Zm-79.72-2.36-4.63-3.81a26.73,26.73,0,0,1,4.88-4.62L232,43.12A21,21,0,0,0,228.18,46.72Zm63.93-.22-5.92-1,1-5.93,5.92,1Zm-15.79-2.58-5.93-1,1-5.93,5.92,1Zm-15.79-2.58-5.93-1,1-5.93,5.92,1Zm-20.64-1.83-1.31-5.86a27.35,27.35,0,0,1,6.7-.64l-.17,6A20.79,20.79,0,0,0,239.89,39.51Z"></path><path fill="#5e6175" d="M324,388.76H99V139.51L142.09,94.2H324Zm-219-6H318V100.2H144.67L105,141.91Z"></path><rect width="219" height="288.56" x="165.37" y="143.11" fill="#f5f5f5"></rect><path fill="#5e6175" d="M387.37,434.68h-225V140.11h225Zm-219-6h213V146.11h-213Z"></path><rect width="133.48" height="13.02" x="208.13" y="195.64" fill="#dee1ec"></rect><rect width="133.48" height="13.02" x="208.13" y="241.48" fill="#dee1ec"></rect><rect width="133.48" height="13.02" x="208.13" y="287.31" fill="#dee1ec"></rect><rect width="66.74" height="13.02" x="208.13" y="333.15" fill="#dee1ec"></rect></g></svg>