<svg xmlns="http://www.w3.org/2000/svg" viewBox="0 0 512 512" id="partner-investment"><defs><linearGradient id="a" x1="288.91" x2="288.91" y1="355.58" y2="434.08" gradientUnits="userSpaceOnUse"><stop offset="0" stop-color="#cacfdd"></stop><stop offset="1" stop-color="#eef0f1"></stop></linearGradient></defs><g style="isolation:isolate"><path fill="#e1830e" d="M143.37,108.45a18.31,18.31,0,0,1,18.31,18.31A18.32,18.32,0,0,1,180,108.45a18.3,18.3,0,0,1-18.31-18.3A18.3,18.3,0,0,1,143.37,108.45Z"></path><rect width="6" height="122.97" x="256.87" y="167.06" fill="#5e6175"></rect><path fill="#e1830e" d="M279.9 59.05c0 7-1.54 10.71-4.83 21.64a32.49 32.49 0 00-30.29 0L241.58 70a37.81 37.81 0 01-1.62-11 15.55 15.55 0 0115.55-15.54h8.85A15.54 15.54 0 01279.9 59.05zM279.9 160.61a15.54 15.54 0 01-15.54 15.54h-8.85A15.55 15.55 0 01240 160.61c0-7.12 1.63-11 5.06-22.41a32.5 32.5 0 0029.81 0C278.3 149.68 279.9 153.57 279.9 160.61zM242.8 136.94l-8.16 8.68a37.92 37.92 0 01-8.7 6.89 15.54 15.54 0 01-21.23-5.69L202.49 143c-2.34-4.07-4.29-6.72-4.29-11.6A15.55 15.55 0 01206 117.92c6.19-3.57 10.52-4.14 21.53-6.73A32.44 32.44 0 00242.8 136.94zM321.66 88.26a15.55 15.55 0 01-7.77 13.48c-6.17 3.56-10.49 4.12-21.58 6.73a32.4 32.4 0 00-14.74-26.3c7.65-8.14 10.28-11.52 16.35-15a15.56 15.56 0 0121.24 5.69l2.21 3.83C319.72 80.75 321.66 83.4 321.66 88.26zM319.58 139.16c-2.66 4.59-1.64 2.83-4.42 7.66a15.56 15.56 0 01-21.24 5.69c-6.18-3.57-8.8-7-16.89-15.61a32.41 32.41 0 0015.24-25.74c11.36 2.68 15.54 3.26 21.62 6.76A15.55 15.55 0 01319.58 139.16zM242.26 82.13a32.4 32.4 0 00-14.8 26.32c-11.31-2.66-15.44-3.23-21.49-6.71a15.55 15.55 0 01-5.69-21.24l4.43-7.67a15.54 15.54 0 0121.23-5.69C232 70.65 234.59 74 242.26 82.13z"></path><circle cx="259.88" cy="109.36" r="32.43" fill="#f5f5f5" transform="rotate(-86.07 259.886 109.36)"></circle><path fill="#5e6175" d="M259.88,144.8a35.44,35.44,0,1,1,35.44-35.44A35.48,35.48,0,0,1,259.88,144.8Zm0-64.87a29.44,29.44,0,1,0,29.44,29.43A29.46,29.46,0,0,0,259.88,79.93Z"></path><path fill="#e1830e" d="M259.88,125.91a10.07,10.07,0,0,1-10-10.06h6.3a3.76,3.76,0,1,0,3.75-3.75A10.06,10.06,0,1,1,269.94,102h-6.3a3.76,3.76,0,1,0-3.76,3.75,10.06,10.06,0,1,1,0,20.12Z"></path><rect width="6.3" height="6.28" x="256.73" y="88.85" fill="#e1830e"></rect><rect width="6.3" height="6.28" x="256.73" y="122.76" fill="#e1830e"></rect><path fill="#f5f5f5" d="M368.62,370.42v69.45l-82.86,26.06a64.72,64.72,0,0,1-38.71-.83L140.62,428.54a22.26,22.26,0,0,1,13.74-42.34l71.57,22.73c3.89,1.21,5,.91,23.1.91a20.17,20.17,0,0,1,0-40.33h25.8A58.63,58.63,0,0,0,301.72,363a58.62,58.62,0,0,1,47.22-2.9C354.92,362.29,358,364.33,368.62,370.42Z"></path><path fill="#f5f5f5" d="M263,311a20.17,20.17,0,0,0,0-40.33H237.16a58.49,58.49,0,0,1-26.88-6.54,58.61,58.61,0,0,0-56,1.21l-10.92,6.24V341l82.86,26.05a64.72,64.72,0,0,0,38.71-.82l106.43-36.56a22.26,22.26,0,0,0-13.74-42.34l-71.57,22.72a20.09,20.09,0,0,1-6,.91Z"></path><path fill="url(#a)" d="M348.94,360.07l-84,28.86a64.81,64.81,0,0,1-36.06,1.53A20.16,20.16,0,0,1,249,369.51h25.8A58.63,58.63,0,0,0,301.72,363,58.62,58.62,0,0,1,348.94,360.07Z" style="mix-blend-mode:multiply"></path><path fill="#5e6175" d="M225.41,370l-85-26.74v-73.4l12.42-7.11a61.35,61.35,0,0,1,58.85-1.26,55.79,55.79,0,0,0,25.51,6.2H263A23.16,23.16,0,0,1,278.51,308a19.5,19.5,0,0,0,6.66-.77l71.56-22.72a25.26,25.26,0,0,1,15.61,48L265.93,369.08A67.43,67.43,0,0,1,225.41,370Zm-79-31.15,80.76,25.4A61.35,61.35,0,0,0,264,363.4l106.4-36.55A19.15,19.15,0,0,0,381.6,317c7.27-15-6.82-31.86-23.07-26.79L287,312.93a23.28,23.28,0,0,1-6.92,1.05H215.92v-6H263a17.17,17.17,0,0,0,0-34.33H237.16a61.89,61.89,0,0,1-28.26-6.87,55.37,55.37,0,0,0-53.12,1.14l-9.4,5.38Z"></path><rect width="50.81" height="101.02" x="95.88" y="254.27" fill="#e08326"></rect><circle cx="121.29" cy="276.17" r="8.72" fill="#f5f5f5" transform="rotate(-57.28 121.295 276.173)"></circle><polygon fill="#5e6175" points="95.88 355.29 36 355.29 36 244.98 95.88 254.27 95.88 355.29"></polygon><path fill="#5e6175" d="M246.09,467.94,139.65,431.38a25.26,25.26,0,0,1,15.61-48l71.58,22.72a19.41,19.41,0,0,0,6.65.78A23.17,23.17,0,0,1,249,366.5h25.81a55.79,55.79,0,0,0,25.51-6.2,61.35,61.35,0,0,1,58.85,1.27l12.42,7.11v73.39l-85,26.72A67.36,67.36,0,0,1,246.09,467.94ZM130.4,415.86a19.16,19.16,0,0,0,11.18,9.84L248,462.26a61.46,61.46,0,0,0,36.9.79l80.7-25.38V372.16l-9.4-5.38a55.34,55.34,0,0,0-53.12-1.14,61.88,61.88,0,0,1-28.26,6.86H249a17.17,17.17,0,0,0,0,34.34h47v6H231.94a23,23,0,0,1-6.9-1l-71.59-22.73C137.14,384,123.15,400.9,130.4,415.86Z"></path><rect width="50.81" height="101.02" x="365.3" y="353.13" fill="#e08326"></rect><circle cx="390.71" cy="375.03" r="8.72" fill="#f5f5f5" transform="rotate(-32.72 390.691 375.025)"></circle><polygon fill="#5e6175" points="416.12 454.15 476 454.15 476 343.84 416.12 353.13 416.12 454.15"></polygon><path fill="#dee1ec" d="M278.27,204.57l23.13-17.76v15.71A47,47,0,0,1,283,239.79l-23.16,17.79,0-15.81A47,47,0,0,1,278.27,204.57Z"></path><path fill="#dee1ec" d="M245.44,216,227.3,202.07v12.32a36.86,36.86,0,0,0,14.41,29.23l18.16,14v-12.4A36.88,36.88,0,0,0,245.44,216Z"></path><path fill="#5e6175" d="M256.87,263.67l0-21.9a50.32,50.32,0,0,1,19.54-39.58l28-21.47v21.8a50.29,50.29,0,0,1-19.54,39.65Zm41.53-70.78L280.1,207a44.26,44.26,0,0,0-17.2,34.83l0,9.71,18.33-14.08a44.29,44.29,0,0,0,17.19-34.89Z"></path><path fill="#5e6175" d="M262.88,263.67l-23-17.67a40.12,40.12,0,0,1-15.58-31.61V196l23,17.64a40.13,40.13,0,0,1,15.59,31.56ZM230.3,208.15v6.24a34.08,34.08,0,0,0,13.24,26.86l13.32,10.24v-6.3a34.09,34.09,0,0,0-13.24-26.81Z"></path><polygon fill="#5e6175" points="259.98 263.48 240.24 231.4 245.35 228.25 259.77 251.68 277.29 220.72 282.51 223.67 259.98 263.48"></polygon><path fill="#5e6175" d="M369.2 263.14h0a11.32 11.32 0 1119.93 6.37A11.31 11.31 0 01369.2 263.14zm6-.5A5.32 5.32 0 10380 256.9a5.33 5.33 0 00-4.86 5.74zM424.74 312.6h0a8.78 8.78 0 1115.45 4.94A8.76 8.76 0 01424.74 312.6zm8.75-3.5a2.77 2.77 0 00-2.77 3h0a2.78 2.78 0 102.77-3z"></path><rect width="18.89" height="6" x="90.45" y="404.33" fill="#5e6175"></rect><rect width="18.89" height="6" x="97.23" y="429.03" fill="#5e6175" transform="rotate(-45 106.68 432.022)"></rect><rect width="6" height="18.89" x="102.51" y="373.63" fill="#5e6175" transform="rotate(-45 105.503 383.07)"></rect></g></svg>