<svg xmlns="http://www.w3.org/2000/svg" xmlns:xlink="http://www.w3.org/1999/xlink" viewBox="0 0 512 512" id="passport"><defs><linearGradient id="a" x1="392.22" x2="138.95" y1="419.25" y2="117.74" gradientTransform="matrix(.99 -.16 .16 .99 -36.52 49.13)" gradientUnits="userSpaceOnUse"><stop offset="0" stop-color="#cacfdd"></stop><stop offset="1" stop-color="#eef0f1"></stop></linearGradient><linearGradient xlink:href="#a" id="b" x1="305.69" x2="383.75" y1="360.23" y2="360.23"></linearGradient></defs><g style="isolation:isolate"><path fill="#e1830e" d="M43.82 358.52a26.71 26.71 0 0126.7 26.7 26.7 26.7 0 0126.69-26.7 26.69 26.69 0 01-26.69-26.7A26.7 26.7 0 0143.82 358.52zM140.86 53.21a17.22 17.22 0 0117.22 17.22 17.21 17.21 0 0117.21-17.22A17.2 17.2 0 01158.08 36 17.21 17.21 0 01140.86 53.21z"></path><path fill="#a9afc4" d="M383.79,114.14l-.05,291-225.71,0a9.47,9.47,0,0,1-9.46-9.47l0-291a9.47,9.47,0,0,0,9.46,9.48Z"></path><path fill="#a9afc4" d="M383.78,114.14c0,240.09,0,182.94,0,291l-225.71,0a9.48,9.48,0,0,1-9.46-9.48l.05-291a9.46,9.46,0,0,0,9.46,9.48Z"></path><path fill="#f5f5f5" d="M157.81,95.18h226a0,0,0,0,1,0,0v18.94a0,0,0,0,1,0,0h-226a9.2,9.2,0,0,1-9.2-9.2v-.54A9.2,9.2,0,0,1,157.81,95.18Z"></path><path fill="#5e6175" d="M386.79,117.14l-229,0a12.22,12.22,0,0,1-12.2-12.21v-.53a12.22,12.22,0,0,1,12.2-12.2l229,0Zm-229-19a6.21,6.21,0,0,0-6.2,6.2v.53a6.21,6.21,0,0,0,6.2,6.21l223,0V98.2Z"></path><circle cx="266.18" cy="216.47" r="68.47" fill="#f5f5f5"></circle><path fill="#5e6175" d="M266.18,287.94h0c-17.22,0-30.71-31.4-30.7-71.48,0-18.67,3-36.26,8.34-49.54,11.83-29.22,32.87-29.37,44.76,0,5.37,13.28,8.33,30.87,8.33,49.54h0c0,18.67-3,36.26-8.35,49.54C282.83,280.15,274.88,287.94,266.18,287.94Zm0-136.95c-6,0-12.14,6.63-16.81,18.18-5.1,12.58-7.91,29.38-7.91,47.29,0,39.17,12.77,65.48,24.7,65.48,7.89,0,13.86-10.87,16.82-18.18,10.55-26,10.55-68.54,0-94.58C280.05,161.87,274.08,151,266.19,151Z"></path><path fill="#5e6175" d="M208.73 179.6L205.87 178l1.9-2.69C230.93 142.48 268.18 145 266.19 145a71.59 71.59 0 0158.42 30.29l1.9 2.69-2.86 1.64C295.39 195.82 236.81 195.71 208.73 179.6zm6-3.61c26.6 13 76.53 12.95 102.94 0A65.52 65.52 0 00214.72 176zM207.76 257.64l-1.9-2.69 2.86-1.64c28.26-16.2 86.84-16.09 114.92 0L326.5 255l-1.91 2.69C296.12 298 236.25 298 207.76 257.64zm7-.71a65.51 65.51 0 00102.94 0C291 243.87 241.05 244 214.71 256.93z"></path><rect width="136.92" height="6" x="197.71" y="213.47" fill="#5e6175"></rect><rect width="133.06" height="14.38" x="199.64" y="317.82" fill="#dee1ec"></rect><rect width="88.65" height="14.38" x="221.84" y="351.36" fill="#dee1ec"></rect><path fill="#5e6175" d="M266.18,287.94a71.48,71.48,0,0,1-58.41-112.67c23.16-32.79,60.4-30.27,58.42-30.27a71.47,71.47,0,1,1,0,142.94Zm0-136.94a65.47,65.47,0,1,0,65.48,65.48h0A65.49,65.49,0,0,0,266.18,151Z"></path><rect width="18.07" height="6" x="391.9" y="78.5" fill="#5e6175" transform="rotate(-45 400.928 81.5)"></rect><rect width="6" height="18.07" x="376.64" y="60.35" fill="#5e6175"></rect><rect width="18.07" height="6" x="404.5" y="98.7" fill="#5e6175"></rect><path fill="#5e6175" d="M270.24 436.28h0a12.62 12.62 0 1121.87 8.09A12.59 12.59 0 01270.24 436.28zm12.61-7.09a6.62 6.62 0 104.86 11.1A6.6 6.6 0 00282.85 429.19zM335.13 479a9.67 9.67 0 117.1-3.1A9.69 9.69 0 01335.13 479zm-3.67-9.54a3.68 3.68 0 103.53-3.81 3.68 3.68 0 00-3.53 3.81z"></path><path fill="url(#a)" d="M332.24,95.2l47.24,292.25L270.35,405.08H158a9.47,9.47,0,0,1-9.46-9.47l0-291a9.47,9.47,0,0,1,7.95-9.35C157.71,95.1,145.33,95.16,332.24,95.2Z" style="mix-blend-mode:multiply"></path><path fill="#5e6175" d="M386.74,408.1l-228.71,0a12.49,12.49,0,0,1-12.46-12.48c.05-299.62.05-290.69,0-290.95a12.48,12.48,0,0,1,12.47-12.47l228.71,0ZM151.61,104.54c0,.25,0-7.74,0,291.06a6.48,6.48,0,0,0,6.46,6.47l222.72,0,0-303.9-222.71,0A6.47,6.47,0,0,0,151.61,104.54Zm6.47,12.57h0a12.22,12.22,0,0,1-4.62-.9l2.23-5.57a6.66,6.66,0,0,0,2.39.47Z"></path><path fill="#a9afc4" d="M315.53,87.57,362,374.8l-222.82,36A9.47,9.47,0,0,1,128.29,403L81.86,115.74a9.46,9.46,0,0,0,10.85,7.84Z"></path><path fill="#5e6175" d="M137.62,413.94a12.47,12.47,0,0,1-12.29-10.48C85,154.09,78.9,116.32,78.9,116.22l5.92-1a6.46,6.46,0,0,0,7.41,5.36L318,84.13,365.4,377.29C123.25,416.43,139.17,413.94,137.62,413.94ZM86.52,125.8l44.73,276.7a6.47,6.47,0,0,0,7.41,5.36l219.86-35.54L313.05,91,93.19,126.55A12.39,12.39,0,0,1,86.52,125.8Z"></path><path fill="#f5f5f5" d="M89.55,87.51h226a0,0,0,0,1,0,0v18.94a0,0,0,0,1,0,0h-226a9.2,9.2,0,0,1-9.2-9.2v-.54A9.2,9.2,0,0,1,89.55,87.51Z" transform="rotate(-9.18 197.996 97.005)"></path><path fill="#5e6175" d="M91,126.75a12.2,12.2,0,0,1-12-10.26l-.09-.53A12.2,12.2,0,0,1,89,102L315,65.43l4,24.62C76.58,129.23,92.49,126.75,91,126.75ZM310,72.31,89.91,107.89A6.21,6.21,0,0,0,84.77,115l.09.53A6.19,6.19,0,0,0,92,120.66L312.09,85.08Z"></path><circle cx="215.78" cy="207.37" r="68.47" fill="#f5f5f5" transform="rotate(-45 215.785 207.369)"></circle><path fill="#5e6175" d="M201.6,259.84c-15.37-25.35-22.41-68.91-15.81-97.82,7-30.55,27.68-34.35,44.18-7.14,15.36,25.35,22.4,68.91,15.81,97.82C238.75,283.49,218,286.89,201.6,259.84Zm5.07-117.22c-8.53,0-13.13,12.41-15,20.74-6.25,27.39.53,69.35,15.09,93.37,6.46,10.66,13.57,16.22,19.5,15.27s10.92-8.48,13.7-20.63c6.25-27.39-.54-69.35-15.1-93.38C218.85,148.12,212.32,142.62,206.67,142.62Z"></path><path fill="#5e6175" d="M153.18 180.15L150.09 179l1.45-3c21.67-44.35 80.79-53.91 115.34-18.64l2.3 2.36-2.56 2.07C241 182.58 183.07 191.42 153.18 180.15zm5.33-4.52c28.27 8.6 77.53.62 101.62-16.43A65.51 65.51 0 00158.51 175.63zM164.68 257.34l-2.3-2.35 2.56-2.08c25.25-20.45 83-29.8 113.44-18.33l3.09 1.16-1.45 3C258.4 283 199.31 292.7 164.68 257.34zm6.75-1.81A65.5 65.5 0 00273.05 239.1C244.76 230.49 195.51 238.48 171.43 255.53z"></path><rect width="136.92" height="6" x="147.31" y="204.37" fill="#5e6175" transform="rotate(-9.18 215.717 207.306)"></rect><rect width="133.06" height="14.38" x="166.57" y="307.33" fill="#dee1ec" transform="rotate(-9.18 233.119 314.572)"></rect><rect width="88.65" height="14.38" x="194.13" y="340.44" fill="#dee1ec" transform="rotate(-9.18 238.486 347.66)"></rect><path fill="#5e6175" d="M215.82,278.84A71.47,71.47,0,1,1,286.34,196,71.51,71.51,0,0,1,215.82,278.84ZM156.93,178.66a65.46,65.46,0,0,0,12,74.49c31.65,32.32,85.8,23.57,105.66-17.08a65.47,65.47,0,0,0-12-74.49C230.79,129.1,176.69,138.21,156.93,178.66Z"></path><path fill="url(#b)" d="M383.75,315.36V405.1H306.58C299.43,357.84,336.21,315.38,383.75,315.36Z" style="mix-blend-mode:multiply"></path><polygon fill="#5e6175" points="386.74 408.1 293.9 408.09 293.9 402.09 380.75 402.1 380.76 302.94 386.76 302.94 386.74 408.1"></polygon><circle cx="383.79" cy="393.44" r="61.61" fill="#f5f5f5"></circle><path fill="#a9afc4" d="M465.19,388.77c-.11-1.92-.29-3.86-.53-5.76l5.95-.76c.26,2,.45,4.12.57,6.18Zm-2.31-15.23c-.47-1.86-1-3.73-1.61-5.56l5.7-1.87c.64,2,1.22,4,1.72,6ZM457.72,359c-.81-1.74-1.69-3.47-2.63-5.15l5.24-2.92c1,1.8,2,3.67,2.83,5.53Zm-7.8-13.29c-1.13-1.55-2.32-3.09-3.56-4.57l4.61-3.84c1.32,1.58,2.6,3.23,3.81,4.9Zm-10.17-11.59c-1.39-1.32-2.85-2.6-4.34-3.82l3.8-4.64c1.6,1.3,3.16,2.68,4.67,4.1Zm-12.14-9.47c-1.62-1-3.3-2-5-2.94l2.86-5.28c1.81,1,3.61,2.05,5.35,3.16Zm-13.7-7c-1.79-.71-3.62-1.36-5.45-1.94l1.81-5.72c2,.62,3.94,1.33,5.85,2.09Z"></path><path fill="#5e6175" d="M383.79,458.05a64.62,64.62,0,1,1,64.61-64.61A64.69,64.69,0,0,1,383.79,458.05Zm0-123.23a58.62,58.62,0,1,0,58.61,58.62A58.69,58.69,0,0,0,383.79,334.82Z"></path><path fill="#e1830e" d="M383.79,356c-20,0-31.54,22.12-21,38.46-.1,0-.68-1.16,21,36.4,23.92-41.45,22.86-39.09,24-43A25,25,0,0,0,383.79,356Zm0,34.64A10.24,10.24,0,1,1,394,380.41,10.25,10.25,0,0,1,383.79,390.65Z"></path></g></svg>