<svg xmlns="http://www.w3.org/2000/svg" viewBox="0 0 512 512" id="pattern-recognition"><defs><linearGradient id="a" x1="245.24" x2="364.59" y1="305.92" y2="305.92" gradientUnits="userSpaceOnUse"><stop offset="0" stop-color="#cacfdd"></stop><stop offset="1" stop-color="#eef0f1"></stop></linearGradient></defs><g style="isolation:isolate"><rect width="283.07" height="283.08" x="81.52" y="83.07" fill="#f5f5f5"></rect><polyline fill="none" stroke="#5e6175" stroke-miterlimit="10" stroke-width="16" points="137.11 137.79 137.11 311.43 223.42 224.61 309.73 224.61 309.73 137.79"></polyline><rect width="33.43" height="33.43" x="120.4" y="121.07" fill="#e1830e"></rect><rect width="33.43" height="33.43" x="206.71" y="121.07" fill="#e1830e"></rect><rect width="33.43" height="33.43" x="293.02" y="121.07" fill="#e1830e"></rect><rect width="33.43" height="33.43" x="120.4" y="294.72" fill="#e1830e"></rect><rect width="33.43" height="33.43" x="206.71" y="294.72" fill="#e1830e"></rect><rect width="33.43" height="33.43" x="293.02" y="294.72" fill="#e1830e"></rect><rect width="33.43" height="33.43" x="120.4" y="207.9" fill="#e1830e"></rect><rect width="33.43" height="33.43" x="206.71" y="207.9" fill="#e1830e"></rect><rect width="33.43" height="33.43" x="293.02" y="207.9" fill="#e1830e"></rect><path fill="#5e6175" d="M156.83 157.5H117.4V118.07h39.43zm-33.43-6h27.43V124.07H123.4zM243.14 157.5H203.71V118.07h39.43zm-33.43-6h27.43V124.07H209.71zM329.45 157.5H290V118.07h39.43zm-33.43-6h27.43V124.07H296zM156.83 331.15H117.4V291.72h39.43zm-33.43-6h27.43V297.72H123.4zM243.14 331.15H203.71V291.72h39.43zm-33.43-6h27.43V297.72H209.71zM329.45 331.15H290V291.72h39.43zm-33.43-6h27.43V297.72H296zM156.83 244.33H117.4V204.9h39.43zm-33.43-6h27.43V210.9H123.4zM243.14 244.33H203.71V204.9h39.43zm-33.43-6h27.43V210.9H209.71zM329.45 244.33H290V204.9h39.43zm-33.43-6h27.43V210.9H296z"></path><polygon fill="#5e6175" points="84.52 121.08 78.52 121.08 78.52 80.07 119.52 80.07 119.52 86.07 84.52 86.07 84.52 121.08"></polygon><polygon fill="#5e6175" points="119.52 369.15 78.52 369.15 78.52 328.14 84.52 328.14 84.52 363.15 119.52 363.15 119.52 369.15"></polygon><polygon fill="#5e6175" points="367.59 121.07 361.59 121.07 361.59 86.07 326.59 86.07 326.59 80.07 367.59 80.07 367.59 121.07"></polygon><polygon fill="#5e6175" points="367.59 369.15 326.59 369.15 326.59 363.15 361.59 363.15 361.59 328.14 367.59 328.14 367.59 369.15"></polygon><path fill="url(#a)" d="M269.88,270.36a84.16,84.16,0,0,0-16.44,95.79H364.59V253.43A84.12,84.12,0,0,0,269.88,270.36Z" style="mix-blend-mode:multiply"></path><rect width="13.56" height="47.06" x="217.82" y="366.15" fill="#5e6175"></rect><path fill="#5e6175" d="M234.38,416.21H214.82V363.15h19.56Zm-13.56-6h7.56V369.15h-7.56Z"></path><rect width="13.56" height="47.06" x="217.82" y="36.01" fill="#5e6175"></rect><path fill="#5e6175" d="M234.38,86.07H214.82V33h19.56Zm-13.56-6h7.56V39h-7.56Z"></path><rect width="47.06" height="13.56" x="36" y="217.83" fill="#5e6175"></rect><path fill="#5e6175" d="M86.06,234.39H33V214.83H86.06Zm-47.06-6H80.06v-7.56H39Z"></path><rect width="47.06" height="13.56" x="366.14" y="217.83" fill="#5e6175"></rect><path fill="#5e6175" d="M416.2,234.39H363.14V214.83H416.2Zm-47.06-6H410.2v-7.56H369.14Z"></path><path fill="#f5f5f5" d="M366.05,364.75a50.71,50.71,0,0,1-50.55,13.82c-7.33-2.09-13.37-5.86-19.33-10.49-21.85-19-23.15-53.53-2.63-74.05,19.54-19.53,52.09-19.53,71.62,0C385.58,314.45,383.9,346.9,366.05,364.75Z"></path><path fill="#dee1ec" d="M355.39,267a68,68,0,0,0-74.14,111c22.86,22.87,59.36,27.38,88.69,6.49L384.51,399a19.51,19.51,0,0,0-.41,2l7.47,7.47,16.52-16.52-7.74-7.74c-.65.12-1.29.29-1.93.47L384.06,370.3l1-1.4v0C410.31,333,395.11,283.42,355.39,267Zm10.66,97.79a50.71,50.71,0,0,1-50.55,13.82c-7.33-2.09-13.37-5.86-19.33-10.49-21.85-19-23.15-53.53-2.63-74.05,19.54-19.53,52.09-19.53,71.62,0C385.58,314.45,383.9,346.9,366.05,364.75Z"></path><path fill="#5e6175" d="M391.57,412.69,380.91,402c.23-1.54.24-1.66.32-2.08l-11.65-11.64c-30.19,20.11-67.2,15-90.45-8.26a71,71,0,1,1,109.79-11.54l0,.05L388,370l11.37,11.37c.35-.08.43-.09,2-.39l11,11ZM387.35,400l4.22,4.22,12.28-12.28-4.43-4.43-1.87.54-17.4-17.41,2.44-3.47c24.29-34.52,9.47-81.76-28.35-97.43h0a65,65,0,0,0-70.87,106.08c21.7,21.7,56.56,26.31,84.83,6.17l2.07-1.47,17.57,17.57C387.42,399.73,387.41,399.76,387.35,400Zm-58-16.51c-14,0-24.41-4.75-35.07-13-10.13-8.35-17.81-22.92-18.36-38.82a53.55,53.55,0,0,1,105.42-14.88c4.46,18-.73,37.63-13.22,50.12A53.54,53.54,0,0,1,329.4,383.48Zm-31.32-17.72c6.74,5.24,12.2,8.2,18.24,9.92a47.66,47.66,0,0,0,47.58-13c16.9-16.91,18.3-47.34-.86-66.5-18.26-18.27-49.12-18.27-67.38,0C276.41,315.41,277.61,347.87,298.08,365.76Z"></path><path fill="#5e6175" d="M418.08,389.57l52,52a20.15,20.15,0,0,1-28.5,28.5l-51.83-51.83a20.15,20.15,0,0,1,28.31-28.69Z"></path><path fill="#5e6175" d="M439.48,472.21l-51.83-51.83a23.15,23.15,0,0,1,32.52-33l52.05,52.05a23.15,23.15,0,1,1-32.74,32.74ZM388.36,397a17.15,17.15,0,0,0,3.53,19.13L443.72,468A17.15,17.15,0,1,0,468,443.71l-52-52A17.16,17.16,0,0,0,388.36,397Z"></path><path fill="#a9afc4" d="M62.53,164.36h-6v-6h6Zm0-16h-6v-6h6Zm0-16h-6v-6h6Zm0-16h-6v-6h6Zm0-16h-6v-6h6Zm.12-15.69-6-.59a30.44,30.44,0,0,1,1.37-6.5l5.7,1.87A24.86,24.86,0,0,0,62.65,84.67Zm5.34-13-4.67-3.78A30.59,30.59,0,0,1,68,63.22l3.74,4.68A24.5,24.5,0,0,0,68,71.67Zm11.59-8L77.74,58a30.72,30.72,0,0,1,6.51-1.33l.55,6A24.3,24.3,0,0,0,79.58,63.71Zm20.94-1.17h-6v-6h6Z"></path><path fill="#5e6175" d="M419.42 106.06a12 12 0 1112-12.18A12 12 0 01419.42 106.06zM415.12 90a6 6 0 1010.27 4h0A6 6 0 00415.12 90zM370.82 54.2a9.23 9.23 0 119.23-9.38h0A9.22 9.22 0 01370.82 54.2zM368.5 42.73a3.23 3.23 0 105.55 2.19h0A3.23 3.23 0 00368.5 42.73z"></path><path fill="#e1830e" d="M329.43,310.63a46.79,46.79,0,0,0-34,15.34,28.58,28.58,0,0,0-1.89,2.21s13,17.5,35.89,17.47A45.29,45.29,0,0,0,356,336.87a46,46,0,0,0,9.35-8.77S352.28,310.61,329.43,310.63Zm0,28.55a11.05,11.05,0,0,1-11.06-11,10.91,10.91,0,0,1,10.87-11,11.18,11.18,0,0,1,11.22,11A11,11,0,0,1,329.46,339.18Z"></path><rect width="20.37" height="6" x="418.97" y="322.94" fill="#5e6175"></rect><rect width="20.37" height="6" x="411.66" y="296.31" fill="#5e6175" transform="rotate(-45 421.85 299.314)"></rect><rect width="6" height="20.37" x="420.11" y="341.9" fill="#5e6175" transform="rotate(-45 423.104 352.075)"></rect></g></svg>