<svg xmlns="http://www.w3.org/2000/svg" xmlns:xlink="http://www.w3.org/1999/xlink" viewBox="0 0 512 512" id="pencil"><defs><linearGradient id="a" x1="414.16" x2="462.49" y1="148.22" y2="148.22" gradientUnits="userSpaceOnUse"><stop offset="0" stop-color="#cacfdd"></stop><stop offset="1" stop-color="#eef0f1"></stop></linearGradient><linearGradient xlink:href="#a" id="b" x1="418.2" x2="433.41" y1="97.79" y2="97.79"></linearGradient><linearGradient xlink:href="#a" id="c" x1="258.55" x2="282.42" y1="251.01" y2="274.89"></linearGradient><linearGradient xlink:href="#a" id="d" x1="305.45" x2="338.8" y1="297.92" y2="331.27"></linearGradient></defs><g style="isolation:isolate"><path fill="#5e6175" d="M365.19 357.9c-.29-11.44 13.5-17.71 21.91-9.73a13 13 0 01.46 18.33C379.7 374.77 365.48 369.54 365.19 357.9zm13-7.29a7 7 0 105 11.76A7 7 0 00378.17 350.61zM315.06 380.43a9.92 9.92 0 116.85-17.11A9.91 9.91 0 01315.06 380.43zm-3.91-9.81a3.92 3.92 0 106.63-2.95h0A3.93 3.93 0 00311.15 370.62z"></path><path fill="#a9afc4" d="M461.37,105.39l-4.24-4.24,4.24-4.24,4.24,4.24ZM450.06,94.08l-4.25-4.24,4.24-4.25,4.25,4.25ZM342,93.52l-4.24-4.24L342,85l4.24,4.24Zm96.79-10.75-4.23-4.23,4.22-4.27L443,78.52Zm-85.48-.56L349,78l4.28-4.27L357.48,78C357,78.47,357.14,78.33,353.26,82.21Zm74-9.76a54.74,54.74,0,0,0-4.82-3l2.92-5.24a61.19,61.19,0,0,1,5.34,3.34ZM364.82,72l-3.37-5a60.4,60.4,0,0,1,5.39-3.27l2.84,5.28A56.14,56.14,0,0,0,364.82,72Zm49-6.45C412,65,410.16,64.42,408.32,64l1.37-5.84c2,.48,4.08,1.07,6.06,1.75Zm-35.4-.24-1.89-5.7c2-.65,4-1.22,6.09-1.67l1.28,5.86C382,64.23,380.17,64.74,378.38,65.33ZM399,62.63a56.86,56.86,0,0,0-5.69,0l-.27-6c2.09-.09,4.21-.08,6.3,0Z"></path><rect width="6" height="20.49" x="63.2" y="388.89" fill="#5e6175" transform="rotate(-73.44 66.187 399.127)"></rect><rect width="20.49" height="6" x="55.37" y="423.91" fill="#5e6175" transform="rotate(-28.44 65.602 426.881)"></rect><rect width="6" height="20.49" x="76.53" y="365.41" fill="#5e6175" transform="rotate(-28.44 79.516 375.623)"></rect><path fill="#e1830e" d="M130.7 212.69a31.59 31.59 0 0131.59 31.59 31.58 31.58 0 0131.58-31.59 31.58 31.58 0 01-31.58-31.59A31.59 31.59 0 01130.7 212.69zM247.94 129.66a16.73 16.73 0 0116.73 16.73 16.73 16.73 0 0116.74-16.73 16.74 16.74 0 01-16.74-16.74A16.74 16.74 0 01247.94 129.66z"></path><path fill="#a9afc4" d="M416.31,208.37,216.37,408.31a19.28,19.28,0,0,0-27.72-26.79h0a19.28,19.28,0,1,0-27.27-27.27h0a19.28,19.28,0,0,0-27-27.5L334.51,126.57Z"></path><rect width="24.5" height="115.69" x="371.82" y="100.96" fill="#5e6175" transform="rotate(-45 384.08 158.809)"></rect><path fill="#e1830e" d="M452.69,124.68,418.2,90.19a33.44,33.44,0,0,0-47.31,0l-19.05,19,81.8,81.8,19.05-19A33.44,33.44,0,0,0,452.69,124.68Z"></path><path fill="url(#a)" d="M452.69,172l-19.05,19-19.48-19.48,19-19.05a33.47,33.47,0,0,0,.2-47.11l19.28,19.28A33.44,33.44,0,0,1,452.69,172Z" style="mix-blend-mode:multiply"></path><path fill="url(#b)" d="M433.41,105.4c-20.14-20.14-20.36-20.35-.2-.21Z" style="mix-blend-mode:multiply"></path><path fill="#5e6175" d="M416.31 212.61l-86-86L351.84 105l86 86zm-77.56-86l77.56 77.55L429.4 191l-77.56-77.56zM163.49 356.36l-4.24-4.24 20-20 4.24 4.24C180.67 339.2 183.68 336.19 163.49 356.36z"></path><path fill="#dee1ec" d="M209.61,413.87,97.17,452.21a5.16,5.16,0,0,1-6.49-6.5c18.79-54.9,39.21-114.55,38.57-112.66.8-2.35,2.11-3.33,4.86-6.07a19.28,19.28,0,1,1,27.26,27.26,19.28,19.28,0,1,1,27.27,27.27h0a19.28,19.28,0,0,1,27.72,26.79C212.9,411.8,212,413.05,209.61,413.87Z"></path><path fill="#5e6175" d="M476,455.46H36v-6H476C476,456.38,475.94,445.31,476,455.46Z"></path><path fill="#a9afc4" d="M361.77,153.83,161.37,354.24A19.28,19.28,0,1,0,134.11,327c-.1-.1-1.35,1.33,200.39-200.42Z"></path><path fill="#a9afc4" d="M389,181.1,188.87,381.28a19.28,19.28,0,0,0-27.5-27l200.41-200.4Z"></path><path fill="#a9afc4" d="M416.31,208.37,216.37,408.31a19.28,19.28,0,0,0-27.72-26.79c-.1-.1-4.33,4.31,200.39-200.42Z"></path><path fill="url(#c)" d="M389,181.1,188.87,381.28a19.28,19.28,0,0,0-27.5-27l200.41-200.4Z" style="mix-blend-mode:multiply"></path><path fill="url(#d)" d="M416.31,208.37,216.37,408.31a19.28,19.28,0,0,0-27.72-26.79c-.1-.1-4.33,4.31,200.39-200.42Z" style="mix-blend-mode:multiply"></path><path fill="#5e6175" d="M163.49,356.36l-4.24-4.25a16.28,16.28,0,0,0-22.82-23.21l-2.32,2.32L129.86,327c3.33-3.35,201.21-201.22,204.64-204.66L366,153.83Zm6.5-15L357.53,153.83l-23-23L146.93,318.38A22.2,22.2,0,0,1,170,341.37Z"></path><path fill="#5e6175" d="M191,383.4l-4.27-4.21a16.28,16.28,0,0,0-23.22-22.83h0l-4.24-4.24c.1,0-3.75,3.76,202.53-202.53l31.51,31.51Zm6.25-14.73L384.8,181.1l-23-23L174.25,345.61A22.23,22.23,0,0,1,197.24,368.67Z"></path><path fill="#5e6175" d="M218.49,410.43l-4.31-4.17a16.28,16.28,0,0,0-23.41-22.62l-2.12,2.13-4.24-4.25c3.17-3.2-13.39,13.36,204.63-204.66l31.51,31.51Zm6.1-14.59L412.07,208.37l-23-23L201.49,372.9A22.31,22.31,0,0,1,224.59,395.84Z"></path><path fill="#5e6175" d="M188.65 385.76l-4.26-4.25 2.36-2.36 2.22 2c2.38-2.38 2.39-2.4 0 0l2.2 2C190.94 383.47 190.9 383.51 188.65 385.76zM132.69 440.1L97.17 452.21a5.16 5.16 0 01-6.49-6.5l12.15-35.5A42.21 42.21 0 01132.69 440.1z"></path><path fill="#5e6175" d="M95.56,455.46a8.15,8.15,0,0,1-8.13-8.15c0-2-2.35,5.5,39-115.23,1.07-3.12,2.85-4.5,5.84-7.5a22.29,22.29,0,0,1,37,21.77,22.26,22.26,0,0,1,27.24,27.27,22.29,22.29,0,0,1,22.05,36.74c-3.47,3.49-4.81,5.27-8,6.35C90.39,457.69,97.58,455.46,95.56,455.46Zm40.91-126.6c-2.71,2.83-3.77,3.37-4.39,5.17L93.52,446.68a2.16,2.16,0,0,0,2.72,2.68L208.64,411c1.61-.55,2.14-1.35,5.6-4.84,9.74-10.39,2.12-27.32-12-27.32a16.18,16.18,0,0,0-11.52,4.77l-2.12,2.12-4.24-4.24,2.34-2.36a16.29,16.29,0,0,0-23.26-22.8l-4.24-4.24a16.28,16.28,0,0,0-22.78-23.26Z"></path><path fill="#5e6175" d="M95.56 455.46a8.15 8.15 0 01-8.13-8.15c0-2-.68.63 13.47-40.72l2.7.72a45.19 45.19 0 0132 32l.72 2.7C94.94 456.14 97.5 455.46 95.56 455.46zm9.17-41.54c-12 35-11.3 32.84-11.3 33.39a2.15 2.15 0 002.81 2.05L129 438.19A39.19 39.19 0 00104.73 413.92zM433.64 195.28l-86.05-86 21.18-21.17a36.42 36.42 0 0151.55 0l34.49 34.49a36.42 36.42 0 010 51.55zm-77.56-86l77.56 77.56 16.93-16.93a30.44 30.44 0 000-43.07c0 .1.16.16-34.49-34.49a30.44 30.44 0 00-43.07 0z"></path></g></svg>