<svg xmlns="http://www.w3.org/2000/svg" viewBox="0 0 512 512" id="portfolio"><defs><linearGradient id="linear-gradient" x1="141.79" x2="221.61" y1="372.47" y2="372.47" gradientUnits="userSpaceOnUse"><stop offset="0" stop-color="#cacfdd"></stop><stop offset="1" stop-color="#eef0f1"></stop></linearGradient></defs><g style="isolation:isolate"><g id="Portfolio"><rect width="269.84" height="356.46" x="141.79" y="56.74" fill="#f5f5f5"></rect><rect width="269.84" height="356.45" x="141.79" y="56.75" fill="#f5f5f5"></rect><path d="M221.6,413.2H141.79V331.75A79.9,79.9,0,0,1,221.6,413.2Z" style="mix-blend-mode:multiply" fill="url(#linear-gradient)"></path><path d="M271.23,140.53a46.81,46.81,0,1,1-46.8-46.81A46.8,46.8,0,0,1,271.23,140.53Z" fill="#e1830e"></path><rect width="81.22" height="9.26" x="297.03" y="110.92" fill="#a9afc4"></rect><rect width="62.82" height="9.26" x="297.03" y="136.73" fill="#a9afc4"></rect><rect width="81.22" height="9.26" x="297.03" y="162.54" fill="#a9afc4"></rect><path d="M224.43,93.72v46.81l-33.1,33.1a46.81,46.81,0,0,1,33.1-79.91Z" fill="#dee1ec"></path><path d="M224.43,140.53v46.8a46.69,46.69,0,0,1-33.1-13.7Z" fill="#a9afc4"></path><rect width="138.89" height="6" x="177.62" y="325.02" fill="#5e6175"></rect><rect width="23.4" height="67.13" x="189.32" y="260.89" fill="#dee1ec"></rect><rect width="23.4" height="28.52" x="233.63" y="299.5" fill="#a9afc4"></rect><rect width="23.4" height="116.22" x="277.94" y="211.8" fill="#e1830e"></rect><path d="M215.73 331H186.32V257.89h29.41Zm-23.41-6h17.41V263.89H192.32ZM260 331h-29.4V296.5H260Zm-23.4-6H254V302.5h-17.4ZM304.34 331h-29.4V208.8h29.4Zm-23.4-6h17.4V214.8h-17.4Z" fill="#5e6175"></path><rect width="148.75" height="9.76" x="229.5" y="366.18" fill="#a9afc4"></rect><path d="M342.35,259.21c0,.89,0,54.27,0,71.15H365V259.2h17l-28.16-31.93L326,259.2Z" fill="#a9afc4"></path><path d="M414.62,416.2H138.79V53.74H414.62Zm-269.83-6H408.62V59.74H144.79Z" fill="#5e6175"></path><circle cx="141.79" cy="411.58" r="64.42" fill="#f5f5f5"></circle><path d="M141.79,479a67.42,67.42,0,1,1,67.42-67.42A67.5,67.5,0,0,1,141.79,479Zm0-128.84a61.42,61.42,0,1,0,61.42,61.42A61.49,61.49,0,0,0,141.79,350.16Z" fill="#5e6175"></path><path d="M171.6,387.94H114.32a7.67,7.67,0,0,0-7.68,7.33l19.44,14.07a28.79,28.79,0,0,0,33.76,0l19.44-14.07A7.69,7.69,0,0,0,171.6,387.94Zm-24.87,22h-7.54v-7.55h7.54Z" fill="#e1830e"></path><path d="M179.29 404.31v32.07a7.69 7.69 0 0 1-7.7 7.69H114.32a7.68 7.68 0 0 1-7.69-7.68V404.32l16.05 11.62a34.55 34.55 0 0 0 40.54 0ZM129.19 397h-6.74v-12.4h3.37a1.25 1.25 0 0 0 1.25-1.26v-3.1a8 8 0 0 1 8-8H150.7a8 8 0 0 1 8 8v3.1a1.25 1.25 0 0 0 1.26 1.26h3.51v10.92h-6.74v-4.86a8 8 0 0 1-4.77-7.32v-3.1A1.25 1.25 0 0 0 150.7 379H135.07a1.26 1.26 0 0 0-1.26 1.25v3.1a8 8 0 0 1-4.62 7.25Z" fill="#e1830e"></path><path d="M224.43,190.33a49.81,49.81,0,1,1,49.8-49.8A49.77,49.77,0,0,1,224.43,190.33Zm0-93.61a43.81,43.81,0,1,0,43.8,43.81A43.86,43.86,0,0,0,224.43,96.72Z" fill="#5e6175"></path><rect width="6" height="18.29" x="424.65" y="419.5" transform="rotate(-45 427.65 428.642)" fill="#5e6175"></rect><rect width="18.29" height="6" x="430.76" y="404.09" fill="#5e6175"></rect><rect width="6" height="18.29" x="404.21" y="432.25" fill="#5e6175"></rect><path d="M71.52 355.39a11.58 11.58 0 0 1-4.78-22.12h0a11.58 11.58 0 1 1 4.78 22.12Zm0-17.16a5.49 5.49 0 0 0-2.3.5 5.55 5.55 0 1 0 2.3-.5ZM100.88 299.46a9 9 0 1 1 11.86 4.46A9 9 0 0 1 100.88 299.46Zm8.16-6.67a3 3 0 1 0 1.22 5.66A3 3 0 0 0 109 292.79Z" fill="#5e6175"></path><path d="M434.49,119.37h-6v-6h6Zm0-16h-6v-6h6Zm0-16h-6v-6h6Zm0-16h-6v-6h6Zm-7.06-15a24.61,24.61,0,0,0-2.1-4.89l5.22-3a30.74,30.74,0,0,1,2.62,6.1Zm-7.79-11.7a24,24,0,0,0-4.45-2.94L418,36.38a30.52,30.52,0,0,1,5.53,3.67Zm-12.92-5.51a46.49,46.49,0,0,0-5.66-.15V33a51.72,51.72,0,0,1,6.33.19ZM391.06,39h-6V33h6Z" fill="#a9afc4"></path></g></g></svg>