<svg xmlns="http://www.w3.org/2000/svg" xmlns:xlink="http://www.w3.org/1999/xlink" viewBox="0 0 512 512" id="predictive-analytics"><defs><linearGradient id="a" x1="232.65" x2="350.38" y1="209.92" y2="209.92" gradientUnits="userSpaceOnUse"><stop offset="0" stop-color="#cacfdd"></stop><stop offset="1" stop-color="#eef0f1"></stop></linearGradient><linearGradient xlink:href="#a" id="b" x1="62.98" x2="116.89" y1="63.74" y2="63.74"></linearGradient></defs><g style="isolation:isolate"><polygon fill="#f5f5f5" points="350.38 36 350.38 452.97 62.98 452.97 62.98 86.12 110.73 36 350.38 36"></polygon><path fill="#dee1ec" d="M202.29,284.16V102.31a90.93,90.93,0,0,0,0,181.85Z"></path><path fill="#e1830e" d="M202.29,284.16a90.93,90.93,0,0,0,64.29-155.22l-64.29,64.29Z"></path><path fill="#a9afc4" d="M281.68,90.72a90.67,90.67,0,0,0-64.29-26.63V155Z"></path><path fill="#5e6175" d="M205.29,287.16h-3a93.93,93.93,0,0,1,0-187.85h3Zm-6-181.8a87.92,87.92,0,0,0,0,175.74Z"></path><path fill="#5e6175" d="M202.29 287.16h-3V192l67.29-67.29 2.12 2.12a93.92 93.92 0 01-66.41 160.34zm3-92.68V281.1a87.92 87.92 0 0061.25-147.88zM214.39 162.26V61.09h3A93.31 93.31 0 01283.8 88.6l2.12 2.12zm6-95.12v80.63l57-57A87.31 87.31 0 00220.39 67.14z"></path><polygon fill="#5e6175" points="297.69 430.44 115.19 430.44 115.19 301.03 121.19 301.03 121.19 424.44 297.69 424.44 297.69 430.44"></polygon><polygon fill="#5e6175" points="120.31 403.01 116.07 398.77 157.4 357.44 207.31 357.44 256.19 308.56 260.43 312.81 209.8 363.44 159.88 363.44 120.31 403.01"></polygon><circle cx="158.64" cy="360.44" r="9.65" fill="#a9afc4"></circle><circle cx="208.46" cy="360.44" r="9.65" fill="#e1830e"></circle><circle cx="258.19" cy="310.69" r="9.65" fill="#dee1ec"></circle><path fill="#5e6175" d="M158.64 373.09a12.65 12.65 0 1112.65-12.65A12.66 12.66 0 01158.64 373.09zm0-19.3a6.65 6.65 0 106.65 6.65A6.65 6.65 0 00158.64 353.79zM208.46 373.09a12.65 12.65 0 1112.66-12.65A12.66 12.66 0 01208.46 373.09zm0-19.3a6.65 6.65 0 106.66 6.65A6.65 6.65 0 00208.46 353.79zM258.19 323.34a12.66 12.66 0 1112.65-12.65A12.67 12.67 0 01258.19 323.34zm0-19.31a6.66 6.66 0 106.65 6.66A6.67 6.67 0 00258.19 304z"></path><rect width="19.31" height="32.31" x="148.99" y="395.13" fill="#a9afc4"></rect><rect width="19.31" height="41.29" x="198.81" y="386.15" fill="#e1830e"></rect><rect width="19.31" height="70.44" x="248.65" y="356.99" fill="#dee1ec"></rect><path fill="#5e6175" d="M171.29 430.44H146V392.13h25.3zm-19.3-6h13.3V398.13H152zM221.12 430.44H195.81V383.15h25.31zm-19.31-6h13.31V389.15H201.81zM271 430.44H245.65V354H271zm-19.31-6H265V360H251.65z"></path><path fill="url(#a)" d="M319.57,138.09A71.68,71.68,0,0,1,350.38,145V128.61a87,87,0,0,0-117.73,81.3c0,61,61.11,102.81,117.73,81.15V274.64c-47.85,22.74-102.63-12-102.63-64.73A71.8,71.8,0,0,1,319.57,138.09Z" style="mix-blend-mode:multiply"></path><path fill="#5e6175" d="M353.37,456H60v-371L109.45,33H353.37ZM66,450H347.37V39H112L66,87.32Z"></path><path fill="#dee1ec" d="M347.06,143.53A71.84,71.84,0,0,0,268.78,260.7c24.14,24.14,62.68,28.91,93.65,6.85l15.38,15.39c-.17.69-.33,1.39-.43,2.09l7.88,7.89,17.45-17.45-8.17-8.16c-.68.13-1.36.3-2,.49l-15.16-15.16,1.06-1.48,0,0C405.06,213.23,389,160.9,347.06,143.53Zm11.26,103.25A53.54,53.54,0,0,1,305,261.37c-7.74-2.2-14.13-6.19-20.41-11.07-23.07-20.1-24.45-56.52-2.78-78.19,20.63-20.63,55-20.62,75.63,0C379,193.67,377.17,227.93,358.32,246.78Z"></path><path fill="#5e6175" d="M385.26,297.16l-11.08-11.08c.22-1.43.26-1.72.35-2.19l-12.45-12.45a74.77,74.77,0,0,1-95.42-8.62,74.84,74.84,0,0,1,81.55-122.06c42.65,17.66,60,70.32,34.06,110l0,0-1.06,1.52,12.16,12.17c.38-.09.49-.1,2.14-.41l11.4,11.4ZM380.63,284l4.63,4.64,13.21-13.21-4.87-4.86-2,.57L373.42,253l2.5-3.55c25.71-36.53,10-86.54-30-103.12h0a68.84,68.84,0,1,0-28.14,132.41c15.05.38,29.89-4.33,42.91-13.6l2.07-1.47L381.14,282Zm-61-17.65c-14.8,0-25.72-5-36.92-13.73C272,243.8,264,228.52,263.37,211.8a56.38,56.38,0,0,1,111-15.67h0c4.69,18.9-.77,39.61-13.92,52.76A56.38,56.38,0,0,1,319.62,266.39ZM286.45,248c7.13,5.54,12.91,8.68,19.32,10.5a50.5,50.5,0,0,0,50.4-13.79c11.72-11.72,16.56-30.2,12.36-47.1h0a50.27,50.27,0,0,0-13.27-23.36c-19.34-19.34-52-19.34-71.38,0C263.48,194.63,264.76,229,286.45,248Z"></path><path fill="#5e6175" d="M413.26,273l54.92,54.92A21.27,21.27,0,1,1,438.1,358l-54.73-54.72A21.28,21.28,0,0,1,413.26,273Z"></path><path fill="#5e6175" d="M436,360.12,381.25,305.4a24.28,24.28,0,0,1,34.1-34.56l54.95,55A24.27,24.27,0,0,1,436,360.12Zm-54.25-79.35a18.28,18.28,0,0,0,3.77,20.39l54.73,54.72A18.27,18.27,0,1,0,466.06,330l-54.91-54.92A18.3,18.3,0,0,0,381.72,280.77Z"></path><path fill="#f5f5f5" d="M340,160.49a54,54,0,0,0-58.28,11.62c-21.67,21.67-20.29,58.09,2.78,78.19,6.55,5.09,13.24,9.18,21.36,11.33a53.59,53.59,0,0,0,52.42-14.85C383.41,221.68,375.47,175.17,340,160.49Z"></path><path fill="#f5f5f5" d="M340,160.49a54,54,0,0,0-58.28,11.61c-21.64,21.65-20.32,58.15,2.78,78.2,6.55,5.09,13.24,9.18,21.36,11.33a53.47,53.47,0,0,0,52.42-14.85C383.33,221.77,375.54,175.2,340,160.49Z"></path><path fill="#f5f5f5" d="M340,160.49a54,54,0,0,0-58.28,11.61c-21.64,21.65-20.32,58.15,2.78,78.2,6.55,5.09,13.24,9.18,21.36,11.33a53.47,53.47,0,0,0,52.42-14.85C383.33,221.77,375.54,175.2,340,160.49Z"></path><path fill="#5e6175" d="M319.53,266.39c-14.9,0-25.91-5.23-36.83-13.73-10.76-8.89-18.74-24.13-19.33-40.78a56.2,56.2,0,0,1,77.82-54.16c21.11,8.75,34.25,29,34.71,51.53C376.57,242.24,349.73,266.39,319.53,266.39ZM286.45,248c7.3,5.67,13.54,9,20.22,10.75a50.43,50.43,0,0,0,49.47-14c23.63-23.64,16.24-67.58-17.25-81.46h0a51,51,0,0,0-55,11C263.51,194.59,264.72,229.06,286.45,248Z"></path><path fill="#e1830e" d="M314.08,220.21A25.67,25.67,0,0,1,324.72,200,8.67,8.67,0,1,0,311,192.39H299.82a19.86,19.86,0,1,1,31.43,16.66,14.43,14.43,0,0,0-6,11.16Z"></path><rect width="11.24" height="11.24" x="313.94" y="230.74" fill="#e1830e"></rect><rect width="19.7" height="6" x="389.81" y="135.62" fill="#5e6175" transform="rotate(-45 399.657 138.617)"></rect><rect width="6" height="19.71" x="373.44" y="115.55" fill="#5e6175"></rect><rect width="19.71" height="6" x="403.55" y="157.64" fill="#5e6175"></rect><path fill="#a9afc4" d="M100.84,479h-6v-6h6Zm-16,0h-6v-6h6Zm-16,0h-6v-6h6ZM52,477.24A27.15,27.15,0,0,1,46,474.07l3.47-4.9a20.85,20.85,0,0,0,4.61,2.46ZM38.43,465.89a26.27,26.27,0,0,1-2.72-6.16L41.46,458a21,21,0,0,0,2.11,4.78ZM40.58,449h-6v-6h6Zm0-16h-6v-6h6Zm0-16h-6v-6h6Zm0-16h-6v-6h6Zm0-16h-6v-6h6Z"></path><path fill="#5e6175" d="M420.69 423.34a11.67 11.67 0 1111.5-9.8h0A11.67 11.67 0 01420.69 423.34zm0-17.34A5.67 5.67 0 10424 416.27a5.61 5.61 0 002.28-3.69h0A5.67 5.67 0 00420.65 406zM382.12 375A9 9 0 11391 367.4 9 9 0 01382.12 375zm0-12a3 3 0 101.78 5.47A3 3 0 00382.09 362.93z"></path><polygon fill="url(#b)" points="116.89 36 116.89 91.48 62.98 91.48 62.98 86.12 110.73 36 116.89 36" style="mix-blend-mode:multiply"></polygon><path fill="#5e6175" d="M119.89,94.48H60V84.92L109.45,33h10.44ZM66,88.48h47.91V39H112L66,87.32Z"></path></g></svg>