<svg xmlns="http://www.w3.org/2000/svg" viewBox="0 0 512 512" id="price-cut"><defs><linearGradient id="a" x1="125.88" x2="178.72" y1="290.86" y2="290.86" gradientUnits="userSpaceOnUse"><stop offset="0" stop-color="#cacfdd"></stop><stop offset="1" stop-color="#eef0f1"></stop></linearGradient></defs><g><path fill="#a9afc4" d="M115.1,338.53c.54-15.36.5-13.87.5-15.07a39.8,39.8,0,1,0-39.8,40h46.32l15.94,15.95,114.19-30V338.53Zm-21.69,1.28a24.36,24.36,0,1,1,0-34.45A24.35,24.35,0,0,1,93.41,339.81Z"></path><path fill="#5e6175" d="M137.16,382.69l-16.29-16.28H75.8a42.87,42.87,0,1,1,42.8-43c0,1.27,0,.08-.39,12.07h137v16.16Zm-61.36-96a36.87,36.87,0,0,0,0,73.74h47.56L139,376l110.28-29v-5.53H112c.66-18.75.61-16.93.61-18.07A36.84,36.84,0,0,0,75.8,286.67ZM76.19,350a27.37,27.37,0,1,1,19.35-8h0A27.19,27.19,0,0,1,76.19,350Zm0-48.72a21.36,21.36,0,1,0,15.1,6.25A21.34,21.34,0,0,0,76.19,301.23Z"></path><path fill="#f5f5f5" d="M274.34,46.52a166,166,0,1,0,166,166A166,166,0,0,0,274.34,46.52Zm111.13,77.16a15.91,15.91,0,1,1-22.5,0A15.93,15.93,0,0,1,385.47,123.68Z"></path><path fill="#dee1ec" d="M405.46,212.54a131.12,131.12,0,1,1-37.8-92.1,15.9,15.9,0,1,0,19,24.41A130.45,130.45,0,0,1,405.46,212.54Z"></path><path fill="url(#a)" d="M139.94,233.45,125.88,287a166.89,166.89,0,0,0,52.84,61.33V233.45Z" style="mix-blend-mode:multiply"></path><path fill="#5e6175" d="M374.21 153.83a18.91 18.91 0 1118.91-18.9A18.92 18.92 0 01374.21 153.83zm0-31.81a12.91 12.91 0 1012.91 12.91A12.92 12.92 0 00374.21 122zM378.33 392.49a11.75 11.75 0 118.42-19.94A11.67 11.67 0 01378.33 392.49zm0-17.49a5.75 5.75 0 104.13 1.74A5.75 5.75 0 00378.33 375zM422.17 354.28a9.07 9.07 0 01-9.07-9.2h0a9.08 9.08 0 119.07 9.2zm0-12.15a3.08 3.08 0 00-3.07 3h0a3.08 3.08 0 103.07-3z"></path><rect width="6" height="17.79" x="120.34" y="67.62" fill="#5e6175" transform="rotate(-45 123.345 76.519)"></rect><rect width="17.79" height="6" x="102.52" y="94.48" fill="#5e6175"></rect><rect width="6" height="17.79" x="140.23" y="55.21" fill="#5e6175"></rect><path fill="#e1830e" d="M276.65,288.66a45.18,45.18,0,0,1-45.13-45.13H259.8a16.86,16.86,0,1,0,16.85-16.85,45.13,45.13,0,1,1,45.14-45.13H293.51a16.86,16.86,0,1,0-16.86,16.85,45.13,45.13,0,1,1,0,90.26Z"></path><rect width="29.97" height="29.89" x="261.67" y="271.59" fill="#e1830e"></rect><rect width="28.28" height="28.21" x="262.51" y="122.35" fill="#e1830e"></rect><path fill="#a9afc4" d="M249.83 428.29v-6a30.6 30.6 0 005.51-.27l1 5.93A36.52 36.52 0 01249.83 428.29zm-10 0h-6v-6h6zM266.71 424l-3.24-5.05a22.07 22.07 0 004-3.35l4.36 4.12A27.57 27.57 0 01266.71 424zm11-13.78l-5.64-2a21.66 21.66 0 001.16-5.11l6 .6A27.67 27.67 0 01277.73 410.2zm1.62-16.85h-6v-6h6zM279.35 367.56h-6v-6h6zm0-16h-6v-6h6zm0-16h-6v-6h6zm0-16h-6v-4.35h6z"></path><path fill="#5e6175" d="M379.57,148.9a27.92,27.92,0,0,1,4.23-34.1l47.49-47.49a27.94,27.94,0,1,1,39.52,39.52l-42,42-4.24-4.24,42-42a21.95,21.95,0,1,0-31-31L388,119a21.92,21.92,0,0,0-3.32,26.78Z"></path><path fill="#5e6175" d="M274.34,381.56c-93.2,0-169-75.82-169-169s75.82-169,169-169,169,75.82,169,169S367.54,381.56,274.34,381.56Zm0-332c-89.89,0-163,73.13-163,163s73.13,163,163,163,163-73.13,163-163S364.23,49.52,274.34,49.52Z"></path><path fill="#a9afc4" d="M178,385.87c-.81,0,1-.05-15.1.5V249.22H152.1l-30,114.19,15.94,15.95v46.32a39.87,39.87,0,1,0,40-39.81Zm18.08,56.65a24.36,24.36,0,1,1,0-34.45A24.37,24.37,0,0,1,196.12,442.52Z"></path><path fill="#5e6175" d="M178,468.48a42.84,42.84,0,0,1-42.94-42.8V380.6l-16.28-16.29,31-118.09h16.15v137l10.58-.37c23.85-1,44.28,18.4,44.28,42.78A42.85,42.85,0,0,1,178,468.48Zm-52.54-106,15.6,15.61v47.57a36.87,36.87,0,1,0,37-36.81c-.81,0,.58,0-18.1.61V252.22h-5.53Zm34.09,82.14a27.36,27.36,0,1,1,38.69,0h0A27.4,27.4,0,0,1,159.55,444.64Zm19.34-40.7A21.35,21.35,0,1,0,194,410.19,21.33,21.33,0,0,0,178.89,403.94Z"></path><circle cx="145.08" cy="357.03" r="7.22" fill="#f5f5f5"></circle></g></svg>