<svg xmlns="http://www.w3.org/2000/svg" xmlns:xlink="http://www.w3.org/1999/xlink" viewBox="0 0 512 512" id="protection"><defs><linearGradient id="a" x1="270.66" x2="270.66" y1="446.01" y2="53.54" gradientUnits="userSpaceOnUse"><stop offset="0" stop-color="#cacfdd"></stop><stop offset="1" stop-color="#eef0f1"></stop></linearGradient><linearGradient xlink:href="#a" id="b" x1="-25.19" x2="57.75" y1="156" y2="156" gradientTransform="matrix(-1 0 0 1 161.47 0)"></linearGradient></defs><g style="isolation:isolate"><path fill="url(#a)" d="M103.74,114.54V425.32H437.57V114.54Z"></path><path fill="url(#b)" d="M103.72,114.54v82.93a83,83,0,0,0,82.94-82.93Z" style="mix-blend-mode:multiply"></path><polygon fill="#e08326" points="226.27 114.54 226.27 197.1 241.07 186.61 255.9 197.1 270.7 186.61 285.47 197.1 300.27 186.61 315.04 197.1 315.04 114.54 226.27 114.54"></polygon><path fill="#5e6175" d="M440.57,428.32H100.74V111.54H440.57Zm-333.83-6H434.57V117.54H106.74Z"></path><rect width="79.49" height="19.75" x="131.26" y="382.24" fill="#5e6175" transform="rotate(180 171 392.12)"></rect><circle cx="103.73" cy="114.54" r="66.6" fill="#f5f5f5"></circle><path fill="#5e6175" d="M103.73,184.13a69.6,69.6,0,1,1,69.59-69.59A69.67,69.67,0,0,1,103.73,184.13Zm0-133.19a63.6,63.6,0,1,0,63.59,63.6A63.67,63.67,0,0,0,103.73,50.94Z"></path><rect width="111.08" height="111.08" x="299.7" y="287.78" fill="#f5f5f5"></rect><path fill="#5e6175" d="M413.78,401.86H296.7V284.78H413.78Zm-111.08-6H407.78V290.78H302.7Z"></path><path fill="#e08326" d="M322.35,353a8.23,8.23,0,0,1,16.45.21,8.22,8.22,0,1,1,16.44,0,8.23,8.23,0,1,1,16.45,0,8.23,8.23,0,0,1,16.45-.21,32.9,32.9,0,0,0-65.79,0Z"></path><path fill="none" stroke="#e08326" stroke-miterlimit="10" stroke-width="5" d="M322.35,353a8.23,8.23,0,0,1,16.45.21,8.22,8.22,0,1,1,16.44,0,8.23,8.23,0,1,1,16.45,0,8.23,8.23,0,0,1,16.45-.21,32.9,32.9,0,0,0-65.79,0Z"></path><path fill="none" stroke="#e08326" stroke-miterlimit="10" stroke-width="5" d="M355.24,341.25v35.3a7.64,7.64,0,1,1-15.28,0"></path><path fill="#e1830e" d="M384.33 320.22a5.58 5.58 0 005.48-7.85c-.22-.49-5.1-8.08-5.1-8.08s-5.21 8.09-5.11 8.09A5.6 5.6 0 00384.33 320.22zM324.5 320.22a4.54 4.54 0 004.46-6.38c-.18-.4-4.15-6.58-4.15-6.58s-4.26 6.58-4.16 6.58A4.55 4.55 0 00324.5 320.22z"></path><line x1="355.24" x2="355.24" y1="313.75" y2="320.3" fill="none" stroke="#e08326" stroke-miterlimit="10" stroke-width="5"></line><path fill="#5e6175" d="M44.12 198.53a11.12 11.12 0 1110.93-13.16A11.14 11.14 0 0144.12 198.53zm-4.22-14a5.12 5.12 0 109.26 2A5.14 5.14 0 0039.9 184.5zM81.47 232.89A8.64 8.64 0 1190 222.67 8.65 8.65 0 0181.47 232.89zM81 221.65h0a2.64 2.64 0 102.66 4.09A2.65 2.65 0 0081 221.65z"></path><rect width="6" height="16.31" x="453.91" y="436.38" fill="#5e6175" transform="rotate(-45 456.895 444.518)"></rect><rect width="16.31" height="6" x="459.69" y="422.32" fill="#5e6175"></rect><rect width="6" height="16.31" x="435.69" y="447.75" fill="#5e6175"></rect><path fill="#a9afc4" d="M465.68,273.59h-6v-6h6Zm0-16h-6v-6h6Zm0-16h-6v-6h6Zm0-16h-6v-6h6Zm0-16h-6v-6h6Zm0-16h-6v-6h6Zm0-16h-6v-6h6Zm0-16h-6v-6h6Zm0-16h-6v-6h6Zm0-16h-6v-6h6Zm0-16h-6c0-4.47,0-4.7-.07-5.77l6-.45C465.71,108.88,465.68,109.78,465.68,113.59Zm-8.44-14.18A22.5,22.5,0,0,0,454.29,95l4.54-3.92a28.62,28.62,0,0,1,3.75,5.55Zm-9.86-9.73a22,22,0,0,0-5-1.77l1.32-5.85a27.81,27.81,0,0,1,6.32,2.24Zm-14.26-2.31h-6v-6h6Zm-16,0h-6v-6h6Zm-16,0h-6v-6h6Zm-16,0h-6v-6h6Z"></path><path fill="#e1830e" d="M48.58,307.26A16.45,16.45,0,0,1,65,323.71a16.47,16.47,0,0,1,16.45-16.45A16.45,16.45,0,0,1,65,290.82,16.44,16.44,0,0,1,48.58,307.26Z"></path><polygon fill="#e08326" points="89.94 146.85 60.34 117.25 71.17 106.41 89.94 125.19 132.91 82.22 143.74 93.06 89.94 146.85"></polygon></g></svg>