<svg xmlns="http://www.w3.org/2000/svg" xmlns:xlink="http://www.w3.org/1999/xlink" viewBox="0 0 512 512" id="purchase"><defs><linearGradient id="a" x1="175.59" x2="326.59" y1="297.95" y2="297.95" gradientUnits="userSpaceOnUse"><stop offset="0" stop-color="#cacfdd"></stop><stop offset="1" stop-color="#eef0f1"></stop></linearGradient><linearGradient xlink:href="#a" id="b" x1="206.38" x2="220.4" y1="348.24" y2="348.24"></linearGradient></defs><g style="isolation:isolate"><path fill="#dee1ec" d="M326.59,60.11V344.57a24.11,24.11,0,0,1-24.1,24.11H167.39a24.11,24.11,0,0,1-24.1-24.11V60.11A24.1,24.1,0,0,1,167.39,36h135.1A24.1,24.1,0,0,1,326.59,60.11Z"></path><path fill="#f5f5f5" d="M312.3,62.05V342.63a11.75,11.75,0,0,1-11.75,11.75H169.34a11.76,11.76,0,0,1-11.76-11.75V62.05a11.76,11.76,0,0,1,11.76-11.76h28.24a7.3,7.3,0,0,1,7.3,7.3,7.29,7.29,0,0,0,7.3,7.3h45.49a7.29,7.29,0,0,0,7.3-7.3,7.3,7.3,0,0,1,7.3-7.3h28.28A11.75,11.75,0,0,1,312.3,62.05Z"></path><path fill="url(#a)" d="M326.59,306.16v38.41a24.11,24.11,0,0,1-24.1,24.11H175.59V358.39a44.11,44.11,0,0,1,11.48-29.71l17.1-18.81v-50.4a32.24,32.24,0,1,1,64.47,0v30.11a30.06,30.06,0,0,1,17.52,7.31,30.16,30.16,0,0,1,31.08,9.41A32.34,32.34,0,0,1,326.59,306.16Z" style="mix-blend-mode:multiply"></path><path fill="#5e6175" d="M302.49,371.68H167.39a27.14,27.14,0,0,1-27.1-27.11V60.1A27.13,27.13,0,0,1,167.39,33h135.1a27.13,27.13,0,0,1,27.1,27.1V344.57A27.13,27.13,0,0,1,302.49,371.68ZM167.39,39a21.13,21.13,0,0,0-21.1,21.1V344.57a21.13,21.13,0,0,0,21.1,21.11h135.1a21.13,21.13,0,0,0,21.1-21.11V60.1A21.12,21.12,0,0,0,302.49,39Z"></path><path fill="#e1830e" d="M258.1,129.46v10.63H247.69V128.48a12.21,12.21,0,0,0-24.42,0v11.61H212.86V129.46a22.62,22.62,0,0,1,45.24,0Z"></path><path fill="#e1830e" d="M273.56,140.08H196.31l-9.4,78.74H283Z"></path><rect width="10.32" height="9.57" x="212.86" y="140.08" fill="#f5f5f5"></rect><circle cx="271.31" cy="218.82" r="24.68" fill="#f5f5f5"></circle><path fill="#5e6175" d="M271.31,246.51A27.69,27.69,0,1,1,299,218.82,27.72,27.72,0,0,1,271.31,246.51Zm0-49.37A21.69,21.69,0,1,0,293,218.82,21.71,21.71,0,0,0,271.31,197.14Z"></path><rect width="7.81" height="21.97" x="267.4" y="207.84" fill="#e1830e"></rect><rect width="7.81" height="21.97" x="267.4" y="207.84" fill="#e1830e" transform="rotate(90 271.305 218.825)"></rect><rect width="10.32" height="9.57" x="247.78" y="140.08" fill="#f5f5f5"></rect><path fill="#dee1ec" d="M236.41,243.47a16,16,0,0,1,16,16V319.7a14,14,0,0,1,27.94,0V326a14,14,0,0,1,27.95,0v10.12h0a14.1,14.1,0,0,1,28.19,0V375.2a57.41,57.41,0,0,1-7.37,28.14l-25,42.57L310.19,476H224l-.07-28.51-28.58-50.93A28,28,0,0,1,191.82,383V358.39a27.94,27.94,0,0,1,7.26-18.78l21.32-23.46V259.47A16,16,0,0,1,236.41,243.47Z"></path><path fill="url(#b)" d="M206.38,336.32v19.4a12.28,12.28,0,0,0,2.09,6.85l11.93,17.76V316.15l-10.83,11.91A12.31,12.31,0,0,0,206.38,336.32Z" style="mix-blend-mode:multiply"></path><path fill="#5e6175" d="M307.25,476.59l-6.32-31.21,25.61-43.56a54.5,54.5,0,0,0,6.95-26.62V336.09a11.1,11.1,0,0,0-22.19,0h-6V326a11,11,0,0,0-21.95,0v9.88h-6V319.7a11,11,0,0,0-21.94,0v16.15h-6V259.47a13,13,0,0,0-26,0V380.33h-6V323.91l-16.1,17.71a24.89,24.89,0,0,0-6.48,16.77V383A25,25,0,0,0,198,395.1l29,51.61L227,476l-6,0-.07-27.73L192.71,398a31,31,0,0,1-3.89-15V358.39a30.87,30.87,0,0,1,8-20.8L217.4,315V259.47a19,19,0,0,1,38,0v47.29A17,17,0,0,1,282.35,314a17,17,0,0,1,28.75,9.38c10.76-9.44,28.39-2.08,28.39,12.76V375.2a60.56,60.56,0,0,1-7.75,29.61l-24.47,41.63,5.86,29Z"></path><path fill="#a9afc4" d="M179.31 394.83h-6v-6h6zm-16 0h-6v-6h6zm-16 0h-6v-6h6zm-16 0a33.26 33.26 0 01-6.51-.31l1-5.91a29.41 29.41 0 005.47.22zm-16.84-5.57a19.9 19.9 0 01-4.14-5.67l5.39-2.63a14 14 0 002.9 4zm-.16-16.72h-6v-6h6zm0-16h-6v-6h6zm0-16h-6v-6h6zm0-16h-6v-6h6zm0-16h-6v-6h6zm0-16h-6v-6h6zm0-16h-6v-6h6zm0-16h-6v-6h6zm0-16h-6v-6h6zm0-16h-6v-6h6zm0-16h-6v-6h6zm.31-15.35l-5.87-1.25a19.73 19.73 0 012.65-6.5l5.07 3.2A13.69 13.69 0 00114.62 197.19zm8-9.87l-2.45-5.47a19.6 19.6 0 016.82-1.69l.39 6A13.7 13.7 0 00122.61 187.32zM179.58 186.12h-6v-6h6zm-16 0h-6v-6h6z"></path><path fill="#5e6175" d="M353.27 254.12a12 12 0 0115.18-7.6c10.08 3.35 11.14 17.35 1.6 22.12A12 12 0 01353.27 254.12zM359 256a6 6 0 107.59-3.8A6 6 0 00359 256zM391.09 300.6A9.25 9.25 0 11404 311.79 9.25 9.25 0 01391.09 300.6zm8.78-.33a3.25 3.25 0 101.47 6.16A3.24 3.24 0 00399.87 300.27z"></path><rect width="16.27" height="6" x="105.87" y="120.27" fill="#5e6175"></rect><rect width="16.27" height="6" x="111.71" y="141.54" fill="#5e6175" transform="rotate(-45 119.85 144.537)"></rect><rect width="6" height="16.27" x="115.84" y="94.25" fill="#5e6175" transform="rotate(-45 118.84 102.385)"></rect><rect width="16.27" height="6" x="346.57" y="119.27" fill="#5e6175"></rect><rect width="6" height="16.27" x="345.86" y="135.4" fill="#5e6175" transform="rotate(-45 348.868 143.544)"></rect><rect width="16.27" height="6" x="341.74" y="98.38" fill="#5e6175" transform="rotate(-45 349.872 101.378)"></rect></g></svg>