<svg xmlns="http://www.w3.org/2000/svg" xmlns:xlink="http://www.w3.org/1999/xlink" viewBox="0 0 512 512" id="push-pin"><defs><linearGradient id="a" x1="182.83" x2="230.25" y1="339.38" y2="339.38" gradientUnits="userSpaceOnUse"><stop offset="0" stop-color="#cacfdd"></stop><stop offset="1" stop-color="#eef0f1"></stop></linearGradient><linearGradient xlink:href="#a" id="b" x1="354.33" x2="430.12" y1="153.69" y2="153.69" gradientTransform="rotate(45 392.227 153.696)"></linearGradient></defs><g style="isolation:isolate"><path fill="#f5f5f5" d="M93.72,457.16a535.43,535.43,0,0,0,102.53-80.25l34-34L203,315.68l-34.21,34.2A535.48,535.48,0,0,0,88.72,452.16Z"></path><path fill="#f5f5f5" d="M230.25,342.91l-34,34A535.06,535.06,0,0,1,93.72,457.16l-5-5A535.72,535.72,0,0,1,168.8,349.88c17.67-17.65,10-10,34.2-34.21Z"></path><rect width="60.35" height="221.01" x="207.79" y="197.45" fill="#a9afc4" rx="16.09" transform="rotate(-45 237.959 307.954)"></rect><polygon fill="url(#a)" points="230.25 342.91 210.06 363.09 182.83 335.86 203 315.67 230.25 342.91" style="mix-blend-mode:multiply"></polygon><path fill="#a9afc4" d="M370.66,235.94l59.47-59.46-60.69-60.69L310,175.25a27.65,27.65,0,0,1-20.28,8.1l-40.22-1a27.69,27.69,0,0,0-20.28,8.1l-33,33.05,126.3,126.3,33.05-33a27.69,27.69,0,0,0,8.1-20.28l-1-40.22A27.68,27.68,0,0,1,370.66,235.94Z"></path><path fill="#a9afc4" d="M430.12,176.48l-59.45,59.46a27.64,27.64,0,0,0-8.1,20.28l1,40.22a27.6,27.6,0,0,1-8.1,20.27l-33.05,33.06L196.14,223.48l33.07-33.07a27.77,27.77,0,0,1,20.27-8.1l40.21,1A27.73,27.73,0,0,0,310,175.26l59.46-59.46Z"></path><rect width="44.85" height="122.73" x="393.21" y="68.92" fill="#a9afc4" rx="15.41" transform="rotate(-45 415.642 130.275)"></rect><rect width="21.36" height="85.82" x="381.55" y="110.78" fill="url(#b)" style="mix-blend-mode:multiply" transform="rotate(-45 392.223 153.696)"></rect><path fill="#5e6175" d="M93.26,460.94l-8.32-8.32a537.57,537.57,0,0,1,81.74-104.86L203,311.43l31.48,31.48L198.37,379A537.86,537.86,0,0,1,93.26,460.94Zm-.76-9.24,1.68,1.68a532.07,532.07,0,0,0,99.94-78.59L226,342.91l-23-23L170.92,352A532.26,532.26,0,0,0,92.5,451.7Z"></path><path fill="#5e6175" d="M281.26,398.17c0,.1,1.22,1.22-133.51-133.51a19.1,19.1,0,0,1,0-27l19.91-19.92a19.12,19.12,0,0,1,27,0L328.18,351.26a19.12,19.12,0,0,1,0,27l-19.92,19.91A19.07,19.07,0,0,1,281.26,398.17ZM171.9,222,152,241.9a13.1,13.1,0,0,0,0,18.52L285.5,393.93a13.09,13.09,0,0,0,18.52,0L323.93,374a13.1,13.1,0,0,0,0-18.52L190.42,222A13.1,13.1,0,0,0,171.9,222Z"></path><path fill="#5e6175" d="M322.45,354,191.91,223.47l35.17-35.17a30.84,30.84,0,0,1,22.48-9l40.22,1a24.74,24.74,0,0,0,18.08-7.22l61.58-61.58,64.93,64.93-61.58,61.58a24.75,24.75,0,0,0-7.22,18.08l1,40.22a30.83,30.83,0,0,1-9,22.48ZM200.39,223.47,322.45,345.53l30.93-30.94a24.79,24.79,0,0,0,7.22-18.08l-1-40.21a30.8,30.8,0,0,1,9-22.48l57.34-57.34L369.44,120,312.1,177.38a30.75,30.75,0,0,1-22.48,9l-40.22-1a24.78,24.78,0,0,0-18.08,7.22Z"></path><path fill="#5e6175" d="M430.16 180.75c0-.1 2.28 2.28-65-65a18.38 18.38 0 010-26l9.92-9.92a18.42 18.42 0 0126 0l65 65a18.39 18.39 0 010 26l-9.92 9.92A18.42 18.42 0 01430.16 180.75zm4.24-4.24a12.42 12.42 0 0017.55 0l9.92-9.92a12.4 12.4 0 000-17.55l-65-65a12.42 12.42 0 00-17.55 0L369.41 94a12.4 12.4 0 000 17.55C435.15 177.26 434.4 176.61 434.4 176.51zM413.28 389.82a16.12 16.12 0 1113.07-6.66A16.13 16.13 0 01413.28 389.82zm.07-26.22a10.11 10.11 0 00-6 18.29h0a10.1 10.1 0 106-18.29zM414.9 301.16a12.1 12.1 0 117.13-21.9C431.4 286.06 426.69 301.16 414.9 301.16zM410 285.48a6.1 6.1 0 108.51-1.36A6.11 6.11 0 00410 285.48z"></path><path fill="#e1830e" d="M238 115.8a28.66 28.66 0 0128.66 28.65 28.65 28.65 0 0128.65-28.65 28.66 28.66 0 01-28.65-28.66A28.66 28.66 0 01238 115.8zM95 328.6a20.64 20.64 0 0120.64 20.64 20.64 20.64 0 0120.65-20.64A20.65 20.65 0 01115.6 308 20.64 20.64 0 0195 328.6z"></path><path fill="#a9afc4" d="M458.82,111l-4.25-4.25,4.25-4.24,4.24,4.24ZM447.5,99.66l-4.24-4.24,4.24-4.24,4.25,4.24ZM436.19,88.35,432,84.11l4.24-4.25,4.24,4.25ZM424.88,77l-4.25-4.25,4.25-4.24,4.24,4.24Zm-68.42-2.75-4.25-4.24,4.25-4.24,4.24,4.24Zm57.17-8.45a37.51,37.51,0,0,0-4.35-3.41l3.32-5a39.74,39.74,0,0,1,5.08,4Zm-45.91-2.28-3.6-4.81a42.41,42.41,0,0,1,5.45-3.45l2.82,5.3A34.39,34.39,0,0,0,367.72,63.56ZM401,58.35A36.37,36.37,0,0,0,395.67,57l1.06-5.9A42.06,42.06,0,0,1,403,52.68Zm-20-1-1.37-5.84a41.5,41.5,0,0,1,6.38-1l.46,6A36,36,0,0,0,381,57.36Z"></path><rect width="440" height="6" x="36" y="455.6" fill="#5e6175"></rect></g></svg>