<svg xmlns="http://www.w3.org/2000/svg" xmlns:xlink="http://www.w3.org/1999/xlink" viewBox="0 0 512 512" id="rating-stars"><defs><linearGradient id="a" x1="75.55" x2="466.95" y1="156.31" y2="156.31" gradientUnits="userSpaceOnUse"><stop offset="0" stop-color="#cacfdd"></stop><stop offset="1" stop-color="#eef0f1"></stop></linearGradient><linearGradient xlink:href="#a" id="b" x1="215.39" x2="274.8" y1="210.21" y2="210.21"></linearGradient></defs><g><path fill="#dee1ec" d="M75.55,182.7V93.56A21.24,21.24,0,0,1,96.79,72.32H457.13a21.24,21.24,0,0,1,21.24,21.24V182.7a21.24,21.24,0,0,1-21.24,21.24H186.36l-22.78,24.94-22.79-24.94h-44A21.24,21.24,0,0,1,75.55,182.7Z"></path><path fill="#dee1ec" d="M478.36,93.56V182.7a21.24,21.24,0,0,1-21.23,21.23H186.36l-22.78,24.95-22.79-24.95h-44A21.24,21.24,0,0,1,75.55,182.7V93.56A21.24,21.24,0,0,1,96.79,72.33H457.13A21.23,21.23,0,0,1,478.36,93.56Z"></path><path fill="#5e6175" d="M163.58,233.33l-24.11-26.39H96.79A24.28,24.28,0,0,1,72.55,182.7V93.56A24.28,24.28,0,0,1,96.79,69.32H457.13a24.28,24.28,0,0,1,24.24,24.24V182.7a24.28,24.28,0,0,1-24.24,24.24H187.69Zm-66.79-158A18.26,18.26,0,0,0,78.55,93.56V182.7a18.26,18.26,0,0,0,18.24,18.24h45.33l21.46,23.49L185,200.94H457.13a18.26,18.26,0,0,0,18.24-18.24V93.56a18.27,18.27,0,0,0-18.24-18.24Z"></path><path fill="#f5f5f5" d="M48,210.3V121.16A21.23,21.23,0,0,1,69.19,99.93H429.53a21.22,21.22,0,0,1,21.23,21.23V210.3a21.23,21.23,0,0,1-21.23,21.24H144.75L122,256.48,99.18,231.54h-30A21.24,21.24,0,0,1,48,210.3Z"></path><path fill="url(#a)" d="M467,121.16v80.37a21.18,21.18,0,0,1-9.82,2.4H186.36l-22.78,24.95-22.79-24.95h-44A21.24,21.24,0,0,1,75.55,182.7V93.56A21,21,0,0,1,78,83.75H429.53A37.46,37.46,0,0,1,467,121.16Z" style="mix-blend-mode:multiply"></path><path fill="#f5f5f5" d="M450.77,121.16V210.3a21.24,21.24,0,0,1-21.24,21.24H144.75L122,256.48,99.18,231.54h-30A21.23,21.23,0,0,1,48,210.3V121.16A21.23,21.23,0,0,1,69.19,99.93H429.53A21.24,21.24,0,0,1,450.77,121.16Z"></path><polygon fill="#e1830e" points="96.75 157.59 104.9 170.86 120.04 174.51 109.94 186.37 111.14 201.89 96.75 195.95 82.36 201.89 83.56 186.37 73.46 174.51 88.6 170.86 96.75 157.59"></polygon><polygon fill="#e1830e" points="165.01 143.66 175.72 161.1 195.62 165.9 182.34 181.48 183.93 201.89 165.01 194.08 146.09 201.89 147.67 181.48 134.39 165.9 154.29 161.1 165.01 143.66"></polygon><polygon fill="#e1830e" points="401.18 157.59 393.03 170.86 377.89 174.51 387.99 186.37 386.79 201.89 401.18 195.95 415.57 201.89 414.37 186.37 424.47 174.51 409.33 170.86 401.18 157.59"></polygon><polygon fill="#e1830e" points="332.93 143.66 322.21 161.1 302.31 165.9 315.59 181.48 314 201.89 332.93 194.08 351.85 201.89 350.26 181.48 363.54 165.9 343.64 161.1 332.93 143.66"></polygon><polygon fill="#e1830e" points="249.01 121.16 263.87 145.34 291.45 152 273.05 173.6 275.24 201.89 249.01 191.06 222.78 201.89 224.98 173.6 206.57 152 234.16 145.34 249.01 121.16"></polygon><rect width="6" height="16.46" x="58.68" y="47.52" fill="#5e6175" transform="rotate(-45 61.691 55.747)"></rect><rect width="6" height="16.46" x="78.08" y="36.48" fill="#5e6175"></rect><rect width="16.46" height="6" x="41.97" y="71.15" fill="#5e6175"></rect><path fill="#5e6175" d="M122,260.93l-24.1-26.39H69.19A24.27,24.27,0,0,1,45,210.3V121.16A24.28,24.28,0,0,1,69.19,96.92H429.53a24.27,24.27,0,0,1,24.23,24.24V210.3a24.26,24.26,0,0,1-24.23,24.24H146.07Zm-52.77-158A18.26,18.26,0,0,0,51,121.16V210.3a18.26,18.26,0,0,0,18.24,18.24H100.5L122,252l21.47-23.49h286.1a18.26,18.26,0,0,0,18.23-18.24V121.16a18.26,18.26,0,0,0-18.23-18.24Z"></path><path fill="#dee1ec" d="M185.85,442.79a17.73,17.73,0,0,1,17.73-18.05h-9.52c-9.64,0-17.87-7.49-18.19-17.13a17.74,17.74,0,0,1,17.73-18.35h-7.5c-9.64,0-17.87-7.49-18.19-17.13a17.73,17.73,0,0,1,17.73-18.34h6.89a20.32,20.32,0,0,1,0-40.63h45.59a5.41,5.41,0,0,0,5-7.46l-9.51-23.29c-12.64-30.34-6.46-50.12,15.44-67.88l19.56,42.15a76,76,0,0,0,32.31,34.6c16.4,9,36.07,19.9,36.07,19.9V425.77l-45.19,25.4a72.82,72.82,0,0,1-35.72,9.36H203.58A17.73,17.73,0,0,1,185.85,442.79Z"></path><path fill="url(#b)" d="M274.8,231.54H215.39c4.36-10.71,12-20.23,23.48-29.58L255,188.89Z" style="mix-blend-mode:multiply"></path><path fill="#dee1ec" d="M185.85,442.79a17.73,17.73,0,0,1,17.73-18.05h-9.52c-9.64,0-17.87-7.49-18.19-17.13a17.74,17.74,0,0,1,17.73-18.35h-7.5c-9.64,0-17.87-7.49-18.19-17.13a17.73,17.73,0,0,1,17.73-18.34h6.89a20.32,20.32,0,0,1,0-40.63h45.59a5.41,5.41,0,0,0,5-7.46l-9.51-23.29c-12.64-30.34-6.46-50.12,15.44-67.88l19.56,42.15a76,76,0,0,0,32.31,34.6c16.4,9,36.07,19.9,36.07,19.9V425.77l-45.19,25.4a72.82,72.82,0,0,1-35.72,9.36H203.58A17.73,17.73,0,0,1,185.85,442.79Z"></path><path fill="#5e6175" d="M256.09,463.53H203.58a21,21,0,0,1-14.06-36.28,21.06,21.06,0,0,1-16.65-19.54A20.64,20.64,0,0,1,180,391.36a21,21,0,0,1-15.07-19.13,20.77,20.77,0,0,1,13.56-20.18,23.3,23.3,0,0,1,14.06-41.89h45.59a2.42,2.42,0,0,0,2.24-3.33l-9.51-23.28c-13.19-31.65-6.56-52.8,16.32-71.35l3-2.42,21.18,45.63a72.49,72.49,0,0,0,31,33.24C315.65,296,328,302.78,340,309.41V427.52l-46.72,26.27A76,76,0,0,1,256.09,463.53Zm-52.51-41.79v6a14.9,14.9,0,0,0,0,29.79h52.51a70,70,0,0,0,34.25-9L334,424V313c-4.95-2.74-20.87-11.53-34.52-19a78.59,78.59,0,0,1-33.58-36L248,219.35c-14.61,12.7-25.1,29.51-11.6,61.91l9.52,23.3a8.41,8.41,0,0,1-7.79,11.6H192.53a17.32,17.32,0,0,0,0,34.63h13.91v6h-20.8A14.72,14.72,0,0,0,170.91,372c.26,7.85,7.08,14.23,15.19,14.23h20.34v6H193.6a14.74,14.74,0,0,0-14.73,15.25c.26,7.85,7.08,14.23,15.19,14.23Z"></path><rect width="73.13" height="154.39" x="324.27" y="293.23" fill="#e1830e"></rect><rect width="73.14" height="154.38" x="324.26" y="293.23" fill="#e1830e"></rect><circle cx="362.59" cy="327.23" r="11.88" fill="#f5f5f5"></circle><path fill="#5e6175" d="M224.81,392.24H206.44v-6h18.37a14.73,14.73,0,0,0,0-29.45H206.44v-6h18.37a20.73,20.73,0,0,1,0,41.45Z"></path><path fill="#5e6175" d="M225.19 356.79H204.14v-6h21.05a17.32 17.32 0 000-34.63H204.14v-6h21.05a23.32 23.32 0 010 46.63zM224.81 427.68H203.58v-6h21.23a14.72 14.72 0 000-29.44H206.44v-6h18.37a20.72 20.72 0 010 41.44z"></path><path fill="#5e6175" d="M224.81 463.53H203.58v-6h21.23a14.93 14.93 0 000-29.85H203.58v-6h21.23a20.93 20.93 0 010 41.85zM300 369.64c-14.78 0-35.13-3.05-48.13-17.58-7.93-8.87-9.3-17.78-9.36-18.15l5.94-.88c.19 1.25 5.25 30.61 51.55 30.61zM81.09 376.36a12.14 12.14 0 01-11.51-15.93h0a12.11 12.11 0 1111.51 15.93zm0-18.22a6.11 6.11 0 00-5.79 4.18h0a6.11 6.11 0 105.79-4.18zM415.64 279.39a12.13 12.13 0 01-11.51-15.93h0a12.11 12.11 0 1111.51 15.93zm-5.82-14a6.11 6.11 0 107.72-3.87 6.12 6.12 0 00-7.72 3.87zM123.56 417.23A9.35 9.35 0 01114.69 405a9.22 9.22 0 014.67-5.4 9.33 9.33 0 114.2 17.67zm-3.17-10.38a3.32 3.32 0 104.2-2.11 3.33 3.33 0 00-4.2 2.11z"></path><path fill="#e1830e" d="M444,320.12a19,19,0,0,1,19,19,19,19,0,0,1,19-19,19,19,0,0,1-19-19A19,19,0,0,1,444,320.12Z"></path><path fill="#a9afc4" d="M153.69,372.68h-6v-6h6Zm-16.1,0a19.22,19.22,0,0,1-6.9-1.52l2.35-5.52a13.06,13.06,0,0,0,4.74,1Zm-15.75-9.11a19.35,19.35,0,0,1-2.55-6.59l5.9-1.1a13.26,13.26,0,0,0,1.75,4.53ZM125,346.43h-6v-6h6Zm0-16h-6v-6h6Zm0-16h-6v-6h6Zm0-16h-6v-6h6Zm0-16h-6v-6h6Z"></path></g></svg>