<svg xmlns="http://www.w3.org/2000/svg" xmlns:xlink="http://www.w3.org/1999/xlink" viewBox="0 0 512 512" id="report-statement"><defs><linearGradient id="a" x1="137.78" x2="137.78" y1="397.12" y2="441.37" gradientUnits="userSpaceOnUse"><stop offset="0" stop-color="#cacfdd"></stop><stop offset="1" stop-color="#eef0f1"></stop></linearGradient><linearGradient xlink:href="#a" id="b" x1="290.84" x2="362.03" y1="97.31" y2="97.31"></linearGradient><linearGradient xlink:href="#a" id="c" x1="313.57" x2="313.57" y1="269.86" y2="467.64"></linearGradient></defs><g style="isolation:isolate"><polygon fill="#f5f5f5" points="362.02 112.65 362.02 437.31 92.21 437.31 92.21 62.2 311.02 62.2 362.02 112.65"></polygon><rect width="21.38" height="21.03" x="127.09" y="330.45" fill="url(#a)" style="mix-blend-mode:multiply"></rect><rect width="21.38" height="21.03" x="127.09" y="374.61" fill="url(#a)" style="mix-blend-mode:multiply"></rect><polygon fill="url(#b)" points="362.02 112.65 362.02 132.42 290.84 132.42 290.84 62.2 311.02 62.2 362.02 112.65" style="mix-blend-mode:multiply"></polygon><path fill="url(#c)" d="M362,345V291a96.88,96.88,0,0,0-83.36,146.29H362v-6.43A42.95,42.95,0,1,1,362,345Z" style="mix-blend-mode:multiply"></path><path fill="#5e6175" d="M365,440.31H89.21V59.19H312.26L365,111.4Zm-269.81-6H359V113.9L309.79,65.19H95.21Z"></path><polygon fill="#f5f5f5" points="362.02 112.65 362.02 117.45 305.81 117.45 305.81 62.2 311.03 62.2 362.02 112.65"></polygon><path fill="#5e6175" d="M365 120.45H302.81V59.19h9.45L365 111.4zm-56.21-6H359v-.55L309.79 65.19h-1zM140 106.05a12.64 12.64 0 01-12.63-12.62V76.35h6V93.43a6.63 6.63 0 0013.25 0V45.62a6.63 6.63 0 00-13.25 0V62.19h-6V45.62a12.63 12.63 0 0125.25 0V93.43A12.63 12.63 0 01140 106.05z"></path><rect width="78.48" height="6" x="170.96" y="337.97" fill="#5e6175"></rect><path fill="#5e6175" d="M151.47 354.48H124.09v-27h27.38zm-21.38-6h15.38v-15H130.09zM151.47 398.64H124.09v-27h27.38zm-21.38-6h15.38v-15H130.09z"></path><rect width="78.48" height="6" x="170.96" y="382.13" fill="#5e6175"></rect><rect width="204.79" height="6" x="127.09" y="286.33" fill="#5e6175"></rect><rect width="35.17" height="95.79" x="210.93" y="193.54" fill="#dee1ec"></rect><path fill="#5e6175" d="M249.1,292.33H207.93V190.54H249.1Zm-35.17-6H243.1V196.54H213.93Z"></path><rect width="35.17" height="138.53" x="272.93" y="150.81" fill="#e1830e"></rect><path fill="#5e6175" d="M311.09,292.33H269.93V147.81h41.16Zm-35.16-6h29.16V153.81H275.93Z"></path><rect width="35.17" height="55.47" x="148.47" y="233.87" fill="#a9afc4"></rect><path fill="#5e6175" d="M186.64,292.33H145.47V230.87h41.17Zm-35.17-6h29.17V236.87H151.47Z"></path><path fill="#a9afc4" d="M72.87,129.73h-6v-6h6Zm0-16h-6v-6h6Zm0-16h-6v-6h6Zm0-16h-6v-6h6Zm0-16h-6c0-4.64,0-5.26,0-6.13l6,.26C72.86,60.51,72.87,60.73,72.87,65.73Zm2.25-14.18-5.31-2.79a25.75,25.75,0,0,1,3.91-5.53l4.4,4.08A20,20,0,0,0,75.12,51.55Zm10.09-9.13L83,36.85a25.63,25.63,0,0,1,6.56-1.68l.71,5.95A19.74,19.74,0,0,0,85.21,42.42ZM105.87,41h-6V35h6Z"></path><circle cx="362.02" cy="387.93" r="57.94" fill="#f5f5f5"></circle><path fill="#e1830e" d="M362,306A81.95,81.95,0,1,0,444,387.93,81.95,81.95,0,0,0,362,306Zm0,139.86a57.92,57.92,0,1,1,57.91-57.92A57.92,57.92,0,0,1,362,445.85Z"></path><path fill="#5e6175" d="M362,472.88A84.95,84.95,0,1,1,447,387.93,85,85,0,0,1,362,472.88ZM362,309A78.95,78.95,0,1,0,441,387.93,79,79,0,0,0,362,309Zm0,139.86a60.92,60.92,0,1,1,60.91-60.92A61,61,0,0,1,362,448.85ZM362,333a54.92,54.92,0,1,0,54.91,54.91A55,55,0,0,0,362,333Z"></path><path fill="#e1830e" d="M362,421.68a20,20,0,0,1-20-20h12.53A7.48,7.48,0,1,0,362,394.2a20,20,0,1,1,20-20H369.49a7.48,7.48,0,1,0-7.48,7.47,20,20,0,1,1,0,40Z"></path><rect width="12.54" height="12.51" x="355.75" y="347.95" fill="#e1830e"></rect><rect width="12.54" height="12.51" x="355.75" y="415.42" fill="#e1830e"></rect><path fill="#5e6175" d="M389.08 276.61h0a11.57 11.57 0 0110.57-12.5c10.19-.85 16.47 11.15 9.81 19A11.59 11.59 0 01389.08 276.61zm11.54-6.54a5.58 5.58 0 00-5.56 6h0a5.58 5.58 0 105.56-6zM454.4 335.21a9 9 0 118.93-9.69A9 9 0 01454.4 335.21zm0-11.9a3 3 0 00-2.95 3.19h0a3 3 0 102.95-3.19z"></path><rect width="19.48" height="6" x="65.23" y="450.2" fill="#5e6175" transform="rotate(-45 74.965 453.208)"></rect><rect width="6" height="19.48" x="94.91" y="456.52" fill="#5e6175"></rect><rect width="19.48" height="6" x="51.64" y="428.44" fill="#5e6175"></rect></g></svg>