<svg xmlns="http://www.w3.org/2000/svg" xmlns:xlink="http://www.w3.org/1999/xlink" viewBox="0 0 512 512" id="robotic-process-automation"><defs><linearGradient id="a" x1="188.56" x2="265.9" y1="313.58" y2="313.58" gradientTransform="rotate(45 227.23 313.582)" gradientUnits="userSpaceOnUse"><stop offset="0" stop-color="#cacfdd"></stop><stop offset="1" stop-color="#eef0f1"></stop></linearGradient><linearGradient xlink:href="#a" id="b" x1="362.01" x2="428.36" y1="311.66" y2="311.66"></linearGradient><linearGradient xlink:href="#a" id="c" x1="358.41" x2="328.98" y1="273.53" y2="244.1"></linearGradient><linearGradient xlink:href="#a" id="d" x1="262.15" x2="350.33" y1="235.46" y2="235.46"></linearGradient><linearGradient xlink:href="#a" id="e" x1="408.43" x2="408.43" y1="358.18" y2="412.8"></linearGradient></defs><g style="isolation:isolate"><path fill="#dee1ec" d="M200.47,274.91l-19.61,19.62v44.61l-20.78,20.78,20.81,20.82L201.67,360h44.61l19.62-19.62Z"></path><rect width="16.85" height="92.52" x="218.8" y="267.32" fill="url(#a)" style="mix-blend-mode:multiply" transform="rotate(-45 227.229 313.579)"></rect><path fill="#a9afc4" d="M428.36,312l-31.44,31.43L304.41,251a22.23,22.23,0,1,1,31.45-31.44Z"></path><path fill="url(#b)" d="M428.36,312l-31.44,31.43L362,308.57a50.85,50.85,0,0,1,34.16-28.72Z" style="mix-blend-mode:multiply"></path><path fill="url(#c)" d="M361.47,245.15a36.8,36.8,0,0,1-10.47,21l-15.72,15.72L304.41,251a22.23,22.23,0,1,1,31.45-31.44Z" style="mix-blend-mode:multiply"></path><path fill="#5e6175" d="M396.91,347.72l-94.62-94.63A25.23,25.23,0,1,1,338,217.41L432.6,312ZM320.13,216a19.23,19.23,0,0,0-13.6,32.82l90.38,90.38L424.12,312l-90.39-90.39A19.16,19.16,0,0,0,320.13,216Z"></path><path fill="#dee1ec" d="M339.48,254.6,279.06,315l-52.39-52.38,60.42-60.43a37,37,0,0,1,52.39,52.39Z"></path><path fill="url(#d)" d="M339.48,254.6l-24.94,24.94a51.16,51.16,0,0,1-52.38-52.4l24.93-24.93a37,37,0,0,1,52.39,52.39Z" style="mix-blend-mode:multiply"></path><path fill="#dee1ec" d="M445.47,329.12v97.56H371.39V329.12a37,37,0,1,1,74.08,0Z"></path><path fill="url(#e)" d="M445.47,329.12v36.31a51.86,51.86,0,0,1-74.08,0V329.12a37,37,0,1,1,74.08,0Z" style="mix-blend-mode:multiply"></path><rect width="29.4" height="6" x="145.39" y="380.67" fill="#5e6175" transform="rotate(-45 160.082 383.672)"></rect><path fill="#5e6175" d="M272.89,351.57l-83.65-83.65,23.47-23.48,83.65,83.65Zm-75.16-83.65,75.16,75.16,15-15-75.17-75.16Z"></path><circle cx="313.29" cy="228.41" r="37.04" fill="#e1830e"></circle><circle cx="313.29" cy="228.41" r="14.02" fill="#f5f5f5"></circle><path fill="#5e6175" d="M180.88 385l-25-25.06 22-22V293.29l22.61-22.62 69.67 69.66L247.52 363H202.91zm-16.57-25.06l16.57 16.57L200.42 357H245l16.62-16.62-61.19-61.18-16.61 16.62v44.61zM279.05 319.27l-56.63-56.63L285 200.09a40 40 0 0156.63 56.63zm-48.14-56.63l48.14 48.14 58.31-58.3a34 34 0 00-48.15-48.15zM448.47 429.68H368.39V329.12a40 40 0 0180.08 0zm-74.08-6h68.08V329.12a34 34 0 00-68.08 0z"></path><path fill="#5e6175" d="M408.43,369.16a40,40,0,1,1,40-40A40,40,0,0,1,408.43,369.16Zm0-74.08a34,34,0,1,0,34,34A34.08,34.08,0,0,0,408.43,295.08Z"></path><circle cx="408.43" cy="329.12" r="37.04" fill="#e1830e" transform="rotate(-67.75 408.454 329.12)"></circle><circle cx="408.43" cy="329.12" r="13.96" fill="#f5f5f5" transform="rotate(-67.75 408.454 329.12)"></circle><path fill="#5e6175" d="M285 256.72a40 40 0 1156.63 0h0A40.09 40.09 0 01285 256.72zm4.24-52.39a34 34 0 1048.15 48.15h0a34 34 0 00-48.15-48.15zM408.43 369.16a40 40 0 1140-40A40 40 0 01408.43 369.16zm0-74.08a34 34 0 1034 34A34.09 34.09 0 00408.44 295.08z"></path><path fill="#a9afc4" d="M134.51,474.1H71.59a22.74,22.74,0,0,1-22.74-22.74V440.73h108.4v10.63A22.74,22.74,0,0,1,134.51,474.1Z"></path><path fill="#5e6175" d="M134.51 477.1H71.59a25.77 25.77 0 01-25.74-25.74V437.73h114.4v13.63A25.77 25.77 0 01134.51 477.1zM51.85 443.73v7.63A19.77 19.77 0 0071.59 471.1h62.92a19.77 19.77 0 0019.74-19.74v-7.63zM465.41 476.88H351V423.46h114.4zm-108.4-6h102.4V429.46H357z"></path><rect width="27.2" height="112.3" x="229.2" y="241.86" fill="#5e6175" transform="rotate(-45 242.8 298.01)"></rect><rect width="108.39" height="47.42" x="354.01" y="426.46" fill="#5e6175"></rect><rect width="67.27" height="37.05" x="68.75" y="403.68" fill="#dee1ec"></rect><path fill="#5e6175" d="M139,443.73H65.75V400.68H139Zm-67.27-6H133V406.68H71.75Z"></path><rect width="440" height="6" x="36" y="471.1" fill="#5e6175"></rect><rect width="6" height="21.61" x="129.74" y="359.12" fill="#5e6175"></rect><rect width="20.18" height="6" x="163.1" y="407.88" fill="#5e6175"></rect><path fill="#5e6175" d="M116.2 208.08a11.79 11.79 0 01-8.47-20c7.22-7.47 20.07-2.56 20.25 8h0A11.77 11.77 0 01116.2 208.08zM112 192.29A5.78 5.78 0 10122 196.2h0A5.79 5.79 0 00112 192.29zM68.65 157.33a9.1 9.1 0 119.09-9.25h0A9.09 9.09 0 0168.65 157.33zm-2.23-11.24a3.09 3.09 0 105.32 2.09h0A3.1 3.1 0 0066.42 146.09z"></path><path fill="#f5f5f5" d="M395.5,37.9H125.91A19.12,19.12,0,0,0,106.8,57v87.56a19.12,19.12,0,0,0,19.11,19.12h49.43l30.77,30.77V163.7H395.5a19.12,19.12,0,0,0,19.11-19.12V57A19.12,19.12,0,0,0,395.5,37.9Z"></path><path fill="#5e6175" d="M209.11,201.71l-35-35H125.92a22.14,22.14,0,0,1-22.12-22.12V57A22.14,22.14,0,0,1,125.92,34.9H395.5A22.14,22.14,0,0,1,417.61,57v87.56A22.14,22.14,0,0,1,395.5,166.7H209.11ZM125.92,40.9A16.14,16.14,0,0,0,109.8,57v87.56a16.14,16.14,0,0,0,16.12,16.12h50.66l26.53,26.52V160.7H395.5a16.13,16.13,0,0,0,16.11-16.12V57A16.13,16.13,0,0,0,395.5,40.9Z"></path><path fill="#e1830e" d="M191.13 142.18h7.7V128.6a11.26 11.26 0 007.93-7.94h13.58V113H207.16v-9.34h13.18v-7.7H207.16V86.58h13.18v-7.7H206.76a11.26 11.26 0 00-7.93-7.94V57.37h-7.71V70.55h-9.33V57.37h-7.71V70.55h-9.33V57.37H157V70.94a11.26 11.26 0 00-7.93 7.94H135.53v7.7h13.18v9.34H135.53v7.7h13.18V113H135.53v7.7h13.58A11.26 11.26 0 00157 128.6v13.58h7.71V129h9.33v13.19h7.71V129h9.33zM325.76 99.64a7.19 7.19 0 01-6.45 6.88A25.53 25.53 0 00325 117.17a7.28 7.28 0 019.36-1.47 7.13 7.13 0 012.8 9 25.65 25.65 0 0012.17.42 7.14 7.14 0 013.38-8.77 7.28 7.28 0 019.24 2.1 25.14 25.14 0 006.43-10.25A7.15 7.15 0 01368.91 94a25.74 25.74 0 00-5.73-10.66 7.28 7.28 0 01-9.36 1.47 7.12 7.12 0 01-2.79-9 26.4 26.4 0 00-12.18-.42 7.14 7.14 0 01-3.38 8.77 7.28 7.28 0 01-9.24-2.1 25.31 25.31 0 00-6.43 10.25A7.19 7.19 0 01325.76 99.64zm19.9-8.81a9.62 9.62 0 016.95 4.94 9.51 9.51 0 01-4 12.92 9.69 9.69 0 01-13-3.94A9.57 9.57 0 01345.66 90.83z"></path><path fill="#e1830e" d="M342.63,142.12a41.9,41.9,0,0,1-39-30.91l5.37-1.45a36.31,36.31,0,1,0,.72-21.34l-5.26-1.81a41.88,41.88,0,1,1,38.18,55.51Z"></path><polygon fill="#e1830e" points="300.58 84.31 314.29 88.9 304.65 94.77 300.58 84.31"></polygon><rect width="33.96" height="7.7" x="244.63" y="95.92" fill="#e1830e"></rect><rect width="7.7" height="33.96" x="257.76" y="82.79" fill="#e1830e"></rect><path fill="#a9afc4" d="M472.58,385.51h-6v-6h6Zm0-16h-6v-6h6Zm0-16h-6v-6h6Zm0-16h-6v-6h6Zm-6-15.92a43,43,0,0,0-.53-5.58l5.92-1a49.47,49.47,0,0,1,.61,6.35Zm-3-14.56a48,48,0,0,0-2.41-5.09l5.26-2.88a51,51,0,0,1,2.72,5.75Zm-7.71-12.9a56.16,56.16,0,0,0-3.83-4.24l4.26-4.23c1.49,1.5,2.91,3.07,4.22,4.67Zm-11.05-10.48a47.25,47.25,0,0,0-4.68-3.08l2.86-5.28a52.2,52.2,0,0,1,5.38,3.54Z"></path></g></svg>