<svg xmlns="http://www.w3.org/2000/svg" xmlns:xlink="http://www.w3.org/1999/xlink" viewBox="0 0 512 512" id="romantic-dinner"><defs><linearGradient id="a" x1="404.24" x2="439.74" y1="370.44" y2="370.44" gradientUnits="userSpaceOnUse"><stop offset="0" stop-color="#cacfdd"></stop><stop offset="1" stop-color="#eef0f1"></stop></linearGradient><linearGradient xlink:href="#a" id="b" x1="57.86" x2="93.31" y1="370.9" y2="370.9"></linearGradient><linearGradient xlink:href="#a" id="c" x1="66.05" x2="90.27" y1="223.52" y2="223.52"></linearGradient><linearGradient xlink:href="#a" id="d" x1="405.33" x2="429.55" y1="223.52" y2="223.52"></linearGradient><linearGradient xlink:href="#a" id="e" x1="288.68" x2="327.64" y1="265.83" y2="265.83"></linearGradient><linearGradient xlink:href="#a" id="f" x1="339.26" x2="339.26" y1="190.54" y2="216.75"></linearGradient></defs><g style="isolation:isolate"><rect width="35.46" height="113.49" x="404.28" y="339.69" fill="#e1830e"></rect><path fill="url(#a)" d="M439.74,339.69v61.5c-2.93-1.31-.95-.24-35.45-20.81-.1.1,0,.46,0-40.69Z" style="mix-blend-mode:multiply"></path><rect width="35.45" height="113.5" x="57.86" y="339.69" fill="#e1830e"></rect><path fill="url(#b)" d="M57.86,339.69H93.31V380.4c-29.89,19.18-30.09,19.65-35.45,21.72Z" style="mix-blend-mode:multiply"></path><polygon fill="#5e6175" points="96.31 453.18 90.31 453.18 90.31 342.69 60.85 342.69 60.85 453.18 54.85 453.18 54.85 336.69 96.31 336.69 96.31 453.18"></polygon><polygon fill="#5e6175" points="442.74 453.18 436.74 453.18 436.74 342.69 407.28 342.69 407.28 453.18 401.28 453.18 401.28 336.69 442.74 336.69 442.74 453.18"></polygon><path fill="#f5f5f5" d="M104.55,202.83l-4.72-60H57.42l-4.72,60a16,16,0,0,0,16,17.12h19.9A16,16,0,0,0,104.55,202.83Z"></path><path fill="#5e6175" d="M88.57,223H68.67a19,19,0,0,1-19-20.33l4.94-62.81h48l4.94,62.81A19,19,0,0,1,88.57,223ZM60.19,145.81l-4.5,57.25a13,13,0,0,0,13,13.89h19.9a13,13,0,0,0,13-13.9l-4.51-57.24Z"></path><path fill="#f5f5f5" d="M84.3,263.68V234c0-9.89,6-14.27,6-14.27H66.05s6,4.38,6,14.27v29.67l-9.09,7.18v3.21H93.39v-3.21Z"></path><path fill="url(#c)" d="M90.27,219.74a15.93,15.93,0,0,0-4.93,7.57H71a15.93,15.93,0,0,0-4.93-7.57Z" style="mix-blend-mode:multiply"></path><path fill="#5e6175" d="M96.39,277.07H59.92v-7.66l9.1-7.18V234c0-8.15-4.69-11.82-4.74-11.86l-7.38-5.41H99.42L92,222.15c-.17.14-4.74,3.74-4.74,11.86v28.22l9.09,7.18Zm-28.89-6H88.82l-7.52-5.93V234a23.05,23.05,0,0,1,2.76-11.27H72.26A23.05,23.05,0,0,1,75,234v31.13Z"></path><path fill="#f5f5f5" d="M443.83,202.83l-4.72-60H396.7l-4.72,60A16,16,0,0,0,408,220h19.9A16,16,0,0,0,443.83,202.83Z"></path><path fill="#5e6175" d="M427.85,223H408a19,19,0,0,1-19-20.33l4.94-62.81h48l4.94,62.81A19,19,0,0,1,427.85,223Zm-28.38-77.14L395,203.06A13,13,0,0,0,408,217h19.9a13,13,0,0,0,13-13.9l-4.51-57.24Z"></path><path fill="#f5f5f5" d="M423.58,263.68V234c0-9.89,6-14.27,6-14.27H405.33s6,4.38,6,14.27v29.67l-9.09,7.18v3.21h30.46v-3.21Z"></path><path fill="url(#d)" d="M429.55,219.74a15.93,15.93,0,0,0-4.93,7.57H410.26a15.93,15.93,0,0,0-4.93-7.57Z" style="mix-blend-mode:multiply"></path><path fill="#5e6175" d="M435.67,277.07H399.21v-7.66l9.09-7.18V234c0-8.15-4.69-11.82-4.74-11.86l-7.38-5.41H438.7l-7.38,5.41c-.17.14-4.74,3.74-4.74,11.86v28.22l9.09,7.18Zm-28.89-6H428.1l-7.52-5.93V234a23.05,23.05,0,0,1,2.76-11.27h-11.8A23.05,23.05,0,0,1,414.3,234v31.13Z"></path><path fill="#f5f5f5" d="M464,300V385.9h-6.45a43.14,43.14,0,0,1-22.08-6.08l-31.15-18.58-27.77,17.83a43.12,43.12,0,0,1-45.38.75L300,361.24l-27.78,17.83a43.12,43.12,0,0,1-45.38.75l-31.15-18.58-27.76,17.83a43.44,43.44,0,0,1-46.8,0L93.35,361.24,65.57,379.07a43.11,43.11,0,0,1-23.29,6.83H36V300a25.91,25.91,0,0,1,25.91-25.9H438.07A25.89,25.89,0,0,1,464,300Z"></path><path fill="#5e6175" d="M464,339.69v14.79h-6.45a43.12,43.12,0,0,1-22.08-6.09l-31.15-18.57-27.77,17.82a43.49,43.49,0,0,1-45.38.75L300,329.82l-27.78,17.82a43.46,43.46,0,0,1-45.38.75l-31.15-18.57-27.76,17.82a43.79,43.79,0,0,1-46.81,0L93.35,329.82,65.57,347.64a43,43,0,0,1-23.29,6.84H36V339.69h6.28a43.11,43.11,0,0,0,23.29-6.83L93.35,315l27.76,17.83a43.75,43.75,0,0,0,46.81,0L195.68,315l31.15,18.58a43.51,43.51,0,0,0,45.38-.74L300,315l31.15,18.58a43.49,43.49,0,0,0,45.38-.75L404.29,315l31.15,18.58a43.12,43.12,0,0,0,22.08,6.09Z"></path><path fill="#5e6175" d="M467,388.9h-9.45a46.12,46.12,0,0,1-23.62-6.51l-29.55-17.62-26.21,16.82a46.12,46.12,0,0,1-48.54.81l-29.55-17.63L273.83,381.6a46.12,46.12,0,0,1-48.53.8l-29.56-17.63-26.2,16.82a46.42,46.42,0,0,1-50,0L93.35,364.81,67.19,381.6a46,46,0,0,1-24.91,7.3H33V300a28.94,28.94,0,0,1,28.91-28.9H438.07A28.92,28.92,0,0,1,467,300Zm-62.74-31.19L437,377.24a40.11,40.11,0,0,0,20.55,5.66H461V300a22.92,22.92,0,0,0-22.9-22.89H61.91A22.93,22.93,0,0,0,39,300V382.9h3.28A40,40,0,0,0,64,376.55l29.4-18.88,29.39,18.87a40.41,40.41,0,0,0,43.55,0l29.34-18.83,32.74,19.53a40.12,40.12,0,0,0,42.22-.69l29.34-18.84,32.75,19.53a40.1,40.1,0,0,0,42.22-.7Z"></path><path fill="#dee1ec" d="M327.64,265.81a8.27,8.27,0,0,1-8.27,8.27H133.27a8.27,8.27,0,0,1,0-16.54c132.29,0,186.09,0,187,0A8.27,8.27,0,0,1,327.64,265.81Z"></path><path fill="url(#e)" d="M327.64,265.81a8.27,8.27,0,0,1-8.27,8.27H296.92a8.25,8.25,0,0,1,0-16.5h23.3A8.27,8.27,0,0,1,327.64,265.81Z" style="mix-blend-mode:multiply"></path><path fill="#5e6175" d="M319.38,277.07H133.27a11.27,11.27,0,1,1,0-22.53H319.38a11.27,11.27,0,0,1,0,22.53ZM133.27,260.54a5.27,5.27,0,1,0,0,10.53H319.38a5.27,5.27,0,0,0,0-10.53Z"></path><path fill="#dee1ec" d="M243.13,192.09H200a65.45,65.45,0,0,0-65.45,65.45c0,.1-4.21,0,174,0A65.45,65.45,0,0,0,243.13,192.09Z"></path><path fill="#5e6175" d="M311.57,260.54h-180v-3A68.53,68.53,0,0,1,200,189.09h43.09a68.52,68.52,0,0,1,68.44,68.45Zm-173.91-6H305.5a62.53,62.53,0,0,0-62.37-59.45H200A62.53,62.53,0,0,0,137.66,254.54Z"></path><circle cx="221.58" cy="183.02" r="9.11" fill="#5e6175"></circle><path fill="#5e6175" d="M221.58,195.13A12.11,12.11,0,1,1,233.7,183,12.12,12.12,0,0,1,221.58,195.13Zm0-18.22A6.11,6.11,0,1,0,227.7,183,6.12,6.12,0,0,0,221.58,176.91Z"></path><path fill="#a9afc4" d="M258.2,410.3h-3.31v-6h3.31ZM244.63,410c-2.08-.18-4.17-.46-6.22-.84l1.09-5.9c1.86.34,3.77.6,5.66.77Zm-16.33-3.53c-2-.69-3.92-1.48-5.82-2.35l2.51-5.45c1.73.79,3.51,1.51,5.3,2.14Zm-14.88-7.38-5.1-3.17,3.17-5.09,5.1,3.17Zm-31.88-2.9-3.46-4.9a29.12,29.12,0,0,1,5.84-3.21l2.27,5.55A23.15,23.15,0,0,0,181.54,396.23Zm18.57-3.77a23.79,23.79,0,0,0-5.28-.54l-.06-6a29.6,29.6,0,0,1,6.62.68Z"></path><path fill="#e1830e" d="M339.26,58.82l-6.07,7.64a27.62,27.62,0,0,0-6,17.16,12.22,12.22,0,0,0,11.71,12.3,12,12,0,0,0,12.38-12,27.59,27.59,0,0,0-6-17.41Z"></path><path fill="#a9afc4" d="M310.83,257.58h56.85a8.25,8.25,0,1,1,0,16.49H310.83a8.25,8.25,0,1,1,0-16.49Z"></path><path fill="#a9afc4" d="M313.74,189.83c0,5.84,13.5,12,13.5,18.26v49.49h24V206.89c0-6.21,13.5-11.08,13.5-17.06Z"></path><path fill="url(#f)" d="M364.77,189.83c0,5.8-12.69,10.54-13.47,16.5H326.91c-2.1-5.63-13.16-11.21-13.16-16.5Z" style="mix-blend-mode:multiply"></path><path fill="#5e6175" d="M367.68,277.07H310.83a11.25,11.25,0,1,1,0-22.49h56.85a11.25,11.25,0,1,1,0,22.49Zm-56.85-16.49a5.25,5.25,0,1,0,0,10.49h56.85a5.25,5.25,0,1,0,0-10.49Z"></path><path fill="#5e6175" d="M354.27,260.58h-30V208.09c0-1.82-3.42-4.92-5.92-7.19-3.72-3.37-7.58-6.87-7.58-11.07v-3h57v3c0,4.39-3.95,7.59-7.76,10.69-2.56,2.08-5.74,4.66-5.74,6.37Zm-24-6h18V206.89c0-6.08,7.21-9.91,11.48-14.06H318.58c4.22,4.61,11.66,9.17,11.66,15.26Z"></path><rect width="21.82" height="81.15" x="328.35" y="108.68" fill="#f5f5f5"></rect><path fill="#5e6175" d="M353.17,192.83H325.34V105.68h27.83Zm-21.83-6h15.83V111.68H331.34Z"></path><rect width="6" height="25.52" x="336.26" y="83.16" fill="#5e6175"></rect><path fill="#5e6175" d="M76.38 110.41A10.65 10.65 0 1185.7 94.65 10.67 10.67 0 0176.38 110.41zm-4.49-12a4.65 4.65 0 108.55-.92A4.67 4.67 0 0071.89 98.45zM130.34 147.24a8.31 8.31 0 01-8-10.64 8.21 8.21 0 014-5h0a8.31 8.31 0 114 15.6zm-1.13-10.34a2.31 2.31 0 103.33 2.69 2.31 2.31 0 00-3.33-2.69z"></path><rect width="18.31" height="6" x="444.92" y="123.21" fill="#5e6175" transform="rotate(-45 454.068 126.21)"></rect><rect width="6" height="18.31" x="429.5" y="104.77" fill="#5e6175"></rect><rect width="18.31" height="6" x="457.69" y="143.67" fill="#5e6175"></rect></g></svg>