<svg xmlns="http://www.w3.org/2000/svg" xmlns:xlink="http://www.w3.org/1999/xlink" viewBox="0 0 512 512" id="scale-weight"><defs><linearGradient id="a" x1="248.83" x2="248.83" y1="296.93" y2="34.88" gradientUnits="userSpaceOnUse"><stop offset="0" stop-color="#cacfdd"></stop><stop offset="1" stop-color="#eef0f1"></stop></linearGradient><linearGradient xlink:href="#a" id="b" x1="295.92" x2="360.27" y1="180.34" y2="180.34"></linearGradient><linearGradient xlink:href="#a" id="c" x1="219.26" x2="278.39" y1="312.33" y2="312.33"></linearGradient></defs><g><rect width="352.57" height="18.43" x="72.54" y="282.86" fill="#5e6175"></rect><path fill="#5e6175" d="M428.11,304.29H69.54V279.86H428.11Zm-352.57-6H422.11V285.86H75.54Z"></path><path fill="url(#a)" d="M137.38,75.61v207.5H360.27V75.61Z"></path><path fill="url(#b)" d="M360.27,104.3V256.39a37.37,37.37,0,0,1-30.82-36.74l.1-18.78-33.63-23.58,33.59-23.14-.06-13A37.4,37.4,0,0,1,360.27,104.3Z" style="mix-blend-mode:multiply"></path><rect width="59.13" height="44.15" x="219.26" y="301.29" fill="#a9afc4"></rect><rect width="59.13" height="22.07" x="219.26" y="301.29" fill="url(#c)" style="mix-blend-mode:multiply"></rect><path fill="#5e6175" d="M363.27,286.12H134.38V72.61H363.27Zm-222.89-6H357.27V78.61H140.38Z"></path><polygon fill="#e08326" points="219.19 75.62 219.19 130.74 229.08 123.74 238.98 130.74 248.86 123.74 258.72 130.74 268.61 123.74 278.46 130.74 278.46 75.62 219.19 75.62"></polygon><rect width="55.48" height="22.26" x="166.29" y="240.22" fill="#5e6175"></rect><path fill="#f5f5f5" d="M152.41,345.44H345.24a32.43,32.43,0,0,1,32.43,32.43v77.08a0,0,0,0,1,0,0H120a0,0,0,0,1,0,0V377.87A32.43,32.43,0,0,1,152.41,345.44Z"></path><path fill="#5e6175" d="M380.67,457.94H117V377.87a35.47,35.47,0,0,1,35.43-35.43H345.24a35.47,35.47,0,0,1,35.43,35.43Zm-257.69-6H374.67V377.87a29.46,29.46,0,0,0-29.43-29.43H152.41A29.47,29.47,0,0,0,123,377.87Z"></path><path fill="#5e6175" d="M281.39,348.44H216.26V298.29h65.13Zm-59.13-6h53.13V304.29H222.26Z"></path><rect width="212.47" height="18.24" x="142.59" y="454.94" fill="#a9afc4"></rect><path fill="#5e6175" d="M358.06,476.18H139.59V451.94H358.06Zm-212.47-6H352.06V457.94H145.59Z"></path><rect width="293.81" height="6" x="104.07" y="470.18" fill="#5e6175"></rect><path fill="#5e6175" d="M363.27,286.11H134.38V72.61H363.27Zm-222.89-6H357.27V78.61H140.38Z"></path><rect width="71.73" height="71.73" x="212.96" y="364.33" fill="#e08326" rx="19.78"></rect><line x1="248.83" x2="248.83" y1="364.33" y2="374.74" fill="none" stroke="#f5f5f5" stroke-miterlimit="10" stroke-width="7"></line><line x1="248.83" x2="248.83" y1="425.64" y2="436.06" fill="none" stroke="#f5f5f5" stroke-miterlimit="10" stroke-width="7"></line><line x1="284.69" x2="274.28" y1="400.19" y2="400.19" fill="none" stroke="#f5f5f5" stroke-miterlimit="10" stroke-width="7"></line><line x1="223.38" x2="212.96" y1="400.19" y2="400.19" fill="none" stroke="#f5f5f5" stroke-miterlimit="10" stroke-width="7"></line><path fill="#f5f5f5" d="M262,410.32a107.17,107.17,0,0,0-10-12.13,4,4,0,1,0-5.56,5.61c7.27,6.52,12.86,9.89,22,15.95l.13-.14Z"></path><path fill="#5e6175" d="M264.92,439.06H232.74A22.81,22.81,0,0,1,210,416.28V384.1a22.8,22.8,0,0,1,22.78-22.77h32.18a22.79,22.79,0,0,1,22.77,22.77v32.18A22.8,22.8,0,0,1,264.92,439.06Zm-32.18-71.73A16.79,16.79,0,0,0,216,384.1v32.18a16.8,16.8,0,0,0,16.78,16.78h32.18a16.79,16.79,0,0,0,16.77-16.78V384.1a16.79,16.79,0,0,0-16.77-16.77Z"></path><rect width="16.08" height="6" x="371.18" y="54.64" fill="#5e6175" transform="rotate(-44.99 379.243 57.627)"></rect><rect width="6" height="16.08" x="357.27" y="38.82" fill="#5e6175"></rect><rect width="16.08" height="6" x="382.39" y="72.61" fill="#5e6175"></rect><path fill="#5e6175" d="M72.84 259.14a10.91 10.91 0 01-8.09-3.55 11 11 0 118.09 3.55zm0-16a5 5 0 105 5.22A5 5 0 0072.84 243.12zM35.26 295.13a8.56 8.56 0 1114.85-5.45A8.57 8.57 0 0135.26 295.13zm4.42-4.06a2.56 2.56 0 102-4.3h0A2.57 2.57 0 0039.68 291.07z"></path><path fill="#f5f5f5" d="M454.91,120H366.78a21.1,21.1,0,0,0-21.1,21.1l.1,21.6-21.43,14.76,21.43,15c0,9.61,0,3.26-.1,27.21a21.1,21.1,0,0,0,21.1,21.09h88.13A21.09,21.09,0,0,0,476,219.65v-78.6A21.09,21.09,0,0,0,454.91,120Z"></path><path fill="#5e6175" d="M454.91,243.74H366.78a24.12,24.12,0,0,1-24.1-24.09l.1-25.65-23.69-16.62,23.69-16.31-.1-20A24.13,24.13,0,0,1,366.78,117h88.13A24.12,24.12,0,0,1,479,141.05v78.6A24.12,24.12,0,0,1,454.91,243.74Zm-125.3-66.31,19.17,13.45c0,11,0,4.79-.1,28.78a18.12,18.12,0,0,0,18.1,18.08h88.13A18.12,18.12,0,0,0,473,219.65v-78.6A18.12,18.12,0,0,0,454.91,123H366.78a18.12,18.12,0,0,0-18.1,18.1l.11,23.17Z"></path><path fill="#e08326" d="M441.44,206.36H429a14.82,14.82,0,0,1-14.8-14.8v-21.7a14.82,14.82,0,0,1,14.8-14.8h12.45a14.82,14.82,0,0,1,14.8,14.8h-7.91a6.9,6.9,0,0,0-6.89-6.89H429a6.91,6.91,0,0,0-6.9,6.89v21.7a6.91,6.91,0,0,0,6.9,6.9h12.45a6.9,6.9,0,0,0,6.89-6.9v-6.9H429.79v-7.9h26.45v14.8A14.82,14.82,0,0,1,441.44,206.36Z"></path><rect width="7.7" height="50.72" x="366.67" y="155.06" fill="#e08326"></rect><polygon fill="#e08326" points="410.27 205.78 397.54 205.78 367.15 182.69 367.15 178.17 396.7 155.06 409.2 155.06 376.83 180.38 410.27 205.78"></polygon><path fill="#a9afc4" d="M395.15,415l-.15-6,6-.14.15,6Zm-.39-16-.14-6,6-.15.14,6Zm-.38-16-.15-6,6-.14.15,6Zm-.59-15.67a42.77,42.77,0,0,0-1.08-5.5l5.8-1.54a49.27,49.27,0,0,1,1.23,6.27Zm-4.44-14.2a43.27,43.27,0,0,0-2.9-4.79l4.92-3.44a50,50,0,0,1,3.31,5.47Zm-9-11.81a42.22,42.22,0,0,0-4.37-3.51l3.45-4.91a49,49,0,0,1,5,4Zm-12.54-8a43.08,43.08,0,0,0-5.31-1.8l1.55-5.79a46.31,46.31,0,0,1,6.05,2Zm-14.52-3.2c-1.33-.06-2.16,0-5.88,0v-6c4,0,4.76,0,6.13,0Z"></path></g></svg>