<svg xmlns="http://www.w3.org/2000/svg" xmlns:xlink="http://www.w3.org/1999/xlink" viewBox="0 0 512 512" id="schedule"><defs><linearGradient id="a" x1="255.65" x2="365.65" y1="345.48" y2="345.48" gradientTransform="matrix(-1 0 0 1 687.44 0)" gradientUnits="userSpaceOnUse"><stop offset="0" stop-color="#cacfdd"></stop><stop offset="1" stop-color="#eef0f1"></stop></linearGradient><linearGradient xlink:href="#a" id="b" x1="254.67" x2="254.67" y1="352.31" y2="194.89"></linearGradient></defs><g style="isolation:isolate"><path fill="#f5f5f5" d="M77.55,148.39V373a15.36,15.36,0,0,0,15.36,15.35H416.43A15.36,15.36,0,0,0,431.79,373V148.39Z"></path><path fill="url(#a)" d="M321.79,388.39h94.64A15.37,15.37,0,0,0,431.79,373V306.15C377,289.88,321.79,331.29,321.79,388.39Z" style="mix-blend-mode:multiply"></path><rect width="354.24" height="28.48" x="77.55" y="148.39" fill="#dee1ec"></rect><path fill="#a9afc4" d="M431.79,148.39H77.55V105.25A15.36,15.36,0,0,1,92.91,89.89H416.43a15.36,15.36,0,0,1,15.36,15.36Z"></path><path fill="#5e6175" d="M434.79,151.39H74.55V105.25A18.39,18.39,0,0,1,92.91,86.89H416.43a18.39,18.39,0,0,1,18.36,18.36Zm-354.24-6H428.79V105.25a12.38,12.38,0,0,0-12.36-12.36H92.91a12.38,12.38,0,0,0-12.36,12.36Z"></path><path fill="#5e6175" d="M139.71 112.33a10 10 0 01-10-10V72.25a10 10 0 1120 0v30.06A10 10 0 01139.71 112.33zM254.67 112.33a10 10 0 01-10-10V72.25a10 10 0 0120 0v30.06A10 10 0 01254.67 112.33zM369.63 112.33a10 10 0 01-10-10V72.25a10 10 0 0120 0v30.06A10 10 0 01369.63 112.33zM416.43 391.38H92.91A18.38 18.38 0 0174.55 373V145.39H434.79V373A18.38 18.38 0 01416.43 391.38zm-335.88-240V373a12.37 12.37 0 0012.36 12.35H416.43A12.37 12.37 0 00428.79 373V151.39z"></path><path fill="#5e6175" d="M151.4,179.88H74.55V145.39H151.4Zm-70.85-6H145.4V151.39H80.55Z"></path><rect width="70.84" height="28.48" x="148.4" y="148.39" fill="#f5f5f5"></rect><path fill="#5e6175" d="M293.09,179.88H216.25V145.39h76.84Zm-70.84-6h64.84V151.39H222.25Z"></path><rect width="70.85" height="28.48" x="290.09" y="148.39" fill="#f5f5f5"></rect><path fill="#5e6175" d="M222.25 179.88H145.4V145.39h76.85zm-70.85-6h64.85V151.39H151.4zM363.94 179.88H287.09V145.39h76.85zm-70.85-6h64.85V151.39H293.09z"></path><path fill="#5e6175" d="M434.78,179.88H357.94V145.39h76.84Zm-70.84-6h64.84V151.39H363.94Z"></path><circle cx="407.34" cy="388.38" r="68.66" fill="#f5f5f5"></circle><path fill="#5e6175" d="M407.34,460A71.66,71.66,0,1,1,479,388.38,71.73,71.73,0,0,1,407.34,460Zm0-137.31A65.66,65.66,0,1,0,473,388.38,65.72,65.72,0,0,0,407.34,322.73Z"></path><rect width="21.05" height="6" x="440.16" y="67.16" fill="#5e6175" transform="rotate(-45 450.682 70.161)"></rect><rect width="6" height="21.05" x="422.89" y="45.53" fill="#5e6175"></rect><rect width="21.05" height="6" x="454.84" y="90.68" fill="#5e6175"></rect><circle cx="407.34" cy="388.38" r="41.81" fill="#e1830e"></circle><polygon fill="#f5f5f5" points="397.5 404.54 391.46 398.5 403.35 386.62 403.35 361.25 411.88 361.25 411.88 390.15 397.5 404.54"></polygon><path fill="url(#b)" d="M187.72,219.35V344H321.61V219.35Z"></path><polygon fill="#e08326" points="236.87 219.36 236.87 252.47 242.81 248.27 248.76 252.47 254.69 248.27 260.62 252.47 266.55 248.27 272.47 252.47 272.47 219.36 236.87 219.36"></polygon><rect width="33.33" height="13.37" x="205.09" y="318.24" fill="#5e6175"></rect><path fill="#5e6175" d="M324.61,347H184.72V216.35H324.61Zm-133.89-6H318.61V222.35H190.72Z"></path><rect width="108.28" height="6" x="221.76" y="435.66" fill="#5e6175"></rect><rect width="38.19" height="6" x="272.47" y="411.98" fill="#5e6175"></rect><path fill="#a9afc4" d="M275.9,469.47h-6v-6h6Zm-16,0h-6v-6h6Zm-16,0h-6v-6h6Zm-16,0h-6v-6h6Zm-16,0h-6v-6h6Zm-16,0h-6v-6h6Zm-16,0h-6v-6h6Zm-16,0h-6v-6h6Z"></path><path fill="#5e6175" d="M44 396.51A11 11 0 0140.76 375h0A11 11 0 1144 396.51zm-1.47-15.73a5 5 0 105.85 7.09 5 5 0 00-5.85-7.09zM76.3 419.82A8.53 8.53 0 1192 421.33 8.53 8.53 0 0176.3 419.82zm8.15-5a2.53 2.53 0 102.24 3.73A2.53 2.53 0 0084.45 414.79z"></path></g></svg>