<svg xmlns="http://www.w3.org/2000/svg" viewBox="0 0 512 512" id="scissor"><defs><linearGradient id="a" x1="196.01" x2="307.76" y1="256.31" y2="256.31" gradientUnits="userSpaceOnUse"><stop offset="0" stop-color="#cacfdd"></stop><stop offset="1" stop-color="#eef0f1"></stop></linearGradient></defs><g style="isolation:isolate"><path fill="#dee1ec" d="M438.46,178.27c.18.18-3.27,3.38-136,128.41a5.31,5.31,0,0,1-5.91,1.16c-9.8-4.14-41.09-15.29-72.32-4.19a77.52,77.52,0,0,0-10.69,4.73L191,270.47c8.26-4.69-17.26,9.76,253-143.18A44.06,44.06,0,0,1,438.46,178.27Z"></path><path fill="url(#a)" d="M307.76,204.35v97.37l-5.26,5a5.31,5.31,0,0,1-5.91,1.16c-9.8-4.14-41.09-15.29-72.32-4.19-7.57-18.82-22.33-31.51-28.26-36Z" style="mix-blend-mode:multiply"></path><path fill="#5e6175" d="M167.93,283.49c-8.74-41.3-55.41-62.53-92.48-41.59a62.9,62.9,0,0,0,61.93,109.5c85.48-48.33,73.38-41.52,76.19-43l-22.63-37.91Zm-46.5,39.7A30.49,30.49,0,1,1,133,281.64,30.47,30.47,0,0,1,121.43,323.19Z"></path><path fill="#5e6175" d="M49.07,329.09A66,66,0,0,1,74,239.29c37.12-21,84.43-1.58,95.92,39.64L192,266.41l25.74,43.13c-6.71,3.59,7.8-4.55-78.91,44.47A65.83,65.83,0,0,1,49.07,329.09Zm27.86-84.57a59.9,59.9,0,0,0,59,104.27l73.5-41.56-19.53-32.71-24,13.59-.85-4C156.63,244.61,112,224.72,76.93,244.52Zm29.54,85.64a33.52,33.52,0,1,1,33.06-28.46h0A33.51,33.51,0,0,1,106.47,330.16Zm-.1-61c-20.81,0-34.28,22.64-23.87,41a27.49,27.49,0,1,0,23.87-41Z"></path><path fill="#5e6175" d="M212.46 312.37l-25.67-43L445.05 123.2l1.47 2.62a47 47 0 01-4.37 52.74c.32.53 3.25-2.47-137.55 130.26a8.26 8.26 0 01-9.18 1.78C285 306.18 248.3 293.16 215 311zM253 295.88a119.72 119.72 0 0144.71 9.19 2.35 2.35 0 002.58-.47c2.13-2.12 133.69-125.81 135.89-128.33a41 41 0 006.46-44.83L195.09 271.57l19.62 32.85A86.35 86.35 0 01253 295.88zM141.07 208.15a13.81 13.81 0 1111.12-22A13.8 13.8 0 01141.07 208.15zm-7.73-15a7.81 7.81 0 1014-3.45h0A7.82 7.82 0 00133.34 193.17zM71.25 206.63a10.51 10.51 0 118.46-16.73A10.51 10.51 0 0171.25 206.63zm0-15a4.51 4.51 0 102.67 8.14A4.5 4.5 0 0071.24 191.62z"></path><rect width="22.22" height="6" x="381.29" y="361.22" fill="#5e6175" transform="rotate(-30.7 396.384 366.458)"></rect><rect width="22.22" height="6" x="359.52" y="340.4" fill="#5e6175" transform="rotate(-75.93 370.614 343.397)"></rect><rect width="6" height="22.22" x="398.4" y="380.97" fill="#5e6175" transform="rotate(-75.93 401.36 392.079)"></rect><path fill="#a9afc4" d="M394.53,253.78l-4.25-4.24,4.23-4.25,4.25,4.23Zm11.29-11.35-4.26-4.23,4.23-4.25,4.26,4.23Zm11.28-11.34-4.25-4.23,4.23-4.25,4.25,4.23Zm11.29-11.34-4.26-4.23,4.23-4.26,4.26,4.24Zm11.28-11.34-4.25-4.24,4.23-4.25,4.25,4.23ZM451,197.06l-4.25-4.23a46.64,46.64,0,0,0,3.8-4.24l4.66,3.78A51.78,51.78,0,0,1,451,197.06Zm10.18-13.23L456,180.75c1-1.64,1.9-3.34,2.73-5.05l5.4,2.63C463.2,180.19,462.2,182,461.13,183.83ZM468,168.66l-5.72-1.83c.59-1.82,1.1-3.68,1.52-5.54l5.85,1.34C469.18,164.65,468.62,166.68,468,168.66Zm3.24-16.33-6-.49c.17-2.05.23-3.83.23-5.75h6C471.48,148.17,471.42,150.12,471.23,152.33Zm-6.47-15.78c-.78-5.18-.57-4-1-5.61l5.83-1.43c.54,2.25.28.85,1.08,6.19Z"></path><path fill="#e1830e" d="M314.37 71.89a34.24 34.24 0 0134.25 34.25 34.24 34.24 0 0134.25-34.25 34.26 34.26 0 01-34.25-34.25A34.25 34.25 0 01314.37 71.89zM180.82 394.78a22.13 22.13 0 0122.12 22.13 22.13 22.13 0 0122.12-22.13 22.12 22.12 0 01-22.12-22.12A22.12 22.12 0 01180.82 394.78z"></path><path fill="#dee1ec" d="M290.41,36a44.23,44.23,0,0,0-42.05,29.9c-.27,0-.2.09-44.55,181.62a5.32,5.32,0,0,0,1.94,5.71c9.6,7.24,40.53,33.7,40.54,73.92h44.12Z"></path><path fill="#5e6175" d="M293.41,330.15H243.29v-3c0-38.83-30.12-64.57-39.35-71.53a8.34,8.34,0,0,1-3-8.87c0-.11,8.23-33.68,43.41-177.67.5-2.11.52-1.77,1.73-6.18h.22A47.25,47.25,0,0,1,290.41,33h3Zm-44.17-6h38.17v-285A41.07,41.07,0,0,0,251,67.35c-.76,2.38,2.49-10.69-44.38,181.09a2.33,2.33,0,0,0,.89,2.39C217.11,258,247.76,284.23,249.24,324.15Z"></path><path fill="#5e6175" d="M290.41,353.11v-26H246.29v86.07A63,63,0,0,0,372.23,413C372.14,370.52,330.76,340.32,290.41,353.11Zm19,90.48a30.5,30.5,0,1,1,30.46-30.53A30.48,30.48,0,0,1,309.37,443.59Z"></path><path fill="none" stroke="#5e6175" stroke-miterlimit="10" stroke-width="6" d="M290.41,353.11v-26H246.29v86.07A63,63,0,0,0,372.23,413C372.14,370.52,330.76,340.32,290.41,353.11Zm19,90.48a30.5,30.5,0,1,1,30.46-30.53A30.48,30.48,0,0,1,309.37,443.59Z"></path><circle cx="261.25" cy="263.72" r="11.61" fill="#e1830e"></circle></g></svg>