<svg xmlns="http://www.w3.org/2000/svg" xmlns:xlink="http://www.w3.org/1999/xlink" viewBox="0 0 512 512" id="shipping"><defs><linearGradient id="a" x1="216.67" x2="216.67" y1="206.55" y2="249.25" gradientUnits="userSpaceOnUse"><stop offset="0" stop-color="#cacfdd"></stop><stop offset="1" stop-color="#eef0f1"></stop></linearGradient><linearGradient id="b" x1="215.19" x2="215.19" y1="428.82" y2="250.59" gradientUnits="userSpaceOnUse"><stop offset="0" stop-color="#a9afc4"></stop><stop offset="1" stop-color="#d4d8e5"></stop></linearGradient><linearGradient xlink:href="#a" id="c" x1="215.19" x2="215.19" y1="234.08" y2="393.96"></linearGradient></defs><g style="isolation:isolate"><path fill="#dee1ec" d="M379.11,378.12l-15.47-85.78a61.34,61.34,0,0,0-11.75-28.25h0a61.23,61.23,0,0,0-26.59-20.15l-68.71-28.12H175.67L107,243.94a61.24,61.24,0,0,0-38.34,48.4L53.15,378.12A39,39,0,0,0,69.8,415.87l39.69,30.95h207.6l45.38-30.95A39,39,0,0,0,379.11,378.12Z"></path><path fill="#dee1ec" d="M362.47,415.86l-45.38,30.95H109.49L69.8,415.86a39,39,0,0,1-16.65-37.74l15.48-85.78A61.22,61.22,0,0,1,107,243.94l68.71-28.12H256.6l68.7,28.12a61.28,61.28,0,0,1,38.34,48.4l15.48,85.78A39,39,0,0,1,362.47,415.86Z"></path><polygon fill="url(#a)" points="179.88 215.82 216.13 242.81 253.46 215.82 179.88 215.82"></polygon><path fill="#f5f5f5" d="M216.14,215.82a59,59,0,0,1-59-59V127.21a59,59,0,0,1,118,0v29.61A59,59,0,0,1,216.14,215.82Z"></path><polygon fill="#e1830e" points="175.67 215.82 179.88 215.82 216.13 242.81 181.28 265.35 161.01 221.55 175.67 215.82"></polygon><polygon fill="#e1830e" points="256.59 215.82 253.46 215.82 216.13 242.81 250.98 265.35 271.26 221.55 256.59 215.82"></polygon><path fill="#5e6175" d="M318,449.82H108.46L68,418.29a41.73,41.73,0,0,1-17.83-40.7l15.47-85.73a64.27,64.27,0,0,1,40.21-50.72l69.2-28.32h82.1l69.25,28.34a64.3,64.3,0,0,1,40.17,50.7l15.48,85.83a41.73,41.73,0,0,1-17.92,40.65Zm-207.49-6H316.16l44.62-30.43a35.81,35.81,0,0,0,15.37-34.79l-15.48-85.84a58.27,58.27,0,0,0-36.47-46L256,218.82H176.26l-68.15,27.89a58.25,58.25,0,0,0-36.53,46.16L56.12,378.6a35.77,35.77,0,0,0,15.37,34.79Z"></path><path fill="#5e6175" d="M180,269.74l-23.07-49.82,18.17-7.1h5.76L221.39,243Zm-14.94-46.55L182.55,261l28.33-18.32-32-23.81h-2.64Z"></path><path fill="#5e6175" d="M252.25 269.74L210.82 243l41.67-30.13h4.67l18.16 7.1zm-30.81-27.07L249.71 261l17.49-37.76L256 218.82h-1.6zM216.14 218.82a62.07 62.07 0 01-62-62V127.21a62 62 0 01124 0v29.61A62.07 62.07 0 01216.14 218.82zm0-147.61a56.07 56.07 0 00-56 56v29.61a56 56 0 00112 0V127.21A56.06 56.06 0 00216.14 71.21z"></path><path fill="#f5f5f5" d="M287.94 139.67V148a12.52 12.52 0 01-3.67 8.86l-4 4A12.61 12.61 0 01275 164c.18-2.86.12-2.33.12-36.86A12.54 12.54 0 01287.94 139.67zM157.25 164a12.61 12.61 0 01-5.15-3.1l-4-4a12.48 12.48 0 01-3.67-8.86v-8.31a12.54 12.54 0 0112.7-12.55C157.13 163.07 157.08 161.35 157.25 164z"></path><path fill="#5e6175" d="M271.76 168.08c.52-8.05.39-1 .39-44h3.24a15.57 15.57 0 0115.55 15.55V148a15.6 15.6 0 01-4.56 11C279.67 165.69 280.39 165.51 271.76 168.08zm6.39-37.56c0 29.2-.1 28.27 0 28.2l4-4a9.54 9.54 0 002.8-6.74v-8.31A9.58 9.58 0 00278.15 130.52zM160.52 168.08c-8.52-2.59-7.78-2.34-14.54-9.12a15.55 15.55 0 01-4.55-11v-8.31A15.56 15.56 0 01157 124.12h3.16C160.13 167.32 160 160 160.52 168.08zm-6.39-37.53a9.56 9.56 0 00-6.7 9.12V148a9.56 9.56 0 002.78 6.73l3.92 3.93z"></path><path fill="#e1830e" d="M253.56,101.8a69.47,69.47,0,0,0-77.08,0l-25.89,17.25v2.17c0,16.81,19,26.6,32.66,17.08l4.3-3a48.18,48.18,0,0,1,54.94,0l4.3,3c13.7,9.52,32.66-.27,32.66-17.08v-2.17Z"></path><path fill="#dee1ec" d="M279.38,95.09a45.33,45.33,0,0,0-45.27-43H195.92c-24.21,0-45.33,21.18-45.33,45.33v21.64l25.89-17.26a69.49,69.49,0,0,1,77.08,0l25.88,17.26C279.44,95.93,279.47,96.75,279.38,95.09Z"></path><path fill="#5e6175" d="M258.63,145a23.66,23.66,0,0,1-13.55-4.23l-4.3-3a45.15,45.15,0,0,0-51.52,0l-4.3,3a23.8,23.8,0,0,1-37.37-19.55v-3.76L174.81,99.3a72.48,72.48,0,0,1,80.42,0l27.22,18.15v3.76A23.77,23.77,0,0,1,258.63,145ZM244.2,132.85l4.3,3a17.81,17.81,0,0,0,27.95-15.17L251.9,104.29a66.48,66.48,0,0,0-73.76,0l-24.55,16.37c0,15.58,16.57,23.08,27.95,15.17l4.3-3A51.12,51.12,0,0,1,244.2,132.85Z"></path><path fill="#5e6175" d="M282.44,124.67,251.89,104.3a66.46,66.46,0,0,0-73.75,0l-30.55,20.37V97.42c0-25.74,22.59-48.33,48.33-48.33h38.19a48.28,48.28,0,0,1,48.27,45.85C282.38,97.66,282.44,85.19,282.44,124.67ZM255.22,99.31l21.22,14.14c0-17.08,0-16.67-.05-18.21h0a42.29,42.29,0,0,0-42.28-40.15H195.92c-22.55,0-42.33,19.78-42.33,42.33v16l21.23-14.14A72.47,72.47,0,0,1,255.22,99.31Z"></path><rect width="138.92" height="94.25" x="337.08" y="98.42" fill="#f5f5f5" rx="12.72"></rect><path fill="#5e6175" d="M463.28,195.67H349.81A15.74,15.74,0,0,1,334.08,180V111.14a15.74,15.74,0,0,1,15.73-15.72H463.28A15.74,15.74,0,0,1,479,111.14V180A15.74,15.74,0,0,1,463.28,195.67ZM349.81,101.42a9.74,9.74,0,0,0-9.73,9.72V180a9.74,9.74,0,0,0,9.73,9.72H463.28A9.73,9.73,0,0,0,473,180V111.14a9.73,9.73,0,0,0-9.72-9.72Z"></path><circle cx="375.99" cy="145.55" r="7.63" fill="#e1830e"></circle><circle cx="406.54" cy="145.55" r="7.63" fill="#e1830e"></circle><circle cx="437.09" cy="145.55" r="7.63" fill="#e1830e"></circle><path fill="#a9afc4" d="M384.47 306.37h-6v-6h6zm11-2.47l-2.61-5.41a18.94 18.94 0 004.3-2.86l4 4.5A24.93 24.93 0 01395.44 303.9zM407.65 291l-5.54-2.3a18.64 18.64 0 001.3-5l6 .71A25 25 0 01407.65 291zM409.54 274h-6v-6h6zm0-16h-6v-6h6zm0-16h-6v-6h6zm0-16h-6v-6h6zm0-16h-6V207.9h6zM351.43 306.37h-6v-6h6zm-16 0h-6v-6h6z"></path><polygon fill="url(#b)" points="323.27 261.03 323.27 442.6 317.09 446.81 109.49 446.81 107.11 444.95 107.11 261.03 323.27 261.03" style="mix-blend-mode:multiply"></polygon><rect width="181.58" height="168.5" x="124.4" y="278.31" fill="url(#c)"></rect><polygon fill="#e08326" points="192.21 278.31 238.17 278.31 238.17 328.43 230.51 324.69 222.85 328.43 215.19 324.69 207.53 328.43 199.87 324.69 192.21 328.43 192.21 278.31"></polygon><path fill="#5e6175" d="M309,449.82H121.4V275.31H309Zm-181.58-6H303V281.31H127.4Z"></path><path fill="#f5f5f5" d="M135.4,406.35,152.18,418a7,7,0,0,1-6.57,12.25l-6.71-2.36a6.61,6.61,0,0,0-6.32,11.39l3.95,3.16A20,20,0,0,0,149,446.82h16.09a6.55,6.55,0,0,1,0,13.09H144.78a53.64,53.64,0,0,1-31.6-10.29c-1-.71-17.22-13.43-17.32-13.43,0-24,17.85-36.76,17.75-36.67A38.16,38.16,0,0,1,135.4,406.35Z"></path><path fill="#5e6175" d="M165.13,462.91H144.78a56.38,56.38,0,0,1-33.37-10.86L92.86,437.66v-1.47a49.87,49.87,0,0,1,18.41-38.64l1.27-1h1.07a41,41,0,0,1,23.51,7.37l16.77,11.66a10,10,0,0,1-9.33,17.53l-6.66-2.35a3.61,3.61,0,0,0-3.45,6.22l4,3.16A17.08,17.08,0,0,0,149,443.82h16.09a9.55,9.55,0,0,1,0,19.09ZM98.88,434.74,115,447.25a50.3,50.3,0,0,0,29.76,9.66h20.35a3.55,3.55,0,0,0,0-7.09H149a23.12,23.12,0,0,1-14.38-5l-3.95-3.15a9.61,9.61,0,0,1,9.18-16.57l6.82,2.4a4,4,0,0,0,3.76-7l-16.78-11.66a35,35,0,0,0-19-6.28A43.88,43.88,0,0,0,98.88,434.74Z"></path><polygon fill="#5e6175" points="111.12 401.19 99.7 384.3 110.69 338.87 116.52 340.28 106.15 383.13 116.09 397.83 111.12 401.19"></polygon><path fill="#f5f5f5" d="M293.12,406.35,276.35,418a7,7,0,0,0,6.57,12.25l6.71-2.36A6.61,6.61,0,0,1,296,439.28l-4,3.16a20,20,0,0,1-12.5,4.38H263.4a6.55,6.55,0,1,0,0,13.09h20.35a53.66,53.66,0,0,0,31.6-10.29c.1-.07,17.42-13.43,17.32-13.43,0-24-17.85-36.76-17.75-36.67A38.19,38.19,0,0,0,293.12,406.35Z"></path><path fill="#5e6175" d="M283.75,462.91H263.4a9.55,9.55,0,1,1,0-19.09h16.09a17.1,17.1,0,0,0,10.63-3.72l3.95-3.16a3.6,3.6,0,0,0-.16-5.76,3.55,3.55,0,0,0-3.29-.46L284,433.07a10,10,0,0,1-9.32-17.53l16.77-11.66a41,41,0,0,1,23.51-7.37H316l1.27,1a49.87,49.87,0,0,1,18.41,38.64v1.47L317.19,452A56.42,56.42,0,0,1,283.75,462.91ZM263.4,449.82a3.55,3.55,0,1,0,0,7.09h20.35a50.37,50.37,0,0,0,29.83-9.71l16.06-12.46a43.87,43.87,0,0,0-15.78-32.21,35,35,0,0,0-19,6.28l-16.77,11.66a4,4,0,0,0,3.75,7l6.82-2.4a9.61,9.61,0,0,1,9.19,16.57l-3.95,3.15a23.14,23.14,0,0,1-14.38,5Z"></path><polygon fill="#5e6175" points="317.4 401.19 312.43 397.83 322.37 383.13 312 340.28 317.83 338.87 328.83 384.3 317.4 401.19"></polygon><rect width="6" height="35.5" x="213.13" y="242.81" fill="#5e6175"></rect><path fill="#5e6175" d="M96.44 206.77a12.83 12.83 0 01-12-8.28c-4.07-10.63 6.8-21 17.27-16.36h0a12.88 12.88 0 01-5.27 24.64zm0-19.76a6.88 6.88 0 106.26 9.68A6.89 6.89 0 0096.48 187zM33.65 230.87a9.86 9.86 0 1118.21.5A9.88 9.88 0 0133.65 230.87zm9.22-7.38a3.86 3.86 0 103.51 5.43A3.86 3.86 0 0042.87 223.49z"></path><rect width="6" height="19.58" x="398.38" y="407.04" fill="#5e6175" transform="rotate(-45 401.363 416.82)"></rect><rect width="19.58" height="6" x="404.72" y="390.77" fill="#5e6175"></rect><rect width="6" height="19.58" x="376.5" y="420.7" fill="#5e6175"></rect></g></svg>