<svg xmlns="http://www.w3.org/2000/svg" xmlns:xlink="http://www.w3.org/1999/xlink" viewBox="0 0 512 512" id="shopping-bag"><defs><linearGradient id="a" x1="350.02" x2="401.95" y1="386.42" y2="386.42" gradientUnits="userSpaceOnUse"><stop offset="0" stop-color="#cacfdd"></stop><stop offset="1" stop-color="#eef0f1"></stop></linearGradient><linearGradient xlink:href="#a" id="c" x1="209.92" x2="305.28" y1="69.42" y2="69.42"></linearGradient><linearGradient xlink:href="#a" id="d" x1="103.08" x2="186.45" y1="356.79" y2="356.79"></linearGradient><linearGradient id="b" x1="332.9" x2="401.95" y1="263.36" y2="263.36" gradientUnits="userSpaceOnUse"><stop offset="0" stop-color="#a9afc4"></stop><stop offset="1" stop-color="#d4d8e5"></stop></linearGradient><linearGradient xlink:href="#a" id="e" x1="259.63" x2="401.95" y1="299.86" y2="299.86"></linearGradient><linearGradient xlink:href="#b" id="f" x1="429.78" x2="476" y1="308.02" y2="308.02"></linearGradient></defs><g><polygon fill="url(#a)" points="350.02 398.39 350.02 394.78 375.98 374.44 401.71 395.44 401.95 398.39 350.02 398.39" style="mix-blend-mode:multiply"></polygon><path fill="#5e6175" d="M405.21,401.39H347v-8.07l29-22.72,28.58,23.33Zm-51.11-6h42.8l-21-17.11Z"></path><path fill="#e1830e" d="M331.45,165.66H312.2V108.37a42.57,42.57,0,1,0-85.14,0v57.29H207.8V108.37a61.83,61.83,0,1,1,123.65,0Z"></path><path fill="#e1830e" d="M331.46,108.36v57.3H312.2v-57.3A42.57,42.57,0,0,0,235.76,82.6a26.2,26.2,0,0,0-25.84,9.71,61.83,61.83,0,0,1,121.54,16Z"></path><path fill="url(#c)" d="M305.28,85.13a42.54,42.54,0,0,0-69.52-2.53,26.2,26.2,0,0,0-25.84,9.71,61.9,61.9,0,0,1,69.46-45A78.46,78.46,0,0,1,305.28,85.13Z" style="mix-blend-mode:multiply"></path><path fill="#f5f5f5" d="M350,398.39H103.08c7.73-122.15,3.16-50,17.11-270.06H332.9Z"></path><path fill="url(#d)" d="M186.45,398.39H103.08l5.26-83.2A83.47,83.47,0,0,1,186.45,398.39Z" style="mix-blend-mode:multiply"></path><polygon fill="url(#b)" points="379.91 128.33 332.9 128.33 350.02 398.39 401.95 398.39 379.91 128.33"></polygon><rect width="6" height="246.81" x="363.76" y="127.98" fill="#5e6175" transform="rotate(-4.29 366.634 251.284)"></rect><polygon fill="url(#e)" points="401.95 398.39 259.63 398.39 272.12 201.34 385.87 201.34 401.95 398.39" style="mix-blend-mode:multiply"></polygon><path fill="#5e6175" d="M353.21,401.39H99.88l17.49-276.06H335.71Zm-246.94-6H346.82L330.08,131.33H123Z"></path><path fill="#5e6175" d="M405.21,401.39h-58L329.7,125.33h53Zm-52.38-6H398.7L377.15,131.33h-41Z"></path><path fill="#e1830e" d="M292.5,165.66H273.24V108.37a42.57,42.57,0,0,0-85.14,0v57.29H168.85V108.37a61.83,61.83,0,1,1,123.65,0Z"></path><path fill="#f5f5f5" d="M429.78,217.64H287.42L276,398.39H441.24Z"></path><polygon fill="url(#f)" points="461.25 217.64 429.79 217.64 441.24 398.39 476 398.39 461.25 217.64"></polygon><path fill="#5e6175" d="M444.44,401.39H272.77l11.84-186.75h148Zm-165.28-6H438L427,220.64H290.24Z"></path><path fill="#5e6175" d="M479.25,401.39H438.42L426.59,214.64H464Zm-35.19-6h28.69L458.48,220.64H433Z"></path><path fill="#5e6175" d="M479.25,401.39h-41v-6.71l20.42-19.25,20.08,19.63Zm-33-6h24.26l-11.91-11.64Z"></path><rect width="6" height="162.42" x="449.44" y="217.41" fill="#5e6175" transform="rotate(-4.36 452.568 298.722)"></rect><path fill="#5e6175" d="M323.88,247.9h11.66v27.77a25.78,25.78,0,0,0,51.56,0V247.9h11.66v27.77a37.44,37.44,0,0,1-74.88,0Z"></path><circle cx="103.07" cy="398.39" r="67.07" fill="#f5f5f5"></circle><path fill="#5e6175" d="M103.07,468.46a70.08,70.08,0,1,1,70.08-70.07A70.15,70.15,0,0,1,103.07,468.46Zm0-134.15a64.08,64.08,0,1,0,64.08,64.08A64.15,64.15,0,0,0,103.07,334.31Z"></path><path fill="#e1830e" d="M129.35,370.71,96.88,369.6,63.54,402.94l33.59,33.59,33.34-33.34Zm-19,19a5.76,5.76,0,1,1,8.15,0A5.75,5.75,0,0,1,110.32,389.75Z"></path><path fill="#5e6175" d="M373 89.63h0a12 12 0 0111.76-12.32c10.73-.29 16.36 12.64 9 20.35A12.07 12.07 0 01373 89.63zm6-.14a6.05 6.05 0 105.9-6.19 6.07 6.07 0 00-5.9 6.19zM430.72 134.9a9.28 9.28 0 119.28-9.5A9.29 9.29 0 01430.72 134.9zm-2.38-11.54a3.28 3.28 0 105.66 2.18A3.28 3.28 0 00428.34 123.36z"></path><rect width="6" height="20.81" x="97.61" y="98.86" fill="#5e6175" transform="rotate(-45 100.613 109.275)"></rect><rect width="20.81" height="6" x="76.26" y="130.78" fill="#5e6175"></rect><rect width="6" height="20.81" x="120.86" y="84.35" fill="#5e6175"></rect><path fill="#a9afc4" d="M338.75,457.23h-6v-6h6Zm-16,0h-6v-6h6Zm-16,0h-6v-6h6Zm-16,0h-6v-6h6Zm-16,0h-6v-6h6Zm-16,0h-6v-6h6Zm-16,0h-6v-6h6Zm-16,0h-6v-6h6Zm-16,0h-6v-6h6Zm-16,0h-6v-6h6Zm-16,0h-6v-6h6Zm171-1.24-2.16-5.6a12.34,12.34,0,0,0,4.08-2.56l4.1,4.38A18.4,18.4,0,0,1,349.7,456Zm11.62-14.08-5.91-1.05a30.25,30.25,0,0,0,.19-5.46h6A34.69,34.69,0,0,1,361.32,441.91Zm.28-16.51h-6v-6h6Z"></path></g></svg>