<svg xmlns="http://www.w3.org/2000/svg" xmlns:xlink="http://www.w3.org/1999/xlink" viewBox="0 0 512 512" id="sketch-drawing"><defs><linearGradient id="linear-gradient" x1="60.71" x2="108.01" y1="220.49" y2="220.49" gradientUnits="userSpaceOnUse"><stop offset="0" stop-color="#cacfdd"></stop><stop offset="1" stop-color="#eef0f1"></stop></linearGradient><linearGradient xlink:href="#linear-gradient" id="linear-gradient-2" x1="395.44" x2="442.74" y1="220.49" y2="220.49"></linearGradient><linearGradient xlink:href="#linear-gradient" id="linear-gradient-3" x1="273.33" x2="307.19" y1="163.92" y2="197.77"></linearGradient><linearGradient xlink:href="#linear-gradient" id="linear-gradient-4" x1="1786.1" x2="1823.19" y1="791.55" y2="791.55" gradientTransform="rotate(45 1952.897 -1274.17)"></linearGradient><linearGradient xlink:href="#linear-gradient" id="linear-gradient-5" x1="387.71" x2="404.63" y1="-58.89" y2="-41.97" gradientTransform="translate(-82.44 197.44)"></linearGradient><linearGradient xlink:href="#linear-gradient" id="linear-gradient-6" x1="1830.17" x2="1907.89" y1="900.94" y2="978.66" gradientTransform="rotate(45 1952.897 -1274.17)"></linearGradient></defs><g style="isolation:isolate"><g id="Sketch_Drawing"><path d="M108,168.81V272.17a47.29,47.29,0,0,0-47.29,48.11c.43,25.93,22.13,46.49,48.07,46.49H395.44a47.3,47.3,0,0,0,47.3-47.3V168.81Z" fill="#f5f5f5"></path><path d="M108,121.51a47.3,47.3,0,0,0-47.3,47.3V319.47a47.3,47.3,0,0,1,47.3-47.3Z" fill="url(#linear-gradient)"></path><path d="M395.44,369.77H108.79c-27.71,0-50.62-22.18-51.07-49.44A50.26,50.26,0,0,1,105,269.26V165.81H445.74V319.47A50.36,50.36,0,0,1,395.44,369.77ZM108,275.17a44.27,44.27,0,0,0-44.29,45.06c.4,24,20.62,43.54,45.07,43.54H395.44a44.35,44.35,0,0,0,44.3-44.3V171.81H111V275.17Z" fill="#5e6175"></path><path d="M63.71,319.47h-6V168.81a50.36,50.36,0,0,1,50.3-50.3h3V275.17h-3A44.35,44.35,0,0,0,63.71,319.47ZM105,124.61a44.36,44.36,0,0,0-41.3,44.2c0,.27,0-6.56,0,126.85a50.38,50.38,0,0,1,41.3-26.4Z" fill="#5e6175"></path><path d="M395.44,121.51a47.3,47.3,0,0,1,47.3,47.3V319.47a47.3,47.3,0,0,0-47.3-47.3Z" fill="url(#linear-gradient-2)"></path><path d="M445.74,319.47h-6a44.35,44.35,0,0,0-44.3-44.3h-3V118.51h3a50.36,50.36,0,0,1,50.3,50.3Zm-47.3-50.21a50.38,50.38,0,0,1,41.3,26.4V168.79a44.36,44.36,0,0,0-41.3-44.18Z" fill="#5e6175"></path><path d="M410.56,413H72v55.35H410.56a27.68,27.68,0,1,0,0-55.35Zm2.27,35.32a7.65,7.65,0,1,1,7.64-7.65A7.66,7.66,0,0,1,412.83,448.3Z" fill="#dee1ec"></path><path d="M437.44,447.27a27.66,27.66,0,0,0-26.88-21.07H72V413H410.56A27.68,27.68,0,0,1,437.44,447.27Z" fill="#a9afc4"></path><rect width="6" height="20.03" x="118.4" y="412.98" fill="#5e6175"></rect><rect width="6" height="20.03" x="168.08" y="412.98" fill="#5e6175"></rect><rect width="6" height="20.03" x="217.75" y="412.98" fill="#5e6175"></rect><rect width="6" height="20.03" x="267.42" y="412.98" fill="#5e6175"></rect><rect width="6" height="20.03" x="317.09" y="412.98" fill="#5e6175"></rect><rect width="6" height="20.03" x="366.76" y="412.98" fill="#5e6175"></rect><path d="M410.56,471.33H69V410H410.56a30.68,30.68,0,1,1,0,61.35ZM75,465.33H410.56a24.68,24.68,0,1,0,0-49.35H75Zm337.79-14a10.65,10.65,0,1,1,10.64-10.65A10.67,10.67,0,0,1,412.83,451.3Zm0-15.29a4.65,4.65,0,1,0,4.64,4.64A4.65,4.65,0,0,0,412.83,436Z" fill="#5e6175"></path><path d="M354.26,168.81l-36,36c-1,1.05-2.28,2.69-3.79,3.21l-53.11,18.11a2.51,2.51,0,0,1-3.07-3.07c19.48-56.91,18.19-53.47,18.79-54.29Z" style="mix-blend-mode:multiply" fill="url(#linear-gradient-3)"></path><path d="M294.41,192.35l-14.74,14.74a4,4,0,0,1-1.54,1L225,226.17a2.43,2.43,0,0,1-3.19-2.31c0-.59-.41.79,5.86-17.53,13.63-39.82,12.5-37.05,13.44-38l14.65-14.65Z" fill="#dee1ec"></path><path d="M241.79,220.45,225,226.17a2.44,2.44,0,0,1-3.07-3.07l5.74-16.77A19.94,19.94,0,0,1,241.79,220.45Z" fill="#5e6175"></path><path d="M224.24,229.29a5.43,5.43,0,0,1-5.42-5.43c0-1.34-1.25,2.76,18.5-55a7.12,7.12,0,0,1,1.68-2.69l16.77-16.76,42.88,42.88-16.86,16.88a7.12,7.12,0,0,1-2.69,1.68C221.68,230.48,225.57,229.29,224.24,229.29ZM255.77,158c-13.62,13.61-12.66,12.58-12.77,12.9L225.17,223l52-17.73c.31-.11-.67.81,13-12.87Z" fill="#5e6175"></path><path d="M224.24,229.29a5.43,5.43,0,0,1-5.42-5.43c0-1.28-.25-.18,6.93-21.15l2.7.72a22.92,22.92,0,0,1,16.24,16.25l.72,2.71C224.1,229.65,225.53,229.29,224.24,229.29Zm5.3-19.12L225.17,223,238,218.59A16.94,16.94,0,0,0,229.54,210.17Z" fill="#5e6175"></path><path d="M371.73,115c-90.45,90.45-89.88,90.07-90,90a13.66,13.66,0,1,0-19.32-19.32h0a13.66,13.66,0,0,0-19.16-19.48l89.81-89.81Z" fill="#a9afc4"></path><rect width="17.36" height="54.66" x="349.87" y="62.24" transform="rotate(-45 358.552 89.573)" fill="#5e6175"></rect><path d="M397.51,89.26,384,102.76,345.36,64.11l13.5-13.5a23.73,23.73,0,0,1,28.62-3.78c3.49,2,5.08,3.94,10,8.9A23.72,23.72,0,0,1,397.51,89.26Z" fill="#e1830e"></path><path d="M397.51,89.26,384,102.76,370.21,89l13.5-13.49a23.75,23.75,0,0,0,3.77-28.63c3.49,2,5.08,3.94,10,8.9A23.72,23.72,0,0,1,397.51,89.26Z" style="mix-blend-mode:multiply" fill="url(#linear-gradient-4)"></path><path d="M371.73,119.28,328.84,76.39l16.52-16.52,42.89,42.89Zm-34.4-42.89,34.4,34.4,8-8L345.36,68.35Z" fill="#5e6175"></path><path d="M352.4,95.71l-90,90a13.66,13.66,0,1,0-19.32-19.31c-.1-.1-1.25,1.23,90-90Z" fill="#a9afc4"></path><path d="M371.73,115l-89.81,89.82a13.67,13.67,0,0,0-19.49-19.16l90-90Z" fill="#a9afc4"></path><path d="M371.73,115c-90.45,90.45-89.88,90.07-90,90C372.2,114.56,371.63,114.94,371.73,115Z" fill="#a9afc4"></path><path d="M371.73,115l-89.81,89.82a13.67,13.67,0,0,0-19.49-19.16l90-90Z" style="mix-blend-mode:multiply" fill="url(#linear-gradient-5)"></path><path d="M371.73,115c-90.45,90.45-89.88,90.07-90,90C372.2,114.56,371.63,114.94,371.73,115Z" style="mix-blend-mode:multiply" fill="url(#linear-gradient-6)"></path><path d="M264.55,187.8l-4.25-4.24a10.66,10.66,0,0,0-14.94-15.2l-2.15,2.15-4.45-4c3.46-3.48,90.88-90.89,94.32-94.33l23.56,23.57Zm-10.3-28.34a16.58,16.58,0,0,1,15.1,15l78.81-78.8L333.08,80.63Z" fill="#5e6175"></path><path d="m284 207-4.28-4.21a10.66 10.66 0 0 0-15.21-14.95l-4.24-4.24 92.1-92.1L376 115Zm-10.43-28.21a16.59 16.59 0 0 1 15.05 15.1L367.49 115 352.41 100ZM384 107 341.12 64.11l15.62-15.62a26.73 26.73 0 0 1 37.77 0l5.12 5.13a26.7 26.7 0 0 1 0 37.77ZM349.6 64.11 384 98.52l11.38-11.38a20.7 20.7 0 0 0 0-29.29c-5.13-5.13-6.43-6.7-9.41-8.42a20.74 20.74 0 0 0-25 3.3Z" fill="#5e6175"></path><rect width="134.8" height="6" x="157.84" y="226.32" fill="#5e6175"></rect><path d="M100.39 90.73a11.82 11.82 0 1 1 10.51-17.2h0A11.82 11.82 0 0 1 100.39 90.73Zm0-17.65a5.82 5.82 0 1 0 5.2 3.18A5.88 5.88 0 0 0 100.36 73.08ZM142.87 112.39a9.14 9.14 0 1 1 12.85 11A9.12 9.12 0 0 1 142.87 112.39Zm8.69-.32A3.14 3.14 0 1 0 153 118 3.15 3.15 0 0 0 151.56 112.07Z" fill="#5e6175"></path><rect width="6" height="18.83" x="450.97" y="363.19" transform="rotate(-45 453.97 372.61)" fill="#5e6175"></rect><rect width="18.83" height="6" x="457.17" y="347.43" fill="#5e6175"></rect><rect width="6" height="18.83" x="429.93" y="376.32" fill="#5e6175"></rect><path d="M194 87.73a27.85 27.85 0 0 1 27.85 27.86 27.87 27.87 0 0 1 27.86-27.86 27.85 27.85 0 0 1-27.86-27.85A27.85 27.85 0 0 1 194 87.73ZM36 375.29a14.51 14.51 0 0 1 14.51 14.5A14.49 14.49 0 0 1 65 375.29a14.51 14.51 0 0 1-14.5-14.51A14.51 14.51 0 0 1 36 375.29Z" fill="#e1830e"></path><path d="M466.12,230.7h-6v-6h6Zm0-16h-6v-6h6Zm0-16h-6v-6h6Zm0-16h-6v-6h6Zm-6-16c0-2-.11-3.91-.26-5.79l6-.48c.16,2,.26,4.1.28,6.19Zm-1.65-15.27c-.41-1.89-.89-3.76-1.45-5.54l5.73-1.78c.61,1.95,1.14,4,1.59,6Zm-5-14.35a54.47,54.47,0,0,0-2.81-5l5.06-3.23a60.17,60.17,0,0,1,3.11,5.49ZM444.9,124.7a50.67,50.67,0,0,0-4.08-4l3.93-4.53a55.54,55.54,0,0,1,4.55,4.4Zm-11.74-9.44a33.4,33.4,0,0,0-4.91-2.4l2-5.66a36.92,36.92,0,0,1,5.92,2.87Z" fill="#a9afc4"></path></g></g></svg>