<svg xmlns="http://www.w3.org/2000/svg" xmlns:xlink="http://www.w3.org/1999/xlink" viewBox="0 0 512 512" id="smart-chatbot"><defs><linearGradient id="a" x1="238.31" x2="368.55" y1="194.74" y2="194.74" gradientUnits="userSpaceOnUse"><stop offset="0" stop-color="#cacfdd"></stop><stop offset="1" stop-color="#eef0f1"></stop></linearGradient><linearGradient xlink:href="#a" id="b" x1="136.76" x2="243.04" y1="336.16" y2="336.16"></linearGradient></defs><g style="isolation:isolate"><path fill="#dee1ec" d="M368.55,70.57v368.8A34.59,34.59,0,0,1,334,474H171.34a34.59,34.59,0,0,1-34.58-34.6V70.57A34.57,34.57,0,0,1,171.34,36H334A34.57,34.57,0,0,1,368.55,70.57Z"></path><path fill="#f5f5f5" d="M350.47,68.93V441a14.86,14.86,0,0,1-14.86,14.87H169.7A14.86,14.86,0,0,1,154.84,441V68.93A14.86,14.86,0,0,1,169.7,54.07h35.71a9.23,9.23,0,0,1,9.23,9.23,9.23,9.23,0,0,0,9.23,9.23H281.4a9.23,9.23,0,0,0,9.23-9.23,9.23,9.23,0,0,1,9.23-9.23h35.75A14.86,14.86,0,0,1,350.47,68.93Z"></path><path fill="url(#a)" d="M368.55,137.74v114H291.1a31,31,0,0,1-31-31v-8l-21.84-18,21.84-18v-8a31,31,0,0,1,31-30.94Z" style="mix-blend-mode:multiply"></path><path fill="url(#b)" d="M243,336.16l-22.51,18.58v8.86a31.77,31.77,0,0,1-31.73,31.72h-52V277h52a31.77,31.77,0,0,1,31.73,31.72v8.86Z" style="mix-blend-mode:multiply"></path><path fill="#5e6175" d="M334,477H171.34a37.62,37.62,0,0,1-37.58-37.58V70.57A37.62,37.62,0,0,1,171.34,33H334a37.58,37.58,0,0,1,37.57,37.57V439.38A37.62,37.62,0,0,1,334,477ZM171.34,39a31.61,31.61,0,0,0-31.58,31.57V439.38A31.62,31.62,0,0,0,171.34,471H334a31.61,31.61,0,0,0,31.57-31.58V70.57A31.58,31.58,0,0,0,334,39Z"></path><path fill="#dee1ec" d="M414.07,154h-123a14.69,14.69,0,0,0-14.69,14.69v15.68l-12.56,10.37,12.56,10.37V220.8a14.68,14.68,0,0,0,14.69,14.68h123a14.69,14.69,0,0,0,14.69-14.68V168.69A14.69,14.69,0,0,0,414.07,154Z"></path><path fill="#e1830e" d="M59.29,379.06H188.8a15.46,15.46,0,0,0,15.46-15.46V347.08l13.23-10.92-13.23-10.93V308.72a15.46,15.46,0,0,0-15.46-15.47H59.29a15.47,15.47,0,0,0-15.47,15.47V363.6A15.47,15.47,0,0,0,59.29,379.06Z"></path><path fill="#5e6175" d="M414.07 238.48h-123a17.7 17.7 0 01-17.69-17.69V206.53l-14.27-11.79L273.42 183V168.69A17.7 17.7 0 01291.11 151h123a17.7 17.7 0 0117.69 17.69v52.1A17.7 17.7 0 01414.07 238.48zm-145.5-43.74l10.85 9v17.09a11.7 11.7 0 0011.69 11.69h123a11.7 11.7 0 0011.69-11.69v-52.1A11.7 11.7 0 00414.07 157h-123a11.7 11.7 0 00-11.69 11.69v17.09zM188.8 382.06H59.29A18.49 18.49 0 0140.82 363.6V308.72a18.49 18.49 0 0118.47-18.47H188.8a18.49 18.49 0 0118.47 18.47v15.1l14.94 12.34-14.94 12.33V363.6A18.49 18.49 0 01188.8 382.06zM59.29 296.25a12.49 12.49 0 00-12.47 12.47V363.6a12.48 12.48 0 0012.47 12.46H188.8a12.48 12.48 0 0012.47-12.46V345.67l11.51-9.51-11.51-9.51V308.72a12.49 12.49 0 00-12.47-12.47z"></path><circle cx="207.51" cy="194.74" r="34.21" fill="#dee1ec"></circle><path fill="#a9afc4" d="M230.89,214.44v5.26a34.18,34.18,0,0,1-46.76,0v-5.27a15.58,15.58,0,0,1,15.59-15.58h15.59A15.58,15.58,0,0,1,230.89,214.44Z"></path><path fill="#f5f5f5" d="M207.51,198.86a12,12,0,0,1-12-12v-2.78a12,12,0,0,1,23.94,0v2.78A12,12,0,0,1,207.51,198.86Z"></path><path fill="#5e6175" d="M207.51,201.86a15,15,0,0,1-15-15v-2.78a15,15,0,0,1,29.94,0v2.78A15,15,0,0,1,207.51,201.86Zm0-26.71a9,9,0,0,0-9,9v2.78a9,9,0,0,0,17.94,0v-2.78A9,9,0,0,0,207.51,175.15Z"></path><path fill="#5e6175" d="M182.08,221.9l-1-.89v-6.57a18.6,18.6,0,0,1,18.59-18.58h15.59a18.59,18.59,0,0,1,18.58,18.58V221l-.94.88A37.18,37.18,0,0,1,182.08,221.9Zm5-3.53a31.18,31.18,0,0,0,40.76,0v-3.92a12.59,12.59,0,0,0-12.58-12.58H199.72a12.6,12.6,0,0,0-12.59,12.58Z"></path><path fill="#5e6175" d="M207.51,232a37.21,37.21,0,1,1,37.21-37.21A37.25,37.25,0,0,1,207.51,232Zm0-68.41a31.21,31.21,0,1,0,31.21,31.2A31.24,31.24,0,0,0,207.51,163.54Z"></path><rect width="102.61" height="12.17" x="303.33" y="175.39" fill="#a9afc4"></rect><rect width="78.42" height="12.17" x="303.33" y="202.36" fill="#a9afc4"></rect><circle cx="88.87" cy="336.16" r="8.41" fill="#f5f5f5"></circle><circle cx="126.83" cy="336.16" r="8.41" fill="#f5f5f5"></circle><circle cx="164.8" cy="336.16" r="8.41" fill="#f5f5f5"></circle><rect width="74.61" height="55.31" x="249.85" y="309.13" fill="#dee1ec" rx="10.49"></rect><circle cx="272.54" cy="329.92" r="7.85" fill="#f5f5f5"></circle><circle cx="301.76" cy="329.92" r="7.85" fill="#f5f5f5"></circle><path fill="#a9afc4" d="M327.56 346.84h-3.1V325.48h3.1a9.18 9.18 0 019.18 9.18v3A9.18 9.18 0 01327.56 346.84zM250.06 346.84H247a9.18 9.18 0 01-9.19-9.19v-3a9.18 9.18 0 019.19-9.18h3.1z"></path><circle cx="287.15" cy="283.96" r="6.76" fill="#e1830e"></circle><path fill="#5e6175" d="M314,367.44H260.34A13.5,13.5,0,0,1,246.85,354V319.62a13.5,13.5,0,0,1,13.49-13.49H314a13.51,13.51,0,0,1,13.49,13.49V354A13.51,13.51,0,0,1,314,367.44Zm-53.63-55.31a7.5,7.5,0,0,0-7.49,7.49V354a7.5,7.5,0,0,0,7.49,7.49H314a7.5,7.5,0,0,0,7.49-7.49V319.62a7.5,7.5,0,0,0-7.49-7.49Z"></path><path fill="#5e6175" d="M272.54 340.76a10.85 10.85 0 1110.85-10.84A10.86 10.86 0 01272.54 340.76zm0-15.69a4.85 4.85 0 104.85 4.85A4.85 4.85 0 00272.54 325.07zM301.76 340.76a10.85 10.85 0 1110.85-10.84A10.85 10.85 0 01301.76 340.76zm0-15.69a4.85 4.85 0 104.85 4.85A4.85 4.85 0 00301.76 325.07z"></path><rect width="11.84" height="6" x="281.23" y="346.75" fill="#5e6175"></rect><path fill="#5e6175" d="M327.56 349.84h-6.1V322.48h6.1a12.19 12.19 0 0112.18 12.18v3A12.2 12.2 0 01327.56 349.84zm-.1-6a6.19 6.19 0 006.28-6.19v-3a6.18 6.18 0 00-6.18-6.18C327.41 328.48 327.46 327.29 327.46 343.84zM253.06 349.84H247a12.21 12.21 0 01-12.19-12.19v-3A12.2 12.2 0 01247 322.48h6.1zM247 328.48a6.19 6.19 0 00-6.19 6.18v3a6.19 6.19 0 006.29 6.19C247.06 327.26 247.11 328.48 247 328.48z"></path><rect width="6" height="18.41" x="284.15" y="290.72" fill="#5e6175"></rect><path fill="#5e6175" d="M287.15,293.72a9.77,9.77,0,1,1,9.77-9.76A9.77,9.77,0,0,1,287.15,293.72Zm0-13.53a3.77,3.77,0,1,0,3.77,3.77A3.77,3.77,0,0,0,287.15,280.19Z"></path><rect width="6" height="20.6" x="74.25" y="250.47" fill="#5e6175"></rect><rect width="6" height="20.6" x="47.32" y="257.87" fill="#5e6175" transform="rotate(-45 50.327 268.164)"></rect><rect width="20.6" height="6" x="93.39" y="263.89" fill="#5e6175" transform="rotate(-45 103.69 266.89)"></rect><path fill="#a9afc4" d="M383.26,477.84l-4.74-3.68c1.17-1.5,2.28-3.07,3.3-4.67l5.06,3.22C385.76,474.47,384.54,476.2,383.26,477.84Zm8.54-14.35-5.5-2.4c.76-1.74,1.45-3.54,2-5.34l5.7,1.87C393.39,459.6,392.64,461.58,391.8,463.49Zm4.72-16-5.93-1c.31-1.87.53-3.78.66-5.68l6,.41C397.09,443.31,396.85,445.41,396.52,447.46Zm.87-16.43h-6v-6h6Zm0-16h-6v-6h6Zm0-16h-6v-6h6Zm0-16h-6v-6h6Z"></path><path fill="#5e6175" d="M451 225.7c-7.23-7.86-1.35-20.69 9.38-20.24A12.07 12.07 0 11451 225.7zm4.42-4.06a6.07 6.07 0 104.71-10.18h0A6.08 6.08 0 00455.43 221.64zM417.25 272.61a9.3 9.3 0 11.38-18.59h0a9.2 9.2 0 016.46 3A9.32 9.32 0 01417.25 272.61zm0-12.6a3.3 3.3 0 103.29 3.43A3.31 3.31 0 00417.25 260z"></path></g></svg>