<svg xmlns="http://www.w3.org/2000/svg" xmlns:xlink="http://www.w3.org/1999/xlink" viewBox="0 0 512 512" id="smart-home"><defs><linearGradient id="a" x1="250.85" x2="250.85" y1="407.25" y2="461.87" gradientUnits="userSpaceOnUse"><stop offset="0" stop-color="#cacfdd"></stop><stop offset="1" stop-color="#eef0f1"></stop></linearGradient><linearGradient xlink:href="#a" id="b" x1="251.49" x2="251.49" y1="199.96" y2="558.63"></linearGradient></defs><g style="isolation:isolate"><rect width="355.69" height="254.12" x="73.01" y="167.58" fill="#a9afc4" rx="16.33"></rect><rect width="316.45" height="217.02" x="92.63" y="186.13" fill="#f5f5f5"></rect><path fill="#a9afc4" d="M435.48,449.11H66.23A15.1,15.1,0,0,1,51.12,434V421.69H450.58V434A15.1,15.1,0,0,1,435.48,449.11Z"></path><path fill="#5e6175" d="M412.37,424.69h-323A19.35,19.35,0,0,1,70,405.36V183.91a19.35,19.35,0,0,1,19.33-19.33h323a19.35,19.35,0,0,1,19.33,19.33V405.36A19.35,19.35,0,0,1,412.37,424.69Zm-323-254.11A13.35,13.35,0,0,0,76,183.91V405.36a13.35,13.35,0,0,0,13.33,13.33h323a13.35,13.35,0,0,0,13.33-13.33V183.91a13.35,13.35,0,0,0-13.33-13.33Z"></path><path fill="url(#a)" d="M270.17,435.4H231.53a12.81,12.81,0,0,1-12.81-12.81v-.9H283v.9A12.82,12.82,0,0,1,270.17,435.4Z" style="mix-blend-mode:multiply"></path><path fill="#5e6175" d="M435.48,452.11H66.23A18.13,18.13,0,0,1,48.12,434V418.69H453.58V434A18.12,18.12,0,0,1,435.48,452.11ZM54.12,424.69V434a12.12,12.12,0,0,0,12.11,12.11H435.48A12.12,12.12,0,0,0,447.58,434v-9.31Z"></path><rect width="6" height="19.17" x="55.44" y="145.26" fill="#5e6175" transform="rotate(-45 58.447 154.84)"></rect><rect width="19.18" height="6" x="36" y="174.43" fill="#5e6175"></rect><rect width="6" height="19.17" x="76.87" y="131.88" fill="#5e6175"></rect><rect width="423.42" height="6" x="39.52" y="446.11" fill="#5e6175"></rect><path fill="#a9afc4" d="M479,435.17h-6v-6h6Zm0-16h-6v-6h6ZM470.51,406a10.2,10.2,0,0,0-3.72-2.65l2.26-5.55a16,16,0,0,1,6,4.24ZM457,401.41a16.22,16.22,0,0,1-6-4.22l4.49-4a10.25,10.25,0,0,0,3.74,2.64Zm-4-15.41h-6v-6h6Zm0-16h-6v-6h6Zm0-16h-6v-6h6Z"></path><path fill="url(#b)" d="M378.74,343.66A53.73,53.73,0,0,1,272.1,353H161.56V253H109.27l87.61-85.4H305.25L393.7,253H340.14V292.1A53.81,53.81,0,0,1,378.74,343.66Z" style="mix-blend-mode:multiply"></path><path fill="#5e6175" d="M363.65,240.84H323.78L250.85,170l-72.93,70.88H139.11L250.84,131.92Zm-37.43-6H348.8l-97.94-94.56-97,94.56h21.63l75.36-73.24Z"></path><polygon fill="#5e6175" points="250.85 136.1 146.49 237.84 176.7 237.84 250.85 165.78 325 237.84 356.23 237.84 250.85 136.1"></polygon><polygon fill="#dee1ec" points="176.7 237.84 176.7 337.9 325 337.9 325 237.84 250.85 165.78 176.7 237.84"></polygon><path fill="#5e6175" d="M328,340.9H173.7V236.57l77.15-75,77.15,75Zm-148.3-6H322V239.11L250.85,170,179.7,239.11Z"></path><path fill="#e1830e" d="M335.71,148.59H319.94a36.34,36.34,0,0,0-36.3-36.3V96.52A52.13,52.13,0,0,1,335.71,148.59Z"></path><path fill="#e1830e" d="M369.34 148.59H353.57a70 70 0 00-69.93-69.93V62.89A85.8 85.8 0 01369.34 148.59zM164 148.59h15.76a36.34 36.34 0 0136.3-36.3V96.52A52.12 52.12 0 00164 148.59z"></path><path fill="#e1830e" d="M130.36,148.59h15.76a70,70,0,0,1,69.93-69.93V62.89A85.79,85.79,0,0,0,130.36,148.59Z"></path><rect width="37.97" height="47.27" x="230.39" y="290.63" fill="#f5f5f5"></rect><circle cx="249.37" cy="236.17" r="14.01" fill="#a9afc4"></circle><path fill="#5e6175" d="M271.36 340.9h-44V287.63h44zm-38-6h32V293.63h-32zM249.37 253.18a17 17 0 1117-17A17 17 0 01249.37 253.18zm0-28a11 11 0 1011 11A11 11 0 00249.37 225.15z"></path><circle cx="325" cy="343.65" r="38.6" fill="#f5f5f5"></circle><path fill="#5e6175" d="M325,385.26a41.61,41.61,0,1,1,41.6-41.61A41.65,41.65,0,0,1,325,385.26Zm0-77.21a35.61,35.61,0,1,0,35.6,35.6A35.64,35.64,0,0,0,325,308.05Z"></path><path fill="#e1830e" d="M307.63 345.69l-7.6-7.6a35.3 35.3 0 0149.94 0l-7.6 7.6A24.55 24.55 0 00307.63 345.69zM334.14 353.78L325 362.92l-9.14-9.14A12.92 12.92 0 01334.14 353.78z"></path></g></svg>