<svg xmlns="http://www.w3.org/2000/svg" xmlns:xlink="http://www.w3.org/1999/xlink" viewBox="0 0 512 512" id="something-wrong"><defs><linearGradient id="a" x1="236.39" x2="236.39" y1="373.41" y2="433.57" gradientUnits="userSpaceOnUse"><stop offset="0" stop-color="#cacfdd"></stop><stop offset="1" stop-color="#eef0f1"></stop></linearGradient><linearGradient xlink:href="#a" id="b" x1="300.66" x2="373.51" y1="170.8" y2="170.8"></linearGradient></defs><g><path fill="#f5f5f5" d="M173.06,363.46v60a17.32,17.32,0,0,0,17.32,17.33h92a17.33,17.33,0,0,0,17.33-17.33v-60Z"></path><path fill="url(#a)" d="M272.38,382.19v10.3a6.1,6.1,0,0,1-6.09,6.1,6.11,6.11,0,0,0-4.78,2.3L258.25,405a6.08,6.08,0,0,1-4.76,2.31H219.31a6.09,6.09,0,0,1-4.77-2.31l-3.26-4.09a6.11,6.11,0,0,0-4.78-2.3,6.1,6.1,0,0,1-6.09-6.1v-10.3a5.86,5.86,0,0,0,5.85,5.86h6.25a10.43,10.43,0,0,0,10.43,10.54h26.77a10.44,10.44,0,0,0,10.44-10.54h6.38A5.86,5.86,0,0,0,272.38,382.19Z" style="mix-blend-mode:multiply"></path><path fill="#f5f5f5" d="M285.6,106.31V98.37a10,10,0,1,0-20.09,0v12.07a8.26,8.26,0,0,1-8.27,8.26h-.94a8.26,8.26,0,0,1-8.27-8.26V71.91a9.3,9.3,0,0,0-9.3-9.31h-1a9.31,9.31,0,0,0-9.31,9.31V129.2a8.27,8.27,0,1,1-16.53,0V100.75a9.31,9.31,0,1,0-18.61,0,23.21,23.21,0,0,1-14.37,21.51c-52.24,21.36-86.11,72.53-86.48,132.37a36,36,0,0,1,72,.93,36,36,0,1,1,72,0,36,36,0,0,1,72,0,36,36,0,0,1,71.95-.93C380,198.92,345,150.71,298.4,127.09A23.3,23.3,0,0,1,285.6,106.31Z"></path><path fill="url(#b)" d="M373.51,213.24c-43.3-3.81-75.64-41.91-72.66-84.87C334.26,146.09,361.41,176.54,373.51,213.24Z" style="mix-blend-mode:multiply"></path><path fill="#a9afc4" d="M164.46 253.22v2.28a36 36 0 00-72-.93c.38-59.84 34.24-111 86.48-132.37a23.22 23.22 0 0014.37-21.51 9.31 9.31 0 1118.61 0v22.1C156.06 188.79 164.46 253.22 164.46 253.22zM308.37 253.28l-.07 0a36 36 0 00-71.9 2.26c0-1.07-.08 16.7-.08-192.84a12.52 12.52 0 012.41-.12 9.3 9.3 0 019.3 9.31v38.53a8.26 8.26 0 008.27 8.26h.94a8.23 8.23 0 005.38-2C317.44 188 308.37 253.28 308.37 253.28z"></path><path fill="#5e6175" d="M282.41,443.82h-92a20.35,20.35,0,0,1-20.33-20.33v-63H302.74v63A20.35,20.35,0,0,1,282.41,443.82ZM176.05,366.46v57a14.35,14.35,0,0,0,14.33,14.33h92a14.35,14.35,0,0,0,14.33-14.33v-57Z"></path><path fill="#5e6175" d="M301.25,366.46H171.54L89.46,255.62v-1.9h4.23l1.18-.88,79.7,107.62H298.22c83.09-112.2,79.11-106.62,79.11-107.18h.27l.32-.44.59.44h4.82v2.34Z"></path><polygon fill="#5e6175" points="239.4 366.46 212.93 366.46 161.43 256.22 161.43 253.28 167.43 253.28 167.43 254.89 216.75 360.46 233.4 360.46 233.4 255.56 239.4 255.56 239.4 366.46"></polygon><polygon fill="#5e6175" points="259.86 366.46 233.4 366.46 233.4 255.56 239.4 255.56 239.4 360.46 256.04 360.46 305.37 254.89 305.37 253.28 311.37 253.28 311.37 256.22 259.86 366.46"></polygon><path fill="#5e6175" d="M266.53 391H206.27a8.86 8.86 0 01-8.86-8.85V363.46h6v18.73a2.86 2.86 0 002.86 2.85h60.26a2.86 2.86 0 002.85-2.85V363.46h6v18.73A8.86 8.86 0 01266.53 391zM311.38 255.56h-6a33 33 0 00-66 0h-6a33 33 0 10-66 0h-6a33 33 0 00-66-.85l-6-.1c.38-61.06 35-113.31 88.34-135.13a20.12 20.12 0 0012.51-18.73 12.31 12.31 0 1124.61 0V129.2a5.27 5.27 0 1010.53 0V71.91A12.32 12.32 0 01237.76 59.6h1A12.32 12.32 0 01251 71.91v38.53a5.27 5.27 0 005.27 5.26h.94a5.27 5.27 0 005.27-5.26V98.37a13 13 0 1126.09 0v7.94a20.24 20.24 0 0011.16 18.11c49 24.84 83.22 74.77 83.57 130.19l-6 .1a33 33 0 00-65.95.85zm-146.95-15a39 39 0 0172 0 39 39 0 0172 0c11.57-27.66 48.52-32.28 66.67-9.18-8.07-42.43-37-80.79-78-101.61a26.22 26.22 0 01-14.44-23.46V98.37a7 7 0 10-14.09 0v12.07a11.27 11.27 0 01-11.27 11.26h-.94A11.28 11.28 0 01245 110.44V71.91a6.31 6.31 0 00-6.3-6.31h-1a6.32 6.32 0 00-6.31 6.31V129.2a11.27 11.27 0 11-22.53 0V100.75a6.31 6.31 0 10-12.61 0A26.11 26.11 0 01180.07 125c-44.8 18.32-75.28 58.75-82.79 106.94C115.18 208.24 152.74 212.62 164.43 240.56z"></path><rect width="6" height="30.75" x="201.9" y="36" fill="#5e6175"></rect><rect width="6" height="46.13" x="298.09" y="45.82" fill="#5e6175"></rect><rect width="6" height="14.45" x="262.76" y="57.92" fill="#5e6175"></rect><rect width="6" height="36.32" x="172.13" y="66.75" fill="#5e6175"></rect><path fill="#5e6175" d="M249.71 398.59H222.94a10.44 10.44 0 010-20.87h26.77a10.44 10.44 0 010 20.87zM74.09 170.27A9.48 9.48 0 1183.3 158.5 9.48 9.48 0 0174.09 170.27zm0-13a3.47 3.47 0 103 5.26A3.48 3.48 0 0074.11 157.32zM110.84 129.68a13 13 0 1112.63-16.14A13 13 0 01110.84 129.68zm0-20a7 7 0 101.69 13.77h0a7 7 0 00-1.69-13.77z"></path><rect width="6" height="18.14" x="316.53" y="445.21" fill="#5e6175" transform="rotate(-45 319.512 454.264)"></rect><rect width="18.14" height="6" x="322.62" y="429.91" fill="#5e6175"></rect><rect width="6" height="18.14" x="296.26" y="457.86" fill="#5e6175"></rect><circle cx="380.59" cy="133.65" r="63.79" fill="#f5f5f5"></circle><path fill="#5e6175" d="M380.59,200.43a66.79,66.79,0,1,1,66.78-66.78A66.86,66.86,0,0,1,380.59,200.43Zm0-127.57a60.79,60.79,0,1,0,60.78,60.79A60.86,60.86,0,0,0,380.59,72.86Z"></path><rect width="66.49" height="22.51" x="347.34" y="122.39" fill="#e1830e" transform="rotate(-45 380.588 133.645)"></rect><rect width="22.51" height="66.49" x="369.33" y="100.4" fill="#e1830e" transform="rotate(-45 380.588 133.645)"></rect><path fill="#a9afc4" d="M387.72 383.87h-6v-6h6zm-16 0h-6v-6h6zm-16 0h-6v-6h6zm-16 0h-6v-6h6zm-16 0h-6v-6h6zM405.26 383.88h-6v-6h6zm0-16h-6v-6h6zm0-16h-6v-6h6zm0-16h-6v-6h6zm0-16h-6v-6h6zm0-16h-6v-6h6zm0-16h-6v-6h6zm0-16h-6v-6h6zm0-16h-6v-6h6zm0-16h-6v-6h6zm0-16h-6v-6h6z"></path></g></svg>