<svg xmlns="http://www.w3.org/2000/svg" viewBox="0 0 512 512" id="speech-recognition"><defs><linearGradient id="a" x1="357.82" x2="357.82" y1="230.48" y2="368.86" gradientUnits="userSpaceOnUse"><stop offset="0" stop-color="#cacfdd"></stop><stop offset="1" stop-color="#eef0f1"></stop></linearGradient></defs><g style="isolation:isolate"><path fill="#5e6175" d="M322.52 425.87a11.42 11.42 0 1119.15 8.87A11.41 11.41 0 01322.52 425.87zm11.41-4.94a5.42 5.42 0 103.68 9.4A5.41 5.41 0 00333.93 420.93zM276.27 373.64a8.85 8.85 0 1114.83 6.88A8.84 8.84 0 01276.27 373.64zm8.83-2.48A2.85 2.85 0 10287 376.1 2.86 2.86 0 00285.1 371.16z"></path><path fill="#a9afc4" d="M39,161.86H33c0-4,0-4.75,0-6.08l6,.16C39,157.31,39,158,39,161.86Zm.9-15.47L34,145.45c.33-2,.74-4.1,1.22-6.12L41,140.74C40.58,142.6,40.2,144.5,39.9,146.39Zm4-14.81-5.59-2.17c.75-1.94,1.58-3.87,2.48-5.73l5.4,2.61C45.35,128,44.58,129.78,43.88,131.58Zm7-13.65-5-3.29c1.14-1.73,2.35-3.44,3.62-5.07l4.75,3.67C53.07,114.75,52,116.33,50.9,117.93Zm9.71-11.87-4.22-4.27c1.47-1.46,3-2.87,4.6-4.21l3.87,4.59C63.4,103.4,62,104.71,60.61,106.06Zm12-9.6-3.25-5c1.74-1.12,3.55-2.19,5.38-3.16l2.83,5.29C75.85,94.45,74.18,95.43,72.58,96.46Zm13.69-6.87L84.16,84c1.94-.72,3.93-1.38,5.92-2l1.66,5.77C89.9,88.31,88.06,88.92,86.27,89.59Zm14.84-3.84-.88-5.94c2-.3,4.13-.53,6.2-.67l.41,6C104.93,85.26,103,85.47,101.11,85.75ZM122.63,85h-6V79h6Z"></path><path fill="#dee1ec" d="M404.34,157V292.47a53,53,0,0,1-53,53H157.71l-46.22,46.22V345.45a53,53,0,0,1-53-53V157a53,53,0,0,1,53-53H351.37A53,53,0,0,1,404.34,157Z"></path><path fill="url(#a)" d="M404.34,252.07v40.4a53,53,0,0,1-53,53h-40C309,295.08,351,250.14,404.34,252.07Z" style="mix-blend-mode:multiply"></path><path fill="#5e6175" d="M108.49,398.91V348.37a56,56,0,0,1-53-55.89V157a56,56,0,0,1,56-56H351.37a56,56,0,0,1,56,56V292.48a56,56,0,0,1-56,56H159Zm3-291.89a50,50,0,0,0-50,50V292.48a50,50,0,0,0,50,50h3v42l42-42h194.9a50,50,0,0,0,50-50V157a50,50,0,0,0-50-50Z"></path><circle cx="401.21" cy="341.9" r="74.79" fill="#f5f5f5"></circle><path fill="#5e6175" d="M401.21,419.68A77.79,77.79,0,1,1,479,341.9,77.87,77.87,0,0,1,401.21,419.68Zm0-149.57A71.79,71.79,0,1,0,473,341.9,71.86,71.86,0,0,0,401.21,270.11Z"></path><path fill="#e1830e" d="M440.08 339.89A43.16 43.16 0 00397 298.8v19a24.14 24.14 0 0124 22.1H405.81L430.92 360l23.45-20.12zM380.32 339.89c-.1 0 .05 0 16.3 0l-25.11-20.13-23.45 20.13c13.07 0 13.32-.06 13.22 0A43.15 43.15 0 00404.34 385V366A24.13 24.13 0 01380.32 339.89zM107.78 251.62a7.55 7.55 0 01-7.56-7.56V210a7.56 7.56 0 0115.12 0v34.07A7.56 7.56 0 01107.78 251.62zM143.31 279.93a7.57 7.57 0 01-7.56-7.56V181.69a7.56 7.56 0 0115.12 0v90.68A7.56 7.56 0 01143.31 279.93zM178.85 289.36a7.55 7.55 0 01-7.56-7.56V172.25a7.56 7.56 0 0115.12 0V281.8A7.55 7.55 0 01178.85 289.36zM214.39 298.8a7.56 7.56 0 01-7.56-7.56V162.82a7.56 7.56 0 1115.12 0V291.24A7.57 7.57 0 01214.39 298.8zM249.92 242.19a7.57 7.57 0 01-7.56-7.56v-15.2a7.56 7.56 0 0115.12 0v15.2A7.56 7.56 0 01249.92 242.19zM285.46 265.78a7.56 7.56 0 01-7.56-7.57V195.84a7.56 7.56 0 0115.12 0v62.37A7.57 7.57 0 01285.46 265.78zM321 298.8a7.57 7.57 0 01-7.56-7.56V162.82a7.57 7.57 0 0115.13 0V291.24A7.57 7.57 0 01321 298.8zM356.53 246.91a7.57 7.57 0 01-7.56-7.56V214.71a7.56 7.56 0 0115.12 0v24.64A7.56 7.56 0 01356.53 246.91z"></path><rect width="19.12" height="6" x="403.48" y="96.62" fill="#5e6175" transform="rotate(-45 413.041 99.613)"></rect><rect width="6" height="19.12" x="387.52" y="77.24" fill="#5e6175"></rect><rect width="19.12" height="6" x="416.81" y="117.98" fill="#5e6175"></rect></g></svg>