<svg xmlns="http://www.w3.org/2000/svg" viewBox="0 0 512 512" id="stamp"><defs><linearGradient id="a" x1="223.07" x2="223.07" y1="155.54" y2="339.08" gradientUnits="userSpaceOnUse"><stop offset="0" stop-color="#cacfdd"></stop><stop offset="1" stop-color="#eef0f1"></stop></linearGradient></defs><g style="isolation:isolate"><path fill="#5e6175" d="M317.09,443.94H123a28.24,28.24,0,0,1-28.2-28.21v-3.27H345.29v3.27A28.24,28.24,0,0,1,317.09,443.94ZM101,418.46a22.24,22.24,0,0,0,22,19.48H317.09a22.25,22.25,0,0,0,22-19.48Z"></path><path fill="#5e6175" d="M317.09,440.94H123a25.21,25.21,0,0,1-25.2-25.21c0-.42-11.67-.27,244.48-.27A25.2,25.2,0,0,1,317.09,440.94Z"></path><rect width="288.33" height="73.63" x="75.83" y="341.83" fill="#a9afc4"></rect><path fill="#5e6175" d="M367.16,418.46H72.83V338.83H367.16Zm-288.33-6H361.16V344.83H78.83Z"></path><rect width="432.14" height="6" x="36.08" y="437.94" fill="#5e6175"></rect><circle cx="390.06" cy="214.66" r="66.29" fill="#f5f5f5"></circle><path fill="#5e6175" d="M390.06,284a69.3,69.3,0,1,1,69.29-69.3A69.38,69.38,0,0,1,390.06,284Zm0-132.59a63.3,63.3,0,1,0,63.29,63.29A63.36,63.36,0,0,0,390.06,151.37Z"></path><path fill="#e1830e" d="M396.14,191.39a8.59,8.59,0,0,0,6.08,2.52,8.59,8.59,0,0,1,8.59,8.59,8.61,8.61,0,0,0,2.52,6.08,8.59,8.59,0,0,1,0,12.16,8.61,8.61,0,0,0-2.52,6.08,8.59,8.59,0,0,1-8.59,8.6,8.61,8.61,0,0,0-6.08,2.52,8.59,8.59,0,0,1-12.16,0,8.62,8.62,0,0,0-6.08-2.52,8.59,8.59,0,0,1-8.6-8.6,8.62,8.62,0,0,0-2.52-6.08,8.59,8.59,0,0,1,0-12.16,8.59,8.59,0,0,0,2.52-6.08,8.59,8.59,0,0,1,8.6-8.59,8.64,8.64,0,0,0,6.08-2.52A8.59,8.59,0,0,1,396.14,191.39Z"></path><circle cx="390.06" cy="214.66" r="11.08" fill="#f5f5f5"></circle><path fill="#a9afc4" d="M405.84,381.65v-6a29.62,29.62,0,0,0,5.5-.29l1,5.92A34.74,34.74,0,0,1,405.84,381.65Zm-10,0h-6v-6h6Zm26.87-4.36-3.24-5.05a21.79,21.79,0,0,0,4.06-3.36l4.35,4.13A27.57,27.57,0,0,1,422.71,377.29Zm11.06-13.73-5.63-2.08a22,22,0,0,0,1.2-5.11l6,.65A27.77,27.77,0,0,1,433.77,363.56Zm1.7-16.86h-6v-6h6Zm0-16h-6v-6h6Zm0-16h-6v-6h6Zm.71-15.17-5.8-1.52a28,28,0,0,1,2.48-6.24l5.27,2.88A21.45,21.45,0,0,0,436.18,299.53ZM443.79,288,440,283.29c1.49-1.2,3-2.48,4.4-3.79l4.06,4.42C447,285.32,445.38,286.68,443.79,288Zm11.93-11.38-4.49-4c1.28-1.45,2.53-3,3.72-4.47l4.73,3.69C458.42,273.44,457.08,275,455.72,276.58Zm9.85-13.24-5.1-3.15c1-1.64,2-3.34,2.87-5l5.31,2.8C467.69,259.77,466.66,261.58,465.57,263.34Zm7.37-14.79-5.6-2.17c.7-1.79,1.34-3.63,1.91-5.47l5.73,1.78C474.37,244.66,473.68,246.63,472.94,248.55Zm4.52-15.89-5.89-1.11c.35-1.88.64-3.81.88-5.73l5.95.71C478.16,228.59,477.84,230.65,477.46,232.66Z"></path><path fill="#5e6175" d="M86.74 299.32a13.93 13.93 0 01-13.91-13.41h0a13.93 13.93 0 1113.91 13.41zm0-21.86a7.94 7.94 0 00-7.94 8.23h0a7.94 7.94 0 107.94-8.23zM143.12 253.47a10.59 10.59 0 01-10.58-10.19h0a10.59 10.59 0 1110.58 10.19zm-4.58-10.41a4.59 4.59 0 107.71-3.54 4.58 4.58 0 00-7.71 3.54z"></path><path fill="#dee1ec" d="M277.87,283.25a90.93,90.93,0,0,1-28.4-66.47V213.3c0-17.88,5.78-38,16.39-52.85a54.63,54.63,0,0,0,11.91-28.65c3.45-31.05-21-60.74-54.55-60.74a54.82,54.82,0,0,0-53,69.06c1.95,7.31,5.51,13.56,9.85,19.67,10.84,15.29,16.61,34.84,16.61,53.51v3.48a91,91,0,0,1-28.39,66.47c-17.73,16.61-36.13,21.68-36.13,21.68v36.9H314v-36.9S295.58,299.86,277.87,283.25Z"></path><path fill="url(#a)" d="M314,304.93H132.16s18.4-5.07,36.13-21.68a91,91,0,0,0,28.39-66.47V213.3c0-18.39-5.6-37.64-16.12-52.81a54.81,54.81,0,0,0,85.26-.29.17.17,0,0,1,0,.25c-9.16,12.22-16.39,33-16.39,52.85v3.48a90.93,90.93,0,0,0,28.4,66.47C295.58,299.86,314,304.93,314,304.93Z" style="mix-blend-mode:multiply"></path><path fill="#5e6175" d="M317,344.83H129.16V302.65c13.37-3.69,27-12.19,37.08-21.59a88.24,88.24,0,0,0,27.44-64.28V213.3c0-18.51-5.85-37.38-16.06-51.77-5.32-7.51-8.49-13.87-10.29-20.64a57.8,57.8,0,0,1,55.89-72.83,57.87,57.87,0,0,1,45,94.21c-9.89,13.87-15.78,32.94-15.78,51v3.48a88.17,88.17,0,0,0,27.45,64.28h0c10.23,9.6,23.86,17.92,37.06,21.59Zm-181.82-6H311V307.12c-21.77-7.48-37.27-23.78-35.16-21.68a94.17,94.17,0,0,1-29.35-68.66V213.3c0-19.32,6.33-39.73,17-54.59l.11-.15a51.54,51.54,0,0,0,11.25-27.08C277.27,109.13,263.9,86.63,243,78a52.1,52.1,0,0,0-65.89,24.13,52.74,52.74,0,0,0-4,37.25c1.61,6,4.51,11.81,9.4,18.71,10.9,15.38,17.16,35.51,17.16,55.24v3.48a94.26,94.26,0,0,1-29.34,68.66,101.8,101.8,0,0,1-35.18,21.68Z"></path><path fill="#e1830e" d="M295.25 141.33a21.09 21.09 0 0121.09 21.09 21.08 21.08 0 0121.09-21.09 21.09 21.09 0 01-21.09-21.09A21.09 21.09 0 01295.25 141.33zM426.13 404.25A14.88 14.88 0 01441 419.13a14.88 14.88 0 0114.88-14.88A14.89 14.89 0 01441 389.36 14.89 14.89 0 01426.13 404.25z"></path><polygon fill="#e1830e" points="361.59 198.55 355.59 198.55 355.59 179.82 375.05 179.82 375.05 185.82 361.59 185.82 361.59 198.55"></polygon><polygon fill="#e1830e" points="424.52 198.55 418.52 198.55 418.52 185.82 405.06 185.82 405.06 179.82 424.52 179.82 424.52 198.55"></polygon><polygon fill="#e1830e" points="424.52 249.51 405.06 249.51 405.06 243.51 418.52 243.51 418.52 230.78 424.52 230.78 424.52 249.51"></polygon><polygon fill="#e1830e" points="375.05 249.51 355.59 249.51 355.59 230.78 361.59 230.78 361.59 243.51 375.05 243.51 375.05 249.51"></polygon></g></svg>