<svg xmlns="http://www.w3.org/2000/svg" xmlns:xlink="http://www.w3.org/1999/xlink" viewBox="0 0 512 512" id="sticky-note"><defs><linearGradient id="a" x1="79.38" x2="341.45" y1="249.17" y2="249.17" gradientUnits="userSpaceOnUse"><stop offset="0" stop-color="#cacfdd"></stop><stop offset="1" stop-color="#eef0f1"></stop></linearGradient><linearGradient id="b" x1="136.44" x2="273.32" y1="375.78" y2="375.78" gradientUnits="userSpaceOnUse"><stop offset="0" stop-color="#a9afc4"></stop><stop offset="1" stop-color="#d4d8e5"></stop></linearGradient><linearGradient xlink:href="#a" id="c" x1="335.16" x2="383.17" y1="130.72" y2="130.72"></linearGradient><linearGradient xlink:href="#a" id="d" x1="360.71" x2="388.08" y1="109.61" y2="109.61"></linearGradient></defs><g style="isolation:isolate"><rect width="283.66" height="275.69" x="57.79" y="111.33" fill="#dee1ec"></rect><rect width="283.66" height="275.68" x="57.79" y="111.33" fill="#dee1ec"></rect><polygon fill="url(#a)" points="341.45 111.33 341.45 387.01 120.62 387.01 79.38 138.7 244.16 111.33 341.45 111.33" style="mix-blend-mode:multiply"></polygon><path fill="#5e6175" d="M344.45,390H54.79V108.33H344.45ZM60.79,384H338.45V114.33H60.79Z"></path><polygon fill="#dee1ec" points="377.54 105.34 424.64 388.96 267.52 415.05 136.65 386.31 97.71 151.81 377.54 105.34"></polygon><polygon fill="#a9afc4" points="344.74 188.78 157.54 220.38 152.91 192.62 340.11 161.02 344.74 188.78"></polygon><polygon fill="#a9afc4" points="293.82 261.6 169.89 282.51 165.26 254.75 288.28 233.99 293.82 261.6"></polygon><path fill="url(#b)" d="M273.32,414.09l-5.8,1L136.65,386.31l-.21-1.3c9.5-1.77,34.68-10.07,36-48.51Z"></path><path fill="#5e6175" d="M267.44,418.11,134,388.8l-1-6.2,2.89-.54c9.68-1.8,32.32-9.85,33.55-45.67l.2-5.83,111,85.36ZM146,385.29l118.91,26.12-89.85-69.12C173.08,361.94,163.92,378,146,385.29Z"></path><path fill="url(#c)" d="M383.17,139.22c-6.4,6.27-10.91,9.63-20,16.88l-28-18.88c3.46-11.67,4.93-17.32,8.75-26.3l33.63-5.58Z" style="mix-blend-mode:multiply"></path><path fill="#a9afc4" d="M39,144.92H33v-6h6Zm0-16H33v-6h6Zm0-15.87-6-.26a29.32,29.32,0,0,1,1-6.6l5.78,1.63A23,23,0,0,0,39,113.05ZM43.82,100,39.08,96.3a29.33,29.33,0,0,1,4.68-4.77l3.77,4.67A23.28,23.28,0,0,0,43.82,100Zm11.47-7.9-1.74-5.74a28.69,28.69,0,0,1,6.57-1.19l.38,6A23,23,0,0,0,55.29,92.08Zm83.79-1h-4.77v-6h4.77Zm-14.77,0h-6v-6h6Zm-16,0h-6v-6h6Zm-16,0h-6v-6h6Zm-16,0h-6v-6h6Z"></path><path fill="#e1830e" d="M269.14 74.93a17.78 17.78 0 0117.78 17.78A17.77 17.77 0 01304.7 74.93a17.77 17.77 0 01-17.78-17.77A17.77 17.77 0 01269.14 74.93zM92.6 435.92a29.78 29.78 0 0129.78 29.78 29.79 29.79 0 0129.79-29.78 29.79 29.79 0 01-29.79-29.79A29.78 29.78 0 0192.6 435.92z"></path><path fill="#5e6175" d="M466.12 390.14a12.84 12.84 0 01-12.4-9.57c-2.93-11.09 9.09-20.09 18.89-14.38a12.7 12.7 0 016 7.82h0A12.87 12.87 0 01466.12 390.14zm0-19.7a6.85 6.85 0 106.61 5.1h0A6.84 6.84 0 00466.16 370.44zM424.94 435.62a9.84 9.84 0 115-18.35 9.75 9.75 0 014.57 6h0A9.86 9.86 0 01424.94 435.62zm0-13.68a3.84 3.84 0 103.71 2.85h0A3.85 3.85 0 00425 421.94zM267.44 418.11L134 388.8 94.26 149.34 380 101.89c.83 5 47.36 285.23 48.08 289.54zM139.28 383.82L267.6 412l153.59-25.51-46.12-277.7L101.16 154.27z"></path><path fill="#f5f5f5" d="M370,96.27a124.3,124.3,0,0,0-16.15,34.25l8.53,5.75a124.67,124.67,0,0,0,25.71-27.81Z"></path><path fill="#f5f5f5" d="M388.08,108.46a125.17,125.17,0,0,1-25.71,27.81l-8.53-5.75A125,125,0,0,1,370,96.27Z"></path><rect width="6" height="62.07" x="376.42" y="71.6" fill="#5e6175" transform="rotate(-56.02 379.395 102.637)"></rect><rect width="6" height="38.85" x="408.15" y="37.73" fill="#5e6175" transform="rotate(-56.02 411.12 57.166)"></rect><path fill="#e1830e" d="M409.54,79.47l10.84-16.09L400.48,50,389.63,66.05l-18.22,8.46L360.88,90.13l37.12,25,10.53-15.62Z"></path><path fill="#5e6175" d="M398.81,119.32,356.72,91l12.67-18.8,18.22-8.47L399.67,45.8l24.88,16.77L412.49,80.46l-1,20.06Zm-33.76-30L397.19,111l8.39-12.44,1-20.06,9.64-14.3L401.29,54.13l-9.64,14.29-18.22,8.46Z"></path><path fill="url(#d)" d="M388.08,108.46A123.25,123.25,0,0,1,376.63,123l-15.92-10.39A125.23,125.23,0,0,1,370,96.27Z" style="mix-blend-mode:multiply"></path><path fill="#5e6175" d="M362.52,140l-12.18-8.22c5.15-17.36,10.53-27.33,18.8-39.61,3.5,2.25-.54-.44,23.1,15.49C382.06,122.76,374.27,130.63,362.52,140Zm-5.16-10.72,4.85,3.27a121.19,121.19,0,0,0,21.67-23.29l-13.05-8.79A121.35,121.35,0,0,0,357.36,129.27Z"></path></g></svg>