<svg xmlns="http://www.w3.org/2000/svg" xmlns:xlink="http://www.w3.org/1999/xlink" viewBox="0 0 512 512" id="store"><defs><linearGradient id="a" x1="243.58" x2="243.58" y1="233.61" y2="308.1" gradientUnits="userSpaceOnUse"><stop offset="0" stop-color="#cacfdd"></stop><stop offset="1" stop-color="#eef0f1"></stop></linearGradient><linearGradient xlink:href="#a" id="b" x1="102.63" x2="102.63" y1="231.91" y2="282.87"></linearGradient><linearGradient xlink:href="#a" id="c" x1="382.04" x2="382.04" y1="231.91" y2="282.87"></linearGradient><linearGradient xlink:href="#a" id="d" x1="242.03" x2="242.03" y1="231.91" y2="282.87"></linearGradient><linearGradient xlink:href="#a" id="e" x1="307.25" x2="390.91" y1="133.36" y2="133.36"></linearGradient></defs><g style="isolation:isolate"><rect width="294.68" height="245.93" x="96.24" y="190.93" fill="#f5f5f5"></rect><path fill="url(#a)" d="M390.92,216.21v84.92a49.76,49.76,0,0,1-43.06-12.8,50.64,50.64,0,0,1-69.83-.74,52.38,52.38,0,0,1-72,0,50.66,50.66,0,0,1-69.65.91,49.09,49.09,0,0,1-40.14,13V216.21Z" style="mix-blend-mode:multiply"></path><rect width="294.68" height="111.07" x="96.24" y="79.86" fill="#f5f5f5"></rect><rect width="294.67" height="111.07" x="96.24" y="79.86" fill="#f5f5f5"></rect><rect width="243.98" height="60.38" x="121.59" y="105.2" fill="#dee1ec"></rect><path fill="#5e6175" d="M393.92,439.86H93.24V187.93H393.92Zm-294.68-6H387.92V193.93H99.24Z"></path><rect width="337.09" height="6" x="53.82" y="433.86" fill="#5e6175"></rect><rect width="69.57" height="111.53" x="135.94" y="325.33" fill="#dee1ec"></rect><path fill="#5e6175" d="M208.51,439.86H132.94V322.33h75.57Zm-69.57-6h63.57V328.33H138.94Z"></path><rect width="105.66" height="55.76" x="245.43" y="325.33" fill="#a9afc4"></rect><rect width="125.95" height="15.98" x="235.69" y="381.09" fill="#5e6175"></rect><circle cx="154.63" cy="381.09" r="6.98" fill="#e1830e"></circle><path fill="url(#b)" d="M69.32,252.61v-20.4h66.62v20.4a33.31,33.31,0,0,1-66.62,0Z"></path><path fill="url(#c)" d="M416,252v-19.8H348.12V252A33.92,33.92,0,0,0,416,252Z"></path><path fill="url(#d)" d="M205.51,232.21v17.18a36.53,36.53,0,1,0,73.05,0V232.21Z"></path><path fill="#f5f5f5" d="M390.92,190.93H96.24L69.32,227.17v5H416v-5Z"></path><path fill="#5e6175" d="M102.63 288.92A36.36 36.36 0 0166.32 252.6V229.21h72.62V252.6A36.36 36.36 0 01102.63 288.92zM72.32 235.21V252.6a30.31 30.31 0 1060.62 0V235.21zM382 288.92A37 37 0 01345.12 252v-22.8H419V252A37 37 0 01382 288.92zm-30.92-53.71V252A30.92 30.92 0 00413 252v-16.8zM242 288.92a39.57 39.57 0 01-39.52-39.53V229.21h79.05v20.18A39.57 39.57 0 01242 288.92zm-33.52-53.71v14.18a33.53 33.53 0 1067.05 0V235.21z"></path><path fill="#5e6175" d="M419,235.21H66.32v-9l28.42-38.25H392.49L419,226.23Zm-346.63-6H413V228.1l-23.61-34.17H97.75L72.32,228.16Z"></path><path fill="#e1830e" d="M135.94,251.13V232.21h69.57v18.92a34.79,34.79,0,1,1-69.57,0Z"></path><polygon fill="#e1830e" points="135.94 232.21 154.14 190.93 216.74 190.93 205.51 232.21 135.94 232.21"></polygon><path fill="#5e6175" d="M170.73,288.92a37.83,37.83,0,0,1-37.79-37.79V229.21h75.57v21.92A37.83,37.83,0,0,1,170.73,288.92Zm-31.79-53.71v15.92a31.79,31.79,0,1,0,63.57,0V235.21Z"></path><path fill="#5e6175" d="M207.81,235.21H131.34l20.84-47.28h68.48Zm-67.27-6h62.68l9.59-35.28H156.09Z"></path><path fill="#e1830e" d="M348.12,251.13V232.21H278.55v18.92a34.79,34.79,0,1,0,69.57,0Z"></path><polygon fill="#e1830e" points="348.12 232.21 329.93 190.93 267.33 190.93 278.55 232.21 348.12 232.21"></polygon><path fill="#5e6175" d="M313.34,288.92a37.83,37.83,0,0,1-37.79-37.79V229.21h75.57v21.92A37.83,37.83,0,0,1,313.34,288.92Zm-31.79-53.71v15.92a31.79,31.79,0,1,0,63.57,0V235.21Z"></path><path fill="#5e6175" d="M352.72 235.21H276.26L263.4 187.93h68.48zm-71.87-6h62.67L328 193.93H271.25zM431.57 440.5a12.95 12.95 0 1112.89-11.92A12.95 12.95 0 01431.57 440.5zm0-19.89a6.94 6.94 0 106.92 7.49A7 7 0 00431.56 420.61zM383.38 475.51a9.93 9.93 0 1117.45-5.65A9.94 9.94 0 01383.38 475.51zm4.56-3.89a3.93 3.93 0 103.31-6.47h0A3.94 3.94 0 00387.94 471.62z"></path><rect width="6" height="18.31" x="77.2" y="53.41" fill="#5e6175" transform="rotate(-45 80.206 62.567)"></rect><rect width="18.31" height="6" x="58.77" y="81.13" fill="#5e6175"></rect><rect width="6" height="18.31" x="97.66" y="40.64" fill="#5e6175"></rect><path fill="url(#e)" d="M390.91,79.86v107c-55.78,0-95.86-53.8-80.27-107Z" style="mix-blend-mode:multiply"></path><path fill="#5e6175" d="M393.92,193.93H93.24V76.86H393.92Zm-294.68-6H387.92V82.86H99.24Z"></path><circle cx="390.92" cy="103.26" r="67.26" fill="#f5f5f5"></circle><path fill="#5e6175" d="M390.92,173.52a70.26,70.26,0,1,1,70.26-70.26A70.34,70.34,0,0,1,390.92,173.52Zm0-134.52a64.26,64.26,0,1,0,64.26,64.26A64.33,64.33,0,0,0,390.92,39Z"></path><path fill="#e1830e" d="M405 77.5V84h-6.31v-7a7.42 7.42 0 10-14.83 0v7h-6.31V77.5a13.73 13.73 0 1127.45 0zM414.36 84H367.47l-5.7 47.79h58.3z"></path><path fill="#a9afc4" d="M417 356.21v-6a31.27 31.27 0 005.51-.24l.95 5.93A36.25 36.25 0 01417 356.21zm-10 0h-6v-6h6zm26.89-4.56l-3.46-4.91a18.58 18.58 0 003.78-3.52l4.65 3.79A25.45 25.45 0 01433.92 351.65zm9.94-14.75L438 335.54a20.52 20.52 0 00.49-5.28h6A26.24 26.24 0 01443.86 336.9zm.64-16.64h-6v-6h6zm0-16h-6v-6h6zm0-16h-6v-6h6zm0-16h-6v-6h6zm0-16h-6v-6h6zm0-16h-6v-6h6zm0-16h-6v-6h6zm0-16h-6v-6h6zm0-16h-6v-6h6zm0-16h-6v-6h6zM379.06 356.21h-6v-6h6zm-16 0h-6v-6h6z"></path><rect width="6.26" height="6.03" x="377.52" y="84.07" fill="#f5f5f5"></rect><rect width="6.26" height="6.03" x="398.71" y="84.07" fill="#f5f5f5"></rect></g></svg>