<svg xmlns="http://www.w3.org/2000/svg" viewBox="0 0 512 512" id="template"><defs><linearGradient id="linear-gradient" x1="349.86" x2="421.41" y1="124.44" y2="124.44" gradientUnits="userSpaceOnUse"><stop offset="0" stop-color="#cacfdd"></stop><stop offset="1" stop-color="#eef0f1"></stop></linearGradient></defs><g style="isolation:isolate"><g id="Template"><path d="M421.41,130.8V431.88a19.59,19.59,0,0,1-19.59,19.61H92.12a19.59,19.59,0,0,1-19.59-19.61V130.8Z" fill="#f5f5f5"></path><path d="M401.81,88.12H92.12a19.6,19.6,0,0,0-19.59,19.6V130.8H421.41V107.72A19.6,19.6,0,0,0,401.81,88.12Z" fill="#5e6175"></path><circle cx="123.63" cy="109.46" r="7.43" fill="#f5f5f5"></circle><circle cx="97.54" cy="109.46" r="7.43" fill="#f5f5f5"></circle><rect width="68.82" height="68.82" x="116" y="332.32" rx="10.23" fill="#a9afc4"></rect><rect width="68.82" height="6" x="116" y="417.29" fill="#5e6175"></rect><path d="M174.59,404.14H126.24A13.25,13.25,0,0,1,113,390.91V342.56a13.26,13.26,0,0,1,13.24-13.24h48.35a13.26,13.26,0,0,1,13.24,13.24v48.35A13.25,13.25,0,0,1,174.59,404.14Zm-48.35-68.82a7.25,7.25,0,0,0-7.24,7.24v48.35a7.24,7.24,0,0,0,7.24,7.23h48.35a7.24,7.24,0,0,0,7.24-7.23V342.56a7.25,7.25,0,0,0-7.24-7.24Z" fill="#5e6175"></path><rect width="68.82" height="68.82" x="212.29" y="332.32" rx="10.23" fill="#dee1ec"></rect><rect width="68.82" height="6" x="212.29" y="415.03" fill="#5e6175"></rect><path d="M270.87,404.14H222.52a13.24,13.24,0,0,1-13.23-13.23V342.56a13.25,13.25,0,0,1,13.23-13.24h48.35a13.26,13.26,0,0,1,13.24,13.24v48.35A13.25,13.25,0,0,1,270.87,404.14Zm-48.35-68.82a7.24,7.24,0,0,0-7.23,7.24v48.35a7.23,7.23,0,0,0,7.23,7.23h48.35a7.24,7.24,0,0,0,7.24-7.23V342.56a7.25,7.25,0,0,0-7.24-7.24Z" fill="#5e6175"></path><rect width="68.82" height="68.82" x="308.57" y="332.32" rx="10.23" fill="#a9afc4"></rect><rect width="68.82" height="6" x="308.57" y="415.03" fill="#5e6175"></rect><path d="M367.16,404.14H318.8a13.25,13.25,0,0,1-13.23-13.23V342.56a13.25,13.25,0,0,1,13.23-13.24h48.36a13.25,13.25,0,0,1,13.23,13.24v48.35A13.25,13.25,0,0,1,367.16,404.14ZM318.8,335.32a7.25,7.25,0,0,0-7.23,7.24v48.35a7.24,7.24,0,0,0,7.23,7.23h48.36a7.23,7.23,0,0,0,7.23-7.23V342.56a7.24,7.24,0,0,0-7.23-7.24Z" fill="#5e6175"></path><rect width="68.82" height="68.82" x="116" y="214.74" rx="10.23" fill="#e1830e"></rect><rect width="68.82" height="6" x="116" y="299.71" fill="#5e6175"></rect><path d="M174.59,286.56H126.24A13.25,13.25,0,0,1,113,273.33V225a13.26,13.26,0,0,1,13.24-13.24h48.35A13.26,13.26,0,0,1,187.83,225v48.35A13.25,13.25,0,0,1,174.59,286.56Zm-48.35-68.82A7.25,7.25,0,0,0,119,225v48.35a7.24,7.24,0,0,0,7.24,7.23h48.35a7.24,7.24,0,0,0,7.24-7.23V225a7.25,7.25,0,0,0-7.24-7.24Z" fill="#5e6175"></path><rect width="68.82" height="68.82" x="212.29" y="214.74" rx="10.23" fill="#a9afc4"></rect><rect width="68.82" height="6" x="212.29" y="297.45" fill="#5e6175"></rect><path d="M270.87,286.56H222.52a13.24,13.24,0,0,1-13.23-13.23V225a13.25,13.25,0,0,1,13.23-13.24h48.35A13.26,13.26,0,0,1,284.11,225v48.35A13.25,13.25,0,0,1,270.87,286.56Zm-48.35-68.82a7.24,7.24,0,0,0-7.23,7.24v48.35a7.23,7.23,0,0,0,7.23,7.23h48.35a7.24,7.24,0,0,0,7.24-7.23V225a7.25,7.25,0,0,0-7.24-7.24Z" fill="#5e6175"></path><rect width="68.82" height="68.82" x="308.57" y="214.74" rx="10.23" fill="#e1830e"></rect><rect width="68.82" height="6" x="308.57" y="297.45" fill="#5e6175"></rect><path d="M367.16,286.56H318.8a13.25,13.25,0,0,1-13.23-13.23V225a13.25,13.25,0,0,1,13.23-13.24h48.36A13.25,13.25,0,0,1,380.39,225v48.35A13.25,13.25,0,0,1,367.16,286.56ZM318.8,217.74a7.25,7.25,0,0,0-7.23,7.24v48.35a7.24,7.24,0,0,0,7.23,7.23h48.36a7.23,7.23,0,0,0,7.23-7.23V225a7.24,7.24,0,0,0-7.23-7.24Z" fill="#5e6175"></path><rect width="65.35" height="22.31" x="116" y="162.82" fill="#a9afc4"></rect><rect width="65.35" height="22.31" x="181.35" y="162.82" fill="#a9afc4"></rect><rect width="65.35" height="22.31" x="246.7" y="162.82" fill="#a9afc4"></rect><rect width="65.35" height="22.31" x="312.04" y="162.82" fill="#a9afc4"></rect><path d="M184.35,188.13H113V159.82h71.35Zm-65.35-6h59.35V165.82H119Z" fill="#5e6175"></path><path d="M249.7,188.13H178.35V159.82H249.7Zm-65.35-6H243.7V165.82H184.35Z" fill="#5e6175"></path><path d="M315,188.13H243.7V159.82H315Zm-65.34-6H309V165.82H249.7Z" fill="#5e6175"></path><path d="M380.39,188.13H309V159.82h71.35Zm-65.35-6h59.35V165.82H315Z" fill="#5e6175"></path><path d="M421.41,107.72c0,41.12,0-23.79,0,52.93-41.51,2.18-74.35-32.79-71.35-72.53h51.76A19.6,19.6,0,0,1,421.41,107.72Z" style="mix-blend-mode:multiply" fill="url(#linear-gradient)"></path><path d="M424.41,133.8H69.52V107.72a22.63,22.63,0,0,1,22.6-22.6H401.81a22.63,22.63,0,0,1,22.6,22.6Zm-348.89-6H418.41V107.72a16.62,16.62,0,0,0-16.6-16.6H92.12a16.62,16.62,0,0,0-16.6,16.6Z" fill="#5e6175"></path><path d="M401.81,454.48H92.12a22.62,22.62,0,0,1-22.6-22.59V127.8H424.41V431.89A22.62,22.62,0,0,1,401.81,454.48ZM75.52,133.8V431.89a16.61,16.61,0,0,0,16.6,16.59H401.81a16.61,16.61,0,0,0,16.6-16.59V133.8Z" fill="#5e6175"></path><circle cx="417.71" cy="92.92" r="53.11" fill="#f5f5f5"></circle><path d="M417.71,149a56.11,56.11,0,1,1,56.1-56.1A56.17,56.17,0,0,1,417.71,149Zm0-106.21a50.11,50.11,0,1,0,50.1,50.11A50.17,50.17,0,0,0,417.71,42.81Z" fill="#5e6175"></path><polygon points="408.44 120.89 385.33 97.78 394.48 88.64 408.44 102.6 440.94 70.1 450.09 79.25 408.44 120.89" fill="#e1830e"></polygon><path d="M93.47 65A11.89 11.89 0 0 1 82.88 47.74h0A11.88 11.88 0 1 1 93.47 65ZM88.24 50.45a5.87 5.87 0 1 0 7.89-2.6 5.88 5.88 0 0 0-7.89 2.6ZM42.16 108.26A9.18 9.18 0 0 1 34 95h0a9.08 9.08 0 0 1 5.32-4.57 9.17 9.17 0 1 1 2.85 17.88Zm0-12.34a3.19 3.19 0 0 0-2.84 1.74h0a3.17 3.17 0 1 0 2.84-1.74Z" fill="#5e6175"></path><rect width="6" height="17.43" x="452.6" y="165.1" transform="rotate(-45 455.593 173.807)" fill="#5e6175"></rect><rect width="17.43" height="6" x="458.57" y="150.28" fill="#5e6175"></rect><rect width="6" height="17.43" x="433.13" y="177.25" fill="#5e6175"></rect><path d="M398.7,475.19v-6c2.52,0,3.77,0,5.74-.14l.5,6C402.7,475.22,401.26,475.19,398.7,475.19Zm-10,0h-6v-6h6Zm26.73-2.36-1.95-5.67a39.55,39.55,0,0,0,5.1-2.19l2.76,5.32A44,44,0,0,1,415.43,472.83Zm14.74-8.6-4-4.49a39.3,39.3,0,0,0,3.88-4l4.59,3.87A44.33,44.33,0,0,1,430.17,464.23Zm10.35-13.56L435.13,448a36.92,36.92,0,0,0,2.07-5.15l5.72,1.82A44,44,0,0,1,440.52,450.67Zm4.36-16.5-6-.37c.1-1.52.07-2.34.07-5.81h6C445,431.72,445,432.48,444.88,434.17ZM445,418h-6v-6h6Zm0-16h-6v-6h6Zm0-16h-6v-6h6Zm0-16h-6v-6h6Zm0-16h-6v-6h6Z" fill="#a9afc4"></path></g></g></svg>