<svg xmlns="http://www.w3.org/2000/svg" xmlns:xlink="http://www.w3.org/1999/xlink" viewBox="0 0 512 512" id="trash-bin"><defs><linearGradient id="a" x1="233.62" x2="233.62" y1="64.48" y2="183.88" gradientUnits="userSpaceOnUse"><stop offset="0" stop-color="#cacfdd"></stop><stop offset="1" stop-color="#eef0f1"></stop></linearGradient><linearGradient xlink:href="#a" id="b" x1="235.91" x2="235.91" y1="209.33" y2="262.41"></linearGradient><linearGradient xlink:href="#a" id="c" x1="299.02" x2="369.06" y1="351.15" y2="351.15"></linearGradient></defs><g style="isolation:isolate"><path fill="#f5f5f5" d="M99.25,214.81l14.88,224.07a18.67,18.67,0,0,0,18.64,17.44H339.06a18.68,18.68,0,0,0,18.64-17.44l14.88-224.07Z"></path><path fill="#f5f5f5" d="M372.58,214.81c-3.4,51.12-11.83,178-14.89,224.07a18.66,18.66,0,0,1-18.63,17.44H132.77a18.67,18.67,0,0,1-18.64-17.44c-.28-4.2-11-165.34-14.88-224.07Z"></path><path fill="#5e6175" d="M325.67,472.82H146.16A11.84,11.84,0,0,1,134.31,461v-4.65H337.52V461A11.85,11.85,0,0,1,325.67,472.82Z"></path><rect width="299.28" height="39.07" x="86.27" y="175.74" fill="#5e6175" rx="14.62"></rect><path fill="#5e6175" d="M370.94,217.81h-270a17.64,17.64,0,0,1-17.62-17.62v-9.83a17.65,17.65,0,0,1,17.62-17.62H370.94a17.64,17.64,0,0,1,17.61,17.62v9.83A17.63,17.63,0,0,1,370.94,217.81Zm-270-39.07a11.64,11.64,0,0,0-11.62,11.62v9.83a11.63,11.63,0,0,0,11.62,11.62H370.94a11.63,11.63,0,0,0,11.61-11.62v-9.83a11.63,11.63,0,0,0-11.61-11.62Z"></path><path fill="#f5f5f5" d="M347.48,101.57a33.44,33.44,0,0,0-32.3-24.77H151.48a33.46,33.46,0,0,0-32.31,24.77L99.25,175.74H367.41Z"></path><path fill="#5e6175" d="M371.32,178.74h-276l20.94-77.94a36.5,36.5,0,0,1,35.2-27h163.7a36.51,36.51,0,0,1,35.2,27Zm-268.16-6H363.5l-18.91-70.39A30.51,30.51,0,0,0,315.18,79.8H151.48a30.51,30.51,0,0,0-29.41,22.55Z"></path><path fill="url(#a)" d="M307.91,76.8v60.64a16,16,0,0,1-16,16H175.37a16,16,0,0,1-16-16V76.8h23.61v45.28a8.39,8.39,0,0,0,8.39,8.39h84.59a8.39,8.39,0,0,0,8.39-8.39V76.8Z" style="mix-blend-mode:multiply"></path><path fill="#5e6175" d="M292.27,156.48H175a18.67,18.67,0,0,1-18.65-18.64v-64H310.92v64A18.67,18.67,0,0,1,292.27,156.48ZM162.33,79.8v58A12.66,12.66,0,0,0,175,150.48H292.27a12.66,12.66,0,0,0,12.65-12.64v-58Z"></path><rect width="349.53" height="6" x="86.27" y="469.82" fill="#5e6175"></rect><polygon fill="url(#b)" points="372.57 214.81 370.31 248.9 101.51 248.9 99.25 214.81 372.57 214.81" style="mix-blend-mode:multiply"></polygon><path fill="url(#c)" d="M369.06,267.67,358,434.62a86.52,86.52,0,0,1,11.08-166.95Z" style="mix-blend-mode:multiply"></path><path fill="#5e6175" d="M339.06,459.32H132.77a21.73,21.73,0,0,1-21.63-20.24L96,211.81H375.79l-15.1,227.27A21.73,21.73,0,0,1,339.06,459.32ZM102.45,217.81l14.67,220.87a15.72,15.72,0,0,0,15.65,14.64H339.06a15.71,15.71,0,0,0,15.64-14.64l14.67-220.87Z"></path><circle cx="385.55" cy="352.61" r="70.13" fill="#f5f5f5"></circle><path fill="#5e6175" d="M385.55,425.74a73.13,73.13,0,1,1,73.13-73.13A73.21,73.21,0,0,1,385.55,425.74Zm0-140.26a67.13,67.13,0,1,0,67.13,67.13A67.2,67.2,0,0,0,385.55,285.48Z"></path><path fill="#e1830e" d="M427.85 357.25l-15.3 8.83a2.83 2.83 0 01-2.44 4.26H394.54v-9.66l-20.85 18.48 20.85 18.48V388h15.57A20.49 20.49 0 00427.85 357.25zM412.63 331.07l-9.33-16.33a20.48 20.48 0 00-35.49 0c8.81 5.17 5.34 3.16 15.28 8.83a2.84 2.84 0 014.93 0l9.33 16.33-8 4.63 26.43 8.82 5.57-27.3zM361 370.34a2.84 2.84 0 01-2.46-4.26l9.83-17.27 7.86 4.54-5.58-27.3-26.43 8.82 8.87 5.12-9.83 17.26A20.49 20.49 0 00361 388h2.17V370.34z"></path><path fill="#5e6175" d="M74.77 117.43a15.32 15.32 0 01-15-12.33h0a15.34 15.34 0 1115 12.33zm-9.12-13.5A9.34 9.34 0 1080 94.33a9.34 9.34 0 00-14.35 9.6zM128.88 56.44A10.14 10.14 0 01119 48.3h0a10.15 10.15 0 0115.56-10.41C142.78 43.39 138.89 56.44 128.88 56.44zm-4-9.32a4.14 4.14 0 103.25-4.86 4.14 4.14 0 00-3.25 4.86z"></path><path fill="#e1830e" d="M36 388a26.47 26.47 0 0126.47 26.47A26.46 26.46 0 0188.93 388a26.46 26.46 0 01-26.46-26.46A26.47 26.47 0 0136 388zM394.07 126.27a15.27 15.27 0 0115.27 15.27 15.27 15.27 0 0115.26-15.27A15.26 15.26 0 01409.34 111 15.27 15.27 0 01394.07 126.27z"></path><path fill="#a9afc4" d="M470,303.52c-1.11-1.59-2.28-3.17-3.47-4.69l4.73-3.7c1.25,1.61,2.49,3.28,3.66,5Zm-9.81-12c-1.33-1.41-2.72-2.79-4.12-4.12l4.11-4.36c1.49,1.4,3,2.87,4.37,4.36ZM448.68,281c-1.51-1.19-3.09-2.36-4.69-3.47l3.44-4.92c1.68,1.18,3.35,2.41,4.95,3.66Zm-12.91-8.69c-1.67-1-3.4-1.89-5.14-2.78l2.72-5.34c1.82.92,3.65,1.91,5.41,2.92Zm-14-6.81c-3.14-1.27-4.45-1.66-5.59-2.11l2.2-5.59c1.1.43,2.47.86,5.64,2.14Zm-14.88-8.44a25,25,0,0,1-3.91-5.55l5.32-2.76a19.72,19.72,0,0,0,3,4.23Zm-6.71-16.46a55,55,0,0,1,.39-6.31l6,.51a49.12,49.12,0,0,0-.37,5.66Zm7.22-15.77-6-.51.51-6,6,.52Zm1.36-15.94-6-.51.51-6,6,.51Z"></path></g></svg>