<svg xmlns="http://www.w3.org/2000/svg" xmlns:xlink="http://www.w3.org/1999/xlink" viewBox="0 0 512 512" id="ui-ux"><defs><linearGradient id="linear-gradient" x1="325.8" x2="396.09" y1="148.71" y2="148.71" gradientUnits="userSpaceOnUse"><stop offset="0" stop-color="#cacfdd"></stop><stop offset="1" stop-color="#eef0f1"></stop></linearGradient><linearGradient xlink:href="#linear-gradient" id="linear-gradient-2" x1="317.34" x2="396.09" y1="298.7" y2="298.7"></linearGradient></defs><g style="isolation:isolate"><g id="UI_UX"><path d="M396.09,121.55V389.88a15.7,15.7,0,0,1-15.7,15.69H86.75a15.7,15.7,0,0,1-15.7-15.69V121.55a15.7,15.7,0,0,1,15.7-15.69H380.39A15.7,15.7,0,0,1,396.09,121.55Z" fill="#f5f5f5"></path><rect width="325.03" height="299.71" x="71.06" y="105.86" rx="15.69" fill="#f5f5f5"></rect><path d="M396.09,121.55v19.26h-325V121.55a15.7,15.7,0,0,1,15.7-15.69H380.39A15.7,15.7,0,0,1,396.09,121.55Z" fill="#5e6175"></path><path d="M399.09,143.81h-331V121.55a18.71,18.71,0,0,1,18.7-18.69H380.39a18.71,18.71,0,0,1,18.7,18.69Zm-325-6h319V121.55a12.71,12.71,0,0,0-12.7-12.69H86.75a12.71,12.71,0,0,0-12.7,12.69Z" fill="#5e6175"></path><circle cx="94.69" cy="123.33" r="6.8" fill="#f5f5f5"></circle><circle cx="120.42" cy="123.33" r="6.8" fill="#f5f5f5"></circle><rect width="199.22" height="11.08" x="104.82" y="227.88" fill="#dee1ec"></rect><rect width="80.09" height="11.08" x="149.02" y="255.85" fill="#dee1ec"></rect><rect width="33.78" height="11.08" x="246.52" y="255.85" fill="#dee1ec"></rect><rect width="155.02" height="11.08" x="149.02" y="283.82" fill="#dee1ec"></rect><rect width="101.58" height="11.08" x="104.82" y="311.79" fill="#dee1ec"></rect><rect width="80.41" height="11.08" x="223.63" y="311.79" fill="#dee1ec"></rect><rect width="130.65" height="11.08" x="149.02" y="339.76" fill="#dee1ec"></rect><rect width="199.22" height="11.08" x="104.82" y="367.73" fill="#dee1ec"></rect><path d="M396.09,121.55v70c-44.86,0-78.47-41.79-68.54-85.71h52.84A15.69,15.69,0,0,1,396.09,121.55Z" style="mix-blend-mode:multiply" fill="url(#linear-gradient)"></path><path d="M396.09,191.83v198a15.7,15.7,0,0,1-15.7,15.69H317.34v-184a29.75,29.75,0,0,1,29.71-29.71Z" style="mix-blend-mode:multiply" fill="url(#linear-gradient-2)"></path><path d="M285.76,204.8H123.1a18.28,18.28,0,1,1,0-36.55H285.76a18.28,18.28,0,1,1,0,36.55Z" fill="#a9afc4"></path><path d="M380.39,408.57H86.75a18.71,18.71,0,0,1-18.7-18.69V121.55a18.71,18.71,0,0,1,18.7-18.69H380.39a18.71,18.71,0,0,1,18.7,18.69V389.88A18.71,18.71,0,0,1,380.39,408.57ZM86.75,108.86a12.71,12.71,0,0,0-12.7,12.69V389.88a12.71,12.71,0,0,0,12.7,12.69H380.39a12.71,12.71,0,0,0,12.7-12.69V121.55a12.71,12.71,0,0,0-12.7-12.69Z" fill="#5e6175"></path><circle cx="396.09" cy="121.31" r="56.11" fill="#f5f5f5"></circle><path d="M396.09,180.42a59.11,59.11,0,1,1,59.1-59.11A59.18,59.18,0,0,1,396.09,180.42Zm0-112.22a53.11,53.11,0,1,0,53.1,53.11A53.17,53.17,0,0,0,396.09,68.2Z" fill="#5e6175"></path><polygon points="370.8 103.17 350.94 122.06 370.8 140.95 377.87 133.52 365.82 122.06 377.87 110.59 370.8 103.17" fill="#e1830e"></polygon><polygon points="421.49 103.17 414.43 110.59 426.48 122.06 414.43 133.52 421.49 140.95 441.36 122.06 421.49 103.17" fill="#e1830e"></polygon><rect width="46.86" height="10.25" x="372.66" y="116.18" transform="rotate(-61.24 396.102 121.305)" fill="#e1830e"></rect><path d="M460.68,221.54V429.76a15.56,15.56,0,0,1-15.55,15.56H347.05a15.56,15.56,0,0,1-15.55-15.56V221.54A15.56,15.56,0,0,1,347.05,206h98.08A15.56,15.56,0,0,1,460.68,221.54Z" fill="#dee1ec"></path><path d="M445.13,448.32H347.05a18.58,18.58,0,0,1-18.55-18.56V221.54A18.58,18.58,0,0,1,347.05,203h98.08a18.58,18.58,0,0,1,18.55,18.56V429.76A18.58,18.58,0,0,1,445.13,448.32ZM347.05,209a12.57,12.57,0,0,0-12.55,12.56V429.76a12.57,12.57,0,0,0,12.55,12.56h98.08a12.57,12.57,0,0,0,12.55-12.56V221.54A12.57,12.57,0,0,0,445.13,209Z" fill="#5e6175"></path><path d="M448.45,224.83v201a7.22,7.22,0,0,1-7.22,7.22H351.67a7.22,7.22,0,0,1-7.22-7.22v-201a7.22,7.22,0,0,1,7.22-7.22h20.26a4.86,4.86,0,0,1,4.67,3.48,4.88,4.88,0,0,0,4.68,3.47h30.34a4.88,4.88,0,0,0,4.67-3.47,4.88,4.88,0,0,1,4.67-3.48h20.27A7.22,7.22,0,0,1,448.45,224.83Z" fill="#f5f5f5"></path><rect width="78.9" height="51.15" x="357.59" y="239.97" rx="10.86" fill="#dee1ec"></rect><path d="M425.63,294.12H368.45a13.88,13.88,0,0,1-13.86-13.86V250.82A13.88,13.88,0,0,1,368.45,237h57.18a13.88,13.88,0,0,1,13.86,13.85v29.44A13.88,13.88,0,0,1,425.63,294.12ZM368.45,243a7.87,7.87,0,0,0-7.86,7.85v29.44a7.87,7.87,0,0,0,7.86,7.86h57.18a7.86,7.86,0,0,0,7.86-7.86V250.82a7.86,7.86,0,0,0-7.86-7.85Z" fill="#5e6175"></path><polygon points="365.54 277.72 387.44 255.82 404.43 272.81 413.66 264.05 427.91 277.72 365.54 277.72" fill="#e1830e"></polygon><circle cx="403.12" cy="255.1" r="3.08" fill="#e1830e"></circle><rect width="78.9" height="15.24" x="357.59" y="307.4" fill="#dee1ec"></rect><rect width="78.36" height="78.36" x="356.91" y="338.91" rx="11.5" fill="#dee1ec"></rect><path d="M423.8,420.27h-6v-6h6a8.47,8.47,0,0,0,4.09-1l2.9,5.26A14.57,14.57,0,0,1,423.8,420.27Zm-16,0h-6v-6h6Zm-16,0h-6v-6h6Zm-16,0h-6v-6h6Zm-17.26-3.85a14.56,14.56,0,0,1-4-6.34l5.73-1.77a8.6,8.6,0,0,0,2.34,3.71ZM438,408.61l-5.88-1.16c.21-1.09.16-1.59.16-5.4h6C438.27,405.48,438.35,406.79,438,408.61Zm-78.08-9.36h-6v-6h6Zm78.36-7.2h-6v-6h6Zm-78.36-8.8h-6v-6h6Zm78.36-7.2h-6v-6h6Zm-78.36-8.8h-6v-6h6Zm78.36-7.2h-6v-6h6Zm-78.36-8.8h-6a14.77,14.77,0,0,1,1.42-7.13l5.41,2.6A9.22,9.22,0,0,0,359.91,351.25Zm71.1-5.31a8.59,8.59,0,0,0-3.18-3l2.85-5.28a14.51,14.51,0,0,1,5.44,5.14Zm-64.75-3.76-1.49-5.81c2.18-.56,3.59-.46,6.72-.46v6C368.65,341.91,367.62,341.83,366.26,342.18Zm53.23-.27h-6v-6h6Zm-16,0h-6v-6h6Zm-16,0h-6v-6h6Z" fill="#a9afc4"></path><rect width="49.33" height="49.33" x="371.42" y="353.67" rx="11.12" fill="#a9afc4"></rect><path d="M409.63,406H382.54a14.14,14.14,0,0,1-14.12-14.12V364.79a14.14,14.14,0,0,1,14.12-14.12h27.09a14.14,14.14,0,0,1,14.12,14.12v27.09A14.13,14.13,0,0,1,409.63,406Zm-27.09-49.33a8.14,8.14,0,0,0-8.12,8.12v27.09a8.13,8.13,0,0,0,8.12,8.12h27.09a8.13,8.13,0,0,0,8.12-8.12V364.79a8.13,8.13,0,0,0-8.12-8.12Z" fill="#5e6175"></path><rect width="6" height="17.78" x="393.09" y="369.45" fill="#5e6175"></rect><rect width="17.78" height="6" x="387.2" y="375.34" fill="#5e6175"></rect><path d="M355.83 56.14A11.57 11.57 0 1 1 364 36.32 11.56 11.56 0 0 1 355.83 56.14Zm0-17.14a5.57 5.57 0 1 0 4 9.47A5.56 5.56 0 0 0 355.84 39ZM312.84 85.18a8 8 0 0 1-5.69-13.57h0a8 8 0 1 1 5.69 13.57Zm-1.41-9.36h0a2 2 0 1 0 3.38 1.37A2 2 0 0 0 311.43 75.82Z" fill="#5e6175"></path><rect width="16.91" height="6" x="310.82" y="453.21" transform="rotate(-44.99 319.315 456.228)" fill="#5e6175"></rect><rect width="6" height="16.91" x="336.2" y="459.09" fill="#5e6175"></rect><rect width="16.91" height="6" x="299.02" y="434.31" fill="#5e6175"></rect><path d="M83,429.5l.71-6a40.91,40.91,0,0,0,5.63.24v6A47.12,47.12,0,0,1,83,429.5Zm86.34.28h-6v-6h6Zm-16,0h-6v-6h6Zm-16,0h-6v-6h6Zm-16,0h-6v-6h6Zm-16,0h-6v-6h6Zm-32.78-3a39.26,39.26,0,0,1-5.76-3L70,418.69a34.17,34.17,0,0,0,4.88,2.53Zm-14-9.91a39.5,39.5,0,0,1-4-5.15l5.05-3.25A33.08,33.08,0,0,0,63,412.81ZM50,401.9a39,39,0,0,1-1.37-6.35l6-.77a33.55,33.55,0,0,0,1.16,5.37Zm4.3-16.72h-6v-6h6Zm0-16h-6v-6h6Z" fill="#a9afc4"></path></g></g></svg>