<svg xmlns="http://www.w3.org/2000/svg" xmlns:xlink="http://www.w3.org/1999/xlink" viewBox="0 0 512 512" id="unboxing"><defs><linearGradient id="b" x1="248.35" x2="248.35" y1="198.04" y2="234.42" gradientUnits="userSpaceOnUse"><stop offset="0" stop-color="#cacfdd"></stop><stop offset="1" stop-color="#eef0f1"></stop></linearGradient><linearGradient id="a" x1="343.89" x2="343.89" y1="253.66" y2="416.73" gradientUnits="userSpaceOnUse"><stop offset="0" stop-color="#a9afc4"></stop><stop offset="1" stop-color="#d4d8e5"></stop></linearGradient><linearGradient xlink:href="#a" id="c" x1="343.88" x2="343.88" y1="253.67" y2="416.73"></linearGradient><linearGradient xlink:href="#b" id="d" x1="338.5" x2="415.12" y1="376.55" y2="376.55"></linearGradient><linearGradient xlink:href="#b" id="e" x1="173.44" x2="173.44" y1="267.35" y2="414.04"></linearGradient><linearGradient xlink:href="#a" id="f" x1="74.05" x2="272.65" y1="253.08" y2="253.08"></linearGradient><linearGradient xlink:href="#b" id="g" x1="272.65" x2="415.12" y1="253.08" y2="253.08"></linearGradient><linearGradient xlink:href="#a" id="h" x1="358.46" x2="407.61" y1="190.02" y2="190.02"></linearGradient><linearGradient xlink:href="#a" id="i" x1="81.02" x2="130.17" y1="169.34" y2="169.34"></linearGradient></defs><g style="isolation:isolate"><path fill="#a9afc4" d="M151.69,157.24,146.12,155a16.82,16.82,0,0,0,1.18-4.94l6,.5A23,23,0,0,1,151.69,157.24Zm-5.79-15.53-2.34-5.52,5.52-2.35,2.35,5.53ZM139.65,127l-2.35-5.52,5.53-2.34,2.34,5.52Zm-5-16.25a23.11,23.11,0,0,1,1-6.83l5.75,1.72a17.13,17.13,0,0,0-.72,5Zm11-12.33-4.22-4.26A22.91,22.91,0,0,1,147,90.08l2.77,5.32A17,17,0,0,0,145.67,98.4Zm13.07-6.86L156.39,86l5.53-2.35,2.34,5.52Zm14.75-6.26c-1.44-3.31-.9-2-2.33-5.53a17,17,0,0,0,4.29-2.64l3.87,4.58A23.19,23.19,0,0,1,173.49,85.28Zm12.44-12.8-5.56-2.25,2.24-5.56,5.57,2.24Zm6-14.84-5.56-2.25,2.25-5.56,5.56,2.25Zm54.49-6.24a22.94,22.94,0,0,1-6.63-1.59l2.2-5.58a16.92,16.92,0,0,0,5,1.19ZM230.46,46l-5.56-2.25,2.25-5.56,5.56,2.25ZM198.6,44.53l-4.29-4.2a22.86,22.86,0,0,1,5.49-4.13l2.86,5.27A16.92,16.92,0,0,0,198.6,44.53Zm17.23-4.34a17,17,0,0,0-5-.78v-6a23.09,23.09,0,0,1,6.8,1.05Z"></path><path fill="#f5f5f5" d="M335.91,182.51l-35.56,15.08-14.46,35.82-35.82-14.47L214.51,234l-15.09-35.55L163.61,184l14.47-35.82L163,112.64l35.56-15.09L213,61.73l35.82,14.48,35.55-15.1,15.09,35.56,35.82,14.46L320.81,147Z"></path><polygon fill="url(#b)" points="318.02 190.1 300.35 197.59 285.89 233.41 250.07 218.94 214.51 234.03 199.42 198.48 178.68 190.1 318.02 190.1" style="mix-blend-mode:multiply"></polygon><path fill="#5e6175" d="M212.93,238l-15.78-37.18-37.44-15.12,15.12-37.45-15.78-37.17,37.18-15.78,15.12-37.44L248.8,73,286,57.18l15.78,37.17,37.44,15.13-15.13,37.44,15.78,37.17-37.17,15.78-15.13,37.45L250.1,222.19Zm-45.41-55.62,34.18,13.81,14.4,33.94L250,215.69l34.19,13.81L298,195.32,332,180.92,317.57,147l13.81-34.19L297.2,99,282.79,65.05l-33.94,14.4L214.67,65.64,200.86,99.82l-33.94,14.41,14.41,33.94Z"></path><path fill="#e1830e" d="M257.7,165.4H241.19a35.29,35.29,0,0,1,14.66-28.58,11,11,0,1,0-17.38-8.92H222a27.49,27.49,0,1,1,43.53,22.33A18.72,18.72,0,0,0,257.7,165.4Z"></path><rect width="16.58" height="16.58" x="241.01" y="178.18" fill="#e1830e"></rect><rect width="142.47" height="196.95" x="272.65" y="218.06" fill="url(#a)"></rect><rect width="142.47" height="196.94" x="272.65" y="218.07" fill="url(#c)"></rect><path fill="url(#d)" d="M415.12,338.09V415H338.5A77,77,0,0,1,415.12,338.09Z" style="mix-blend-mode:multiply"></path><rect width="198.42" height="196.95" x="74.23" y="218.06" fill="url(#e)"></rect><polygon fill="url(#f)" points="272.65 218.06 272.65 264.01 253.93 288.1 74.05 288.1 74.05 260.8 238.51 260.8 272.65 218.06" style="mix-blend-mode:multiply"></polygon><polygon fill="url(#g)" points="272.65 264.01 272.65 218.06 306.79 260.8 415.12 260.8 415.12 288.1 291.98 288.1 272.65 264.01" style="mix-blend-mode:multiply"></polygon><path fill="#5e6175" d="M275.65,418H71.23V215.06H275.65ZM77.23,412H269.65V221.06H77.23Z"></path><path fill="#5e6175" d="M418.12,418H269.65V215.06H418.12Zm-142.47-6H412.12V221.06H275.65Z"></path><rect width="51.18" height="18.67" x="99.91" y="376.26" fill="#5e6175"></rect><polygon fill="#f5f5f5" points="238.51 260.8 36 260.8 71.16 218.06 272.65 218.06 238.51 260.8"></polygon><path fill="#5e6175" d="M240,263.8H29.65l40.09-48.74H278.88Zm-197.6-6H237.07l29.34-36.74H72.58Z"></path><polygon fill="#f5f5f5" points="306.79 260.8 452.32 260.8 418.18 218.06 272.65 218.06 306.79 260.8"></polygon><path fill="#5e6175" d="M458.56,263.8H305.35l-38.94-48.74H419.63Zm-150.33-6H446.09l-29.35-36.74H278.88Z"></path><circle cx="415.42" cy="415.01" r="60.58" fill="#f5f5f5"></circle><path fill="#5e6175" d="M415.42,478.59A63.58,63.58,0,1,1,479,415,63.65,63.65,0,0,1,415.42,478.59Zm0-121.16A57.58,57.58,0,1,0,473,415,57.64,57.64,0,0,0,415.42,357.43Z"></path><rect width="45.33" height="37.17" x="401.89" y="396.19" fill="#e1830e" rx="6.75"></rect><path fill="#e1830e" d="M384.53,405.47a3.71,3.71,0,0,1,5.57-3.21l17.11,9.88a3.71,3.71,0,0,1,0,6.43l-17.11,9.88a3.71,3.71,0,0,1-5.57-3.22Z"></path><path fill="#5e6175" d="M377.82 104.23a11.21 11.21 0 01-2.9-22h0a11.21 11.21 0 112.9 22zm0-16.41a5.21 5.21 0 104.51 7.82A5.2 5.2 0 00377.81 87.82zM418.29 135.91a8.7 8.7 0 01-2.25-17.1h0a8.7 8.7 0 112.25 17.1zm-.7-11.3h0a2.69 2.69 0 103 4A2.68 2.68 0 00417.59 124.61z"></path><rect width="16.47" height="6" x="50.11" y="427.76" fill="#5e6175" transform="rotate(-45 58.339 430.765)"></rect><rect width="6" height="16.47" x="74.75" y="433.57" fill="#5e6175"></rect><rect width="16.47" height="6" x="38.62" y="409.36" fill="#5e6175"></rect><path fill="url(#h)" d="M383,162l-24.57,24.57h14.3v31.52h20.55V186.54h14.3Z"></path><path fill="url(#i)" d="M105.59,120.62,81,145.2h14.3v72.86h20.55V145.2h14.3Z"></path><path fill="#5e6175" d="M369.76 221.06V189.54H351.22L383 157.73l31.82 31.81H396.31v31.52zm6-6h14.55V183.54h10.06L383 166.21 365.7 183.54h10.06zM92.32 221.06V148.2H73.78l31.81-31.82 31.82 31.82H118.87v72.86zm6-6h14.55V142.2h10.06l-17.34-17.33L88.26 142.2H98.32z"></path></g></svg>