<svg xmlns="http://www.w3.org/2000/svg" xmlns:xlink="http://www.w3.org/1999/xlink" viewBox="0 0 512 512" id="unprotected"><defs><linearGradient id="a" x1="255.35" x2="364.72" y1="383.24" y2="383.24" gradientUnits="userSpaceOnUse"><stop offset="0" stop-color="#cacfdd"></stop><stop offset="1" stop-color="#eef0f1"></stop></linearGradient><linearGradient xlink:href="#a" id="b" x1="235.37" x2="328.99" y1="198.85" y2="198.85"></linearGradient><linearGradient xlink:href="#a" id="c" x1="141.83" x2="235.41" y1="313.15" y2="313.15"></linearGradient></defs><g style="isolation:isolate"><path fill="#f5f5f5" d="M388.58,108.37V250.58a181.57,181.57,0,0,1-86.8,154.85L235.41,446l-66.36-40.58A181.53,181.53,0,0,1,82.24,250.58V108.37h50.18V128.1L171,166.7v60.87l18.4-18.4V186.82l22.07-22.06V129.3c-7.26-7.26-4.86-4.85-16.19-16.19V98.79a211.13,211.13,0,0,0,40.11-17.24,211.13,211.13,0,0,0,103,26.82Z"></path><path fill="#f5f5f5" d="M388.58,108.37V250.58a181.6,181.6,0,0,1-86.8,154.84L235.41,446,169,405.42a181.54,181.54,0,0,1-86.8-154.84V108.37h50.18V128.1L171,166.7v60.87l18.4-18.41V186.82l22.07-22.06V129.3l-16.2-16.19V98.8a211.39,211.39,0,0,0,40.12-17.26,211,211,0,0,0,103,26.83Z"></path><path fill="#dee1ec" d="M361.21,135.74V250.58a154.15,154.15,0,0,1-73.72,131.5l-52.08,31.86-52.08-31.86a154.16,154.16,0,0,1-73.73-131.5V135.74c24.41,0,25.7,0,30.33-.13L171,166.7v60.87l18.4-18.41V186.82l22.07-22.06V129.3L206.2,124a237.12,237.12,0,0,0,29.21-11.68,239.14,239.14,0,0,0,103,23.4Z"></path><path fill="url(#a)" d="M364.72,340.5a181.1,181.1,0,0,1-62.94,64.92l-43.91,26.86c-12.8-49.69,24.93-98.08,76-98.08A78.19,78.19,0,0,1,364.72,340.5Z" style="mix-blend-mode:multiply"></path><path fill="#a9afc4" d="M205.67 399.26l-5.12-3.13 3.13-5.12 5.12 3.13zM192 390.91l-5.12-3.13 3.13-5.11 5.12 3.13zm-13.69-8.43c-1.7-1.1-3.4-2.25-5.07-3.42l3.46-4.91c1.6 1.13 3.24 2.24 4.87 3.29zm-13.2-9.56c-1.58-1.27-3.16-2.6-4.69-3.94l3.95-4.51c1.47 1.28 3 2.55 4.5 3.78zM153 362c-1.44-1.43-2.87-2.91-4.26-4.4l4.39-4.09c1.34 1.44 2.72 2.86 4.09 4.23zM142 350c-1.28-1.57-2.55-3.19-3.77-4.81l4.78-3.61c1.18 1.56 2.4 3.11 3.64 4.63zm-9.65-13.14c-1.11-1.7-2.21-3.44-3.26-5.18l5.14-3.09c1 1.66 2.06 3.34 3.14 5zm-8.23-14.07c-.93-1.8-1.83-3.65-2.7-5.49l5.43-2.55c.84 1.78 1.71 3.56 2.6 5.28zm-6.72-14.86c-.74-1.89-1.45-3.83-2.11-5.74l5.66-2c.64 1.84 1.33 3.69 2 5.51zm-5.14-15.47c-.54-1.95-1.05-3.95-1.52-5.93l5.85-1.37c.44 1.91.93 3.82 1.45 5.7zm-3.52-15.92c-.34-2-.64-4-.9-6.05l5.95-.76c.25 1.95.54 3.91.86 5.82zm-1.86-16.2c-.13-2-.22-4.09-.26-6.11l6-.14c0 1.94.13 3.92.26 5.88zm5.69-16.18h-6v-6h6zm0-16h-6v-6h6zm0-16h-6v-6h6zm0-16h-6v-6h6zm0-16h-6v-6h6zm0-16h-6v-6h6zM329 167.79v82.79a122.69 122.69 0 01-58.31 104l-35.27 21.58L200.14 354.6a122.69 122.69 0 01-58.31-104V167.92a199 199 0 0028.79-1.62l.4.4v60.87l18.4-18.41V186.82l22.07-22.06v-8.22c2-.72 3.92-1.47 5.88-2.28 6.08-2 12.11-4.24 18-6.67C236.71 147.59 274.15 165.84 329 167.79z"></path><path fill="#5e6175" d="M235.41,449.53,167.48,408A184.59,184.59,0,0,1,79.24,250.58V105.38h56.18v21.48l38.6,38.6v54.86l12.4-12.4V185.58l22.07-22.06v-33L192.3,114.35V96.59a210,210,0,0,0,43.11-18.48c32.79,18.32,67.37,27.27,103,27.27h53.17v145.2A184.6,184.6,0,0,1,303.34,408ZM85.24,111.38v139.2a178.59,178.59,0,0,0,85.37,152.29l64.8,39.63,64.8-39.63a178.6,178.6,0,0,0,85.37-152.29V111.38H338.41a214.69,214.69,0,0,1-103-26.4,215.43,215.43,0,0,1-37.11,16v10.88l16.19,16.19V166l-22.07,22.06v22.35L168,234.81V168l-38.6-38.61v-18Z"></path><path fill="#f5f5f5" d="M149.05,98.28v21l34.37,34.37v14L198.07,153V136.61l-17.91-17.9V94S163.42,97.09,149.05,98.28Z"></path><path fill="#f5f5f5" d="M198.06,136.61V153l-14.63,14.64v-14c-33.06-33-1.33-1.3-34.38-34.37v-21C163.42,97.09,180.16,94,180.16,94v24.76C193.25,131.79,189.24,127.78,198.06,136.61Z"></path><polygon fill="#5e6175" points="197.83 299.89 191.83 299.89 191.83 274.19 168.02 250.38 168.02 227.57 174.02 227.57 174.02 247.9 197.83 271.71 197.83 299.89"></polygon><path fill="#dee1ec" d="M198.06,136.61V153l-14.63,14.64v-14L163.72,134c.43,0,15.93-.75,27.34-4.36Z"></path><path fill="#5e6175" d="M180.42,174.92v-20l-34.37-34.38v-25a336.1,336.1,0,0,0,37.11-5.18v27.12l17.91,17.91v18.91Zm-28.37-56.87,34.37,34.38v8l8.65-8.65V137.85L177.16,120V97.53c-5.24.9-15.46,2.55-25.11,3.49Z"></path><polygon fill="#f5f5f5" points="126.53 84.29 105.86 70.67 121.13 60.19 126.53 84.29"></polygon><polygon fill="#f5f5f5" points="190.08 74.44 186.61 36 214.87 44.48 190.08 74.44"></polygon><path fill="#5e6175" d="M131.07 90.88L100.49 70.72l22.6-15.51zM111.24 70.62L122 77.69l-2.81-12.52zM187.75 82l-4.53-50.11 36.85 11.06zM190 40.15l2.41 26.76 17.27-20.86z"></path><path fill="url(#b)" d="M329,167.79v82.33H235.41c0-103.71-.09-102.53,0-102.53A273.34,273.34,0,0,0,329,167.79Z" style="mix-blend-mode:multiply"></path><path fill="url(#c)" d="M235.41,250.12V376.18L200.14,354.6a122.68,122.68,0,0,1-58.31-104.48Z" style="mix-blend-mode:multiply"></path><circle cx="333.9" cy="412.71" r="63.29" fill="#f5f5f5"></circle><path fill="#5e6175" d="M333.9,479a66.3,66.3,0,1,1,66.3-66.29A66.37,66.37,0,0,1,333.9,479Zm0-126.59a60.3,60.3,0,1,0,60.3,60.3A60.37,60.37,0,0,0,333.9,352.41Z"></path><rect width="27.73" height="9.39" x="297.22" y="387.98" fill="#e1830e" transform="rotate(-45 311.082 392.676)"></rect><rect width="9.39" height="27.73" x="306.39" y="378.81" fill="#e1830e" transform="rotate(-45 311.082 392.676)"></rect><rect width="45.64" height="9.39" x="311.08" y="435.33" fill="#e1830e"></rect><rect width="27.73" height="9.39" x="342.86" y="387.98" fill="#e1830e" transform="rotate(-45 356.72 392.672)"></rect><rect width="9.39" height="27.73" x="352.03" y="378.81" fill="#e1830e" transform="rotate(-45 356.72 392.672)"></rect><path fill="#5e6175" d="M165 460.82a11.64 11.64 0 1111.58-12.93A11.65 11.65 0 01165 460.82zm-4.41-15.16a5.65 5.65 0 1010 2.89A5.65 5.65 0 00160.63 445.66zM123.5 421.71a9 9 0 119-10A9 9 0 01123.5 421.71zm-2.34-10.88a3 3 0 105.33 1.54A3 3 0 00121.16 410.83z"></path><rect width="19.63" height="6" x="396.96" y="86.18" fill="#5e6175" transform="rotate(-44.99 406.817 89.173)"></rect><rect width="19.63" height="6" x="410.13" y="109.31" fill="#5e6175"></rect><rect width="6" height="19.63" x="381.84" y="65.67" fill="#5e6175"></rect></g></svg>