<svg xmlns="http://www.w3.org/2000/svg" xmlns:xlink="http://www.w3.org/1999/xlink" viewBox="0 0 512 512" id="virtual-assistant"><defs><linearGradient id="a" x1="196.61" x2="196.61" y1="181.67" y2="377.1" gradientUnits="userSpaceOnUse"><stop offset="0" stop-color="#cacfdd"></stop><stop offset="1" stop-color="#eef0f1"></stop></linearGradient><linearGradient xlink:href="#a" id="b" x1="315.86" x2="414.97" y1="188.1" y2="188.1"></linearGradient><linearGradient xlink:href="#a" id="c" x1="225.64" x2="225.64" y1="371.38" y2="442.09"></linearGradient><linearGradient xlink:href="#a" id="d" x1="196.23" x2="196.23" y1="203.22" y2="242.45"></linearGradient></defs><g style="isolation:isolate"><path fill="#a9afc4" d="M415,147.2V376a11.7,11.7,0,0,1-11.46,12c-118.72,0-365.37.15-355.79.14A11.7,11.7,0,0,1,36,376.41V147.56c0-6.38,5.08-12.11,11.47-12.11H403.25A11.85,11.85,0,0,1,415,147.2Z"></path><path fill="#dee1ec" d="M415,147.19v192.6H36V147.66c0-6.43,5.13-12.21,11.58-12.21H403.22A11.88,11.88,0,0,1,415,147.19Z"></path><rect width="338.98" height="183.74" x="56.61" y="156.05" fill="#f5f5f5"></rect><path fill="url(#a)" d="M311.06,339.79H82.16c0-75.5,0-71.17,0-71.46.59-24.15,15.17-44.9,36.24-53.38l4.89-2.16a36.17,36.17,0,0,1-4.16-41.22l15.4-27.6a61.19,61.19,0,0,1,1-8.52H257.3a62,62,0,0,1,1,9.19l15,26.93a36.18,36.18,0,0,1-3.94,41l5.41,2.4c20.44,8.09,35.49,28.87,36.23,50.15C311.06,266.09,310.94,337.86,311.06,339.79Z" style="mix-blend-mode:multiply"></path><rect width="6" height="19.72" x="429.29" y="393.04" fill="#5e6175" transform="rotate(-45 432.3 402.906)"></rect><rect width="19.72" height="6" x="435.65" y="376.66" fill="#5e6175"></rect><rect width="6" height="19.72" x="407.24" y="406.79" fill="#5e6175"></rect><path fill="#5e6175" d="M146.1 73.29a11.68 11.68 0 1120.27-7.44A11.7 11.7 0 01146.1 73.29zm8.59-13.6a5.69 5.69 0 105.68 5.92A5.7 5.7 0 00154.69 59.69zM113.86 118.25a9 9 0 116.65-15.15A9 9 0 01113.86 118.25zm-2.23-7a3 3 0 102.36-5.08h0A3 3 0 00111.63 111.27z"></path><path fill="#a9afc4" d="M440,277.64h-6v-6h6Zm0-16h-6c0-4.28,0-4.88.1-6.29l6,.58C440,257.05,440,257.62,440,261.64Zm3-13.55L438,244.64a22,22,0,0,1,4.82-5l3.6,4.8A16.25,16.25,0,0,0,443,248.09Zm11.89-8.74-3.33-5c1.61-1.07,3.19-2.2,4.69-3.37l3.69,4.73C458.26,237,456.57,238.2,454.84,239.35Zm12.82-10.53-4.28-4.22c1.35-1.37,2.65-2.8,3.86-4.25l4.61,3.83C470.54,225.76,469.13,227.32,467.66,228.82Z"></path><path fill="url(#b)" d="M415,147.19V240a87.77,87.77,0,0,1-54.16-10.48L335.3,238a13.21,13.21,0,0,1-16.7-16.68l8.46-25.52a87.57,87.57,0,0,1-9.44-60.35h85.6A11.88,11.88,0,0,1,415,147.19Z" style="mix-blend-mode:multiply"></path><polygon fill="#a9afc4" points="269.24 387.97 182.04 387.97 182.09 436.07 269.24 436.07 269.24 387.97"></polygon><path fill="#a9afc4" d="M288.75,455.13l-126.13.11a9.59,9.59,0,0,1,0-19.17H288.73a9.53,9.53,0,1,1,0,19.06Z"></path><path fill="#5e6175" d="M162.61 458.24c-11.19 0-16.67-13.5-8.89-21.42a12.41 12.41 0 018.88-3.75H288.73a12.53 12.53 0 010 25.06zm0-19.17a6.63 6.63 0 00-6.52 6.65 6.52 6.52 0 006.53 6.52l126.13-.11a6.53 6.53 0 100-13.06zM146.09 173.36h8.57V148.14h-8.57a9 9 0 00-9 9v7.24A9 9 0 00146.09 173.36z"></path><polygon fill="url(#c)" points="182.04 387.97 269.24 387.97 269.24 412.79 182.06 412.79 182.04 387.97" style="mix-blend-mode:multiply"></polygon><rect width="252.36" height="6" x="102.05" y="452.19" fill="#5e6175"></rect><path fill="#5e6175" d="M272.24 439.07H179.09L179 385h93.21zm-87.16-6h81.16V391H185zM398.59 342.79h-345V153.05h345zm-339-6h333V159.05h-333z"></path><path fill="#5e6175" d="M47.71,391.11A14.71,14.71,0,0,1,33,376.4V147.55c0-8.15,6.35-15.09,14.47-15.1H403.25A14.73,14.73,0,0,1,418,147.17V376a14.73,14.73,0,0,1-14.46,15Zm-.24-252.66c-4.84,0-8.47,4.32-8.47,9.1V376.4a8.71,8.71,0,0,0,8.72,8.71L403.5,385a8.72,8.72,0,0,0,8.47-9V147.17a8.73,8.73,0,0,0-8.72-8.72Z"></path><path fill="#f5f5f5" d="M454.83,204a72.28,72.28,0,1,0-110.69-10.21l-9.27,28,27.95-9.27A72.29,72.29,0,0,0,454.83,204Z"></path><path fill="#5e6175" d="M362.37,215.78l-32.22,10.68,10.68-32.22a75.28,75.28,0,1,1,21.54,21.54Zm.92-6.63,1.23.85a69.28,69.28,0,1,0-17.91-17.91l.85,1.23L339.6,217Z"></path><polygon fill="#e1830e" points="376.38 142.93 385.66 132.67 411.73 132.67 411.73 187.45 423.3 187.45 423.3 200.15 394.94 200.15 394.94 142.93 376.38 142.93"></polygon><circle cx="403.79" cy="113.1" r="9.17" fill="#e1830e"></circle><path fill="#a9afc4" d="M295.45,265.62c-.5-14.73-11.5-30.44-26.65-36.3l-43.1-19.09a6.07,6.07,0,0,0-2.15-.4c-58.93,0-54.54-.17-56,.4l-43.1,19.09c-15.53,6.11-26.28,21.47-26.71,39.39v71.08H295.45C295.4,339,295.45,265.62,295.45,265.62Z"></path><path fill="#5e6175" d="M142 325a27.24 27.24 0 01-19.53-45.72l.9-.95a20.68 20.68 0 005.61-14.2h6v3.13h-.18a26.69 26.69 0 01-7 15.17l-.9 1C114.8 296.25 123.2 319 142 319zM253.22 325H253v-6c18.82 0 27.2-22.75 15.15-35.61l-.9-1a26.69 26.69 0 01-7.05-15.17H260v-3.13h6a20.68 20.68 0 005.61 14.2l.89.95a27.54 27.54 0 01-.6 37.89A26.6 26.6 0 01253.22 325z"></path><path fill="#dee1ec" d="M197 225.66l-21.79 16.82-14.13-29.37 6.6-2.92c1.22-.47 1.45-.36 8.17-.36zM197 225.66l21.35 17.05L232.2 213.1c-7.08-3.1-7.14-3.27-8.56-3.27H217.4z"></path><path fill="#5e6175" d="M174.08,247.12,157,211.62l9.56-4.22c2-.76,2.8-.57,10.26-.57l25.1,18.79Zm-9-32.51,11.19,23.23L192,225.69l-17.19-12.86h-5.24C169,212.83,169,212.87,165.09,214.61Z"></path><path fill="#5e6175" d="M219.42,247.42l-27.31-21.8,24.26-18.79c7.36,0,8.42-.2,10.4.62l9.45,4.13Zm-17.6-21.73,15.4,12.3,10.95-23.38c-3.95-1.73-3.9-1.78-4.53-1.78h-5.21Z"></path><path fill="#5e6175" d="M94.74,342.79V268.66c.47-19.79,12.45-35.75,28.55-42.11l43.16-19.11a8.91,8.91,0,0,1,3.23-.61h53.87a8.92,8.92,0,0,1,3.24.61c2.63,1.1-10.37-4.6,43.16,19.1,15.68,6.11,27.93,22.65,28.5,38.87,0,.75,0,70.14,0,77.38Zm6-6H292.45V265.57c-.49-13.54-10.92-28.11-24.74-33.46-2.63-1.08,10.37,4.6-43.16-19.1-.73-.28,2.6-.18-54.87-.18-.88,0,2-1.17-44.13,19.28-13.76,5.41-24.39,19.17-24.81,36.62Z"></path><rect width="6" height="20.14" x="260.33" y="319.66" fill="#5e6175"></rect><rect width="6" height="20.98" x="127.13" y="318.81" fill="#5e6175"></rect><path fill="url(#d)" d="M226.62,210.6a1,1,0,0,0-1.22.58,21.24,21.24,0,0,1-20.13,14.48H187.08a21.28,21.28,0,0,1-20-14.18.94.94,0,0,0-1.2-.58c1.72-.67,2.46-1.07,3.84-1.07C229.13,209.83,223.92,209.53,226.62,210.6Z" style="mix-blend-mode:multiply"></path><path fill="#e1830e" d="M242.41,148.14H150.05l-17.31,31a20.65,20.65,0,0,0,18,30.67H241.7a20.64,20.64,0,0,0,18-30.67Z"></path><path fill="#5e6175" d="M241.7,212.83c-43.17,0-2.51,0-90.94,0a23.64,23.64,0,0,1-20.64-35.13l18.16-32.56h95.89l18.16,32.56A23.63,23.63,0,0,1,241.7,212.83Zm0-6a17.64,17.64,0,0,0,15.4-26.21l-16.45-29.48H151.81l-16.45,29.48a17.63,17.63,0,0,0,15.39,26.21Z"></path><path fill="#f5f5f5" d="M196.62,214.11a41.93,41.93,0,0,1-41.93-41.93v-21a41.93,41.93,0,1,1,83.86,0v21A41.93,41.93,0,0,1,196.62,214.11Z"></path><path fill="#5e6175" d="M196.62,217.11a45,45,0,0,1-44.93-44.93v-21a44.93,44.93,0,1,1,89.86,0v21A45,45,0,0,1,196.62,217.11Zm0-104.89a39,39,0,0,0-38.93,38.93v21a38.93,38.93,0,0,0,77.86,0v-21A39,39,0,0,0,196.62,112.22Z"></path><path fill="#e1830e" d="M197,100.9H195.8a45.75,45.75,0,0,0-45.75,45.75v1.49a8.39,8.39,0,0,0,4.24,0c4.66-1.65,12.34-6.67,16.92-15.11h1.43s4.51,15.11,27.48,15.11v-15.3h2c6.51,9.55,16,15.3,27.62,15.3h13v-1.49A45.75,45.75,0,0,0,197,100.9Z"></path><path fill="#5e6175" d="M147,150.44v-3.79c0-25.51,20.07-48.75,50-48.75a48.81,48.81,0,0,1,48.76,48.75v4.49h-16A35.06,35.06,0,0,1,203.12,139v12.16h-3c-17.45,0-25.24-8.11-28.42-13.22A36.17,36.17,0,0,1,155.29,151C152.31,152,149.25,151,147,150.44ZM195.8,103.9a42.81,42.81,0,0,0-42.74,41.48l.23-.07a30.62,30.62,0,0,0,15.28-13.72l.85-1.56h5.46l.63,2.14c.16.48,3.92,11.72,21.61,12.88V129.84h6.59l.89,1.31c6.25,9.15,14.94,14,25.14,14h10A42.8,42.8,0,0,0,197,103.9Z"></path><rect width="6" height="63.66" x="193.97" y="225.66" fill="#5e6175"></rect><circle cx="214.58" cy="265.86" r="6.2" fill="#5e6175"></circle><path fill="#5e6175" d="M213.19,199.81h-16.7v-6h16.7a22.39,22.39,0,0,0,22.36-22.37V160.76h6v10.68A28.4,28.4,0,0,1,213.19,199.81Z"></path><path fill="#5e6175" d="M199.09,196.72h-4.64a5.83,5.83,0,0,1,0-11.66h4.64a5.83,5.83,0,0,1,0,11.66Z"></path><path fill="#5e6175" d="M199.09 199.72h-4.64a8.83 8.83 0 010-17.66h4.64a8.83 8.83 0 010 17.66zm-4.64-11.66a2.83 2.83 0 000 5.66h4.64a2.83 2.83 0 000-5.66zM247.12 176.36H235.55V145.14h11.57a12 12 0 0112 12v7.24A12 12 0 01247.12 176.36zm-5.57-6h5.57a6 6 0 006-6v-7.24a6 6 0 00-6-6h-5.57z"></path><path fill="#5e6175" d="M247.12 173.36h-8.57V148.14h8.57a9 9 0 019 9v7.24A9 9 0 01247.12 173.36zM146.09 173.36h8.57V148.14h-8.57a9 9 0 00-9 9v7.24A9 9 0 00146.09 173.36z"></path><path fill="#5e6175" d="M157.66,176.36H146.09a12,12,0,0,1-12-12v-7.24a12,12,0,0,1,12-12h11.57Zm-11.57-25.22a6,6,0,0,0-6,6v7.24a6,6,0,0,0,6,6h5.57V151.14Z"></path><path fill="#5e6175" d="M259.1,158.76h-6V146c0-29.87-23.83-56.13-56.85-56.13A56.2,56.2,0,0,0,140.11,146v12.76h-6V146c0-33.33,26.67-62.13,62.86-62.13A62.2,62.2,0,0,1,259.1,146Z"></path></g></svg>