<svg xmlns="http://www.w3.org/2000/svg" viewBox="0 0 512 512" id="virus-detected"><defs><linearGradient id="a" x1="268.29" x2="347.33" y1="385.05" y2="385.05" gradientUnits="userSpaceOnUse"><stop offset="0" stop-color="#cacfdd"></stop><stop offset="1" stop-color="#eef0f1"></stop></linearGradient></defs><g><rect width="217.16" height="402.32" x="130.18" y="36" fill="#dee1ec" rx="26.13"></rect><path fill="#a9afc4" d="M347.33,62.15v350a26.14,26.14,0,0,1-26.13,26.15H156.32a26.15,26.15,0,0,1-26.15-26.15v-350A26.15,26.15,0,0,1,156.32,36H321.2A26.14,26.14,0,0,1,347.33,62.15Z"></path><path fill="#dee1ec" d="M347.33,62.15v350a26.14,26.14,0,0,1-26.14,26.14H156.32a26.16,26.16,0,0,1-26.15-26.14v-350A26.16,26.16,0,0,1,156.32,36H321.19A26.14,26.14,0,0,1,347.33,62.15Z"></path><path fill="#f5f5f5" d="M334.71,67.78V406.55a13.25,13.25,0,0,1-13.25,13.24H157.25A13.23,13.23,0,0,1,144,406.56V67.78a13.25,13.25,0,0,1,13.24-13.25h37.15A9,9,0,0,1,203,60.91a8.93,8.93,0,0,0,8.56,6.37h55.63a9,9,0,0,0,8.57-6.37,8.93,8.93,0,0,1,8.56-6.38h37.16A13.25,13.25,0,0,1,334.71,67.78Z"></path><path fill="url(#a)" d="M347.33,331.76v80.42a26.14,26.14,0,0,1-26.14,26.14c-55.09,0-53,.07-52.87,0l52.75-91.37A30,30,0,0,1,347.33,331.76Z" style="mix-blend-mode:multiply"></path><path fill="#5e6175" d="M321.21,441.32H156.3a29.15,29.15,0,0,1-29.12-29.12V62.13A29.16,29.16,0,0,1,156.3,33H321.21a29.17,29.17,0,0,1,29.13,29.13V412.2A29.16,29.16,0,0,1,321.21,441.32ZM156.3,39a23.15,23.15,0,0,0-23.12,23.13V412.2a23.14,23.14,0,0,0,23.12,23.12H321.21a23.15,23.15,0,0,0,23.13-23.12V62.13A23.16,23.16,0,0,0,321.21,39Z"></path><path fill="#f5f5f5" d="M361.05,354.18l52.74,91.36a15.83,15.83,0,0,1-13.71,23.74H294.59a15.83,15.83,0,0,1-13.71-23.74l52.75-91.36A15.83,15.83,0,0,1,361.05,354.18Z"></path><path fill="#5e6175" d="M400.08,472.28H294.59A18.82,18.82,0,0,1,278.29,444L331,352.68a18.83,18.83,0,0,1,32.62,0L416.39,444A18.83,18.83,0,0,1,400.08,472.28Zm-63.85-116.6L283.48,447a12.83,12.83,0,0,0,11.11,19.24H400.08A12.82,12.82,0,0,0,411.19,447l-52.74-91.36A12.83,12.83,0,0,0,336.23,355.68Z"></path><polygon fill="#e1830e" points="336.98 378.88 336.98 407.59 340.21 425.52 347.32 425.52 347.32 425.54 354.44 425.53 357.69 407.58 357.7 378.84 336.98 378.88"></polygon><rect width="15.56" height="15.56" x="339.55" y="438.33" fill="#e1830e"></rect><path fill="#5e6175" d="M233.65,263.74h-8.33a25.64,25.64,0,0,1-25.65-25.64V186.33h34Z"></path><path fill="#5e6175" d="M236.65 266.74H225.31a28.68 28.68 0 01-28.64-28.64V183.33h40zm-34-77.41V238.1a22.66 22.66 0 0022.64 22.64h5.34V189.33zM253.09 263.74h-7.48V186.33h33.13V238.1A25.64 25.64 0 01253.09 263.74z"></path><path fill="#5e6175" d="M253.09 266.74H242.61V183.33h39.13V238.1A28.68 28.68 0 01253.09 266.74zm-4.48-6h4.48a22.67 22.67 0 0022.65-22.64V189.33H248.61zM261.32 175.28H217.09v-4.71a22.12 22.12 0 0144.23 0z"></path><path fill="#5e6175" d="M264.32,178.28H214.09v-7.71a25.12,25.12,0,0,1,50.23,0Zm-44.23-6h38.23v-1.71a19.12,19.12,0,0,0-38.23,0Z"></path><polygon fill="#5e6175" points="298.93 197.93 278.74 197.93 278.74 191.93 296.45 191.93 308.27 180.11 312.51 184.35 298.93 197.93"></polygon><polygon fill="#5e6175" points="308.27 252.4 296.45 240.58 278.74 240.58 278.74 234.58 298.93 234.58 312.51 248.16 308.27 252.4"></polygon><rect width="31.65" height="6" x="278.74" y="213.26" fill="#5e6175"></rect><polygon fill="#5e6175" points="199.67 197.93 179.22 197.93 165.64 184.35 169.88 180.11 181.7 191.93 199.67 191.93 199.67 197.93"></polygon><polygon fill="#5e6175" points="169.88 252.4 165.64 248.16 179.22 234.58 199.67 234.58 199.67 240.58 181.7 240.58 169.88 252.4"></polygon><rect width="31.91" height="6" x="167.76" y="213.26" fill="#5e6175"></rect><path fill="#a9afc4" d="M265.08 330H213.33a13.66 13.66 0 010-27.32h51.75a13.66 13.66 0 010 27.32zM415.11 226.09h-6v-6h6zm-16 0h-6v-6h6zm-16 0h-6v-6h6zm-16 0h-6v-6h6zM415.37 417.37h-6v-6h6zm0-16h-6v-6h6zm0-16h-6v-6h6zm0-16h-6v-6h6zm0-16h-6v-6h6zm0-16h-6v-6h6zm0-16h-6v-6h6zm0-16h-6v-6h6zm0-16h-6v-6h6zm0-16h-6v-6h6zm0-16h-6v-6h6zm0-16h-6v-6h6z"></path><rect width="19.33" height="6" x="107.8" y="450.37" fill="#5e6175" transform="rotate(-44.99 117.483 453.399)"></rect><rect width="6" height="19.33" x="137.24" y="456.67" fill="#5e6175"></rect><rect width="19.33" height="6" x="94.31" y="428.77" fill="#5e6175"></rect><path fill="#5e6175" d="M409.4 143.7a11.28 11.28 0 1111.29-11.28A11.29 11.29 0 01409.4 143.7zm0-16.56a5.28 5.28 0 105.29 5.28A5.29 5.29 0 00409.4 127.14zM376 188.41a8.85 8.85 0 118.84-8.85A8.85 8.85 0 01376 188.41zm0-11.69a2.85 2.85 0 102.84 2.84A2.84 2.84 0 00376 176.72z"></path></g></svg>