<svg xmlns="http://www.w3.org/2000/svg" xmlns:xlink="http://www.w3.org/1999/xlink" viewBox="0 0 512 512" id="warehouse"><defs><linearGradient id="a" x1="236.11" x2="236.11" y1="353.33" y2="403.55" gradientUnits="userSpaceOnUse"><stop offset="0" stop-color="#a9afc4"></stop><stop offset="1" stop-color="#d4d8e5"></stop></linearGradient><linearGradient xlink:href="#a" id="b" x1="287.29" x2="287.29" y1="353.33" y2="403.55"></linearGradient><linearGradient xlink:href="#a" id="c" x1="261.7" x2="261.7" y1="302.35" y2="348.52"></linearGradient><linearGradient id="d" x1="97.71" x2="176.55" y1="206.19" y2="206.19" gradientUnits="userSpaceOnUse"><stop offset="0" stop-color="#cacfdd"></stop><stop offset="1" stop-color="#eef0f1"></stop></linearGradient></defs><g style="isolation:isolate"><path fill="#f5f5f5" d="M425.69,234.35V403.77h-328V234.35l164-130.21Z"></path><path fill="#5e6175" d="M425.69,199.58v34.77l-164-130.21-164,130.21V199.58l164-131.37Z"></path><path fill="#f5f5f5" d="M425.68,234.35l-164-130.21-164,130.21c.1,0,0-3.85,0,169.42h328C425.68,230.82,425.58,234.35,425.68,234.35Z"></path><rect width="154.92" height="133.78" x="184.24" y="270" fill="#dee1ec"></rect><path fill="#5e6175" d="M342.16,406.77H181.24V267H342.16Zm-154.92-6H336.16V273H187.24Z"></path><rect width="175.12" height="20.59" x="174.14" y="252.62" fill="#e08326"></rect><polygon fill="#5e6175" points="425.69 199.59 425.69 234.35 261.7 104.14 97.71 234.35 97.71 199.59 261.7 68.21 425.69 199.59"></polygon><path fill="#5e6175" d="M428.69,240.56,261.7,108l-167,132.59V198.14l167-133.77,167,133.77ZM100.71,201v27.11l161-127.83,161,127.83V201l-161-129Z"></path><rect width="51.17" height="51.17" x="210.53" y="352.6" fill="url(#a)"></rect><rect width="16.01" height="16.01" x="228.11" y="352.6" fill="#e08326"></rect><rect width="51.17" height="51.17" x="261.7" y="352.6" fill="url(#b)"></rect><rect width="16.01" height="16.01" x="279.28" y="352.6" fill="#e08326"></rect><rect width="51.17" height="51.17" x="236.11" y="301.43" fill="url(#c)"></rect><rect width="16.01" height="16.01" x="253.69" y="301.43" fill="#e08326"></rect><rect width="371.37" height="6" x="97.72" y="400.77" fill="#5e6175"></rect><rect width="82.48" height="14.36" x="219.99" y="175.98" fill="#a9afc4"></rect><rect width="82.48" height="14.36" x="219.99" y="210.04" fill="#a9afc4"></rect><rect width="19.14" height="6" x="443.51" y="173.49" fill="#5e6175" transform="rotate(-44.99 453.119 176.496)"></rect><rect width="6" height="19.14" x="427.53" y="154.09" fill="#5e6175"></rect><rect width="19.14" height="6" x="456.86" y="194.88" fill="#5e6175"></rect><path fill="#5e6175" d="M62.07 410.57a12.69 12.69 0 1112.24-16A12.71 12.71 0 0162.07 410.57zm0-19.38a6.69 6.69 0 105.8 10A6.68 6.68 0 0062.06 391.19zM110 447.86a9.73 9.73 0 119.38-12.27A9.74 9.74 0 01110 447.86zm0-13.46a3.73 3.73 0 103.24 5.59A3.72 3.72 0 00110 434.4z"></path><path fill="url(#d)" d="M176.55,187.59a78.92,78.92,0,0,1-78.84,78.83V199.58L164.64,146A78.44,78.44,0,0,1,176.55,187.59Z" style="mix-blend-mode:multiply"></path><path fill="#5e6175" d="M264.7,406.77H207.53V349.6H264.7Zm-51.17-6H258.7V355.6H213.53Z"></path><path fill="#5e6175" d="M315.87,406.77H258.7V349.6h57.17Zm-51.17-6h45.17V355.6H264.7Z"></path><path fill="#5e6175" d="M290.29,355.6H233.11V298.43h57.18Zm-51.18-6h45.18V304.43H239.11Z"></path><path fill="#5e6175" d="M428.68,406.77h-334V232.9l167-132.59,167,132.59Zm-328-6h322v-165L261.7,108l-161,127.83Z"></path><circle cx="97.71" cy="187.59" r="61.71" fill="#f5f5f5"></circle><path fill="#a9afc4" d="M46.45,121.63l-3.68-4.73c1.62-1.27,3.31-2.49,5-3.64l3.35,5C49.55,119.31,48,120.45,46.45,121.63Zm104.27-5.44-.12-6a27.83,27.83,0,0,0,5.39-.62l1.25,5.87A33.93,33.93,0,0,1,150.72,116.19Zm-10.79-1.48a37.51,37.51,0,0,1-6-2.41l2.61-5.4a31.66,31.66,0,0,0,5.12,2.06Zm-80.49-1.39L56.69,108c1.84-.95,3.72-1.84,5.61-2.65l2.38,5.51C62.92,111.61,61.16,112.44,59.44,113.32Zm108-1.85-3-5.16a38.42,38.42,0,0,0,4.57-3.27l3.68,4.74A43.12,43.12,0,0,1,167.41,111.47ZM125,108.62c-1.81-.62-3.67-1.2-5.53-1.7l1.56-5.79c2,.54,4,1.15,5.94,1.82Zm-51.27-1.07L72,101.8c2-.59,4-1.12,6-1.57l1.32,5.86C77.46,106.51,75.58,107,73.74,107.55ZM110,105c-1.9-.28-3.84-.5-5.76-.65l.47-6c2,.16,4.13.4,6.16.7Zm-21.19-.44-.63-6c2-.22,4.13-.37,6.19-.44l.22,6C92.71,104.19,90.76,104.32,88.85,104.52Zm91.65-2.88-3.68-4.74,4.74-3.68L185.24,98Zm12.64-9.82-3.69-4.74,4.74-3.68,3.68,4.74ZM205.77,82l-3.69-4.74,4.74-3.68,3.68,4.74Zm12.63-9.82-3.69-4.74,3.44-2.67,3.68,4.74Z"></path><path fill="#5e6175" d="M97.71,252.3a64.71,64.71,0,1,1,64.72-64.71A64.78,64.78,0,0,1,97.71,252.3Zm0-123.42a58.71,58.71,0,1,0,58.72,58.71A58.77,58.77,0,0,0,97.71,128.88Z"></path><polygon fill="#e08326" points="88.61 216.94 63.8 192.13 72.88 183.05 88.61 198.78 124.62 162.77 133.7 171.85 88.61 216.94"></polygon></g></svg>