<svg xmlns="http://www.w3.org/2000/svg" viewBox="0 0 512 512" id="warning-sign"><defs><linearGradient id="a" x1="324.44" x2="418.87" y1="203.37" y2="203.37" gradientUnits="userSpaceOnUse"><stop offset="0" stop-color="#cacfdd"></stop><stop offset="1" stop-color="#eef0f1"></stop></linearGradient></defs><g><path fill="#f5f5f5" d="M400.41,379.64h-346A18.46,18.46,0,0,1,36,361.18V198.42A18.45,18.45,0,0,1,54.46,180h364.4V361.18A18.46,18.46,0,0,1,400.41,379.64Z"></path><path fill="#5e6175" d="M418.87,198.43v29.21H36V198.43A18.45,18.45,0,0,1,54.46,180H400.4A18.46,18.46,0,0,1,418.87,198.43Z"></path><path fill="url(#a)" d="M418.87,198.43v28.34H353.41a28.91,28.91,0,0,1-25.05-43.38l2-3.42H400.4A18.46,18.46,0,0,1,418.87,198.43Z" style="mix-blend-mode:multiply"></path><path fill="#5e6175" d="M95.74 158.05a9.61 9.61 0 119.6-9.61A9.62 9.62 0 0195.74 158.05zm0-13.21a3.61 3.61 0 103.6 3.6A3.61 3.61 0 0095.74 144.84zM151 131.05a13.22 13.22 0 1113.22-13.22A13.23 13.23 0 01151 131.05zm0-20.44a7.22 7.22 0 107.22 7.22A7.23 7.23 0 00151 110.61z"></path><rect width="6" height="19.63" x="434.05" y="389.11" fill="#5e6175" transform="rotate(-45 437.067 398.941)"></rect><rect width="19.63" height="6" x="440.4" y="372.8" fill="#5e6175"></rect><rect width="6" height="19.63" x="412.11" y="402.81" fill="#5e6175"></rect><path fill="#5e6175" d="M400.41,382.64h-346A21.49,21.49,0,0,1,33,361.18V198.42A21.48,21.48,0,0,1,54.46,177h367.4V361.18A21.48,21.48,0,0,1,400.41,382.64ZM54.46,183A15.47,15.47,0,0,0,39,198.42V361.18a15.48,15.48,0,0,0,15.46,15.46h346a15.47,15.47,0,0,0,15.45-15.46V183Z"></path><circle cx="65.42" cy="203.8" r="8.34" fill="#f5f5f5"></circle><circle cx="97.47" cy="203.8" r="8.34" fill="#f5f5f5"></circle><path fill="#e1830e" d="M338.47,357.88H387a14.71,14.71,0,0,0,0-29.42H338.47a14.71,14.71,0,0,0,0,29.42Z"></path><path fill="#a9afc4" d="M237.16,357.88h48.51a14.71,14.71,0,0,0,0-29.42H237.16a14.71,14.71,0,0,0,0,29.42Z"></path><path fill="#f5f5f5" d="M420.55,97.56l53.28,92.3a16,16,0,0,1-13.84,24H353.41a16,16,0,0,1-13.85-24l53.29-92.29A16,16,0,0,1,420.55,97.56Z"></path><path fill="#5e6175" d="M460,216.84H353.41A19,19,0,0,1,337,188.35l53.28-92.29a19,19,0,0,1,32.9,0l53.28,92.29A19,19,0,0,1,460,216.84ZM395.45,99.06l-53.29,92.29a13,13,0,0,0,11.25,19.49H460a13,13,0,0,0,11.25-19.49L418,99.06A13,13,0,0,0,395.45,99.06Z"></path><polygon fill="#e1830e" points="396.23 122.51 396.23 151.52 399.5 169.63 406.68 169.63 406.68 169.64 413.87 169.63 417.15 151.5 417.17 122.47 396.23 122.51"></polygon><rect width="15.72" height="15.72" x="398.83" y="182.56" fill="#e1830e"></rect><rect width="229.44" height="11.59" x="158.17" y="252.19" fill="#dee1ec"></rect><rect width="213.35" height="11.59" x="70.04" y="280.26" fill="#dee1ec"></rect><rect width="66.45" height="11.59" x="70.04" y="252.19" fill="#dee1ec"></rect><path fill="#a9afc4" d="M454.29,344.71h-6v-6h6Zm0-16h-6v-6h6Zm0-16h-6v-6h6Zm0-16h-6v-6h6Zm0-16h-6v-6h6Zm0-16h-6v-6h6Zm0-16h-6v-6h6Zm0-16h-6v-6h6Z"></path><rect width="6" height="6" x="432.09" y="338.96" fill="#a9afc4"></rect></g></svg>