<svg xmlns="http://www.w3.org/2000/svg" viewBox="0 0 512 512" id="whiteboard"><defs><linearGradient id="a" x1="302.53" x2="409.1" y1="347.25" y2="347.25" gradientUnits="userSpaceOnUse"><stop offset="0" stop-color="#cacfdd"></stop><stop offset="1" stop-color="#eef0f1"></stop></linearGradient></defs><g style="isolation:isolate"><rect width="346.07" height="264.16" x="86.81" y="110.63" fill="#e1830e"></rect><path fill="#5e6175" d="M435.89,377.79H83.81V107.63H435.89Zm-346.08-6H429.89V113.63H89.81Z"></path><rect width="297.99" height="216.08" x="110.86" y="134.67" fill="#f5f5f5"></rect><path fill="#f5f5f5" d="M165,110.63H112.79v-19a13.09,13.09,0,0,1,13.09-13.1h26.05A13.09,13.09,0,0,1,165,91.61Z"></path><path fill="#5e6175" d="M168,113.63H109.79v-22a16.11,16.11,0,0,1,16.09-16.1h26.05A16.12,16.12,0,0,1,168,91.61Zm-52.24-6H162v-16a10.11,10.11,0,0,0-10.1-10.1H125.88a10.11,10.11,0,0,0-10.09,10.1Z"></path><path fill="#5e6175" d="M138.91,95.36A7.37,7.37,0,0,1,131.53,88V69a7.38,7.38,0,1,1,14.76,0V88A7.39,7.39,0,0,1,138.91,95.36Z"></path><path fill="#f5f5f5" d="M408.85,110.63H356.61v-19a13.09,13.09,0,0,1,13.09-13.1h26.05a13.09,13.09,0,0,1,13.1,13.1Z"></path><path fill="#5e6175" d="M411.85,113.63H353.61v-22a16.11,16.11,0,0,1,16.09-16.1h26.05a16.12,16.12,0,0,1,16.1,16.1Zm-52.24-6h46.24v-16a10.11,10.11,0,0,0-10.1-10.1H369.7a10.11,10.11,0,0,0-10.09,10.1Z"></path><path fill="#5e6175" d="M382.73,95.36A7.37,7.37,0,0,1,375.35,88V69a7.38,7.38,0,0,1,14.76,0V88A7.39,7.39,0,0,1,382.73,95.36Z"></path><rect width="381.3" height="17.81" x="69.2" y="374.79" fill="#5e6175"></rect><path fill="url(#a)" d="M409.09,354.7c0,17.22.13,17.57-.4,20.09H303c-.54-2.54-.4-2.52-.4-20.09a19.79,19.79,0,0,1,4.78-12.92A23.2,23.2,0,0,1,322,324.87c18.62-6.8,48.62-6.94,67.65,0a23.23,23.23,0,0,1,14.66,16.91A19.85,19.85,0,0,1,409.09,354.7Z" style="mix-blend-mode:multiply"></path><rect width="74.54" height="24.03" x="318.55" y="350.76" fill="#a9afc4" rx="3.94"></rect><path fill="#5e6175" d="M389.15,377.79H322.49a6.94,6.94,0,0,1-6.94-6.94V354.7a6.94,6.94,0,0,1,6.94-6.94h66.66a6.94,6.94,0,0,1,6.94,6.94v16.15A6.94,6.94,0,0,1,389.15,377.79Zm-66.66-24a.94.94,0,0,0-.94.94v16.15a.94.94,0,0,0,.94.94h66.66a.94.94,0,0,0,.94-.94V354.7a.94.94,0,0,0-.94-.94Z"></path><path fill="#f5f5f5" d="M327.48,339.9a7.14,7.14,0,0,0-4.68,6.71v4.15h66v-4.15a7.14,7.14,0,0,0-4.69-6.71C368.93,334.34,342.76,334.32,327.48,339.9Z"></path><path fill="#5e6175" d="M391.84,353.76h-72v-7.15a10.18,10.18,0,0,1,6.66-9.53c15.91-5.81,42.79-5.82,58.72,0a10.18,10.18,0,0,1,6.66,9.53Zm-66-6h60v-1.15a4.15,4.15,0,0,0-2.71-3.89c-14.59-5.33-40-5.34-54.62,0a4.15,4.15,0,0,0-2.71,3.89Z"></path><rect width="18.22" height="6" x="445.07" y="85.99" fill="#5e6175" transform="rotate(-44.99 454.222 88.987)"></rect><rect width="6" height="18.22" x="429.71" y="67.66" fill="#5e6175"></rect><rect width="18.22" height="6" x="457.78" y="106.35" fill="#5e6175"></rect><path fill="#e1830e" d="M36 344.89a12.34 12.34 0 0112.34 12.34 12.36 12.36 0 0112.35-12.34 12.35 12.35 0 01-12.35-12.34A12.34 12.34 0 0136 344.89zM83.36 431.07a19.27 19.27 0 0119.27 19.27 19.29 19.29 0 0119.27-19.27 19.27 19.27 0 01-19.27-19.27A19.27 19.27 0 0183.36 431.07z"></path><path fill="#a9afc4" d="M448.53,422.28h-6v-6h6Zm-16,0h-6v-6h6Zm-16,0h-6v-6h6Zm-16,0h-6v-6h6Zm-16,0h-6v-6h6Zm-16,0h-6v-6h6Zm-16,0h-6v-6h6Zm106.86-1.75-2.09-5.63a22.06,22.06,0,0,0,4.68-2.41l3.36,5A28.19,28.19,0,0,1,459.39,420.53Zm13.75-11-5-3.28a22.81,22.81,0,0,0,2.34-4.72l5.65,2A27.48,27.48,0,0,1,473.14,409.54Zm4.57-16.84h-6v-6h6Zm0-16h-6v-6h6Z"></path><path fill="#5e6175" d="M453.5,395.6H66.2V371.79H453.5Zm-381.3-6H447.5V377.79H72.2Z"></path></g></svg>