<svg xmlns="http://www.w3.org/2000/svg" xmlns:xlink="http://www.w3.org/1999/xlink" viewBox="0 0 512 512" id="wishlist"><defs><linearGradient id="a" x1="77.87" x2="129.87" y1="139.58" y2="139.58" gradientUnits="userSpaceOnUse"><stop offset="0" stop-color="#a9afc4"></stop><stop offset="1" stop-color="#d4d8e5"></stop></linearGradient><linearGradient xlink:href="#a" id="b" x1="155.87" x2="431.29" y1="442.03" y2="442.03"></linearGradient><linearGradient id="c" x1="307.04" x2="379.29" y1="160" y2="160" gradientUnits="userSpaceOnUse"><stop offset="0" stop-color="#cacfdd"></stop><stop offset="1" stop-color="#eef0f1"></stop></linearGradient></defs><g style="isolation:isolate"><path fill="url(#a)" d="M103,117.49h1.75a25.12,25.12,0,0,1,25.12,25.12v19.06a0,0,0,0,1,0,0h-52a0,0,0,0,1,0,0V142.61A25.12,25.12,0,0,1,103,117.49Z"></path><path fill="#f5f5f5" d="M353.3,117.48H103.87a26,26,0,0,1,26,26V438.12a26,26,0,0,0,52,0V419.93H379.29V143.49A26,26,0,0,0,353.3,117.48Z"></path><path fill="#f5f5f5" d="M379.29,143.49V419.93H181.87v18.19a26,26,0,0,1-52,0V143.49a26,26,0,0,0-26-26H353.3A26,26,0,0,1,379.29,143.49Z"></path><path fill="url(#b)" d="M181.87,419.93v18.19a26,26,0,0,1-26,26H405.29a26,26,0,0,0,26-26V419.93Z"></path><path fill="#5e6175" d="M132.87 164.67h-58V142.61A28.15 28.15 0 01103 114.49h1.75a28.15 28.15 0 0128.12 28.12zm-52-6h46V142.61a22.14 22.14 0 00-22.12-22.12H103a22.15 22.15 0 00-22.13 22.12zM155.87 467.12v-6a23 23 0 0023-23V416.93H434.29v21.19a29 29 0 01-26 28.84C408.29 467.2 420.31 467.12 155.87 467.12zm17.64-6H405.29a23 23 0 0023-23V422.93H184.87v15.19A29 29 0 01173.51 461.12z"></path><path fill="#5e6175" d="M155.87,467.12a29,29,0,0,1-29-29V143.49a23,23,0,0,0-23-23v-6H353.3a29,29,0,0,1,29,29V422.93H184.87v15.19A29,29,0,0,1,155.87,467.12ZM121.54,120.48a28.9,28.9,0,0,1,11.33,23V438.12a23,23,0,0,0,46,0V416.93H376.29V143.49a23,23,0,0,0-23-23Z"></path><path fill="#e1830e" d="M194.28,208.58l22.18-26.39a14.28,14.28,0,1,0-22.18-17.8h0a14.3,14.3,0,0,0-15-6.08c-10.94,2.27-14.94,15.88-7.21,23.88C172.59,182.7,194.18,208.58,194.28,208.58Z"></path><rect width="72.72" height="12.16" x="247.12" y="162.48" fill="#dee1ec"></rect><rect width="51.01" height="12.16" x="247.12" y="190.18" fill="#dee1ec"></rect><path fill="#e1830e" d="M194.28,298.6l22.18-26.39a14.28,14.28,0,1,0-22.18-17.8h0a14.3,14.3,0,0,0-15-6.08c-10.94,2.27-14.94,15.88-7.21,23.88C172.59,272.72,194.18,298.6,194.28,298.6Z"></path><rect width="97.43" height="12.16" x="247.12" y="252.5" fill="#dee1ec"></rect><rect width="51.01" height="12.16" x="247.12" y="280.2" fill="#dee1ec"></rect><path fill="#e1830e" d="M194.28,388.62l22.18-26.39a14.28,14.28,0,1,0-22.18-17.8h0a14.3,14.3,0,0,0-15-6.08c-10.94,2.27-14.94,15.88-7.21,23.88C172.59,362.74,194.18,388.62,194.28,388.62Z"></path><rect width="97.43" height="12.16" x="247.12" y="342.52" fill="#dee1ec"></rect><rect width="51.01" height="12.16" x="247.12" y="370.21" fill="#dee1ec"></rect><path fill="url(#c)" d="M379.29,143.49v59a86.29,86.29,0,0,1-72.25-85H353.3A26,26,0,0,1,379.29,143.49Z" style="mix-blend-mode:multiply"></path><circle cx="393.2" cy="117.48" r="69.6" fill="#f5f5f5"></circle><path fill="#5e6175" d="M393.2,190.08a72.6,72.6,0,1,1,72.61-72.6A72.68,72.68,0,0,1,393.2,190.08Zm0-139.2a66.6,66.6,0,1,0,66.61,66.6A66.68,66.68,0,0,0,393.2,50.88Z"></path><path fill="#e1830e" d="M407.75 90.83V97.5h-6.53V90.21a7.68 7.68 0 00-15.35 0V97.5h-6.53V90.83a14.21 14.21 0 1128.41 0zM417.46 97.5H368.94L363 147h60.33z"></path><rect width="6.48" height="6.01" x="379.34" y="97.5" fill="#f5f5f5"></rect><rect width="6.48" height="6.01" x="401.27" y="97.5" fill="#f5f5f5"></rect><rect width="19.13" height="6" x="49.34" y="179.78" fill="#5e6175" transform="rotate(-45 58.91 182.779)"></rect><rect width="6" height="19.13" x="78.44" y="186.04" fill="#5e6175"></rect><rect width="19.13" height="6" x="36" y="158.41" fill="#5e6175"></rect><path fill="#5e6175" d="M420.37 393.11a12.14 12.14 0 118.79-3.76A12.15 12.15 0 01420.37 393.11zm-6.14-12a6.14 6.14 0 101.69-4.38 6.14 6.14 0 00-1.69 4.38zM469.65 421.83a9.35 9.35 0 119.35-9.56A9.35 9.35 0 01469.65 421.83zm0-12.69a3.35 3.35 0 102.43 5.66A3.34 3.34 0 00469.65 409.14z"></path><path fill="#a9afc4" d="M401.12 289.28h-6v-6h6zm10.41-.33l-.86-5.94a24.49 24.49 0 005.18-1.33l2.1 5.62A30.9 30.9 0 01411.53 289zm15.88-7.28l-3.93-4.53a25.1 25.1 0 003.65-3.92l4.79 3.61A31.3 31.3 0 01427.41 281.67zM436.88 267l-5.76-1.71a25.15 25.15 0 001-5.26l6 .45A31.33 31.33 0 01436.88 267zm1.28-16.74h-6v-6h6zm0-16h-6v-6h6zm0-16h-6v-6h6zm0-16h-6v-6h6zM367.78 289.28h-6v-6h6zm-16 0h-6v-6h6zm-16 0h-6v-6h6z"></path></g></svg>