<svg xmlns="http://www.w3.org/2000/svg" viewBox="0 0 216.03 216.03" id="EmptyLocation"><path fill="#d4ab7f" d="M159.92,80.79a43.7,43.7,0,1,0-87.39,0c0,34.87,43.27,70.33,43.27,70.33S159.92,116.2,159.92,80.79Z" class="svgShape color7fa1d4-0"></path><path fill="#ff982b" d="M89,88.81c1.68-21.49,15.26-32.75,39.54-39.53,4.89-1.37-5.48-6-15.25-5.5-17.16.8-31.11,13.93-31.11,31.11C82.15,83.36,88.46,95.35,89,88.81Z" class="svgShape colora2bee3-1"></path><path fill="#c18b52" d="M145.31,48.19A94.05,94.05,0,0,1,147.88,79a64.72,64.72,0,0,1-4.54,20.29c-2.9,6.85-7.37,12.85-12.21,18.45-7.65,8.89-17.6,17.68-29.35,20a163.76,163.76,0,0,0,14,13.41s44.12-34.92,44.12-70.33A43.59,43.59,0,0,0,145.31,48.19Z" class="svgShape color5280c1-2"></path><path fill="#ffffff" d="M143,76.19A26.06,26.06,0,1,1,117,50.13,26.06,26.06,0,0,1,143,76.19Z" class="svgShape colorffffff-3"></path><path fill="#5b3e1f" d="M117,103.25A27.06,27.06,0,1,1,144,76.19,27.09,27.09,0,0,1,117,103.25Zm0-52.12A25.06,25.06,0,1,0,142,76.19,25.09,25.09,0,0,0,117,51.13Z" class="svgShape color1f2b5b-4"></path><path fill="#5b3e1f" d="M115.8,152.12a1,1,0,0,1-.63-.22,176.59,176.59,0,0,1-21.78-22.23c-10-12.19-21.86-30.57-21.86-48.88a44.7,44.7,0,1,1,89.39,0c0,18.59-12.12,37-22.29,49.09a173.72,173.72,0,0,1-22.21,22A1,1,0,0,1,115.8,152.12Zm.42-114a42.75,42.75,0,0,0-42.69,42.7c0,31.73,37,64.51,42.28,69,5.38-4.44,43.11-36.81,43.11-69A42.75,42.75,0,0,0,116.22,38.09Z" class="svgShape color1f2b5b-5"></path><circle cx="116.22" cy="168.23" r="10.92" fill="#c18b52" class="svgShape color5280c1-6"></circle><path fill="#5b3e1f" d="M116.22,180.15a11.93,11.93,0,1,1,11.93-11.92A11.94,11.94,0,0,1,116.22,180.15Zm0-21.85a9.93,9.93,0,1,0,9.93,9.93A9.94,9.94,0,0,0,116.22,158.3Z" class="svgShape color1f2b5b-7"></path><ellipse cx="116.17" cy="166.47" fill="#d4ab7f" rx="6.7" ry="4.73" class="svgShape color7fa1d4-8"></ellipse><path fill="#ff982b" d="M170.49,112.75h0a6.3,6.3,0,0,1-8.76,1.65l-96.61-66a6.31,6.31,0,0,1-1.65-8.76h0A6.31,6.31,0,0,1,72.23,38l96.61,66A6.3,6.3,0,0,1,170.49,112.75Z" class="svgShape colora2bee3-9"></path><path fill="#5b3e1f" d="M165.28,116.5a7.24,7.24,0,0,1-4.11-1.27l-96.61-66a7.3,7.3,0,1,1,8.23-12.05l96.62,66a7.31,7.31,0,0,1,1.9,10.15h0A7.3,7.3,0,0,1,165.28,116.5ZM68.68,37.88a5.3,5.3,0,0,0-3,9.67l96.62,66a5.31,5.31,0,0,0,7.36-1.39h0a5.32,5.32,0,0,0-1.38-7.37l-96.61-66A5.34,5.34,0,0,0,68.68,37.88Z" class="svgShape color1f2b5b-10"></path><path fill="#ff982b" d="M72.24,109.63c-1.09-2-2.6-3-4.25-3s-3.15,1.08-4.25,3L45.37,142.47c-1.09,1.94-1.22,3.82-.37,5.27S47.57,150,49.82,150H86.17c2.25,0,4-.81,4.82-2.27s.72-3.33-.37-5.27Z" class="svgShape colora2bee3-11"></path><path fill="#5b3e1f" d="M86.17,151H49.82c-2.62,0-4.64-1-5.68-2.76s-.92-4,.35-6.27l18.38-32.84c1.28-2.29,3.1-3.55,5.12-3.55s3.84,1.26,5.12,3.55L91.49,142c1.27,2.27,1.4,4.49.36,6.27S88.79,151,86.17,151ZM68,107.59c-1.26,0-2.46.9-3.37,2.53L46.24,143c-.91,1.62-1,3.14-.38,4.27s2.08,1.78,4,1.78H86.17c1.88,0,3.29-.63,4-1.78s.53-2.65-.38-4.27L71.37,110.12C70.46,108.49,69.26,107.59,68,107.59Z" class="svgShape color1f2b5b-12"></path><path fill="#ffffff" d="M68,139.74a2.43,2.43,0,1,0,2.43,2.42A2.43,2.43,0,0,0,68,139.74Z" class="svgShape colorffffff-13"></path><path fill="#5b3e1f" d="M68,145.59a3.43,3.43,0,1,1,3.43-3.43A3.43,3.43,0,0,1,68,145.59Zm0-4.85a1.43,1.43,0,1,0,1.43,1.42A1.43,1.43,0,0,0,68,140.74Z" class="svgShape color1f2b5b-14"></path><path fill="#ffffff" d="M68,136.92c.89,0,1.68-1.09,1.76-2.42l.93-15.76a2.26,2.26,0,0,0-2.28-2.41h-.81a2.26,2.26,0,0,0-2.28,2.41l.93,15.76C66.31,135.83,67.11,136.92,68,136.92Z" class="svgShape colorffffff-15"></path><path fill="#5b3e1f" d="M68,137.92c-1.43,0-2.64-1.48-2.75-3.36l-.93-15.76a3.27,3.27,0,0,1,3.28-3.48h.81a3.28,3.28,0,0,1,3.28,3.48l-.93,15.76C70.64,136.44,69.43,137.92,68,137.92Zm-.4-20.6a1.27,1.27,0,0,0-1.28,1.37l.92,15.75c.06.92.56,1.48.76,1.48s.71-.56.76-1.48l.93-15.75a1.27,1.27,0,0,0-1.28-1.37Z" class="svgShape color1f2b5b-16"></path><path fill="#d4ab7f" d="M164.54,150.06l-5.48-5.48,5.48-5.47a2.79,2.79,0,0,0-3.95-4l-5.47,5.48-5.48-5.48a2.79,2.79,0,0,0-3.95,4l5.48,5.48-5.48,5.47a2.79,2.79,0,0,0,3.95,3.95l5.47-5.48,5.48,5.48a2.79,2.79,0,0,0,3.95-3.95Z" class="svgShape color7fa1d4-17"></path><path fill="#5b3e1f" d="M147.67,155.82a3.79,3.79,0,0,1-2.68-6.47l4.76-4.76L145,139.82a3.79,3.79,0,1,1,5.36-5.37l4.77,4.77,4.76-4.77a3.79,3.79,0,0,1,5.36,5.37l-4.76,4.76,4.76,4.77a3.79,3.79,0,0,1-5.35,5.37L155.11,150l-4.76,4.77A3.81,3.81,0,0,1,147.67,155.82Zm0-20.47a1.8,1.8,0,0,0-1.27,3.06l5.47,5.47a1,1,0,0,1,0,1.41l-5.47,5.48a1.79,1.79,0,1,0,2.53,2.53l5.48-5.47a1,1,0,0,1,1.41,0l5.48,5.47a1.79,1.79,0,0,0,2.53-2.53h0l-5.47-5.48a1,1,0,0,1-.3-.71,1,1,0,0,1,.3-.7l5.47-5.47a1.79,1.79,0,0,0-2.53-2.54l-5.48,5.47a1,1,0,0,1-1.41,0l-5.48-5.47A1.75,1.75,0,0,0,147.67,135.35Z" class="svgShape color1f2b5b-18"></path></svg>