<svg xmlns="http://www.w3.org/2000/svg" viewBox="0 0 216.03 216.03" id="History"><path fill="#e3c3a2" d="M153.79,76.91a3,3,0,0,1-2.89,2l-11.6,0-.16,51.66c.24,14.65-3.25,22-13.34,22.28H125l-71-.22c-11.49,0-11.41-25.89.08-25.85l10.9,0,.17-57.85c.19-5.11,1.8-8.79,5.16-10.72A9.61,9.61,0,0,1,75.07,57l71.58.22C154.59,58.7,156.72,68.89,153.79,76.91Z" class="svgShape colora2bee3-0"></path><path fill="#5b3e1f" d="M125,153.82h-.27l-71-.22c-6.61,0-9.6-7.25-9.58-14s3-13.89,9.64-13.89h0l9.9,0,.18-56.86c.21-5.66,2.11-9.54,5.66-11.58A10.54,10.54,0,0,1,74.78,56h0l71.68.22.09,0a10.28,10.28,0,0,1,7.2,5.24c2.39,4.19,2.66,10.38.7,15.77h0a4.07,4.07,0,0,1-3.83,2.65h0l-10.6,0-.15,50.66c.18,11.32-1.38,23-14.32,23.28ZM53.77,127.75c-5.22,0-7.62,6.16-7.64,11.9s2.35,11.93,7.58,11.95l71.05.22h.75c9-.22,12.62-6.38,12.38-21.27l.16-52.67,12.6,0h0a2.06,2.06,0,0,0,1.95-1.34h0c1.77-4.85,1.55-10.39-.56-14.09a8.36,8.36,0,0,0-5.74-4.25L74.81,58h0a8.51,8.51,0,0,0-4.26,1.08c-3,1.69-4.47,4.92-4.65,9.88l-.18,58.83-11.9,0Z" class="svgShape color1f2b5b-1"></path><path fill="#d4ab7f" d="M45.87 144.18c1 4.65 3.72 8.41 8.1 8.42l71 .22h.8a8.51 8.51 0 01-4.87-1.75 10.63 10.63 0 01-3.59-5.31 17.17 17.17 0 01-.67-6.59l10.74 0c6.69-.93 4.46-11.39-4.44-12.23l-63.48-.2H54C46.94 126.73 44.19 136.62 45.87 144.18zM151.36 78.83l-12.05 0 0-9.34C139.69 54.3 156.16 61.83 151.36 78.83z" class="svgShape color7fa1d4-2"></path><path fill="#5b3e1f" d="M151.36,79.83h0l-12,0a1,1,0,0,1-1-1l0-9.33c.14-6.08,2.67-8.09,4.16-8.75,2-.9,4.48-.37,6.53,1.41,3,2.6,5.66,8.61,3.3,17A1,1,0,0,1,151.36,79.83Zm-11.05-2,10.28,0c1.77-7.08-.41-12-2.88-14.2-1.45-1.26-3.1-1.67-4.41-1.09-1.8.8-2.89,3.33-3,6.95Z" class="svgShape color1f2b5b-3"></path><path fill="#202020" d="M125.91,153.59h-.14a9.42,9.42,0,0,1-6.7-3.2c-1.69-1.87-3.61-5.36-3.18-11.29a.79.79,0,0,1,.79-.74l10.69,0a3.43,3.43,0,0,0,3.15-3.69c-.07-3.07-2.92-6.5-7.58-7l-58-.18A.79.79,0,1,1,65,126l58,.18h.07c5.77.55,9,4.79,9,8.5a5,5,0,0,1-4.57,5.31h-.11l-10,0c-.14,3.88.85,7.19,2.81,9.38a7.89,7.89,0,0,0,5.59,2.68.79.79,0,0,1,.08,1.57Z" class="svgShape color202020-4"></path><path fill="#c18b52" d="M116.68,139.16c.68-8.24,8.7-12.28,11.95-5,0,0,1.57,3.68-1.38,4.72S116.68,139.16,116.68,139.16Z" class="svgShape color5280c1-5"></path><path fill="#5b3e1f" d="M121.68,140.41c-2.69,0-5.17-.24-5.36-.25a1,1,0,0,1-.9-1.08c.41-5,3.42-9,7.16-9.64,2.79-.47,5.29,1.12,6.7,4.27a5.78,5.78,0,0,1,.18,4.17,3.51,3.51,0,0,1-2.13,1.9A19,19,0,0,1,121.68,140.41Zm-4.14-2.16c2.55.18,7.18.34,9.12-.35a1.53,1.53,0,0,0,1-.82,3.82,3.82,0,0,0-.18-2.57c-1-2.31-2.67-3.41-4.53-3.1C120.71,131.79,118.2,134.28,117.54,138.25Z" class="svgShape color1f2b5b-6"></path><path fill="#c18b52" d="M45.87,144.18c1,4.65,3.72,8.41,8.1,8.42l71,.22h.8a8.51,8.51,0,0,1-4.87-1.75,10.63,10.63,0,0,1-3.59-5.31c-14.81-.06-59.54,1.36-62.74-5-2.77-5.51,2.22-11.39,4.89-14H54C46.94,126.73,44.19,136.62,45.87,144.18Z" class="svgShape color5280c1-7"></path><path fill="#5b3e1f" d="M124.75,153.82l-71-.22c-4.42,0-7.81-3.45-9.08-9.21-1.23-5.57-.1-11.92,2.74-15.45a8,8,0,0,1,6.39-3.19h0l68.93.21c6,.56,9.25,4.9,9.33,8.71a5.21,5.21,0,0,1-4.74,5.51.38.38,0,0,1-.15,0l-9.79,0a15.69,15.69,0,0,0,.68,5.28,9.63,9.63,0,0,0,3.24,4.82,7.55,7.55,0,0,0,4.3,1.55,1,1,0,0,1,0,2Zm-71-26.07a6,6,0,0,0-4.83,2.44c-2.49,3.09-3.46,8.76-2.34,13.77h0c.5,2.3,2.2,7.63,7.12,7.64l66.3.2a11.72,11.72,0,0,1-3.87-5.75,18.51,18.51,0,0,1-.72-7,1,1,0,0,1,1-.93h0l10.68,0a3.22,3.22,0,0,0,3-3.48c-.07-3-2.87-6.32-7.43-6.75l-68.84-.21Z" class="svgShape color1f2b5b-8"></path><path fill="#ffffff" d="M126.3,103.81H74.59a2,2,0,0,1-2-2h0a2,2,0,0,1,2-2H126.3a2,2,0,0,1,2,2h0A2,2,0,0,1,126.3,103.81Z" class="svgShape colorffffff-9"></path><path fill="#5b3e1f" d="M126.05,104.81H74.34a3,3,0,1,1,0-6h51.71a3,3,0,1,1,0,6Zm-51.71-4a1,1,0,1,0,0,2h51.71a1,1,0,1,0,0-2Z" class="svgShape color1f2b5b-10"></path><path fill="#ffffff" d="M126.3,111.25H74.59a2,2,0,0,1-2-2h0a2,2,0,0,1,2-2H126.3a2,2,0,0,1,2,2h0A2,2,0,0,1,126.3,111.25Z" class="svgShape colorffffff-11"></path><path fill="#5b3e1f" d="M126.05,112.25H74.34a3,3,0,0,1,0-6h51.71a3,3,0,1,1,0,6Zm-51.71-4a1,1,0,0,0,0,2h51.71a1,1,0,1,0,0-2Z" class="svgShape color1f2b5b-12"></path><path fill="#ffffff" d="M112.23,118.68H74.59a2,2,0,0,1-2-2h0a2,2,0,0,1,2-2h37.64a2,2,0,0,1,2,2h0A2,2,0,0,1,112.23,118.68Z" class="svgShape colorffffff-13"></path><path fill="#5b3e1f" d="M112,119.68H74.34a3,3,0,1,1,0-6H112a3,3,0,1,1,0,6Zm-37.63-4a1,1,0,1,0,0,2H112a1,1,0,1,0,0-2Z" class="svgShape color1f2b5b-14"></path><rect width="55.27" height="17.54" x="73.03" y="76.28" fill="#ffffff" rx="1.8" class="svgShape colorffffff-15"></rect><path fill="#5b3e1f" d="M126.5,94.82H74.83A2.81,2.81,0,0,1,72,92V78.09a2.81,2.81,0,0,1,2.8-2.81H126.5a2.81,2.81,0,0,1,2.8,2.81V92A2.81,2.81,0,0,1,126.5,94.82ZM74.83,77.28a.8.8,0,0,0-.8.81V92a.8.8,0,0,0,.8.8H126.5a.8.8,0,0,0,.8-.8V78.09a.8.8,0,0,0-.8-.81Z" class="svgShape color1f2b5b-16"></path><path fill="#e3c3a2" d="M73.15,83.28A20.88,20.88,0,1,1,52.28,62.4,20.87,20.87,0,0,1,73.15,83.28Z" class="svgShape colora2bee3-17"></path><path fill="#ffffff" d="M66.77,86.24A16.36,16.36,0,1,1,50.41,69.88,16.35,16.35,0,0,1,66.77,86.24Z" class="svgShape colorffffff-18"></path><path fill="#d4ab7f" d="M52.28,106A22.72,22.72,0,1,1,75,83.28,22.74,22.74,0,0,1,52.28,106Zm0-41.75a19,19,0,1,0,19,19A19.06,19.06,0,0,0,52.28,64.24Z" class="svgShape color7fa1d4-19"></path><path fill="#5b3e1f" d="M52,107A23.72,23.72,0,1,1,75.74,83.28,23.74,23.74,0,0,1,52,107Zm0-45.43A21.72,21.72,0,1,0,73.74,83.28,21.74,21.74,0,0,0,52,61.56Zm0,41.75a20,20,0,1,1,20-20A20.06,20.06,0,0,1,52,103.31Zm0-38.07a18,18,0,1,0,18,18A18.06,18.06,0,0,0,52,65.24Z" class="svgShape color1f2b5b-20"></path><rect width="2" height="4.7" x="51.02" y="65.91" fill="#5b3e1f" class="svgShape color1f2b5b-21"></rect><polygon fill="#5b3e1f" points="61.94 75.03 60.27 73.61 63.59 70.29 65.26 71.7 61.94 75.03" class="svgShape color1f2b5b-22"></polygon><rect width="4.7" height="2" x="64.69" y="82.28" fill="#5b3e1f" class="svgShape color1f2b5b-23"></rect><rect width="2" height="4.7" x="61.64" y="91.55" fill="#5b3e1f" transform="rotate(-45 62.633 93.896)" class="svgShape color1f2b5b-24"></rect><rect width="2" height="4.7" x="51.02" y="95.95" fill="#5b3e1f" class="svgShape color1f2b5b-25"></rect><rect width="4.7" height="2" x="39.05" y="92.9" fill="#5b3e1f" transform="rotate(-45 41.392 93.895)" class="svgShape color1f2b5b-26"></rect><rect width="4.7" height="2" x="34.65" y="82.28" fill="#5b3e1f" class="svgShape color1f2b5b-27"></rect><rect width="2" height="4.7" x="40.4" y="70.31" fill="#5b3e1f" transform="rotate(-45.01 41.403 72.652)" class="svgShape color1f2b5b-28"></rect><path fill="#c18b52" d="M54.65,83.28a2.38,2.38,0,1,1-2.37-2.37A2.38,2.38,0,0,1,54.65,83.28Z" class="svgShape color5280c1-29"></path><path fill="#5b3e1f" d="M52,86.65a3.38,3.38,0,1,1,3.37-3.37A3.37,3.37,0,0,1,52,86.65Zm0-4.75a1.38,1.38,0,1,0,1.37,1.38A1.37,1.37,0,0,0,52,81.9Z" class="svgShape color1f2b5b-30"></path><rect width="2" height="7.3" x="51.02" y="73.6" fill="#5b3e1f" class="svgShape color1f2b5b-31"></rect><line x1="52.28" x2="47.36" y1="85.65" y2="94.71" fill="#ff982b" class="svgShape colora1a1a1-32"></line><rect width="10.31" height="2" x="44.41" y="89.18" fill="#5b3e1f" transform="rotate(-61.53 49.561 90.182)" class="svgShape color1f2b5b-33"></rect><path fill="#e3c3a2" d="M144.67,135.29h7.44q3.3-9.18,7.42-18.11l-2.79-5.26s3.5-.79,6-1.4q3.71-7.47,7.95-14.76l-5.26-4.45,7.76.26q5.91-9.76,12.76-19.23c-18.52-2.13-31.28,3.1-37.78,16.33l3.21,7s-3,.17-5.94.26C142.66,105.86,142.37,118.92,144.67,135.29Z" class="svgShape colora2bee3-34"></path><path fill="#ffffff" d="M144.5,134c.05.43.11.86.17,1.29h7.44q3.31-9.18,7.42-18.11l-2.79-5.26s3.5-.79,6-1.4q3.71-7.47,7.95-14.76l-5.26-4.45,7.76.26q5.91-9.76,12.76-19.23c-1.24-.14-2.46-.25-3.66-.32q-6.45,9-12.07,18.26l-2.55-.09a1.81,1.81,0,0,0-1.23,3.2l1.28,1.08q-4.24,7.31-7.95,14.76l-3,.71a2.38,2.38,0,0,0-1.56,3.43l1.34,2.52q-4.11,8.94-7.42,18.11Z" class="svgShape colorffffff-35"></path><path fill="#d4ab7f" d="M144.67,135.35h2.68c-2.27-16.26-2-29.25.77-39.12,1.59,0,3.19-.12,4.32-.17a1.1,1.1,0,0,0,.95-1.55L150.85,89c6.09-12.39,17.67-17.76,34.34-16.64-18.12-1.91-30.63,3.35-37.05,16.41l3.21,7s-3,.17-5.94.26C142.66,105.91,142.37,119,144.67,135.35Z" class="svgShape color7fa1d4-36"></path><path fill="#5b3e1f" d="M147.38,136.29h0a1,1,0,0,1-1-1c0-1.38.06-2.75.12-4.12a110.77,110.77,0,0,1,1.77-16A69.82,69.82,0,0,1,154.7,96a50.7,50.7,0,0,1,5.6-8.53,46.8,46.8,0,0,1,7.29-7.13,49,49,0,0,1,9.83-5.93,1,1,0,0,1,.84,1.82,46.71,46.71,0,0,0-9.43,5.69,43.7,43.7,0,0,0-7,6.82,47.68,47.68,0,0,0-5.37,8.19,67.32,67.32,0,0,0-6.24,18.66,109.71,109.71,0,0,0-1.74,15.67c-.06,1.35-.1,2.7-.12,4.06A1,1,0,0,1,147.38,136.29Z" class="svgShape color1f2b5b-37"></path><path fill="#d4ab7f" d="M162.56,150.53l-1.45,8.18-.53,2.95a4.38,4.38,0,0,1-4.31,3.61H140a4.39,4.39,0,0,1-4.32-3.61l-.52-2.95-1.46-8.18a9.3,9.3,0,0,1,1.06-6.21,8.57,8.57,0,0,1,.79-1.2l3.76-4.78a.94.94,0,0,0-.74-1.53H138a2.21,2.21,0,1,1,0-4.42h20.17a2.21,2.21,0,1,1,0,4.42h-.51a.94.94,0,0,0-.74,1.53l3.75,4.78a8.64,8.64,0,0,1,.8,1.2A9.29,9.29,0,0,1,162.56,150.53Z" class="svgShape color7fa1d4-38"></path><path fill="#e3c3a2" d="M162.56,150.53l-1.45,8.18-.53,2.95a4.38,4.38,0,0,1-4.31,3.61h-3.45a4.39,4.39,0,0,0,4.32-3.61l.52-2.95,1.46-8.18a9.35,9.35,0,0,0-1.05-6.21,8.64,8.64,0,0,0-.8-1.2l-3.76-4.78a1,1,0,0,1,.74-1.53h.52a2.21,2.21,0,0,0,0-4.42h3.44a2.21,2.21,0,1,1,0,4.42h-.51a.94.94,0,0,0-.74,1.53l3.75,4.78a8.64,8.64,0,0,1,.8,1.2A9.29,9.29,0,0,1,162.56,150.53Z" class="svgShape colora2bee3-39"></path><path fill="#c18b52" d="M145.32,165.27H140a4.39,4.39,0,0,1-4.32-3.61l-.52-2.95-1.46-8.18a9.3,9.3,0,0,1,1.06-6.21,8.57,8.57,0,0,1,.79-1.2l3.76-4.78a.94.94,0,0,0-.74-1.53H138a2.21,2.21,0,1,1,0-4.42h5.33a2.21,2.21,0,0,0-2.21,2.21,2.2,2.2,0,0,0,2.21,2.21h.52a1,1,0,0,1,.74,1.53l-3.76,4.78a8.64,8.64,0,0,0-.8,1.2,9.35,9.35,0,0,0-1,6.21l1.46,8.18.52,2.95A4.39,4.39,0,0,0,145.32,165.27Z" class="svgShape color5280c1-40"></path><path fill="#e3c3a2" d="M156.79,149c-.13,2-1.29,3.61-2.59,3.53s-.86-1.71-.73-3.74-.11-3.71,1.19-3.63S156.92,146.94,156.79,149Z" class="svgShape colora2bee3-41"></path><path fill="#5b3e1f" d="M156,166.27H139.73a5.36,5.36,0,0,1-5.29-4.43l-2-11.14a10.32,10.32,0,0,1,1.16-6.87,12.1,12.1,0,0,1,.88-1.32l3.69-4.69h-.4a3.22,3.22,0,0,1,0-6.43H158a3.22,3.22,0,0,1,2.27,5.49,3.17,3.17,0,0,1-2.27.94h-.4l3.68,4.68a10,10,0,0,1,.89,1.34,10.28,10.28,0,0,1,1.16,6.86l-2,11.14A5.39,5.39,0,0,1,156,166.27Zm-18.23-32.88a1.22,1.22,0,0,0-1.21,1.22,1.2,1.2,0,0,0,.36.85,1.18,1.18,0,0,0,.85.36h.53a1.93,1.93,0,0,1,1.51,3.14l-3.75,4.78a8.4,8.4,0,0,0-1.65,6.61l2,11.13a3.36,3.36,0,0,0,3.32,2.79H156a3.4,3.4,0,0,0,3.34-2.79l2-11.13a8.3,8.3,0,0,0-.93-5.53,9.75,9.75,0,0,0-.72-1.09L155.91,139a1.94,1.94,0,0,1,1.53-3.14H158a1.12,1.12,0,0,0,.84-.35,1.21,1.21,0,0,0,.37-.86,1.22,1.22,0,0,0-1.21-1.22Z" class="svgShape color1f2b5b-42"></path><path fill="#5b3e1f" d="M153.87,133.39H143.41l-.11-.87c-1.87-15-1.48-27.39,1.16-36.85l.19-.71.74,0c1.64,0,3.3-.13,4.43-.18L147,88.65l.2-.43c6.6-13.4,19.65-19.08,38.8-16.87l1.7.2-1,1.38c-4.63,6.42-8.91,12.86-12.72,19.15l-.3.5-5.47-.18L172,95.54l-.42.73c-2.81,4.82-5.47,9.76-7.92,14.69l-.21.42-.45.11c-1.54.37-3.47.83-4.71,1.11l2.41,4.55-.21.45c-2.3,5-4.43,10.08-6.33,15.14Zm-8.7-2h7.32c1.79-4.74,3.79-9.51,5.93-14.18l-3.17-6,1.27-.29s3.08-.71,5.51-1.29c2.28-4.59,4.75-9.18,7.35-13.67l-6.81-5.78,10,.33c3.48-5.71,7.34-11.55,11.5-17.38C167,71.6,155.29,76.81,149.24,88.68l3.63,7.91-1.47.09s-2.53.14-5.21.23C143.85,105.84,143.51,117.44,145.17,131.39Z" class="svgShape color1f2b5b-43"></path><rect width="10.7" height="2" x="114.85" y="160.06" fill="#5b3e1f" class="svgShape color1f2b5b-44"></rect><rect width="32.73" height="2" x="77.63" y="160.06" fill="#5b3e1f" class="svgShape color1f2b5b-45"></rect><rect width="10.7" height="2" x="119.96" y="49.76" fill="#5b3e1f" class="svgShape color1f2b5b-46"></rect><rect width="22.32" height="2" x="93.41" y="49.76" fill="#5b3e1f" class="svgShape color1f2b5b-47"></rect></svg>