<svg xmlns="http://www.w3.org/2000/svg" viewBox="0 0 216.03 216.03" id="NoMessage"><path fill="#d4ab7f" d="M51.84,64.42h51.59A17.6,17.6,0,0,1,121,82V99.41A17.59,17.59,0,0,1,103.43,117H61.58L47.8,129.59v-13A17.61,17.61,0,0,1,34.25,99.41V82A17.59,17.59,0,0,1,51.84,64.42Z" class="svgShape color7fa1d4-0"></path><path fill="#5b3e1f" d="M47.8,130.59a1,1,0,0,1-.41-.09,1,1,0,0,1-.59-.91V117.31a18.5,18.5,0,0,1-13.55-17.9V82A18.61,18.61,0,0,1,51.84,63.42h51.59A18.61,18.61,0,0,1,122,82v17.4A18.61,18.61,0,0,1,103.43,118H62l-13.5,12.32A1,1,0,0,1,47.8,130.59Zm4-65.17A16.61,16.61,0,0,0,35.25,82v17.4A16.52,16.52,0,0,0,48,115.56a1,1,0,0,1,.78,1v10.78l12.1-11a1,1,0,0,1,.68-.27h41.85A16.61,16.61,0,0,0,120,99.41V82a16.61,16.61,0,0,0-16.59-16.59Z" class="svgShape color1f2b5b-1"></path><path fill="#c18b52" d="M154.31,75.69h-61A20.79,20.79,0,0,0,72.55,96.48V117a20.79,20.79,0,0,0,20.79,20.79H142.8l16.29,14.87V137.28a20.8,20.8,0,0,0,16-20.24V96.48A20.79,20.79,0,0,0,154.31,75.69Z" class="svgShape color5280c1-2"></path><path fill="#5b3e1f" d="M159.09,153.7a1,1,0,0,1-.67-.26l-16-14.61H93.34A21.81,21.81,0,0,1,71.55,117V96.48A21.81,21.81,0,0,1,93.34,74.69h61A21.81,21.81,0,0,1,176.1,96.48V117a21.68,21.68,0,0,1-16,21V152.7a1,1,0,0,1-.6.91A.93.93,0,0,1,159.09,153.7Zm-65.75-77A19.82,19.82,0,0,0,73.55,96.48V117a19.82,19.82,0,0,0,19.79,19.79H142.8a1,1,0,0,1,.68.26l14.61,13.34V137.28a1,1,0,0,1,.77-1A19.7,19.7,0,0,0,174.1,117V96.48a19.82,19.82,0,0,0-19.79-19.79Z" class="svgShape color1f2b5b-3"></path><circle cx="105.04" cy="105.91" r="5.4" fill="#ffffff" class="svgShape colorffffff-4"></circle><path fill="#5b3e1f" d="M105,112.3a6.4,6.4,0,1,1,6.4-6.39A6.4,6.4,0,0,1,105,112.3Zm0-10.79a4.4,4.4,0,1,0,4.4,4.4A4.4,4.4,0,0,0,105,101.51Z" class="svgShape color1f2b5b-5"></path><path fill="#ffffff" d="M129.22,105.91a5.4,5.4,0,1,1-5.4-5.4A5.39,5.39,0,0,1,129.22,105.91Z" class="svgShape colorffffff-6"></path><path fill="#5b3e1f" d="M123.82,112.3a6.4,6.4,0,1,1,6.4-6.39A6.4,6.4,0,0,1,123.82,112.3Zm0-10.79a4.4,4.4,0,1,0,4.4,4.4A4.4,4.4,0,0,0,123.82,101.51Z" class="svgShape color1f2b5b-7"></path><path fill="#ffffff" d="M148,105.91a5.4,5.4,0,1,1-5.39-5.4A5.39,5.39,0,0,1,148,105.91Z" class="svgShape colorffffff-8"></path><path fill="#5b3e1f" d="M142.61,112.3a6.4,6.4,0,1,1,6.39-6.39A6.4,6.4,0,0,1,142.61,112.3Zm0-10.79a4.4,4.4,0,1,0,4.39,4.4A4.4,4.4,0,0,0,142.61,101.51Z" class="svgShape color1f2b5b-9"></path><path fill="#ff982b" d="M120.48,141a18.83,18.83,0,1,1-5-12.83A18.83,18.83,0,0,1,120.48,141Z" class="svgShape colora2bee3-10"></path><path fill="#d4ab7f" d="M111.5,124.88a18.84,18.84,0,0,1-25.73,26.2,18.84,18.84,0,1,0,25.73-26.2Z" class="svgShape color7fa1d4-11"></path><path fill="#ffffff" d="M115.44,128.13A19.49,19.49,0,0,0,85.09,150a18.84,18.84,0,0,1,30.35-21.83Z" class="svgShape colorffffff-12"></path><path fill="#5b3e1f" d="M101.61,160.76a19.81,19.81,0,1,1,19.8-19.8A19.83,19.83,0,0,1,101.61,160.76Zm0-37.61A17.81,17.81,0,1,0,119.41,141,17.83,17.83,0,0,0,101.61,123.15Z" class="svgShape color1f2b5b-13"></path><path fill="#ffffff" d="M109.56,145.57,104.94,141l4.62-4.61a2.36,2.36,0,0,0-3.33-3.34l-4.62,4.62L97,133a2.36,2.36,0,0,0-3.33,3.34L98.28,141l-4.62,4.62A2.36,2.36,0,1,0,97,148.91l4.62-4.62,4.62,4.62a2.36,2.36,0,1,0,3.33-3.34Z" class="svgShape colorffffff-14"></path><path fill="#5b3e1f" d="M95.32,150.59A3.35,3.35,0,0,1,92,147.24a3.29,3.29,0,0,1,1-2.37L96.86,141,93,137a3.36,3.36,0,0,1,4.74-4.75l3.92,3.92,3.91-3.91a3.36,3.36,0,0,1,4.75,4.74L106.35,141l3.91,3.92a3.36,3.36,0,1,1-4.74,4.75l-3.91-3.92-3.92,3.91A3.31,3.31,0,0,1,95.32,150.59Zm0-17.27a1.36,1.36,0,0,0-1,2.31L99,140.25a1,1,0,0,1,.3.7,1,1,0,0,1-.3.71l-4.62,4.62a1.38,1.38,0,0,0-.39,1,1.36,1.36,0,0,0,2.31,1l4.62-4.62a1,1,0,0,1,1.41,0l4.63,4.62a1.35,1.35,0,1,0,1.91-1.92h0l-4.62-4.62a1,1,0,0,1,0-1.41l4.62-4.62a1.36,1.36,0,0,0-1.92-1.92l-4.62,4.62a1,1,0,0,1-1.41,0l-4.62-4.62A1.35,1.35,0,0,0,95.33,133.32Z" class="svgShape color1f2b5b-15"></path><rect width="31.2" height="2" x="65.91" y="55.27" fill="#5b3e1f" class="svgShape color1f2b5b-16"></rect><rect width="8.37" height="2" x="53.5" y="55.27" fill="#5b3e1f" class="svgShape color1f2b5b-17"></rect><rect width="2" height="7.92" x="180.78" y="114.19" fill="#5b3e1f" class="svgShape color1f2b5b-18"></rect><rect width="2" height="22.04" x="180.78" y="89.26" fill="#5b3e1f" class="svgShape color1f2b5b-19"></rect><path fill="#ffffff" d="M56,99.5a2.26,2.26,0,1,0,2.26,2.26A2.26,2.26,0,0,0,56,99.5Z" class="svgShape colorffffff-20"></path><path fill="#5b3e1f" d="M56,105a3.26,3.26,0,1,1,3.26-3.26A3.26,3.26,0,0,1,56,105Zm0-4.52a1.26,1.26,0,1,0,1.26,1.26A1.26,1.26,0,0,0,56,100.5Z" class="svgShape color1f2b5b-21"></path><path fill="#ffffff" d="M56,96.87c.83,0,1.56-1,1.64-2.25l.86-14.69a2.11,2.11,0,0,0-2.13-2.25h-.75a2.1,2.1,0,0,0-2.12,2.25l.86,14.69C54.44,95.86,55.18,96.87,56,96.87Z" class="svgShape colorffffff-22"></path><path fill="#5b3e1f" d="M56,97.87c-1.38,0-2.53-1.4-2.64-3.2L52.51,80a3.1,3.1,0,0,1,3.12-3.31h.75A3.1,3.1,0,0,1,59.51,80l-.87,14.68C58.54,96.47,57.38,97.87,56,97.87Zm-.38-19.19a1.11,1.11,0,0,0-.83.35,1.15,1.15,0,0,0-.3.84l.87,14.69c.05.84.5,1.31.64,1.31s.59-.47.64-1.31l.86-14.69a1.14,1.14,0,0,0-.3-.85,1.12,1.12,0,0,0-.83-.34Z" class="svgShape color1f2b5b-23"></path></svg>